<svg width="81" height="23" viewBox="0 0 81 23" fill="none" xmlns="http://www.w3.org/2000/svg">
<g clip-path="url(#clip0_558_5573)">
<path d="M6.58873 5.38598e-07C5.78507 0.00405817 4.99005 0.169202 4.24911 0.486031C3.50816 0.802859 2.83579 1.26519 2.27039 1.84655C1.70499 2.4279 1.25764 3.11693 0.953889 3.87428C0.650135 4.63163 0.495935 5.44246 0.500081 6.26048V8.32838H5.44715V5.33242C5.44709 5.19172 5.47427 5.05239 5.52714 4.92239C5.58 4.79239 5.65752 4.67427 5.75525 4.57477C5.85298 4.47527 5.96902 4.39638 6.09673 4.34254C6.22444 4.2887 6.36132 4.26101 6.49956 4.26104H6.67791C6.81614 4.26101 6.95306 4.28871 7.08074 4.34254C7.20848 4.39638 7.32451 4.47527 7.4223 4.57477C7.52003 4.67426 7.59754 4.79239 7.65046 4.92239C7.70333 5.05239 7.73053 5.19171 7.73053 5.33242V13.3638C8.38019 13.3638 9.02352 13.2336 9.62371 12.9806C10.2239 12.7275 10.7693 12.3566 11.2287 11.889C11.6881 11.4214 12.0524 10.8663 12.3011 10.2554C12.5497 9.64448 12.6776 8.98964 12.6776 8.32838V6.26048C12.6811 4.60307 12.0399 3.01162 10.8941 1.83396C10.3319 1.25281 9.66173 0.791372 8.92253 0.476511C8.18339 0.161651 7.39005 -0.000340891 6.58873 5.38598e-07Z" fill="white"/>
<path d="M6.67814 17.4293H6.49979C6.36158 17.4293 6.22472 17.4016 6.09702 17.3478C5.96932 17.2939 5.85329 17.215 5.75556 17.1155C5.65783 17.016 5.58031 16.898 5.52744 16.768C5.47456 16.6381 5.44735 16.4987 5.44739 16.358V8.32671C4.79771 8.32665 4.15438 8.45681 3.55415 8.70982C2.95392 8.9629 2.40855 9.33376 1.94916 9.80136C1.48977 10.269 1.12537 10.8241 0.876773 11.4351C0.628179 12.046 0.500263 12.7008 0.500319 13.3621V15.4012C0.492078 16.2204 0.643482 17.0331 0.945774 17.7924C1.24806 18.5517 1.69524 19.2425 2.26146 19.8247C2.82767 20.407 3.50167 20.8692 4.24449 21.1846C4.9873 21.5001 5.7842 21.6625 6.58907 21.6625C7.39395 21.6625 8.19082 21.5001 8.93366 21.1846C9.67645 20.8692 10.3505 20.407 10.9167 19.8247C11.4829 19.2425 11.9301 18.5517 12.2324 17.7924C12.5347 17.0331 12.686 16.2204 12.6778 15.4012V13.3621H7.73078V16.358C7.73078 16.4988 7.70352 16.6381 7.65066 16.768C7.59773 16.898 7.52016 17.0161 7.42243 17.1156C7.3247 17.2151 7.20867 17.2939 7.08093 17.3478C6.95325 17.4016 6.81636 17.4293 6.67814 17.4293ZM21.1339 6.35764H19.4V15.3107H24.489V13.6228H21.134L21.1339 6.35764ZM30.0417 9.67365C29.7972 9.36428 29.484 9.11833 29.128 8.95609C28.7719 8.79379 28.3831 8.71973 27.9935 8.73995C27.5864 8.73671 27.1834 8.82236 26.8116 8.99121C26.4398 9.16005 26.108 9.40814 25.8385 9.71868C25.2598 10.3786 24.94 11.2323 24.94 12.1169C24.94 13.0015 25.2598 13.8551 25.8385 14.5152C26.1081 14.8256 26.44 15.0735 26.8117 15.2423C27.1835 15.411 27.5865 15.4967 27.9935 15.4935C28.8732 15.4935 29.5559 15.1822 30.0417 14.5598V15.3145H31.6628V8.91949H30.0417V9.67365ZM29.5456 13.415C29.3821 13.5815 29.1868 13.7122 28.9718 13.7991C28.7568 13.886 28.5266 13.9271 28.2953 13.9201C28.0649 13.9276 27.8356 13.8866 27.6214 13.7997C27.4073 13.7128 27.2132 13.5818 27.0511 13.415C26.7356 13.0588 26.561 12.5962 26.561 12.1166C26.561 11.637 26.7356 11.1744 27.0511 10.8183C27.2133 10.6515 27.4075 10.5207 27.6215 10.4338C27.8356 10.3469 28.065 10.3059 28.2953 10.3133C28.5265 10.3063 28.7567 10.3475 28.9717 10.4344C29.1867 10.5212 29.382 10.6518 29.5456 10.8183C29.8647 11.1727 30.0417 11.6359 30.0417 12.1166C30.0417 12.5973 29.8647 13.0605 29.5456 13.415ZM35.8393 13.2122L34.2005 8.91385H32.4288L35.0039 15.1045C34.8962 15.4739 34.6842 15.803 34.3944 16.051C34.0899 16.2612 33.7244 16.3604 33.3575 16.3326V17.8676C34.0729 17.9349 34.7883 17.7372 35.3719 17.3106C35.9111 16.8964 36.3442 16.2328 36.6712 15.3199L38.9618 8.9143H37.2277L35.8393 13.2122ZM42.4697 8.73872C42.0278 8.72291 41.5875 8.80053 41.1765 8.96678C40.7657 9.13304 40.3931 9.3843 40.0825 9.70462C39.4827 10.361 39.1502 11.2248 39.1525 12.1212C39.1548 13.0176 39.4916 13.8796 40.0948 14.5328C40.7232 15.1721 41.5568 15.4918 42.5955 15.492C43.8014 15.492 44.7146 15.0359 45.3348 14.1238L44.028 13.3561C43.8619 13.5707 43.6469 13.741 43.4018 13.8524C43.1566 13.9639 42.8885 14.013 42.6206 13.9955C41.6571 13.9955 41.0665 13.5949 40.8487 12.7935H45.5861C45.6265 12.5698 45.6476 12.3427 45.6489 12.1152C45.6729 11.2244 45.35 10.3602 44.7506 9.71071C44.4602 9.39278 44.1066 9.14159 43.7132 8.97397C43.3199 8.80636 42.896 8.72615 42.4697 8.73872ZM40.8237 11.5143C40.8955 11.1385 41.0957 10.8008 41.389 10.5612C41.7008 10.3266 42.082 10.2069 42.4695 10.2223C42.8237 10.2176 43.1699 10.3299 43.4562 10.5423C43.7606 10.7809 43.9649 11.1282 44.0278 11.5141L40.8237 11.5143ZM48.4011 10.0151V8.91482H46.78V15.31H48.4011V12.2532C48.4011 11.6394 48.5958 11.2002 48.9852 10.9358C49.3753 10.6714 49.8472 10.5621 50.3112 10.6288V8.78751C49.9037 8.78226 49.5023 8.88826 49.1487 9.09442C48.7995 9.30065 48.5344 9.62726 48.4011 10.0151ZM58.2136 7.7423V6.3576H52.4478V8.04604H56.0166L52.355 13.9007V15.3105H58.2836V13.6225H54.5516L58.2136 7.7423ZM62.11 8.73872C61.6681 8.72291 61.2277 8.80053 60.8167 8.96678C60.4058 9.13304 60.0332 9.3843 59.7225 9.70462C59.1227 10.361 58.7902 11.2248 58.7925 12.1213C58.7948 13.0177 59.1318 13.8797 59.7351 14.5328C60.3635 15.1721 61.197 15.4918 62.2355 15.492C63.4416 15.492 64.3547 15.0359 64.9749 14.1238L63.6681 13.3561C63.5019 13.5706 63.2871 13.741 63.042 13.8524C62.7968 13.9638 62.5288 14.0129 62.2609 13.9955C61.2972 13.9955 60.7066 13.5949 60.4891 12.7935H65.2264C65.2667 12.5697 65.2878 12.3427 65.2891 12.1152C65.3134 11.2244 64.9902 10.3602 64.3908 9.71071C64.1005 9.39278 63.7468 9.14159 63.3535 8.97397C62.9602 8.80636 62.5362 8.72615 62.11 8.73872ZM60.464 11.5143C60.5357 11.1385 60.7361 10.8008 61.0295 10.5612C61.3413 10.3264 61.7225 10.2069 62.11 10.2224C62.4642 10.2175 62.8104 10.3298 63.0966 10.5423C63.4011 10.7809 63.6053 11.1282 63.6681 11.5141L60.464 11.5143ZM68.0411 10.0151V8.91482H66.42V15.31H68.0411V12.2532C68.0411 11.6394 68.2357 11.2002 68.6254 10.9358C69.0152 10.6714 69.4869 10.5621 69.9509 10.6288V8.78751C69.5438 8.78226 69.1419 8.88826 68.7886 9.09442C68.4392 9.30065 68.1742 9.6272 68.0411 10.0151ZM73.6475 8.73755C72.8866 8.7461 72.1525 9.02231 71.5694 9.51932C70.9864 10.0163 70.5896 10.7035 70.4482 11.4641C70.3061 12.2247 70.427 13.0118 70.7906 13.6919C71.1541 14.372 71.7378 14.9031 72.4418 15.195C73.1464 15.4868 73.9285 15.5215 74.6555 15.2931C75.3819 15.0647 76.0085 14.5873 76.429 13.942C76.8494 13.2966 77.037 12.5232 76.9608 11.7529C76.884 10.9826 76.548 10.2631 76.0098 9.71629C75.7026 9.39713 75.3346 9.14561 74.9282 8.97721C74.5218 8.80889 74.0859 8.72731 73.6475 8.73755ZM74.8661 13.3805C74.7074 13.5438 74.5173 13.6723 74.3074 13.758C74.0981 13.8437 73.8734 13.8848 73.6475 13.8787C73.4222 13.8852 73.1982 13.8443 72.9896 13.7586C72.781 13.6728 72.5915 13.5441 72.4341 13.3805C72.123 13.0348 71.9502 12.583 71.9502 12.1141C71.9502 11.6454 72.123 11.1936 72.4341 10.8479C72.5915 10.6843 72.781 10.5556 72.9896 10.4699C73.1982 10.3842 73.4222 10.3431 73.6475 10.3496C73.8734 10.3436 74.0974 10.3847 74.3074 10.4705C74.5173 10.5561 74.7074 10.6846 74.8661 10.8479C75.181 11.1916 75.3563 11.6441 75.3563 12.1141C75.3563 12.5842 75.181 13.0368 74.8661 13.3805ZM80.3765 13.343H78.404V15.3127H80.3765V13.343Z" fill="white"/>
</g>
<defs>
<clipPath id="clip0_558_5573">
<rect width="80" height="22.029" fill="white" transform="translate(0.5)"/>
</clipPath>
</defs>
</svg>
