<svg width="52" height="22" viewBox="0 0 52 22" fill="none" xmlns="http://www.w3.org/2000/svg">
<path fill-rule="evenodd" clip-rule="evenodd" d="M4.13783 0.188243C2.95091 0.583741 1.8546 1.59155 1.42483 2.68248C1.17743 3.31052 1.15844 4.58302 1.38395 5.42927C1.56086 6.09334 2.11768 7.28471 2.56882 7.96451C2.81931 8.34189 2.85378 8.46891 2.78505 8.76248C2.64881 9.34522 2.39687 9.76262 1.5846 10.751C0.231293 12.3978 -0.0772048 13.2394 0.0150659 15.0315C0.129837 17.2604 1.25814 18.9253 3.32205 19.9112C4.74348 20.5901 5.41394 20.7189 7.83135 20.7775L9.94717 20.8288L10.3037 21.1304C10.4998 21.2964 10.9178 21.5486 11.2326 21.6911C11.7637 21.9313 11.9092 21.95 13.2499 21.95C14.9484 21.95 15.5049 21.8093 16.2249 21.198L16.6876 20.8052H18.387C20.9863 20.8052 22.6719 20.4309 24.0177 19.5547C25.7494 18.4273 26.6348 16.8041 26.6475 14.7329C26.6579 13.0568 26.3921 12.3811 25.0953 10.785C24.3378 9.85281 23.8928 9.09576 23.8174 8.61077C23.8003 8.50127 23.9173 8.21418 24.0774 7.97278C25.8799 5.25446 25.9221 2.78302 24.1929 1.20571C22.3742 -0.453235 19.8087 -0.380566 17.371 1.39903L16.7104 1.88123L15.9607 1.71618C14.9389 1.49121 11.7081 1.4935 10.6697 1.71996L9.94717 1.87755L9.40098 1.47996C8.61885 0.910452 7.46567 0.333481 6.75176 0.154297C5.92803 -0.0523611 4.81665 -0.0379266 4.13783 0.188243ZM32.0016 0.498231C32.1238 1.14688 32.3429 1.73748 32.647 2.2379C32.9737 2.77555 33.8915 3.59871 34.4313 3.83821L34.8673 4.03163L34.87 5.29139L34.8727 6.55105L34.326 6.8486C32.2993 7.95187 31.4095 10.4697 32.2422 12.7458C32.6118 13.7562 33.4721 14.7136 34.402 15.1493L34.8727 15.3699V16.6424V17.915L34.3431 18.1738C33.2027 18.7313 32.1453 20.2107 32.0146 21.432L31.9538 21.9998H32.9488H33.9438L33.9442 21.3776C33.9446 20.7427 34.1635 20.2231 34.5503 19.9391C34.8088 19.7493 34.8727 19.7841 34.8727 20.115C34.8727 20.5251 35.0246 20.773 35.3866 20.9535C36.1679 21.3432 37.0814 20.9647 37.2084 20.1989C37.283 19.7483 37.337 19.7276 37.6364 20.0351C37.9673 20.3749 38.1754 20.9399 38.1754 21.4988V21.9998H39.1559C40.2786 21.9998 40.2436 22.04 39.9784 21.0583C39.6403 19.8065 38.6838 18.605 37.6641 18.1515L37.2519 17.9681L37.2492 16.6643L37.2465 15.3604L37.6721 15.1753C38.6952 14.7303 39.7471 13.3383 40.0224 12.0651C40.4708 9.99098 39.5194 7.76502 37.8179 6.90753L37.247 6.61984L37.2467 5.31289L37.2465 4.00605L37.57 3.87684C38.7539 3.40379 39.8475 1.90193 40.095 0.408937L40.1628 0H39.1691H38.1754L38.1748 0.423072C38.174 1.06833 37.9832 1.59473 37.6277 1.93329L37.3059 2.2398L37.2408 1.8668C37.1633 1.42172 36.9044 1.11751 36.4428 0.929066C35.7318 0.638888 34.8727 1.14548 34.8727 1.85505C34.8727 2.2616 34.7859 2.27384 34.4401 1.91627C34.0333 1.49559 33.9438 1.25876 33.9438 0.603848V0H32.9258H31.9077L32.0016 0.498231ZM46.7392 0.423072C46.7368 0.822752 46.7124 0.856797 46.3006 1.03907C46.0608 1.14528 45.6041 1.4708 45.2856 1.76267C43.6644 3.2483 43.3275 5.85602 44.5062 7.79588C44.8467 8.35623 45.909 9.306 46.3785 9.46966L46.7419 9.59648V10.9684V12.3404L46.2093 12.6007C44.227 13.5696 43.2797 16.2458 44.1128 18.5233C44.469 19.497 45.3799 20.5004 46.3033 20.9364C46.7181 21.1322 46.7419 21.1669 46.7419 21.5716V21.9998H47.9289H49.1158V21.5535C49.1158 21.12 49.13 21.1003 49.6149 20.8632C51.3862 19.9976 52.367 17.667 51.8501 15.5522C51.5392 14.2805 50.6528 13.1117 49.638 12.635L49.1238 12.3935L49.12 10.9999L49.1163 9.60623L49.6881 9.31805C51.3749 8.46802 52.3364 6.21777 51.8917 4.16094C51.6185 2.8973 50.6755 1.63187 49.606 1.09332C49.1382 0.857792 49.1158 0.827132 49.1158 0.423271V0H47.9289H46.7419L46.7392 0.423072ZM46.7419 3.02273C46.7419 3.93358 48.0639 4.37855 48.7419 3.69596C48.8872 3.54973 49.0434 3.25636 49.0892 3.04403L49.1723 2.65809L49.5016 2.97564C49.9444 3.4026 50.0436 3.81472 50.0436 5.22619C50.0436 6.63766 49.9444 7.04978 49.5016 7.47674L49.1723 7.79429L49.0894 7.40944C48.9382 6.70764 48.3163 6.32269 47.5859 6.47898C47.1086 6.58112 46.8576 6.83217 46.7251 7.34006L46.6116 7.77478L46.3573 7.54572C45.8642 7.10155 45.813 6.88304 45.813 5.2246C45.813 3.59602 45.8474 3.43923 46.3094 2.96151C46.6551 2.60394 46.7419 2.61618 46.7419 3.02273ZM34.8727 8.81972C34.8727 9.36892 35.3504 9.75555 36.0292 9.75555C36.4778 9.75555 36.5902 9.71165 36.8956 9.4171C37.1495 9.17221 37.2465 8.98994 37.2465 8.7579C37.2465 8.44901 37.2551 8.44254 37.4787 8.58091C37.6065 8.66005 37.8154 8.92135 37.9432 9.16166C38.1491 9.54909 38.1753 9.7458 38.1748 10.8966C38.1742 12.4141 38.0809 12.8178 37.6302 13.2524L37.2989 13.572L37.2402 13.2316C37.1523 12.7215 36.9841 12.4876 36.5691 12.2977C35.8073 11.9491 34.8727 12.4431 34.8727 13.1944C34.8727 13.5534 34.8669 13.5589 34.6404 13.4159C34.5127 13.3351 34.3038 13.1214 34.176 12.941C33.9591 12.6346 33.9438 12.5081 33.9438 11.0284C33.9438 9.36812 33.9771 9.21402 34.4401 8.7352C34.7898 8.37355 34.8727 8.38978 34.8727 8.81972ZM46.7419 14.4917C46.7419 14.6425 46.8663 14.8682 47.0436 15.0392C47.2994 15.2859 47.4267 15.3302 47.8796 15.3302C48.3497 15.3302 48.4562 15.2894 48.7649 14.9917C48.9579 14.8055 49.1158 14.5554 49.1158 14.4359C49.1158 14.1428 49.2956 14.2188 49.6774 14.6736C49.9877 15.0434 49.9937 15.0718 50.0294 16.3421C50.0766 18.0168 50.0076 18.436 49.6142 18.8682C49.2205 19.3007 49.1158 19.3014 49.1158 18.8717C49.1158 18.1675 48.244 17.5871 47.5285 17.8148C47.0253 17.975 46.8055 18.2601 46.744 18.8323L46.6903 19.3314L46.394 19.106C45.8977 18.7283 45.813 18.3801 45.813 16.7171C45.813 15.1074 45.9124 14.6871 46.3655 14.381C46.6688 14.1761 46.7419 14.1976 46.7419 14.4917Z" fill="url(#paint0_linear_4882_20751)"/>
<defs>
<linearGradient id="paint0_linear_4882_20751" x1="26.1677" y1="-1.44421e-07" x2="26.1677" y2="22" gradientUnits="userSpaceOnUse">
<stop stop-color="#FFE40A"/>
<stop offset="1" stop-color="#F38701"/>
</linearGradient>
</defs>
</svg>
