<svg width="24" height="24" viewBox="0 0 24 24" fill="none" xmlns="http://www.w3.org/2000/svg">
<path d="M12 22C17.5228 22 22 17.5228 22 12C22 6.47715 17.5228 2 12 2C6.47715 2 2 6.47715 2 12C2 17.5228 6.47715 22 12 22Z" fill="url(#paint0_linear_8_2916)"/>
<path d="M16.3758 15.9831L12.9933 7.80898C12.9351 7.62896 12.8221 7.47159 12.6702 7.35881C12.5183 7.24603 12.335 7.18346 12.1458 7.17981H11.8466C11.6575 7.18346 11.4742 7.24603 11.3222 7.35881C11.1703 7.47159 11.0574 7.62896 10.9991 7.80898L9.52748 11.3706H8.41415C8.25388 11.3713 8.10033 11.4351 7.98677 11.5482C7.87321 11.6613 7.80879 11.8145 7.80748 11.9748V11.9831C7.80879 12.1434 7.87321 12.2967 7.98677 12.4098C8.10033 12.5229 8.25388 12.5867 8.41415 12.5873H9.01248L7.60831 15.9831C7.58175 16.0575 7.56767 16.1358 7.56665 16.2148C7.56011 16.3828 7.61999 16.5465 7.73331 16.6706C7.79146 16.73 7.86161 16.7762 7.93908 16.8063C8.01654 16.8363 8.09953 16.8494 8.18248 16.8448C8.30804 16.8432 8.43003 16.8027 8.53165 16.729C8.63798 16.6502 8.72117 16.5443 8.77248 16.4223L10.3166 12.5881H11.3891C11.5494 12.5875 11.703 12.5237 11.8165 12.4106C11.9301 12.2975 11.9945 12.1442 11.9958 11.984V11.9673C11.9945 11.807 11.9301 11.6538 11.8165 11.5407C11.703 11.4276 11.5494 11.3638 11.3891 11.3631H10.8166L11.9958 8.42231L15.2116 16.4223C15.263 16.5443 15.3461 16.6502 15.4525 16.729C15.5541 16.8027 15.6761 16.8432 15.8016 16.8448C15.8846 16.8494 15.9676 16.8363 16.0451 16.8063C16.1225 16.7762 16.1927 16.73 16.2508 16.6706C16.3641 16.5465 16.424 16.3828 16.4175 16.2148C16.4206 16.1355 16.4063 16.0564 16.3758 15.9831V15.9831Z" fill="white"/>
<defs>
<linearGradient id="paint0_linear_8_2916" x1="20.14" y1="6.54" x2="5.26" y2="19.06" gradientUnits="userSpaceOnUse">
<stop stop-color="#B6509E"/>
<stop offset="1" stop-color="#2EBAC6"/>
</linearGradient>
</defs>
</svg>
