<svg width="24" height="24" viewBox="0 0 24 24" fill="none" xmlns="http://www.w3.org/2000/svg">
<circle cx="12" cy="12" r="10" fill="#0033AD"/>
<path d="M8.38632 12.3389C8.35219 12.932 8.8087 13.4397 9.40174 13.4738C9.42307 13.4738 9.4444 13.4738 9.46574 13.4738C10.063 13.4738 10.5452 12.9917 10.5409 12.3944C10.5409 11.7971 10.0588 11.315 9.46147 11.3192C8.88976 11.3192 8.41618 11.7672 8.38632 12.3389Z" fill="white"/>
<path d="M4.36727 12.0617C4.17528 12.0489 4.00889 12.1982 4.00036 12.3902C3.99182 12.5822 4.13689 12.7486 4.32888 12.7571C4.52087 12.7699 4.68299 12.6206 4.69579 12.4286C4.70859 12.2366 4.55927 12.0745 4.36727 12.0617Z" fill="white"/>
<path d="M8.31806 6.08432C8.48872 5.99899 8.55698 5.78567 8.47165 5.61501C8.38632 5.44435 8.173 5.37609 8.00234 5.46142C7.83168 5.54675 7.76342 5.7558 7.84875 5.92646C7.93408 6.10139 8.14313 6.17392 8.31806 6.08432C8.31806 6.08432 8.31379 6.08432 8.31806 6.08432Z" fill="white"/>
<path d="M9.41037 7.99145C9.67489 7.85919 9.78155 7.53494 9.64929 7.27042C9.51703 7.0059 9.19278 6.89924 8.92826 7.0315C8.66373 7.16376 8.55707 7.48801 8.68933 7.75253C8.82159 8.01705 9.14585 8.12371 9.41037 7.99145Z" fill="white"/>
<path d="M5.73255 9.30121C5.93734 9.43347 6.21039 9.37801 6.34692 9.17322C6.47918 8.96843 6.42372 8.69537 6.21893 8.55885C6.01414 8.42659 5.74108 8.48205 5.60455 8.68684C5.46803 8.89163 5.52776 9.16895 5.73255 9.30121Z" fill="white"/>
<path d="M6.38524 11.8697C6.08659 11.8526 5.83487 12.0787 5.8178 12.3774C5.80073 12.676 6.02686 12.9278 6.32551 12.9448C6.62416 12.9619 6.87589 12.7358 6.89295 12.4371C6.91002 12.1427 6.68389 11.8867 6.38524 11.8697Z" fill="white"/>
<path d="M5.79228 15.4834C5.57469 15.5943 5.4851 15.8588 5.59603 16.0807C5.70695 16.2983 5.97148 16.3878 6.19333 16.2769C6.41092 16.166 6.50052 15.9015 6.38959 15.6796C6.27866 15.462 6.00987 15.3724 5.79228 15.4834Z" fill="white"/>
<path d="M7.88292 10.7561C8.17731 10.9481 8.56982 10.867 8.75755 10.5726C8.94954 10.2782 8.86848 9.88572 8.57409 9.698C8.2797 9.50601 7.88719 9.58707 7.69946 9.88146C7.50747 10.1716 7.58853 10.5641 7.88292 10.7561Z" fill="white"/>
<path d="M14.5172 7.94874C14.7647 8.11086 15.1017 8.0426 15.2638 7.79514C15.426 7.54769 15.3577 7.21064 15.1103 7.04851C14.8628 6.88638 14.5257 6.95465 14.3636 7.2021C14.1972 7.45383 14.2655 7.78661 14.5172 7.94874Z" fill="white"/>
<path d="M15.6179 6.05019C15.78 6.15685 15.9933 6.10992 16.1 5.9478C16.2067 5.78567 16.1597 5.57235 15.9976 5.46569C15.8355 5.35902 15.6222 5.40595 15.5155 5.56381C15.4131 5.72594 15.46 5.94353 15.6179 6.05019Z" fill="white"/>
<path d="M14.5983 11.3108C14.0053 11.2766 13.4933 11.7331 13.4635 12.3262C13.4293 12.9192 13.8858 13.4312 14.4789 13.4611C14.5002 13.4611 14.5216 13.4611 14.5386 13.4611C15.1317 13.4611 15.6138 12.9789 15.6138 12.3816C15.618 11.8142 15.1701 11.3406 14.5983 11.3108Z" fill="white"/>
<path d="M9.76437 10.6793C9.94783 11.042 10.319 11.2724 10.7286 11.2724C11.3216 11.2724 11.8037 10.7903 11.8037 10.1929C11.8037 10.0266 11.7653 9.86016 11.6885 9.70657C11.4198 9.17326 10.7713 8.95994 10.2422 9.22873C9.70891 9.50178 9.49558 10.1503 9.76437 10.6793Z" fill="white"/>
<path d="M18.2077 9.30126C18.4253 9.19033 18.5106 8.92154 18.3997 8.70395C18.2888 8.48636 18.02 8.40103 17.8024 8.51196C17.5848 8.62289 17.4995 8.88741 17.6061 9.105C17.7213 9.32259 17.9858 9.41218 18.2077 9.30126Z" fill="white"/>
<path d="M15.4772 9.6425C15.1658 9.80036 15.0378 10.1801 15.1956 10.4915C15.3535 10.803 15.7332 10.931 16.0447 10.7731C16.3561 10.6153 16.4841 10.2355 16.3263 9.92409C16.1684 9.61264 15.7887 9.48891 15.4772 9.6425Z" fill="white"/>
<path d="M11.9573 5.88806C12.2005 5.90086 12.4096 5.71313 12.4266 5.46994C12.4437 5.22675 12.2517 5.0177 12.0085 5.00063C11.7653 4.98783 11.5563 5.17129 11.5392 5.41448C11.5264 5.66193 11.7141 5.87099 11.9573 5.88806Z" fill="white"/>
<path d="M11.9531 8.6741C12.3029 8.69543 12.6016 8.42664 12.6186 8.07679C12.64 7.72694 12.3712 7.42829 12.0213 7.41122C11.6715 7.38989 11.3728 7.65868 11.3558 8.00853C11.3387 8.35838 11.6032 8.65703 11.9531 8.6741Z" fill="white"/>
<path d="M8.5227 15.1421C8.83415 14.9842 8.96215 14.6045 8.80429 14.293C8.64643 13.9816 8.26671 13.8536 7.95526 14.0114C7.64381 14.1693 7.51581 14.549 7.67367 14.8605C7.83153 15.1719 8.21125 15.2999 8.5227 15.1421Z" fill="white"/>
<path d="M12.3627 9.5999C12.0384 10.0991 12.175 10.7647 12.6741 11.0889C13.1733 11.4132 13.8389 11.2766 14.1631 10.7775C14.4874 10.2783 14.3509 9.6127 13.8517 9.28845C13.6768 9.17326 13.472 9.11353 13.2629 9.11353C12.9003 9.11353 12.5632 9.29698 12.3627 9.5999Z" fill="white"/>
<path d="M14.2357 14.1053C13.9669 13.5719 13.3184 13.3586 12.7893 13.6274C12.256 13.8962 12.0427 14.5447 12.3115 15.0737C12.5803 15.6071 13.2288 15.8204 13.7578 15.5516C14.2869 15.2871 14.5045 14.6471 14.2399 14.1138C14.2399 14.1095 14.2399 14.1095 14.2357 14.1053Z" fill="white"/>
<path d="M16.1171 14.0284C15.8227 13.8365 15.4302 13.9175 15.2424 14.2119C15.0504 14.5063 15.1315 14.8988 15.4259 15.0865C15.7203 15.2785 16.1128 15.1975 16.3005 14.9031C16.4925 14.6129 16.4114 14.2204 16.1171 14.0284Z" fill="white"/>
<path d="M18.182 12.4115C18.1991 12.1128 17.973 11.8611 17.6743 11.844C17.3757 11.827 17.1239 12.0531 17.1069 12.3518C17.0898 12.6504 17.3159 12.9021 17.6146 12.9192C17.909 12.9363 18.1649 12.7059 18.182 12.4115Z" fill="white"/>
<path d="M19.6712 12.0275C19.4792 12.0147 19.3128 12.164 19.3043 12.356C19.2958 12.548 19.4408 12.7144 19.6328 12.7229C19.8248 12.7357 19.9869 12.5864 19.9997 12.3944C20.0083 12.2024 19.8632 12.0403 19.6712 12.0275Z" fill="white"/>
<path d="M18.2673 15.4834C18.0625 15.3511 17.7895 15.4066 17.653 15.6114C17.5207 15.8162 17.5762 16.0892 17.781 16.2258C17.9857 16.358 18.2588 16.3026 18.3953 16.0978C18.5319 15.893 18.4721 15.6157 18.2673 15.4834Z" fill="white"/>
<path d="M8.37773 18.7344C8.2156 18.6277 8.00228 18.6746 7.89562 18.8325C7.78896 18.9946 7.83589 19.2079 7.99375 19.3146C8.15587 19.4213 8.3692 19.3743 8.47586 19.2165C8.58679 19.0586 8.53985 18.841 8.37773 18.7344Z" fill="white"/>
<path d="M15.682 18.7002C15.5114 18.7856 15.4431 18.9989 15.5284 19.1696C15.6138 19.3402 15.8271 19.4085 15.9977 19.3232C16.1684 19.2378 16.2367 19.0288 16.1513 18.8581C16.066 18.6832 15.857 18.6106 15.682 18.7002C15.682 18.7002 15.6863 18.7002 15.682 18.7002Z" fill="white"/>
<path d="M11.6373 15.1847C11.9616 14.6855 11.825 14.0199 11.3258 13.6914C10.8267 13.3672 10.1611 13.5037 9.83258 14.0029C9.50406 14.502 9.64485 15.1676 10.144 15.4961C10.319 15.6113 10.5237 15.6711 10.7328 15.6711C11.0997 15.6753 11.4368 15.4919 11.6373 15.1847Z" fill="white"/>
<path d="M9.48277 16.8359C9.23531 16.6737 8.89826 16.742 8.73613 16.9895C8.57401 17.2369 8.64227 17.574 8.88973 17.7361C9.13718 17.8982 9.47423 17.83 9.63636 17.5825C9.80275 17.335 9.73449 16.998 9.48277 16.8359Z" fill="white"/>
<path d="M11.9958 18.8965C11.7526 18.8837 11.5435 19.0714 11.5264 19.3146C11.5094 19.5578 11.7014 19.7669 11.9446 19.7839C12.1878 19.7967 12.3968 19.6133 12.4139 19.3701C12.4267 19.1226 12.2389 18.9136 11.9958 18.8965Z" fill="white"/>
<path d="M12 16.1106C11.6502 16.0892 11.3515 16.358 11.3344 16.7079C11.3131 17.0577 11.5819 17.3564 11.9317 17.3734C12.2816 17.3905 12.5803 17.126 12.5973 16.7761C12.6186 16.4305 12.3499 16.1276 12 16.1106Z" fill="white"/>
<path d="M14.5898 16.7931C14.3253 16.9297 14.2187 17.2539 14.3552 17.5184C14.4917 17.783 14.816 17.8896 15.0805 17.7531C15.345 17.6208 15.4517 17.2966 15.3194 17.0321C15.1829 16.7675 14.8586 16.6566 14.5898 16.7931Z" fill="white"/>
</svg>
