<svg width="24" height="24" viewBox="0 0 24 24" fill="none" xmlns="http://www.w3.org/2000/svg">
<path d="M12 22C17.5228 22 22 17.5228 22 12C22 6.47715 17.5228 2 12 2C6.47715 2 2 6.47715 2 12C2 17.5228 6.47715 22 12 22Z" fill="#0AC18E"/>
<path d="M15.1192 8.64215C14.6167 7.50256 13.4619 7.2589 12.0482 7.49494L11.5938 5.73352L10.5228 6.01017L10.9695 7.76652C10.6878 7.83758 10.3984 7.8985 10.1116 7.97971L9.66492 6.23352L8.59386 6.51017L9.04817 8.27159C8.81721 8.33758 6.88574 8.83251 6.88574 8.83251L7.18016 9.97971C7.18016 9.97971 7.96696 9.7589 7.95934 9.77667C8.39589 9.66245 8.60147 9.88073 8.69792 10.0863L9.94665 14.9137C9.96188 15.0533 9.93649 15.2919 9.637 15.3731C9.65477 15.3833 8.85782 15.5736 8.85782 15.5736L8.97457 16.9112C8.97457 16.9112 10.8883 16.4213 11.1395 16.3579L11.5989 18.1396L12.67 17.863L12.2106 16.0685C12.505 16 12.7918 15.929 13.071 15.8553L13.5279 17.6396L14.5989 17.363L14.1395 15.5838C15.7893 15.1828 16.9542 14.1422 16.7157 12.5508C16.5634 11.5914 15.5152 10.8046 14.6446 10.7158C15.1801 10.2411 15.4517 9.54824 15.1192 8.64215ZM14.604 12.8427C14.8172 14.4188 12.6268 14.6117 11.9035 14.802L11.2741 12.4442C11.9999 12.2538 14.2436 11.4543 14.604 12.8427ZM13.2842 9.632C13.5101 11.033 11.637 11.1954 11.0329 11.3503L10.4593 9.21068C11.0659 9.06093 12.8248 8.33504 13.2842 9.632Z" fill="white"/>
</svg>
