<svg width="24" height="24" viewBox="0 0 24 24" fill="none" xmlns="http://www.w3.org/2000/svg">
<circle cx="12" cy="12" r="10" fill="#EDEFF0"/>
<path d="M17.0769 12.7134C15.2873 13.6377 13.4198 14.6053 11.9776 15.3539L6.91992 12.7134C8.75124 15.3593 10.2769 17.562 11.9776 19.9998C13.6811 17.5674 15.5624 14.8836 17.0769 12.7134ZM16.8824 11.9837L11.972 9.43507L7.12556 11.9648L11.9692 14.5161L16.8824 11.9837ZM11.9776 8.61886L17.0769 11.2296L11.9998 4L6.91992 11.2459L11.9776 8.61886V8.61886Z" fill="#657ABD"/>
<path d="M16.8823 11.9837L11.972 9.43506L7.12551 11.9648L11.9692 14.5161L16.8823 11.9837Z" fill="#9C68AA"/>
<path d="M11.9776 8.61886L17.0769 11.2296L11.9998 4L6.91992 11.2459L11.9776 8.61886Z" fill="#F48975"/>
<path d="M11.9778 8.6191L12 4.00024L6.92012 11.2461L11.9778 8.6191Z" fill="#F8EC66"/>
<path d="M7.12572 11.965L11.9722 9.4353L11.9694 14.5163L7.12572 11.965Z" fill="#50BA78"/>
<path d="M11.9778 15.3541L6.92014 12.7136C8.75145 15.3595 11.9778 20 11.9778 20V15.3541Z" fill="#10AED3"/>
</svg>
