<svg width="24" height="24" viewBox="0 0 24 24" fill="none" xmlns="http://www.w3.org/2000/svg">
<circle cx="12" cy="12" r="10" fill="#F3BA2F"/>
<path d="M8.89271 10.7233L11.9999 7.61624L15.1088 10.725L16.9168 8.91699L11.9999 4L7.08472 8.91534L8.89271 10.7233Z" fill="white"/>
<path d="M7.61606 11.9997L5.80811 10.1918L4.00006 11.9998L5.80802 13.8078L7.61606 11.9997Z" fill="white"/>
<path d="M8.89243 13.2767L11.9996 16.3838L15.1084 13.2751L16.9174 15.0821L16.9165 15.0831L11.9996 20L7.08431 15.0848L7.08179 15.0823L8.89243 13.2767Z" fill="white"/>
<path d="M18.192 13.8087L20 12.0006L18.192 10.1926L16.384 12.0007L18.192 13.8087Z" fill="white"/>
<path d="M13.8335 11.9991H13.8343L11.9996 10.1644L10.6438 11.5203H10.6436L10.488 11.6761L10.1666 11.9974L10.1641 12L10.1666 12.0026L11.9996 13.8356L13.8343 12.001L13.8351 12L13.8335 11.9991Z" fill="white"/>
</svg>
