<svg width="24" height="24" viewBox="0 0 24 24" fill="none" xmlns="http://www.w3.org/2000/svg">
<path d="M21.7007 14.4191C20.3649 19.7763 14.9384 23.0365 9.58001 21.7006C4.22382 20.365 0.963158 14.9388 2.29955 9.58198C3.63469 4.22423 9.06121 0.963634 14.418 2.29925C19.7761 3.63486 23.0364 9.06168 21.7007 14.4191Z" fill="url(#paint0_linear_8_2934)"/>
<path d="M16.3993 10.5871C16.5984 9.25649 15.5852 8.54118 14.1997 8.064L14.6491 6.26152L13.5518 5.98809L13.1143 7.74307C12.8258 7.67119 12.5295 7.60338 12.2351 7.53619L12.6758 5.76965L11.5791 5.49622L11.1294 7.29807C10.8906 7.2437 10.6562 7.18995 10.4287 7.13339L10.43 7.12776L8.91666 6.74995L8.62476 7.92182C8.62476 7.92182 9.43891 8.10838 9.42172 8.11994C9.86614 8.23087 9.94646 8.52493 9.93302 8.75806C8.70164 13.6958 9.93302 8.75806 8.70164 13.6958C8.64726 13.8308 8.50943 14.0333 8.19878 13.9564C8.20971 13.9724 7.40119 13.7574 7.40119 13.7574L6.85645 15.0133L8.28441 15.3692C8.55006 15.4358 8.8104 15.5055 9.06668 15.5711L8.61257 17.3942L9.70862 17.6676L10.1584 15.8639C10.4578 15.9452 10.7484 16.0202 11.0328 16.0908L10.5847 17.8861L11.682 18.1595L12.1361 16.3398C14.0072 16.6939 15.4142 16.5511 16.0065 14.8589C16.4837 13.4964 15.9827 12.7105 14.9982 12.198C15.7152 12.0327 16.2553 11.5612 16.3993 10.5871V10.5871ZM13.8922 14.1024C13.5531 15.4649 11.2588 14.7283 10.515 14.5436L11.1175 12.1283C11.8614 12.314 14.2466 12.6815 13.8922 14.1024ZM14.2316 10.5674C13.9222 11.8068 12.0126 11.1771 11.3932 11.0227L11.9395 8.83212C12.5589 8.98649 14.5538 9.27461 14.2316 10.5674V10.5674Z" fill="white"/>
<defs>
<linearGradient id="paint0_linear_8_2934" x1="2" y1="2" x2="2" y2="22" gradientUnits="userSpaceOnUse">
<stop stop-color="#F9AA4B"/>
<stop offset="1" stop-color="#F7931A"/>
</linearGradient>
</defs>
</svg>
