<svg width="24" height="24" viewBox="0 0 24 24" fill="none" xmlns="http://www.w3.org/2000/svg">
<circle cx="12" cy="12" r="10" fill="#47D5DC"/>
<path fill-rule="evenodd" clip-rule="evenodd" d="M7.49375 7.1875C7.275 6.05 8.15 5 9.2875 5C10.2937 5 11.125 5.83125 11.125 6.8375V9.1125C11.3875 9.1125 11.65 9.06875 11.9125 9.06875C12.175 9.06875 12.3937 9.06875 12.6562 9.1125V6.8375C12.6562 5.83125 13.4875 5 14.4937 5C15.6312 5 16.5062 6.05 16.3312 7.1875L15.85 9.85625C17.5562 10.6 18.8687 11.9125 18.8687 13.5312V14.5375C18.8687 15.8937 17.9937 17.0313 16.725 17.775C15.4562 18.5625 13.7937 19 11.9125 19C10.0312 19 8.36875 18.5625 7.1 17.775C5.875 17.0313 5 15.8937 5 14.5375V13.5312C5 11.9125 6.26875 10.6 7.975 9.85625L7.49375 7.1875ZM15.1937 10.2062L15.7625 7.05625C15.8937 6.26875 15.325 5.525 14.4937 5.525C13.7937 5.525 13.225 6.09375 13.225 6.79375V9.68125C13.05 9.6375 12.8312 9.6375 12.6562 9.6375C12.3937 9.6375 12.175 9.59375 11.9125 9.59375C11.65 9.59375 11.3875 9.59375 11.125 9.6375C10.95 9.6375 10.7312 9.68125 10.5562 9.68125V6.8375C10.5562 6.1375 9.9875 5.56875 9.2875 5.56875C8.5 5.56875 7.8875 6.3125 8.0625 7.1L8.63125 10.25C6.79375 10.95 5.56875 12.175 5.56875 13.575V14.5812C5.56875 16.725 8.4125 18.475 11.9125 18.475C15.4125 18.475 18.2562 16.725 18.2562 14.5812V13.575C18.3 12.1313 17.075 10.9062 15.1937 10.2062Z" fill="#633001"/>
<path d="M18.3 14.5375C18.3 16.6812 15.4563 18.4313 11.9563 18.4313C8.4563 18.4313 5.61255 16.6812 5.61255 14.5375V13.5312H18.3438V14.5375H18.3Z" fill="#FEDC90"/>
<path fill-rule="evenodd" clip-rule="evenodd" d="M8.06255 7.09998C7.88755 6.31248 8.50005 5.56873 9.28755 5.56873C9.98755 5.56873 10.5563 6.13748 10.5563 6.83748V9.72498C10.9938 9.68123 11.4313 9.63748 11.9125 9.63748C12.35 9.63748 12.7875 9.68123 13.225 9.72498V6.83748C13.225 6.13748 13.7938 5.56873 14.4938 5.56873C15.2813 5.56873 15.8938 6.31248 15.7625 7.09998L15.1938 10.25C17.0313 10.95 18.3 12.175 18.3 13.575C18.3 15.7187 15.4563 17.4687 11.9563 17.4687C8.4563 17.4687 5.61255 15.7187 5.61255 13.575C5.61255 12.175 6.83755 10.95 8.67505 10.25L8.06255 7.09998Z" fill="#D1884F"/>
<path d="M10.1625 13.2687C10.1625 13.8375 9.8562 14.3187 9.46245 14.3187C9.0687 14.3187 8.76245 13.8375 8.76245 13.2687C8.76245 12.7 9.0687 12.2188 9.46245 12.2188C9.8562 12.2188 10.1625 12.7 10.1625 13.2687Z" fill="#633001"/>
<path d="M15.0187 13.2687C15.0187 13.8375 14.7124 14.3187 14.3187 14.3187C13.9249 14.3187 13.6187 13.8375 13.6187 13.2687C13.6187 12.7 13.9249 12.2188 14.3187 12.2188C14.7124 12.2188 15.0187 12.7 15.0187 13.2687Z" fill="#633001"/>
</svg>
