<svg width="24" height="24" viewBox="0 0 24 24" fill="none" xmlns="http://www.w3.org/2000/svg">
<path d="M12 2C17.5234 2 22 6.47754 22 12C22 17.5234 17.5234 22 12 22C6.47754 22 2 17.5229 2 12C2 6.47754 6.47754 2 12 2Z" fill="#F5AC37"/>
<path d="M12.3687 12.706H16.1685C16.2495 12.706 16.2877 12.706 16.2936 12.5998C16.3246 12.2133 16.3246 11.8245 16.2936 11.4375C16.2936 11.3623 16.2562 11.3313 16.1748 11.3313H8.61247C8.51887 11.3313 8.49367 11.3623 8.49367 11.4501V12.5625C8.49367 12.706 8.49367 12.706 8.64352 12.706H12.3687V12.706ZM15.8692 10.0312C15.88 10.0028 15.88 9.97179 15.8692 9.94389C15.8058 9.80574 15.7306 9.67389 15.6433 9.55014C15.5119 9.33863 15.3571 9.14378 15.1807 8.96873C15.0975 8.86298 15.0012 8.76803 14.8932 8.68748C14.3523 8.22712 13.7092 7.90132 13.018 7.73752C12.6693 7.65922 12.3129 7.62187 11.9556 7.62502H8.59942C8.50582 7.62502 8.49322 7.66237 8.49322 7.74382V9.96234C8.49322 10.0559 8.49322 10.0811 8.61202 10.0811H15.8242C15.8242 10.0811 15.8868 10.0685 15.8994 10.0312H15.8688H15.8692ZM15.8692 14.0061C15.763 13.9944 15.6559 13.9944 15.5497 14.0061H8.61877C8.52517 14.0061 8.49367 14.0061 8.49367 14.1312V16.3002C8.49367 16.4001 8.49367 16.4253 8.61877 16.4253H11.8188C11.9718 16.437 12.1248 16.4262 12.2746 16.3943C12.739 16.361 13.1958 16.2602 13.6314 16.0941C13.7898 16.0392 13.9428 15.9677 14.0872 15.8817H14.1309C14.881 15.4915 15.4903 14.8786 15.8746 14.1262C15.8746 14.1262 15.9183 14.0317 15.8692 14.007V14.0061ZM7.23771 17.5499V17.5125V16.0563V15.5626V14.0938C7.23771 14.0124 7.23771 14.0002 7.13781 14.0002H5.78149C5.70634 14.0002 5.67529 14.0002 5.67529 13.9003V12.7128H7.12521C7.20621 12.7128 7.23771 12.7128 7.23771 12.6066V11.4316C7.23771 11.3565 7.23771 11.338 7.13781 11.338H5.78149C5.70634 11.338 5.67529 11.338 5.67529 11.2381V10.1383C5.67529 10.0694 5.67529 10.051 5.77519 10.051H7.11891C7.21251 10.051 7.23771 10.051 7.23771 9.93219V6.56346C7.23771 6.46356 7.23771 6.43835 7.36281 6.43835H12.0501C12.3903 6.45185 12.7282 6.48921 13.0626 6.55086C13.7515 6.67821 14.4135 6.92436 15.0187 7.27581C15.4201 7.51207 15.7896 7.79737 16.1185 8.12587C16.366 8.38282 16.5893 8.66093 16.7873 8.95703C16.9839 9.25718 17.1473 9.57804 17.2755 9.91329C17.2913 10.0006 17.375 10.0595 17.4623 10.0447H18.581C18.7245 10.0447 18.7245 10.0447 18.7308 10.1824V11.2075C18.7308 11.3074 18.6935 11.3326 18.5931 11.3326H17.7305C17.6432 11.3326 17.618 11.3326 17.6243 11.4451C17.6585 11.8258 17.6585 12.2079 17.6243 12.5886C17.6243 12.6948 17.6243 12.7074 17.7435 12.7074H18.7304C18.774 12.7636 18.7304 12.8199 18.7304 12.8766C18.7367 12.949 18.7367 13.0224 18.7304 13.0948V13.8513C18.7304 13.9575 18.6993 13.989 18.6053 13.989H17.424C17.3417 13.9732 17.2616 14.0259 17.2427 14.1078C16.9614 14.839 16.5114 15.4947 15.93 16.0203C15.7176 16.2116 15.4944 16.3916 15.2613 16.5576C15.0111 16.7016 14.7676 16.8515 14.5111 16.9703C14.0391 17.1827 13.5441 17.3393 13.036 17.4387C12.5536 17.5251 12.0645 17.5643 11.5735 17.5575H7.23591V17.5512L7.23771 17.5499Z" fill="#FEFEFD"/>
</svg>
