<svg width="24" height="24" viewBox="0 0 24 24" fill="none" xmlns="http://www.w3.org/2000/svg">
<path d="M12 22C17.5228 22 22 17.5228 22 12C22 6.47715 17.5228 2 12 2C6.47715 2 2 6.47715 2 12C2 17.5228 6.47715 22 12 22Z" fill="#988430"/>
<path d="M12 21.6796C17.3459 21.6796 21.6796 17.3459 21.6796 12C21.6796 6.65405 17.3459 2.32031 12 2.32031C6.65405 2.32031 2.32031 6.65405 2.32031 12C2.32031 17.3459 6.65405 21.6796 12 21.6796Z" fill="#7A6A2A"/>
<path d="M11.9999 21.4757C17.2332 21.4757 21.4756 17.2333 21.4756 12C21.4756 6.76672 17.2332 2.52429 11.9999 2.52429C6.76659 2.52429 2.52417 6.76672 2.52417 12C2.52417 17.2333 6.76659 21.4757 11.9999 21.4757Z" fill="#BA9F33"/>
<path fill-rule="evenodd" clip-rule="evenodd" d="M6.3722 10.932C6.31556 10.8803 6.25572 10.8284 6.20068 10.7767C6.14564 10.725 6.0891 10.6731 6.03246 10.6214L5.86414 10.4614C5.83662 10.4339 5.8075 10.4097 5.77998 10.382C5.75246 10.3578 5.72014 10.3303 5.69262 10.306C5.46926 10.094 5.24462 9.8821 5.02435 9.67004C5.25251 9.87879 5.47587 10.086 5.70404 10.2979L5.78329 10.3772C5.81081 10.4047 5.83993 10.429 5.86745 10.4565L6.03566 10.6118C6.0923 10.6635 6.14734 10.7154 6.20398 10.7718C6.26062 10.8282 6.31566 10.8802 6.3723 10.9318L6.3722 10.932ZM3.40782 10.9C3.40782 10.9 4.22009 10.9841 4.61657 11.0407C4.98382 11.0926 6.13273 11.2689 6.13273 11.2689L3.40782 10.9ZM3.40782 10.9C3.63598 10.9194 3.86414 10.9436 4.0923 10.968C4.20878 10.9793 4.32046 10.9922 4.43214 11.0035L4.60355 11.023C4.66019 11.031 4.71523 11.0391 4.77187 11.0472L5.45155 11.1556L5.79129 11.2122C5.90297 11.2316 6.01465 11.2528 6.13113 11.2722C6.01945 11.2609 5.90297 11.2447 5.79129 11.2284L5.45155 11.1799L4.77187 11.0796C4.71523 11.0715 4.66019 11.0601 4.60355 11.0521L4.43203 11.0324C4.32035 11.0211 4.20387 11.0049 4.09219 10.9919C3.86403 10.9644 3.63587 10.9352 3.40771 10.8997L3.40782 10.9ZM6.05187 11.4805C6.05187 11.4805 5.18457 11.7007 4.89166 11.7848C4.60366 11.8641 3.73145 12.1295 3.73145 12.1295L6.05177 11.4806L6.05187 11.4805Z" fill="#CFB66C"/>
<path fill-rule="evenodd" clip-rule="evenodd" d="M6.05185 11.4806C5.85932 11.5372 5.66785 11.5923 5.47254 11.6441L4.89324 11.7994C4.7007 11.8561 4.50924 11.9111 4.31724 11.9678L4.02924 12.047C3.93377 12.0745 3.8367 12.0988 3.73804 12.1264C3.8334 12.0944 3.93057 12.0616 4.02604 12.0341L4.31404 11.9419C4.50657 11.882 4.69804 11.8254 4.89004 11.7655C5.08577 11.717 5.27841 11.6651 5.47414 11.6182C5.66017 11.5713 5.85601 11.5244 6.05185 11.4807V11.4806ZM3.85292 12.6636C3.94828 12.628 5.04865 12.1151 5.30433 11.9953C5.43233 11.9353 5.80438 11.8033 5.80438 11.8033L3.85292 12.6636Z" fill="#CFB66C"/>
<path fill-rule="evenodd" clip-rule="evenodd" d="M3.85289 12.6635C3.93694 12.6315 4.0163 12.5923 4.09716 12.5551L4.33662 12.4434L4.81726 12.2121C4.97726 12.136 5.13278 12.0521 5.2978 11.9806C5.38196 11.9451 5.46612 11.916 5.55017 11.8884L5.67817 11.848C5.7218 11.8367 5.76233 11.8237 5.80617 11.8124C5.64617 11.8884 5.47774 11.9532 5.31753 12.0275C5.15753 12.1069 4.9939 12.1716 4.82878 12.2428L4.34014 12.4579C4.17609 12.5244 4.01609 12.5955 3.85278 12.6635H3.85289ZM3.95956 13.1115C3.95956 13.1115 4.95625 12.5274 5.29929 12.3396C5.47892 12.2394 6.05982 11.9513 6.05982 11.9513L3.95956 13.1115Z" fill="#CFB66C"/>
<path fill-rule="evenodd" clip-rule="evenodd" d="M3.95947 13.1117C4.12769 13.0081 4.29921 12.9029 4.47073 12.7961L4.72673 12.6407C4.81409 12.589 4.89825 12.5405 4.98731 12.4887C5.07467 12.4369 5.15883 12.3851 5.24779 12.3366C5.29014 12.3105 5.33451 12.2877 5.38049 12.2687L5.51638 12.2007C5.69601 12.1134 5.87563 12.0243 6.06497 11.9482C5.89345 12.0567 5.71702 12.149 5.5407 12.2443C5.45334 12.2929 5.36427 12.3366 5.27691 12.3851C5.18955 12.4337 5.10539 12.4855 5.01633 12.5325C4.92897 12.5842 4.84481 12.6327 4.75585 12.6797L4.49206 12.8237L3.95969 13.1117H3.95947ZM6.05163 12.0792C6.05163 12.0792 5.4319 12.555 5.23126 12.7071C5.03062 12.8592 4.44001 13.2864 4.44001 13.2864L6.05163 12.0792V12.0792Z" fill="#CFB66C"/>
<path fill-rule="evenodd" clip-rule="evenodd" d="M9.60838 15.9159L9.29126 15.3156L9.47569 14.5647L10.7912 14.0567L10.2313 12.9079L10.508 11.7477L11.0275 10.7087L12.6327 10.4564L13.8122 9.33179L16.3592 9.52432L16.8592 12.2476L15.8964 15.6764L15.3479 17.4516L13.1245 17.5357L12.0922 16.8205L10.8835 16.3156L9.60838 15.9159Z" fill="#E2CC85"/>
<path fill-rule="evenodd" clip-rule="evenodd" d="M13.5083 15.8964C13.5083 15.8964 13.2007 16.0372 12.6763 16.0048C12.5245 15.8009 11.4614 15.7055 11.4614 15.7055C11.4614 15.7055 11.3287 15.665 11.0941 15.7621C10.8579 15.8581 10.6345 15.8463 10.4258 15.898C10.2171 15.9497 10.0098 15.678 9.8498 15.6213C9.6898 15.5615 9.47764 15.4175 9.47764 15.4175L9.02964 15.3737L8.13001 14.9935L6.70079 13.5696L6.31241 14.1776L6.19263 14.93L6.62473 15.8216L7.78815 16.8815L10.0567 17.4575L11.4014 17.0613L13.0859 16.3493L13.5083 15.8963V15.8964Z" fill="#F1D789"/>
<path fill-rule="evenodd" clip-rule="evenodd" d="M5.44822 10.8641L5.73622 9.99201L6.07937 9.42881L7.18444 9.33655L6.8527 10.3042L5.92886 11.9483L6.31233 13.4159L5.63276 13.7556L5.4239 13.4353L5.25569 12.7007L5.24438 11.8754L5.44822 10.8641Z" fill="#F4ECB4"/>
<path fill-rule="evenodd" clip-rule="evenodd" d="M6.68771 15.8366L6.47576 15.5405C6.47576 15.5405 6.41912 15.3997 6.45155 15.2767C6.48355 15.1521 6.47896 15.144 6.46285 15.0971C6.44675 15.0501 6.31074 14.8883 6.31885 14.7491C6.32685 14.6083 6.30754 14.5614 6.41101 14.4498C6.51939 14.3414 6.48707 14.1537 6.48707 14.1537L6.62787 14.2411L6.65987 14.1925C6.65987 14.1925 6.7116 14.233 6.7116 14.2961C6.72291 14.2087 6.67598 13.8042 6.78275 13.712C6.88953 13.6198 7.07886 14.144 7.07886 14.144L6.96238 13.3835L6.66296 12.6036L6.13058 11.8916L6.09858 11.1068V11.0388C6.09858 11.0388 5.8542 11.4143 5.78626 11.7108C5.73772 11.9147 5.8542 12.1622 5.82999 12.4551C5.81047 12.7464 5.78626 12.7237 5.8574 12.8391C5.92855 12.9546 6.10178 13.1919 6.03383 13.3634C5.97399 13.5107 5.77004 13.4071 5.77004 13.4071C5.77004 13.4071 5.72961 13.5268 5.67457 13.5706C5.65516 13.4994 5.63415 13.4541 5.59532 13.4106C5.59201 13.4381 5.58401 13.4753 5.58401 13.4753C5.58401 13.4753 5.54839 13.3636 5.51276 13.2228C5.46433 13.0352 5.41249 12.7876 5.36556 12.6549C5.34614 12.731 5.29761 12.9623 5.29761 12.9623L5.32513 13.3184L5.45782 13.807L5.58583 14.127L5.71041 14.5186L5.81868 14.7816L5.90604 14.9823L5.9821 15.4338L6.34936 15.8221L6.5452 15.9095L6.6875 15.8367L6.68771 15.8366Z" fill="#F3E19D"/>
<path fill-rule="evenodd" clip-rule="evenodd" d="M5.64072 10.1521C5.64072 10.1521 5.37693 10.6001 5.30099 11.0517C5.22504 11.5034 5.15698 11.9806 5.20498 12.5954C5.25352 13.2153 5.34579 13.5954 5.42024 13.8673C5.54824 14.3188 5.87976 14.9467 5.87976 14.9467L5.89107 14.9224C5.83535 14.8167 5.79087 14.7055 5.75838 14.5906C5.71464 14.4191 5.69843 14.2153 5.658 14.123C5.62237 14.0308 5.56253 13.9515 5.53341 13.8382C5.50589 13.7298 5.50141 13.5583 5.41693 13.4305C5.38131 13.3787 5.33757 13.2428 5.32467 13.1069C5.30845 12.9029 5.33277 12.6748 5.31336 12.4872C5.27773 12.1748 5.25352 11.9629 5.28584 11.7994C5.31816 11.6358 5.48659 11.1716 5.59016 10.8027C5.65811 10.5664 5.61757 10.3674 5.74216 10.1618C5.86675 9.95798 5.94291 9.77835 5.97033 9.65377C6.00233 9.54049 5.6403 10.1521 5.6403 10.1521H5.64072Z" fill="#F2E8B0"/>
<path fill-rule="evenodd" clip-rule="evenodd" d="M6.89157 9.97253C6.89157 9.97253 6.75568 10.0131 6.69093 10.0842C6.62618 10.1522 6.59866 10.2088 6.5113 10.3237C6.42394 10.4386 6.41903 10.5324 6.34777 10.6764C6.27663 10.8172 6.11961 11.0292 6.1002 11.1052C6.08078 11.1813 6.04846 11.5372 6.00804 11.7055C5.97241 11.8738 6.04846 12.081 6.04846 12.081L6.14062 12.0615C6.14062 12.0615 6.14062 12.1812 6.23289 12.2622C6.32505 12.3414 6.34127 11.9935 6.34127 11.9935L6.68591 10.8301L7.20528 10.4774L7.26192 10.1926L6.89136 9.97253H6.89157Z" fill="#F5EEC0"/>
<path fill-rule="evenodd" clip-rule="evenodd" d="M7.14404 10.5C7.14404 10.5 6.89967 10.5161 6.77999 10.6036C6.73145 10.6391 6.71204 10.6682 6.66031 10.712C6.56484 10.7912 6.46767 10.8641 6.42084 10.968C6.369 11.0714 6.31236 11.2284 6.27353 11.5245C6.25732 11.6491 6.25732 11.764 6.24601 11.8644C6.2298 12.0003 6.20559 12.1086 6.21849 12.1844C6.23471 12.3397 6.39492 12.4206 6.41049 12.597L6.74223 12.4288L7.05455 11.1973L7.71801 10.7813L7.34255 10.3606L7.14361 10.4993L7.14404 10.5Z" fill="#E6DB9D"/>
<path fill-rule="evenodd" clip-rule="evenodd" d="M5.39391 18.7924C5.39529 18.7802 5.39668 18.768 5.39807 18.7556C5.44649 18.3396 5.45471 18.0243 5.49023 17.8268C5.54196 17.5469 5.57759 17.4428 5.56948 17.3381C5.55817 17.1699 5.54527 17.0469 5.56148 16.9174C5.58569 16.7459 5.75401 16.542 5.74921 16.4012C5.74591 16.2895 5.68927 16.2168 5.64073 16.1488C5.5922 16.0809 5.55337 16.0243 5.55337 16.0243C5.55337 16.0243 5.88511 15.7961 5.88191 14.877C5.88868 14.8789 5.8952 14.8816 5.90132 14.8851L6.06473 15.3494L6.17641 15.4853L6.60521 16.2846L7.157 16.8203L7.97247 17.3688L8.48383 17.9253L8.53556 19.4091L7.86729 20.2764L7.75785 20.4746C6.88838 20.0381 6.09108 19.4707 5.3938 18.7923L5.39391 18.7924Z" fill="#E5CB7A"/>
<path fill-rule="evenodd" clip-rule="evenodd" d="M7.4353 20.212C7.4353 20.212 7.44661 20.0275 7.59871 19.9077C7.62303 19.9482 7.63914 19.9871 7.63434 20.0161C7.66186 19.9677 7.85439 19.657 8.2897 19.576C8.725 19.4968 8.83017 19.1796 8.83017 19.1796L9.754 18.3398L10.8106 17.3674L12.0954 16.9158L12.6958 16.7685C12.6958 16.7685 12.7072 16.8123 12.6845 16.9093C12.7961 16.9013 13.0437 16.8447 13.301 16.754C13.4045 16.7136 13.5017 16.6974 13.5534 16.7508C13.6295 16.822 13.6408 16.9903 13.6456 17.0906C13.7702 17.063 13.9142 16.9434 14.0296 16.9547C14.2141 16.9741 14.3775 17.1909 14.5653 17.1909C14.8128 17.1909 14.9244 17.0388 15.0976 16.919C15.2012 16.8479 15.35 16.759 15.4342 16.699C15.6348 16.5517 17.7578 15.9028 17.7578 15.9028L18.5021 15.9514L18.6219 16.7507L18.5579 18.8403C18.55 18.8479 18.5421 18.8558 18.5341 18.8634L15.1498 20.6309L10.4586 21.3501C9.4078 21.1784 8.39373 20.8296 7.45962 20.3185L7.43562 20.2118L7.4353 20.212Z" fill="#D8C173"/>
<path fill-rule="evenodd" clip-rule="evenodd" d="M5.67847 19.0582C5.74513 18.9188 5.80508 18.8022 5.81564 18.7605C5.82396 18.8446 5.83921 19.029 5.86993 19.225C5.80544 19.1702 5.74161 19.1146 5.67847 19.0581V19.0582Z" fill="#F1D789"/>
<path fill-rule="evenodd" clip-rule="evenodd" d="M9.10524 21.0247L9.71196 20.856L9.76369 20.8722C9.76369 20.8722 9.79121 20.8884 9.79121 20.9433C9.86727 20.8997 9.93201 20.9077 9.97895 20.8787C10.0032 20.9304 10.0274 21.102 10.1343 21.123C10.2458 21.1473 10.3656 21.0744 10.487 20.9823C10.6067 20.8868 10.743 20.767 10.8461 20.7185C10.884 20.7881 10.9175 20.8599 10.9465 20.9336C11.0824 20.8253 11.3187 20.3852 11.6552 20.3932C11.7525 20.1633 11.915 19.967 12.1226 19.8285C12.4349 19.6165 12.6307 19.6003 12.8751 19.6197C12.9721 19.4936 13.0917 19.3866 13.2278 19.3042C13.2682 19.3204 13.3799 19.3883 13.5191 19.3236C13.6599 19.259 13.8184 19.0081 14.0272 18.9758C14.1396 18.9603 14.254 18.9843 14.3508 19.0437C14.3508 19.0437 14.9588 18.4401 15.3783 18.2394C15.3621 18.1909 15.3298 18.0081 15.8216 17.6035C15.8491 17.6278 15.8297 17.6957 15.8491 17.6995C15.8571 17.6995 15.9771 17.6477 16.129 17.5312C16.3168 17.3905 16.5416 17.2432 16.6775 17.2027C16.9335 17.1267 17.2051 17.282 17.2051 17.282C17.2282 17.2658 17.2539 17.2537 17.2811 17.2464C17.3458 17.2351 17.3927 17.2269 17.4283 17.2144C17.4251 17.2985 17.4721 17.4425 17.4283 17.5671C17.479 17.5956 17.5327 17.6184 17.5883 17.6351C17.5609 17.6949 17.501 17.847 17.4007 17.9199C17.4848 17.9603 17.4961 18.0072 17.6159 18.0479C17.5673 18.1158 17.4879 18.2324 17.4524 18.3039C17.4168 18.3799 17.2889 18.6954 17.2323 18.8151C17.1724 18.9349 17.0916 19.155 17.0527 19.1991C17.0137 19.2433 16.873 19.4305 16.7647 19.5226C16.8607 19.487 17.2534 19.3673 17.42 19.322C17.3704 19.3947 17.119 19.7678 16.8773 20.1265C15.72 20.8201 14.4282 21.2592 13.0879 21.4143C11.7476 21.5695 10.3896 21.4372 9.10449 21.0263L9.10524 21.0247Z" fill="#E0CD81"/>
<path fill-rule="evenodd" clip-rule="evenodd" d="M7.18393 10.4564C7.18393 10.4564 7.04323 10.4564 7.01571 10.4758C6.98819 10.4952 7.15652 10.5357 7.20825 10.5551C7.25998 10.5746 7.37166 10.6635 7.40078 10.7348C7.4283 10.8027 8.4121 11.1991 8.4121 11.1991L9.10789 11.1635L9.34778 10.8321L8.89146 10.4324L9.21146 9.48901L8.78757 9.55696L7.76815 10.165L7.25678 10.3608L7.18393 10.4564Z" fill="#DFC57C"/>
<path fill-rule="evenodd" clip-rule="evenodd" d="M8.71209 10.7686C8.72215 10.7849 8.73632 10.7983 8.75317 10.8073C8.77002 10.8164 8.78896 10.8209 8.80809 10.8204C8.95209 10.8204 9.08468 10.856 9.13972 10.9287C9.23199 11.0453 9.48767 11.4175 9.48767 11.4175L10.0993 11.6375L10.1388 10.9173L9.47049 10.453L8.70996 10.7329V10.7685H8.71167L8.71209 10.7686Z" fill="#E5CC7C"/>
<path fill-rule="evenodd" clip-rule="evenodd" d="M8.59209 11.0357C8.59209 11.0357 8.70366 11.0438 8.84446 10.9919C8.98526 10.9401 9.21662 10.8285 9.317 10.8723C9.45769 10.9321 9.42857 11.1198 9.58078 11.2883C9.67294 11.3918 9.84126 11.3886 9.93673 11.5003C10.0322 11.612 10.3606 11.5601 10.3606 11.5601L10.4852 12.2321L9.98526 12.873L9.82174 13.6691H9.14569L8.52809 13.424L8.22388 12.688L8.37598 11.9437L8.59209 11.0357Z" fill="#D2C281"/>
<path fill-rule="evenodd" clip-rule="evenodd" d="M9.89979 11.0679C9.91655 11.073 9.93398 11.0758 9.95152 11.076C9.93211 11.0922 9.89157 11.1277 9.90779 11.22C9.924 11.3122 9.97573 11.4287 9.93211 11.4999C9.96693 11.5379 9.99291 11.5832 10.0082 11.6325C10.0357 11.7119 10.0438 11.7846 10.2233 11.7961C10.1974 11.812 10.1735 11.831 10.1522 11.8527C10.1522 11.8527 10.2767 11.9611 10.3399 12.0613C10.4045 12.0586 10.5761 12.0052 10.5761 12.0052L10.6117 12.0295L10.6877 11.9975C10.6877 11.9975 10.6166 11.97 10.6683 11.7969C10.7169 11.6448 10.7606 11.6529 10.7643 11.6416C10.7681 11.6303 10.7999 11.4701 10.7999 11.4053C10.8242 11.3213 10.8436 11.0656 10.8436 11.0656L10.7918 10.5009L10.5006 10.3245L10.2638 10.0959L10.0405 10.5166L9.89339 10.6633L9.88208 11.0273L9.89979 11.0679Z" fill="#E2C270"/>
<path fill-rule="evenodd" clip-rule="evenodd" d="M10.6003 10.5955C10.6003 10.5955 10.6521 10.7427 10.6716 10.856C10.6785 10.834 10.6823 10.8111 10.6829 10.788C10.6829 10.788 10.7233 11.0114 10.7313 11.1037C10.7475 11.1004 10.7633 11.0956 10.767 11.1117C10.7706 11.1278 10.8075 11.3075 10.799 11.4078C10.8663 11.2966 10.9596 11.2034 11.0707 11.136C11.1355 11.0955 11.2115 11.0518 11.2909 11.0485C11.4155 11.0453 11.506 11.1279 11.655 11.1279C12.0141 11.1279 12.3394 10.8641 12.5789 10.7832C12.7552 10.7233 12.9073 10.6797 13.0141 10.5825C13.0659 10.5389 13.1582 10.4418 13.2423 10.2977C13.3539 10.1057 13.4704 9.93855 13.587 9.91754C13.5343 9.92723 13.4806 9.93102 13.427 9.92884C13.427 9.92884 13.4626 9.89322 13.523 9.84468C13.5834 9.79615 13.6557 9.73631 13.7592 9.73631C13.9437 9.73631 14.0359 9.76372 14.1394 9.76372C14.243 9.76052 14.3028 9.73631 14.3028 9.73631C14.3028 9.73631 14.4113 9.81236 14.6556 9.81236C14.9 9.81556 15.0634 9.83658 15.1913 9.84799C15.3192 9.8594 15.7479 9.81236 15.8708 9.81599C15.951 9.81908 16.0298 9.83835 16.1023 9.87263L15.7058 8.72063L14.2816 7.47583L13.4337 8.07615L12.1294 9.38036L10.8673 9.84799L10.6035 10.1441V10.5955H10.6003Z" fill="#CCB360"/>
<path fill-rule="evenodd" clip-rule="evenodd" d="M13.4321 9.93524C13.4321 9.93524 13.4677 9.89972 13.5275 9.85118C13.5872 9.80265 13.6603 9.7427 13.7637 9.7427C13.9482 9.7427 14.0404 9.77022 14.144 9.77022C14.2476 9.76702 14.3074 9.7427 14.3074 9.7427C14.3074 9.7427 14.416 9.81865 14.6602 9.81865C14.9046 9.82185 15.068 9.84286 15.1959 9.85417C15.3238 9.86548 15.7525 9.81865 15.8755 9.82217C15.9556 9.82519 16.0343 9.84446 16.1068 9.87881L15.9272 9.35934L15.7185 8.96297L15.123 8.31081C15.123 8.31081 14.4083 7.89012 14.4029 7.88692C14.3997 7.88372 14.1553 7.81897 14.1553 7.81897L13.508 8.21054L12.9207 9.73001L12.9094 10.05L13.2896 10.2296C13.3851 10.0696 13.4903 9.94164 13.589 9.92542C13.4999 9.93513 13.432 9.93513 13.432 9.93513L13.4321 9.93524Z" fill="#D5B457"/>
<path fill-rule="evenodd" clip-rule="evenodd" d="M13.4239 10.0437C13.3672 10.0469 13.3204 10.0356 13.3074 9.99515C13.2589 9.85926 13.22 9.83985 13.1794 9.83985C13.1388 9.83985 13.0839 9.92721 13.0514 9.93521C13.0189 9.94321 12.9803 9.83494 12.9803 9.83494L12.9446 9.81873C12.9446 9.81873 12.7359 9.95462 12.5887 10.1148C12.4415 10.275 12.2003 10.5469 12.0919 10.5954C11.9836 10.6438 11.6113 10.6601 11.4839 10.6876C11.3566 10.7152 11.2154 10.8074 11.1959 10.8284C11.1765 10.8494 11.2527 10.8721 11.264 10.8931C11.2753 10.9125 11.1393 10.9044 11.128 10.9251C11.12 10.9413 11.16 11.0334 11.1798 11.0804C11.2146 11.0631 11.2526 11.0537 11.2914 11.0529C11.416 11.0497 11.5067 11.1322 11.6555 11.1322C12.0147 11.1322 12.3399 10.8684 12.5794 10.7875C12.7558 10.7276 12.9079 10.6839 13.0147 10.5868C13.0664 10.5432 13.1587 10.446 13.2429 10.302C13.3043 10.2034 13.3642 10.1111 13.4242 10.0432L13.4239 10.0437Z" fill="#D2B257"/>
<path fill-rule="evenodd" clip-rule="evenodd" d="M8.27194 18.0518C8.27194 18.0518 8.23994 17.9321 7.94341 17.623C7.85925 17.5357 7.80752 17.463 7.75088 17.4111C7.61008 17.2783 7.52752 17.2428 7.42725 17.1667C7.2072 17.0033 6.96773 17.0033 6.7833 16.8026C6.59888 16.602 6.38394 16.2186 6.23461 15.8268C6.08741 15.4353 6.04688 15.3107 6.04688 15.2994C6.04688 15.2881 6.08741 15.212 6.13914 15.2233C6.19087 15.2346 6.19088 15.3349 6.20389 15.3592C6.22966 15.3989 6.2589 15.4362 6.29125 15.4708C6.3673 15.5583 6.47568 15.6628 6.53072 15.8187C6.51941 15.686 6.47408 15.5388 6.47408 15.5388C6.47408 15.5388 6.75888 15.7185 7.00154 15.9061C7.24592 16.0938 7.34618 16.1586 7.41754 16.2783C7.4889 16.3979 7.65701 16.7136 7.73754 16.8058C7.81808 16.8981 8.92154 17.246 8.92154 17.246L9.44645 17.6373L9.70704 18.2085L9.50309 18.5285L9.11152 18.6127L8.47557 18.3279L8.27194 18.0517V18.0518Z" fill="#D2B159"/>
<path fill-rule="evenodd" clip-rule="evenodd" d="M6.85913 16.0841C6.85913 16.0841 6.99182 16.2961 7.31545 16.4967C7.60676 16.6731 8.06788 16.8334 8.47897 16.9288C8.71513 16.9855 8.9514 17.0291 9.16334 17.0324C9.73454 17.0404 10.1277 16.8771 10.6149 16.8236C10.8787 16.7961 11.2023 16.7751 11.5388 16.6956C11.9708 16.5921 12.2265 16.4755 12.5744 16.3116C12.8268 16.1952 13.0583 16.1078 13.2459 15.9961C13.5097 15.8408 13.7022 15.6677 13.9256 15.616C13.8981 15.692 13.8689 15.8279 13.6489 15.9687C13.7654 15.9654 13.9256 15.9574 13.9256 15.9574C13.9256 15.9574 13.7703 16.0496 13.4968 16.2567C13.3285 16.3847 13.1052 16.6014 12.8771 16.7454C12.7297 16.8376 12.5695 16.9054 12.4644 16.9606C12.2084 17.1014 12.1051 17.1726 11.9369 17.3446C11.9967 17.3414 12.0016 17.3446 12.0016 17.3446C12.0016 17.3446 11.7896 17.3721 11.6376 17.453C11.6056 17.453 11.5501 17.4417 11.4531 17.4692C11.377 17.4934 11.2766 17.5486 11.1732 17.5776C11.0259 17.6213 10.9774 17.6019 10.9774 17.6019L11.0016 17.6504C11.0016 17.6504 10.8096 17.6471 10.7456 17.6536C10.7569 17.6568 10.7537 17.6617 10.7537 17.6617C10.7425 17.6636 10.7317 17.6674 10.7217 17.673C10.6909 17.693 10.6571 17.7077 10.6215 17.7167C10.6021 17.7199 10.5859 17.7199 10.5615 17.7248C10.5696 17.7442 10.6328 17.8528 10.6619 17.9168C10.6377 17.933 10.2735 18.2081 10.2735 18.2081C10.2848 18.2258 10.2941 18.2448 10.3011 18.2647C10.3124 18.3002 10.3173 18.3521 10.3286 18.3763C10.356 18.4248 10.3722 18.4329 10.3722 18.4329C10.3722 18.4329 10.3286 18.441 10.2524 18.4604C10.1878 18.4767 10.1084 18.5041 9.99641 18.5203C9.96205 18.5248 9.92748 18.5275 9.89284 18.5284C9.90905 18.564 9.9802 18.6999 9.8491 18.8568C9.71801 19.0137 9.67758 19.0366 9.63716 19.1368C9.61681 19.1214 9.59514 19.1079 9.57241 19.0963C9.52878 19.0769 9.46884 19.0479 9.44782 19.0089C9.43557 19.0608 9.41935 19.1117 9.39929 19.161C9.35886 19.2694 9.29902 19.3763 9.28772 19.4571C9.24398 19.4086 9.16313 19.3131 9.05145 19.3326C8.93977 19.352 8.85081 19.5041 8.8314 19.5478C8.8314 19.5203 8.81198 19.4993 8.80718 19.5316C8.80388 19.5672 8.74244 19.9393 8.3994 20.2403C8.3962 20.1642 8.3962 19.9959 8.38809 19.941C8.35609 19.973 8.31694 20.0202 8.08388 20.1206C7.85572 20.2209 7.89188 20.3212 7.89188 20.3212C7.89188 20.3212 7.87246 20.1612 7.99545 19.9927C8.12004 19.8245 8.19609 19.7451 8.19609 19.7322C8.19408 19.7191 8.18847 19.7068 8.17988 19.6966C8.16366 19.6804 8.13134 19.661 8.13134 19.6481C8.15076 19.6401 8.34329 19.5478 8.33198 19.3568C8.32068 19.1854 8.24793 19.0963 8.19609 19.0332C8.18809 19.0251 8.27225 18.9653 8.26084 18.9459C8.25273 18.9346 8.14926 18.8584 8.13625 18.8179C8.13931 18.7937 8.14474 18.7699 8.15246 18.7467C8.16377 18.7111 8.17188 18.6868 8.16868 18.6626C8.16057 18.6222 8.11684 18.5105 8.10393 18.4992C8.11524 18.5024 8.19609 18.4992 8.19609 18.4992C8.19609 18.4992 8.13145 18.3956 8.12004 18.3471C8.10862 18.2985 8.08441 18.1706 8.0715 18.1464C8.09902 18.1496 8.16697 18.1544 8.16697 18.1464C8.17028 18.1221 8.10713 18.0817 8.13497 18.0504C8.15438 18.0536 8.19161 18.0698 8.22713 18.1152C8.20772 18.0633 8.1754 17.9631 8.10734 17.9226C8.13934 17.9113 8.24814 17.8821 8.34361 17.9387C8.43908 17.9954 8.47161 18.0746 8.47161 18.0746C8.47161 18.0746 8.52825 18.1184 8.61572 18.1831C8.71598 18.2624 8.84377 18.3751 9.04772 18.4549C9.09145 18.4792 9.20302 18.4792 9.28398 18.463C9.31924 18.4546 9.35303 18.441 9.38425 18.4226C9.39552 18.4159 9.40746 18.4105 9.41988 18.4064C9.40248 18.3715 9.38248 18.3379 9.36004 18.306C9.38756 18.306 9.41988 18.3093 9.41988 18.3093C9.41988 18.3093 9.43929 18.2656 9.35193 18.1813C9.37134 18.1619 9.39566 18.1493 9.39566 18.1166C9.36814 18.1134 9.31961 18.0729 9.3083 18.0567C9.32441 18.0454 9.34873 18.0082 9.37625 17.9969C9.35193 17.9775 9.29209 17.8965 9.26457 17.8885C9.29086 17.8787 9.3163 17.8668 9.34062 17.8529C9.34062 17.8529 9.20473 17.8172 9.161 17.7881C9.11726 17.7561 9.05262 17.7008 9.0138 17.6846C8.97326 17.6683 8.90212 17.6603 8.873 17.6279C8.90041 17.636 8.94414 17.6279 8.97657 17.6279C9.00078 17.6279 9.0122 17.6311 9.0202 17.6311C9.017 17.6198 9.017 17.5955 9.08014 17.5875C9.11052 17.5829 9.13999 17.5736 9.1675 17.56C9.1675 17.56 9.10756 17.5568 9.0395 17.492C8.97145 17.4273 8.91492 17.3755 8.87609 17.3674C8.83566 17.3593 8.75961 17.395 8.71268 17.3916C8.64793 17.3836 8.62041 17.3512 8.62041 17.3512C8.62041 17.3512 8.40526 17.3706 7.92793 17.0794C7.51524 16.827 7.33561 16.6037 7.33561 16.6037C7.29699 16.5897 7.25966 16.5723 7.22404 16.5519C7.06873 16.471 6.85348 16.3027 6.85998 16.0825L6.85913 16.0841Z" fill="#C2A44D"/>
<path fill-rule="evenodd" clip-rule="evenodd" d="M12.8121 6.37218C12.8496 6.38434 12.8828 6.40678 12.9081 6.43693C12.9842 6.52429 13.0327 6.6893 12.8596 6.86573C12.9275 6.88994 12.9556 6.89773 13.0149 6.88994C12.9551 6.9612 12.8192 7.1133 12.8111 7.246C12.8029 7.35437 12.8709 7.3868 12.8709 7.3868C12.8709 7.3868 12.7673 7.50648 12.7625 7.7068C12.8114 7.65164 12.865 7.60075 12.9225 7.55469C13.0423 7.45922 13.2073 7.35085 13.319 7.2829C13.3175 7.31138 13.3213 7.33989 13.3303 7.36696C13.3303 7.36696 13.539 7.19544 13.7143 7.2716C13.7936 7.30722 13.7579 7.4188 13.7579 7.4188C13.7579 7.4188 13.8664 7.37837 13.9425 7.45442C14.0185 7.53048 14.1261 7.72664 14.1812 7.80269C14.2054 7.83832 14.2686 7.90626 14.3332 8.01144C14.4215 8.15868 14.4953 8.31419 14.5534 8.47576C14.5566 8.3916 14.5776 8.26061 14.8172 8.34306C15.0566 8.42722 15.3284 8.60365 15.5566 8.95106C15.7848 9.29848 15.8413 9.69069 15.9562 9.84002C16.0727 9.98402 16.1924 10.2235 16.2005 10.3239C16.2087 10.4242 16.1649 10.7478 16.4044 11.6232C16.4723 11.3514 16.5759 10.7478 16.5759 10.7478L16.6326 10.2154L16.6973 8.56813L14.9772 7.13912L13.6325 6.16333L12.7571 6.24749L12.812 6.37208L12.8121 6.37218Z" fill="#CAA13E"/>
<path fill-rule="evenodd" clip-rule="evenodd" d="M16.0082 8.82357C16.0082 8.82357 15.9839 8.66357 15.5794 8.39157C15.1748 8.12299 14.8593 8.12299 14.5681 7.89482C14.3447 7.7152 14.1118 7.3025 13.9601 7.16661C13.8128 7.03231 13.7886 6.64394 13.7886 6.64394L14.2853 6.22794L15.0241 5.16009L15.6486 4.47241L15.9479 4.88841L16.3639 5.37706L16.5953 6.35765L16.6795 7.79296L16.0075 8.82368L16.0082 8.82357Z" fill="#B59544"/>
<path fill-rule="evenodd" clip-rule="evenodd" d="M16.5082 10.544C16.5204 10.3263 16.4936 10.1082 16.4288 9.90006C16.3222 9.56832 16.0891 8.97931 15.9808 8.75872C15.9371 8.51435 15.9695 8.49494 16.0165 8.46742C16.0634 8.4399 16.2398 8.33942 16.3365 7.98689C16.4331 7.63435 16.7329 7.62283 16.7329 7.62283L16.9174 7.48694L17.1974 8.18753L17.4416 8.82027L17.5177 9.30411L17.5743 9.7167L17.4416 10.5889L16.7864 11.1811L16.5081 10.544H16.5082Z" fill="#C89D3A"/>
<path fill-rule="evenodd" clip-rule="evenodd" d="M7.36426 20.2655V20.2476C7.37787 20.2391 7.3899 20.2282 7.39978 20.2156C7.41108 20.1994 7.4193 20.18 7.4273 20.1752C7.44351 20.1671 7.51956 20.1432 7.55999 20.1508C7.60042 20.1585 7.7073 20.2026 7.76394 20.1994C7.88042 20.1962 8.01631 20.1071 8.23156 20.1476C8.55519 20.2075 8.63124 20.4275 8.81898 20.5521C8.94698 20.6396 9.07946 20.6007 9.09887 20.6007H9.1425C9.1506 20.6007 9.21044 20.5327 9.24287 20.536C9.30762 20.5392 9.31402 20.5927 9.35444 20.5959C9.44991 20.6072 9.63444 20.5473 9.72671 20.5716C9.75407 20.5802 9.77895 20.5953 9.79923 20.6155C9.81951 20.6358 9.8346 20.6607 9.84319 20.688C9.8626 20.7479 9.84639 20.8239 9.79946 20.8677C9.69919 20.9598 9.60372 21.0473 9.58431 21.1237C9.609 21.1425 9.63271 21.1626 9.65535 21.1838C8.85473 20.9798 8.08442 20.6714 7.36426 20.2665V20.2655Z" fill="#CEB052"/>
<path fill-rule="evenodd" clip-rule="evenodd" d="M15.9805 17.0324C15.9805 17.0324 16.2328 16.6959 16.3203 16.5292C16.4077 16.3573 16.0436 14.1813 16.0436 14.1813L16.7751 11.785L16.7555 11.005C16.7555 11.005 16.7912 10.2849 16.8753 9.97259C16.9757 10.1522 17.288 10.3691 17.356 10.4839C17.388 10.2638 17.4967 9.79947 17.4806 9.30432C17.5404 9.39648 17.6844 10.3237 17.6844 10.3237L17.8284 10.9483L18.0162 11.6117L18.2249 12.3124L18.3495 12.7963L18.4206 12.9127L18.4806 13.1166L18.5372 13.3367L18.7007 13.8529L18.7967 14.2768L18.8727 15.0454C18.8893 15.1043 18.9012 15.1644 18.9083 15.2251C18.9115 15.3092 18.897 15.3578 18.897 15.3724C18.897 15.387 18.9246 15.5568 18.9133 15.6847C18.897 15.8127 18.897 15.9129 18.7967 16.0047C18.6963 16.0965 18.6332 16.6454 18.6332 16.6454L18.4536 16.5258C18.4536 16.5258 18.4892 16.3622 18.4051 16.2134C18.3209 16.0646 18.1575 16.0338 18.0652 16.0581C17.9731 16.0775 17.7886 16.1066 17.7287 16.1584C17.672 16.2101 17.5329 16.3703 17.405 16.4432C17.245 16.5392 16.9843 16.5468 16.8452 16.5791C16.7044 16.6111 16.5491 16.7071 16.3856 16.8186C16.2574 16.9016 16.122 16.973 15.9811 17.0319V17.0319L15.9805 17.0324Z" fill="#CCA847"/>
<path fill-rule="evenodd" clip-rule="evenodd" d="M15.9805 20.5681C15.9805 20.5681 15.9911 20.575 16.0117 20.5863C17.1613 20.0477 18.1914 19.2842 19.0411 18.341C19.0318 18.0135 19.0197 17.6778 19.0065 17.5534C18.9791 17.2897 18.9985 17.0211 18.9904 16.8658C18.9823 16.7105 18.8949 16.0777 18.8545 15.9143C18.8108 15.7509 18.7265 15.6699 18.7137 15.6699C18.7024 15.6732 18.6343 15.9774 18.6343 16.0539C18.6343 16.1304 18.6181 16.3145 18.6181 16.3614C18.6068 16.3581 18.602 16.3294 18.602 16.3177C18.5858 16.3581 18.5664 16.4294 18.5583 16.4375C18.5502 16.4456 18.5696 16.3695 18.5583 16.3533C18.547 16.3371 18.5263 16.3452 18.5308 16.3048C18.5327 16.2808 18.5365 16.257 18.5421 16.2337C18.5421 16.2337 18.4935 16.3048 18.458 16.486C18.4224 16.6657 18.4224 16.6706 18.4095 16.6867C18.3982 16.7062 18.3334 16.7708 18.3301 16.7951C18.3269 16.8388 18.3901 16.8825 18.3949 16.9067C18.3981 16.9473 18.3382 17.1349 18.3188 17.2267C18.2994 17.3186 18.3075 17.4985 18.2868 17.5908C18.2706 17.6749 18.2548 17.7235 18.1995 17.759C18.2399 17.7671 18.2787 17.7784 18.2787 17.7784C18.2787 17.7784 18.3353 18.0179 18.1913 18.2218C18.1396 18.293 18.1267 18.3254 18.0717 18.3901C17.9632 18.5098 17.879 18.6461 17.8709 18.7348C17.8653 18.7086 17.8615 18.6821 17.8596 18.6554C17.8596 18.6554 17.6914 18.8513 17.6201 18.9629C17.528 19.1069 17.4001 19.0988 17.3641 19.1345C17.3282 19.1701 17.3204 19.2347 17.3321 19.2866C17.3001 19.2946 17.24 19.306 17.1995 19.4306C17.18 19.4952 17.1315 19.5586 17.0555 19.6021C16.9794 19.6456 16.8871 19.6587 16.8402 19.67C16.8806 19.6813 16.8968 19.6813 16.9163 19.6942C16.892 19.7347 16.7804 19.7978 16.6558 19.8788C16.5312 19.9548 16.4712 20.0664 16.4405 20.1393C16.4085 20.2072 16.3613 20.2509 16.2852 20.259C16.3172 20.2785 16.3646 20.3237 16.3888 20.3383C16.3532 20.3464 16.2928 20.3464 16.1849 20.4387C16.0717 20.5325 16.0328 20.5601 15.981 20.5682L15.9805 20.5681Z" fill="#C39D3C"/>
<path fill-rule="evenodd" clip-rule="evenodd" d="M13.729 21.3179C13.791 21.2745 13.8581 21.2389 13.9288 21.212C14.1812 21.1117 14.4482 21.0923 14.5534 21.06C14.6537 21.028 14.733 20.9838 14.8576 20.9596C14.8543 20.988 14.8515 21.0146 14.8485 21.0398C14.4812 21.1553 14.1072 21.2481 13.7285 21.3179H13.729Z" fill="#D2BA6B"/>
<path fill-rule="evenodd" clip-rule="evenodd" d="M18.384 14.6797C18.384 14.6797 18.3322 14.9596 18.24 15.136C18.1477 15.3124 18.048 15.5567 18.048 15.5567C18.0486 15.5016 18.0551 15.4468 18.0674 15.3932C17.9509 15.4611 17.6677 15.6246 17.5874 15.6974C17.5113 15.7653 17.3834 15.8851 17.3511 15.9418C17.4272 15.7185 17.5064 15.5179 17.5194 15.4256C17.403 15.5098 16.8592 15.958 16.5761 16.2541L15.6942 16.9677C15.5924 17.0226 15.4876 17.0716 15.3802 17.1147C15.2282 17.1793 15.0486 17.2343 14.9159 17.2862C14.9515 17.1907 15.0081 17.1064 15.0874 17.0256C15.1716 16.9463 15.424 16.6728 15.4628 16.5456C15.4984 16.4129 15.5065 16.3336 15.4596 16.222C15.4159 16.2333 15.3156 16.2382 15.2476 16.2576C15.1797 16.277 15.1068 16.3498 15.1068 16.3498C15.1068 16.3498 15.1586 16.0536 15.2703 15.7738C15.1861 15.777 15.0421 15.8012 15.0421 15.8012C15.0421 15.8012 15.2427 15.4646 15.5861 15.2301C15.4809 15.2525 15.378 15.2844 15.2787 15.3254C15.078 15.4096 14.858 15.5342 14.6946 15.6021C14.7867 15.4741 15.434 14.5504 15.8192 13.6895C16.2032 12.8303 16.3466 12.6102 16.4308 12.1491C16.4744 11.921 16.4628 11.5838 16.4744 11.2818C16.4857 10.9824 16.523 10.7138 16.4987 10.5342C16.599 10.6588 16.9745 11.0099 16.9874 11.7948C16.9987 12.5795 16.6282 13.6395 16.235 14.2106C16.331 14.2381 16.5797 14.2705 16.8353 13.8266C17.0908 13.3826 17.0878 13.2587 17.18 13.0741C17.1913 13.1664 17.188 13.1987 17.188 13.1987C17.188 13.1987 17.5603 12.7473 17.7366 12.1793C17.7722 12.4237 17.8774 12.6389 17.7123 13.0871C17.5651 13.4916 17.3726 13.5904 17.3726 13.5904C17.3726 13.5904 17.468 13.5742 17.6087 13.49C17.633 13.5499 17.6282 13.618 17.6687 13.6421C17.7091 13.6662 17.7641 13.7069 17.7722 13.7457C17.8159 13.681 17.8838 13.5984 17.9049 13.537C17.8887 13.665 17.8774 14.2246 17.9369 14.5094C18.0616 14.4981 18.1894 14.49 18.2768 14.2651C18.2169 14.4852 18.2169 14.6178 18.2574 14.8055C18.3237 14.7603 18.3835 14.6794 18.3835 14.6794L18.384 14.6797Z" fill="#C0993A"/>
<path fill-rule="evenodd" clip-rule="evenodd" d="M14.1796 5.7605C14.1796 5.7605 14.055 5.81224 13.843 5.81224C13.6586 5.81224 13.7103 5.74109 13.4223 5.74109C12.979 5.74109 11.4304 5.99709 11.1585 5.99346C10.9821 5.99026 11.754 6.06952 11.754 6.06952L13.7265 6.09704L14.1229 6.06504L14.2702 5.7653L14.1796 5.7605Z" fill="#A88F33"/>
<path fill-rule="evenodd" clip-rule="evenodd" d="M9.06471 9.61652C9.06471 9.61652 8.81223 9.80905 8.70545 9.95636C8.59868 10.1037 8.54204 10.2006 8.42065 10.3204C8.44915 10.3215 8.47762 10.3177 8.50481 10.3091C8.50481 10.3091 8.50481 10.3411 8.4854 10.3495C8.50218 10.3477 8.51916 10.3496 8.53511 10.3551C8.55105 10.3606 8.56556 10.3697 8.57756 10.3815C8.54193 10.4009 8.44487 10.4981 8.52092 10.613C8.57756 10.7004 8.69735 10.7084 8.69735 10.7084C8.69735 10.7084 8.66983 10.7877 8.78471 10.7796C9.03228 10.7683 9.30897 10.6598 9.43676 10.6873C9.56476 10.7193 9.63751 10.7311 9.72807 10.8881C9.82407 11.0434 9.90769 11.0677 9.90769 11.0677C9.90769 11.0677 9.96433 10.9236 9.95143 10.7085C9.99787 10.5925 10.0236 10.4693 10.0275 10.3444L9.94332 9.72468L9.57607 9.26025L9.10033 9.52404L9.06471 9.6162V9.61652Z" fill="#E3C571"/>
<path fill-rule="evenodd" clip-rule="evenodd" d="M9.51611 9.52428C9.51611 9.52428 9.55174 9.60844 9.70065 9.61644C9.68443 9.65207 9.68443 9.65698 9.68934 9.68439C9.69254 9.71191 9.69734 9.75234 9.69734 9.75234C9.71373 9.74441 9.72855 9.73356 9.74107 9.72034C9.74918 9.75596 9.73297 9.8125 9.74107 9.85303C9.74607 9.87768 9.75421 9.90159 9.76529 9.92418C9.76765 9.91864 9.77035 9.91326 9.77339 9.90807C9.77659 9.89996 9.80539 9.99543 9.88507 10.0681C9.885 10.0569 9.88775 10.0459 9.89307 10.0361C9.89429 10.0564 9.901 10.0759 9.91249 10.0927C9.90652 10.0899 9.90108 10.086 9.89638 10.0814C9.89638 10.0814 9.90438 10.3374 9.94811 10.4698C9.95542 10.4612 9.96192 10.452 9.96753 10.4423C9.96753 10.4343 9.96433 10.5135 9.95622 10.5703C9.94491 10.6269 9.95302 10.7062 9.95302 10.7062C9.98219 10.6832 10.0143 10.6641 10.0484 10.6495C10.0969 10.63 10.1764 10.5702 10.2248 10.4375C10.2529 10.3623 10.2746 10.2849 10.2896 10.2061C10.3052 10.2362 10.316 10.2686 10.3216 10.3021C10.3249 10.3425 10.4009 10.3215 10.4009 10.3215L10.4171 10.1451L10.5131 9.7454L10.6005 9.49783L11.0212 8.84258L11.7813 8.25719L12.4448 8.4093L13.0045 7.64876L12.0402 7.06946L11.1275 7.16492L10.2993 8.31212L9.6359 9.35266L9.51611 9.52418V9.52428Z" fill="#D8B65B"/>
<path fill-rule="evenodd" clip-rule="evenodd" d="M14.296 7.86415C14.296 7.86415 14.2393 7.87546 14.0759 7.96015C13.9125 8.04485 13.7992 8.07173 13.7361 8.19631C13.6729 8.3209 13.6681 8.41967 13.6681 8.41967C13.6681 8.41967 13.7798 8.37114 13.8446 8.35493C13.9125 8.33882 13.9886 8.34362 13.9805 8.37114C13.9727 8.39001 13.9619 8.40749 13.9485 8.42287C13.9485 8.42287 14.0765 8.41967 14.073 8.48282C14.0696 8.54597 14.0488 8.61551 14.0246 8.64623C14.0003 8.67823 13.9 8.72559 13.8887 8.76282C13.8612 8.83887 13.9 8.84207 13.8854 8.90351C13.8741 8.96346 13.8208 9.07994 13.646 9.28378C13.4663 9.48773 13.39 9.63173 13.39 9.63173C13.39 9.63173 13.3026 9.46831 13.2573 9.32751C13.2253 9.34362 13.0534 9.43909 13.0534 9.43909L12.6554 8.05242L12.6634 7.96015C12.6634 7.96015 12.699 7.91653 12.7071 7.83557C12.6472 7.81615 12.6391 7.79994 12.5598 7.72399C12.4804 7.64805 12.4158 7.55567 12.2832 7.49253C12.2638 7.4569 12.2395 7.40847 12.1424 7.38895C12.0453 7.36943 11.9871 7.35343 11.9871 7.35343C11.9871 7.35343 12.0388 7.33391 12.0631 7.29349C12.0032 7.30159 11.9548 7.32101 11.8237 7.31781C11.691 7.3145 11.6764 7.3097 11.6036 7.32101C11.5309 7.33231 11.4436 7.36474 11.4111 7.25306C11.3755 7.22554 11.2994 7.24986 11.2347 7.34522C11.1699 7.44058 11.1473 7.51674 11.0227 7.55397C11.014 7.60889 10.9947 7.66161 10.9661 7.70927C10.9305 7.76922 10.8738 7.82906 10.7978 7.91802C10.678 8.05882 10.6974 8.29018 10.5065 8.46661C10.3139 8.64293 10.5385 7.97786 10.5385 7.97786L10.8459 7.24186L11.7213 6.38586L13.0805 6.2937L13.2132 6.9977L13.8767 7.22586L14.2958 7.86501L14.296 7.86415Z" fill="#D3AE4D"/>
<path fill-rule="evenodd" clip-rule="evenodd" d="M14.5114 8.01946L13.9402 7.19589L13.5406 6.88837C13.5406 6.88837 13.2558 6.36421 13.2364 6.348C13.2201 6.33669 12.9516 6.30757 12.7801 6.29626L12.812 6.37552C12.8495 6.38768 12.8827 6.41011 12.908 6.44026C12.9841 6.52762 13.0326 6.69264 12.8595 6.86906C12.9275 6.89328 12.9555 6.90106 13.0148 6.89328C12.955 6.96453 12.8191 7.11664 12.811 7.24933C12.8029 7.3577 12.8708 7.39002 12.8708 7.39002C12.8708 7.39002 12.7673 7.50981 12.7625 7.71002C12.8114 7.65487 12.8649 7.60398 12.9224 7.55792C13.0422 7.46192 13.2072 7.35397 13.3189 7.28602C13.3174 7.31454 13.3212 7.34308 13.3302 7.37018C13.3302 7.37018 13.5389 7.19866 13.7142 7.27472C13.7935 7.31034 13.7578 7.42202 13.7578 7.42202C13.7578 7.42202 13.8663 7.3816 13.9424 7.45765C14.0184 7.5337 14.1268 7.72944 14.1818 7.8056C14.206 7.84122 14.2692 7.90917 14.3338 8.01424C14.4221 8.16151 14.4959 8.31706 14.554 8.47866C14.5572 8.41392 14.5702 8.32336 14.682 8.32336L14.512 8.01914L14.5114 8.01946Z" fill="#CAA13E"/>
<path fill-rule="evenodd" clip-rule="evenodd" d="M5.94839 10.3593C5.94839 10.3593 5.90796 10.2589 5.94839 10.0632C5.98881 9.86744 6.05196 9.77517 6.07298 9.48717C6.09399 9.19917 6.28173 8.83992 6.28173 8.83992L6.8011 8.60376L7.16846 8.70403L7.27684 9.19597L6.8124 9.45197C6.8124 9.45197 6.78819 9.56035 6.65709 9.64771C6.526 9.73507 6.34477 9.80301 6.30114 9.89208C6.27506 9.94662 6.25603 10.0043 6.2445 10.0636C6.2445 10.0636 6.1118 10.0361 6.03255 10.1234C5.94839 10.2125 5.95159 10.2918 5.94839 10.3597V10.3593Z" fill="#F4EFC8"/>
<path fill-rule="evenodd" clip-rule="evenodd" d="M6.99685 10.2281C6.99685 10.2281 6.95311 10.2556 6.92079 10.3241C6.88879 10.2724 6.81231 9.96486 6.80911 9.68817C6.80591 9.41148 6.78938 9.34289 6.85338 9.24753C6.91738 9.15217 7.16837 9.05169 7.13274 8.87996C7.09711 8.71655 6.94821 8.64861 6.76538 8.69554C6.63738 8.72754 6.54213 8.99975 6.40943 9.13564C6.30906 9.23921 6.18938 9.223 6.15706 9.27964C6.11333 9.35569 6.15375 9.43174 6.14085 9.48028C6.13754 9.49649 6.09711 9.58385 6.02426 9.68902C5.87706 9.90097 5.62789 10.2004 5.59546 10.469C5.60677 10.3169 5.59877 10.3137 5.63919 10.1453L5.61487 10.1049L5.77487 9.58065L5.87845 9.14865L6.10991 8.42525L6.51759 7.68584L6.91407 7.24243L7.32666 7.26995L7.37519 7.88968L7.61146 9.05319L8.10821 9.66481L7.31205 10.2006L6.99653 10.2281H6.99685Z" fill="#EBCC73"/>
<path fill-rule="evenodd" clip-rule="evenodd" d="M7.24428 10.4481C7.24428 10.4481 7.17633 10.4643 7.15201 10.4514C7.12769 10.4385 7.10359 10.4238 7.11159 10.4076C7.11959 10.3914 7.16332 10.364 7.16332 10.351C7.16422 10.3392 7.1605 10.3276 7.15295 10.3185C7.1454 10.3095 7.13462 10.3037 7.12289 10.3025C7.08567 10.2977 7.07436 10.3219 7.07436 10.3219C7.07436 10.3219 7.03873 10.2945 7.00972 10.2899C7.02689 10.2878 7.04416 10.2867 7.06145 10.2866C7.01674 10.2663 6.9693 10.2527 6.92065 10.2461C6.96108 10.2219 7.04044 10.1507 7.09217 10.1507C7.14391 10.1507 7.17633 10.1427 7.16823 10.1151C7.16012 10.0876 7.11969 10.0472 7.07607 10.031C7.09217 10.0116 7.10359 9.98245 7.06476 9.90298C7.02423 9.82372 7.04044 9.77028 7.05345 9.75097C7.06476 9.72665 7.10519 9.68302 7.1246 9.6555C7.14401 9.62798 7.16023 9.59075 7.19255 9.57134C7.20876 9.56003 7.26049 9.53934 7.31233 9.51961C7.36897 9.50019 7.41591 9.47587 7.44823 9.50019C7.48385 9.52441 7.46764 9.55683 7.46764 9.55683C7.46764 9.55683 7.57932 9.5163 7.67959 9.56814C7.77996 9.61657 8.02433 9.6474 8.02433 9.6474L8.11191 9.82383L7.5326 10.3206L7.29313 10.4404L7.2446 10.4484L7.24428 10.4481Z" fill="#E5C66B"/>
<path fill-rule="evenodd" clip-rule="evenodd" d="M8.04863 9.63593C8.04863 9.63593 7.869 9.75571 7.82857 9.79934C7.85279 9.80265 7.89321 9.81886 7.877 9.84307C7.85759 9.86728 7.74111 9.95145 7.67636 10.0308C7.60841 10.1101 7.54367 10.2104 7.52105 10.259C7.49684 10.3026 7.31231 10.4305 7.24927 10.4466C7.38196 10.4466 7.64895 10.2832 7.74921 10.2832C7.74601 10.3317 7.77673 10.3868 7.83337 10.3916C7.89001 10.3964 8.05343 10.4272 8.27348 10.2913C8.49353 10.1586 8.42079 10.0598 8.51295 9.99518C8.68937 9.87859 8.76052 9.77502 8.85759 9.71038C8.95465 9.64574 9.00489 9.63102 9.00489 9.63102C9.00489 9.63102 9.00809 9.58249 9.03689 9.58739C9.04478 9.5883 9.05226 9.59134 9.05854 9.59619C9.06482 9.60104 9.06966 9.60751 9.07252 9.61491C9.07252 9.61491 9.24084 9.49513 9.45652 9.46281C9.45149 9.46056 9.44746 9.45653 9.44521 9.4515C9.44521 9.4515 9.46132 9.44339 9.46463 9.43529C9.46463 9.43529 9.47593 9.41907 9.48404 9.42718C9.49215 9.43529 9.50345 9.49513 9.51967 9.51945C9.55529 9.50323 9.62324 9.35112 9.62324 9.35112L9.78676 8.8835V8.4563L9.65876 8.48062L8.69876 8.8883L8.11615 9.49193L8.0482 9.63593H8.04863Z" fill="#E6BD62"/>
<path fill-rule="evenodd" clip-rule="evenodd" d="M10.8122 7.5405C10.8641 7.52791 10.9139 7.50771 10.9599 7.48056C10.9405 7.5324 10.9405 7.58904 10.8563 7.71202C10.7722 7.83501 10.769 7.85282 10.701 7.98061C10.6331 8.1133 10.625 8.30423 10.5602 8.38828C10.5892 8.37418 10.6204 8.36492 10.6524 8.36087C10.6524 8.36087 10.5877 8.41751 10.5602 8.47735C10.5327 8.53719 10.4842 8.66177 10.3645 8.73793C10.2448 8.81409 10.0926 8.86251 9.92918 9.04214C9.76566 9.21846 9.59745 9.44181 9.51318 9.52213C9.55692 9.44608 9.61676 9.29398 9.63297 9.19371C9.64918 9.09344 9.62966 8.97355 9.65718 8.84097C9.6847 8.70838 9.6847 8.61281 9.81718 8.38135C9.94966 8.14988 10.1764 7.34573 10.1764 7.34573L10.6651 7.19043L10.8124 7.53997L10.8122 7.5405Z" fill="#B6933F"/>
<path fill-rule="evenodd" clip-rule="evenodd" d="M10.4594 7.24434C10.4594 7.24434 10.3122 7.45628 10.2718 7.64402C10.2314 7.83175 10.2685 7.81554 10.2443 7.9078C10.2298 7.96406 10.2298 8.02307 10.2443 8.07932C10.2952 7.9972 10.365 7.92838 10.4479 7.87858C10.5871 7.79452 10.7004 7.73458 10.7679 7.66343C10.8358 7.58738 10.8925 7.46279 11.0397 7.36732C10.9798 7.35922 10.8957 7.3317 10.8797 7.33532C10.9396 7.26738 11.1191 7.1638 11.3004 7.03922C11.48 6.91122 11.4687 6.85959 11.76 6.7318C11.6645 6.74802 11.6192 6.7237 11.5398 6.7318C11.5718 6.66386 11.6838 6.63143 11.7958 6.51986C11.9078 6.40828 11.7247 6.24316 11.7247 6.24316L10.8713 6.75932L10.4588 7.24476L10.4594 7.24434Z" fill="#C49937"/>
<path fill-rule="evenodd" clip-rule="evenodd" d="M8.14404 6.85915L8.16346 6.70385L8.40783 6.31228L8.66351 5.6246V4.68444L8.6441 4.14077L8.68452 3.78471L8.71524 3.67154L8.74767 3.62781L8.95631 3.73618L9.24442 4.12775L9.27194 4.88348L8.99194 6.07601L8.19258 6.94822L8.14404 6.85915Z" fill="#DFC068"/>
<path fill-rule="evenodd" clip-rule="evenodd" d="M8.77985 3.58409C8.77985 3.58409 8.65185 3.5874 8.62454 4.11977C8.59724 4.65215 8.58401 4.93204 8.5646 5.19583C8.54518 5.45962 8.49996 5.61973 8.47724 5.77514C8.45452 5.93056 8.44161 6.1424 8.36886 6.27189C8.33686 6.33173 8.26849 6.51947 8.10828 6.66027C7.92865 6.81558 7.66028 6.92406 7.61964 6.93216C7.54838 6.94827 7.18753 6.9839 7.04033 7.06486C6.9886 7.09238 6.89953 7.1247 6.80086 7.21697C6.60502 7.39329 6.34454 7.70881 6.15681 8.08908C5.86881 8.65708 5.58081 10.2606 5.58081 10.2606L5.64556 10.1522C5.64556 10.1522 5.65366 10.0082 5.79766 9.75576C5.93846 9.50338 5.89804 9.22018 6.09377 8.73634C6.16982 8.55191 6.26529 8.31244 6.38177 8.10849C6.5663 7.77676 6.78956 7.49195 7.01452 7.33665C7.38177 7.08427 7.78636 7.02923 7.78636 7.02923L8.22166 6.74123C8.22166 6.74123 8.29772 6.59403 8.39809 6.42571C8.53878 6.18955 8.71809 5.92576 8.75724 5.54229C8.81718 4.97428 8.67308 4.60212 8.68118 4.26559C8.68929 3.92905 8.69249 3.68148 8.76054 3.62153C8.8286 3.56158 8.77996 3.5843 8.77996 3.5843L8.77985 3.58409Z" fill="#A88F33"/>
<path fill-rule="evenodd" clip-rule="evenodd" d="M8.78 6.12463C8.78 6.12463 8.972 5.65209 9.0599 5.233C9.07611 5.14884 9.10843 5.06479 9.11654 4.99684C9.15697 4.60036 9.16828 4.43695 9.11654 4.22009C9.07611 4.06009 8.9208 3.91588 8.83984 3.80409C8.76058 3.68751 8.72336 3.64409 8.73957 3.61956C8.75578 3.59503 8.81883 3.55492 8.88027 3.55972C8.94558 3.56162 9.00982 3.57679 9.06909 3.60429C9.12836 3.6318 9.18141 3.67107 9.22502 3.71972C9.34961 3.86372 9.44828 4.35247 9.44828 4.35247L9.55207 4.99737L9.81587 5.80964L8.78021 6.12527L8.78 6.12463Z" fill="#C99E3D"/>
<path fill-rule="evenodd" clip-rule="evenodd" d="M10.5841 5.6328C10.5841 5.6328 10.5485 5.6489 10.4838 5.6328C10.4866 5.65921 10.482 5.68588 10.4706 5.70985C10.4591 5.73383 10.4413 5.75419 10.4191 5.76869C10.3511 5.74117 9.71507 5.79621 9.71507 5.79621C9.71507 5.79621 9.41896 5.74437 9.32669 5.3528C9.26205 5.09221 9.37523 4.73306 9.338 4.4968C9.28136 4.14885 9.20211 4.0808 9.194 3.97253C9.18589 3.86426 9.17779 3.83664 9.17779 3.76869C9.14216 3.76058 9.12115 3.74928 9.08563 3.74928C9.07752 3.71728 9.09363 3.68933 9.05811 3.63269C9.07752 3.6408 9.21021 3.65701 9.36552 3.80421C9.49352 3.924 9.49352 3.96762 9.51283 3.99194C9.53704 4.01616 9.73288 4.18394 9.81704 4.3512C9.9012 4.51845 10.0646 5.05178 10.1018 5.13914C10.1131 5.17477 10.1375 5.2104 10.1978 5.29125C10.2917 5.40784 10.4292 5.60058 10.5845 5.63258L10.5841 5.6328Z" fill="#B58634"/>
<path fill-rule="evenodd" clip-rule="evenodd" d="M9.53564 4C9.63367 4.15835 9.72173 4.32265 9.79932 4.49195C9.89479 4.70709 9.95143 4.88352 10.0712 5.02752C10.0065 4.83989 9.89159 4.47093 9.82364 4.33984C9.74759 4.20117 9.59228 4.05184 9.53564 4.00011V4Z" fill="#A88F33"/>
<path fill-rule="evenodd" clip-rule="evenodd" d="M8.43519 6.66026C8.43519 6.66026 8.27177 6.70069 7.96756 6.8609C7.86719 6.91264 7.77183 6.95626 7.67957 6.9968C7.43989 7.10517 7.18282 7.20533 6.97888 7.26058C6.99509 7.28 7.00309 7.288 7.00309 7.288C7.00309 7.288 7.00309 7.36736 7.04682 7.41258C7.02261 7.4369 6.69888 7.65696 6.79445 8.39317C6.85909 8.36896 6.93515 8.33653 6.94645 8.33653C6.96597 8.33984 6.97077 8.39317 6.99499 8.39317C7.0192 8.39317 7.09856 8.36117 7.18272 8.25237C7.17952 8.2961 7.13098 8.73621 7.39146 9.03232C7.43999 8.97568 7.56298 8.78794 7.56298 8.78794L7.56618 8.7281C7.56618 8.7281 7.57749 8.51936 7.64554 8.32842C7.71359 8.13749 7.84618 7.99669 7.84618 7.99669L8.53855 7.008L8.43497 6.66016L8.43519 6.66026Z" fill="#E6C367"/>
<path fill-rule="evenodd" clip-rule="evenodd" d="M7.78804 8.11199C7.75634 8.13439 7.72141 8.15184 7.68446 8.16373C7.67316 8.1233 7.65694 7.9841 7.75241 7.84821C7.86409 7.68469 8.10836 7.47274 8.1763 7.30421C8.22004 7.19573 8.20062 6.92394 8.589 6.57599C8.97737 6.22805 9.12937 6.10837 9.12937 6.10837L9.75721 5.79285L10.529 6.09706L10.1456 7.59999L9.84788 8.30399L8.66388 8.08074L7.78793 8.11199H7.78804Z" fill="#DCBA5A"/>
<path fill-rule="evenodd" clip-rule="evenodd" d="M8.23999 7.70394L8.3873 7.51951V7.38842C8.3873 7.38842 8.55071 7.34469 8.72704 7.16506C8.90336 6.98543 9.14773 6.64079 9.36299 6.66181C9.57824 6.68613 9.59926 7.12943 9.60736 7.25413C9.61547 7.37882 9.64299 7.66181 9.68662 7.81402C9.73515 7.96613 9.16235 8.54213 9.16235 8.54213L8.77333 8.83823L8.23999 7.70394Z" fill="#E9CE77"/>
<path fill-rule="evenodd" clip-rule="evenodd" d="M8.6958 9.23951C8.6958 9.23951 8.81558 9.05177 8.7278 9.01135C8.77953 8.89487 8.875 8.77188 8.875 8.77188C8.875 8.77188 8.94294 8.60367 9.16299 8.39652C9.38303 8.18937 9.51903 8.05177 9.55465 7.91268C9.57662 7.82203 9.58856 7.72924 9.59028 7.63599C9.61407 7.65542 9.63951 7.67273 9.66633 7.68772C9.70195 7.70393 9.87016 7.84303 9.84595 8.12303C9.82174 8.40303 9.71795 8.51951 9.71795 8.51951C9.71795 8.51951 9.61769 8.61977 9.54655 8.67161C9.47039 8.72335 9.44298 8.78319 9.31509 8.78809C9.32823 8.77764 9.34301 8.76943 9.35882 8.76377C9.35882 8.76377 9.22613 8.74767 9.15488 8.81231C9.08363 8.87695 8.93217 9.07609 8.85612 9.13604C8.78006 9.18457 8.69612 9.23961 8.69612 9.23961L8.6958 9.23951Z" fill="#CDAE50"/>
<path fill-rule="evenodd" clip-rule="evenodd" d="M14.076 6.0922C13.8848 6.02253 13.6839 5.98322 13.4806 5.97572C13.1408 5.96441 12.644 5.98383 12.157 5.98703C11.6327 5.99023 11.157 5.8074 10.4968 5.77508C10.3884 5.71033 10.1128 5.42713 9.25244 6.02745C9.30417 6.02425 9.87708 5.89476 10.076 6.14404C10.2767 6.39161 10.22 6.81231 10.1926 6.91257C10.1408 7.13593 9.97244 7.46116 9.9046 7.68932C9.83676 7.91748 9.85276 8.03737 9.80423 8.19737C9.7557 8.35737 9.64892 8.43684 9.71196 8.62127C9.79612 8.56953 9.83996 8.56953 9.98055 8.25401C10.1211 7.93849 10.0922 7.71353 10.3253 7.44655C10.5535 7.17796 10.9333 6.8106 11.0777 6.71833C11.2221 6.62607 12.3689 6.03065 13.5697 6.59865C13.8593 6.56793 14.0761 6.09209 14.0761 6.09209L14.076 6.0922Z" fill="#D2A83E"/>
<path fill-rule="evenodd" clip-rule="evenodd" d="M9.73634 5.87202C9.73515 5.85986 9.73246 5.84789 9.72834 5.83639C9.71711 5.81273 9.70236 5.7909 9.6846 5.77165C9.6846 5.77165 9.39979 5.71991 9.25579 5.73602C9.0033 5.76354 8.77513 6.07586 8.66836 6.23608C8.56158 6.39629 8.42888 6.64376 8.28488 6.77166C8.28646 6.7592 8.28358 6.74658 8.27677 6.73603C8.27677 6.73603 8.28488 6.74734 8.26877 6.76355C8.25266 6.77977 8.25256 6.78777 8.26066 6.79555L8.28499 6.81977C8.29299 6.81977 8.51635 6.71939 8.82057 6.43576C9.14421 6.13965 9.39179 5.98776 9.52129 5.9357C9.59035 5.90635 9.66254 5.88499 9.73644 5.87202V5.87202H9.73634Z" fill="#C29637"/>
<path fill-rule="evenodd" clip-rule="evenodd" d="M15.2607 4.6554C15.2607 4.6554 15.2089 4.72004 15.1441 4.79129C15.0001 4.9434 14.8124 5.11481 14.6522 5.29124C14.5002 5.45956 14.3286 5.59065 14.136 5.8107C13.9434 6.03076 13.72 6.27502 13.6635 6.34628C13.6117 6.41753 13.5713 6.53401 13.5713 6.59385C13.5438 6.57444 13.5115 6.55342 13.5115 6.55342C13.5251 6.57883 13.5414 6.60271 13.56 6.62468C13.6004 6.68132 13.6635 6.75268 13.6959 6.7962C13.7357 6.8516 13.7642 6.91425 13.78 6.98062C13.7994 6.98382 13.924 7.00814 14.0794 6.75246C14.2348 6.49678 14.4385 6.21689 14.4385 6.21689L14.7621 5.73625L14.9661 5.32857L15.2221 4.87225L15.261 4.6554H15.2607Z" fill="#AC8132"/>
<path fill-rule="evenodd" clip-rule="evenodd" d="M15.5923 4.32849C15.5923 4.32849 15.3965 4.48849 15.3205 4.58449C15.2444 4.68049 15.0645 4.93244 15.0645 4.93244L15.1292 4.92433L15.4577 4.63313L15.5857 4.40497L15.5922 4.32892L15.5923 4.32849Z" fill="#A88F33"/>
<path fill-rule="evenodd" clip-rule="evenodd" d="M15.5323 17.1877C15.5323 17.1877 15.5291 17.055 15.6036 16.9758C15.6797 16.8964 15.8722 16.78 16.0599 16.343C16.2477 15.9061 16.2686 15.8075 16.2686 15.8075C16.2686 15.8075 15.932 16.0955 15.7246 16.1634C15.7731 16.063 15.8006 15.9919 15.8249 15.9401C15.7974 15.9158 15.6809 15.8883 15.6696 15.8754C15.7343 15.8107 15.7699 15.6521 15.901 15.5469C16.0693 15.4189 16.3767 15.1989 16.6157 15.0029C16.8546 14.8068 17.3243 14.3508 17.3843 14.2181C17.4199 14.2699 17.4279 14.3022 17.4279 14.3022C17.4279 14.3022 17.1918 14.6097 17.0688 14.8054C16.9603 14.9738 16.9684 15.0692 16.9684 15.0692L17.1918 14.9732C17.1918 14.9732 17.2564 15.2127 16.9636 15.5769C17.0916 15.5283 17.1432 15.5574 17.216 15.5169C17.0962 15.5931 16.9312 15.6966 16.7759 15.9813C16.6238 16.2661 16.4166 16.5979 16.0672 16.8049C15.7273 17.0234 15.5315 17.1868 15.5315 17.1868L15.5323 17.1877Z" fill="#A67A2E"/>
<path fill-rule="evenodd" clip-rule="evenodd" d="M14.6553 6.26055C14.6553 6.26055 14.5226 6.53714 14.5032 6.75239C14.5 6.80423 14.487 6.84466 14.487 6.9045C14.4838 7.09703 14.4983 7.31228 14.455 7.41255C14.4388 7.37212 14.4307 7.3446 14.4145 7.3285C14.3902 7.39644 14.3465 7.60839 14.3109 7.68764C14.2948 7.63591 14.2591 7.45628 14.2625 7.24434C14.2658 7.03239 14.2705 6.99186 14.2705 6.94823C14.2625 7.01287 14.2187 7.10034 14.2025 7.15207C14.1783 7.10844 14.1508 7.0518 14.1184 7.00487C14.0989 7.03687 14.0747 7.08412 14.0537 7.10844C14.0504 7.08903 14.0424 7.03719 14.0375 6.96444C14.0343 6.88028 14.0294 6.77191 14.0343 6.74919C14.0423 6.70556 14.1104 6.53404 14.2543 6.37703C14.4259 6.1893 14.6023 5.82855 14.654 5.71687C14.7057 5.60519 14.9258 5.14087 14.9258 5.14087H15.0941L14.8497 5.69746C14.8497 5.69746 14.7025 6.00167 14.6265 6.11346C14.5504 6.22524 14.3902 6.54556 14.319 6.67015C14.3707 6.6022 14.4145 6.56658 14.4663 6.50183C14.5164 6.4565 14.6555 6.26076 14.6555 6.26076L14.6553 6.26055Z" fill="#8C6228"/>
<path fill-rule="evenodd" clip-rule="evenodd" d="M15.5955 4.30737C15.5681 4.39199 15.5246 4.47057 15.4676 4.53884C15.3672 4.65863 15.1519 4.81873 15.0469 4.94652C14.9509 5.07111 14.7589 5.41095 14.8461 5.81383C14.8781 5.72647 14.9384 5.55335 15.0986 5.35751C15.2588 5.16167 15.4303 4.93681 15.5146 4.76209C15.5986 4.58567 15.6099 4.44657 15.6099 4.44657L15.6419 4.40615L15.6225 4.31388L15.595 4.30737H15.5955Z" fill="#CBA94C"/>
<path fill-rule="evenodd" clip-rule="evenodd" d="M18.8723 15.0403C18.8723 15.0403 18.8075 14.864 18.7881 14.7037C18.7687 14.5435 18.8201 14.5117 18.7606 14.3284C18.725 14.2167 18.6603 14.2324 18.6441 14.2167C18.6279 14.201 18.6166 14.0323 18.6198 13.94C18.623 13.8478 18.6166 13.7281 18.6004 13.6762C18.5762 13.6568 18.5599 13.6406 18.5243 13.5209C18.4839 13.4011 18.4645 13.3413 18.4451 13.3058C18.4256 13.2703 18.3689 13.2378 18.3689 13.2022C18.3689 13.131 18.4336 13.0938 18.4336 13.0742C18.4304 13.0338 18.3819 13.0662 18.3689 13.0548C18.3528 13.0354 18.4094 12.9189 18.3884 12.9027C18.3803 12.8947 18.3237 12.9626 18.3091 12.9432C18.2928 12.9237 18.2734 12.7312 18.2443 12.6034C18.2169 12.4788 18.1877 12.3882 18.1845 12.351C18.1813 12.3154 17.9611 11.6876 17.9078 11.5355C17.8648 11.4069 17.8286 11.2762 17.7994 11.1439C17.7832 11.0678 17.7719 10.9124 17.7638 10.9286C17.7557 10.9448 17.7606 11.0241 17.7476 11.0209C17.7363 11.0176 17.6958 10.741 17.6829 10.6973C17.6716 10.6535 17.6036 10.5053 17.5869 10.398C17.5707 10.2895 17.5352 10.0063 17.5109 9.81376C17.4865 9.62123 17.4752 9.54197 17.4752 9.49376C17.4792 9.37584 17.4727 9.25779 17.4558 9.14102C17.4238 8.93707 17.3598 8.6895 17.3037 8.54561C17.1953 8.27372 16.9072 7.57794 16.8557 7.40482C16.8557 7.36109 16.9124 7.38541 16.9124 7.38541C16.9124 7.38541 17.053 7.73815 17.1566 8.00993C17.257 8.28182 17.3525 8.52129 17.3768 8.54561C17.3962 8.56982 17.5483 8.83681 17.6163 9.27371C17.6842 9.71061 17.7084 10.1135 17.7489 10.3821C17.7684 10.5101 17.7846 10.6459 17.825 10.7818C17.8686 10.9291 17.9366 11.0812 18.0256 11.3141C18.1017 11.51 18.1583 11.6734 18.1891 11.8142C18.2247 11.9938 18.2247 12.1297 18.2457 12.2188C18.2652 12.2948 18.2942 12.4468 18.3623 12.6667C18.4303 12.8867 18.5305 13.17 18.5984 13.3463C18.7312 13.6991 18.7904 13.9936 18.8105 14.1506C18.8282 14.3124 18.8882 14.8723 18.8719 15.0405L18.8723 15.0403Z" fill="#A88F33"/>
<path fill-rule="evenodd" clip-rule="evenodd" d="M15.6036 4.28797L15.5955 4.30739C15.5955 4.30739 15.6197 4.31549 15.6149 4.34792C15.6153 4.39228 15.6125 4.43662 15.6068 4.48061C15.5988 4.53725 15.5826 4.58088 15.5794 4.61651C15.5794 4.69256 15.5907 4.77992 15.4834 4.99678C15.4514 5.05662 15.4317 5.10835 15.4155 5.14398C15.375 5.23134 15.3669 5.24435 15.3313 5.28478C15.3879 5.25278 15.5919 5.12478 15.6953 5.14398C15.6242 5.18441 15.5157 5.26377 15.4478 5.36734C15.464 5.37054 15.5319 5.38355 15.6398 5.36734C15.8194 5.33982 16.02 5.27507 16.1963 5.28798C16.389 5.29929 16.3129 5.05662 16.3129 5.05662L16.0906 4.56797L15.6699 4.27197L15.6036 4.28808V4.28797Z" fill="#BE9C44"/>
<path fill-rule="evenodd" clip-rule="evenodd" d="M16.7007 7.94829C16.7007 7.94829 16.513 7.76055 16.4369 7.11628C16.3609 6.46902 16.3771 5.51626 16.3771 5.51626L16.225 5.14409C16.225 5.14409 16.193 4.89652 16.1133 4.80436C16.0336 4.7122 15.8771 4.55678 15.8059 4.48073C15.7346 4.40467 15.6538 4.3011 15.6052 4.28488C15.6294 4.24446 15.7379 4.01629 16.1537 4.01309C16.5695 4.00989 16.6977 4.24126 16.7411 4.32542C16.7845 4.40958 16.9806 4.77342 17.0533 5.46676C17.1213 6.15925 17.1246 6.21109 17.1133 6.45056C17.1052 6.58326 17.0614 6.89067 16.9853 7.2191C16.9157 7.49751 16.8397 7.80823 16.7005 7.94893L16.7007 7.94829Z" fill="#A17C34"/>
<path fill-rule="evenodd" clip-rule="evenodd" d="M16.112 8.50001C16.1746 8.50452 16.2371 8.49042 16.2917 8.45948C16.3515 8.45628 16.5684 8.4838 16.735 8.27185C16.7463 8.32028 16.7755 8.45148 16.6994 8.56795C16.7399 8.52742 16.7998 8.51131 16.8079 8.50001C16.8111 8.55985 16.8677 8.74427 16.6282 9.19248C16.6929 9.12133 16.7689 9.12453 16.8369 9.11643C16.8402 9.20059 16.8854 9.48368 16.7657 9.63589C16.6865 9.73946 16.557 9.70704 16.557 9.70704C16.5589 9.68443 16.5589 9.6617 16.557 9.63909C16.5538 9.59536 16.5375 9.55173 16.549 9.52261C16.4864 9.49403 16.4294 9.45455 16.3806 9.40603C16.2398 9.27333 16.057 9.04688 16.0441 8.87856C16.0279 8.69083 16.1962 8.65041 16.1962 8.65041C16.1821 8.63779 16.1701 8.62303 16.1606 8.60667C16.1525 8.57926 16.1443 8.53553 16.112 8.50001V8.50001Z" fill="#8C6228"/>
<path fill-rule="evenodd" clip-rule="evenodd" d="M14.864 6.46444C14.864 6.46444 14.8559 6.45313 14.8123 6.50486C14.8204 6.45313 14.8285 6.40449 14.8317 6.35756C14.8523 6.3141 14.879 6.27381 14.911 6.23788C14.8867 6.2863 14.8705 6.33004 14.8705 6.33004C14.8705 6.33004 14.9304 6.21836 15.0178 6.15041C15.0776 6.10188 15.1537 6.07926 15.186 6.03393C15.2216 5.9854 15.2135 5.97729 15.2216 5.96918C15.2216 5.96918 15.301 5.91745 15.4224 5.76524C15.4385 5.74582 15.4628 5.72481 15.479 5.7054C15.5064 5.69409 15.5712 5.66497 15.6472 5.62604C15.7266 5.58241 15.8155 5.52257 15.8706 5.49804C15.9789 5.4495 16.0939 5.45441 16.1473 5.37825C16.1877 5.36694 16.2313 5.24556 16.2233 5.14209C16.2831 5.1663 16.5905 5.35724 16.6958 5.77473C16.7719 6.07084 16.6359 6.52716 16.5792 6.74732C16.5226 6.96748 16.5146 7.13078 16.4352 7.23105C16.3349 7.36385 16.0114 7.55105 15.932 7.64374C15.8641 7.7198 15.6602 7.91233 15.6682 8.05142C15.6763 8.155 15.8041 8.21142 15.8317 8.23105C15.8594 8.25068 15.8592 8.27478 15.911 8.26305C15.9628 8.25132 15.9821 8.22742 16.0033 8.22742C16.0275 8.23062 16.0275 8.23553 16.0388 8.23553C16.047 8.23529 16.0551 8.23418 16.0631 8.23222C16.0631 8.23222 16.055 8.37953 15.7104 8.42422C15.686 8.42753 15.6618 8.43553 15.631 8.44044C15.6715 8.42102 15.6957 8.42102 15.7395 8.36118C15.6909 8.35308 15.5518 8.34497 15.5161 8.33366C15.5274 8.31425 15.5647 8.26241 15.5954 8.2382C15.6229 8.21398 15.5922 8.2062 15.568 8.21878C15.5263 8.24715 15.4863 8.27792 15.4482 8.31094C15.4078 8.34657 15.3721 8.3951 15.3074 8.43894C15.288 8.3742 15.2912 8.25121 15.3673 8.16225C15.3478 8.16545 15.3106 8.22209 15.2751 8.21078C15.2686 8.15176 15.2725 8.09208 15.2864 8.03436C15.3058 7.9615 15.411 7.83372 15.411 7.83372L15.919 6.92588L16.0274 6.2382L14.864 6.46422V6.46444Z" fill="#92723A"/>
<path fill-rule="evenodd" clip-rule="evenodd" d="M14.8367 6.50327C14.8367 6.50327 14.8092 6.52268 14.8642 6.55991C14.8561 6.57121 14.8367 6.61164 14.8124 6.63916C14.785 6.67116 14.7557 6.691 14.7444 6.71852C14.7202 6.77516 14.7008 6.81399 14.7008 6.83831C14.7008 6.86263 14.6927 7.01793 14.6248 7.1182C14.6004 7.15383 14.5729 7.21367 14.5535 7.25409C14.5131 7.32524 14.4774 7.38209 14.4693 7.41409C14.4532 7.47073 14.4419 7.62604 14.4419 7.62604C14.4419 7.62604 14.4775 7.58231 14.4904 7.5662C14.4709 7.60663 14.4499 7.65025 14.4192 7.68268C14.4386 7.66647 14.4952 7.62604 14.5907 7.54188C14.7234 7.43031 14.9306 7.24257 15.1831 7.09388C15.1069 7.1214 15.0423 7.1214 14.9905 7.12951C15.031 7.08908 15.395 6.66188 15.586 6.62145C15.5976 6.60675 15.6034 6.5883 15.6022 6.56961L15.4387 6.55351L15.1069 6.62465L15.0585 6.36865L14.8367 6.50295V6.50327Z" fill="#B18E3E"/>
<path fill-rule="evenodd" clip-rule="evenodd" d="M15.3641 7.95954C15.3641 7.95954 15.3204 8.00317 15.2799 8.11165C15.2488 8.07915 15.2221 8.04267 15.2006 8.00317C15.1407 7.9029 15.0486 7.77501 14.8333 7.84786C14.8301 7.77991 14.8252 7.74429 14.8333 7.69575C14.869 7.68775 14.9773 7.60039 15.0857 7.4725C15.1619 7.38514 15.233 7.28477 15.2815 7.15698C15.3135 7.13266 15.3689 7.09223 15.4415 7.0453C15.5451 6.97415 15.6697 6.87698 15.6891 6.76861C15.6406 6.78802 15.537 6.83655 15.3816 6.82855C15.4415 6.80103 15.5337 6.77191 15.5224 6.65213C15.5467 6.63591 15.5661 6.62461 15.5661 6.62461C15.5479 6.61852 15.5287 6.61578 15.5095 6.6165C15.5062 6.60519 15.5014 6.58909 15.4739 6.59709C15.4463 6.60509 15.4419 6.60519 15.4382 6.6165C15.4269 6.61981 15.3897 6.6165 15.3622 6.63602C15.3347 6.65554 15.2586 6.72007 15.2295 6.73138C15.2408 6.71197 15.2569 6.68295 15.2569 6.68295C15.2569 6.68295 15.1776 6.69095 15.121 6.71495C15.0174 6.75058 14.8978 6.81533 14.7764 6.87837C14.7877 6.85895 14.7926 6.84637 14.8006 6.84274C14.8086 6.83911 14.8281 6.83474 14.8281 6.83143C14.8281 6.82813 14.8201 6.79943 14.8249 6.78781C14.8612 6.71093 14.904 6.6373 14.9529 6.56775C15.0095 6.49159 15.0208 6.38322 15.0208 6.38322L15.2684 6.25863L15.9642 6.09863L16.4157 6.12615L16.3591 6.43847L16.0924 6.98375L15.8643 7.4805L15.6037 7.78482L15.3642 7.95954H15.3641Z" fill="#543E26"/>
<path fill-rule="evenodd" clip-rule="evenodd" d="M16.4918 6.60804C16.4918 6.60804 16.22 6.94458 16.1439 6.99642C16.1924 6.89284 16.4918 6.27631 16.6002 6.10479C16.576 6.08538 16.5436 6.08538 16.6196 5.78479C16.555 5.93679 16.5323 6.01615 16.4789 6.05658C16.4256 6.097 16.419 6.0841 16.3829 6.0841C16.3897 6.07178 16.3925 6.05765 16.3909 6.04367C16.3909 6.04367 16.1628 6.01615 16.0069 6.01615C15.8511 6.01615 15.5426 6.10031 15.371 6.16826C15.2351 6.2249 15.1591 6.2249 15.1106 6.26042C15.062 6.30084 15.0345 6.34458 15.0102 6.35588C14.9908 6.36719 14.8986 6.39631 14.8775 6.42703C14.8581 6.45903 14.8258 6.49498 14.8258 6.50308C14.8258 6.51119 14.8177 6.5226 14.842 6.51439C14.85 6.51119 14.9099 6.47876 14.9779 6.43834C15.07 6.3866 15.1817 6.32676 15.2627 6.29114C15.494 6.19887 15.5669 6.21508 15.6703 6.19567C15.7787 6.17626 15.9341 6.13092 16.0376 6.13092C16.1411 6.12772 16.337 6.13092 16.3823 6.13903C16.3629 6.15524 16.3467 6.17466 16.3548 6.2426C16.3548 6.26202 16.3386 6.28303 16.3228 6.32996C16.2744 6.46266 16.1821 6.68271 16.1308 6.79439C16.0596 6.94639 15.9788 7.07428 15.9388 7.15354C15.8988 7.23279 15.8108 7.44154 15.7236 7.55322C15.6365 7.6649 15.591 7.73284 15.5637 7.75716C15.5363 7.78148 15.3403 7.92538 15.3549 7.97722C15.3905 7.96591 15.6155 7.88122 15.7788 7.69732C15.9421 7.51343 15.9746 7.40122 16.1024 7.30084C16.2302 7.20047 16.3306 7.03226 16.3904 6.89316C16.4405 6.76367 16.4292 6.72324 16.4923 6.60836L16.4918 6.60804Z" fill="#806031"/>
<path fill-rule="evenodd" clip-rule="evenodd" d="M10.6327 9.1198C10.6327 9.1198 10.5971 9.267 10.5161 9.33986C10.4369 9.41111 10.2961 9.47255 10.28 9.59234C10.2605 9.71202 10.4208 9.77196 10.4208 9.77196C10.4208 9.77196 10.3333 9.91596 10.3333 10.0243C10.3333 10.136 10.3301 10.157 10.3414 10.2638C10.3286 10.2721 10.3176 10.283 10.3094 10.2958C10.3094 10.2958 10.3174 10.3994 10.3968 10.464C10.4761 10.5287 10.544 10.5676 10.5844 10.5514C10.5906 10.5646 10.596 10.5781 10.6006 10.5919C10.6006 10.5919 10.6606 10.4398 10.701 10.3071C10.7414 10.1712 10.777 10.1905 10.7931 10.0077C10.8093 9.82487 10.9852 9.51095 10.9852 9.51095L11.1052 9.24268L10.9094 9.09058L10.6327 9.1197V9.1198Z" fill="#B6903C"/>
<path fill-rule="evenodd" clip-rule="evenodd" d="M10.9967 9.38342C10.9564 9.42486 10.9191 9.46921 10.8853 9.51612C10.8335 9.58737 10.7931 9.65201 10.717 9.67964C10.641 9.70726 10.5925 9.70705 10.5973 9.78321C10.6021 9.85937 10.6733 9.89158 10.7137 9.93041C10.7575 9.97084 10.7931 10.0388 10.7737 10.1149C10.7979 10.1036 10.8416 10.0906 10.8821 10.0033C10.9225 9.9159 11.2053 9.38353 11.2053 9.38353H10.9967V9.38342Z" fill="#685026"/>
<path fill-rule="evenodd" clip-rule="evenodd" d="M12.112 8.15526C12.112 8.15526 12.1362 8.09062 12.112 8.04369C12.0877 7.99515 11.9405 7.97894 11.8677 7.9239C11.7916 7.86726 11.6993 7.8279 11.6233 7.85275C11.6346 7.82523 11.6799 7.76529 11.6427 7.75238C11.6071 7.74107 11.4745 7.80091 11.4389 7.82843C11.4032 7.85595 11.3223 7.88827 11.3062 7.90779C11.2901 7.92731 11.2624 7.96443 11.2462 7.94822C11.23 7.93691 11.222 7.90779 11.1945 7.9239C11.167 7.94001 11.0345 8.04849 11.0101 8.11163C10.9856 8.17478 10.9307 8.31558 10.7657 8.47568C10.6007 8.63579 10.5294 8.73947 10.578 8.79931C10.6265 8.85914 10.6492 8.81552 10.6573 8.86725C10.6636 8.91804 10.6608 8.96952 10.6492 9.01936C10.6298 9.10352 10.5975 9.18277 10.6411 9.19898C10.7528 9.23461 10.8613 9.16698 10.8855 9.18767C10.934 9.2313 10.858 9.38831 10.9728 9.41903C11.0894 9.45103 11.2043 9.39151 11.2043 9.39151L11.6282 9.16336L12.036 8.94821L12.2446 8.53552L12.1327 8.19088L12.1114 8.15526H12.112Z" fill="#D4B968"/>
<path fill-rule="evenodd" clip-rule="evenodd" d="M11.7119 9.14077C11.7119 9.14077 11.6407 9.03239 11.7281 8.93682C11.8156 8.84125 11.9401 8.80093 11.9886 8.74109C11.9794 8.72969 11.967 8.72127 11.953 8.71688C11.9852 8.65923 12.0344 8.61287 12.0938 8.58408C12.0696 8.55986 12.0372 8.54045 12.0016 8.54045C11.9223 8.54045 11.8736 8.58898 11.8009 8.58898C11.7297 8.58898 11.7216 8.55336 11.7216 8.55336C11.7216 8.55336 11.8414 8.54205 11.83 8.48861C11.8187 8.43197 11.798 8.43197 11.798 8.43197C11.798 8.43197 12.0294 8.33597 12.0698 8.28477C12.1102 8.23357 12.1054 8.17309 12.1135 8.14888C12.1409 8.14888 12.3012 8.06472 12.3659 8.10035C12.4307 8.13597 12.3853 8.23304 12.3853 8.23304C12.3853 8.23304 12.5813 8.08573 12.6811 7.94131C12.7685 7.94942 12.8091 7.88147 12.8731 7.88147C12.9525 7.88147 13.0771 7.98984 13.1013 8.2212C13.1175 8.35389 13.1417 8.42995 13.1175 8.66461C13.1062 8.7973 13.1094 9.08061 13.1495 9.22119C13.1769 9.33287 13.2417 9.32157 13.2417 9.32157C13.2317 9.3556 13.212 9.38597 13.185 9.40892C13.1413 9.44935 13.1365 9.55623 13.1413 9.59666C13.1477 9.62621 13.1558 9.65538 13.1656 9.68402C13.1656 9.68402 13.1139 9.74386 13.1009 9.78439C13.0895 9.82481 13.0362 9.85233 12.9973 9.85233C12.9583 9.85233 12.9779 9.84903 12.9261 9.85233C12.8744 9.85564 12.8582 9.86364 12.8258 9.85233C12.7933 9.84103 12.7691 9.82801 12.7821 9.72434C12.7934 9.62076 12.3824 9.3797 12.3824 9.3797L11.7104 9.14023L11.7119 9.14077Z" fill="#CCA849"/>
<path fill-rule="evenodd" clip-rule="evenodd" d="M10.9402 10.1634C10.9402 10.1634 11.0874 10.3593 11.6927 10.3593C11.9807 10.3593 12.0811 10.3317 12.1407 10.3155C12.2055 10.2993 12.4481 10.2039 12.6925 9.91584C12.9126 9.65536 12.864 9.54859 12.864 9.54859L12.736 9.52917L12.32 9.58581L11.089 10.1101L10.9397 10.1634H10.9402Z" fill="#585136"/>
<path fill-rule="evenodd" clip-rule="evenodd" d="M11.3915 10.2119C11.3915 10.2119 10.8672 10.3285 10.8672 9.99678C10.8672 9.67317 11.1908 9.33334 11.2718 9.2735C11.3559 9.21356 11.5566 9.14551 11.5566 9.14551H12.0404L12.1326 9.38987L12.0921 9.91732L11.3915 10.2118V10.2119Z" fill="#252211"/>
<path fill-rule="evenodd" clip-rule="evenodd" d="M11.8755 9.24438C11.8755 9.24438 11.7752 9.15211 11.5471 9.27638C11.3189 9.40065 11.1344 9.66038 11.1231 9.89623C11.1117 10.1049 11.2946 10.2603 11.5794 10.2684C11.7913 10.2764 11.9192 10.2522 11.984 10.2364C11.9678 10.217 11.8836 10.1118 11.8836 10.1118L11.8756 9.24448L11.8755 9.24438Z" fill="#C3B378"/>
<path fill-rule="evenodd" clip-rule="evenodd" d="M11.7767 9.29599C11.7767 9.29599 11.7525 9.27658 11.6807 9.3154C11.6209 9.3474 11.5335 9.43198 11.4656 9.49182C11.4218 9.52745 11.3943 9.54355 11.3696 9.57107C11.2692 9.69085 11.185 9.88668 11.2337 9.98375C11.2823 10.0808 11.4424 10.1925 11.8502 10.1164L11.7755 9.2961L11.7767 9.29599Z" fill="#E6D89C"/>
<path fill-rule="evenodd" clip-rule="evenodd" d="M11.6441 9.49673C11.6441 9.49673 11.5794 9.5971 11.5794 9.75732C11.5794 9.92074 11.6717 10.1812 12.0115 10.2006C12.272 10.2168 12.4467 9.82527 12.636 9.67316C12.78 9.55668 12.8673 9.55337 12.8673 9.55337C12.8673 9.55337 12.7202 9.39337 12.327 9.18611C11.9386 8.97736 11.5033 8.94984 11.2671 9.27027C11.3788 9.26216 11.7396 9.1699 11.7396 9.1699L11.916 9.22654L11.6441 9.49684V9.49673Z" fill="#252211"/>
<path fill-rule="evenodd" clip-rule="evenodd" d="M12.1521 9.70864C12.1408 9.68442 12.1327 9.652 12.1796 9.644C12.2265 9.636 12.2475 9.64069 12.2637 9.676C12.2799 9.7113 12.2957 9.74074 12.2717 9.75536C12.2475 9.76826 12.1844 9.75536 12.152 9.70842L12.1521 9.70864ZM12.076 9.48048C12.076 9.48048 12.0598 9.49179 12.0679 9.46917C12.0711 9.44176 12.0923 9.39312 12.144 9.40454C12.1957 9.41595 12.1845 9.47248 12.176 9.48869C12.1674 9.50491 12.1242 9.53232 12.0918 9.52069C12.0877 9.51964 12.0839 9.51764 12.0807 9.51484C12.0775 9.51204 12.0751 9.50853 12.0735 9.50459C12.0719 9.50066 12.0713 9.4964 12.0716 9.49217C12.072 9.48795 12.0734 9.48387 12.0756 9.48027L12.076 9.48048Z" fill="#6F674D"/>
<path fill-rule="evenodd" clip-rule="evenodd" d="M7.69604 9.58395C7.69604 9.58395 7.82404 9.67995 7.97274 9.67621C8.11994 9.67291 8.30927 9.52091 8.39663 9.42373C8.44836 9.36709 8.49263 9.30725 8.54063 9.26032C8.58116 9.21989 8.60858 9.20048 8.62799 9.17296C8.65551 9.14096 8.68463 9.0808 8.69924 9.06128C8.66362 9.0888 8.61188 9.13744 8.55844 9.16976C8.50671 9.20176 8.39503 9.26192 8.3497 9.27813C8.30607 9.29435 7.85295 9.53413 7.85295 9.53413L7.69604 9.58395Z" fill="#AC924C"/>
<path fill-rule="evenodd" clip-rule="evenodd" d="M7.8916 8.38832C7.8916 8.38832 7.96275 8.33979 8.10035 8.30896C8.23304 8.27696 8.50003 8.25232 8.50003 8.25232L8.72008 8.34832L8.80744 8.68005L8.64744 9.0248L8.4436 9.1528L8.21213 8.78064L7.89213 8.38896L7.8916 8.38832Z" fill="#9F8E57"/>
<path fill-rule="evenodd" clip-rule="evenodd" d="M7.60375 8.68452L7.52759 8.74138C7.52759 8.74138 7.54711 8.70575 7.56321 8.59738C7.57932 8.489 7.66359 8.22521 7.78658 8.0731C7.90956 7.92099 7.90636 7.9291 7.90636 7.9291C7.89505 7.92703 7.88342 7.92739 7.87225 7.93017C7.86109 7.93295 7.85064 7.93807 7.84162 7.9452C7.85783 7.90936 7.9614 7.78136 8.06498 7.71736C8.16855 7.65336 8.20898 7.6332 8.31735 7.68536C8.42573 7.73752 8.45325 7.76461 8.53261 7.76141C8.61197 7.75821 8.67981 7.67405 8.67981 7.67405C8.67981 7.67405 8.69602 7.72579 8.63618 7.84557C8.57634 7.96536 8.34007 8.20964 8.34007 8.20964L7.84812 8.54618L7.60375 8.68484V8.68452Z" fill="#EAC970"/>
<path fill-rule="evenodd" clip-rule="evenodd" d="M7.96747 8.34799C7.96747 8.34799 8.32352 8.39652 8.43189 8.29625C8.43509 8.30756 8.44811 8.30756 8.44811 8.31567C8.44724 8.32178 8.44439 8.32743 8.44 8.33177C8.45179 8.32989 8.46369 8.32882 8.47563 8.32857C8.48988 8.33282 8.50454 8.33553 8.51936 8.33668C8.5313 8.33642 8.5432 8.33532 8.55499 8.33337C8.55386 8.34142 8.55113 8.34915 8.54695 8.35611C8.54277 8.36308 8.53724 8.36913 8.53067 8.37391C8.54688 8.37391 8.56267 8.37711 8.56267 8.39001C8.56267 8.40292 8.56587 8.44185 8.54645 8.44996C8.53037 8.45441 8.51325 8.45324 8.49792 8.44665C8.4992 8.47729 8.50753 8.50722 8.52224 8.53412C8.55424 8.59396 8.62251 8.66212 8.71424 8.64249C8.71424 8.64249 8.76267 8.75897 8.55883 9.01785C8.53141 9.05348 8.50219 9.10201 8.46667 9.14244C8.45263 9.17303 8.44191 9.20504 8.43467 9.23791C8.43467 9.23791 8.77941 9.10521 8.87808 8.8026C8.97845 8.49839 8.99787 8.19908 8.97845 7.91919C8.97515 7.83983 8.96224 7.78329 8.94283 7.74276C8.89429 7.64239 8.75829 7.6586 8.70336 7.71524C8.624 7.7946 8.49131 7.99193 8.30688 8.12783C8.11915 8.26372 8.11115 8.28783 7.96704 8.34799H7.96747Z" fill="#D7BC6B"/>
<path fill-rule="evenodd" clip-rule="evenodd" d="M7.54038 8.78479C7.54038 8.78479 7.47243 8.82522 7.4368 8.97679C7.40117 9.1321 7.4688 9.32143 7.50795 9.38127C7.5471 9.44111 7.63596 9.60463 7.8203 9.61274C7.86593 9.6125 7.91105 9.60314 7.95301 9.58522C8.01736 9.55571 8.07772 9.51819 8.13265 9.47354C8.21202 9.4137 8.27666 9.36197 8.26855 9.35706C8.24914 9.34895 7.77987 8.96058 7.77987 8.96058L7.60343 8.76367L7.54028 8.78501L7.54038 8.78479Z" fill="#585136"/>
<path fill-rule="evenodd" clip-rule="evenodd" d="M7.98408 9.4288C7.98408 9.4288 8.07955 9.4208 8.13619 9.38517C8.19283 9.34954 7.80444 8.96448 7.80444 8.96448L7.83196 9.38048L7.98408 9.4288Z" fill="#453A25"/>
<path fill-rule="evenodd" clip-rule="evenodd" d="M7.57113 8.75566C7.57113 8.75566 7.5226 8.84792 7.5226 8.87224C7.51449 8.9515 7.53881 9.20067 7.55822 9.27992C7.57764 9.36408 7.68281 9.49187 7.81881 9.49187C7.90286 9.49187 8.01944 9.44014 8.01944 9.42723C8.01944 9.41102 7.89966 9.39523 7.86734 9.33496C7.84793 9.30296 7.83982 9.22339 7.83534 9.14296C7.83214 9.09123 7.83214 9.03459 7.85155 9.01496C7.89529 8.96643 7.90329 8.82723 7.90329 8.82723L8.05859 8.5387H7.85433L7.60996 8.6908L7.57113 8.75566Z" fill="#84754B"/>
<path fill-rule="evenodd" clip-rule="evenodd" d="M7.51147 8.84465C7.51147 8.84465 7.67147 8.63271 7.81568 8.58407C7.95989 8.53543 8.02442 8.56466 8.02442 8.56466L7.94026 8.77991L7.82048 8.9126L7.82858 8.98054C7.82858 8.98054 7.80907 9.16017 7.92885 9.28475C8.04863 9.40934 8.13759 9.40454 8.18943 9.40454C8.24127 9.40454 8.39006 9.36081 8.46611 9.18118C8.53406 9.01297 8.5907 8.79719 8.45481 8.58087C8.32201 8.36562 8.08746 8.3573 8.04213 8.3573C7.99679 8.3573 7.64086 8.37511 7.51147 8.84433V8.84465Z" fill="#252211"/>
<path fill-rule="evenodd" clip-rule="evenodd" d="M11.6197 9.56473C11.5599 9.53721 11.6165 9.369 11.6763 9.31716C11.7362 9.26532 11.8122 9.20559 11.945 9.19737C11.9935 9.19417 12.0404 9.22489 12.0324 9.25732C12.0211 9.31716 11.9369 9.40132 11.8609 9.46115C11.7557 9.54371 11.6877 9.59545 11.6197 9.56473Z" fill="#F7F7E7"/>
<path fill-rule="evenodd" clip-rule="evenodd" d="M8.38337 8.6473C8.4271 8.6441 8.48375 8.6793 8.49506 8.72666C8.50636 8.7784 8.46753 8.88197 8.38337 8.88197C8.31541 8.88197 8.27979 8.79781 8.27979 8.7736C8.28055 8.75369 8.28611 8.73425 8.296 8.71695C8.2992 8.71205 8.30731 8.6554 8.38337 8.6473V8.6473Z" fill="#F8F6DE"/>
<path fill-rule="evenodd" clip-rule="evenodd" d="M7.75242 8.68445C7.75242 8.68445 7.64073 8.73618 7.589 8.84444C7.55204 8.92438 7.54085 9.01384 7.557 9.10043C7.56511 9.14085 7.60553 9.24111 7.63305 9.27674C7.66057 9.31236 7.6978 9.33668 7.72532 9.33337C7.75284 9.33007 7.80938 9.25732 7.80938 9.2137C7.80938 9.17008 7.81268 8.98555 7.86602 8.88518C7.91295 8.78492 7.75274 8.68456 7.75274 8.68456L7.75242 8.68445Z" fill="#D4C38B"/>
<path fill-rule="evenodd" clip-rule="evenodd" d="M7.76861 8.67636C7.7492 8.68766 7.71688 8.70388 7.72488 8.72489C7.73299 8.7443 7.80093 8.75689 7.82526 8.80424C7.85278 8.85277 7.85278 8.9045 7.84467 8.92882C7.86581 8.91878 7.88498 8.90506 7.90131 8.88829C7.93694 8.84787 7.98056 8.79294 8.01779 8.79294C8.04211 8.79294 8.06632 8.80424 8.08904 8.80424C8.12467 8.80424 8.16019 8.79294 8.1651 8.75571C8.1731 8.70718 8.09715 8.66345 8.05342 8.67156C8.06152 8.63956 8.07283 8.59231 8.0372 8.55989C8.00158 8.52746 7.89 8.5842 7.86568 8.60042C7.84136 8.61663 7.76861 8.67646 7.76861 8.67646V8.67636Z" fill="#E2D59D"/>
<path fill-rule="evenodd" clip-rule="evenodd" d="M10.3397 12.0761L10.5792 12.0054L10.6471 12.0539C10.6471 12.0539 10.6956 12.1575 10.7717 12.1704C10.7474 12.2221 10.6843 12.2664 10.6876 12.3031C10.6909 12.3398 10.7232 12.3678 10.7232 12.3678C10.7232 12.3678 10.5079 12.7238 10.9319 13.0825C10.8316 13.1229 10.7038 13.1785 10.6358 13.2105C10.6843 13.2218 10.7878 13.2425 10.8316 13.2817C10.8753 13.321 10.8753 13.3335 10.9157 13.3578C10.9562 13.3821 10.9804 13.4144 10.9724 13.4289C10.9449 13.4127 10.8526 13.3643 10.8365 13.4095C10.8204 13.4548 10.4368 13.4371 10.4368 13.4371L9.78955 13.5616C9.78955 13.5616 9.81376 13.4969 9.74581 13.4371C9.66656 13.3659 9.56949 13.4403 9.46592 13.361C9.33003 13.2574 9.32512 13.1376 9.28149 13.0924C9.32512 13.0649 9.41419 13.0245 9.62613 12.9964C9.61803 12.9802 9.59051 12.9317 9.60672 12.888C9.62613 12.8314 9.70699 12.7958 9.68277 12.728C9.7184 12.7199 9.73451 12.7199 9.82357 12.6083C9.90773 12.4966 9.95947 12.4724 10.0242 12.4643C10.089 12.4561 10.1278 12.4643 10.2476 12.3526C10.3316 12.2733 10.3042 12.2054 10.3042 12.2054C10.3042 12.2054 10.3591 12.1876 10.3398 12.0759L10.3397 12.0761Z" fill="#CBAC5A"/>
<path fill-rule="evenodd" clip-rule="evenodd" d="M9.6327 12.1121C9.6359 12.0959 9.64891 12.0878 9.73627 12.0959C9.82363 12.104 10.377 12.0441 10.5275 12.036C10.6796 12.0247 11.2152 12.0327 11.4758 12.0878C11.7364 12.1428 12.0001 12.2075 12.1279 12.2399C12.2559 12.2755 12.2962 12.2883 12.2913 12.3045C12.2881 12.3207 12.2593 12.3365 12.2428 12.332C12.2266 12.3288 11.8026 12.1993 11.6717 12.172C11.5407 12.1447 11.0874 12.0717 10.8396 12.076C10.6083 12.0793 10.516 12.0728 10.3203 12.0954C10.1244 12.1198 9.80081 12.1521 9.70374 12.1392C9.60774 12.1279 9.62758 12.1279 9.63249 12.1117L9.6327 12.1121Z" fill="#D6BC6F"/>
<path fill-rule="evenodd" clip-rule="evenodd" d="M10.9352 13.3803C10.9352 13.3803 11.2669 13.5599 11.3867 13.78C11.4741 13.9434 11.335 14.0244 11.335 14.0244C11.335 14.0244 11.5227 14.0244 11.4984 14.1279C11.4871 14.1926 11.1748 14.3673 10.966 14.4596C10.7541 14.5518 10.7622 14.547 10.6586 14.5631C10.5582 14.5793 10.2832 14.5311 10.2265 14.6117C10.1699 14.6922 10.1945 14.7752 10.2103 14.7881C10.2265 14.7994 10.3576 14.8156 10.3576 14.8156C10.3576 14.8156 10.3301 14.8917 10.0583 14.8998C9.78652 14.9079 9.71846 14.9272 9.70225 14.9564C9.68604 14.9838 9.75398 14.9677 9.87868 14.9884C10.0033 15.0078 10.178 15.0204 10.178 15.0204C10.178 15.0204 10.1213 15.0689 9.97414 15.1078C9.80582 15.1514 9.54204 15.1919 9.46279 15.2404C9.50321 15.268 9.56316 15.3084 9.59078 15.3116C9.52284 15.3278 9.42727 15.3634 9.41116 15.3763C9.43537 15.3925 9.4678 15.412 9.4678 15.412C9.4678 15.412 9.3318 15.5754 9.25255 15.6159C9.17329 15.6564 8.71698 15.8683 8.55996 15.8278C8.16839 15.7243 8.11986 15.2955 8.02439 15.2632C7.8804 15.2146 7.81245 15.3116 7.68456 15.2436C7.7412 15.2032 7.77202 15.179 7.83186 15.1515C7.76712 15.1195 7.43218 14.9071 7.43218 14.9071C7.39716 14.8308 7.35828 14.7563 7.31571 14.6839C7.25096 14.5722 7.15571 14.4233 7.08424 14.2922C6.92893 14.0042 6.92083 13.8715 6.78003 13.7081C6.80435 13.6761 6.8884 13.6806 6.8884 13.6806L8.06813 14.0689L10.16 14.1295L10.704 13.3529L10.9353 13.3804L10.9352 13.3803Z" fill="#DFC677"/>
<path fill-rule="evenodd" clip-rule="evenodd" d="M7.83667 14.5647C7.84929 14.5787 7.86401 14.5907 7.8803 14.6003C7.92083 14.6278 7.98067 14.6602 8.0211 14.7087C8.03731 14.6845 8.07774 14.6407 8.1491 14.7087C8.22046 14.7766 8.3091 14.7282 8.36424 14.7443C8.42088 14.7638 8.42408 14.7718 8.42408 14.7718C8.42408 14.7718 8.45608 14.7443 8.52766 14.7152C8.57139 14.699 8.62312 14.6877 8.67976 14.6715C8.7315 14.6602 8.78814 14.644 8.82707 14.644C8.8627 14.6682 8.99048 14.804 9.50344 14.6036C9.98728 14.4159 10.0989 14.3949 10.1798 14.4239C10.1879 14.4045 10.196 14.3672 10.3206 14.3721C10.3206 14.3204 10.217 14.144 10.217 14.144L9.64584 13.9482H9.33342L8.39656 14.1198L7.87742 14.416L7.83699 14.5653L7.83667 14.5647Z" fill="#C4A859"/>
<path fill-rule="evenodd" clip-rule="evenodd" d="M7.52417 14.2362C7.52417 14.2362 7.53548 14.3236 7.66497 14.4159C7.79297 14.508 7.83318 14.5631 7.83318 14.5631C7.83318 14.5631 7.8575 14.5311 7.87692 14.4984C7.89633 14.4628 7.91254 14.4224 7.94486 14.4111C8.00961 14.3836 8.15681 14.4353 8.18924 14.4272C8.21676 14.4192 8.20865 14.3625 8.23777 14.3625C8.30572 14.3592 8.34934 14.4062 8.37366 14.4062C8.39798 14.4062 8.45772 14.403 8.46582 14.3901C8.47393 14.3772 8.47713 14.2428 8.5694 14.178C8.66977 14.1069 8.79276 14.1376 8.8254 14.1538C8.8254 14.178 8.8286 14.238 8.89334 14.2412C8.95809 14.2444 8.96449 14.233 9.02134 14.2525C9.0782 14.2719 9.14593 14.2493 9.17665 14.3446C9.20417 14.3366 9.26892 14.3285 9.2527 14.2362C9.2847 14.212 9.31265 14.1958 9.3807 14.1004C9.39692 14.0761 9.42433 14.0486 9.44545 14.013C9.50209 14.013 9.57004 14.0017 9.6606 14.0809C9.63308 14.1004 9.61686 14.1129 9.60886 14.1327C9.63255 14.1561 9.65417 14.1816 9.6735 14.2087C9.69782 14.2407 9.71404 14.28 9.74476 14.2881C9.8127 14.3075 9.92438 14.28 10.049 14.2881C10.1688 14.2962 10.269 14.3398 10.3128 14.3673C10.329 14.3593 10.329 14.356 10.3694 14.3641C10.4098 14.3722 10.4405 14.3754 10.3969 14.3237C10.4211 14.335 10.4486 14.3593 10.473 14.335C10.4973 14.3107 10.5166 14.2752 10.5845 14.2671C10.6525 14.259 10.6768 14.2703 10.7043 14.1991C10.74 14.1118 10.617 14.1118 10.617 14.1118C10.617 14.1118 10.6736 14.0599 10.7368 13.992C10.8128 13.9208 10.9002 13.8286 10.9212 13.7153C10.9568 13.5065 10.753 13.4791 10.753 13.4791L9.76428 13.7833L8.55553 13.7234L7.52481 14.2364L7.52417 14.2362Z" fill="#927D49"/>
<path fill-rule="evenodd" clip-rule="evenodd" d="M6.63605 11.3803C6.63605 11.3803 6.60405 11.4207 6.58432 11.5162C6.56458 11.6117 6.57301 11.6003 6.5568 11.6683C6.54058 11.7362 6.34144 12.4126 6.4161 12.6408C6.49077 12.869 6.62005 12.9531 6.7009 13.1376C6.71712 13.178 6.7329 13.2023 6.74133 13.2379C6.76885 13.3576 6.74464 13.4499 6.77696 13.5697C6.78826 13.6101 6.81749 13.657 6.86112 13.7056C6.95712 13.8058 7.1136 13.9013 7.18112 13.9693C7.27648 14.0696 7.41248 14.2736 7.5856 14.2929C7.67786 14.3042 7.80896 14.2654 7.91733 14.2007C8.01333 14.1408 8.07264 14.0567 8.17333 14.0087C8.24448 13.9731 8.32053 13.9602 8.38847 13.944C8.52927 13.9165 8.65717 13.912 8.73322 13.9278C8.8497 13.9521 9.12479 14.0363 9.27722 14.0363C9.39633 14.0343 9.51477 14.018 9.62997 13.9877C9.86133 13.9198 10.1412 13.8032 10.3258 13.7514C10.4341 13.7194 10.5215 13.711 10.6106 13.6916C10.7627 13.656 10.8904 13.6074 10.9633 13.5152C10.9148 13.4585 10.8549 13.3712 10.5312 13.3744C10.1639 13.3825 9.73994 13.5863 9.53119 13.6187C9.32245 13.6512 9.23189 13.6786 8.99882 13.5944C8.77034 13.5094 8.76277 13.4532 8.76277 13.4532C8.76277 13.4532 8.52287 13.2854 8.4225 12.8577C8.32213 12.4299 8.4225 12.1182 8.68309 11.822C8.75104 11.7459 8.73482 11.678 8.73482 11.678C8.73482 11.678 8.90634 11.4466 8.85941 11.23C8.80768 11.0147 8.47594 11.0585 8.47594 11.0585L6.63616 11.3803H6.63605Z" fill="#6E6342"/>
<path fill-rule="evenodd" clip-rule="evenodd" d="M6.9127 12.1003C6.89844 12.1272 6.89173 12.1574 6.89329 12.1877C6.89649 12.2313 6.9095 12.288 7.04049 12.4158C7.15217 12.5274 7.12785 12.652 7.12785 12.652C7.12785 12.652 7.18406 12.6633 7.33659 12.5919C7.45638 12.5353 7.49659 12.6357 7.49659 12.6357C7.53146 12.6174 7.56926 12.6053 7.60827 12.6001C7.64362 12.5968 7.67784 12.5859 7.70854 12.5681C7.70854 12.5681 7.84934 12.7121 7.97232 12.78C8.084 12.8399 8.14875 12.8804 8.20379 12.8399C8.25552 12.8043 8.25552 12.7315 8.25221 12.6991C8.23938 12.6693 8.22313 12.6411 8.20379 12.615C8.16816 12.5633 8.11152 12.5033 8.10779 12.455C8.09968 12.3434 8.19195 12.2106 8.17243 12.1783C8.15291 12.146 8.08027 12.1379 7.90064 12.2026C7.71462 12.2641 6.91195 12.1007 6.91195 12.1007L6.9127 12.1003Z" fill="#39331F"/>
<path fill-rule="evenodd" clip-rule="evenodd" d="M7.33646 12.8238C7.33646 12.8238 7.24434 12.7364 7.27665 12.3124C7.31575 12.3119 7.35481 12.3157 7.39308 12.3237C7.39308 12.3237 7.44329 12.6523 7.33646 12.8238Z" fill="#292311"/>
<path fill-rule="evenodd" clip-rule="evenodd" d="M6.67956 11.0566C6.69242 11.0471 6.70435 11.0364 6.71519 11.0246C6.68319 11.0845 6.53546 11.3239 6.65524 11.701C6.77503 12.0763 7.07594 12.3562 7.4465 12.3692C7.81706 12.3822 8.01183 12.2009 8.23455 11.9291C8.32191 11.8208 8.42228 11.6848 8.51124 11.5926C8.64394 11.4485 8.74751 11.4081 8.74751 11.269C8.74751 10.9842 8.4562 10.8563 8.0274 10.7285C7.5986 10.6007 7.21183 10.6165 7.01119 10.704C6.81546 10.7993 6.7313 10.8997 6.67946 11.0567L6.67956 11.0566Z" fill="#252211"/>
<path fill-rule="evenodd" clip-rule="evenodd" d="M8.05672 12.9514L8.08871 12.9352C8.08871 12.9352 8.09671 12.8072 8.14854 12.8106C8.20027 12.8187 8.22458 12.8868 8.21968 12.911C8.21648 12.9352 8.20357 12.9757 8.15174 12.9708C8.08381 12.9724 8.0564 12.9514 8.0564 12.9514H8.05672Z" fill="#3F3824"/>
<path fill-rule="evenodd" clip-rule="evenodd" d="M7.9126 12.4078C7.9126 12.4078 7.9446 12.3965 7.98374 12.4353C8.01574 12.4353 8.15526 12.4191 8.199 12.4466C8.24273 12.4741 8.25564 12.4983 8.25564 12.4983C8.25564 12.4983 8.09222 12.5339 8.00316 12.4983C7.9126 12.4676 7.9126 12.4078 7.9126 12.4078V12.4078Z" fill="#2D2815"/>
<path fill-rule="evenodd" clip-rule="evenodd" d="M8.63275 12.4319C8.63275 12.4238 8.54538 12.364 8.45311 12.3445C8.4369 12.3413 8.43359 12.3526 8.42111 12.3526C8.413 12.3494 8.4098 12.3251 8.4098 12.3251L8.35732 12.3527C8.35732 12.3527 8.34921 12.364 8.37673 12.3847C8.40095 12.4041 8.44148 12.4203 8.45279 12.4526C8.4641 12.4849 8.4641 12.4962 8.469 12.5011C8.4722 12.5043 8.52885 12.5011 8.55637 12.4849C8.58389 12.4687 8.63574 12.4423 8.63243 12.4316L8.63275 12.4319Z" fill="#82764F"/>
<path fill-rule="evenodd" clip-rule="evenodd" d="M7.81567 12.7606C7.81567 12.7606 7.83178 12.649 7.94026 12.6441C8.05183 12.636 8.07295 12.7444 8.07295 12.7444L8.00821 12.8091C8.00821 12.8075 7.95967 12.7396 7.81621 12.7606H7.81567Z" fill="#2D2816"/>
<path fill-rule="evenodd" clip-rule="evenodd" d="M8.51953 12.2799C8.51953 12.2799 8.45959 12.3447 8.32701 12.3641C8.3157 12.3479 8.29138 12.3155 8.32701 12.2638C8.36263 12.212 8.40306 12.1958 8.44348 12.2119C8.46132 12.2148 8.47796 12.2227 8.49143 12.2348C8.50491 12.2468 8.51466 12.2625 8.51953 12.2799V12.2799Z" fill="#574F35"/>
<path fill-rule="evenodd" clip-rule="evenodd" d="M8.76374 12.3592C8.76705 12.343 8.75574 12.3398 8.76374 12.3317C8.77174 12.3235 8.81558 12.3074 8.82369 12.3154C8.82689 12.3187 8.82369 12.3317 8.82369 12.3474C8.82369 12.3632 8.82369 12.3794 8.81558 12.3911C8.80427 12.4073 8.77195 12.4154 8.75574 12.4106C8.73953 12.4058 8.73633 12.3831 8.73633 12.3786C8.74433 12.3754 8.76374 12.3673 8.76374 12.3592ZM9.04001 12.1845C9.04001 12.1764 9.06753 12.1602 9.08374 12.1602C9.10795 12.1602 9.10795 12.1796 9.11126 12.1845C9.11926 12.1877 9.11926 12.1812 9.12737 12.1958C9.13547 12.2104 9.14689 12.2362 9.13867 12.2524C9.13046 12.2686 9.09825 12.2798 9.09025 12.2766C9.07894 12.2685 9.04331 12.1958 9.04001 12.1845V12.1845Z" fill="#82764F"/>
<path fill-rule="evenodd" clip-rule="evenodd" d="M8.48389 12.3965C8.48389 12.3965 8.51951 12.4045 8.56805 12.445C8.55183 12.4563 8.52751 12.4692 8.52751 12.4692C8.52751 12.4692 8.52431 12.432 8.48389 12.3964V12.3965Z" fill="#6E6342"/>
<path fill-rule="evenodd" clip-rule="evenodd" d="M8.4046 12.0405C8.39649 12.0325 8.42881 12.0131 8.44823 12.0163C8.46764 12.0195 8.47575 12.0325 8.49676 12.0357C8.51778 12.0389 8.52108 12.0276 8.52876 12.0195C8.53644 12.0114 8.56439 12.0163 8.56919 12.0195C8.57218 12.0231 8.57489 12.0269 8.5773 12.0308C8.57764 12.0247 8.57924 12.0187 8.58202 12.0131C8.58479 12.0076 8.58867 12.0028 8.59341 11.9988C8.59961 11.9943 8.60677 11.9912 8.61435 11.9898C8.62192 11.9884 8.62971 11.9887 8.63714 11.9907C8.64034 12.002 8.65656 12.0425 8.65336 12.0506C8.65016 12.0587 8.60162 12.0701 8.59341 12.0619C8.60151 12.0814 8.63714 12.1218 8.64194 12.1298C8.64674 12.1378 8.60631 12.1573 8.59021 12.1541C8.56759 12.1525 8.42839 12.0716 8.40417 12.0409L8.4046 12.0405ZM8.61655 11.7719C8.61356 11.7638 8.60783 11.7569 8.60034 11.7525C8.58903 11.7493 8.55181 11.7525 8.55181 11.7719C8.55181 11.7913 8.58381 11.8999 8.61975 11.9565C8.66029 12.0131 8.6877 12.0599 8.71523 12.073C8.72387 12.0769 8.73368 12.0774 8.74268 12.0744C8.75169 12.0714 8.75922 12.0651 8.76376 12.0567C8.76696 12.0486 8.77507 11.9888 8.77187 11.848C8.76867 11.7072 8.76376 11.5713 8.75565 11.5632C8.74755 11.555 8.71523 11.5552 8.70392 11.5713C8.69261 11.5874 8.61975 11.7477 8.61645 11.7719H8.61655Z" fill="#585136"/>
<path fill-rule="evenodd" clip-rule="evenodd" d="M8.47254 12.6004C8.47254 12.6004 8.41589 12.5647 8.36084 12.5891C8.30909 12.6134 8.31229 12.7088 8.31229 12.7088C8.32394 12.7133 8.33651 12.715 8.34893 12.7136C8.36136 12.7122 8.37324 12.7077 8.38356 12.7007C8.4192 12.6765 8.46443 12.6361 8.47254 12.6005V12.6004Z" fill="#574F35"/>
<path fill-rule="evenodd" clip-rule="evenodd" d="M8.57936 12.7282C8.57616 12.6962 8.54736 12.6962 8.54736 12.6797C8.54935 12.6718 8.55393 12.6648 8.56037 12.6598C8.56681 12.6548 8.57474 12.6521 8.58288 12.6522C8.5991 12.6522 8.61488 12.6716 8.63472 12.6842C8.65414 12.6955 8.68326 12.7162 8.68646 12.7408C8.68966 12.7655 8.65446 12.833 8.61531 12.833C8.57616 12.833 8.58779 12.7601 8.57968 12.7278L8.57936 12.7282ZM8.89168 12.6845C8.89168 12.6845 8.82694 12.7039 8.83174 12.6845C8.83654 12.6651 8.85126 12.6603 8.87227 12.6603C8.88295 12.6491 8.89731 12.6422 8.9127 12.6408C8.9215 12.6403 8.93014 12.6432 8.93691 12.6489C8.93691 12.6489 8.98064 12.6294 8.99355 12.6408C9.00646 12.6521 8.99686 12.6521 9.00486 12.6651C9.01504 12.6795 9.02173 12.6961 9.02438 12.7136C9.02438 12.7265 8.97584 12.754 8.93691 12.7492C8.89168 12.7395 8.89968 12.6926 8.89168 12.6845V12.6845ZM9.26864 12.6116C9.26864 12.6116 9.28806 12.6229 9.27195 12.636C9.26064 12.6473 9.204 12.668 9.15536 12.6716C9.10683 12.6716 9.0632 12.6796 9.0632 12.6635C9.0632 12.6474 9.10363 12.6149 9.12784 12.6068C9.1327 12.6008 9.13887 12.5958 9.14589 12.5925C9.15291 12.5891 9.16059 12.5874 9.16838 12.5874C9.18779 12.5874 9.26374 12.5793 9.28486 12.5761C9.30427 12.5728 9.32048 12.5841 9.30907 12.6003C9.30427 12.6116 9.26864 12.6116 9.26864 12.6116V12.6116ZM9.38032 12.112C9.38032 12.112 9.356 12.1637 9.32859 12.1637C9.30107 12.1605 9.30107 12.1524 9.30107 12.1443C9.30107 12.133 9.32859 12.1039 9.32528 12.0958C9.31728 12.0958 9.29776 12.0958 9.30107 12.0764C9.30107 12.0601 9.32859 12.0407 9.3528 12.0444C9.3711 12.0293 9.39388 12.0208 9.41755 12.0201C9.44507 12.0201 9.46928 12.0281 9.46928 12.0444C9.46928 12.0606 9.43728 12.0961 9.42555 12.1043C9.41264 12.1172 9.39643 12.1256 9.38032 12.1123V12.112ZM9.01136 13.0683C9.01136 13.0683 8.97936 13.0716 8.97936 13.0877C8.97936 13.0958 8.98736 13.0958 8.99878 13.091C9.00535 13.0906 9.01186 13.0895 9.01819 13.0877C9.02139 13.091 9.02139 13.1071 9.04571 13.1071C9.06568 13.1044 9.08493 13.0978 9.10235 13.0877C9.12176 13.0797 9.13798 13.0715 9.13798 13.0557C9.12987 13.0282 9.11366 13.0152 9.08944 13.0152C9.07703 13.0144 9.06466 13.0172 9.05382 13.0233C9.05382 13.0233 9.04571 13.0071 9.01819 13.0233C8.99067 13.0395 8.99387 13.0395 9.00198 13.0476C9.01648 13.0605 9.01168 13.0689 9.01168 13.0689L9.01136 13.0683ZM8.82854 13.2366C8.82854 13.2285 8.86896 13.2123 8.88027 13.2172C8.89158 13.2204 8.9239 13.2819 8.9239 13.2884C8.9239 13.2965 8.88347 13.3159 8.86726 13.3159C8.85104 13.3159 8.82363 13.2884 8.82363 13.2839C8.82363 13.2807 8.84304 13.2759 8.84304 13.2726C8.84784 13.2646 8.82854 13.2451 8.82854 13.2369V13.2366ZM8.70054 13.0003C8.70864 12.9971 8.70864 12.989 8.71995 12.9809C8.72349 12.9786 8.72752 12.9771 8.73174 12.9765C8.73595 12.976 8.74024 12.9764 8.74427 12.9777C8.74712 12.9726 8.75107 12.9683 8.75583 12.9649C8.76059 12.9615 8.76604 12.9592 8.77179 12.9582C8.7912 12.955 8.80742 12.9582 8.80379 12.9663C8.80379 12.9906 8.82 13.0067 8.82 13.0262C8.82 13.0456 8.8087 13.0699 8.76827 13.0861C8.72784 13.0974 8.6728 13.0974 8.6647 13.0942C8.65659 13.091 8.64848 13.0586 8.65659 13.0424C8.6647 13.0262 8.68731 13.0085 8.70032 13.0003H8.70054Z" fill="#82764F"/>
<path fill-rule="evenodd" clip-rule="evenodd" d="M8.75199 13.0114C8.75199 13.0114 8.72445 13.0276 8.72445 13.0357C8.72201 13.0435 8.72092 13.0517 8.72125 13.0599C8.72125 13.0647 8.7569 13.0567 8.7617 13.0518C8.7633 13.0486 8.75199 13.0198 8.75199 13.0114Z" fill="#6E6342"/>
<path fill-rule="evenodd" clip-rule="evenodd" d="M8.51136 12.9352C8.52746 12.9385 8.55498 12.9352 8.57599 12.9433C8.5922 12.9514 8.60351 12.9676 8.5873 12.987C8.57109 13.0064 8.5553 13.0355 8.51936 13.0306C8.47893 13.0274 8.44011 13.0064 8.44011 12.9902C8.43943 12.98 8.4408 12.9697 8.44413 12.96C8.44746 12.9503 8.4527 12.9413 8.45952 12.9336C8.47573 12.9207 8.48373 12.9288 8.51125 12.9352H8.51136Z" fill="#585136"/>
<path fill-rule="evenodd" clip-rule="evenodd" d="M8.4918 12.9514C8.4918 12.9514 8.44007 12.9918 8.42706 13.0114C8.41085 13.0308 8.33161 13.131 8.3074 13.1521C8.31544 13.1379 8.3246 13.1243 8.33481 13.1116C8.30281 13.1321 8.27882 13.1629 8.26687 13.199C8.24746 13.2589 8.37533 13.2913 8.45937 13.3156C8.54342 13.3399 8.57594 13.3476 8.57594 13.3476C8.545 13.3011 8.51844 13.2518 8.4966 13.2004C8.4646 13.1243 8.44807 13.1162 8.46908 13.0806C8.48529 13.045 8.50961 13.0207 8.50961 12.9932C8.4999 12.9676 8.4918 12.9514 8.4918 12.9514Z" fill="#574F35"/>
<path fill-rule="evenodd" clip-rule="evenodd" d="M6.64719 13.0794C6.65896 13.0816 6.67104 13.0816 6.68281 13.0794C6.70703 13.0761 6.95951 12.9834 7.22329 13C7.42077 13.012 7.61649 13.0441 7.8074 13.0961C8.13913 13.1834 8.55172 13.3565 8.81871 13.4553C8.88985 13.4827 8.95951 13.5314 9.01071 13.5507C9.21465 13.6301 9.22265 13.6301 9.34244 13.6511C9.48324 13.6705 9.62724 13.6236 9.77775 13.5912C9.96217 13.5507 10.2777 13.5313 10.5544 13.4908C10.6439 13.4784 10.7321 13.4584 10.8182 13.431C10.8182 13.431 10.5981 13.6511 10.0705 13.7303C9.8573 13.7627 9.6406 13.7654 9.4266 13.7384C9.25828 13.7222 9.14671 13.6979 9.06255 13.6737C8.96708 13.6462 8.77124 13.5733 8.53017 13.5137C8.36185 13.4699 8.17412 13.4376 7.95897 13.3972C7.4282 13.3 6.8522 13.1884 6.64697 13.08L6.64719 13.0794Z" fill="#252211"/>
<path fill-rule="evenodd" clip-rule="evenodd" d="M6.0517 12.0793C5.9237 12.1877 5.78791 12.2913 5.65533 12.3916L5.25565 12.6987C5.11975 12.7989 4.98706 12.9025 4.85106 13.0029C4.71506 13.1032 4.57927 13.1986 4.43506 13.2909C4.56306 13.1825 4.69885 13.0821 4.83474 12.9835C4.97063 12.8848 5.11154 12.788 5.24263 12.688L5.64231 12.3805C5.77981 12.2802 5.9125 12.1766 6.0517 12.0796V12.0793ZM5.34461 13.212C5.34461 13.212 5.48861 13.0923 5.66823 12.924C5.89149 12.7154 6.16498 12.4483 6.25234 12.3999L5.3445 13.2121L5.34461 13.212Z" fill="#CFB66C"/>
<path fill-rule="evenodd" clip-rule="evenodd" d="M5.34473 13.2119C5.41598 13.1408 5.49203 13.0712 5.56809 13.0032L5.68457 12.9029C5.72019 12.8709 5.76073 12.835 5.79625 12.7993C5.86739 12.7282 5.93705 12.652 6.00819 12.5793C6.04346 12.5427 6.08074 12.5081 6.11987 12.4757C6.13944 12.4584 6.16117 12.4437 6.18451 12.432C6.20403 12.4207 6.22505 12.4 6.25246 12.3964C6.23635 12.4207 6.21694 12.432 6.20073 12.453C6.18131 12.4692 6.1651 12.4886 6.14899 12.5047C6.11337 12.5404 6.07294 12.5727 6.03731 12.6051C5.96126 12.6699 5.88201 12.7331 5.80595 12.8008C5.7299 12.8686 5.65875 12.9416 5.58259 13.0096C5.50014 13.0792 5.42409 13.1472 5.34473 13.2123V13.2119ZM6.31241 12.5647C6.31241 12.5647 5.78494 13.0809 5.67646 13.165L6.31241 12.5647Z" fill="#CFB66C"/>
<path fill-rule="evenodd" clip-rule="evenodd" d="M6.31222 12.5647C6.26477 12.6196 6.21389 12.6715 6.1599 12.72L5.9999 12.8721C5.94816 12.9238 5.89952 12.9757 5.84459 13.0274C5.78795 13.0759 5.73622 13.1234 5.67627 13.1682L5.83158 13.0161C5.88342 12.9644 5.94006 12.9208 5.9951 12.8689L6.1504 12.7168C6.20374 12.6635 6.25558 12.6116 6.31222 12.5647V12.5647ZM6.33643 12.8446C6.28781 12.9803 6.23052 13.1127 6.16491 13.2411C6.02902 13.513 5.82518 13.8527 5.73611 14.0259L6.33643 12.8446Z" fill="#CFB66C"/>
<path fill-rule="evenodd" clip-rule="evenodd" d="M6.33651 12.8447C6.33651 12.9046 6.3203 12.9564 6.30089 13.0081C6.28196 13.0599 6.26039 13.1107 6.23625 13.1602C6.21193 13.2088 6.18441 13.2606 6.15689 13.3076C6.12937 13.3545 6.09705 13.4029 6.07273 13.4516L5.90931 13.7396C5.85267 13.8356 5.79763 13.9321 5.73779 14.0244C5.77822 13.9208 5.83326 13.8237 5.8851 13.7282C5.94174 13.6322 5.99347 13.5362 6.0451 13.4369C6.07031 13.3875 6.09298 13.3367 6.11305 13.2849C6.13726 13.2331 6.16147 13.1846 6.18099 13.1376C6.20521 13.0859 6.22462 13.0373 6.24894 12.9904C6.27635 12.9402 6.29907 12.8917 6.3363 12.8447H6.33651Z" fill="#CFB66C"/>
<path fill-rule="evenodd" clip-rule="evenodd" d="M6.9127 14.1715C6.9127 14.1715 6.7527 14.3835 6.7687 14.652C6.81233 14.5113 6.86737 14.2961 6.9127 14.1715ZM7.06481 14.384C7.06481 14.384 7.00817 14.96 6.96124 15.2432C7.02758 14.9158 7.04049 14.9433 7.06481 14.384ZM8.12466 15.2772C8.12466 15.2772 7.88519 15.9812 7.88028 16.1768C7.93212 15.9757 8.03239 15.5647 8.12466 15.2767V15.2772Z" fill="#DEC270"/>
<path fill-rule="evenodd" clip-rule="evenodd" d="M8.68457 14.1281C8.68457 14.1281 9.07294 14.7688 9.36425 15.3157C9.28542 15.0405 9.10409 14.5357 8.68457 14.1281Z" fill="#CBAF59"/>
<path fill-rule="evenodd" clip-rule="evenodd" d="M9.72827 15.0713C9.94151 15.4482 10.1338 15.8366 10.3043 16.2347C10.272 15.9596 10.1845 15.4888 9.72827 15.0713Z" fill="#E3C677"/>
<path fill-rule="evenodd" clip-rule="evenodd" d="M12.7963 16.0159C12.8609 15.9755 12.9888 15.7553 13.1005 15.7004C13.2121 15.6438 13.2962 15.6325 13.3966 15.5208C13.4969 15.4042 13.5246 15.3331 13.7445 15.2409C14.052 15.1081 13.8405 14.9366 13.8405 14.9366C13.8743 14.9033 13.9105 14.8725 13.9488 14.8444C14.0282 14.7846 14.1204 14.7117 14.1124 14.5838C14.101 14.3687 14.0606 14.0564 13.8842 13.8751C14.0557 13.8395 14.3841 13.8153 14.5882 13.7636C14.8244 13.7036 14.9328 13.6195 14.9328 13.6195C14.9328 13.6195 14.7969 13.3881 15.017 13.1551C15.2371 12.9222 15.4167 12.783 15.5494 12.5224C15.3973 12.503 15.1654 12.4221 14.5736 12.647C14.6055 12.662 14.6364 12.6793 14.6659 12.6987C14.6659 12.6987 14.3018 12.7991 14.1691 12.9108C13.9376 13.1065 13.9085 13.2667 13.6577 13.3865C13.407 13.5063 13.1545 13.4739 12.9458 13.5709C12.7372 13.668 12.7064 13.7505 12.6302 13.7862C12.6464 13.8056 12.627 13.8379 12.6577 13.8654C12.6383 13.8929 12.525 14.0774 12.4102 14.0774C12.4215 14.1211 12.5185 14.1534 12.5185 14.1534C12.5185 14.1534 12.4474 14.2053 12.2662 14.2182C12.3583 14.3142 12.4458 14.4188 12.6869 14.5709C12.6674 14.6113 12.5865 14.6713 12.6189 14.7473C12.6545 14.8234 12.7469 14.927 13.1157 15.0111C12.9279 15.0191 12.708 15.0629 12.4116 15.0224C12.1155 14.9868 12.067 14.9658 11.8842 15.0111C11.9036 15.0305 11.9553 15.0305 12.0007 15.0823C11.9521 15.0855 11.6479 15.0467 11.5443 15.1827C11.436 15.3233 11.389 15.5548 11.3971 15.7101C11.3405 15.7376 11.2855 15.7862 11.313 15.8865C11.3405 15.9869 11.4845 16.0192 11.5768 16.0823C11.6689 16.1502 11.677 16.1744 11.7645 16.1583C11.8567 16.1389 11.9926 16.0468 12.0719 16.0468C12.1513 16.0468 12.2078 16.1066 12.2078 16.1066C12.2078 16.1066 12.4231 16.003 12.4441 16.0224C12.4635 16.0419 12.4473 16.1664 12.4683 16.1859C12.4896 16.2005 12.7321 16.0565 12.7968 16.0159H12.7963Z" fill="#ECD592"/>
<path fill-rule="evenodd" clip-rule="evenodd" d="M17.5001 9.54054C16.4888 6.92891 13.9888 6.44507 13.9888 6.44507H6.85606L6.88358 9.10524H8.30406V15.0454H6.85596V17.7008H13.7913C15.4628 17.7008 16.8026 16.0211 16.8026 16.0211C18.9482 12.9759 17.5 9.54054 17.5 9.54054H17.5001ZM13.8285 14.2314C13.8285 14.2314 13.2845 15.0163 12.6927 15.0163H11.5087L11.4806 9.11174H13.0001C13.0001 9.11174 13.7041 9.25894 14.1959 10.6521C14.1959 10.6521 14.848 12.6468 13.8285 14.2314V14.2314Z" fill="white" fill-opacity="0.8"/>
</svg>
