<svg width="24" height="24" viewBox="0 0 24 24" fill="none" xmlns="http://www.w3.org/2000/svg">
<circle cx="12" cy="12" r="10" fill="#E6007A"/>
<path d="M12.2979 5C10.8944 5.00527 9.54992 5.56645 8.55751 6.56121C7.56511 7.55597 7.00525 8.90365 7 10.3104C6.99993 10.897 7.0942 11.4797 7.27919 12.0362C7.3456 12.2183 7.47899 12.3681 7.65202 12.4548C7.82504 12.5415 8.0246 12.5586 8.2098 12.5026C8.38955 12.4341 8.53643 12.2994 8.62044 12.1261C8.70445 11.9527 8.71925 11.7537 8.66182 11.5698C8.50446 11.137 8.43441 10.6773 8.45575 10.2172C8.47773 9.47444 8.71471 8.75415 9.13781 8.14402C9.56092 7.53389 10.1519 7.06026 10.8388 6.78081C11.5256 6.50135 12.2787 6.42814 13.0064 6.57008C13.734 6.71202 14.4048 7.06299 14.937 7.58025C15.4692 8.09751 15.8398 8.75873 16.0038 9.48337C16.1677 10.208 16.1179 10.9648 15.8604 11.6616C15.6029 12.3584 15.1488 12.9651 14.5535 13.4078C13.9581 13.8505 13.2472 14.1101 12.5073 14.155C12.5073 14.155 11.7661 14.2017 11.3938 14.2483C11.2573 14.2676 11.122 14.2943 10.9884 14.3283C10.9788 14.3355 10.9669 14.339 10.9549 14.3381C10.9429 14.3373 10.9317 14.3321 10.9232 14.3236C10.9147 14.3151 10.9096 14.3038 10.9087 14.2918C10.9079 14.2798 10.9114 14.2679 10.9186 14.2583L11.0349 13.6286L11.7329 10.4604C11.773 10.2717 11.7367 10.0748 11.6319 9.91301C11.5272 9.7512 11.3627 9.6377 11.1745 9.5975C10.9863 9.5573 10.7899 9.59368 10.6284 9.69864C10.467 9.8036 10.3538 9.96855 10.3137 10.1572C10.3137 10.1572 8.65184 17.893 8.65184 17.9629C8.62896 18.0563 8.62532 18.1533 8.64115 18.2481C8.65699 18.3429 8.69195 18.4335 8.74391 18.5142C8.79587 18.595 8.86374 18.6643 8.94334 18.7179C9.02295 18.7715 9.11263 18.8082 9.20689 18.8258C9.30022 18.8482 9.39712 18.8514 9.4917 18.8351C9.58628 18.8188 9.67657 18.7834 9.75708 18.7311C9.8376 18.6787 9.90665 18.6105 9.96005 18.5306C10.0134 18.4506 10.0501 18.3607 10.0677 18.2661C10.091 18.1728 10.3004 17.1467 10.3004 17.1467C10.3775 16.769 10.5683 16.4241 10.847 16.1584C11.1257 15.8928 11.4789 15.7191 11.8591 15.6609C12.0187 15.6375 12.6934 15.5909 12.6934 15.5909C14.0417 15.466 15.291 14.828 16.1844 13.8082C17.0779 12.7883 17.5476 11.4641 17.4969 10.1078C17.4463 8.75148 16.8792 7.46617 15.9121 6.51613C14.9451 5.56608 13.6517 5.02352 12.2979 5Z" fill="white"/>
<path d="M13.6216 17.2292C13.507 17.2059 13.3889 17.2055 13.2742 17.2281C13.1594 17.2507 13.0502 17.2958 12.9529 17.3608C12.8556 17.4259 12.7721 17.5095 12.7072 17.607C12.6422 17.7045 12.5971 17.8139 12.5745 17.9289C12.5499 18.0439 12.5485 18.1627 12.5704 18.2782C12.5924 18.3937 12.6372 18.5037 12.7023 18.6015C12.7674 18.6994 12.8514 18.7832 12.9494 18.8479C13.0473 18.9127 13.1572 18.9571 13.2726 18.9785C13.3872 19.0047 13.5059 19.0071 13.6215 18.9857C13.7371 18.9642 13.8471 18.9194 13.9448 18.8539C14.0425 18.7884 14.1258 18.7036 14.1897 18.6047C14.2536 18.5059 14.2967 18.3949 14.3164 18.2788C14.3556 18.0481 14.3055 17.811 14.1764 17.616C14.0473 17.421 13.8489 17.2827 13.6216 17.2292V17.2292Z" fill="white"/>
</svg>
