<svg width="24" height="24" viewBox="0 0 24 24" fill="none" xmlns="http://www.w3.org/2000/svg">
<mask id="mask0_8_2926" style="mask-type:alpha" maskUnits="userSpaceOnUse" x="2" y="2" width="20" height="20">
<path fill-rule="evenodd" clip-rule="evenodd" d="M2 2H22V22H2V2Z" fill="white"/>
</mask>
<g mask="url(#mask0_8_2926)">
<path fill-rule="evenodd" clip-rule="evenodd" d="M12 22C6.5 22 2 17.5 2 11.95C2.05 6.45005 6.5 1.95005 12.05 2.00005C17.55 2.05005 22 6.50005 22 12.1C21.95 17.55 17.5 22 12 22Z" fill="#0090FF"/>
<path fill-rule="evenodd" clip-rule="evenodd" d="M12.95 10.8L12.65 12.4L15.5 12.8L15.3 13.55L12.5 13.15C12.3 13.8 12.2 14.5 11.95 15.1C11.7 15.8 11.45 16.5 11.15 17.15C10.75 18 10.05 18.6 9.09995 18.75C8.54995 18.85 7.94995 18.8 7.49995 18.45C7.34995 18.35 7.19995 18.15 7.19995 18C7.19995 17.8 7.29995 17.55 7.44995 17.45C7.54995 17.4 7.79995 17.45 7.94995 17.5C8.09995 17.65 8.24995 17.85 8.34995 18.05C8.64995 18.45 9.04995 18.5 9.44995 18.2C9.89995 17.8 10.15 17.25 10.3 16.7C10.6 15.5 10.9 14.35 11.15 13.15V12.95L8.49995 12.55L8.59995 11.8L11.35 12.2L11.7 10.65L8.84995 10.2L8.94995 9.40004L11.9 9.80004C12 9.50004 12.05 9.25004 12.15 9.00004C12.4 8.10004 12.65 7.20004 13.25 6.40004C13.85 5.60004 14.55 5.10004 15.6 5.15004C16.05 5.15004 16.5 5.30004 16.8 5.65004C16.85 5.70004 16.95 5.80004 16.95 5.90004C16.95 6.10004 16.95 6.35004 16.8 6.50004C16.6 6.65004 16.35 6.60004 16.15 6.40004C16 6.25004 15.9 6.10004 15.75 5.95004C15.45 5.55004 15 5.50004 14.65 5.85004C14.4 6.10004 14.15 6.45004 14 6.80004C13.65 7.85004 13.4 8.95004 13.05 10.05L15.8 10.45L15.6 11.2L12.95 10.8Z" fill="white"/>
</g>
</svg>
