<svg width="24" height="24" viewBox="0 0 24 24" fill="none" xmlns="http://www.w3.org/2000/svg">
<path d="M11.9999 20.9176C16.925 20.9176 20.9176 16.925 20.9176 11.9999C20.9176 7.07485 16.925 3.08228 11.9999 3.08228C7.07485 3.08228 3.08228 7.07485 3.08228 11.9999C3.08228 16.925 7.07485 20.9176 11.9999 20.9176Z" fill="white"/>
<path d="M12 2C10.0222 2 8.08879 2.58649 6.4443 3.6853C4.79981 4.78412 3.51809 6.3459 2.76121 8.17316C2.00433 10.0004 1.8063 12.0111 2.19215 13.9509C2.578 15.8907 3.53041 17.6725 4.92894 19.0711C6.32746 20.4696 8.10929 21.422 10.0491 21.8078C11.9889 22.1937 13.9996 21.9957 15.8268 21.2388C17.6541 20.4819 19.2159 19.2002 20.3147 17.5557C21.4135 15.9112 22 13.9778 22 12V12C22.0038 10.6906 21.7497 9.39326 21.2521 8.18206C20.7546 6.97087 20.0233 5.86954 19.1001 4.94095C18.1769 4.01237 17.0799 3.27471 15.8716 2.7701C14.6633 2.26549 13.3675 2.00381 12.0581 2H12ZM12.1695 12.339L11.1283 15.8499H16.6973C16.7342 15.8486 16.771 15.8546 16.8056 15.8675C16.8402 15.8804 16.8718 15.9001 16.8988 15.9252C16.9258 15.9504 16.9476 15.9807 16.9629 16.0143C16.9781 16.0479 16.9866 16.0842 16.9879 16.1211V16.2131L16.5036 17.8838C16.4823 17.9628 16.4347 18.0322 16.3687 18.0806C16.3027 18.129 16.2222 18.1535 16.1404 18.1501H7.61744L9.04601 13.2833L7.44794 13.7676L7.81114 12.6538L9.4092 12.1695L11.4189 5.3414C11.441 5.26284 11.4888 5.19394 11.5546 5.14567C11.6204 5.0974 11.7005 5.07254 11.7821 5.07506H13.937C13.9739 5.07377 14.0107 5.07976 14.0453 5.09269C14.0799 5.10562 14.1116 5.12524 14.1385 5.15043C14.1655 5.17561 14.1873 5.20587 14.2026 5.23947C14.2178 5.27307 14.2264 5.30935 14.2276 5.34625V5.43826L12.5327 11.201L14.1308 10.7167L13.7918 11.8789L12.1695 12.339Z" fill="#345D9D"/>
</svg>
