<svg width="24" height="24" viewBox="0 0 24 24" fill="none" xmlns="http://www.w3.org/2000/svg">
    <path d="M12 22C17.5228 22 22 17.5228 22 12C22 6.47715 17.5228 2 12 2C6.47715 2 2 6.47715 2 12C2 17.5228 6.47715 22 12 22Z" fill="#172852"/>
    <path d="M10.0549 6.46902C11.2259 6.03102 12.5439 6.03002 13.7369 6.39002C15.2899 6.87202 16.6009 8.04402 17.2859 9.51502C17.4749 9.93402 17.6559 10.371 17.6739 10.837C16.8009 10.331 15.8439 10.003 14.8849 9.70402C13.3509 9.15102 11.7449 8.76702 10.2929 8.00702C9.95492 7.80502 9.52392 7.59802 9.43192 7.17702C9.39492 6.81302 9.77992 6.61002 10.0549 6.46902Z" fill="#FFD83D"/>
    <path d="M6.52003 10.0091C6.85903 9.08905 7.41503 8.23505 8.17003 7.60205C8.36203 9.18105 9.03403 10.7071 10.144 11.8551C11.475 13.2381 13.371 14.0871 15.3 14.0551C16.066 14.0791 16.815 13.9021 17.562 13.7591C16.827 16.4151 13.916 18.1781 11.219 17.7541C9.59103 17.5461 8.08803 16.5821 7.18103 15.2211C6.15803 13.7171 5.90003 11.7201 6.52003 10.0091Z" fill="#FFD83D"/>
    <path d="M14.885 9.70398C15.844 10.003 16.801 10.331 17.674 10.837L17.733 10.868C17.814 11.477 17.873 12.098 17.765 12.708C17.326 12.522 16.97 12.195 16.598 11.906C15.882 11.31 15.151 10.628 14.885 9.70398Z" fill="#FF6F03"/>
</svg>
