<svg width="24" height="24" viewBox="0 0 24 24" fill="none" xmlns="http://www.w3.org/2000/svg">
<path d="M11.9998 21.9997C17.5226 21.9997 21.9997 17.5226 21.9997 11.9998C21.9997 6.47708 17.5226 2 11.9998 2C6.47708 2 2 6.47708 2 11.9998C2 17.5226 6.47708 21.9997 11.9998 21.9997Z" fill="url(#paint0_linear_8_2952)"/>
<path fill-rule="evenodd" clip-rule="evenodd" d="M11.6378 5.60747C11.0571 5.67438 10.5173 5.9393 10.1091 6.35763C9.80267 6.66106 9.51238 6.97259 9.20187 7.27905C9.04644 7.43853 8.88933 7.59361 8.73222 7.75106C8.57511 7.90851 8.40181 8.07574 8.23863 8.24094C8.07545 8.40614 7.93992 8.55112 7.78888 8.70452C7.55287 8.94052 7.31687 9.17653 7.08087 9.41489C6.89982 9.60201 6.72281 9.7952 6.54379 9.98198C6.43826 10.0936 6.32464 10.1971 6.22518 10.3144C5.81473 10.8152 5.59039 11.4427 5.59033 12.0902C5.59033 12.1283 5.59033 12.1674 5.59269 12.2051C5.60109 12.5769 5.69868 12.9413 5.87725 13.2675C5.9789 13.4646 6.09663 13.6531 6.22923 13.8309C6.31689 13.9543 6.38061 13.9522 6.49591 13.8568C6.51794 13.8385 6.53857 13.8186 6.55761 13.7972C6.67123 13.6775 6.78249 13.5581 6.89813 13.4388C7.06131 13.2675 7.22854 13.0966 7.39172 12.9233C7.5549 12.75 7.7319 12.5591 7.90317 12.3801C7.98476 12.2925 8.07175 12.2115 8.15401 12.1252C8.32899 11.9401 8.50026 11.7493 8.67524 11.5662C8.85022 11.3832 9.02756 11.2119 9.19883 11.0329C9.37011 10.8538 9.58082 10.6347 9.77367 10.4358C9.96652 10.2369 10.13 10.0696 10.3091 9.88656C10.542 9.6455 10.7689 9.39871 10.9995 9.15799C11.1428 9.01065 11.2902 8.86939 11.4335 8.72407C11.6324 8.52516 11.8175 8.32624 12.0127 8.12732C12.2079 7.9284 12.3529 7.79489 12.5201 7.62362C12.8939 7.24601 13.2671 6.86616 13.6398 6.48406C13.6638 6.46034 13.6863 6.43511 13.7072 6.40853C13.7989 6.29289 13.8066 6.26727 13.6934 6.18568C13.5204 6.0494 13.3352 5.92943 13.1401 5.82729C12.7953 5.66604 12.4193 5.58248 12.0386 5.58252H12.0198C11.8926 5.58255 11.7656 5.59054 11.6395 5.60646L11.6374 5.60443L11.6378 5.60747ZM14.9314 8.05719H14.9074C14.7441 8.05725 14.5828 8.0929 14.4347 8.16167C14.2865 8.23043 14.1552 8.33066 14.0497 8.45537C14.0309 8.47626 14.0109 8.49617 13.9901 8.51504L13.3812 9.11213C13.1822 9.31139 12.9671 9.52818 12.7581 9.73721C12.5852 9.91017 12.4119 10.0794 12.2409 10.2527C12.07 10.426 11.8866 10.6189 11.7015 10.7999C11.5164 10.981 11.3195 11.1708 11.1283 11.3572L10.4497 12.0416L9.18805 13.3036C8.63063 13.8632 8.07399 14.4218 7.51815 14.9792C7.41093 15.0847 7.40891 15.0986 7.51815 15.2118C7.78483 15.4816 8.05556 15.7492 8.31416 16.021C8.47415 16.1906 8.6853 16.3031 8.91529 16.3413C9.13228 16.3849 9.35645 16.3774 9.57004 16.3194C9.73005 16.2798 9.87775 16.2011 9.9999 16.0904L10.6607 15.4522C10.8158 15.3032 10.9732 15.1559 11.1263 15.0045C11.4328 14.7011 11.7352 14.3956 12.0417 14.0942C12.2905 13.8494 12.5454 13.6067 12.7979 13.3619L13.834 12.3521C14.1563 12.0356 14.4806 11.7173 14.807 11.4007C14.8287 11.3684 14.8589 11.3426 14.8943 11.3262C14.9296 11.3099 14.9688 11.3035 15.0075 11.3079C15.0463 11.3122 15.0831 11.3271 15.1139 11.3509C15.1448 11.3747 15.1685 11.4065 15.1825 11.4428C15.3484 11.6851 15.4372 11.9719 15.4371 12.2655C15.437 12.3157 15.4345 12.3659 15.4293 12.4159C15.4026 12.7119 15.2805 12.9912 15.0814 13.2119C14.8424 13.4688 14.5878 13.7115 14.3397 13.9583C14.1627 14.1333 13.9816 14.3046 13.8043 14.4816C13.5754 14.7085 13.3505 14.9394 13.1216 15.1663C13.0878 15.2041 13.0562 15.2439 13.0204 15.2796L12.7955 15.5126C12.627 15.6811 12.4554 15.845 12.2898 16.0139C12.1243 16.1828 11.9341 16.3804 11.7571 16.5648C11.7413 16.5827 11.7234 16.5945 11.7076 16.6103C11.5083 16.7954 11.3252 16.9812 11.1361 17.1676C11.0467 17.2553 10.9611 17.3446 10.8735 17.4323C10.7224 17.5857 10.567 17.7357 10.4217 17.8922C10.3323 17.9856 10.3323 18.0432 10.4379 18.117C10.6111 18.25 10.7955 18.3678 10.9891 18.469C11.4705 18.6867 12.0041 18.7626 12.5272 18.6878C13.0463 18.6262 13.5334 18.4043 13.9206 18.053C14.2149 17.7944 14.4779 17.5038 14.7523 17.2253C14.9513 17.026 15.1505 16.8133 15.3633 16.6083L15.9384 16.0291C16.1138 15.8521 16.2867 15.6747 16.4641 15.4998C16.6414 15.3248 16.8619 15.1157 17.0608 14.9185C17.2597 14.7213 17.459 14.5207 17.6579 14.3096C17.8165 14.1481 17.963 13.9751 18.0962 13.7921C18.3445 13.4169 18.4995 12.9878 18.5483 12.5406C18.5753 12.3185 18.5753 12.0939 18.5483 11.8717C18.4891 11.4764 18.3459 11.0984 18.1282 10.7632C17.9717 10.5259 17.7844 10.3105 17.5712 10.1226C17.02 9.57538 16.4705 9.02414 15.9314 8.46481C15.8138 8.33396 15.6701 8.2293 15.5095 8.15762C15.3489 8.08594 15.175 8.04886 14.9991 8.04877H14.9917L14.932 8.05686L14.9314 8.05719Z" fill="white"/>
<defs>
<linearGradient id="paint0_linear_8_2952" x1="3.3626" y1="6.19583" x2="19.4117" y2="17.1768" gradientUnits="userSpaceOnUse">
<stop stop-color="#FF3B3B"/>
<stop offset="1" stop-color="#FF9914"/>
</linearGradient>
</defs>
</svg>
