<svg width="24" height="24" viewBox="0 0 24 24" fill="none" xmlns="http://www.w3.org/2000/svg">
<circle cx="12" cy="12" r="10" fill="#FF060A"/>
<path d="M19.3248 9.71763C18.6685 9.1117 17.7607 8.1864 17.0214 7.53016L16.9776 7.49953C16.9048 7.44108 16.8228 7.39524 16.7348 7.36391V7.36391C14.952 7.03142 6.65495 5.4805 6.49307 5.50019C6.44771 5.50654 6.40436 5.52298 6.3662 5.54831L6.32464 5.58112C6.27346 5.6331 6.23459 5.69589 6.21089 5.76487L6.19995 5.79331V5.94862V5.97268C7.134 8.57358 10.8221 17.0938 11.5483 19.0931C11.5921 19.2288 11.6752 19.4869 11.8305 19.5H11.8655C11.9486 19.5 12.303 19.0319 12.303 19.0319C12.303 19.0319 18.6379 11.3495 19.2788 10.5314C19.3618 10.4306 19.435 10.3222 19.4976 10.2076C19.5136 10.118 19.506 10.0257 19.4757 9.93986C19.4455 9.85399 19.3934 9.77743 19.3248 9.71763V9.71763ZM13.9283 10.6123L16.632 8.37015L18.2179 9.83138L13.9283 10.6123ZM12.8783 10.4657L8.22336 6.6508L15.7548 8.03984L12.8783 10.4657ZM13.2983 11.4654L18.0626 10.6976L12.6158 17.26L13.2983 11.4654ZM7.59118 7.03142L12.4889 11.1876L11.7802 17.2644L7.59118 7.03142Z" fill="white"/>
</svg>
