<svg width="24" height="24" viewBox="0 0 24 24" fill="none" xmlns="http://www.w3.org/2000/svg">
<path d="M12 22C17.5417 22 22 17.5417 22 12C22 6.4583 17.5417 2 12 2C6.4583 2 2 6.4583 2 12C2 17.5417 6.4583 22 12 22Z" fill="#2775CA"/>
<path d="M14.75 13.5833C14.75 12.125 13.875 11.625 12.125 11.4167C10.875 11.25 10.625 10.9167 10.625 10.3333C10.625 9.74985 11.0417 9.37495 11.875 9.37495C12.625 9.37495 13.0417 9.62495 13.25 10.25C13.2917 10.375 13.4167 10.4583 13.5417 10.4583H14.2083C14.375 10.4583 14.5 10.3333 14.5 10.1667V10.125C14.3333 9.20825 13.5833 8.49995 12.625 8.41665V7.41665C12.625 7.24995 12.5 7.12495 12.2917 7.08325H11.6667C11.5 7.08325 11.375 7.20825 11.3333 7.41665V8.37495C10.0833 8.54165 9.29175 9.37495 9.29175 10.4167C9.29175 11.7917 10.125 12.3333 11.875 12.5417C13.0417 12.75 13.4167 13 13.4167 13.6667C13.4167 14.3334 12.8333 14.7917 12.0417 14.7917C10.9583 14.7917 10.5833 14.3333 10.4583 13.7083C10.4167 13.5417 10.2917 13.4583 10.1667 13.4583H9.45835C9.29175 13.4583 9.16675 13.5833 9.16675 13.75V13.7917C9.33335 14.8333 10 15.5833 11.375 15.7917V16.7917C11.375 16.9583 11.5 17.0833 11.7083 17.125H12.3333C12.5 17.125 12.625 17 12.6667 16.7917V15.7917C13.9167 15.5833 14.75 14.7083 14.75 13.5833V13.5833Z" fill="white"/>
<path d="M9.87508 17.9583C6.62508 16.7917 4.95838 13.1667 6.16678 9.95835C6.79178 8.20835 8.16678 6.87505 9.87508 6.25005C10.0418 6.16675 10.1251 6.04175 10.1251 5.83335V5.25005C10.1251 5.08335 10.0418 4.95835 9.87508 4.91675C9.83338 4.91675 9.75008 4.91675 9.70838 4.95835C5.75008 6.20835 3.58338 10.4167 4.83338 14.375C5.58338 16.7083 7.37508 18.5 9.70838 19.25C9.87508 19.3333 10.0418 19.25 10.0834 19.0833C10.1251 19.0417 10.1251 19 10.1251 18.9167V18.3333C10.1251 18.2083 10.0001 18.0417 9.87508 17.9583ZM14.2918 4.95835C14.1251 4.87505 13.9584 4.95835 13.9168 5.12505C13.8751 5.16675 13.8751 5.20835 13.8751 5.29175V5.87505C13.8751 6.04175 14.0001 6.20835 14.1251 6.29175C17.3751 7.45835 19.0418 11.0833 17.8334 14.2917C17.2084 16.0417 15.8334 17.375 14.1251 18C13.9584 18.0833 13.8751 18.2083 13.8751 18.4167V19C13.8751 19.1667 13.9584 19.2917 14.1251 19.3333C14.1668 19.3333 14.2501 19.3333 14.2918 19.2917C18.2501 18.0417 20.4168 13.8333 19.1668 9.87505C18.4168 7.50005 16.5834 5.70835 14.2918 4.95835V4.95835Z" fill="white"/>
</svg>
