<svg width="24" height="24" viewBox="0 0 24 24" fill="none" xmlns="http://www.w3.org/2000/svg">
<path d="M22 12C22 17.523 17.523 22 12 22C6.4772 22 2 17.523 2 12C2 6.4771 6.4772 2 12 2C17.523 2 22 6.4771 22 12Z" fill="#1BA27A"/>
<path d="M16.6912 7.04272H7.22217V9.32872H10.8137V12.6887H13.0997V9.32872H16.6912V7.04272Z" fill="white"/>
<path d="M11.9779 13.0466C9.00686 13.0466 6.59816 12.5764 6.59816 11.9963C6.59816 11.4163 9.00676 10.946 11.9779 10.946C14.9489 10.946 17.3575 11.4163 17.3575 11.9963C17.3575 12.5764 14.9489 13.0466 11.9779 13.0466ZM18.0184 12.1714C18.0184 11.4234 15.314 10.8171 11.9779 10.8171C8.64186 10.8171 5.93726 11.4234 5.93726 12.1714C5.93726 12.8301 8.03436 13.3789 10.8133 13.5005V18.3239H13.0991V13.5024C15.8994 13.3846 18.0184 12.8335 18.0184 12.1714Z" fill="white"/>
</svg>
