<svg width="24" height="24" viewBox="0 0 24 24" fill="none" xmlns="http://www.w3.org/2000/svg">
<path d="M12 22C17.5227 22 22 17.5227 22 12C22 6.47727 17.5227 2 12 2C6.47727 2 2 6.47727 2 12C2 17.5227 6.47727 22 12 22Z" fill="#85B865"/>
<path d="M17.103 12.5568H6.8973C6.73378 12.5573 6.57708 12.6224 6.46143 12.738C6.34578 12.8536 6.28057 13.0103 6.28003 13.1738C6.28045 13.3374 6.34561 13.4942 6.46127 13.6099C6.57694 13.7256 6.7337 13.7908 6.8973 13.7913H9.46139L11.1989 18.3797C11.2455 18.5017 11.3295 18.6058 11.4388 18.6772C11.5482 18.7486 11.6773 18.7836 11.8078 18.7772C11.9382 18.7836 12.0673 18.7486 12.1767 18.6772C12.286 18.6058 12.37 18.5017 12.4166 18.3797L14.1541 13.7911H17.1032C17.2668 13.7906 17.4235 13.7254 17.5392 13.6098C17.6548 13.4941 17.72 13.3374 17.7205 13.1738C17.72 13.0103 17.6548 12.8535 17.5392 12.7379C17.4235 12.6222 17.2668 12.557 17.1032 12.5565L17.103 12.5568ZM11.8075 16.5013L10.7812 13.7909H12.8339L11.8075 16.5011V16.5013ZM6.8973 11.4045H17.1032C17.2668 11.404 17.4236 11.3388 17.5392 11.2231C17.6549 11.1074 17.7201 10.9506 17.7205 10.787C17.72 10.6234 17.6548 10.4667 17.5392 10.3511C17.4235 10.2354 17.2668 10.1702 17.1032 10.1697H15.5255L16.7978 6.8095C16.8552 6.65637 16.8498 6.4867 16.7826 6.33757C16.7154 6.18845 16.5919 6.07197 16.4391 6.01359C16.286 5.95611 16.1163 5.96159 15.9671 6.02884C15.818 6.09608 15.7015 6.21962 15.6432 6.37245L14.205 10.1697H9.4098L7.97185 6.37245C7.91346 6.21965 7.797 6.09616 7.64788 6.02892C7.49877 5.96169 7.3291 5.95618 7.17594 6.01359C7.02314 6.07197 6.89966 6.18845 6.83246 6.33757C6.76526 6.4867 6.75981 6.65637 6.8173 6.8095L8.0898 10.1697H6.8973C6.73374 10.1702 6.57701 10.2354 6.46135 10.3511C6.3457 10.4667 6.28051 10.6234 6.28003 10.787C6.28051 10.9506 6.3457 11.1073 6.46135 11.2229C6.57701 11.3386 6.73374 11.4038 6.8973 11.4043V11.4045Z" fill="white"/>
</svg>
