<svg width="24" height="24" viewBox="0 0 24 24" fill="none" xmlns="http://www.w3.org/2000/svg">
<circle cx="12" cy="12" r="10" fill="#2C333A"/>
<path d="M16.2421 7H17.9765L14.3671 10.5737C13.06 11.8673 10.9408 11.8673 9.63275 10.5737L6.02197 7H7.75775L10.4999 9.71477C10.8995 10.1085 11.4379 10.3293 11.9989 10.3293C12.5599 10.3293 13.0983 10.1085 13.4978 9.71477L16.2421 7Z" fill="white"/>
<path d="M7.73555 16.9375H6L9.63281 13.3417C10.9399 12.0482 13.0591 12.0482 14.3672 13.3417L18 16.9375H16.2656L13.5 14.2007C13.1005 13.8069 12.562 13.5862 12.0011 13.5862C11.4401 13.5862 10.9016 13.8069 10.5021 14.2007L7.73555 16.9375Z" fill="white"/>
</svg>
