<svg width="132" height="40" viewBox="0 0 132 40" fill="none" xmlns="http://www.w3.org/2000/svg">
    <path d="M33.5822 9.29399L28.3178 29.149C27.8112 31.027 26.486 31.527 24.8093 31.527C23.1336 31.527 21.8084 31.027 21.3009 29.149L16.0393 9.29399C16 9.16899 16 9.08399 16 9.00199C16 8.58399 16.2336 8.29199 16.6234 8.29199H18.7673C19.0794 8.29199 19.3523 8.54199 19.5084 9.08499L23.9916 27.272C24.2252 28.273 24.4206 28.482 24.8103 28.482C25.1607 28.482 25.3953 28.273 25.629 27.272L30.1121 9.08499C30.2682 8.54299 30.5411 8.29199 30.8523 8.29199H32.9972C33.3869 8.29199 33.6206 8.58399 33.6206 9.00199C33.6206 9.08499 33.6206 9.16899 33.5822 9.29399Z" fill="url(#paint0_linear_6_337)"/>
    <path d="M53.5831 20.932H40.5224V21.517C40.5224 26.48 42.3542 28.316 45.9411 28.316C48.2028 28.316 51.0878 28.149 52.8803 27.857H53.0757C53.3878 27.857 53.7 28.024 53.7 28.441V29.859C53.7 30.401 53.5439 30.693 52.9196 30.819C50.6211 31.3017 48.2834 31.5392 45.9411 31.528C41.4579 31.528 37.0916 29.275 37.0916 21.517V17.762C37.0916 11.797 40.1719 8.00201 45.7467 8.00201C51.4383 8.00201 54.3233 11.839 54.3233 17.762V20.015C54.3233 20.557 54.0504 20.932 53.5831 20.932ZM50.8542 17.762C50.8542 13.048 49.1775 11.212 45.7467 11.212C42.3934 11.212 40.5224 13.257 40.5224 17.762V18.137H50.8532V17.762H50.8542Z" fill="url(#paint1_linear_6_337)"/>
    <path d="M74.6356 31.236H72.7636C72.557 31.2352 72.359 31.1469 72.213 30.9905C72.0669 30.834 71.9847 30.6221 71.9842 30.401V16.678C71.9842 12.465 70.659 11.171 67.6963 11.171C66.058 11.171 64.2262 11.839 62.4328 12.798V30.401C62.4328 30.819 62.0823 31.236 61.6534 31.236H59.7431C59.3534 31.236 59.002 30.86 59.002 30.401V9.127C59.002 8.668 59.3141 8.293 59.7431 8.293H61.6917C62.1216 8.293 62.4328 8.668 62.4328 9.127V9.92C64.5767 8.627 66.3319 8 68.6319 8C73.3094 8 75.415 11.13 75.415 16.677V30.401C75.415 30.861 75.0636 31.236 74.6347 31.236H74.6356Z" fill="url(#paint2_linear_6_337)"/>
    <path d="M96.3897 31.235H94.4392C94.0093 31.235 93.6981 30.86 93.6981 30.401V29.608C91.5542 30.901 89.8 31.527 87.5 31.527C82.8215 31.527 80.7168 28.399 80.7168 22.85V9.12699C80.7168 8.66699 81.0673 8.29199 81.4962 8.29199H83.3682C83.7962 8.29199 84.1476 8.66799 84.1476 9.12699V22.85C84.1476 27.064 85.4729 28.357 88.4355 28.357C90.0729 28.357 91.9046 27.689 93.699 26.73V9.12699C93.699 8.70899 94.0495 8.29199 94.4785 8.29199H96.3888C96.7785 8.29199 97.1299 8.66799 97.1299 9.12699V30.4C97.1299 30.859 96.8177 31.234 96.3888 31.234L96.3897 31.235Z" fill="url(#paint3_linear_6_337)"/>
    <path d="M108.71 31.527C107.267 31.527 104.461 31.402 102.55 30.902C102.043 30.776 101.732 30.526 101.732 30.067V28.607C101.732 28.232 102.043 27.982 102.433 27.982H102.59C104.461 28.232 107.306 28.441 108.71 28.441C111.244 28.441 112.569 27.731 112.569 25.479C112.569 24.227 111.867 23.435 109.646 22.016L105.708 19.513C103.33 17.97 101.732 16.176 101.732 13.548C101.732 9.21 104.773 8 108.788 8C110.971 8 113.037 8.209 114.869 8.542C115.377 8.625 115.61 8.917 115.61 9.377V10.753C115.61 11.254 115.337 11.463 114.948 11.463H114.831C113.465 11.337 110.971 11.129 108.788 11.129C106.605 11.129 105.162 11.421 105.162 13.549C105.162 14.799 106.059 15.592 107.851 16.719L111.711 19.179C114.947 21.223 116 23.017 116 25.478C116 29.733 113.076 31.528 108.71 31.528V31.527Z" fill="url(#paint4_linear_6_337)"/>
    <defs>
        <linearGradient id="paint0_linear_6_337" x1="24.8103" y1="6.30799" x2="24.8103" y2="35.274" gradientUnits="userSpaceOnUse">
            <stop stop-color="#F8B342"/>
            <stop offset="1" stop-color="#F2C35E"/>
        </linearGradient>
        <linearGradient id="paint1_linear_6_337" x1="45.7074" y1="6.30801" x2="45.7074" y2="35.275" gradientUnits="userSpaceOnUse">
            <stop stop-color="#F8B342"/>
            <stop offset="1" stop-color="#F2C35E"/>
        </linearGradient>
        <linearGradient id="paint2_linear_6_337" x1="67.2085" y1="6.308" x2="67.2085" y2="35.275" gradientUnits="userSpaceOnUse">
            <stop stop-color="#F8B342"/>
            <stop offset="1" stop-color="#F2C35E"/>
        </linearGradient>
        <linearGradient id="paint3_linear_6_337" x1="88.9233" y1="6.30799" x2="88.9233" y2="35.274" gradientUnits="userSpaceOnUse">
            <stop stop-color="#F8B342"/>
            <stop offset="1" stop-color="#F2C35E"/>
        </linearGradient>
        <linearGradient id="paint4_linear_6_337" x1="108.865" y1="6.308" x2="108.865" y2="35.274" gradientUnits="userSpaceOnUse">
            <stop stop-color="#F8B342"/>
            <stop offset="1" stop-color="#F2C35E"/>
        </linearGradient>
    </defs>
</svg>
