<svg width="40" height="36" viewBox="0 0 40 36" fill="none" xmlns="http://www.w3.org/2000/svg">
<path d="M39.3249 7.64455L24.6859 33.2899C24.2432 34.0633 23.6073 34.7054 22.8418 35.1518C22.0764 35.5982 21.2084 35.8331 20.3248 35.8331C19.4412 35.8331 18.5732 35.5982 17.8077 35.1518C17.0423 34.7054 16.4064 34.0633 15.9637 33.2899L13.3975 28.7976C13.3892 28.7864 13.3857 28.7724 13.3876 28.7586C13.3896 28.7448 13.3968 28.7324 13.4079 28.724C13.4189 28.7157 13.4327 28.7121 13.4464 28.7141C13.46 28.716 13.4723 28.7234 13.4806 28.7345C13.9384 29.1916 14.4935 29.5367 15.1034 29.7435C15.7133 29.9503 16.3619 30.0132 16.9995 29.9275C17.6372 29.8419 18.2471 29.6098 18.7824 29.2491C19.3178 28.8885 19.7645 28.4087 20.0884 27.8466L32.343 6.35729C32.6661 5.78994 32.8558 5.15499 32.8973 4.50162C32.9388 3.84824 32.8311 3.19397 32.5825 2.58945C32.3338 1.98494 31.951 1.44642 31.4636 1.01557C30.9761 0.584729 30.3972 0.27313 29.7716 0.104902C29.7578 0.104902 29.7446 0.0993666 29.7349 0.0895133C29.7251 0.0796599 29.7197 0.0662959 29.7197 0.0523611C29.7197 0.0384263 29.7251 0.0250623 29.7349 0.0152089C29.7446 0.00535558 29.7578 -0.000179981 29.7716 -0.000179981H34.9664C35.8505 0.00078268 36.7188 0.236973 37.484 0.684676C38.2493 1.13238 38.8846 1.77584 39.3263 2.55044C39.7679 3.32504 40.0002 4.20352 40 5.09768C39.9998 5.99183 39.7669 6.87019 39.3249 7.64455ZM21.9949 -0.000179981H16.9196C16.9092 0.00327508 16.9001 0.00996064 16.8937 0.0189235C16.8873 0.0278864 16.8839 0.038669 16.8839 0.0497341C16.8839 0.0607991 16.8873 0.0715817 16.8937 0.0805446C16.9001 0.0895075 16.9092 0.096193 16.9196 0.0996481C17.2614 0.23319 17.5707 0.439809 17.8263 0.70538C18.082 0.97095 18.2779 1.28921 18.4007 1.63841C18.5235 1.98761 18.5703 2.35951 18.5379 2.72869C18.5056 3.09788 18.3948 3.45564 18.2131 3.77752L10.8156 16.7184C10.6245 17.0465 10.3639 17.3278 10.0526 17.542C9.74124 17.7563 9.38686 17.8981 9.01489 17.9574C8.64291 18.0166 8.26258 17.9919 7.9012 17.8849C7.53981 17.7778 7.20634 17.5912 6.92472 17.3384C6.91645 17.3272 6.90414 17.3199 6.89051 17.3179C6.87687 17.3159 6.86301 17.3195 6.85199 17.3279C6.84097 17.3362 6.83368 17.3487 6.83173 17.3625C6.82978 17.3763 6.83333 17.3903 6.8416 17.4014L9.43902 21.962C9.73065 22.4738 10.1504 22.8988 10.6561 23.1944C11.1618 23.4899 11.7355 23.6455 12.3196 23.6455C12.9036 23.6455 13.4773 23.4899 13.983 23.1944C14.4887 22.8988 14.9085 22.4738 15.2001 21.962L24.8781 5.04377C25.17 4.53229 25.3237 3.95207 25.3235 3.36147C25.3233 2.77088 25.1694 2.19074 24.8771 1.67944C24.5848 1.16814 24.1646 0.743713 23.6586 0.44886C23.1527 0.154008 22.5789 -0.000866542 21.9949 -0.000179981ZM4.37925 -0.000179981C3.51312 -0.000179981 2.66643 0.259589 1.94627 0.746277C1.22611 1.23297 0.664807 1.92471 0.333352 2.73405C0.00189748 3.54338 -0.0848262 4.43395 0.0841479 5.29313C0.253122 6.15231 0.670205 6.94152 1.28265 7.56096C1.8951 8.1804 2.67541 8.60224 3.5249 8.77314C4.37439 8.94404 5.25491 8.85633 6.05511 8.52109C6.85532 8.18586 7.53926 7.61815 8.02046 6.88977C8.50166 6.16139 8.75849 5.30505 8.75849 4.42903C8.75918 3.84719 8.64637 3.27092 8.42654 2.73323C8.2067 2.19554 7.88415 1.70699 7.47737 1.29556C7.07058 0.884137 6.58754 0.55791 6.05592 0.335566C5.5243 0.113222 4.95453 -0.000871422 4.37925 -0.000179981Z" fill="url(#paint0_linear_878_4167)"/>
<defs>
<linearGradient id="paint0_linear_878_4167" x1="7" y1="36.9998" x2="32.2667" y2="-7.91255" gradientUnits="userSpaceOnUse">
<stop stop-color="#674031"/>
<stop offset="0.3125" stop-color="#FFECE3"/>
<stop offset="0.625" stop-color="#6D4637"/>
<stop offset="1" stop-color="#FFECE3"/>
</linearGradient>
</defs>
</svg>
