<svg width="40" height="40" viewBox="0 0 40 40" fill="none" xmlns="http://www.w3.org/2000/svg">
<g clip-path="url(#clip0_670_19703)">
<g clip-path="url(#clip1_670_19703)">
<path d="M39.3249 10.6445L24.6859 36.2898C24.2432 37.0632 23.6073 37.7053 22.8418 38.1517C22.0764 38.5981 21.2084 38.8331 20.3248 38.8331C19.4412 38.8331 18.5732 38.5981 17.8077 38.1517C17.0423 37.7053 16.4064 37.0632 15.9637 36.2898L13.3975 31.7975C13.3892 31.7864 13.3857 31.7724 13.3876 31.7586C13.3896 31.7448 13.3968 31.7323 13.4079 31.724C13.4189 31.7156 13.4327 31.712 13.4464 31.714C13.46 31.716 13.4723 31.7233 13.4806 31.7345C13.9384 32.1916 14.4935 32.5367 15.1034 32.7434C15.7133 32.9502 16.3619 33.0132 16.9995 32.9275C17.6372 32.8418 18.2471 32.6097 18.7824 32.2491C19.3178 31.8884 19.7645 31.4086 20.0884 30.8465L32.343 9.35723C32.6661 8.78988 32.8558 8.15493 32.8973 7.50156C32.9388 6.84818 32.8311 6.1939 32.5825 5.58939C32.3338 4.98488 31.951 4.44635 31.4636 4.01551C30.9761 3.58467 30.3972 3.27307 29.7716 3.10484C29.7578 3.10484 29.7446 3.09931 29.7349 3.08945C29.7251 3.0796 29.7197 3.06623 29.7197 3.0523C29.7197 3.03837 29.7251 3.025 29.7349 3.01515C29.7446 3.00529 29.7578 2.99976 29.7716 2.99976H34.9664C35.8505 3.00072 36.7188 3.23691 37.484 3.68462C38.2493 4.13232 38.8846 4.77577 39.3263 5.55038C39.7679 6.32498 40.0002 7.20346 40 8.09762C39.9998 8.99177 39.7669 9.87013 39.3249 10.6445ZM21.9949 2.99976H16.9196C16.9092 3.00321 16.9001 3.0099 16.8937 3.01886C16.8873 3.02783 16.8839 3.03861 16.8839 3.04967C16.8839 3.06074 16.8873 3.07152 16.8937 3.08048C16.9001 3.08945 16.9092 3.09613 16.9196 3.09959C17.2614 3.23313 17.5707 3.43975 17.8263 3.70532C18.082 3.97089 18.2779 4.28915 18.4007 4.63835C18.5235 4.98755 18.5703 5.35945 18.5379 5.72863C18.5056 6.09782 18.3948 6.45558 18.2131 6.77746L10.8156 19.7183C10.6245 20.0465 10.3639 20.3278 10.0526 20.542C9.74124 20.7562 9.38686 20.898 9.01489 20.9573C8.64291 21.0166 8.26258 20.9918 7.9012 20.8848C7.53981 20.7778 7.20634 20.5911 6.92472 20.3383C6.91645 20.3272 6.90414 20.3198 6.89051 20.3178C6.87687 20.3159 6.86301 20.3195 6.85199 20.3278C6.84097 20.3362 6.83368 20.3486 6.83173 20.3624C6.82978 20.3762 6.83333 20.3902 6.8416 20.4014L9.43902 24.9619C9.73065 25.4737 10.1504 25.8988 10.6561 26.1943C11.1618 26.4899 11.7355 26.6455 12.3196 26.6455C12.9036 26.6455 13.4773 26.4899 13.983 26.1943C14.4887 25.8988 14.9085 25.4737 15.2001 24.9619L24.8781 8.0437C25.17 7.53223 25.3237 6.95201 25.3235 6.36141C25.3233 5.77081 25.1694 5.19068 24.8771 4.67938C24.5848 4.16808 24.1646 3.74365 23.6586 3.4488C23.1527 3.15395 22.5789 2.99907 21.9949 2.99976ZM4.37925 2.99976C3.51312 2.99976 2.66643 3.25953 1.94627 3.74622C1.22611 4.2329 0.664807 4.92465 0.333352 5.73399C0.00189748 6.54332 -0.0848262 7.43389 0.0841479 8.29307C0.253122 9.15225 0.670205 9.94146 1.28265 10.5609C1.8951 11.1803 2.67541 11.6022 3.5249 11.7731C4.37439 11.944 5.25491 11.8563 6.05511 11.521C6.85532 11.1858 7.53926 10.6181 8.02046 9.88971C8.50166 9.16133 8.75849 8.30499 8.75849 7.42897C8.75918 6.84713 8.64637 6.27086 8.42654 5.73317C8.2067 5.19548 7.88415 4.70693 7.47737 4.2955C7.07058 3.88408 6.58754 3.55785 6.05592 3.3355C5.5243 3.11316 4.95453 2.99907 4.37925 2.99976Z" fill="url(#paint0_linear_670_19703)"/>
</g>
</g>
<defs>
<linearGradient id="paint0_linear_670_19703" x1="7" y1="39.9998" x2="32.2667" y2="-4.91261" gradientUnits="userSpaceOnUse">
<stop stop-color="#674031"/>
<stop offset="0.3125" stop-color="#FFECE3"/>
<stop offset="0.625" stop-color="#6D4637"/>
<stop offset="1" stop-color="#FFECE3"/>
</linearGradient>
<clipPath id="clip0_670_19703">
<rect width="40" height="40" fill="white"/>
</clipPath>
<clipPath id="clip1_670_19703">
<rect width="40" height="40" fill="white" transform="translate(0 1)"/>
</clipPath>
</defs>
</svg>
