<svg id="SvgjsSvg1001" width="288" height="288" xmlns="http://www.w3.org/2000/svg" version="1.1" xmlns:xlink="http://www.w3.org/1999/xlink" xmlns:svgjs="http://svgjs.com/svgjs"><defs id="SvgjsDefs1002"></defs><g id="SvgjsG1008" transform="matrix(0.9167,0,0,0.9167,11.995202224349981,11.995200476646431)"><svg xmlns="http://www.w3.org/2000/svg" width="288" height="288" fill="none" viewBox="0 0 40 40"><mask id="a" width="32" height="36" x="4" y="2" maskUnits="userSpaceOnUse"><path fill="#ffffff" d="M24.1684 16.6551V20.8122H19.705V37.9386L18.5413 37.5049C18.0009 37.3041 17.1304 36.962 16.0538 36.4735L15.548 36.2424V3.36736L19.979 2L24.1684 3.29181V7.77639L19.979 6.48015L19.705 6.56504V16.6551H24.1684ZM4.40001 20.8122V6.82481L14.233 3.78979V8.25379L8.55657 10.016V16.6551H14.233V35.8831L12.9757 35.2365C9.06357 33.2228 4.40001 29.8273 4.40001 25.0866V22.8517H8.55657V25.0866C8.55657 26.0675 9.06705 27.0983 10.0758 28.1594V20.8122H4.40001ZM25.4302 3.6835L35.5045 6.80152V20.8122H29.5897V26.8792C29.5897 26.8792 28.2671 28.6129 25.4339 30.0645C25.4339 28.9058 25.4302 3.6835 25.4302 3.6835ZM31.3481 16.6551V9.99572L29.5897 9.45292V16.6551H31.3481ZM31.3481 25.3947V22.8517H35.5045V25.3947C35.5045 32.4599 25.2533 36.5265 22.1109 37.605L20.9681 38V33.6046L21.5265 33.3938C26.4151 31.5539 31.3481 28.3669 31.3481 25.3947Z" class="colorfff svgShape"></path></mask><g mask="url(#a)" fill="#000000" class="color000 svgShape"><path fill="#ffffff" d="M24.1684 16.6551V20.8122H19.705V37.9386L18.5413 37.5049C18.0009 37.3041 17.1304 36.962 16.0538 36.4735L15.548 36.2424V3.36736L19.979 2L24.1684 3.29181V7.77639L19.979 6.48015L19.705 6.56504V16.6551H24.1684ZM4.40001 20.8122V6.82481L14.233 3.78979V8.25379L8.55657 10.016V16.6551H14.233V35.8831L12.9757 35.2365C9.06357 33.2228 4.40001 29.8273 4.40001 25.0866V22.8517H8.55657V25.0866C8.55657 26.0675 9.06705 27.0983 10.0758 28.1594V20.8122H4.40001ZM25.4302 3.6835L35.5045 6.80152V20.8122H29.5897V26.8792C29.5897 26.8792 28.2671 28.6129 25.4339 30.0645C25.4339 28.9058 25.4302 3.6835 25.4302 3.6835ZM31.3481 16.6551V9.99572L29.5897 9.45292V16.6551H31.3481ZM31.3481 25.3947V22.8517H35.5045V25.3947C35.5045 32.4599 25.2533 36.5265 22.1109 37.605L20.9681 38V33.6046L21.5265 33.3938C26.4151 31.5539 31.3481 28.3669 31.3481 25.3947Z" class="colorfff svgShape"></path><path fill="#3758ff" fill-rule="evenodd" d="M4.40001 2H35.6V38H4.40001V2Z" clip-rule="evenodd" class="color3F37FF svgShape"></path></g></svg></g></svg>