<?xml version="1.0" encoding="utf-8"?>
<!-- Generator: Adobe Illustrator 25.0.1, SVG Export Plug-In . SVG Version: 6.00 Build 0)  -->
<!DOCTYPE svg PUBLIC "-//W3C//DTD SVG 1.1//EN" "http://www.w3.org/Graphics/SVG/1.1/DTD/svg11.dtd" [
	<!ENTITY ns_extend "http://ns.adobe.com/Extensibility/1.0/">
	<!ENTITY ns_ai "http://ns.adobe.com/AdobeIllustrator/10.0/">
	<!ENTITY ns_graphs "http://ns.adobe.com/Graphs/1.0/">
	<!ENTITY ns_vars "http://ns.adobe.com/Variables/1.0/">
	<!ENTITY ns_imrep "http://ns.adobe.com/ImageReplacement/1.0/">
	<!ENTITY ns_sfw "http://ns.adobe.com/SaveForWeb/1.0/">
	<!ENTITY ns_custom "http://ns.adobe.com/GenericCustomNamespace/1.0/">
	<!ENTITY ns_adobe_xpath "http://ns.adobe.com/XPath/1.0/">
]>
<svg version="1.1" id="Layer_1" xmlnsX="&ns_extend;" xmlnsI="&ns_ai;" xmlnsGraph="&ns_graphs;"
	 xmlns="http://www.w3.org/2000/svg" xmlnsXlink="http://www.w3.org/1999/xlink" x="0px" y="0px" viewBox="0 0 500 500"
	 style="enable-background:new 0 0 500 500;" xmlSpace="preserve">
<style type="text/css">
	.st0{fill:#F8B94B;}
</style>
<switch>
	<g iExtraneous="self">
		<polygon class="st0" points="245.583,359.73 270.55,293.802 220.617,293.802 		"/>
		<path class="st0" d="M250.268,6.959C115.915,6.959,7,115.874,7,250.228s108.915,243.268,243.268,243.268
			s243.268-108.915,243.268-243.268S384.622,6.959,250.268,6.959z M374.405,293.802h-71.741l-42.27,111.624
			c-2.358,6.228-8.479,9.98-14.811,9.669c-6.331,0.31-12.452-3.442-14.811-9.669l-42.27-111.624h-62.372
			c-8.259,0-15.017-6.757-15.017-15.017s6.757-15.017,15.017-15.017h50.999h32.114h72.678h32.114h60.368
			c8.259,0,15.017,6.757,15.017,15.017S382.664,293.802,374.405,293.802z M374.405,235.738h-49.753h-32.114H198.63h-32.114h-40.384
			c-8.259,0-15.017-6.757-15.017-15.017c0-8.259,6.757-15.017,15.017-15.017h29.011l-30.954-81.742
			c-2.925-7.724,1.001-16.437,8.725-19.361h0c7.724-2.925,16.436,1.002,19.361,8.725l34.982,92.378H303.91l34.982-92.378
			c2.925-7.724,11.637-11.65,19.361-8.725c7.724,2.925,11.65,11.637,8.725,19.361l-30.954,81.742h38.38
			c8.259,0,15.017,6.757,15.017,15.017C389.422,228.98,382.664,235.738,374.405,235.738z"/>
	</g>
</switch>
</svg>
