<svg xmlns="http://www.w3.org/2000/svg" width="36" height="36" viewBox="0 0 36 36" fill="none">
<path d="M33.6532 9.72198L21.7956 30.2603C21.4371 30.8797 20.9219 31.394 20.3019 31.7515C19.6819 32.109 18.9788 32.2972 18.2631 32.2972C17.5474 32.2972 16.8443 32.109 16.2243 31.7515C15.6043 31.394 15.0892 30.8797 14.7307 30.2603L12.652 26.6627C12.6453 26.6537 12.6424 26.6425 12.644 26.6315C12.6456 26.6204 12.6515 26.6104 12.6604 26.6037C12.6694 26.597 12.6806 26.5942 12.6916 26.5957C12.7027 26.5973 12.7126 26.6032 12.7193 26.6122C13.0901 26.9782 13.5398 27.2546 14.0338 27.4202C14.5278 27.5858 15.0532 27.6362 15.5697 27.5676C16.0862 27.499 16.5802 27.3131 17.0138 27.0243C17.4475 26.7354 17.8093 26.3512 18.0717 25.901L27.9979 8.69107C28.2596 8.2367 28.4132 7.72819 28.4468 7.20493C28.4805 6.68167 28.3932 6.15768 28.1918 5.67355C27.9905 5.18942 27.6803 4.75814 27.2855 4.41309C26.8907 4.06804 26.4218 3.8185 25.915 3.68377C25.9039 3.68377 25.8932 3.67933 25.8853 3.67144C25.8774 3.66355 25.873 3.65285 25.873 3.64169C25.873 3.63053 25.8774 3.61983 25.8853 3.61194C25.8932 3.60405 25.9039 3.59961 25.915 3.59961H30.1229C30.839 3.60038 31.5422 3.78954 32.1621 4.14809C32.782 4.50664 33.2966 5.02196 33.6543 5.6423C34.012 6.26265 34.2002 6.9662 34.2 7.68229C34.1999 8.39839 34.0113 9.10183 33.6532 9.72198ZM19.6159 3.59961H15.5049C15.4965 3.60238 15.4892 3.60773 15.484 3.61491C15.4788 3.62209 15.476 3.63072 15.476 3.63959C15.476 3.64845 15.4788 3.65708 15.484 3.66426C15.4892 3.67144 15.4965 3.67679 15.5049 3.67956C15.7818 3.78651 16.0323 3.95198 16.2394 4.16467C16.4464 4.37735 16.6051 4.63224 16.7046 4.9119C16.8041 5.19156 16.842 5.4894 16.8158 5.78506C16.7896 6.08073 16.6998 6.36725 16.5527 6.62503L10.5607 16.9889C10.4059 17.2517 10.1948 17.477 9.94264 17.6485C9.69045 17.8201 9.4034 17.9337 9.10211 17.9811C8.80081 18.0286 8.49274 18.0088 8.20002 17.9231C7.9073 17.8373 7.63718 17.6879 7.40907 17.4854C7.40237 17.4765 7.39241 17.4706 7.38136 17.469C7.37031 17.4674 7.35909 17.4703 7.35016 17.477C7.34123 17.4837 7.33533 17.4937 7.33375 17.5047C7.33217 17.5157 7.33505 17.527 7.34174 17.5359L9.44565 21.1883C9.68187 21.5982 10.0219 21.9386 10.4315 22.1753C10.8411 22.4119 11.3058 22.5366 11.7789 22.5366C12.252 22.5366 12.7167 22.4119 13.1263 22.1753C13.5359 21.9386 13.8759 21.5982 14.1121 21.1883L21.9513 7.63912C22.1878 7.2295 22.3122 6.76482 22.3121 6.29183C22.3119 5.81884 22.1872 5.35424 21.9505 4.94476C21.7138 4.53528 21.3734 4.19537 20.9635 3.95923C20.5537 3.7231 20.0889 3.59906 19.6159 3.59961ZM5.34724 3.59961C4.64567 3.59961 3.95986 3.80765 3.37653 4.19742C2.79319 4.58719 2.33854 5.14119 2.07006 5.78935C1.80159 6.43751 1.73134 7.15074 1.86821 7.83882C2.00508 8.52691 2.34291 9.15896 2.839 9.65504C3.33508 10.1511 3.96713 10.489 4.65522 10.6258C5.3433 10.7627 6.05653 10.6925 6.70469 10.424C7.35285 10.1555 7.90685 9.70085 8.29662 9.11751C8.68639 8.53418 8.89443 7.84837 8.89443 7.1468C8.89498 6.68082 8.80361 6.21931 8.62554 5.7887C8.44748 5.35808 8.18621 4.96682 7.85672 4.63732C7.52722 4.30783 7.13596 4.04656 6.70534 3.8685C6.27473 3.69043 5.81322 3.59906 5.34724 3.59961Z" fill="url(#paint0_linear_273_10089)"/>
<defs>
<linearGradient id="paint0_linear_273_10089" x1="33.7856" y1="26.3093" x2="-3.26162" y2="1.15098" gradientUnits="userSpaceOnUse">
<stop stop-color="#5433FF"/>
<stop offset="0.5" stop-color="#20BDFF"/>
<stop offset="1" stop-color="#5CFFA2"/>
</linearGradient>
</defs>
</svg>