<svg width="20" height="18" viewBox="0 0 20 18" fill="none" xmlns="http://www.w3.org/2000/svg">
	<path d="M19.6624 3.77924L12.3429 16.4572C12.1216 16.8396 11.8036 17.157 11.4209 17.3777C11.0382 17.5984 10.6042 17.7145 10.1624 17.7145C9.72061 17.7145 9.28659 17.5984 8.90387 17.3777C8.52115 17.157 8.20319 16.8396 7.98186 16.4572L6.69874 14.2364C6.69461 14.2309 6.69283 14.224 6.69381 14.2172C6.69478 14.2104 6.69842 14.2042 6.70393 14.2001C6.70945 14.1959 6.71637 14.1942 6.72319 14.1951C6.73001 14.1961 6.73617 14.1998 6.7403 14.2053C6.96919 14.4312 7.24673 14.6018 7.55169 14.7041C7.85665 14.8063 8.18094 14.8374 8.49977 14.795C8.81861 14.7527 9.12353 14.638 9.39121 14.4597C9.6589 14.2814 9.88226 14.0442 10.0442 13.7663L16.1715 3.14288C16.3331 2.8624 16.4279 2.54851 16.4486 2.22551C16.4694 1.9025 16.4155 1.57906 16.2912 1.28021C16.1669 0.981365 15.9755 0.71514 15.7318 0.502148C15.4881 0.289157 15.1986 0.135115 14.8858 0.0519499C14.8789 0.0519499 14.8723 0.0492133 14.8674 0.0443422C14.8626 0.0394711 14.8598 0.0328645 14.8598 0.0259757C14.8598 0.0190869 14.8626 0.0124803 14.8674 0.0076092C14.8723 0.0027381 14.8789 1.54439e-06 14.8858 1.54439e-06H17.4832C17.9252 0.000477445 18.3594 0.11724 18.742 0.338567C19.1246 0.559893 19.4423 0.877991 19.6631 1.26092C19.8839 1.64385 20.0001 2.07814 20 2.52017C19.9999 2.96221 19.8835 3.39643 19.6624 3.77924ZM10.9975 1.54439e-06H8.45979C8.45459 0.00170959 8.45007 0.00501465 8.44686 0.00944553C8.44365 0.0138764 8.44193 0.0192069 8.44193 0.024677C8.44193 0.0301471 8.44365 0.0354776 8.44686 0.0399085C8.45007 0.0443394 8.45459 0.0476444 8.45979 0.0493525C8.63071 0.11537 8.78536 0.217514 8.91317 0.348801C9.04098 0.480089 9.13893 0.637425 9.20034 0.810054C9.26175 0.982684 9.28516 1.16654 9.26897 1.34905C9.25278 1.53156 9.19738 1.70842 9.10655 1.86754L5.40782 8.26498C5.31226 8.42721 5.18197 8.56626 5.02629 8.67216C4.87062 8.77806 4.69343 8.84818 4.50744 8.87748C4.32146 8.90678 4.13129 8.89454 3.9506 8.84163C3.76991 8.78872 3.60317 8.69647 3.46236 8.57148C3.45822 8.56597 3.45207 8.56232 3.44525 8.56135C3.43843 8.56038 3.43151 8.56215 3.42599 8.56628C3.42048 8.57042 3.41684 8.57657 3.41587 8.58339C3.41489 8.59021 3.41667 8.59714 3.4208 8.60265L4.71951 10.8572C4.86532 11.1102 5.07521 11.3203 5.32805 11.4664C5.58089 11.6126 5.86776 11.6895 6.15978 11.6895C6.45179 11.6895 6.73866 11.6126 6.9915 11.4664C7.24434 11.3203 7.45423 11.1102 7.60004 10.8572L12.439 2.49352C12.585 2.24067 12.6618 1.95383 12.6617 1.66187C12.6617 1.3699 12.5847 1.0831 12.4385 0.830338C12.2924 0.577572 12.0823 0.367752 11.8293 0.221989C11.5763 0.0762258 11.2894 -0.000337863 10.9975 1.54439e-06ZM2.18962 1.54439e-06C1.75656 1.54439e-06 1.33322 0.128421 0.973135 0.36902C0.613053 0.609618 0.332403 0.951591 0.166676 1.35169C0.000948741 1.75179 -0.0424131 2.19205 0.042074 2.6168C0.126561 3.04154 0.335102 3.4317 0.641327 3.73792C0.947551 4.04415 1.3377 4.25269 1.76245 4.33717C2.18719 4.42166 2.62745 4.3783 3.02756 4.21257C3.42766 4.04684 3.76963 3.7662 4.01023 3.40611C4.25083 3.04603 4.37925 2.62269 4.37925 2.18962C4.37959 1.90198 4.32319 1.6171 4.21327 1.35129C4.10335 1.08548 3.94208 0.843958 3.73868 0.640565C3.53529 0.437172 3.29377 0.275898 3.02796 0.16598C2.76215 0.0560627 2.47727 -0.000340276 2.18962 1.54439e-06Z" fill="#3A78FF"/>
</svg>
