<svg xmlns="http://www.w3.org/2000/svg" width="38" height="34" fill="none" xmlns:v="https://vecta.io/nano"><path d="M37.095 7.077L23.388 30.819c-.414.716-1.01 1.311-1.727 1.724s-1.529.631-2.357.631-1.64-.217-2.357-.631-1.312-1.008-1.727-1.724l-2.403-4.159c-.008-.01-.011-.023-.009-.036s.009-.024.019-.032.023-.011.036-.009.024.009.032.019a3.95 3.95 0 0 0 3.295 1.104 3.95 3.95 0 0 0 2.892-1.927L30.557 5.886a3.95 3.95 0 0 0 .224-3.488 3.95 3.95 0 0 0-2.632-2.3c-.013 0-.025-.005-.034-.014s-.014-.021-.014-.034.005-.025.014-.034S28.137 0 28.15 0h4.864a4.72 4.72 0 0 1 4.082 2.361c.414.717.631 1.53.631 2.358a4.72 4.72 0 0 1-.632 2.358zM20.868 0h-4.752c-.01.003-.018.009-.024.018s-.009.018-.009.029.003.02.009.029.015.014.024.018c.32.124.61.315.849.561s.423.54.538.864.159.668.129 1.009-.134.673-.304.971l-6.926 11.98a2.39 2.39 0 0 1-1.686 1.147 2.39 2.39 0 0 1-1.957-.573c-.008-.01-.019-.017-.032-.019s-.026.002-.036.009-.017.019-.019.032.002.026.009.036l2.432 4.222c.273.474.666.867 1.14 1.141s1.011.418 1.558.418 1.084-.144 1.557-.418.867-.667 1.14-1.141L23.568 4.67c.273-.474.417-1.011.417-1.557s-.144-1.084-.418-1.557A3.11 3.11 0 0 0 22.426.416C21.952.143 21.415-.001 20.868 0zM4.374 0A4.1 4.1 0 0 0 .586 2.531 4.1 4.1 0 0 0 1.474 7a4.1 4.1 0 0 0 4.469.889A4.1 4.1 0 0 0 8.474 4.1c.001-.539-.105-1.072-.311-1.57s-.508-.95-.889-1.331S6.442.517 5.944.311 4.913-.001 4.374 0z" fill="url(#A)"/><defs><linearGradient id="A" x1="37.248" y1="26.252" x2="-5.578" y2="-2.831" gradientUnits="userSpaceOnUse"><stop stop-color="#5433ff"/><stop offset=".5" stop-color="#20bdff"/><stop offset="1" stop-color="#5cffa2"/></linearGradient></defs></svg>