<svg width="24" height="24" viewBox="0 0 24 24" fill="none" xmlns="http://www.w3.org/2000/svg">
    <circle cx="12" cy="12" r="10" fill="transparent"/>
    <path d="M17.7975 9.3818L13.4058 16.9886C13.273 17.218 13.0822 17.4085 12.8526 17.5409C12.6229 17.6733 12.3625 17.743 12.0974 17.743C11.8324 17.743 11.572 17.6733 11.3423 17.5409C11.1127 17.4085 10.9219 17.218 10.7891 16.9886L10.0192 15.6561C10.0168 15.6528 10.0157 15.6487 10.0163 15.6446C10.0169 15.6405 10.0191 15.6368 10.0224 15.6343C10.0257 15.6318 10.0298 15.6308 10.0339 15.6313C10.038 15.6319 10.0417 15.6341 10.0442 15.6374C10.1815 15.773 10.348 15.8754 10.531 15.9367C10.714 15.998 10.9086 16.0167 11.0999 15.9913C11.2912 15.9659 11.4741 15.897 11.6347 15.7901C11.7953 15.6831 11.9294 15.5408 12.0265 15.374L15.7029 8.99998C15.7998 8.8317 15.8567 8.64336 15.8692 8.44956C15.8816 8.25576 15.8493 8.06169 15.7747 7.88238C15.7001 7.70308 15.5853 7.54334 15.4391 7.41555C15.2928 7.28775 15.1192 7.19533 14.9315 7.14543C14.9273 7.14543 14.9234 7.14379 14.9205 7.14086C14.9175 7.13794 14.9159 7.13398 14.9159 7.12984C14.9159 7.12571 14.9175 7.12175 14.9205 7.11882C14.9234 7.1159 14.9273 7.11426 14.9315 7.11426H16.4899C16.7551 7.11454 17.0156 7.1846 17.2452 7.3174C17.4748 7.45019 17.6654 7.64105 17.7979 7.87081C17.9304 8.10057 18.0001 8.36114 18 8.62636C17.9999 8.89158 17.9301 9.15212 17.7975 9.3818ZM12.5985 7.11426H11.0759C11.0728 7.11528 11.07 7.11727 11.0681 7.11993C11.0662 7.12258 11.0652 7.12578 11.0652 7.12906C11.0652 7.13235 11.0662 7.13554 11.0681 7.1382C11.07 7.14086 11.0728 7.14284 11.0759 7.14387C11.1784 7.18348 11.2712 7.24477 11.3479 7.32354C11.4246 7.40231 11.4834 7.49671 11.5202 7.60029C11.557 7.70387 11.5711 7.81418 11.5614 7.92369C11.5517 8.03319 11.5184 8.13931 11.4639 8.23478L9.24469 12.0732C9.18736 12.1706 9.10918 12.254 9.01578 12.3176C8.92237 12.3811 8.81606 12.4232 8.70447 12.4407C8.59287 12.4583 8.47877 12.451 8.37036 12.4192C8.26194 12.3875 8.1619 12.3321 8.07741 12.2571C8.07493 12.2538 8.07124 12.2517 8.06715 12.2511C8.06306 12.2505 8.0589 12.2515 8.0556 12.254C8.05229 12.2565 8.0501 12.2602 8.04952 12.2643C8.04893 12.2684 8.05 12.2725 8.05248 12.2758L8.8317 13.6286C8.91919 13.7804 9.04513 13.9065 9.19683 13.9941C9.34854 14.0818 9.52065 14.1279 9.69587 14.1279C9.87108 14.1279 10.0432 14.0818 10.1949 13.9941C10.3466 13.9065 10.4725 13.7804 10.56 13.6286L13.4634 8.61037C13.551 8.45866 13.5971 8.28656 13.597 8.11138C13.597 7.9362 13.5508 7.76412 13.4631 7.61246C13.3755 7.4608 13.2494 7.33491 13.0976 7.24745C12.9458 7.15999 12.7737 7.11406 12.5985 7.11426ZM7.31377 7.11426C7.05393 7.11426 6.79993 7.19131 6.58388 7.33567C6.36783 7.48003 6.19944 7.68521 6.10001 7.92527C6.00057 8.16533 5.97455 8.42949 6.02524 8.68434C6.07594 8.93918 6.20106 9.17328 6.3848 9.35701C6.56853 9.54075 6.80262 9.66587 7.05747 9.71656C7.31232 9.76725 7.57647 9.74124 7.81653 9.6418C8.05659 9.54236 8.26178 9.37397 8.40614 9.15793C8.5505 8.94188 8.62755 8.68787 8.62755 8.42803C8.62775 8.25545 8.59391 8.08452 8.52796 7.92503C8.46201 7.76554 8.36525 7.62063 8.24321 7.4986C8.12117 7.37656 7.97626 7.2798 7.81678 7.21385C7.65729 7.1479 7.48636 7.11405 7.31377 7.11426Z" fill="currentColor"/>
</svg>
