<svg viewBox="0 0 500 500" xmlns="http://www.w3.org/2000/svg">
    <g>
        <polygon fill="currentColor" points="245.58 359.73 270.55 293.8 220.62 293.8"/>
        <path fill="currentColor"
              d="m250.27 6.959c-134.35 0-243.27 108.92-243.27 243.27s108.92 243.27 243.27 243.27 243.27-108.92 243.27-243.27-108.91-243.27-243.27-243.27zm124.14 286.84h-71.741l-42.27 111.62c-2.358 6.228-8.479 9.98-14.811 9.669-6.331 0.31-12.452-3.442-14.811-9.669l-42.27-111.62h-62.372c-8.259 0-15.017-6.757-15.017-15.017s6.757-15.017 15.017-15.017h248.27c8.259 0 15.017 6.757 15.017 15.017s-6.756 15.017-15.015 15.017zm0-58.064h-248.27c-8.259 0-15.017-6.757-15.017-15.017 0-8.259 6.757-15.017 15.017-15.017h29.011l-30.954-81.742c-2.925-7.724 1.001-16.437 8.725-19.361 7.724-2.925 16.436 1.002 19.361 8.725l34.982 92.378h116.65l34.982-92.378c2.925-7.724 11.637-11.65 19.361-8.725s11.65 11.637 8.725 19.361l-30.954 81.742h38.38c8.259 0 15.017 6.757 15.017 15.017 1e-3 8.259-6.757 15.017-15.016 15.017z"/>
    </g>
</svg>
