<svg width="90" height="90" viewBox="0 0 90 90" fill="none" xmlns="http://www.w3.org/2000/svg">
<path d="M57.7921 0.859457L44.0996 8.60627C39.1503 11.4064 38.7098 18.3689 43.2671 21.7703L57.2474 32.2053C60.095 34.3305 59.8207 38.6808 56.7287 40.4317L44.1133 47.5759C39.1609 50.3805 38.7278 57.351 43.295 60.747L56.6052 70.6443C57.9864 71.6714 58.8003 73.291 58.8003 75.0119V75.4193C58.8003 76.6724 60.1531 77.4583 61.2416 76.838L75.0059 68.9926C79.9579 66.1703 80.3637 59.1849 75.7721 55.8079L61.8015 45.5332C58.9336 43.4239 59.1848 39.0612 62.2764 37.2952L75.0312 30.0086C79.9754 27.1843 80.3799 20.2079 75.7952 16.831L62.4438 6.99706C61.0513 5.97125 60.2289 4.34452 60.2289 2.61479V2.28058C60.2289 1.02998 58.8806 0.243632 57.7921 0.859457Z" fill="#075A5A"/>
<path d="M27.7675 13.1596L14.0749 20.9064C9.12558 23.7066 8.68524 30.6692 13.2424 34.0705L27.2227 44.5054C30.0702 46.6306 29.7959 50.9809 26.7041 52.7318L14.0885 59.8763C9.13622 62.6808 8.70313 69.6511 13.2702 73.0471L26.5805 82.9444C27.9616 83.9715 28.7756 85.5911 28.7756 87.312V87.7197C28.7756 88.9725 30.1284 89.7586 31.2169 89.1381L44.9813 81.2929C49.9331 78.4704 50.3391 71.485 45.7473 68.108L31.7769 57.8333C28.9088 55.724 29.1602 51.3613 32.2516 49.5953L45.0066 42.3089C49.9506 39.4844 50.3551 32.5081 45.7706 29.1312L32.4192 19.2972C31.0265 18.2714 30.2043 16.6447 30.2043 14.915V14.5808C30.2043 13.3302 28.8559 12.5438 27.7675 13.1596Z" fill="#075A5A"/>
</svg>
