<svg width="90" height="90" viewBox="0 0 90 90" fill="none" xmlns="http://www.w3.org/2000/svg">
<g clip-path="url(#clip0_1512_793)">
<path d="M42.4761 1.76359L11.8056 31.7209C9.39814 34.0725 9.39814 37.8849 11.8056 40.2364C14.213 42.5879 18.1163 42.5879 20.5238 40.2364L51.1944 10.279C53.6019 7.92756 53.6019 4.1151 51.1944 1.76359C48.787 -0.587864 44.8834 -0.587864 42.4761 1.76359Z" fill="black"/>
<path d="M67.4763 26.7636L36.8056 56.721C34.3981 59.0725 34.3981 62.8849 36.8056 65.2364C39.2131 67.5879 43.1163 67.5879 45.5238 65.2364L76.1944 35.2791C78.6019 32.9276 78.6019 29.1151 76.1944 26.7636C73.7869 24.4121 69.8838 24.4121 67.4763 26.7636Z" fill="black"/>
<path d="M45.721 22.8056L15.7636 53.4763C13.4121 55.8837 13.4121 59.7869 15.7636 62.1944C18.1151 64.6019 21.9276 64.6019 24.2791 62.1944L54.2364 31.5238C56.5879 29.1164 56.5879 25.2131 54.2364 22.8056C51.8849 20.3981 48.0725 20.3981 45.721 22.8056Z" fill="black"/>
<path d="M70.721 48.7636L40.7636 78.721C38.4121 81.0725 38.4121 84.8849 40.7636 87.2364C43.1151 89.5879 46.9275 89.5879 49.279 87.2364L79.2364 57.279C81.5879 54.9275 81.5879 51.1151 79.2364 48.7636C76.8849 46.4121 73.0725 46.4121 70.721 48.7636Z" fill="black"/>
</g>
<defs>
<clipPath id="clip0_1512_793">
<rect width="90" height="90" fill="white"/>
</clipPath>
</defs>
</svg>
