<svg xmlns="http://www.w3.org/2000/svg" width="20" height="20" viewBox="0 0 20 20" fill="none">
  <g clip-path="url(#clip0_3527_63128)">
    <path d="M9.997 16.0132C14.4125 16.0132 17.992 12.4285 17.992 8.00659C17.992 3.58467 14.4125 0 9.997 0C5.58146 0 2.00195 3.58467 2.00195 8.00659C2.00195 12.4285 5.58146 16.0132 9.997 16.0132Z" fill="#DEDEDE"/>
    <path d="M6.39836 20.0001C8.82751 20.0001 10.7967 18.028 10.7967 15.5954C10.7967 13.1627 8.82751 11.1907 6.39836 11.1907C3.96921 11.1907 2 13.1627 2 15.5954C2 18.028 3.96921 20.0001 6.39836 20.0001Z" fill="#1E4480"/>
    <path d="M6.89723 11.2348C9.0923 11.482 10.7987 13.3466 10.7988 15.6109C10.7988 15.7334 10.7919 15.8547 10.7821 15.9746C10.5238 15.9998 10.262 16.0133 9.99713 16.0133C7.22151 16.0133 4.77651 14.5965 3.34302 12.446C4.02559 11.7849 4.921 11.3425 5.91668 11.2334V1.12011C6.23036 0.933347 6.55778 0.767352 6.89723 0.624268V11.2348Z" fill="#152E51"/>
  </g>
  <defs>
    <clipPath id="clip0_3527_63128">
      <rect width="20" height="20" fill="white"/>
    </clipPath>
  </defs>
</svg>
