<svg width="60" height="60" viewBox="0 0 60 60" fill="none" xmlns="http://www.w3.org/2000/svg">
<circle cx="30" cy="30" r="30" fill="#1F2028"/>
<path d="M47.3924 23.6055L34.2173 46.4259C33.8189 47.1141 33.2465 47.6855 32.5577 48.0827C31.8688 48.4799 31.0875 48.689 30.2923 48.689C29.4971 48.689 28.7159 48.4799 28.027 48.0827C27.3381 47.6855 26.7657 47.1141 26.3674 46.4259L24.0577 42.4285C24.0503 42.4185 24.0471 42.4061 24.0489 42.3938C24.0506 42.3815 24.0572 42.3704 24.0671 42.363C24.077 42.3556 24.0895 42.3524 24.1017 42.3541C24.114 42.3559 24.1251 42.3624 24.1325 42.3724C24.5445 42.7791 25.0441 43.0862 25.593 43.2702C26.142 43.4542 26.7257 43.5102 27.2996 43.4339C27.8735 43.3577 28.4223 43.1512 28.9042 42.8302C29.386 42.5093 29.7881 42.0824 30.0796 41.5822L41.1087 22.46C41.3995 21.9552 41.5702 21.3902 41.6075 20.8088C41.6449 20.2274 41.548 19.6452 41.3242 19.1072C41.1004 18.5693 40.7559 18.0901 40.3172 17.7067C39.8785 17.3233 39.3575 17.0461 38.7944 16.8964C38.782 16.8964 38.7701 16.8914 38.7614 16.8827C38.7526 16.8739 38.7477 16.862 38.7477 16.8496C38.7477 16.8372 38.7526 16.8253 38.7614 16.8166C38.7701 16.8078 38.782 16.8029 38.7944 16.8029H43.4698C44.2654 16.8037 45.0469 17.0139 45.7356 17.4123C46.4244 17.8107 46.9962 18.3832 47.3936 19.0725C47.7911 19.7618 48.0002 20.5435 48 21.3392C47.9998 22.1348 47.7902 22.9164 47.3924 23.6055V23.6055ZM31.7954 16.8029H27.2276C27.2183 16.8059 27.2101 16.8119 27.2043 16.8199C27.1986 16.8278 27.1955 16.8374 27.1955 16.8473C27.1955 16.8571 27.1986 16.8667 27.2043 16.8747C27.2101 16.8827 27.2183 16.8886 27.2276 16.8917C27.5353 17.0105 27.8136 17.1944 28.0437 17.4307C28.2738 17.667 28.4501 17.9502 28.5606 18.261C28.6711 18.5717 28.7133 18.9026 28.6841 19.2311C28.655 19.5597 28.5553 19.878 28.3918 20.1644L21.7341 31.6798C21.5621 31.9718 21.3275 32.2221 21.0473 32.4127C20.7671 32.6034 20.4482 32.7296 20.1134 32.7823C19.7786 32.8351 19.4363 32.813 19.1111 32.7178C18.7858 32.6226 18.4857 32.4565 18.2322 32.2315C18.2248 32.2216 18.2137 32.215 18.2015 32.2133C18.1892 32.2115 18.1767 32.2147 18.1668 32.2222C18.1569 32.2296 18.1503 32.2407 18.1486 32.253C18.1468 32.2652 18.15 32.2777 18.1574 32.2876L20.4951 36.3458C20.7576 36.8012 21.1354 37.1795 21.5905 37.4425C22.0456 37.7055 22.562 37.8439 23.0876 37.8439C23.6132 37.8439 24.1296 37.7055 24.5847 37.4425C25.0398 37.1795 25.4176 36.8012 25.6801 36.3458L34.3903 21.2912C34.653 20.8361 34.7913 20.3198 34.7911 19.7942C34.791 19.2687 34.6524 18.7524 34.3894 18.2975C34.1264 17.8425 33.7481 17.4648 33.2928 17.2024C32.8374 16.9401 32.321 16.8022 31.7954 16.8029V16.8029ZM15.9413 16.8029C15.1618 16.8029 14.3998 17.034 13.7516 17.4671C13.1035 17.9002 12.5983 18.5157 12.3 19.2359C12.0017 19.9561 11.9237 20.7486 12.0757 21.5131C12.2278 22.2776 12.6032 22.9799 13.1544 23.5311C13.7056 24.0823 14.4079 24.4577 15.1724 24.6098C15.937 24.7618 16.7294 24.6838 17.4496 24.3855C18.1698 24.0872 18.7853 23.582 19.2184 22.9339C19.6515 22.2857 19.8826 21.5237 19.8826 20.7442C19.8833 20.2264 19.7817 19.7136 19.5839 19.2352C19.386 18.7567 19.0957 18.322 18.7296 17.9559C18.3635 17.5898 17.9288 17.2995 17.4503 17.1016C16.9719 16.9038 16.4591 16.8022 15.9413 16.8029V16.8029Z" fill="url(#paint0_linear_1522_10248)"/>
<defs>
<linearGradient id="paint0_linear_1522_10248" x1="47.5395" y1="42.0359" x2="6.37592" y2="14.0822" gradientUnits="userSpaceOnUse">
<stop stop-color="#5433FF"/>
<stop offset="0.5" stop-color="#20BDFF"/>
<stop offset="1" stop-color="#5CFFA2"/>
</linearGradient>
</defs>
</svg>
