<svg width="24" height="24" viewBox="0 0 24 24" fill="none" xmlns="http://www.w3.org/2000/svg">
<g clip-path="url(#clip0_836_6263)">
<path d="M8.80068 17.4597C10.1468 17.4597 11.2381 16.4155 11.2381 15.1274C11.2381 13.8394 10.1468 12.7953 8.80068 12.7953C7.45454 12.7953 6.36328 13.8394 6.36328 15.1274C6.36328 16.4155 7.45454 17.4597 8.80068 17.4597Z" fill="#9896FF"/>
<path d="M15.1712 17.4597C16.5174 17.4597 17.6087 16.4155 17.6087 15.1274C17.6087 13.8394 16.5174 12.7953 15.1712 12.7953C13.8252 12.7953 12.7339 13.8394 12.7339 15.1274C12.7339 16.4155 13.8252 17.4597 15.1712 17.4597Z" fill="#9896FF"/>
<path d="M11.982 5.5C5.36388 5.5 -0.00173192 10.7318 4.19356e-07 17.1836H3.06103C3.06103 12.3485 7.02346 8.42835 11.982 8.42835C16.9405 8.42835 20.9029 12.3485 20.9029 17.1836H23.9639C23.9651 10.7318 18.5995 5.5 11.982 5.5Z" fill="#9896FF"/>
</g>
<defs>
<clipPath id="clip0_836_6263">
<rect width="24" height="12" fill="white" transform="translate(0 5.5)"/>
</clipPath>
</defs>
</svg>
