<svg width="24" height="24" viewBox="0 0 24 24" fill="none" xmlns="http://www.w3.org/2000/svg">
<g clip-path="url(#clip0_836_6855)">
<mask id="mask0_836_6855" style="mask-type:luminance" maskUnits="userSpaceOnUse" x="1" y="2" width="22" height="20">
<path d="M22.1885 2.5H1.81165V21.5H22.1885V2.5Z" fill="white"/>
</mask>
<g mask="url(#mask0_836_6855)">
<path d="M4.19092 15.3389V20.809C4.19092 21.1458 4.4759 21.2855 4.56457 21.3173C4.65323 21.3554 4.95087 21.438 5.21684 21.1902L9.35498 17.2135C9.70739 16.8749 10.0475 16.5189 10.3031 16.1024C10.4234 15.9066 10.4733 15.7964 10.4733 15.7964C10.7266 15.2817 10.7266 14.7862 10.4795 14.2906C10.1123 13.5537 9.17498 12.804 7.76267 12.0924L5.34984 13.4393C4.63423 13.8459 4.19092 14.5638 4.19092 15.3389Z" fill="#004EC3"/>
<path d="M1.81165 3.17253V8.90951C1.81165 9.6274 2.29296 10.2627 2.97694 10.466C5.30748 11.1395 9.3669 12.588 10.3485 14.7163C10.4751 14.9959 10.5511 15.2691 10.5766 15.555C11.2289 14.3669 11.5265 13.0009 11.3872 11.616C11.1971 9.65282 10.1585 7.86756 8.53732 6.73034L2.75527 2.68333C2.65393 2.60709 2.53361 2.56897 2.41328 2.56897C2.31195 2.56897 2.22328 2.58803 2.1283 2.63886C1.9383 2.74686 1.81165 2.94381 1.81165 3.17253Z" fill="#2470FF"/>
<path d="M19.5823 15.3389V20.809C19.5823 21.1458 19.2974 21.2855 19.2086 21.3173C19.1201 21.3554 18.8222 21.438 18.5563 21.1902L14.3219 17.121C14.0336 16.8439 13.7584 16.551 13.5412 16.2152C13.3693 15.9495 13.3 15.7964 13.3 15.7964C13.0466 15.2817 13.0466 14.7862 13.2935 14.2906C13.6609 13.5537 14.5983 12.804 16.0103 12.0924L18.4233 13.4393C19.1453 13.8459 19.5823 14.5638 19.5823 15.3389Z" fill="#004EC3"/>
<path d="M21.9654 3.17204V8.90901C21.9654 9.6269 21.484 10.2622 20.8 10.4655C18.4696 11.139 14.4102 12.5875 13.4285 14.7158C13.3017 14.9954 13.2257 15.2686 13.2004 15.5545C12.5482 14.3664 12.2505 13.0005 12.3899 11.6155C12.5797 9.65232 13.6184 7.86709 15.2397 6.72985L21.0218 2.68284C21.1231 2.6066 21.2434 2.56848 21.3637 2.56848C21.465 2.56848 21.5538 2.58754 21.6486 2.63837C21.8386 2.74637 21.9654 2.94332 21.9654 3.17204Z" fill="#2470FF"/>
</g>
</g>
<defs>
<clipPath id="clip0_836_6855">
<rect width="20.3768" height="19" fill="white" transform="translate(1.81165 2.5)"/>
</clipPath>
</defs>
</svg>
