<svg width="351" height="589" viewBox="0 0 351 589" fill="none" xmlns="http://www.w3.org/2000/svg">
<path fill-rule="evenodd" clip-rule="evenodd" d="M24.6328 277.058L169.966 210.383L180.808 234.015L35.4744 300.689L24.6328 277.058Z" fill="#9FDB6F"/>
<path fill-rule="evenodd" clip-rule="evenodd" d="M180.809 210.385L326.073 277.06L315.227 300.689L169.963 234.015L180.809 210.385Z" fill="#D28ECA"/>
<path fill-rule="evenodd" clip-rule="evenodd" d="M175.387 406.425V0L0 299.706L175.387 406.425ZM149.387 360.17V95.9076L35.3484 290.78L149.387 360.17Z" fill="#FFE94D"/>
<path fill-rule="evenodd" clip-rule="evenodd" d="M175.387 406.425L350.705 299.706L175.387 0V406.425ZM201.387 95.9401V360.16L315.363 290.782L201.387 95.9401Z" fill="#FF9C92"/>
<path fill-rule="evenodd" clip-rule="evenodd" d="M175.387 588.407V440.648L0 333.93L175.387 588.407ZM149.387 504.866V455.263L90.509 419.437L149.387 504.866Z" fill="#53D3E0"/>
<path fill-rule="evenodd" clip-rule="evenodd" d="M175.387 588.407L350.843 333.93L175.387 440.648V588.407ZM260.316 419.423L201.387 455.266V504.893L260.316 419.423Z" fill="#5A9DED"/>
</svg>
