<svg width="201" height="50" viewBox="0 0 201 50" fill="none" xmlns="http://www.w3.org/2000/svg">
<path fill-rule="evenodd" clip-rule="evenodd" d="M41.657 8.10212L41.9099 9.68265C42.0996 11.1367 42.1944 12.5908 42.1628 14.0765C42.1628 17.3324 41.7834 20.5567 41.0248 23.7177C40.0133 27.9852 38.2431 32.0629 35.809 35.7298C32.9957 39.9024 28.9179 43.9801 23.0067 47.3309L22.2797 47.7418L21.5527 47.3309C15.6415 44.0433 11.5637 39.934 8.75037 35.7298C6.28474 32.0629 4.54616 28.0168 3.53462 23.7177C2.77596 20.5567 2.39664 17.3324 2.39664 14.0765C2.39664 12.6224 2.45986 11.1367 2.64952 9.68265L2.8708 8.10212C2.90241 7.97568 2.90241 7.84924 2.8708 7.72279C2.83918 7.59635 2.80757 7.46991 2.71274 7.37507C2.64952 7.28024 2.55469 7.18541 2.45986 7.12219C2.36502 7.05897 2.23858 7.02736 2.14375 6.99575C2.01731 6.96414 1.89087 6.96414 1.76442 6.99575C1.63798 7.02736 1.51154 7.09058 1.41671 7.1538C1.32188 7.21702 1.22704 7.31186 1.16382 7.40669C1.1006 7.53313 1.06899 7.65957 1.03738 7.78601L0.784496 9.36654C0.594832 10.9154 0.5 12.496 0.5 14.0765C0.5 17.4905 0.910939 20.8728 1.7012 24.1919C2.23858 26.4363 2.96563 28.649 3.88233 30.7669C4.79904 32.8848 5.90541 34.9079 7.20145 36.8361C10.1728 41.2616 14.4719 45.5923 20.6676 49.0062L21.8372 49.67C21.9952 49.7333 22.1533 49.7649 22.3113 49.7649C22.4694 49.7649 22.6274 49.7333 22.7855 49.67L23.9551 49.0062C30.1191 45.5607 34.4498 41.23 37.4212 36.8361C40.0133 32.9796 41.8783 28.6806 42.9214 24.1919C43.7117 20.8728 44.091 17.4905 44.091 14.0765C44.091 12.496 43.9962 10.9154 43.8065 9.33494L43.5536 7.75441C43.522 7.62796 43.4904 7.50152 43.4272 7.37507C43.364 7.28024 43.2691 7.18541 43.1743 7.12219C43.0795 7.05897 42.953 6.99575 42.8266 6.96414C42.7002 6.93253 42.5737 6.93253 42.4473 6.96414C42.3208 6.99575 42.1944 7.02736 42.0679 7.09058C41.9731 7.1538 41.8783 7.24864 41.8151 7.34347C41.7518 7.4383 41.6886 7.56474 41.657 7.69118V8.10212Z" fill="#D8AC5C"/>
<path fill-rule="evenodd" clip-rule="evenodd" d="M8.18167 7.02759L22.3432 2.57049L36.7893 7.12242C36.9157 7.15403 37.0422 7.15403 37.1686 7.15403C37.295 7.15403 37.4215 7.12242 37.5479 7.0592C37.6744 6.99598 37.7692 6.93276 37.864 6.80632C37.9589 6.71148 38.0221 6.58504 38.0221 6.4586C38.0537 6.33216 38.0537 6.20571 38.0537 6.07927C38.0537 5.95283 38.0221 5.82639 37.9589 5.69995C37.8956 5.5735 37.8324 5.47867 37.7376 5.38384C37.6428 5.28901 37.5163 5.22579 37.3899 5.22579L22.6277 0.547416C22.4381 0.484195 22.2484 0.484195 22.0587 0.547416L7.64429 5.09934C7.51785 5.13095 7.42302 5.19417 7.29657 5.25739C7.20174 5.35223 7.10691 5.44706 7.0753 5.5735C7.01208 5.69994 6.98047 5.82638 6.98047 5.95283C6.98047 6.07927 6.98047 6.20572 7.01208 6.33216C7.04369 6.4586 7.10691 6.58504 7.17013 6.67987C7.23335 6.7747 7.3598 6.86954 7.48624 6.93276C7.58107 6.99598 7.70751 7.02759 7.86557 7.02759C7.92879 7.0592 8.05523 7.0592 8.18167 7.02759Z" fill="#D8AC5C"/>
<path fill-rule="evenodd" clip-rule="evenodd" d="M1.1952 8.38684L21.4576 49.2277C21.5208 49.3857 21.6473 49.5122 21.7737 49.607C22.0898 49.7967 22.4691 49.7967 22.7852 49.607C22.9433 49.5122 23.0697 49.3857 23.1646 49.2277L35.5243 25.3617L35.5559 25.3301L43.4586 8.35522C43.5218 8.22878 43.5534 8.10234 43.5534 7.9759C43.5534 7.84946 43.5534 7.72301 43.4902 7.59657C43.4586 7.47013 43.3954 7.34369 43.3005 7.24885C43.2373 7.15402 43.1109 7.05919 43.016 6.99597C42.9212 6.93275 42.7948 6.90113 42.6367 6.90113C42.5103 6.90113 42.3838 6.90114 42.2574 6.93275C42.1309 6.96436 42.0045 7.02758 41.9097 7.12241C41.8148 7.21724 41.72 7.31208 41.6884 7.43852L33.7857 24.4134L22.2795 46.6356L2.87056 7.43852C2.80734 7.34369 2.71251 7.21724 2.64929 7.12241C2.55446 7.02758 2.42801 6.96436 2.30157 6.93275C2.17513 6.86953 2.04869 6.86952 1.92224 6.90113C1.7958 6.90113 1.66936 6.93275 1.54292 6.99597C1.44808 7.05919 1.32164 7.15402 1.25842 7.24885C1.1952 7.34369 1.13198 7.47013 1.10037 7.59657C1.06876 7.72301 1.03715 7.84946 1.06876 7.9759C1.10037 8.13395 1.13198 8.26039 1.1952 8.38684Z" fill="#D8AC5C"/>
<path fill-rule="evenodd" clip-rule="evenodd" d="M10.8992 26.5947H33.4692C33.5956 26.5947 33.7221 26.5631 33.8485 26.5314C33.975 26.4998 34.0698 26.405 34.133 26.3102C34.2278 26.2153 34.2911 26.1205 34.3227 25.9941C34.4175 25.7412 34.4175 25.4883 34.3227 25.2354C34.2911 25.109 34.1962 25.0141 34.133 24.9193C34.0382 24.8245 33.9433 24.7613 33.8485 24.698C33.7221 24.6664 33.5956 24.6348 33.4692 24.6348H10.8992C10.7728 24.6348 10.6463 24.6664 10.5199 24.698C10.3935 24.7296 10.2986 24.8245 10.2354 24.9193C10.1406 25.0141 10.0773 25.109 10.0457 25.2354C9.9509 25.4883 9.9509 25.7412 10.0457 25.9941C10.0773 26.1205 10.1406 26.2153 10.2354 26.3102C10.3302 26.405 10.4251 26.4682 10.5199 26.5314C10.6463 26.5631 10.7728 26.5631 10.8992 26.5947Z" fill="#D8AC5C"/>
<path fill-rule="evenodd" clip-rule="evenodd" d="M73.8044 18.0913H59.137C59.0106 18.0913 58.8842 18.1229 58.7577 18.1545C58.6313 18.1861 58.5364 18.281 58.4732 18.3758C58.3784 18.4706 58.3152 18.5655 58.2836 18.6919C58.2519 18.8184 58.2203 18.9448 58.2203 19.0712V31.2413C58.2203 31.3678 58.2519 31.4942 58.2836 31.6207C58.3152 31.7471 58.3784 31.8419 58.4732 31.9368C58.5681 32.0316 58.6629 32.0948 58.7577 32.158C58.8842 32.1896 59.0106 32.2213 59.137 32.2213H73.8044V34.2759H59.137C58.9474 34.2759 58.7577 34.2443 58.5681 34.2127C58.3784 34.1811 58.1887 34.1179 57.9991 34.0547C57.8094 33.9914 57.6513 33.8966 57.4933 33.8018C57.3352 33.6753 57.2088 33.5489 57.0507 33.4225C56.7662 33.138 56.5766 32.8219 56.4185 32.4741C56.3553 32.2845 56.2921 32.0948 56.2605 31.9051C56.2289 31.7155 56.1973 31.5258 56.1973 31.3362V19.1029C56.1973 18.9132 56.2289 18.7235 56.2605 18.5339C56.2921 18.3442 56.3553 18.1545 56.4185 17.9649C56.4818 17.7752 56.5766 17.5855 56.6714 17.4275C56.7663 17.2694 56.8927 17.1114 57.0507 16.9849C57.1772 16.8585 57.3352 16.7321 57.4933 16.6056C57.6513 16.5108 57.8094 16.4159 57.9991 16.3527C58.1887 16.2895 58.3784 16.2263 58.5681 16.1947C58.7577 16.1631 58.9474 16.1315 59.137 16.1315H73.8044V18.0913ZM101.337 16.0366V18.0913H87.2073V24.1289H98.5555V26.2152H87.2073V32.2529H101.337V34.3076H85.2474V16.0366H101.337Z" fill="white"/>
<path d="M130.452 19.1347V24.4769C130.452 24.6665 130.421 24.8562 130.389 25.0458C130.357 25.2355 130.294 25.4252 130.231 25.6148C130.168 25.8045 130.073 25.9942 129.978 26.1522C129.852 26.3103 129.757 26.4683 129.599 26.5948C129.472 26.7212 129.314 26.8477 129.156 26.9741C128.998 27.0689 128.84 27.1638 128.65 27.227C128.461 27.2902 128.271 27.3534 128.081 27.4166C127.892 27.4483 127.702 27.4799 127.512 27.4799H124.826L130.357 34.2761H127.702L122.202 27.4799H115.753C115.437 27.4799 115.121 27.4483 114.805 27.385V34.2761H112.813V16.0684H127.544C127.734 16.0684 127.923 16.1001 128.113 16.1317C128.303 16.1633 128.492 16.2265 128.682 16.2897C128.872 16.3529 129.03 16.4478 129.188 16.5742C129.504 16.7955 129.757 17.08 129.978 17.3961C130.073 17.5541 130.168 17.7438 130.231 17.9335C130.294 18.1231 130.357 18.3128 130.389 18.5025C130.421 18.7237 130.452 18.945 130.452 19.1347ZM115.722 25.4568H127.512C127.639 25.4568 127.765 25.4252 127.892 25.3936C128.018 25.362 128.113 25.2987 128.176 25.1723C128.271 25.0775 128.334 24.9826 128.366 24.8562C128.398 24.7297 128.429 24.6033 128.429 24.4769V19.1347C128.429 18.8818 128.334 18.6289 128.176 18.4392C128.018 18.2496 127.765 18.1231 127.512 18.1231H115.722C115.595 18.1231 115.469 18.1547 115.342 18.1864C115.216 18.218 115.121 18.3128 115.058 18.4076C114.963 18.5025 114.9 18.5973 114.868 18.7237C114.837 18.8502 114.805 18.9766 114.805 19.1031V24.4452C114.805 24.6981 114.9 24.951 115.121 25.1407C115.247 25.3303 115.5 25.4568 115.722 25.4568Z" fill="white"/>
<path fill-rule="evenodd" clip-rule="evenodd" d="M141.008 16.0366H158.647V18.0913H150.839V34.2759H148.847V18.0913H141.008V16.0366ZM169.394 34.3076V16.0682H171.386V34.3076H169.394ZM197.907 16.0366H200.467L193.102 25.1721L200.499 34.3076H197.907L191.332 26.2152H185.642V34.3076H183.651V16.0682H185.674V24.1605H191.363L197.907 16.0366Z" fill="white"/>
</svg>
