<svg width="125" height="18" viewBox="0 0 125 18" fill="none" xmlns="http://www.w3.org/2000/svg">
<mask id="mask0_1916_2611" style="mask-type:luminance" maskUnits="userSpaceOnUse" x="0" y="0" width="125" height="18">
<path d="M124.5 0.5H0.5V17.5725H124.5V0.5Z" fill="white"/>
</mask>
<g mask="url(#mask0_1916_2611)">
<path d="M0.518921 17.4442V1.27032H6.31842C7.67395 1.27032 8.83693 1.48597 9.80737 1.91727C10.7778 2.34858 11.5249 2.97243 12.0486 3.78882C12.5723 4.58982 12.8342 5.56795 12.8342 6.72323C12.8342 7.84771 12.5723 8.81814 12.0486 9.63454C11.5249 10.4509 10.7778 11.0748 9.80737 11.5061C8.83693 11.9374 7.67395 12.153 6.31842 12.153H1.16588L1.69731 11.5985V17.4442H0.518921ZM1.69731 11.6678L1.16588 11.0902H6.31842C8.05904 11.0902 9.37606 10.7128 10.2695 9.95802C11.1783 9.18783 11.6327 8.10957 11.6327 6.72323C11.6327 5.32149 11.1783 4.24323 10.2695 3.48845C9.37606 2.71827 8.05904 2.33317 6.31842 2.33317H1.16588L1.69731 1.75553V11.6678ZM21.2711 17.5366C20.0542 17.5366 18.976 17.2748 18.0364 16.751C17.1121 16.2273 16.3805 15.5033 15.8413 14.5791C15.3176 13.6549 15.0557 12.5997 15.0557 11.4136C15.0557 10.2122 15.3022 9.15702 15.7951 8.2482C16.3034 7.32398 16.9966 6.6 17.8746 6.07628C18.7526 5.55255 19.7385 5.29069 20.8321 5.29069C21.9258 5.29069 22.9039 5.54485 23.7665 6.05317C24.6446 6.56149 25.33 7.27777 25.8229 8.20199C26.3313 9.11081 26.5854 10.166 26.5854 11.3674C26.5854 11.4136 26.5777 11.4676 26.5623 11.5292C26.5623 11.5754 26.5623 11.6293 26.5623 11.6909H15.9106V10.7898H25.9385L25.4764 11.2288C25.4918 10.2892 25.2915 9.44969 24.8756 8.71031C24.4751 7.95553 23.9283 7.37019 23.2351 6.95429C22.5419 6.52299 21.741 6.30733 20.8321 6.30733C19.9387 6.30733 19.1377 6.52299 18.4292 6.95429C17.736 7.37019 17.1892 7.95553 16.7887 8.71031C16.3882 9.44969 16.1879 10.2969 16.1879 11.2519V11.4599C16.1879 12.4457 16.4036 13.3237 16.8349 14.0939C17.2816 14.8487 17.89 15.4417 18.6602 15.873C19.4304 16.2889 20.3084 16.4969 21.2942 16.4969C22.0644 16.4969 22.7807 16.3582 23.4431 16.081C24.1208 15.8037 24.6908 15.3801 25.1529 14.8102L25.8229 15.5727C25.2992 16.2196 24.6369 16.7125 23.8359 17.0514C23.0503 17.3749 22.1954 17.5366 21.2711 17.5366ZM33.2094 17.5366C32.2082 17.5366 31.2685 17.3903 30.3905 17.0976C29.5279 16.805 28.8579 16.4353 28.3803 15.9886L28.9118 15.0643C29.3739 15.4648 29.99 15.8114 30.7602 16.1041C31.5304 16.3814 32.3622 16.52 33.2556 16.52C34.5187 16.52 35.4276 16.312 35.9821 15.8961C36.5366 15.4802 36.8139 14.9334 36.8139 14.2556C36.8139 13.7627 36.6675 13.3776 36.3749 13.1004C36.0976 12.8077 35.7202 12.5843 35.2427 12.4303C34.7652 12.2763 34.2415 12.153 33.6715 12.0606C33.1016 11.9528 32.5317 11.8373 31.9617 11.714C31.3918 11.5908 30.868 11.4136 30.3905 11.1826C29.913 10.9515 29.5279 10.6358 29.2353 10.2353C28.958 9.81938 28.8194 9.27255 28.8194 8.59479C28.8194 7.97864 28.9888 7.4241 29.3277 6.93118C29.6666 6.43826 30.1749 6.04547 30.8526 5.7528C31.5304 5.44472 32.3776 5.29069 33.3943 5.29069C34.149 5.29069 34.9038 5.39851 35.6586 5.61417C36.4288 5.82982 37.0526 6.11479 37.5302 6.46907L36.9987 7.3933C36.4904 7.0082 35.9205 6.73094 35.2889 6.5615C34.6574 6.39205 34.0181 6.30733 33.3712 6.30733C32.2005 6.30733 31.3379 6.52299 30.7833 6.95429C30.2442 7.38559 29.9746 7.92472 29.9746 8.57168C29.9746 9.08 30.1133 9.4882 30.3905 9.79628C30.6832 10.089 31.0683 10.32 31.5458 10.4895C32.0233 10.6435 32.5471 10.7744 33.117 10.8822C33.6869 10.9746 34.2569 11.0825 34.8268 11.2057C35.3967 11.3289 35.9205 11.5061 36.398 11.7371C36.8755 11.9528 37.2529 12.2609 37.5302 12.6614C37.8228 13.0464 37.9692 13.5702 37.9692 14.2325C37.9692 14.8949 37.7843 15.4725 37.4146 15.9655C37.0603 16.4584 36.5289 16.8435 35.8204 17.1207C35.1118 17.398 34.2415 17.5366 33.2094 17.5366ZM44.2432 17.5366C43.242 17.5366 42.3024 17.3903 41.4244 17.0976C40.5617 16.805 39.8917 16.4353 39.4142 15.9886L39.9456 15.0643C40.4077 15.4648 41.0239 15.8114 41.794 16.1041C42.5642 16.3814 43.396 16.52 44.2894 16.52C45.5526 16.52 46.4614 16.312 47.0159 15.8961C47.5704 15.4802 47.8477 14.9334 47.8477 14.2556C47.8477 13.7627 47.7014 13.3776 47.4087 13.1004C47.1314 12.8077 46.754 12.5843 46.2765 12.4303C45.799 12.2763 45.2753 12.153 44.7053 12.0606C44.1354 11.9528 43.5655 11.8373 42.9955 11.714C42.4256 11.5908 41.9019 11.4136 41.4244 11.1826C40.9468 10.9515 40.5617 10.6358 40.2691 10.2353C39.9918 9.81938 39.8532 9.27255 39.8532 8.59479C39.8532 7.97864 40.0226 7.4241 40.3615 6.93118C40.7004 6.43826 41.2087 6.04547 41.8865 5.7528C42.5642 5.44472 43.4114 5.29069 44.4281 5.29069C45.1829 5.29069 45.9376 5.39851 46.6924 5.61417C47.4626 5.82982 48.0865 6.11479 48.564 6.46907L48.0326 7.3933C47.5242 7.0082 46.9543 6.73094 46.3227 6.5615C45.6912 6.39205 45.0519 6.30733 44.405 6.30733C43.2343 6.30733 42.3717 6.52299 41.8171 6.95429C41.278 7.38559 41.0084 7.92472 41.0084 8.57168C41.0084 9.08 41.1471 9.4882 41.4244 9.79628C41.717 10.089 42.1021 10.32 42.5796 10.4895C43.0571 10.6435 43.5809 10.7744 44.1508 10.8822C44.7207 10.9746 45.2907 11.0825 45.8606 11.2057C46.4306 11.3289 46.9543 11.5061 47.4318 11.7371C47.9093 11.9528 48.2867 12.2609 48.564 12.6614C48.8566 13.0464 49.003 13.5702 49.003 14.2325C49.003 14.8949 48.8181 15.4725 48.4484 15.9655C48.0942 16.4584 47.5627 16.8435 46.8542 17.1207C46.1456 17.398 45.2753 17.5366 44.2432 17.5366ZM52.2271 17.4442V5.38311H53.3824V17.4442H52.2271ZM52.8048 2.4487C52.5429 2.4487 52.3195 2.35628 52.1347 2.17143C51.9498 1.98659 51.8574 1.77093 51.8574 1.52448C51.8574 1.26262 51.9498 1.03926 52.1347 0.854415C52.3195 0.66957 52.5429 0.577148 52.8048 0.577148C53.082 0.577148 53.3054 0.66957 53.4748 0.854415C53.6597 1.02386 53.7521 1.23951 53.7521 1.50137C53.7521 1.76323 53.6597 1.98659 53.4748 2.17143C53.3054 2.35628 53.082 2.4487 52.8048 2.4487ZM73.2703 5.29069C74.2407 5.29069 75.0802 5.48323 75.7888 5.86833C76.5127 6.23802 77.075 6.80795 77.4755 7.57814C77.876 8.33292 78.0762 9.27255 78.0762 10.397V17.4442H76.921V10.4895C76.921 9.13392 76.5898 8.10187 75.9274 7.3933C75.2651 6.68472 74.3408 6.33044 73.1547 6.33044C72.2459 6.33044 71.4603 6.52299 70.798 6.90808C70.1356 7.29317 69.6273 7.8323 69.273 8.52547C68.9187 9.21864 68.7416 10.0504 68.7416 11.0209V17.4442H67.5863V10.4895C67.5863 9.13392 67.2551 8.10187 66.5928 7.3933C65.9304 6.68472 65.0062 6.33044 63.8201 6.33044C62.9113 6.33044 62.1257 6.52299 61.4633 6.90808C60.801 7.29317 60.2926 7.8323 59.9383 8.52547C59.5841 9.21864 59.4069 10.0504 59.4069 11.0209V17.4442H58.2516V5.38311H59.3607V8.71031L59.199 8.34063C59.5533 7.401 60.1463 6.66162 60.9781 6.12249C61.8099 5.56795 62.8111 5.29069 63.9818 5.29069C65.1833 5.29069 66.1923 5.59876 67.0087 6.21491C67.8405 6.81566 68.3642 7.71677 68.5798 8.91827L68.187 8.75653C68.5105 7.72448 69.119 6.89268 70.0124 6.26112C70.9058 5.61417 71.9918 5.29069 73.2703 5.29069ZM82.8465 17.4442V5.38311H84.0018V17.4442H82.8465ZM83.4241 2.4487C83.1623 2.4487 82.9389 2.35628 82.7541 2.17143C82.5692 1.98659 82.4768 1.77093 82.4768 1.52448C82.4768 1.26262 82.5692 1.03926 82.7541 0.854415C82.9389 0.66957 83.1623 0.577148 83.4241 0.577148C83.7014 0.577148 83.9248 0.66957 84.0942 0.854415C84.2791 1.02386 84.3715 1.23951 84.3715 1.50137C84.3715 1.76323 84.2791 1.98659 84.0942 2.17143C83.9248 2.35628 83.7014 2.4487 83.4241 2.4487ZM91.921 17.5366C90.9197 17.5366 89.9801 17.3903 89.1021 17.0976C88.2395 16.805 87.5694 16.4353 87.0919 15.9886L87.6233 15.0643C88.0854 15.4648 88.7016 15.8114 89.4718 16.1041C90.242 16.3814 91.0738 16.52 91.9672 16.52C93.2303 16.52 94.1391 16.312 94.6936 15.8961C95.2482 15.4802 95.5254 14.9334 95.5254 14.2556C95.5254 13.7627 95.3791 13.3776 95.0864 13.1004C94.8092 12.8077 94.4318 12.5843 93.9543 12.4303C93.4767 12.2763 92.953 12.153 92.3831 12.0606C91.8131 11.9528 91.2432 11.8373 90.6733 11.714C90.1033 11.5908 89.5796 11.4136 89.1021 11.1826C88.6246 10.9515 88.2395 10.6358 87.9468 10.2353C87.6695 9.81938 87.5309 9.27255 87.5309 8.59479C87.5309 7.97864 87.7003 7.4241 88.0392 6.93118C88.3781 6.43826 88.8864 6.04547 89.5642 5.7528C90.242 5.44472 91.0892 5.29069 92.1058 5.29069C92.8606 5.29069 93.6154 5.39851 94.3702 5.61417C95.1404 5.82982 95.7642 6.11479 96.2417 6.46907L95.7103 7.3933C95.202 7.0082 94.632 6.73094 94.0005 6.5615C93.3689 6.39205 92.7297 6.30733 92.0827 6.30733C90.912 6.30733 90.0494 6.52299 89.4949 6.95429C88.9558 7.38559 88.6862 7.92472 88.6862 8.57168C88.6862 9.08 88.8248 9.4882 89.1021 9.79628C89.3948 10.089 89.7799 10.32 90.2574 10.4895C90.7349 10.6435 91.2586 10.7744 91.8286 10.8822C92.3985 10.9746 92.9684 11.0825 93.5384 11.2057C94.1083 11.3289 94.632 11.5061 95.1095 11.7371C95.5871 11.9528 95.9644 12.2609 96.2417 12.6614C96.5344 13.0464 96.6807 13.5702 96.6807 14.2325C96.6807 14.8949 96.4959 15.4725 96.1262 15.9655C95.7719 16.4584 95.2405 16.8435 94.5319 17.1207C93.8233 17.398 92.953 17.5366 91.921 17.5366ZM103.417 17.5366C102.354 17.5366 101.538 17.244 100.968 16.6586C100.413 16.0733 100.136 15.2723 100.136 14.2556V2.74907H101.291V14.1401C101.291 14.9103 101.484 15.5033 101.869 15.9192C102.254 16.3351 102.808 16.5431 103.532 16.5431C104.287 16.5431 104.911 16.3197 105.404 15.873L105.889 16.6817C105.581 16.9744 105.204 17.19 104.757 17.3287C104.326 17.4673 103.879 17.5366 103.417 17.5366ZM97.9178 6.37665V5.38311H105.127V6.37665H97.9178ZM109.111 17.4442V5.38311H110.266V17.4442H109.111ZM109.689 2.4487C109.427 2.4487 109.203 2.35628 109.019 2.17143C108.834 1.98659 108.741 1.77093 108.741 1.52448C108.741 1.26262 108.834 1.03926 109.019 0.854415C109.203 0.66957 109.427 0.577148 109.689 0.577148C109.966 0.577148 110.189 0.66957 110.359 0.854415C110.544 1.02386 110.636 1.23951 110.636 1.50137C110.636 1.76323 110.544 1.98659 110.359 2.17143C110.189 2.35628 109.966 2.4487 109.689 2.4487ZM119.919 17.5366C118.748 17.5366 117.7 17.2748 116.776 16.751C115.867 16.2273 115.143 15.5033 114.604 14.5791C114.081 13.6549 113.819 12.5997 113.819 11.4136C113.819 10.2122 114.081 9.14932 114.604 8.2251C115.143 7.30087 115.867 6.5846 116.776 6.07628C117.7 5.55255 118.748 5.29069 119.919 5.29069C120.889 5.29069 121.767 5.47553 122.553 5.84522C123.354 6.21491 124.001 6.76944 124.493 7.50882L123.639 8.13268C123.207 7.51653 122.668 7.06212 122.021 6.76945C121.374 6.47677 120.673 6.33044 119.919 6.33044C118.979 6.33044 118.132 6.54609 117.377 6.9774C116.638 7.3933 116.052 7.98634 115.621 8.75653C115.205 9.51131 114.997 10.397 114.997 11.4136C114.997 12.4303 115.205 13.3237 115.621 14.0939C116.052 14.8487 116.638 15.4417 117.377 15.873C118.132 16.2889 118.979 16.4969 119.919 16.4969C120.673 16.4969 121.374 16.3505 122.021 16.0579C122.668 15.7652 123.207 15.3108 123.639 14.6946L124.493 15.3185C124.001 16.0579 123.354 16.6124 122.553 16.9821C121.767 17.3518 120.889 17.5366 119.919 17.5366Z" fill="white"/>
</g>
</svg>
