<svg width="124" height="18" viewBox="0 0 124 18" fill="none" xmlns="http://www.w3.org/2000/svg">
<path d="M0.019043 17.4441V1.27019H5.81854C7.17407 1.27019 8.33705 1.48585 9.30749 1.91715C10.2779 2.34846 11.025 2.97231 11.5487 3.7887C12.0724 4.5897 12.3343 5.56783 12.3343 6.72311C12.3343 7.84759 12.0724 8.81802 11.5487 9.63442C11.025 10.4508 10.2779 11.0747 9.30749 11.506C8.33705 11.9373 7.17407 12.1529 5.81854 12.1529H0.665999L1.19743 11.5984V17.4441H0.019043ZM1.19743 11.6677L0.665999 11.0901H5.81854C7.55916 11.0901 8.87618 10.7127 9.7696 9.9579C10.6784 9.18771 11.1328 8.10945 11.1328 6.72311C11.1328 5.32137 10.6784 4.24311 9.7696 3.48833C8.87618 2.71815 7.55916 2.33305 5.81854 2.33305H0.665999L1.19743 1.75541V11.6677ZM20.7712 17.5365C19.5543 17.5365 18.4761 17.2747 17.5365 16.7509C16.6122 16.2272 15.8806 15.5032 15.3414 14.579C14.8177 13.6548 14.5558 12.5996 14.5558 11.4135C14.5558 10.2121 14.8023 9.1569 15.2952 8.24808C15.8035 7.32386 16.4967 6.59988 17.3747 6.07616C18.2527 5.55243 19.2386 5.29057 20.3322 5.29057C21.4259 5.29057 22.404 5.54473 23.2666 6.05305C24.1447 6.56137 24.8301 7.27765 25.323 8.20187C25.8314 9.11069 26.0855 10.1659 26.0855 11.3673C26.0855 11.4135 26.0778 11.4675 26.0624 11.5291C26.0624 11.5753 26.0624 11.6292 26.0624 11.6908H15.4107V10.7897H25.4386L24.9765 11.2287C24.9919 10.2891 24.7916 9.44957 24.3757 8.71019C23.9752 7.95541 23.4284 7.37007 22.7352 6.95417C22.042 6.52287 21.2411 6.30721 20.3322 6.30721C19.4388 6.30721 18.6378 6.52287 17.9293 6.95417C17.2361 7.37007 16.6893 7.95541 16.2888 8.71019C15.8883 9.44957 15.688 10.2968 15.688 11.2518V11.4598C15.688 12.4456 15.9037 13.3236 16.335 14.0938C16.7817 14.8486 17.3901 15.4416 18.1603 15.8729C18.9305 16.2888 19.8085 16.4968 20.7943 16.4968C21.5645 16.4968 22.2808 16.3581 22.9432 16.0809C23.6209 15.8036 24.1909 15.38 24.653 14.8101L25.323 15.5726C24.7993 16.2195 24.137 16.7124 23.336 17.0513C22.5504 17.3748 21.6955 17.5365 20.7712 17.5365ZM32.7095 17.5365C31.7083 17.5365 30.7686 17.3902 29.8906 17.0975C29.028 16.8049 28.358 16.4352 27.8804 15.9885L28.4119 15.0642C28.874 15.4647 29.4901 15.8113 30.2603 16.104C31.0305 16.3813 31.8623 16.5199 32.7557 16.5199C34.0188 16.5199 34.9277 16.3119 35.4822 15.896C36.0367 15.4801 36.314 14.9333 36.314 14.2555C36.314 13.7626 36.1676 13.3775 35.875 13.1003C35.5977 12.8076 35.2203 12.5842 34.7428 12.4302C34.2653 12.2762 33.7416 12.1529 33.1716 12.0605C32.6017 11.9527 32.0318 11.8372 31.4618 11.7139C30.8919 11.5907 30.3681 11.4135 29.8906 11.1825C29.4131 10.9514 29.028 10.6357 28.7354 10.2352C28.4581 9.81926 28.3195 9.27243 28.3195 8.59467C28.3195 7.97852 28.4889 7.42398 28.8278 6.93106C29.1667 6.43814 29.675 6.04535 30.3527 5.75268C31.0305 5.4446 31.8777 5.29057 32.8944 5.29057C33.6491 5.29057 34.4039 5.39839 35.1587 5.61405C35.9289 5.8297 36.5527 6.11467 37.0303 6.46895L36.4988 7.39318C35.9905 7.00808 35.4206 6.73082 34.789 6.56138C34.1575 6.39193 33.5182 6.30721 32.8713 6.30721C31.7006 6.30721 30.838 6.52287 30.2834 6.95417C29.7443 7.38547 29.4747 7.9246 29.4747 8.57156C29.4747 9.07988 29.6134 9.48808 29.8906 9.79616C30.1833 10.0888 30.5684 10.3199 31.0459 10.4893C31.5234 10.6434 32.0472 10.7743 32.6171 10.8821C33.187 10.9745 33.757 11.0824 34.3269 11.2056C34.8968 11.3288 35.4206 11.506 35.8981 11.737C36.3756 11.9527 36.753 12.2608 37.0303 12.6613C37.3229 13.0463 37.4693 13.5701 37.4693 14.2324C37.4693 14.8948 37.2844 15.4724 36.9147 15.9654C36.5604 16.4583 36.029 16.8434 35.3205 17.1206C34.6119 17.3979 33.7416 17.5365 32.7095 17.5365ZM43.7433 17.5365C42.7421 17.5365 41.8025 17.3902 40.9245 17.0975C40.0618 16.8049 39.3918 16.4352 38.9143 15.9885L39.4457 15.0642C39.9078 15.4647 40.524 15.8113 41.2941 16.104C42.0643 16.3813 42.8961 16.5199 43.7895 16.5199C45.0527 16.5199 45.9615 16.3119 46.516 15.896C47.0705 15.4801 47.3478 14.9333 47.3478 14.2555C47.3478 13.7626 47.2015 13.3775 46.9088 13.1003C46.6315 12.8076 46.2541 12.5842 45.7766 12.4302C45.2991 12.2762 44.7754 12.1529 44.2054 12.0605C43.6355 11.9527 43.0656 11.8372 42.4956 11.7139C41.9257 11.5907 41.402 11.4135 40.9245 11.1825C40.4469 10.9514 40.0618 10.6357 39.7692 10.2352C39.4919 9.81926 39.3533 9.27243 39.3533 8.59467C39.3533 7.97852 39.5227 7.42398 39.8616 6.93106C40.2005 6.43814 40.7088 6.04535 41.3866 5.75268C42.0643 5.4446 42.9115 5.29057 43.9282 5.29057C44.683 5.29057 45.4377 5.39839 46.1925 5.61405C46.9627 5.8297 47.5866 6.11467 48.0641 6.46895L47.5327 7.39318C47.0243 7.00808 46.4544 6.73082 45.8228 6.56138C45.1913 6.39193 44.552 6.30721 43.9051 6.30721C42.7344 6.30721 41.8718 6.52287 41.3172 6.95417C40.7781 7.38547 40.5085 7.9246 40.5085 8.57156C40.5085 9.07988 40.6472 9.48808 40.9245 9.79616C41.2171 10.0888 41.6022 10.3199 42.0797 10.4893C42.5572 10.6434 43.081 10.7743 43.6509 10.8821C44.2208 10.9745 44.7908 11.0824 45.3607 11.2056C45.9307 11.3288 46.4544 11.506 46.9319 11.737C47.4094 11.9527 47.7868 12.2608 48.0641 12.6613C48.3567 13.0463 48.5031 13.5701 48.5031 14.2324C48.5031 14.8948 48.3182 15.4724 47.9485 15.9654C47.5943 16.4583 47.0628 16.8434 46.3543 17.1206C45.6457 17.3979 44.7754 17.5365 43.7433 17.5365ZM51.7272 17.4441V5.38299H52.8825V17.4441H51.7272ZM52.3049 2.44858C52.043 2.44858 51.8196 2.35616 51.6348 2.17131C51.4499 1.98647 51.3575 1.77081 51.3575 1.52436C51.3575 1.26249 51.4499 1.03914 51.6348 0.854293C51.8196 0.669448 52.043 0.577026 52.3049 0.577026C52.5821 0.577026 52.8055 0.669448 52.9749 0.854293C53.1598 1.02373 53.2522 1.23939 53.2522 1.50125C53.2522 1.76311 53.1598 1.98647 52.9749 2.17131C52.8055 2.35616 52.5821 2.44858 52.3049 2.44858ZM72.7704 5.29057C73.7408 5.29057 74.5803 5.48311 75.2889 5.86821C76.0128 6.2379 76.5751 6.80783 76.9756 7.57802C77.3761 8.3328 77.5763 9.27243 77.5763 10.3969V17.4441H76.4211V10.4893C76.4211 9.1338 76.0899 8.10175 75.4275 7.39318C74.7652 6.6846 73.8409 6.33032 72.6548 6.33032C71.746 6.33032 70.9604 6.52287 70.2981 6.90796C69.6357 7.29305 69.1274 7.83218 68.7731 8.52535C68.4188 9.21852 68.2417 10.0503 68.2417 11.0208V17.4441H67.0864V10.4893C67.0864 9.1338 66.7552 8.10175 66.0929 7.39318C65.4305 6.6846 64.5063 6.33032 63.3202 6.33032C62.4114 6.33032 61.6258 6.52287 60.9634 6.90796C60.3011 7.29305 59.7927 7.83218 59.4384 8.52535C59.0842 9.21852 58.907 10.0503 58.907 11.0208V17.4441H57.7517V5.38299H58.8608V8.71019L58.6991 8.34051C59.0534 7.40088 59.6464 6.6615 60.4782 6.12237C61.31 5.56783 62.3112 5.29057 63.4819 5.29057C64.6834 5.29057 65.6924 5.59864 66.5088 6.21479C67.3406 6.81554 67.8643 7.71665 68.0799 8.91815L67.6871 8.75641C68.0106 7.72436 68.6191 6.89256 69.5125 6.261C70.4059 5.61405 71.4919 5.29057 72.7704 5.29057ZM82.3466 17.4441V5.38299H83.5019V17.4441H82.3466ZM82.9242 2.44858C82.6624 2.44858 82.439 2.35616 82.2542 2.17131C82.0693 1.98647 81.9769 1.77081 81.9769 1.52436C81.9769 1.26249 82.0693 1.03914 82.2542 0.854293C82.439 0.669448 82.6624 0.577026 82.9242 0.577026C83.2015 0.577026 83.4249 0.669448 83.5943 0.854293C83.7792 1.02373 83.8716 1.23939 83.8716 1.50125C83.8716 1.76311 83.7792 1.98647 83.5943 2.17131C83.4249 2.35616 83.2015 2.44858 82.9242 2.44858ZM91.4211 17.5365C90.4198 17.5365 89.4802 17.3902 88.6022 17.0975C87.7396 16.8049 87.0695 16.4352 86.592 15.9885L87.1234 15.0642C87.5855 15.4647 88.2017 15.8113 88.9719 16.104C89.7421 16.3813 90.5739 16.5199 91.4673 16.5199C92.7304 16.5199 93.6392 16.3119 94.1937 15.896C94.7483 15.4801 95.0255 14.9333 95.0255 14.2555C95.0255 13.7626 94.8792 13.3775 94.5865 13.1003C94.3093 12.8076 93.9319 12.5842 93.4544 12.4302C92.9768 12.2762 92.4531 12.1529 91.8832 12.0605C91.3132 11.9527 90.7433 11.8372 90.1734 11.7139C89.6034 11.5907 89.0797 11.4135 88.6022 11.1825C88.1247 10.9514 87.7396 10.6357 87.4469 10.2352C87.1696 9.81926 87.031 9.27243 87.031 8.59467C87.031 7.97852 87.2004 7.42398 87.5393 6.93106C87.8782 6.43814 88.3865 6.04535 89.0643 5.75268C89.7421 5.4446 90.5893 5.29057 91.6059 5.29057C92.3607 5.29057 93.1155 5.39839 93.8703 5.61405C94.6405 5.8297 95.2643 6.11467 95.7418 6.46895L95.2104 7.39318C94.7021 7.00808 94.1321 6.73082 93.5006 6.56138C92.869 6.39193 92.2298 6.30721 91.5828 6.30721C90.4121 6.30721 89.5495 6.52287 88.995 6.95417C88.4559 7.38547 88.1863 7.9246 88.1863 8.57156C88.1863 9.07988 88.3249 9.48808 88.6022 9.79616C88.8949 10.0888 89.28 10.3199 89.7575 10.4893C90.235 10.6434 90.7587 10.7743 91.3287 10.8821C91.8986 10.9745 92.4685 11.0824 93.0385 11.2056C93.6084 11.3288 94.1321 11.506 94.6096 11.737C95.0872 11.9527 95.4645 12.2608 95.7418 12.6613C96.0345 13.0463 96.1808 13.5701 96.1808 14.2324C96.1808 14.8948 95.996 15.4724 95.6263 15.9654C95.272 16.4583 94.7406 16.8434 94.032 17.1206C93.3234 17.3979 92.4531 17.5365 91.4211 17.5365ZM102.917 17.5365C101.854 17.5365 101.038 17.2439 100.468 16.6585C99.9133 16.0732 99.636 15.2722 99.636 14.2555V2.74895H100.791V14.14C100.791 14.9102 100.984 15.5032 101.369 15.9191C101.754 16.335 102.308 16.543 103.032 16.543C103.787 16.543 104.411 16.3196 104.904 15.8729L105.389 16.6816C105.081 16.9743 104.704 17.1899 104.257 17.3286C103.826 17.4672 103.379 17.5365 102.917 17.5365ZM97.4179 6.37653V5.38299H104.627V6.37653H97.4179ZM108.611 17.4441V5.38299H109.766V17.4441H108.611ZM109.189 2.44858C108.927 2.44858 108.703 2.35616 108.519 2.17131C108.334 1.98647 108.241 1.77081 108.241 1.52436C108.241 1.26249 108.334 1.03914 108.519 0.854293C108.703 0.669448 108.927 0.577026 109.189 0.577026C109.466 0.577026 109.689 0.669448 109.859 0.854293C110.044 1.02373 110.136 1.23939 110.136 1.50125C110.136 1.76311 110.044 1.98647 109.859 2.17131C109.689 2.35616 109.466 2.44858 109.189 2.44858ZM119.419 17.5365C118.248 17.5365 117.2 17.2747 116.276 16.7509C115.367 16.2272 114.643 15.5032 114.104 14.579C113.581 13.6548 113.319 12.5996 113.319 11.4135C113.319 10.2121 113.581 9.1492 114.104 8.22498C114.643 7.30075 115.367 6.58448 116.276 6.07616C117.2 5.55243 118.248 5.29057 119.419 5.29057C120.389 5.29057 121.267 5.47541 122.053 5.8451C122.854 6.21479 123.501 6.76932 123.993 7.5087L123.139 8.13256C122.707 7.51641 122.168 7.062 121.521 6.76933C120.874 6.47665 120.173 6.33032 119.419 6.33032C118.479 6.33032 117.632 6.54597 116.877 6.97728C116.138 7.39318 115.552 7.98622 115.121 8.75641C114.705 9.51119 114.497 10.3969 114.497 11.4135C114.497 12.4302 114.705 13.3236 115.121 14.0938C115.552 14.8486 116.138 15.4416 116.877 15.8729C117.632 16.2888 118.479 16.4968 119.419 16.4968C120.173 16.4968 120.874 16.3504 121.521 16.0578C122.168 15.7651 122.707 15.3107 123.139 14.6945L123.993 15.3184C123.501 16.0578 122.854 16.6123 122.053 16.982C121.267 17.3517 120.389 17.5365 119.419 17.5365Z" fill="#AAB3CA"/>
</svg>
