<svg width="162" height="31" viewBox="0 0 162 31" fill="none" xmlns="http://www.w3.org/2000/svg">
<mask id="mask0_1922_3266" style="mask-type:luminance" maskUnits="userSpaceOnUse" x="0" y="0" width="162" height="31">
<path d="M162 0.5H0V30.9138H162V0.5Z" fill="white"/>
</mask>
<g mask="url(#mask0_1922_3266)">
<path d="M27.5884 15.7193C27.5884 13.3483 26.9019 11.0145 25.5915 9.02832L30.4215 4.19933L26.8021 0.574524L21.972 5.40343C17.9033 2.74693 12.6365 2.74693 8.56766 5.40343L3.72516 0.574524L0.0932617 4.19933L4.92336 9.02832C2.26496 13.1 2.26496 18.351 4.92336 22.4227L0.0932617 27.2393L3.72516 30.8641L8.55516 26.0352C12.624 28.6917 17.8908 28.6917 21.9596 26.0352L26.7896 30.8641L30.4215 27.2393L25.5915 22.4103C26.9019 20.4241 27.6009 18.1027 27.5884 15.7193ZM8.06846 15.7193C8.06846 12.7896 9.84076 10.1455 12.5616 9.05313C15.2824 7.96073 18.4026 8.61863 20.4369 10.7289C22.4713 12.8393 23.0204 15.98 21.8098 18.6489L17.0671 13.9069L13.4477 17.5317L18.1904 22.2738C15.9688 23.2669 13.3853 23.0807 11.3385 21.7524C9.30406 20.4241 8.06846 18.1524 8.06846 15.7193Z" fill="#BAC3DA"/>
<path d="M53.7106 15.8683C53.7106 18.8352 52.2129 21.5041 49.5296 22.7331L50.9524 24.5828L48.0194 26.06L46.0599 23.4655H45.9975C41.155 23.4655 38.2969 19.9524 38.2969 15.8559C38.2969 11.7593 41.155 8.24622 45.9975 8.24622C50.8401 8.24622 53.7106 11.7717 53.7106 15.8683ZM46.01 20.4862C48.7433 20.4862 50.2285 18.3635 50.2285 15.8559C50.2285 13.3483 48.7433 11.2255 46.01 11.2255C43.2518 11.2255 41.7666 13.3483 41.7915 15.8559C41.7666 18.3759 43.2518 20.4862 46.01 20.4862ZM59.1023 23.329C56.7185 23.329 55.433 21.8517 55.433 19.2821V13.1497H58.628V18.5745C58.628 19.9276 59.0774 20.6724 60.2755 20.6724C61.6109 20.6724 62.1851 19.8035 62.1851 18.4752V13.1497H65.3177V23.0559H62.1851V21.6407C61.6359 22.6959 60.6125 23.329 59.1023 23.329ZM71.8951 23.329C68.9247 23.329 67.2148 21.0821 67.2148 18.1028C67.2148 15.1359 69.0495 12.8766 71.9325 12.8766C73.3803 12.8766 74.5035 13.5593 75.0402 14.5648V13.1497H78.1728V23.0559H75.0402V21.6531C74.516 22.6462 73.2804 23.329 71.8951 23.329ZM72.8062 20.7221C74.3663 20.7221 75.1775 19.5552 75.1775 18.1152C75.1775 16.7 74.3787 15.5207 72.8062 15.5207C71.3459 15.5207 70.4348 16.6131 70.4348 18.1152C70.4348 19.6048 71.3459 20.7221 72.8062 20.7221ZM80.7938 13.1497H83.9518V14.5897C84.5258 13.4848 85.6618 12.889 87.1588 12.889C89.5678 12.889 90.7788 14.2421 90.7788 16.9359V23.0683H87.6088V17.9662C87.6088 16.3028 87.1338 15.5455 85.8608 15.5455C84.6008 15.5455 83.9518 16.3648 83.9518 17.8917V23.0683H80.7938V13.1497ZM98.5038 20.6104C98.8908 20.6104 99.3028 20.5855 99.5898 20.5483V23.0559C99.1408 23.1428 98.3918 23.2172 97.4928 23.2172C96.0078 23.2172 93.9738 22.8821 93.9738 19.58V15.6324H92.4138V13.1497H93.9738V10.2076H97.1308V13.1497H99.3778V15.6324H97.1308V18.9221C97.1308 20.3869 97.7298 20.6104 98.5038 20.6104ZM105.394 23.3662C102.486 23.3662 100.701 21.951 100.701 20.0766H103.833C103.833 20.7593 104.495 21.2435 105.456 21.2435C106.13 21.2435 106.604 20.8959 106.604 20.3124C106.604 19.9276 106.417 19.5924 105.88 19.4683L103.447 18.8476C101.799 18.4379 100.95 17.4076 100.95 15.9924C100.95 14.1428 102.573 12.8517 105.194 12.8517C108.102 12.8517 109.625 14.0683 109.625 15.9304H106.517C106.517 15.2352 106.005 14.8379 105.156 14.8379C104.482 14.8379 104.021 15.1731 104.021 15.6572C104.021 16.1041 104.333 16.4021 104.869 16.5386L107.216 17.1717C108.738 17.5814 109.724 18.5124 109.724 19.9276C109.737 21.9883 108.102 23.3662 105.394 23.3662ZM116.901 20.6104C117.288 20.6104 117.7 20.5855 117.987 20.5483V23.0559C117.537 23.1428 116.788 23.2172 115.89 23.2172C114.405 23.2172 112.37 22.8821 112.37 19.58V15.6324H110.81V13.1497H112.37V10.2076H115.528V13.1497H117.774V15.6324H115.528V18.9221C115.528 20.3869 116.115 20.6104 116.901 20.6104ZM123.765 23.329C120.795 23.329 119.085 21.0821 119.085 18.1028C119.085 15.1359 120.92 12.8766 123.803 12.8766C125.25 12.8766 126.374 13.5593 126.91 14.5648V13.1497H130.043V23.0559H126.91V21.6531C126.374 22.6462 125.138 23.329 123.765 23.329ZM124.664 20.7221C126.224 20.7221 127.035 19.5552 127.035 18.1152C127.035 16.7 126.236 15.5207 124.664 15.5207C123.204 15.5207 122.293 16.6131 122.293 18.1152C122.293 19.6048 123.204 20.7221 124.664 20.7221ZM132.664 13.1497H135.822V14.5897C136.258 13.5966 137.282 12.889 138.667 12.889C140.44 12.889 141.351 13.671 141.775 14.7138C142.312 13.6462 143.485 12.889 144.945 12.889C147.791 12.889 148.465 14.8379 148.465 16.9235V23.0683H145.295V17.4945C145.295 16.1166 144.783 15.5455 143.809 15.5455C142.823 15.5455 142.137 16.1041 142.137 17.9662V23.0683H138.967V17.4697C138.967 16.0917 138.468 15.5331 137.507 15.5331C136.496 15.5331 135.822 16.0917 135.822 17.9538V23.0559H132.664V13.1497ZM150.948 13.1497H154.106V14.5648C154.618 13.6214 155.853 12.8766 157.338 12.8766C160.059 12.8766 161.906 14.9745 161.906 18.1028C161.906 21.2062 159.997 23.329 157.251 23.329C155.791 23.329 154.593 22.5841 154.106 21.6655V27.1772H150.948V13.1497ZM156.34 20.7221C157.725 20.7221 158.686 19.6545 158.686 18.1152C158.686 16.5883 157.713 15.5207 156.34 15.5207C154.917 15.5207 153.956 16.5635 153.956 18.1152C153.956 19.6669 154.942 20.7221 156.34 20.7221Z" fill="#BAC3DA"/>
</g>
</svg>
