<svg width="163" height="31" viewBox="0 0 163 31" fill="none" xmlns="http://www.w3.org/2000/svg">
<mask id="mask0_1916_2618" style="mask-type:luminance" maskUnits="userSpaceOnUse" x="0" y="0" width="163" height="31">
<path d="M162.5 0.5H0.5V30.9138H162.5V0.5Z" fill="white"/>
</mask>
<g mask="url(#mask0_1916_2618)">
<path d="M28.0886 15.7193C28.0886 13.3483 27.4021 11.0145 26.0917 9.02826L30.9217 4.19926L27.3023 0.574463L22.4722 5.40336C18.4035 2.74686 13.1367 2.74686 9.06791 5.40336L4.22541 0.574463L0.593506 4.19926L5.4236 9.02826C2.7652 13.1 2.7652 18.351 5.4236 22.4227L0.593506 27.2393L4.22541 30.8641L9.05541 26.0352C13.1242 28.6917 18.391 28.6917 22.4598 26.0352L27.2898 30.8641L30.9217 27.2393L26.0917 22.4103C27.4021 20.4241 28.1011 18.1027 28.0886 15.7193ZM8.56871 15.7193C8.56871 12.7896 10.341 10.1455 13.0618 9.05306C15.7826 7.96066 18.9028 8.61856 20.9371 10.7289C22.9715 12.8393 23.5206 15.98 22.31 18.6489L17.5673 13.9069L13.9479 17.5317L18.6906 22.2738C16.469 23.2669 13.8855 23.0807 11.8387 21.7524C9.80431 20.4241 8.56871 18.1524 8.56871 15.7193Z" fill="#6BB9F7"/>
<path d="M54.2108 15.8682C54.2108 18.8351 52.7131 21.504 50.0298 22.733L51.4526 24.5827L48.5196 26.0599L46.5601 23.4654H46.4977C41.6552 23.4654 38.7971 19.9523 38.7971 15.8558C38.7971 11.7592 41.6552 8.24609 46.4977 8.24609C51.3403 8.24609 54.2108 11.7716 54.2108 15.8682ZM46.5102 20.4861C49.2435 20.4861 50.7287 18.3634 50.7287 15.8558C50.7287 13.3482 49.2435 11.2254 46.5102 11.2254C43.752 11.2254 42.2668 13.3482 42.2917 15.8558C42.2668 18.3758 43.752 20.4861 46.5102 20.4861ZM59.6025 23.3289C57.2187 23.3289 55.9332 21.8516 55.9332 19.282V13.1496H59.1282V18.5744C59.1282 19.9275 59.5776 20.6723 60.7757 20.6723C62.1111 20.6723 62.6853 19.8034 62.6853 18.4751V13.1496H65.8179V23.0558H62.6853V21.6406C62.1361 22.6958 61.1127 23.3289 59.6025 23.3289ZM72.3953 23.3289C69.4249 23.3289 67.715 21.082 67.715 18.1027C67.715 15.1358 69.5497 12.8765 72.4327 12.8765C73.8805 12.8765 75.0037 13.5592 75.5404 14.5647V13.1496H78.673V23.0558H75.5404V21.653C75.0162 22.6461 73.7806 23.3289 72.3953 23.3289ZM73.3064 20.722C74.8665 20.722 75.6777 19.5551 75.6777 18.1151C75.6777 16.6999 74.8789 15.5206 73.3064 15.5206C71.8461 15.5206 70.935 16.613 70.935 18.1151C70.935 19.6047 71.8461 20.722 73.3064 20.722ZM81.294 13.1496H84.452V14.5896C85.026 13.4847 86.162 12.8889 87.659 12.8889C90.068 12.8889 91.279 14.242 91.279 16.9358V23.0682H88.109V17.9661C88.109 16.3027 87.634 15.5454 86.361 15.5454C85.101 15.5454 84.452 16.3647 84.452 17.8916V23.0682H81.294V13.1496ZM99.004 20.6103C99.391 20.6103 99.803 20.5854 100.09 20.5482V23.0558C99.641 23.1427 98.892 23.2171 97.993 23.2171C96.508 23.2171 94.474 22.882 94.474 19.5799V15.6323H92.914V13.1496H94.474V10.2075H97.631V13.1496H99.878V15.6323H97.631V18.922C97.631 20.3868 98.23 20.6103 99.004 20.6103ZM105.894 23.3661C102.986 23.3661 101.201 21.9509 101.201 20.0765H104.333C104.333 20.7592 104.995 21.2434 105.956 21.2434C106.63 21.2434 107.104 20.8958 107.104 20.3123C107.104 19.9275 106.917 19.5923 106.38 19.4682L103.947 18.8475C102.299 18.4378 101.45 17.4075 101.45 15.9923C101.45 14.1427 103.073 12.8516 105.694 12.8516C108.602 12.8516 110.125 14.0682 110.125 15.9303H107.017C107.017 15.2351 106.505 14.8378 105.656 14.8378C104.982 14.8378 104.521 15.173 104.521 15.6571C104.521 16.104 104.833 16.402 105.369 16.5385L107.716 17.1716C109.238 17.5813 110.224 18.5123 110.224 19.9275C110.237 21.9882 108.602 23.3661 105.894 23.3661ZM117.401 20.6103C117.788 20.6103 118.2 20.5854 118.487 20.5482V23.0558C118.037 23.1427 117.288 23.2171 116.39 23.2171C114.905 23.2171 112.87 22.882 112.87 19.5799V15.6323H111.31V13.1496H112.87V10.2075H116.028V13.1496H118.274V15.6323H116.028V18.922C116.028 20.3868 116.615 20.6103 117.401 20.6103ZM124.265 23.3289C121.295 23.3289 119.585 21.082 119.585 18.1027C119.585 15.1358 121.42 12.8765 124.303 12.8765C125.75 12.8765 126.874 13.5592 127.41 14.5647V13.1496H130.543V23.0558H127.41V21.653C126.874 22.6461 125.638 23.3289 124.265 23.3289ZM125.164 20.722C126.724 20.722 127.535 19.5551 127.535 18.1151C127.535 16.6999 126.736 15.5206 125.164 15.5206C123.704 15.5206 122.793 16.613 122.793 18.1151C122.793 19.6047 123.704 20.722 125.164 20.722ZM133.164 13.1496H136.322V14.5896C136.758 13.5965 137.782 12.8889 139.167 12.8889C140.94 12.8889 141.851 13.6709 142.275 14.7137C142.812 13.6461 143.985 12.8889 145.445 12.8889C148.291 12.8889 148.965 14.8378 148.965 16.9234V23.0682H145.795V17.4944C145.795 16.1165 145.283 15.5454 144.309 15.5454C143.323 15.5454 142.637 16.104 142.637 17.9661V23.0682H139.467V17.4696C139.467 16.0916 138.968 15.533 138.007 15.533C136.996 15.533 136.322 16.0916 136.322 17.9537V23.0558H133.164V13.1496ZM151.448 13.1496H154.606V14.5647C155.118 13.6213 156.353 12.8765 157.838 12.8765C160.559 12.8765 162.406 14.9744 162.406 18.1027C162.406 21.2061 160.497 23.3289 157.751 23.3289C156.291 23.3289 155.093 22.584 154.606 21.6654V27.1771H151.448V13.1496ZM156.84 20.722C158.225 20.722 159.186 19.6544 159.186 18.1151C159.186 16.5882 158.213 15.5206 156.84 15.5206C155.417 15.5206 154.456 16.5634 154.456 18.1151C154.456 19.6668 155.442 20.722 156.84 20.722Z" fill="white"/>
</g>
</svg>
