<svg width="180" height="180" viewBox="0 0 180 180" fill="none" xmlns="http://www.w3.org/2000/svg">
<path fill-rule="evenodd" clip-rule="evenodd" d="M90 163.178C130.415 163.178 163.178 130.415 163.178 90C163.178 49.5851 130.415 16.8224 90 16.8224C49.5851 16.8224 16.8224 49.5851 16.8224 90C16.8224 130.415 49.5851 163.178 90 163.178ZM90 180C139.706 180 180 139.706 180 90C180 40.2944 139.706 0 90 0C40.2944 0 0 40.2944 0 90C0 139.706 40.2944 180 90 180Z" fill="#181D27"/>
<path fill-rule="evenodd" clip-rule="evenodd" d="M163.178 90C163.178 49.5851 130.415 16.8224 90 16.8224V0C139.706 0 180 40.2944 180 90C180 139.706 139.706 180 90 180C40.2944 180 0 139.706 0 90C0 63.4596 11.4988 39.5934 29.7598 23.1327L41.0231 35.6279C26.1516 49.0334 16.8224 68.4215 16.8224 90C16.8224 130.415 49.5851 163.178 90 163.178C130.415 163.178 163.178 130.415 163.178 90Z" fill="url(#paint0_linear_1009_8750)"/>
<defs>
<linearGradient id="paint0_linear_1009_8750" x1="140.047" y1="13.4579" x2="32.3832" y2="30.7009" gradientUnits="userSpaceOnUse">
<stop stop-color="#3A78FF"/>
<stop offset="1" stop-color="#40DFCF"/>
</linearGradient>
</defs>
</svg>
