<svg width="74" height="21" viewBox="0 0 74 21" fill="none" xmlns="http://www.w3.org/2000/svg">
<path d="M19.6624 5.42182L12.3429 18.0998C12.1216 18.4822 11.8036 18.7996 11.4209 19.0203C11.0382 19.2409 10.6042 19.3571 10.1624 19.3571C9.72061 19.3571 9.28659 19.2409 8.90387 19.0203C8.52115 18.7996 8.20319 18.4822 7.98186 18.0998L6.69874 15.879C6.69461 15.8735 6.69283 15.8666 6.69381 15.8598C6.69478 15.8529 6.69842 15.8468 6.70393 15.8427C6.70945 15.8385 6.71637 15.8368 6.72319 15.8377C6.73001 15.8387 6.73617 15.8423 6.7403 15.8479C6.96919 16.0738 7.24673 16.2444 7.55169 16.3466C7.85665 16.4489 8.18094 16.48 8.49977 16.4376C8.81861 16.3953 9.12353 16.2805 9.39121 16.1022C9.6589 15.9239 9.88226 15.6868 10.0442 15.4089L16.1715 4.78545C16.3331 4.50498 16.4279 4.19109 16.4486 3.86808C16.4694 3.54508 16.4155 3.22163 16.2912 2.92279C16.1669 2.62394 15.9755 2.35772 15.7318 2.14473C15.4881 1.93173 15.1986 1.77769 14.8858 1.69453C14.8789 1.69453 14.8723 1.69179 14.8674 1.68692C14.8626 1.68205 14.8598 1.67544 14.8598 1.66855C14.8598 1.66167 14.8626 1.65506 14.8674 1.65019C14.8723 1.64532 14.8789 1.64258 14.8858 1.64258H17.4832C17.9252 1.64306 18.3594 1.75982 18.742 1.98114C19.1246 2.20247 19.4423 2.52057 19.6631 2.9035C19.8839 3.28643 20.0001 3.72072 20 4.16275C19.9999 4.60479 19.8835 5.03901 19.6624 5.42182ZM10.9975 1.64258H8.45979C8.45459 1.64429 8.45007 1.64759 8.44686 1.65202C8.44365 1.65645 8.44193 1.66179 8.44193 1.66726C8.44193 1.67273 8.44365 1.67806 8.44686 1.68249C8.45007 1.68692 8.45459 1.69022 8.45979 1.69193C8.63071 1.75795 8.78536 1.86009 8.91317 1.99138C9.04098 2.12267 9.13893 2.28 9.20034 2.45263C9.26175 2.62526 9.28516 2.80911 9.26897 2.99162C9.25278 3.17413 9.19738 3.351 9.10655 3.51012L5.40782 9.90756C5.31226 10.0698 5.18197 10.2088 5.02629 10.3147C4.87062 10.4206 4.69343 10.4908 4.50744 10.5201C4.32146 10.5494 4.13129 10.5371 3.9506 10.4842C3.76991 10.4313 3.60317 10.339 3.46236 10.2141C3.45822 10.2085 3.45207 10.2049 3.44525 10.2039C3.43843 10.203 3.43151 10.2047 3.42599 10.2089C3.42048 10.213 3.41684 10.2191 3.41587 10.226C3.41489 10.2328 3.41667 10.2397 3.4208 10.2452L4.71951 12.4998C4.86532 12.7528 5.07521 12.9629 5.32805 13.109C5.58089 13.2551 5.86776 13.3321 6.15978 13.3321C6.45179 13.3321 6.73866 13.2551 6.9915 13.109C7.24434 12.9629 7.45423 12.7528 7.60004 12.4998L12.439 4.1361C12.585 3.88325 12.6618 3.59641 12.6617 3.30444C12.6617 3.01248 12.5847 2.72568 12.4385 2.47292C12.2924 2.22015 12.0823 2.01033 11.8293 1.86457C11.5763 1.7188 11.2894 1.64224 10.9975 1.64258ZM2.18962 1.64258C1.75656 1.64258 1.33322 1.771 0.973135 2.0116C0.613053 2.2522 0.332403 2.59417 0.166676 2.99427C0.000948741 3.39437 -0.0424131 3.83463 0.042074 4.25938C0.126561 4.68412 0.335102 5.07427 0.641327 5.3805C0.947551 5.68672 1.3377 5.89526 1.76245 5.97975C2.18719 6.06424 2.62745 6.02088 3.02756 5.85515C3.42766 5.68942 3.76963 5.40877 4.01023 5.04869C4.25083 4.68861 4.37925 4.26527 4.37925 3.8322C4.37959 3.54456 4.32319 3.25968 4.21327 2.99387C4.10335 2.72805 3.94208 2.48654 3.73868 2.28314C3.53529 2.07975 3.29377 1.91848 3.02796 1.80856C2.76215 1.69864 2.47727 1.64224 2.18962 1.64258Z" fill="url(#paint0_linear_828_3948)"/>
<path d="M33.334 15H31.892L28.126 5.662H29.456L32.606 13.726L35.756 5.662H37.086L33.334 15ZM44.4248 15H38.3068V5.662H44.4248V6.698H39.4688V9.708H44.3268V10.744H39.4688V13.964H44.4248V15ZM54.0055 15H52.8855L47.4395 7.552V15H46.2775V5.662H47.4675L52.8435 12.956V5.662H54.0055V15ZM59.9977 15.168C57.4777 15.168 56.1897 13.67 56.1897 11.374V5.662H57.3657V11.346C57.3657 13.054 58.2757 14.132 59.9977 14.132C61.7197 14.132 62.6437 13.054 62.6437 11.346V5.662H63.8197V11.36C63.8197 13.684 62.5317 15.168 59.9977 15.168ZM69.0301 15.168C67.4201 15.168 66.2161 14.552 65.4461 13.684L66.1461 12.788C66.7481 13.488 67.7561 14.132 69.0721 14.132C70.7381 14.132 71.2701 13.236 71.2701 12.508C71.2701 10.1 65.7401 11.444 65.7401 8.112C65.7401 6.572 67.1121 5.508 68.9601 5.508C70.3741 5.508 71.4801 5.998 72.2641 6.824L71.5641 7.678C70.8641 6.894 69.8841 6.558 68.8621 6.558C67.7561 6.558 66.9441 7.16 66.9441 8.042C66.9441 10.142 72.4741 8.938 72.4741 12.424C72.4741 13.768 71.5501 15.168 69.0301 15.168Z" fill="#AAB3CA"/>
<defs>
<linearGradient id="paint0_linear_828_3948" x1="19.7441" y1="15.6609" x2="-3.12449" y2="0.131074" gradientUnits="userSpaceOnUse">
<stop stop-color="#5433FF"/>
<stop offset="0.5" stop-color="#20BDFF"/>
<stop offset="1" stop-color="#5CFFA2"/>
</linearGradient>
</defs>
</svg>
