<svg width="376" height="40" viewBox="0 0 376 40" fill="none" xmlns="http://www.w3.org/2000/svg">
<rect x="336" width="40" height="40" rx="20" fill="#2066FF"/>
<g clip-path="url(#clip0_707_5752)">
<path d="M355.979 32C362.618 32 368 26.6274 368 20C368 13.3726 362.618 8 355.979 8C349.68 8 344.513 12.8359 344 18.9913H359.889V21.0087H344C344.513 27.164 349.68 32 355.979 32Z" fill="white"/>
</g>
<rect x="288" width="40" height="40" rx="20" fill="#E93430"/>
<g clip-path="url(#clip1_707_5752)">
<path d="M300.738 26.0623C299.346 26.0623 298.206 25.7498 297.318 25.1248C296.439 24.4909 296 23.5802 296 22.4106C296 22.1606 296.028 21.866 296.084 21.5088C296.234 20.7053 296.449 19.741 296.729 18.6071C297.523 15.5357 299.579 14 302.888 14C303.785 14 304.598 14.1429 305.308 14.4375C306.019 14.7143 306.579 15.1428 306.991 15.7143C307.402 16.2768 307.607 16.9464 307.607 17.7232C307.607 17.9553 307.579 18.2499 307.523 18.6071C307.346 19.5981 307.14 20.5713 306.888 21.5088C306.477 23.0356 305.776 24.1874 304.766 24.9463C303.766 25.6963 302.421 26.0623 300.738 26.0623ZM300.991 23.6516C301.645 23.6516 302.196 23.4642 302.654 23.0981C303.121 22.732 303.458 22.1695 303.654 21.4017C303.925 20.3481 304.131 19.4374 304.271 18.6517C304.318 18.4196 304.346 18.1785 304.346 17.9285C304.346 16.9107 303.794 16.4018 302.682 16.4018C302.028 16.4018 301.467 16.5892 301 16.9553C300.542 17.3214 300.215 17.8839 300.019 18.6517C299.804 19.4017 299.598 20.3124 299.383 21.4017C299.336 21.6249 299.308 21.857 299.308 22.107C299.299 23.1427 299.869 23.6516 300.991 23.6516Z" fill="white"/>
<path d="M308.421 25.9019C308.29 25.9019 308.196 25.8662 308.122 25.7858C308.066 25.6965 308.047 25.5983 308.066 25.4823L310.486 14.5896C310.505 14.4646 310.57 14.3663 310.682 14.286C310.785 14.2056 310.897 14.1699 311.019 14.1699H315.682C316.981 14.1699 318.019 14.4288 318.804 14.9378C319.598 15.4556 320 16.1967 320 17.1699C320 17.4467 319.963 17.7413 319.897 18.0449C319.608 19.3306 319.019 20.277 318.122 20.893C317.243 21.5091 316.038 21.8127 314.505 21.8127H312.14L311.337 25.4823C311.309 25.6073 311.253 25.7055 311.14 25.7858C311.038 25.8662 310.925 25.9019 310.804 25.9019H308.421ZM314.626 19.5002C315.122 19.5002 315.542 19.3752 315.907 19.1163C316.281 18.8574 316.524 18.4913 316.645 18.0092C316.682 17.8217 316.701 17.652 316.701 17.5092C316.701 17.1877 316.598 16.9377 316.402 16.7681C316.206 16.5895 315.86 16.5002 315.383 16.5002H313.281L312.617 19.5002H314.626Z" fill="white"/>
</g>
<rect x="240" width="40" height="40" rx="20" fill="#3A78FF"/>
<path fill-rule="evenodd" clip-rule="evenodd" d="M271.999 19.787L265.192 13V17.9693L258.434 22.9444L265.192 22.9502V26.5713L271.999 19.787Z" fill="white"/>
<path fill-rule="evenodd" clip-rule="evenodd" d="M248 19.7842L254.807 26.5684V21.6394L261.565 16.624L254.807 16.6182V13L248 19.7842Z" fill="white"/>
<rect x="192" width="40" height="40" rx="20" fill="#2D3C52"/>
<g clip-path="url(#clip2_707_5752)">
<path d="M202.168 15.2961V24.7041C202.168 25.3089 202.485 25.8561 203.013 26.1633L211.163 30.8673C211.682 31.1649 212.325 31.1649 212.843 30.8673L220.994 26.1633C221.512 25.8657 221.838 25.3089 221.838 24.7041V15.2961C221.838 14.6913 221.522 14.1441 220.994 13.8369L212.843 9.13287C212.325 8.83527 211.682 8.83527 211.163 9.13287L203.013 13.8369C202.494 14.1345 202.178 14.6913 202.178 15.2961H202.168Z" fill="#213147"/>
<path d="M213.773 21.8239L212.611 25.0111C212.583 25.0975 212.583 25.1935 212.611 25.2895L214.608 30.7711L216.922 29.4367L214.147 21.8239C214.08 21.6511 213.84 21.6511 213.773 21.8239Z" fill="#12AAFF"/>
<path d="M216.104 16.467C216.037 16.2942 215.797 16.2942 215.73 16.467L214.568 19.6542C214.54 19.7406 214.54 19.8366 214.568 19.9326L217.842 28.9086L220.156 27.5742L216.104 16.4766V16.467Z" fill="#12AAFF"/>
<path d="M211.996 9.488C212.054 9.488 212.111 9.5072 212.159 9.536L220.972 14.624C221.078 14.6816 221.135 14.7968 221.135 14.912V25.088C221.135 25.2032 221.068 25.3184 220.972 25.376L212.159 30.464C212.111 30.4928 212.054 30.512 211.996 30.512C211.939 30.512 211.881 30.4928 211.833 30.464L203.02 25.376C202.915 25.3184 202.857 25.2032 202.857 25.088V14.9024C202.857 14.7872 202.924 14.672 203.02 14.6144L211.833 9.5264C211.881 9.4976 211.939 9.4784 211.996 9.4784V9.488ZM211.996 8C211.679 8 211.372 8.0768 211.084 8.24L202.271 13.328C201.705 13.6544 201.359 14.2496 201.359 14.9024V25.0784C201.359 25.7312 201.705 26.3264 202.271 26.6528L211.084 31.7408C211.363 31.904 211.679 31.9808 211.996 31.9808C212.313 31.9808 212.62 31.904 212.908 31.7408L221.721 26.6528C222.287 26.3264 222.633 25.7312 222.633 25.0784V14.9024C222.633 14.2496 222.287 13.6544 221.721 13.328L212.899 8.24C212.62 8.0768 212.303 8 211.987 8H211.996Z" fill="#9DCCED"/>
<path d="M206.16 28.9181L206.976 26.6909L208.608 28.0445L207.082 29.4461L206.16 28.9181Z" fill="#213147"/>
<path d="M211.249 14.182H209.012C208.849 14.182 208.696 14.2876 208.638 14.4412L203.848 27.574L206.161 28.9084L211.441 14.4412C211.489 14.3068 211.393 14.1724 211.259 14.1724L211.249 14.182Z" fill="white"/>
<path d="M215.165 14.182H212.928C212.765 14.182 212.612 14.2876 212.554 14.4412L207.082 29.4364L209.396 30.7708L215.348 14.4412C215.396 14.3068 215.3 14.1724 215.165 14.1724V14.182Z" fill="white"/>
</g>
<rect x="144" width="40" height="40" rx="20" fill="#E736A1"/>
<g clip-path="url(#clip3_707_5752)">
<path d="M176 19.2812C169.496 19.2812 164.228 14.2283 164.228 8H163.772V19.2812H152V19.7188C158.504 19.7188 163.772 24.7717 163.772 31H164.228V19.7188H176V19.2812Z" fill="white"/>
</g>
<rect x="96" width="40" height="40" rx="20" fill="#2D3C52"/>
<g clip-path="url(#clip4_707_5752)">
<path d="M122.449 23.6795L120.152 25.0256V22.3207L122.449 20.9619V23.6795Z" fill="#F0B90B"/>
<path d="M108.297 20.0001L108.31 24.6419L112.254 26.9628V29.6804L106.001 26.0134V18.6427L108.297 20.0001ZM108.297 15.3582V18.0632L106 16.7044V13.9994L108.297 12.6406L110.605 13.9994L108.297 15.3582ZM113.901 13.9994L116.198 12.6406L118.506 13.9994L116.198 15.3582L113.901 13.9994Z" fill="#F0B90B"/>
<path d="M109.957 23.6798V20.9622L112.254 22.321V25.0259L109.957 23.6798ZM113.901 27.9362L116.198 29.295L118.506 27.9362V30.6412L116.198 32L113.901 30.6412V27.9362ZM121.801 13.9994L124.098 12.6406L126.406 13.9994V16.7044L124.098 18.0632V15.3582L121.801 13.9994ZM124.098 24.6419L124.11 20.0001L126.407 18.6413V26.012L120.155 29.679V26.9614L124.098 24.6419Z" fill="#F0B90B"/>
<path d="M122.451 16.3202L122.463 19.0378L118.508 21.3587V26.0118L116.211 27.3579L113.914 26.0118V21.3587L109.958 19.0378V16.3202L112.265 14.9614L116.197 17.2935L120.152 14.9614L122.46 16.3202H122.451ZM109.957 11.6797L116.198 8L122.451 11.6797L120.154 13.0385L116.198 10.7063L112.254 13.0385L109.957 11.6797Z" fill="#F0B90B"/>
</g>
<g clip-path="url(#clip5_707_5752)">
<g clip-path="url(#clip6_707_5752)">
<circle cx="68" cy="20" r="20" fill="#EDEFF0"/>
<path opacity="0.6" d="M67.9927 26.102L77.5984 20.2956L67.9927 15.8374L58.3984 20.2956L67.9927 26.102Z" fill="black"/>
<path opacity="0.45" d="M67.9927 15.8374V4L58.3984 20.2956L67.9927 26.102V15.8374Z" fill="black"/>
<path opacity="0.8" d="M67.9922 26.102L77.598 20.2956L67.9922 4V15.8374V26.102Z" fill="black"/>
<path opacity="0.45" d="M67.9927 27.9586L58.3984 22.1641L67.9927 36V27.9586Z" fill="black"/>
<path opacity="0.8" d="M77.598 22.1641L67.9922 27.9586V36L77.598 22.1641Z" fill="black"/>
</g>
</g>
<g clip-path="url(#clip7_707_5752)">
<g clip-path="url(#clip8_707_5752)">
<path fill-rule="evenodd" clip-rule="evenodd" d="M20 0C31.0465 0 40 8.95353 40 20C40 31.0465 31.0465 40 20 40C8.95353 40 0 31.0465 0 20C0 8.95353 8.95353 0 20 0Z" fill="#F0B90B"/>
<path d="M27.117 24.1919L24.5 25.7255V22.6438L27.117 21.0957V24.1919Z" fill="white"/>
<path d="M10.992 19.9998L11.0064 25.2883L15.5 27.9325V31.0287L8.3766 26.8508V18.4534L10.992 19.9998ZM10.992 14.7114V17.7931L8.375 16.245V13.1633L10.992 11.6152L13.6218 13.1633L10.992 14.7114ZM17.3766 13.1633L19.9936 11.6152L22.6234 13.1633L19.9936 14.7114L17.3766 13.1633Z" fill="white"/>
<path d="M12.8828 24.1922V21.096L15.4998 22.6441V25.7258L12.8828 24.1922ZM17.3764 29.0415L19.9934 30.5896L22.6232 29.0415V32.1232L19.9934 33.6713L17.3764 32.1232V29.0415ZM26.3764 13.1633L28.9934 11.6152L31.6232 13.1633V16.245L28.9934 17.7931V14.7114L26.3764 13.1633ZM28.9934 25.2883L29.0078 19.9998L31.6248 18.4518V26.8492L24.5014 31.0271V27.9309L28.9934 25.2883Z" fill="white"/>
<path d="M27.1168 15.8073L27.1312 18.9034L22.6248 21.5477V26.849L20.0078 28.3826L17.3908 26.849V21.5477L12.8844 18.9034V15.8073L15.5126 14.2592L19.9918 16.9163L24.4982 14.2592L27.128 15.8073H27.1168ZM12.8828 10.5204L19.9934 6.32812L27.1168 10.5204L24.4998 12.0685L19.9934 9.41146L15.4998 12.0685L12.8828 10.5204Z" fill="white"/>
</g>
</g>
<defs>
<clipPath id="clip0_707_5752">
<rect width="24" height="24" fill="white" transform="translate(344 8)"/>
</clipPath>
<clipPath id="clip1_707_5752">
<rect width="24" height="24" fill="white" transform="translate(296 8)"/>
</clipPath>
<clipPath id="clip2_707_5752">
<rect width="24" height="24" fill="white" transform="translate(200 8)"/>
</clipPath>
<clipPath id="clip3_707_5752">
<rect width="24" height="24" fill="white" transform="translate(152 8)"/>
</clipPath>
<clipPath id="clip4_707_5752">
<rect width="24" height="24" fill="white" transform="translate(104 8)"/>
</clipPath>
<clipPath id="clip5_707_5752">
<rect width="40" height="40" fill="white" transform="translate(48)"/>
</clipPath>
<clipPath id="clip6_707_5752">
<rect width="40" height="40" fill="white" transform="translate(48)"/>
</clipPath>
<clipPath id="clip7_707_5752">
<rect width="40" height="40" fill="white"/>
</clipPath>
<clipPath id="clip8_707_5752">
<rect width="40" height="40" fill="white"/>
</clipPath>
</defs>
</svg>
