<svg width="400" height="400" viewBox="0 0 400 400" fill="none" xmlns="http://www.w3.org/2000/svg">
<path d="M400 200C400 310.457 310.457 400 200 400C89.5431 400 0 310.457 0 200C0 89.5431 89.5431 0 200 0C310.457 0 400 89.5431 400 200Z" fill="white"/>
<path d="M215.6 110V80H185.6V110H215.6Z" fill="#1A0C6D"/>
<path d="M154.4 200V80H94.4V200H154.4Z" fill="#1A0C6D"/>
<path d="M154.4 320V200H94.4V320H154.4Z" fill="#1A0C6D"/>
<path d="M274.4 200V140H244.4V200H274.4Z" fill="#1A0C6D"/>
<path d="M244.4 320V260H214.4V320H244.4Z" fill="#1A0C6D"/>
<path d="M274.4 320V260H244.4V320H274.4Z" fill="#1A0C6D"/>
<path d="M184.4 320V260H154.4V320H184.4Z" fill="#1A0C6D"/>
<path d="M304.4 140V80H274.4V140H304.4Z" fill="#1A0C6D"/>
<path d="M244.4 200V80H214.4V200H244.4Z" fill="#1A0C6D"/>
<path d="M214.4 320V200H184.4V320H214.4Z" fill="#1A0C6D"/>
</svg>
