<svg xmlns="http://www.w3.org/2000/svg" width="24" height="24" fill="none" xmlns:v="https://vecta.io/nano"><g clip-path="url(#A)"><circle cx="12" cy="12" r="12" fill="#edeff0"/><path d="M10.174 11.272L12 15.254l2.713-1.542h.005v-3.085l-4.544.645z" fill="#2bbdf7"/><path d="M18.221 8.314l-1.693-.626-1.811-.146v3.085 6.528l2.716 1.543 2.166-4.346-1.373-4.181-.005-1.857z" fill="#2891f9"/><path d="M18.063 7.542l-.63 1.544v9.589l2.716-1.543V7.542h-2.086z" fill="#2bbdf7"/><path d="M17.433 6l-2.716 1.542 2.716 1.544 2.716-1.544L17.433 6z" fill="#2b6def"/><path d="M12 12.169L9.284 9.172l-5.434-1.63v9.589l2.716 1.543.779-5.307 1.939.345L12 15.254v-3.085z" fill="#2891f9"/><path d="M6.566 6L3.851 7.542 12 12.169l1.231-.697 1.486-.845L6.566 6z" fill="#2b6def"/><path d="M6.567 12.169v6.505l2.718-1.543v-3.418l-2.718-1.544z" fill="#2bbdf7"/></g><defs><clipPath id="A"><path fill="#fff" d="M0 0h24v24H0z"/></clipPath></defs></svg>