<svg width="38" height="38" viewBox="0 0 38 38" fill="none" xmlns="http://www.w3.org/2000/svg">
<path d="M18.509 0.33427H18.5097C28.547 0.33427 36.6839 8.47114 36.6839 18.5085V18.5092C36.6839 28.5465 28.547 36.6834 18.5097 36.6834H18.509C8.47163 36.6834 0.334758 28.5465 0.334758 18.5092V18.5085C0.334758 8.47114 8.47163 0.33427 18.509 0.33427Z" fill="white" stroke="black" stroke-width="0.669516"/>
<path fill-rule="evenodd" clip-rule="evenodd" d="M15.5399 3.27832C8.39526 4.6545 2.99841 10.9403 2.99841 18.4865C2.99841 26.0328 8.39526 32.3186 15.5399 33.6948V32.2432C9.18622 30.8888 4.4208 25.2442 4.4208 18.4865C4.4208 11.7289 9.18622 6.08429 15.5399 4.72989V3.27832ZM21.46 4.73558V3.28346C28.5914 4.67009 33.9748 10.9496 33.9748 18.4865C33.9748 26.0235 28.5914 32.303 21.46 33.6896V32.2375C27.8003 30.8731 32.5524 25.2348 32.5524 18.4865C32.5524 11.7383 27.8003 6.10003 21.46 4.73558Z" fill="black"/>
<path d="M20.6933 17.9687C21.8751 18.1939 22.7917 18.6283 23.4432 19.2718C24.0947 19.8992 24.4204 20.7035 24.4204 21.6849V23.2292C24.4204 24.4036 23.9962 25.3527 23.1477 26.0767C22.2993 26.7845 21.1857 27.1384 19.807 27.1384H19.3298V29.5998H17.6935V27.1384H17.1936C16.2845 27.1384 15.4815 26.9373 14.7846 26.5352C14.0877 26.1169 13.5423 25.5378 13.1483 24.7977C12.7696 24.0416 12.5802 23.1729 12.5802 22.1916H14.2165C14.2165 23.189 14.4892 24.0014 15.0346 24.6288C15.5952 25.2401 16.33 25.5458 17.239 25.5458H19.7616C20.6555 25.5458 21.3751 25.3367 21.9205 24.9184C22.466 24.484 22.7387 23.921 22.7387 23.2292V21.6849C22.7387 21.1379 22.5341 20.6714 22.1251 20.2853C21.7312 19.8992 21.1857 19.6498 20.4888 19.5372L16.3982 18.8133C15.2467 18.6042 14.3528 18.1698 13.7165 17.5102C13.0802 16.8507 12.762 16.0222 12.762 15.0248V13.7217C12.762 12.5473 13.1711 11.6143 13.9892 10.9225C14.8225 10.2147 15.9209 9.86076 17.2845 9.86076H17.6935V7.39941H19.3298V9.86076H19.8525C21.1403 9.86076 22.1781 10.279 22.9659 11.1156C23.7538 11.936 24.1477 13.0219 24.1477 14.3732H22.5114C22.5114 13.4884 22.269 12.7806 21.7842 12.2497C21.2994 11.7188 20.6555 11.4534 19.8525 11.4534H17.2845C16.4209 11.4534 15.7315 11.6625 15.2164 12.0808C14.7013 12.483 14.4437 13.0299 14.4437 13.7217V15.0248C14.4437 15.5878 14.6331 16.0624 15.0119 16.4485C15.4058 16.8346 15.9436 17.092 16.6254 17.2207L20.6933 17.9687Z" fill="black"/>
</svg>
