<svg xmlns="http://www.w3.org/2000/svg" width="24" height="24" fill="none" xmlns:v="https://vecta.io/nano"><g clip-path="url(#A)"><circle cx="12" cy="12" r="12" fill="#ff060a"/><path d="M20.79 9.261l-2.764-2.625-.053-.037a1 1 0 0 0-.291-.163L5.392 4.2c-.054.008-.106.027-.152.058l-.05.039c-.061.062-.108.138-.136.22l-.013.034v.186.029c1.121 3.121 5.547 13.345 6.418 15.745.053.163.152.473.339.488h.042c.1 0 .525-.562.525-.562l8.371-10.201c.1-.121.188-.251.262-.389.019-.108.01-.218-.026-.321s-.099-.195-.181-.267zm-6.476 1.074l3.244-2.691 1.903 1.753-5.148.937zm-1.26-.176L7.468 5.581l9.038 1.667-3.452 2.911zm.504 1.2l5.717-.921-6.536 7.875.819-6.954zM6.71 6.038l5.877 4.987-.851 7.292L6.71 6.038z" fill="#fff"/></g><defs><clipPath id="A"><path fill="#fff" d="M0 0h24v24H0z"/></clipPath></defs></svg>