<svg width="108" height="108" viewBox="0 0 108 108" fill="none" xmlns="http://www.w3.org/2000/svg">
<circle cx="54" cy="54" r="54" fill="white"/>
<path d="M88.0626 22.6656L85.0972 25.631C92.1731 33.3691 96.0971 43.475 96.0971 53.9605C96.0971 64.446 92.1731 74.552 85.0972 82.29L88.0626 85.2554C95.9318 76.7198 100.301 65.5354 100.301 53.9259C100.301 42.3164 95.9318 31.132 88.0626 22.5964V22.6656Z" fill="#5A5564"/>
<path d="M25.7001 22.9225C33.4382 15.8466 43.5441 11.9226 54.0296 11.9226C64.5151 11.9226 74.6211 15.8466 82.3591 22.9225L85.3245 19.9571C76.7889 12.0879 65.6045 7.71899 53.995 7.71899C42.3855 7.71899 31.2011 12.0879 22.6655 19.9571L25.7001 22.9225Z" fill="#5A5564"/>
<path d="M22.9226 82.3196C15.8551 74.5833 11.9362 64.4835 11.9362 54.0049C11.9362 43.5263 15.8551 33.4266 22.9226 25.6903L19.9572 22.7249C12.088 31.2605 7.71912 42.4448 7.71912 54.0543C7.71912 65.6639 12.088 76.8482 19.9572 85.3838L22.9226 82.3196Z" fill="#5A5564"/>
<path d="M82.3196 85.0576C74.5815 92.1336 64.4756 96.0575 53.9901 96.0575C43.5046 96.0575 33.3986 92.1336 25.6606 85.0576L22.6952 88.023C31.2308 95.8922 42.4152 100.261 54.0247 100.261C65.6342 100.261 76.8186 95.8922 85.3542 88.023L82.3196 85.0576Z" fill="#5A5564"/>
<path d="M72.7216 44.1055C72.1285 37.9177 66.7908 35.8419 60.0396 35.2093V26.6887H54.8205V35.0512C53.4465 35.0512 52.0429 35.0512 50.6491 35.0512V26.6887H45.4695V35.2686H34.8831V40.8535C34.8831 40.8535 38.7381 40.7843 38.6788 40.8535C39.3739 40.777 40.0715 40.9733 40.6247 41.4011C41.1778 41.8289 41.5433 42.4547 41.6442 43.1467V66.6327C41.6293 66.8768 41.5657 67.1153 41.457 67.3343C41.3484 67.5534 41.1969 67.7484 41.0116 67.9078C40.8297 68.0703 40.6169 68.1944 40.3859 68.2725C40.1548 68.3507 39.9104 68.3813 39.6672 68.3625C39.7364 68.4218 35.8715 68.3625 35.8715 68.3625L34.8831 74.5998H45.3707V83.318H50.5898V74.7283H54.7611V83.2785H59.9901V74.6591C68.8073 74.1253 74.9555 71.9507 75.7265 63.697C76.3493 57.0545 73.2257 54.089 68.234 52.893C71.2686 51.4004 73.1466 48.6327 72.7216 44.1055ZM65.4069 62.669C65.4069 69.1533 54.2966 68.4119 50.7578 68.4119V56.9062C54.2966 56.9161 65.4069 55.8979 65.4069 62.669ZM62.9852 46.4581C62.9852 52.3889 53.7134 51.6673 50.7677 51.6673V41.2093C53.7134 41.2093 62.9852 40.2802 62.9852 46.4581Z" fill="#F09242"/>
<path d="M53.9901 108C43.3108 107.998 32.8718 104.83 23.9931 98.8953C15.1143 92.9609 8.19455 84.5272 4.10864 74.6604C0.0227312 64.7936 -1.04582 53.9368 1.0381 43.4627C3.12202 32.9887 8.26482 23.3677 15.8163 15.8163C23.3677 8.26482 32.9887 3.12202 43.4627 1.0381C53.9368 -1.04582 64.7936 0.0227312 74.6604 4.10864C84.5272 8.19455 92.9609 15.1143 98.8953 23.9931C104.83 32.8718 107.998 43.3108 108 53.9901C108.001 61.0832 106.605 68.107 103.891 74.6604C101.178 81.2137 97.1993 87.1683 92.1838 92.1838C87.1683 97.1993 81.2137 101.178 74.6604 103.891C68.107 106.605 61.0832 108.001 53.9901 108ZM53.9901 4.2109C44.1512 4.21872 34.5354 7.1432 26.3581 12.6147C18.1808 18.0862 11.8092 25.8592 8.04847 34.9511C4.28778 44.0429 3.30686 54.0457 5.2297 63.6949C7.15254 73.3442 11.8928 82.2068 18.8514 89.1626C25.81 96.1184 34.6745 100.855 44.3245 102.774C53.9745 104.693 63.9768 103.708 73.0672 99.944C82.1576 96.1797 89.928 89.805 95.3963 81.6255C100.865 73.4461 103.785 63.8291 103.789 53.9901C103.792 47.4506 102.505 40.9748 100.003 34.9328C97.5014 28.8908 93.833 23.4013 89.208 18.7781C84.5829 14.1549 79.0919 10.4887 73.049 7.98914C67.006 5.48959 60.5296 4.2057 53.9901 4.2109Z" fill="#282138"/>
</svg>
