<svg xmlns="http://www.w3.org/2000/svg" width="24" height="24" fill="none" xmlns:v="https://vecta.io/nano"><g clip-path="url(#A)"><path d="M12 22.701c5.91 0 10.701-4.791 10.701-10.701S17.91 1.299 12 1.299 1.299 6.09 1.299 12 6.09 22.701 12 22.701z" fill="#fff"/><path d="M12 0A12 12 0 0 0 .913 7.408a12 12 0 0 0 2.601 13.077 12 12 0 0 0 13.077 2.601A12 12 0 0 0 24 12c.005-1.571-.3-3.128-.897-4.582s-1.475-2.775-2.582-3.889S18.096 1.53 16.646.924 13.641.005 12.07 0H12zm.203 12.407l-1.249 4.213h6.683c.044-.002.088.006.13.021s.079.039.112.069.059.067.077.107.029.084.03.128v.11l-.581 2.005c-.026.095-.083.178-.162.236s-.176.087-.274.083H6.741l1.714-5.84-1.918.581.436-1.337 1.918-.581 2.412-8.194a.44.44 0 0 1 .436-.32h2.586c.044-.002.088.006.13.021s.079.039.112.069.059.067.077.107.028.084.03.128v.11l-2.034 6.915 1.918-.581-.407 1.395-1.947.552z" fill="#345d9d"/></g><defs><clipPath id="A"><path fill="#fff" d="M0 0h24v24H0z"/></clipPath></defs></svg>