<svg xmlns="http://www.w3.org/2000/svg" width="24" height="24" fill="none" xmlns:v="https://vecta.io/nano"><g clip-path="url(#A)"><circle cx="12" cy="12" r="12" fill="#edeff0"/><path d="M18.092 12.856l-6.119 3.169-6.069-3.169 6.069 8.744 6.119-8.744zm-.233-.876l-5.892-3.058-5.816 3.036 5.812 3.062 5.896-3.039zm-5.886-4.038l6.119 3.133L12 2.4l-6.096 8.695 6.069-3.152z" fill="#657abd"/><path d="M17.859 11.981l-5.892-3.058-5.816 3.036 5.812 3.061 5.896-3.039z" fill="#9c68aa"/><path d="M11.973 7.943l6.119 3.133L12 2.4l-6.096 8.695 6.069-3.152z" fill="#f48975"/><path d="M11.973 7.943L12 2.4l-6.096 8.695 6.069-3.152z" fill="#f8ec66"/><path d="M6.151 11.958l5.816-3.036-.003 6.097-5.812-3.062z" fill="#50ba78"/><path d="M11.973 16.025l-6.069-3.169 6.069 8.744v-5.575z" fill="#10aed3"/></g><defs><clipPath id="A"><path fill="#fff" d="M0 0h24v24H0z"/></clipPath></defs></svg>