<svg xmlns="http://www.w3.org/2000/svg" width="24" height="24" fill="none" xmlns:v="https://vecta.io/nano"><g clip-path="url(#B)"><path d="M23.641 14.903a12 12 0 0 1-14.545 8.738A12 12 0 0 1 .359 9.098 12 12 0 0 1 14.902.359a12 12 0 0 1 8.739 14.544z" fill="url(#A)"/><path d="M17.279 10.305c.239-1.597-.977-2.455-2.639-3.028l.539-2.163-1.317-.328-.525 2.106-1.055-.248.529-2.12-1.316-.328-.54 2.162-.841-.198.002-.007L8.3 5.7l-.35 1.406.956.238c.533.133.63.486.614.766l-1.478 5.925c-.065.162-.231.405-.603.313.013.019-.957-.239-.957-.239l-.654 1.507 1.714.427.939.242-.545 2.188 1.315.328.54-2.165 1.049.272-.538 2.154 1.317.328.545-2.184c2.245.425 3.934.254 4.645-1.777.573-1.635-.029-2.578-1.21-3.193.86-.198 1.508-.764 1.681-1.933zm-3.009 4.218c-.407 1.635-3.16.751-4.053.53l.723-2.898c.893.223 3.755.664 3.33 2.369zm.407-4.242c-.371 1.487-2.663.732-3.406.546l.656-2.629c.743.185 3.137.531 2.75 2.082z" fill="#fff"/></g><defs><linearGradient id="A" x1="0" y1="0" x2="0" y2="24" gradientUnits="userSpaceOnUse"><stop stop-color="#f9aa4b"/><stop offset="1" stop-color="#f7931a"/></linearGradient><clipPath id="B"><path fill="#fff" d="M0 0h24v24H0z"/></clipPath></defs></svg>