<svg xmlns="http://www.w3.org/2000/svg" width="266" height="266" xmlns:v="https://vecta.io/nano"><circle cx="133" cy="133" r="133" fill="#212529"/><path d="M231.01 112.736a98.97 98.97 0 0 0-5.812-18.66 100.77 100.77 0 0 0-9.176-16.928 100.52 100.52 0 0 0-26.82-26.812 104.23 104.23 0 0 0-16.92-9.176c-43.765-18.376-94.416-3.315-121.03 35.988a104.25 104.25 0 0 0-9.176 16.928 98.97 98.97 0 0 0 0 77.289c2.514 5.919 5.587 11.584 9.176 16.92a100.39 100.39 0 0 0 26.82 26.82 104.29 104.29 0 0 0 16.92 9.176 98.97 98.97 0 0 0 77.289 0 101.21 101.21 0 0 0 16.92-9.176 100.39 100.39 0 0 0 26.82-26.82 104.29 104.29 0 0 0 9.176-16.92 98.97 98.97 0 0 0 5.813-58.629zm-97.282 106.957c-47.979 0-86.873-38.894-86.873-86.873s38.894-86.873 86.873-86.873 86.873 38.894 86.873 86.873-38.895 86.871-86.873 86.873zm1.539-7.542h2.348c.408.018.817-.018 1.216-.108h.111a4.22 4.22 0 0 0 1.116-.1h.308a2.83 2.83 0 0 0 .916-.1h.308c.308 0 .616-.1 1.024-.1h.2c.408 0 .816-.108 1.224-.108a4.42 4.42 0 0 0 1.124-.2h.2c.308 0 .616-.1.916-.1h.208c.408-.108.716-.108 1.124-.208a16.43 16.43 0 0 0 2.34-.508h.208c.3-.1.708-.1 1.016-.208h.1l2.348-.608a91.16 91.16 0 0 1-22.732-2.14c-11.224-2.448-21.924-6.828-31-14.38a62.82 62.82 0 0 1-22.635-48.84 59.34 59.34 0 0 1 13.964-37.928 60.56 60.56 0 0 1 45.064-21.416h2.348V71.543h-2.648a76.49 76.49 0 0 0-15.3 1.832 73.45 73.45 0 0 0-14.68 5 75.14 75.14 0 0 0-13.461 8.156 71.76 71.76 0 0 0-11.723 11.22 69.39 69.39 0 0 0-8.46 12.54c-2.331 4.313-4.213 8.854-5.617 13.552a74.11 74.11 0 0 0-2.748 14.18l-.308 4.48v2.648a76.71 76.71 0 0 0 1.837 15.3 73.6 73.6 0 0 0 5 14.688c2.556 5.6 7.144 13.864 13.972 20.084 13.94 10.989 31.181 16.954 48.932 16.928h1.84zm22.225-13.06a103.7 103.7 0 0 1-14.988-1.632c-21-3.772-39.052-16.62-45.672-35.988-8.059-23.556 4.28-49.044 27.728-56.79a43.38 43.38 0 0 1 13.864-2.248 46.86 46.86 0 0 1 17.549 3.466l5.7-12.132q-2.573-1.032-5.2-1.932a60.06 60.06 0 0 0-18.049-2.754 57.59 57.59 0 0 0-38.128 14.58 58.4 58.4 0 0 0-7.644 8.26 55.52 55.52 0 0 0-5.812 9.484 58.07 58.07 0 0 0-2.656 44.346 56.37 56.37 0 0 0 12.24 20.292 65.72 65.72 0 0 0 17.836 13.256c7.344 3.872 16.42 5.912 25.9 7.244a164.82 164.82 0 0 0 19.068 1.016c4.18-1.532 5.912-2.248 8.16-3.164 1.94-.916 3.872-1.832 5.812-2.956s2.248-1.332 5.5-3.464c.29-.18.563-.386.816-.616-11.216 1.94-14.072 1.832-22.024 1.732zm25.088-15.187c-3.164.2-7.652.5-12.748.5-9.076 0-20.192-.808-29.668-3.972-14.689-4.888-28.553-17.428-28.553-32.932a27.94 27.94 0 0 1 52.309-13.664l12.132-6.012a39.42 39.42 0 0 0-7.244-9.684 41.4 41.4 0 0 0-70.66 29.26 40.8 40.8 0 0 0 3.58 16.52 49.66 49.66 0 0 0 8.867 13.153 62.35 62.35 0 0 0 25.388 16.1c9.276 3.056 22.94 4.18 36.2 3.264a75.82 75.82 0 0 0 11.108-1.632 76.5 76.5 0 0 0 12.24-12.132l-12.951 1.231z" fill="#fff"/></svg>