<svg xmlns="http://www.w3.org/2000/svg" xmlns:xlink="http://www.w3.org/1999/xlink" viewBox="0 0 74.5 71.4" xmlns:v="https://vecta.io/nano"><style><![CDATA[.H{fill:none}.I{stroke:#221f1f}.J{stroke-linejoin:round}.K{fill:#f79422}.L{stroke-linecap:round}.M{fill:#221f1f}.N{stroke-miterlimit:10}]]></style><path d="M65.9 53.7c-.8 9.5-12 17.5-28.8 17.1h0c-15.8-.4-26.9-7-27.7-16.5-.1-1.2 0-2.4.1-3.7.5-3.7 1.8-7.2 3.7-10.4l1.2.5c3.1-1.2 6.3-2.1 9.6-2.7 4.3-.6 8.7-.7 13-.4h0c4.3-.3 8.7-.2 13 .4 3.3.6 6.5 1.5 9.6 2.7l1.2-.5.8-.4c1.9 3.2 3.2 6.7 3.9 10.4.2 1.1.3 2.3.2 3.4" fill="#f4a427"/><path d="M65.9 53.7c-.8 9.4-11.9 17.1-28.8 17h0c-15.8-.4-26.9-7-27.7-16.5-.1-1.2 0-2.4.1-3.7 1.7-.4 3.4-.4 5.1-.1 3.2.5 5 2.5 7.3 3.5 1.3.6 2.6-.4 3.8-1.5 3.2-3.1 7.5-4.9 11.9-5 4.5-.1 8.2 1.7 12.1 5.3.8.8 1.9 1.3 3 1.2 1-.3 2-.8 2.8-1.5a14.51 14.51 0 0 1 10.1-2.3c.3 1.3.4 2.4.3 3.6" fill="#fff"/><path d="M19.4 30.3c-1.1 1.1-2.5 1.9-4 2.2l-.6.1c-.6.2-1.2.3-1.9.3h-.4l-1-.3c-1.1-.5-2.1-1.1-3-1.9-1.8-1.5-3.5-3.2-4.8-5.2C-1.8 17.5-.1 6.7 7.5.7 8 .4 8.6.4 9 .9c.2.3.3.6.2.9C8.5 5 7.9 10 10.9 14.3c2.6 3.6 8 7.1 11.3 7.1.7 4-.4 6.7-2.8 8.9" class="K"/><use xlink:href="#A" class="H I J"/><path d="M33.8 16.5l-1.3 12.8h-.1L24 30.6c-3.4.5-8 2.9-10.7 4.5L13 33l1.9-.3.6-.1c1.5-.3 2.9-1.1 4-2.2 2.3-2.3 3.5-4.9 2.7-9l.4.1c1.2-1.3 2.6-2.3 4.2-3.1 2.1-1.2 4.5-1.8 7-1.9" fill="#5a595c"/><path d="M33.8 16.5l-1.3 12.8h-.1L24 30.6c-3.4.5-8 2.9-10.7 4.5L13 33l1.9-.3.6-.1c1.5-.3 2.9-1.1 4-2.2 2.3-2.3 3.5-4.9 2.7-9l.4.1c1.2-1.3 2.6-2.3 4.2-3.1 2.1-1.2 4.5-1.8 7-1.9z" class="H I J"/><path d="M63 39.5l-.8.4h0l-.8.4-1.2.5c-3.1-1.2-6.3-2.1-9.6-2.7-4.3-.8-8.6-1.2-13-1.2h0c-4.4 0-8.7.3-13 1.2-3.3.6-6.5 1.5-9.6 2.7-.4-.2-.8-.4-1.2-.5l-1.7-.8c.1-1.4 0-2.2 0-3.6.3-.2.8-.5 1.3-.8l.1-.1c2.6-1.6 7.2-3.9 10.6-4.5l8.4-1.3c1.3-.1 2.7-.1 4.1-.1 2.1 0 4 0 5.9.1l8.5 1.3c3.5.5 8.1 2.9 10.8 4.5h.1c.5.3.9.5 1.2.8-.1 1.5-.2 2.3-.1 3.7" fill="#929497"/><path d="M63 39.5l-.8.4h0l-.8.4-1.2.5c-3.1-1.2-6.3-2.1-9.6-2.7-4.3-.7-8.6-1.1-13-1.1h0c-4.4 0-8.7.3-13 1.1-3.3.6-6.5 1.5-9.6 2.7-.4-.2-.8-.4-1.2-.5l-1.7-.8c.1-1.4 0-2.2 0-3.6.3-.2.8-.5 1.3-.8l.1-.1c2.6-1.6 7.2-3.9 10.6-4.5l8.4-1.3c1.3-.1 2.7-.1 4.1-.1 2.1 0 4 0 5.9.1l8.5 1.3c3.5.5 8.1 2.9 10.8 4.5h.1c.5.3.9.5 1.2.8-.1 1.5-.2 2.3-.1 3.7z" class="H I J"/><use xlink:href="#B" fill="#929497"/><g class="H I J"><use xlink:href="#B"/><path d="M62.2 39.9h0" class="L"/><path d="M65.9 53.8c-.8 9.5-12.9 17.1-28.8 17.1h0c-15.8-.4-26.9-7-27.6-16.5-.1-1.2 0-2.4.1-3.7.5-3.7 1.8-7.2 3.7-10.4l1.2.5c3.1-1.2 6.3-2.1 9.6-2.7 4.3-.8 8.6-1.1 13-1.2h0c4.4 0 8.7.4 13 1.2 3.3.6 6.5 1.5 9.6 2.7l1.3-.5.8-.4c1.9 3.2 3.2 6.7 3.9 10.4.3 1.2.3 2.4.2 3.5z"/></g><path d="M70.8 25.5c-1.4 1.9-3 3.7-4.9 5.2-.9.8-1.9 1.4-3 1.9l-.5.2-.3.1c-.7.2-1.1 0-2.4-.2l-.6-.1c-1.5-.3-2.9-1.1-4-2.2-2.3-2.3-3.5-4.9-2.7-9 3.2.1 8.7-3.4 11.3-7.1C66.6 10 66 5 65.3 1.8a1.11 1.11 0 0 1 .8-1.3.96.96 0 0 1 .9.2c7.6 6 9.3 16.9 3.8 24.8" class="K"/><path d="M70.8 25.5c-1.4 1.9-3 3.7-4.9 5.2-.9.8-1.9 1.4-3 1.9l-.5.2-.3.1c-.7.2-1.1 0-2.4-.2l-.6-.1c-1.5-.3-2.9-1.1-4-2.2-2.3-2.3-3.5-4.9-2.7-9 3.2.1 8.7-3.4 11.3-7.1C66.6 10 66 5 65.3 1.8a1.11 1.11 0 0 1 .8-1.3.96.96 0 0 1 .9.2c7.6 6 9.3 16.9 3.8 24.8z" class="H I J"/><path d="M62.1 32.9l-.4 2.2c-2.7-1.6-7.3-4-10.8-4.5l-8.5-1.3-1.3-12.8c2.3.1 4.6.8 6.7 1.9 1.6.8 3 1.9 4.2 3.1l.4-.1c-.8 4 .4 6.7 2.7 9 1.1 1.1 2.5 1.9 4 2.2.1 0 .5.2.6.2.8.3 1.6.3 2.4.1" fill="#5a595c"/><g class="H I J"><path d="M62.1 32.9l-.4 2.2c-2.7-1.6-7.3-4-10.8-4.5l-8.5-1.3-1.3-12.8c2.3.1 4.6.8 6.7 1.9 1.6.8 3 1.9 4.2 3.1l.4-.1c-.8 4 .4 6.7 2.7 9 1.1 1.1 2.5 1.9 4 2.2l.6.1c1.3.2 1.7.4 2.4.2z"/><path d="M41.1 16.5h-.4"/></g><path d="M62.2 32.4c.7.8.5 2-.3 2.7l-.2.2" class="K"/><path d="M62.2 32.4c.7.8.5 2-.3 2.7l-.2.2" class="H I N"/><path d="M12.9 32.4c-.7.8-.5 2 .3 2.7l.2.2" class="K"/><g class="H"><path d="M12.9 32.4c-.7.8-.5 2 .3 2.7l.2.2" class="I N"/><path d="M33.8 57.6c.7.2 1.5.1 2.2-.3 1.1-.4 1.8-1.5 1.7-2.7-.1 1.2.6 2.3 1.7 2.7.7.3 1.4.4 2.1.3" stroke="#171717" class="J L"/></g><path d="M41.6 51.2c0 1.2-1.8 2.8-4 2.8s-4-1.6-4-2.8 1.8-1.6 4-1.6 4 .5 4 1.6" fill="#171717"/><path d="M39.2 50.8c0 .3-.8.7-1.7.7s-1.7-.4-1.7-.6.8-.2 1.7-.2 1.7-.2 1.7.1" fill="#fff"/><g class="H J"><path d="M31.3 54.6a2.72 2.72 0 0 0 2.2 2.9h.3m3.9-4.3v1.4m3.9 3h.3c1.4-.3 2.4-1.5 2.2-2.9" stroke="#171717" class="L"/><g class="I"><path d="M67 .7c7.6 6 9.2 16.8 3.7 24.7"/><use xlink:href="#A"/></g></g><path d="M30.3 44.7c0 2.2-1.3 3.9-2.9 3.9s-2.9-1.8-2.9-3.9c0-1.9 1-3.5 2.3-3.9l3.2 2.4c.2.5.3 1 .3 1.5z" class="M"/><path d="M29.2 44.2c0 .8-.5 1.4-1 1.4s-1-.6-1-1.4.5-1.4 1-1.4 1 .6 1 1.4" fill="#fff"/><g class="M"><path d="M26.8 47.7c-1.1.9-2.1 1.9-3 3-.4.5-.8 1.1-1.1 1.8-.3.6-.5 1.3-.6 2-.1.3-.1.7-.1 1v.5.5 2.2l.3 2.2c.1.4.1.7.2 1.1.1.3.2.7.4 1-.2-.3-.3-.7-.5-1-.1-.3-.3-.7-.4-1l-.6-2.2-.3-2.2v-.5-.6-1.1c.1-.8.2-1.6.5-2.3l1-2.1c.9-1.3 1.8-2.5 2.9-3.5a1.05 1.05 0 0 1 1.3 0c.3.2.4.8 0 1.2h0 0z"/><path d="M26.1 47.4h-.2-.1-.2l-.5-.1c-.3-.1-.6-.1-.9-.1-.6 0-1.3 0-1.9.2l-.9.3a5.1 5.1 0 0 0-2.2 1.9c.3-.7.6-1.3 1.1-1.8.2-.3.5-.5.8-.7l.9-.6c.6-.4 1.3-.6 2.1-.8.4-.1.7-.1 1.1-.1h.6.4 0c.5 0 .9.4 1 .9s-.5.9-1.1.9h0m24.7-2.7c0 2.2-1.3 3.9-2.8 3.9s-2.9-1.8-2.9-3.9c0-.5.1-1 .2-1.5l3.2-2.4c1.3.4 2.3 2 2.3 3.9z"/></g><path d="M46.1 44.2c0 .8.5 1.4 1 1.4s1-.6 1-1.4-.5-1.4-1-1.4-1 .6-1 1.4" fill="#fff"/><g class="M"><path d="M49.8 46.3c1.1 1.1 2 2.2 2.8 3.5a12.81 12.81 0 0 1 1.1 2c.3.7.5 1.5.6 2.2.1.8.1 1.5 0 2.3l-.3 2.2c-.1.7-.3 1.4-.5 2.1-.1.3-.2.7-.4 1a4.67 4.67 0 0 1-.5 1c.1-.3.3-.7.4-1l.3-1c.1-.7.3-1.4.3-2.1.1-.7.1-1.4.1-2.2 0-.7-.1-1.4-.2-2.1-.2-.7-.4-1.3-.7-1.9a6.57 6.57 0 0 0-1.2-1.7c-.9-1.1-1.9-2.1-3-3h0a.85.85 0 0 1 0-1.3c.3-.3.8-.4 1.2-.1v.1"/><path d="M49.2 45.6h0 .5.6c.4 0 .8 0 1.2.1.8.1 1.5.3 2.2.6s1.3.8 1.9 1.3c.5.5.9 1.2 1.2 1.8-.4-.6-.9-1.1-1.5-1.5s-1.2-.7-1.9-.8-1.4-.1-2.1-.1c-.3 0-.7.1-1 .1l-.5.1h-.2-.1-.1-.1c-.5.1-1-.3-1-.8-.1-.5.3-1 .8-1h.2"/></g><defs><path id="A" d="M19.4 30.3c-1.1 1.1-2.5 1.9-4 2.2l-.6.1c-.6.2-1.2.3-1.9.3h-.4l-1-.3c-1.1-.5-2.1-1.1-3-1.9-1.8-1.5-3.5-3.2-4.8-5.2C-1.8 17.5-.1 6.7 7.5.7 8 .4 8.6.4 9 .9c.2.3.3.6.2.9C8.5 5 7.9 10 10.9 14.3c2.6 3.6 8 7.1 11.3 7.1.7 4-.4 6.7-2.8 8.9z"/><path id="B" d="M42.4 29.3l-5.9-.1-4.1.1h.1l1.3-12.8.3-2.6c1-.6 2.2-.9 3.3-.9h.2c1.2 0 2.3.3 3.3.9l.3 2.6v.1l1.2 12.7z"/></defs></svg>