<svg xmlns="http://www.w3.org/2000/svg" width="24" height="24" fill="none" xmlns:v="https://vecta.io/nano"><g clip-path="url(#A)"><path d="M12 24c6.627 0 12-5.373 12-12S18.627 0 12 0 0 5.373 0 12s5.373 12 12 12z" fill="#172852"/><g fill="#ffd83d"><path d="M9.666 5.363c1.405-.526 2.987-.527 4.418-.095 1.864.578 3.437 1.985 4.259 3.75.227.503.444 1.027.466 1.586-1.048-.607-2.196-1.001-3.347-1.36-1.841-.664-3.768-1.124-5.51-2.036-.406-.242-.923-.491-1.033-.996-.044-.437.418-.68.748-.85zM5.424 9.611c.407-1.104 1.074-2.129 1.98-2.888.23 1.895 1.037 3.726 2.369 5.104 1.597 1.66 3.872 2.678 6.187 2.64.919.029 1.818-.184 2.714-.355-.882 3.187-4.375 5.303-7.612 4.794-1.954-.25-3.757-1.406-4.846-3.04a7.04 7.04 0 0 1-.793-6.254z"/></g><path d="M15.462 9.245c1.151.359 2.299.752 3.347 1.36l.071.037c.097.731.168 1.476.038 2.208-.527-.223-.954-.616-1.4-.962-.859-.715-1.736-1.534-2.056-2.642z" fill="#ff6f03"/></g><defs><clipPath id="A"><path fill="#fff" d="M0 0h24v24H0z"/></clipPath></defs></svg>