<svg xmlns="http://www.w3.org/2000/svg" width="20" height="20" fill="none" xmlns:v="https://vecta.io/nano"><path d="M10 20c5.523 0 10-4.477 10-10S15.523 0 10 0 0 4.477 0 10s4.477 10 10 10z" fill="#07a658"/><path fill-rule="evenodd" d="M13.197 4.384c.225.026.367.254.292.467L12.39 7.974c-.098.279-.475.32-.632.07l-.235-.376-4.241 2.65-.436-.698a2.38 2.38 0 0 1 .757-3.28l2.223-1.389-.257-.412c-.157-.251.046-.571.34-.537l3.288.381zm-4.446 7.24c-1.532.885-2.057 2.844-1.173 4.376l4.315-2.491a2.38 2.38 0 0 0 .871-3.252l-.412-.713-3.602 2.08z" fill="#fff"/></svg>