<svg xmlns="http://www.w3.org/2000/svg" xmlns:xlink="http://www.w3.org/1999/xlink" width="24" height="24" fill="none" xmlns:v="https://vecta.io/nano"><g clip-path="url(#AF)"><path d="M12 24c6.627 0 12-5.373 12-12S18.627 0 12 0 0 5.373 0 12s5.373 12 12 12z" fill="#f3f4f5"/><path d="M10.463 15.504c.384 1.42 1.761 2.503 2.456 2.458.024-.002 2.637-.489 4.067-2.878 1.113-1.86.734-3.655-.78-3.694-.544.04-6.474 1.41-5.743 4.115h0zm5.602-9.118l-.002-.001.002-.001c-.953-.811-2.117-1.336-3.356-1.515s-2.503-.004-3.647.505c-.145.06-.286.129-.422.206l-.277.153.022.007c-.268.182-.504.406-.701.664-1.905 2.519 4.486 4.35 7.904 4.356 1.572 1.129 2.013-3.177.477-4.373z" fill="#0e3ca5"/><path d="M9.449 6.436c-.878 1.32-3.803 2.25-4.284 2.105l-.003-.006.06-.119a7.04 7.04 0 0 1 2.085-2.433l.559-.37a2.07 2.07 0 0 1 .967-.257c1.302.025.622 1.071.615 1.081h0zm-.721 9.327c.063.415-.002 2.053-.086 2.191-.073.004-.225.014-.666-.234a7.01 7.01 0 0 1-3.179-8.299l.073-.21 1.585 1.957c.473.646 1.123 1.698 1.256 1.923.822 1.396.953 2.258 1.016 2.672h.001zm9.716-4.129c.001.88-.164 1.753-.487 2.572-.825.886-6.386-1.296-6.44-1.32-.761-.333-3.076-1.347-3.285-2.94-.299-2.293 4.349-3.89 6.392-3.95.245.003.991.012 1.425.365.753.657 1.356 1.467 1.769 2.377s.626 1.897.625 2.896zm-3.764 6.211c-.606.283-1.274.077-1.1-.513.333-1.134 3.24-2.296 3.882-2.36.079-.008.113.046.078.108a7.07 7.07 0 0 1-2.859 2.765" fill="#5493f7"/><path d="M7.537 18.956a.49.49 0 0 0 .447.52c5.89.04 11.575-.23 11.575-1.113 0-2.671-12.022.592-12.022.592z" fill="url(#A)"/><path d="M7.537 18.956a.49.49 0 0 0 .449.52c5.888.045 11.566-.14 11.573-1.113 0-2.671-12.022.592-12.022.592zm.449.486a.41.41 0 0 1-.047-.003.46.46 0 0 1-.381-.338c.025.095.08.179.158.24s.172.095.27.098c5.884-.037 11.482-1.849 11.482-1.051 0 .814-5.597 1.094-11.481 1.054z" fill="url(#B)"/><path d="M7.987 11.391a.45.45 0 0 0-.45.45v7.116a.45.45 0 0 0 .447.45c5.89-.044 11.583-1.994 11.575-1.042V10.35c.007-.952-5.684.998-11.573 1.042z" fill="url(#C)"/><path d="M8.855 16.302l.617-.028.594-.038.573-.048.556-.053.542-.058 1.054-.13.518-.072.515-.079.518-.081.521-.084.528-.091.54-.093.553-.096.569-.099.59-.095.633-.089a4.68 4.68 0 0 1 .821-.044c.258.018.462.083.462.263v-.617c0-.178-.196-.241-.436-.261-.256-.013-.513-.002-.767.032l-.593.08-.529.083-.513.087-.507.089-.514.089-.531.091-.556.094-.6.094-.649.1v-.617l.649-.1.6-.094.556-.094.531-.091.514-.089.507-.089.513-.087.529-.083.593-.08a4.19 4.19 0 0 1 .767-.033c.241.019.436.084.436.261v-.616c0-.177-.196-.241-.436-.261a4.2 4.2 0 0 0-.767.032l-.593.08-.529.083-.513.087-.507.089-.514.089-.531.091-.556.093-.6.095-.648.099v-.616l.649-.1.6-.094.556-.094.531-.091.514-.089.507-.089 1.042-.17.593-.081c.254-.034.511-.045.767-.032.24.019.436.084.436.261v-.617c0-.178-.196-.241-.436-.261a4.17 4.17 0 0 0-.767.032l-.593.08-.529.083-.513.087-.507.09-.514.089-.531.091-.556.094-.6.095-.649.1v-.617l.648-.1.601-.095.556-.093.531-.091.514-.089.507-.089.513-.087.529-.083.593-.08a4.19 4.19 0 0 1 .767-.033c.241.019.436.084.436.261v-.617c0-.177-.196-.241-.436-.261a4.1 4.1 0 0 0-.767.033l-.593.08-.529.083-.513.087-.507.089-.514.089-.531.091-1.157.188-.649.1v-.625a39.12 39.12 0 0 1-5.377.465.45.45 0 0 0-.45.45v4.489l.674-.008.644-.02z" fill="url(#D)"/><path d="M8.854 17.535l.617-.028.595-.038.573-.048.556-.053.542-.058 1.053-.13.518-.072.515-.079.518-.08.522-.085.528-.09.54-.093.553-.096.569-.099.59-.095.633-.089a4.65 4.65 0 0 1 .821-.044c.258.018.462.083.462.263v-.617c0-.18-.204-.246-.462-.263a4.66 4.66 0 0 0-.821.044l-.633.089-.59.095-.569.099-.554.096-.54.093-.528.09-.522.084-.518.081-.515.078-.518.072-.523.067-.53.063-.542.058-.556.053-.573.048-.595.038-.617.028-.644.019-.673.008v.616l1.317-.026z" fill="url(#E)"/><path d="M19.097 16.874a4.68 4.68 0 0 0-.821.044l-.633.089-.589.095-.57.099-.553.096-.54.093-.528.091-.522.084-.518.08-.515.079-.518.072-1.053.13-.542.058-.556.053-.573.048-.595.038-1.935.056v.618l.673-.008.644-.019.617-.028.595-.038.573-.048.556-.053.542-.058.53-.063.523-.067.518-.072.515-.078.518-.081.522-.085.528-.091.54-.093.553-.096.57-.099.589-.095.633-.089a4.7 4.7 0 0 1 .821-.044c.258.017.462.083.462.263v-.618c0-.18-.204-.245-.462-.263z" fill="url(#F)"/><path d="M8.816 15.687l.568-.025.541-.033.527-.041 1.068-.103.567-.065.611-.077.666-.092v-4.324a39.09 39.09 0 0 1-5.376.465.45.45 0 0 0-.45.45v3.873l.667-.007.611-.018z" fill="url(#G)"/><path d="M8.924 11.573l-.055.173-.177.006.143.101-.055.173.143-.111.143.099-.055-.168.144-.112-.177.008-.054-.169z" fill="url(#H)"/><path d="M9.437 13.7l-.055.174-.178.009.144.098-.055.173.144-.113.144.097-.055-.167.144-.114-.178.011-.055-.167z" fill="url(#I)"/><path d="M9.492 14.728l-.055-.168-.055.174-.178.009.144.098-.055.173.144-.113.144.097-.055-.167.144-.114-.178.011z" fill="url(#J)"/><path d="M8.924 13.293l-.055.173-.177.007.143.1-.054.173.143-.111.144.1-.055-.168.144-.112-.177.008-.055-.168z" fill="url(#K)"/><path d="M8.924 14.154l-.054.173-.177.007.143.1-.055.173.143-.111.144.1-.055-.168.144-.112-.177.008-.055-.168z" fill="url(#L)"/><path d="M8.925 12.433l-.055.173-.177.007.143.1-.055.173.144-.111.143.099-.055-.168.144-.112-.177.008-.054-.169z" fill="url(#M)"/><path d="M10.462 14.487l-.055.175-.178.015.144.094-.055.175.143-.117.143.093-.055-.166.143-.118-.178.016-.055-.166z" fill="url(#N)"/><path d="M9.437 12.839l-.055.174-.178.009.144.098-.055.174.144-.113.144.097-.055-.168.144-.114-.178.01-.055-.168z" fill="url(#O)"/><path d="M9.95 14.098l-.055.175-.177.011.144.096-.055.174.144-.115.144.095-.055-.166.143-.116-.177.013-.055-.166z" fill="url(#P)"/><path d="M10.006 15.125l-.055-.167-.055.174-.178.012.144.096-.055.175.144-.115.144.095-.055-.167.143-.116-.178.013z" fill="url(#Q)"/><path d="M9.437 11.979l-.055.173-.178.009.144.099-.055.173.144-.113.144.097-.055-.168.144-.114-.178.011-.055-.166z" fill="url(#R)"/><path d="M9.95 13.238l-.055.174-.177.012.144.096-.055.174.144-.115.144.095-.055-.167.144-.115-.177.013-.055-.167z" fill="url(#S)"/><path d="M8.979 15.183l-.055-.168-.055.173-.177.007.143.1-.055.173.143-.111.144.1-.055-.168.144-.112-.177.008z" fill="url(#T)"/><path d="M7.898 13.321l-.055.171-.178.001.144.104-.055.171.144-.107.144.103-.055-.17.144-.108-.178.003-.055-.17z" fill="url(#U)"/><path d="M7.898 12.461l-.055.171-.178.001.144.104-.055.171.144-.107.144.103-.055-.17.144-.108-.178.003-.055-.169z" fill="url(#V)"/><path d="M7.952 15.212l-.055-.17-.055.171-.178.002.144.104-.055.172.144-.107.144.103-.055-.17.144-.108-.178.003z" fill="url(#W)"/><path d="M9.806 12.834l.143-.115.144.095-.055-.167.144-.116-.178.014-.055-.166-.055.174-.178.012.144.096-.055.174z" fill="url(#X)"/><path d="M9.806 11.973l.144-.115.144.095-.055-.166.144-.116-.178.013-.055-.167-.055.174-.178.012.144.096-.055.174z" fill="url(#Y)"/><path d="M7.898 14.182l-.055.171h-.178l.144.105-.055.171.144-.107.144.103-.055-.17.144-.108-.178.003-.055-.169z" fill="url(#Z)"/><path d="M8.411 12.019l-.055.172-.178.004.144.102-.055.173.144-.109.144.101-.055-.169.144-.11-.177.006-.055-.169z" fill="url(#a)"/><use xlink:href="#AG" fill="url(#b)"/><path d="M8.466 14.771l-.055-.169-.055.173-.178.004.144.102-.055.173.144-.109.144.101-.055-.169.144-.11-.178.004z" fill="url(#c)"/><path d="M8.411 13.741l-.055.173-.178.004.144.102-.055.173.144-.109.144.101-.055-.169.144-.11-.178.006-.055-.17z" fill="url(#d)"/><path d="M7.898 11.6l-.055.171-.178.002.144.104-.055.171.144-.107.144.103-.055-.17.144-.108-.178.003-.055-.17z" fill="url(#e)"/><path d="M10.462 13.627l-.055.175-.178.015.143.094-.055.175.143-.118.143.093-.055-.166.144-.119-.178.016-.055-.165z" fill="url(#f)"/><path d="M12.513 13.408l-.055.177-.178.023.144.088-.055.177.144-.123.144.087-.055-.163.144-.124-.178.023-.055-.164z" fill="url(#g)"/><path d="M12.513 12.547l-.055.178-.178.022.144.088-.055.177.144-.123.144.087-.055-.163.144-.124-.178.023-.055-.163z" fill="url(#h)"/><path d="M12.567 14.431l-.055-.164-.055.178-.178.022.144.088-.055.178.144-.124.144.087-.055-.163.144-.124-.178.023z" fill="url(#i)"/><use xlink:href="#AH" fill="url(#j)"/><path d="M12.513 11.686l-.055.177-.178.022.144.088-.055.178.144-.124.144.087-.055-.164.144-.125-.178.023-.055-.163z" fill="url(#k)"/><path d="M12.001 11.32l-.054.177-.177.02.143.089-.054.177.143-.122.143.088-.055-.164.144-.123-.178.022-.055-.164z" fill="url(#l)"/><use xlink:href="#AI" fill="url(#m)"/><path d="M13.026 12.049l-.055.178-.178.024.143.086-.055.178.144-.125.143.086-.055-.163.143-.126-.177.025-.055-.163z" fill="url(#n)"/><path d="M13.08 14.793l-.055-.163-.055.178-.177.024.143.086-.055.178.144-.126.143.086-.055-.163.143-.126-.177.025z" fill="url(#o)"/><path d="M13.026 11.188l-.055.178-.178.024.144.086-.055.178.144-.125.143.085-.055-.163.143-.126-.177.025-.055-.163z" fill="url(#p)"/><path d="M13.026 13.77l-.055.178-.177.024.144.086-.055.178.144-.125.143.085-.055-.163.143-.126-.177.025-.055-.163z" fill="url(#q)"/><path d="M12.001 13.041l-.054.177-.177.021.143.089-.054.177.143-.122.144.088-.055-.164.144-.123-.178.021-.055-.164z" fill="url(#r)"/><path d="M10.462 11.906l-.055.175-.178.015.144.094-.055.175.143-.118.143.093-.055-.166.143-.119-.178.016-.055-.166z" fill="url(#s)"/><use xlink:href="#AJ" fill="url(#t)"/><path d="M12.001 13.901l-.054.177-.177.021.143.089-.055.177.143-.122.143.088-.055-.164.144-.123-.178.021-.055-.164z" fill="url(#u)"/><use xlink:href="#AL" fill="url(#v)"/><path d="M10.975 14.871l-.055.176-.178.017.144.092-.055.176.144-.119.144.092-.055-.165.144-.12-.178.017-.055-.165z" fill="url(#w)"/><path d="M10.462 12.768l-.055.175-.178.014.143.094-.055.175.143-.118.143.093-.055-.166.144-.119-.178.016-.055-.166z" fill="url(#x)"/><path d="M10.975 11.429l-.055.176-.178.017.144.092-.055.176.144-.119.144.091-.055-.165.144-.12-.178.018-.055-.165z" fill="url(#y)"/><path d="M10.975 13.15l-.055.176-.178.018.144.092-.055.176.144-.119.144.091-.055-.165.144-.12-.178.018-.055-.166z" fill="url(#z)"/><path d="M12.055 14.926L12 14.762l-.055.177-.177.02.143.089-.055.177.143-.123.143.088-.055-.164.144-.123-.178.022z" fill="url(#AA)"/><path d="M11.543 14.554l-.055-.165-.055.177-.177.019.144.091-.055.176.144-.121.143.09-.055-.165.144-.122-.177.019z" fill="url(#AB)"/><path d="M11.488 11.807l-.055.176-.178.019.144.091-.055.176.144-.121.143.09-.055-.164.144-.121-.177.019-.055-.165z" fill="url(#AC)"/><path d="M11.488 13.528l-.055.176-.178.019.144.091-.055.176.144-.12.144.09-.055-.164.144-.121-.178.019-.055-.165z" fill="url(#AD)"/><path d="M11.489 12.668l-.055.177-.178.018.144.09-.055.176.144-.12.144.09-.055-.164.144-.121-.178.019-.055-.164z" fill="url(#AE)"/></g><defs><linearGradient id="A" x1="7.537" y1="18.396" x2="19.56" y2="18.396" xlink:href="#AK"><stop stop-color="#600000"/><stop offset=".327" stop-color="#630000"/><stop offset=".59" stop-color="#6d0000"/><stop offset=".83" stop-color="#7e0000"/><stop offset="1" stop-color="#8f0000"/></linearGradient><linearGradient id="B" x1="13.548" y1="17.313" x2="13.548" y2="19.482" xlink:href="#AK"><stop offset=".35" stop-color="#bf1010"/><stop offset=".645" stop-color="#bd1010"/><stop offset=".752" stop-color="#b60f0f"/><stop offset=".828" stop-color="#ab0d0d"/><stop offset=".889" stop-color="#9a0a0a"/><stop offset=".941" stop-color="#840606"/><stop offset=".987" stop-color="#690202"/><stop offset="1" stop-color="#600000"/></linearGradient><linearGradient id="C" x1="7.537" y1="14.746" x2="19.559" y2="14.746" xlink:href="#AK"><stop stop-color="#bf1010"/><stop offset=".021" stop-color="#c11212"/><stop offset=".244" stop-color="#d22323"/><stop offset=".487" stop-color="#dc2d2d"/><stop offset=".791" stop-color="#df3030"/><stop offset=".841" stop-color="#dc2e2e"/><stop offset=".882" stop-color="#d22626"/><stop offset=".919" stop-color="#c11919"/><stop offset=".954" stop-color="#a90808"/><stop offset=".966" stop-color="#9f0000"/><stop offset="1" stop-color="#df3030"/></linearGradient><linearGradient id="D" x1="7.537" y1="13.517" x2="19.559" y2="13.517" xlink:href="#AK"><stop stop-color="#dfdfdf"/><stop offset=".021" stop-color="#e1e1e1"/><stop offset=".244" stop-color="#f2f2f2"/><stop offset=".487" stop-color="#fcfcfc"/><stop offset=".791" stop-color="#fff"/><stop offset=".841" stop-color="#fcfcfc"/><stop offset=".882" stop-color="#f2f2f2"/><stop offset=".919" stop-color="#e1e1e1"/><stop offset=".954" stop-color="#c9c9c9"/><stop offset=".966" stop-color="#bfbfbf"/><stop offset="1" stop-color="#fff"/></linearGradient><linearGradient id="E" x1="7.537" y1="16.6" x2="19.56" y2="16.6" xlink:href="#AK"><stop stop-color="#dfdfdf"/><stop offset=".021" stop-color="#e1e1e1"/><stop offset=".244" stop-color="#f2f2f2"/><stop offset=".487" stop-color="#fcfcfc"/><stop offset=".791" stop-color="#fff"/><stop offset=".841" stop-color="#fcfcfc"/><stop offset=".882" stop-color="#f2f2f2"/><stop offset=".919" stop-color="#e1e1e1"/><stop offset=".954" stop-color="#c9c9c9"/><stop offset=".966" stop-color="#bfbfbf"/><stop offset="1" stop-color="#fff"/></linearGradient><linearGradient id="F" x1="7.537" y1="17.833" x2="19.56" y2="17.833" xlink:href="#AK"><stop stop-color="#dfdfdf"/><stop offset=".021" stop-color="#e1e1e1"/><stop offset=".244" stop-color="#f2f2f2"/><stop offset=".487" stop-color="#fcfcfc"/><stop offset=".791" stop-color="#fff"/><stop offset=".841" stop-color="#fcfcfc"/><stop offset=".882" stop-color="#f2f2f2"/><stop offset=".919" stop-color="#e1e1e1"/><stop offset=".954" stop-color="#c9c9c9"/><stop offset=".966" stop-color="#bfbfbf"/><stop offset="1" stop-color="#fff"/></linearGradient><linearGradient id="G" x1="7.537" y1="13.319" x2="19.56" y2="13.319" xlink:href="#AK"><stop stop-color="#00209f"/><stop offset=".021" stop-color="#0222a1"/><stop offset=".244" stop-color="#1333b2"/><stop offset=".487" stop-color="#1d3dbc"/><stop offset=".791" stop-color="#2040bf"/><stop offset=".841" stop-color="#1e3dbc"/><stop offset=".882" stop-color="#1933b2"/><stop offset=".919" stop-color="#1122a1"/><stop offset=".954" stop-color="#050a89"/><stop offset=".966" stop-color="#00007f"/><stop offset="1" stop-color="#2040bf"/></linearGradient><linearGradient id="H" x1="7.537" y1="11.798" x2="19.559" y2="11.798" xlink:href="#AK"><stop stop-color="#dfdfdf"/><stop offset=".021" stop-color="#e1e1e1"/><stop offset=".244" stop-color="#f2f2f2"/><stop offset=".487" stop-color="#fcfcfc"/><stop offset=".791" stop-color="#fff"/><stop offset=".841" stop-color="#fcfcfc"/><stop offset=".882" stop-color="#f2f2f2"/><stop offset=".919" stop-color="#e1e1e1"/><stop offset=".954" stop-color="#c9c9c9"/><stop offset=".966" stop-color="#bfbfbf"/><stop offset="1" stop-color="#fff"/></linearGradient><linearGradient id="I" x1="7.538" y1="13.927" x2="19.559" y2="13.927" xlink:href="#AK"><stop stop-color="#dfdfdf"/><stop offset=".021" stop-color="#e1e1e1"/><stop offset=".244" stop-color="#f2f2f2"/><stop offset=".487" stop-color="#fcfcfc"/><stop offset=".791" stop-color="#fff"/><stop offset=".841" stop-color="#fcfcfc"/><stop offset=".882" stop-color="#f2f2f2"/><stop offset=".919" stop-color="#e1e1e1"/><stop offset=".954" stop-color="#c9c9c9"/><stop offset=".966" stop-color="#bfbfbf"/><stop offset="1" stop-color="#fff"/></linearGradient><linearGradient id="J" x1="7.538" y1="14.788" x2="19.559" y2="14.788" xlink:href="#AK"><stop stop-color="#dfdfdf"/><stop offset=".021" stop-color="#e1e1e1"/><stop offset=".244" stop-color="#f2f2f2"/><stop offset=".487" stop-color="#fcfcfc"/><stop offset=".791" stop-color="#fff"/><stop offset=".841" stop-color="#fcfcfc"/><stop offset=".882" stop-color="#f2f2f2"/><stop offset=".919" stop-color="#e1e1e1"/><stop offset=".954" stop-color="#c9c9c9"/><stop offset=".966" stop-color="#bfbfbf"/><stop offset="1" stop-color="#fff"/></linearGradient><linearGradient id="K" x1="7.538" y1="13.52" x2="19.559" y2="13.52" xlink:href="#AK"><stop stop-color="#dfdfdf"/><stop offset=".021" stop-color="#e1e1e1"/><stop offset=".244" stop-color="#f2f2f2"/><stop offset=".487" stop-color="#fcfcfc"/><stop offset=".791" stop-color="#fff"/><stop offset=".841" stop-color="#fcfcfc"/><stop offset=".882" stop-color="#f2f2f2"/><stop offset=".919" stop-color="#e1e1e1"/><stop offset=".954" stop-color="#c9c9c9"/><stop offset=".966" stop-color="#bfbfbf"/><stop offset="1" stop-color="#fff"/></linearGradient><linearGradient id="L" x1="7.538" y1="14.38" x2="19.559" y2="14.38" xlink:href="#AK"><stop stop-color="#dfdfdf"/><stop offset=".021" stop-color="#e1e1e1"/><stop offset=".244" stop-color="#f2f2f2"/><stop offset=".487" stop-color="#fcfcfc"/><stop offset=".791" stop-color="#fff"/><stop offset=".841" stop-color="#fcfcfc"/><stop offset=".882" stop-color="#f2f2f2"/><stop offset=".919" stop-color="#e1e1e1"/><stop offset=".954" stop-color="#c9c9c9"/><stop offset=".966" stop-color="#bfbfbf"/><stop offset="1" stop-color="#fff"/></linearGradient><linearGradient id="M" x1="7.538" y1="12.659" x2="19.559" y2="12.659" xlink:href="#AK"><stop stop-color="#dfdfdf"/><stop offset=".021" stop-color="#e1e1e1"/><stop offset=".244" stop-color="#f2f2f2"/><stop offset=".487" stop-color="#fcfcfc"/><stop offset=".791" stop-color="#fff"/><stop offset=".841" stop-color="#fcfcfc"/><stop offset=".882" stop-color="#f2f2f2"/><stop offset=".919" stop-color="#e1e1e1"/><stop offset=".954" stop-color="#c9c9c9"/><stop offset=".966" stop-color="#bfbfbf"/><stop offset="1" stop-color="#fff"/></linearGradient><linearGradient id="N" x1="7.536" y1="14.717" x2="19.561" y2="14.717" xlink:href="#AK"><stop stop-color="#dfdfdf"/><stop offset=".021" stop-color="#e1e1e1"/><stop offset=".244" stop-color="#f2f2f2"/><stop offset=".487" stop-color="#fcfcfc"/><stop offset=".791" stop-color="#fff"/><stop offset=".841" stop-color="#fcfcfc"/><stop offset=".882" stop-color="#f2f2f2"/><stop offset=".919" stop-color="#e1e1e1"/><stop offset=".954" stop-color="#c9c9c9"/><stop offset=".966" stop-color="#bfbfbf"/><stop offset="1" stop-color="#fff"/></linearGradient><linearGradient id="O" x1="7.538" y1="13.066" x2="19.559" y2="13.066" xlink:href="#AK"><stop stop-color="#dfdfdf"/><stop offset=".021" stop-color="#e1e1e1"/><stop offset=".244" stop-color="#f2f2f2"/><stop offset=".487" stop-color="#fcfcfc"/><stop offset=".791" stop-color="#fff"/><stop offset=".841" stop-color="#fcfcfc"/><stop offset=".882" stop-color="#f2f2f2"/><stop offset=".919" stop-color="#e1e1e1"/><stop offset=".954" stop-color="#c9c9c9"/><stop offset=".966" stop-color="#bfbfbf"/><stop offset="1" stop-color="#fff"/></linearGradient><linearGradient id="P" x1="7.538" y1="14.326" x2="19.559" y2="14.326" xlink:href="#AK"><stop stop-color="#dfdfdf"/><stop offset=".021" stop-color="#e1e1e1"/><stop offset=".244" stop-color="#f2f2f2"/><stop offset=".487" stop-color="#fcfcfc"/><stop offset=".791" stop-color="#fff"/><stop offset=".841" stop-color="#fcfcfc"/><stop offset=".882" stop-color="#f2f2f2"/><stop offset=".919" stop-color="#e1e1e1"/><stop offset=".954" stop-color="#c9c9c9"/><stop offset=".966" stop-color="#bfbfbf"/><stop offset="1" stop-color="#fff"/></linearGradient><linearGradient id="Q" x1="7.538" y1="15.187" x2="19.559" y2="15.187" xlink:href="#AK"><stop stop-color="#dfdfdf"/><stop offset=".021" stop-color="#e1e1e1"/><stop offset=".244" stop-color="#f2f2f2"/><stop offset=".487" stop-color="#fcfcfc"/><stop offset=".791" stop-color="#fff"/><stop offset=".841" stop-color="#fcfcfc"/><stop offset=".882" stop-color="#f2f2f2"/><stop offset=".919" stop-color="#e1e1e1"/><stop offset=".954" stop-color="#c9c9c9"/><stop offset=".966" stop-color="#bfbfbf"/><stop offset="1" stop-color="#fff"/></linearGradient><linearGradient id="R" x1="7.538" y1="12.206" x2="19.559" y2="12.206" xlink:href="#AK"><stop stop-color="#dfdfdf"/><stop offset=".021" stop-color="#e1e1e1"/><stop offset=".244" stop-color="#f2f2f2"/><stop offset=".487" stop-color="#fcfcfc"/><stop offset=".791" stop-color="#fff"/><stop offset=".841" stop-color="#fcfcfc"/><stop offset=".882" stop-color="#f2f2f2"/><stop offset=".919" stop-color="#e1e1e1"/><stop offset=".954" stop-color="#c9c9c9"/><stop offset=".966" stop-color="#bfbfbf"/><stop offset="1" stop-color="#fff"/></linearGradient><linearGradient id="S" x1="7.538" y1="13.466" x2="19.559" y2="13.466" xlink:href="#AK"><stop stop-color="#dfdfdf"/><stop offset=".021" stop-color="#e1e1e1"/><stop offset=".244" stop-color="#f2f2f2"/><stop offset=".487" stop-color="#fcfcfc"/><stop offset=".791" stop-color="#fff"/><stop offset=".841" stop-color="#fcfcfc"/><stop offset=".882" stop-color="#f2f2f2"/><stop offset=".919" stop-color="#e1e1e1"/><stop offset=".954" stop-color="#c9c9c9"/><stop offset=".966" stop-color="#bfbfbf"/><stop offset="1" stop-color="#fff"/></linearGradient><linearGradient id="T" x1="7.538" y1="15.241" x2="19.559" y2="15.241" xlink:href="#AK"><stop stop-color="#dfdfdf"/><stop offset=".021" stop-color="#e1e1e1"/><stop offset=".244" stop-color="#f2f2f2"/><stop offset=".487" stop-color="#fcfcfc"/><stop offset=".791" stop-color="#fff"/><stop offset=".841" stop-color="#fcfcfc"/><stop offset=".882" stop-color="#f2f2f2"/><stop offset=".919" stop-color="#e1e1e1"/><stop offset=".954" stop-color="#c9c9c9"/><stop offset=".966" stop-color="#bfbfbf"/><stop offset="1" stop-color="#fff"/></linearGradient><linearGradient id="U" x1="7.537" y1="13.545" x2="19.561" y2="13.545" xlink:href="#AK"><stop stop-color="#dfdfdf"/><stop offset=".021" stop-color="#e1e1e1"/><stop offset=".244" stop-color="#f2f2f2"/><stop offset=".487" stop-color="#fcfcfc"/><stop offset=".791" stop-color="#fff"/><stop offset=".841" stop-color="#fcfcfc"/><stop offset=".882" stop-color="#f2f2f2"/><stop offset=".919" stop-color="#e1e1e1"/><stop offset=".954" stop-color="#c9c9c9"/><stop offset=".966" stop-color="#bfbfbf"/><stop offset="1" stop-color="#fff"/></linearGradient><linearGradient id="V" x1="7.537" y1="12.685" x2="19.561" y2="12.685" xlink:href="#AK"><stop stop-color="#dfdfdf"/><stop offset=".021" stop-color="#e1e1e1"/><stop offset=".244" stop-color="#f2f2f2"/><stop offset=".487" stop-color="#fcfcfc"/><stop offset=".791" stop-color="#fff"/><stop offset=".841" stop-color="#fcfcfc"/><stop offset=".882" stop-color="#f2f2f2"/><stop offset=".919" stop-color="#e1e1e1"/><stop offset=".954" stop-color="#c9c9c9"/><stop offset=".966" stop-color="#bfbfbf"/><stop offset="1" stop-color="#fff"/></linearGradient><linearGradient id="W" x1="7.537" y1="15.267" x2="19.558" y2="15.267" xlink:href="#AK"><stop stop-color="#dfdfdf"/><stop offset=".021" stop-color="#e1e1e1"/><stop offset=".244" stop-color="#f2f2f2"/><stop offset=".487" stop-color="#fcfcfc"/><stop offset=".791" stop-color="#fff"/><stop offset=".841" stop-color="#fcfcfc"/><stop offset=".882" stop-color="#f2f2f2"/><stop offset=".919" stop-color="#e1e1e1"/><stop offset=".954" stop-color="#c9c9c9"/><stop offset=".966" stop-color="#bfbfbf"/><stop offset="1" stop-color="#fff"/></linearGradient><linearGradient id="X" x1="7.538" y1="12.605" x2="19.559" y2="12.605" xlink:href="#AK"><stop stop-color="#dfdfdf"/><stop offset=".021" stop-color="#e1e1e1"/><stop offset=".244" stop-color="#f2f2f2"/><stop offset=".487" stop-color="#fcfcfc"/><stop offset=".791" stop-color="#fff"/><stop offset=".841" stop-color="#fcfcfc"/><stop offset=".882" stop-color="#f2f2f2"/><stop offset=".919" stop-color="#e1e1e1"/><stop offset=".954" stop-color="#c9c9c9"/><stop offset=".966" stop-color="#bfbfbf"/><stop offset="1" stop-color="#fff"/></linearGradient><linearGradient id="Y" x1="7.538" y1="11.744" x2="19.559" y2="11.744" xlink:href="#AK"><stop stop-color="#dfdfdf"/><stop offset=".021" stop-color="#e1e1e1"/><stop offset=".244" stop-color="#f2f2f2"/><stop offset=".487" stop-color="#fcfcfc"/><stop offset=".791" stop-color="#fff"/><stop offset=".841" stop-color="#fcfcfc"/><stop offset=".882" stop-color="#f2f2f2"/><stop offset=".919" stop-color="#e1e1e1"/><stop offset=".954" stop-color="#c9c9c9"/><stop offset=".966" stop-color="#bfbfbf"/><stop offset="1" stop-color="#fff"/></linearGradient><linearGradient id="Z" x1="7.537" y1="14.406" x2="19.558" y2="14.406" xlink:href="#AK"><stop stop-color="#dfdfdf"/><stop offset=".021" stop-color="#e1e1e1"/><stop offset=".244" stop-color="#f2f2f2"/><stop offset=".487" stop-color="#fcfcfc"/><stop offset=".791" stop-color="#fff"/><stop offset=".841" stop-color="#fcfcfc"/><stop offset=".882" stop-color="#f2f2f2"/><stop offset=".919" stop-color="#e1e1e1"/><stop offset=".954" stop-color="#c9c9c9"/><stop offset=".966" stop-color="#bfbfbf"/><stop offset="1" stop-color="#fff"/></linearGradient><linearGradient id="a" x1="7.537" y1="12.245" x2="19.558" y2="12.245" xlink:href="#AK"><stop stop-color="#dfdfdf"/><stop offset=".021" stop-color="#e1e1e1"/><stop offset=".244" stop-color="#f2f2f2"/><stop offset=".487" stop-color="#fcfcfc"/><stop offset=".791" stop-color="#fff"/><stop offset=".841" stop-color="#fcfcfc"/><stop offset=".882" stop-color="#f2f2f2"/><stop offset=".919" stop-color="#e1e1e1"/><stop offset=".954" stop-color="#c9c9c9"/><stop offset=".966" stop-color="#bfbfbf"/><stop offset="1" stop-color="#fff"/></linearGradient><linearGradient id="b" x1="7.537" y1="13.106" x2="19.558" y2="13.106" xlink:href="#AK"><stop stop-color="#dfdfdf"/><stop offset=".021" stop-color="#e1e1e1"/><stop offset=".244" stop-color="#f2f2f2"/><stop offset=".487" stop-color="#fcfcfc"/><stop offset=".791" stop-color="#fff"/><stop offset=".841" stop-color="#fcfcfc"/><stop offset=".882" stop-color="#f2f2f2"/><stop offset=".919" stop-color="#e1e1e1"/><stop offset=".954" stop-color="#c9c9c9"/><stop offset=".966" stop-color="#bfbfbf"/><stop offset="1" stop-color="#fff"/></linearGradient><linearGradient id="c" x1="7.537" y1="14.827" x2="19.558" y2="14.827" xlink:href="#AK"><stop stop-color="#dfdfdf"/><stop offset=".021" stop-color="#e1e1e1"/><stop offset=".244" stop-color="#f2f2f2"/><stop offset=".487" stop-color="#fcfcfc"/><stop offset=".791" stop-color="#fff"/><stop offset=".841" stop-color="#fcfcfc"/><stop offset=".882" stop-color="#f2f2f2"/><stop offset=".919" stop-color="#e1e1e1"/><stop offset=".954" stop-color="#c9c9c9"/><stop offset=".966" stop-color="#bfbfbf"/><stop offset="1" stop-color="#fff"/></linearGradient><linearGradient id="d" x1="7.537" y1="13.966" x2="19.558" y2="13.966" xlink:href="#AK"><stop stop-color="#dfdfdf"/><stop offset=".021" stop-color="#e1e1e1"/><stop offset=".244" stop-color="#f2f2f2"/><stop offset=".487" stop-color="#fcfcfc"/><stop offset=".791" stop-color="#fff"/><stop offset=".841" stop-color="#fcfcfc"/><stop offset=".882" stop-color="#f2f2f2"/><stop offset=".919" stop-color="#e1e1e1"/><stop offset=".954" stop-color="#c9c9c9"/><stop offset=".966" stop-color="#bfbfbf"/><stop offset="1" stop-color="#fff"/></linearGradient><linearGradient id="e" x1="7.537" y1="11.824" x2="19.561" y2="11.824" xlink:href="#AK"><stop stop-color="#dfdfdf"/><stop offset=".021" stop-color="#e1e1e1"/><stop offset=".244" stop-color="#f2f2f2"/><stop offset=".487" stop-color="#fcfcfc"/><stop offset=".791" stop-color="#fff"/><stop offset=".841" stop-color="#fcfcfc"/><stop offset=".882" stop-color="#f2f2f2"/><stop offset=".919" stop-color="#e1e1e1"/><stop offset=".954" stop-color="#c9c9c9"/><stop offset=".966" stop-color="#bfbfbf"/><stop offset="1" stop-color="#fff"/></linearGradient><linearGradient id="f" x1="7.536" y1="13.857" x2="19.561" y2="13.857" xlink:href="#AK"><stop stop-color="#dfdfdf"/><stop offset=".021" stop-color="#e1e1e1"/><stop offset=".244" stop-color="#f2f2f2"/><stop offset=".487" stop-color="#fcfcfc"/><stop offset=".791" stop-color="#fff"/><stop offset=".841" stop-color="#fcfcfc"/><stop offset=".882" stop-color="#f2f2f2"/><stop offset=".919" stop-color="#e1e1e1"/><stop offset=".954" stop-color="#c9c9c9"/><stop offset=".966" stop-color="#bfbfbf"/><stop offset="1" stop-color="#fff"/></linearGradient><linearGradient id="g" x1="7.538" y1="13.64" x2="19.559" y2="13.64" xlink:href="#AK"><stop stop-color="#dfdfdf"/><stop offset=".021" stop-color="#e1e1e1"/><stop offset=".244" stop-color="#f2f2f2"/><stop offset=".487" stop-color="#fcfcfc"/><stop offset=".791" stop-color="#fff"/><stop offset=".841" stop-color="#fcfcfc"/><stop offset=".882" stop-color="#f2f2f2"/><stop offset=".919" stop-color="#e1e1e1"/><stop offset=".954" stop-color="#c9c9c9"/><stop offset=".966" stop-color="#bfbfbf"/><stop offset="1" stop-color="#fff"/></linearGradient><linearGradient id="h" x1="7.538" y1="12.78" x2="19.559" y2="12.78" xlink:href="#AK"><stop stop-color="#dfdfdf"/><stop offset=".021" stop-color="#e1e1e1"/><stop offset=".244" stop-color="#f2f2f2"/><stop offset=".487" stop-color="#fcfcfc"/><stop offset=".791" stop-color="#fff"/><stop offset=".841" stop-color="#fcfcfc"/><stop offset=".882" stop-color="#f2f2f2"/><stop offset=".919" stop-color="#e1e1e1"/><stop offset=".954" stop-color="#c9c9c9"/><stop offset=".966" stop-color="#bfbfbf"/><stop offset="1" stop-color="#fff"/></linearGradient><linearGradient id="i" x1="7.538" y1="14.5" x2="19.559" y2="14.5" xlink:href="#AK"><stop stop-color="#dfdfdf"/><stop offset=".021" stop-color="#e1e1e1"/><stop offset=".244" stop-color="#f2f2f2"/><stop offset=".487" stop-color="#fcfcfc"/><stop offset=".791" stop-color="#fff"/><stop offset=".841" stop-color="#fcfcfc"/><stop offset=".882" stop-color="#f2f2f2"/><stop offset=".919" stop-color="#e1e1e1"/><stop offset=".954" stop-color="#c9c9c9"/><stop offset=".966" stop-color="#bfbfbf"/><stop offset="1" stop-color="#fff"/></linearGradient><linearGradient id="j" x1="7.536" y1="12.411" x2="19.563" y2="12.411" xlink:href="#AK"><stop stop-color="#dfdfdf"/><stop offset=".021" stop-color="#e1e1e1"/><stop offset=".244" stop-color="#f2f2f2"/><stop offset=".487" stop-color="#fcfcfc"/><stop offset=".791" stop-color="#fff"/><stop offset=".841" stop-color="#fcfcfc"/><stop offset=".882" stop-color="#f2f2f2"/><stop offset=".919" stop-color="#e1e1e1"/><stop offset=".954" stop-color="#c9c9c9"/><stop offset=".966" stop-color="#bfbfbf"/><stop offset="1" stop-color="#fff"/></linearGradient><linearGradient id="k" x1="7.538" y1="11.919" x2="19.559" y2="11.919" xlink:href="#AK"><stop stop-color="#dfdfdf"/><stop offset=".021" stop-color="#e1e1e1"/><stop offset=".244" stop-color="#f2f2f2"/><stop offset=".487" stop-color="#fcfcfc"/><stop offset=".791" stop-color="#fff"/><stop offset=".841" stop-color="#fcfcfc"/><stop offset=".882" stop-color="#f2f2f2"/><stop offset=".919" stop-color="#e1e1e1"/><stop offset=".954" stop-color="#c9c9c9"/><stop offset=".966" stop-color="#bfbfbf"/><stop offset="1" stop-color="#fff"/></linearGradient><linearGradient id="l" x1="7.536" y1="11.551" x2="19.563" y2="11.551" xlink:href="#AK"><stop stop-color="#dfdfdf"/><stop offset=".021" stop-color="#e1e1e1"/><stop offset=".244" stop-color="#f2f2f2"/><stop offset=".487" stop-color="#fcfcfc"/><stop offset=".791" stop-color="#fff"/><stop offset=".841" stop-color="#fcfcfc"/><stop offset=".882" stop-color="#f2f2f2"/><stop offset=".919" stop-color="#e1e1e1"/><stop offset=".954" stop-color="#c9c9c9"/><stop offset=".966" stop-color="#bfbfbf"/><stop offset="1" stop-color="#fff"/></linearGradient><linearGradient id="m" x1="7.537" y1="13.143" x2="19.559" y2="13.143" xlink:href="#AK"><stop stop-color="#dfdfdf"/><stop offset=".021" stop-color="#e1e1e1"/><stop offset=".244" stop-color="#f2f2f2"/><stop offset=".487" stop-color="#fcfcfc"/><stop offset=".791" stop-color="#fff"/><stop offset=".841" stop-color="#fcfcfc"/><stop offset=".882" stop-color="#f2f2f2"/><stop offset=".919" stop-color="#e1e1e1"/><stop offset=".954" stop-color="#c9c9c9"/><stop offset=".966" stop-color="#bfbfbf"/><stop offset="1" stop-color="#fff"/></linearGradient><linearGradient id="n" x1="7.538" y1="12.282" x2="19.559" y2="12.282" xlink:href="#AK"><stop stop-color="#dfdfdf"/><stop offset=".021" stop-color="#e1e1e1"/><stop offset=".244" stop-color="#f2f2f2"/><stop offset=".487" stop-color="#fcfcfc"/><stop offset=".791" stop-color="#fff"/><stop offset=".841" stop-color="#fcfcfc"/><stop offset=".882" stop-color="#f2f2f2"/><stop offset=".919" stop-color="#e1e1e1"/><stop offset=".954" stop-color="#c9c9c9"/><stop offset=".966" stop-color="#bfbfbf"/><stop offset="1" stop-color="#fff"/></linearGradient><linearGradient id="o" x1="7.538" y1="14.864" x2="19.559" y2="14.864" xlink:href="#AK"><stop stop-color="#dfdfdf"/><stop offset=".021" stop-color="#e1e1e1"/><stop offset=".244" stop-color="#f2f2f2"/><stop offset=".487" stop-color="#fcfcfc"/><stop offset=".791" stop-color="#fff"/><stop offset=".841" stop-color="#fcfcfc"/><stop offset=".882" stop-color="#f2f2f2"/><stop offset=".919" stop-color="#e1e1e1"/><stop offset=".954" stop-color="#c9c9c9"/><stop offset=".966" stop-color="#bfbfbf"/><stop offset="1" stop-color="#fff"/></linearGradient><linearGradient id="p" x1="7.538" y1="11.421" x2="19.559" y2="11.421" xlink:href="#AK"><stop stop-color="#dfdfdf"/><stop offset=".021" stop-color="#e1e1e1"/><stop offset=".244" stop-color="#f2f2f2"/><stop offset=".487" stop-color="#fcfcfc"/><stop offset=".791" stop-color="#fff"/><stop offset=".841" stop-color="#fcfcfc"/><stop offset=".882" stop-color="#f2f2f2"/><stop offset=".919" stop-color="#e1e1e1"/><stop offset=".954" stop-color="#c9c9c9"/><stop offset=".966" stop-color="#bfbfbf"/><stop offset="1" stop-color="#fff"/></linearGradient><linearGradient id="q" x1="7.538" y1="14.003" x2="19.559" y2="14.003" xlink:href="#AK"><stop stop-color="#dfdfdf"/><stop offset=".021" stop-color="#e1e1e1"/><stop offset=".244" stop-color="#f2f2f2"/><stop offset=".487" stop-color="#fcfcfc"/><stop offset=".791" stop-color="#fff"/><stop offset=".841" stop-color="#fcfcfc"/><stop offset=".882" stop-color="#f2f2f2"/><stop offset=".919" stop-color="#e1e1e1"/><stop offset=".954" stop-color="#c9c9c9"/><stop offset=".966" stop-color="#bfbfbf"/><stop offset="1" stop-color="#fff"/></linearGradient><linearGradient id="r" x1="7.536" y1="13.272" x2="19.563" y2="13.272" xlink:href="#AK"><stop stop-color="#dfdfdf"/><stop offset=".021" stop-color="#e1e1e1"/><stop offset=".244" stop-color="#f2f2f2"/><stop offset=".487" stop-color="#fcfcfc"/><stop offset=".791" stop-color="#fff"/><stop offset=".841" stop-color="#fcfcfc"/><stop offset=".882" stop-color="#f2f2f2"/><stop offset=".919" stop-color="#e1e1e1"/><stop offset=".954" stop-color="#c9c9c9"/><stop offset=".966" stop-color="#bfbfbf"/><stop offset="1" stop-color="#fff"/></linearGradient><linearGradient id="s" x1="7.536" y1="12.136" x2="19.561" y2="12.136" xlink:href="#AK"><stop stop-color="#dfdfdf"/><stop offset=".021" stop-color="#e1e1e1"/><stop offset=".244" stop-color="#f2f2f2"/><stop offset=".487" stop-color="#fcfcfc"/><stop offset=".791" stop-color="#fff"/><stop offset=".841" stop-color="#fcfcfc"/><stop offset=".882" stop-color="#f2f2f2"/><stop offset=".919" stop-color="#e1e1e1"/><stop offset=".954" stop-color="#c9c9c9"/><stop offset=".966" stop-color="#bfbfbf"/><stop offset="1" stop-color="#fff"/></linearGradient><linearGradient id="t" x1="7.537" y1="14.24" x2="19.558" y2="14.24" xlink:href="#AK"><stop stop-color="#dfdfdf"/><stop offset=".021" stop-color="#e1e1e1"/><stop offset=".244" stop-color="#f2f2f2"/><stop offset=".487" stop-color="#fcfcfc"/><stop offset=".791" stop-color="#fff"/><stop offset=".841" stop-color="#fcfcfc"/><stop offset=".882" stop-color="#f2f2f2"/><stop offset=".919" stop-color="#e1e1e1"/><stop offset=".954" stop-color="#c9c9c9"/><stop offset=".966" stop-color="#bfbfbf"/><stop offset="1" stop-color="#fff"/></linearGradient><linearGradient id="u" x1="7.536" y1="14.133" x2="19.563" y2="14.133" xlink:href="#AK"><stop stop-color="#dfdfdf"/><stop offset=".021" stop-color="#e1e1e1"/><stop offset=".244" stop-color="#f2f2f2"/><stop offset=".487" stop-color="#fcfcfc"/><stop offset=".791" stop-color="#fff"/><stop offset=".841" stop-color="#fcfcfc"/><stop offset=".882" stop-color="#f2f2f2"/><stop offset=".919" stop-color="#e1e1e1"/><stop offset=".954" stop-color="#c9c9c9"/><stop offset=".966" stop-color="#bfbfbf"/><stop offset="1" stop-color="#fff"/></linearGradient><linearGradient id="v" x1="7.537" y1="12.519" x2="19.558" y2="12.519" xlink:href="#AK"><stop stop-color="#dfdfdf"/><stop offset=".021" stop-color="#e1e1e1"/><stop offset=".244" stop-color="#f2f2f2"/><stop offset=".487" stop-color="#fcfcfc"/><stop offset=".791" stop-color="#fff"/><stop offset=".841" stop-color="#fcfcfc"/><stop offset=".882" stop-color="#f2f2f2"/><stop offset=".919" stop-color="#e1e1e1"/><stop offset=".954" stop-color="#c9c9c9"/><stop offset=".966" stop-color="#bfbfbf"/><stop offset="1" stop-color="#fff"/></linearGradient><linearGradient id="w" x1="7.537" y1="15.101" x2="19.558" y2="15.101" xlink:href="#AK"><stop stop-color="#dfdfdf"/><stop offset=".021" stop-color="#e1e1e1"/><stop offset=".244" stop-color="#f2f2f2"/><stop offset=".487" stop-color="#fcfcfc"/><stop offset=".791" stop-color="#fff"/><stop offset=".841" stop-color="#fcfcfc"/><stop offset=".882" stop-color="#f2f2f2"/><stop offset=".919" stop-color="#e1e1e1"/><stop offset=".954" stop-color="#c9c9c9"/><stop offset=".966" stop-color="#bfbfbf"/><stop offset="1" stop-color="#fff"/></linearGradient><linearGradient id="x" x1="7.536" y1="12.996" x2="19.561" y2="12.996" xlink:href="#AK"><stop stop-color="#dfdfdf"/><stop offset=".021" stop-color="#e1e1e1"/><stop offset=".244" stop-color="#f2f2f2"/><stop offset=".487" stop-color="#fcfcfc"/><stop offset=".791" stop-color="#fff"/><stop offset=".841" stop-color="#fcfcfc"/><stop offset=".882" stop-color="#f2f2f2"/><stop offset=".919" stop-color="#e1e1e1"/><stop offset=".954" stop-color="#c9c9c9"/><stop offset=".966" stop-color="#bfbfbf"/><stop offset="1" stop-color="#fff"/></linearGradient><linearGradient id="y" x1="7.537" y1="11.659" x2="19.561" y2="11.659" xlink:href="#AK"><stop stop-color="#dfdfdf"/><stop offset=".021" stop-color="#e1e1e1"/><stop offset=".244" stop-color="#f2f2f2"/><stop offset=".487" stop-color="#fcfcfc"/><stop offset=".791" stop-color="#fff"/><stop offset=".841" stop-color="#fcfcfc"/><stop offset=".882" stop-color="#f2f2f2"/><stop offset=".919" stop-color="#e1e1e1"/><stop offset=".954" stop-color="#c9c9c9"/><stop offset=".966" stop-color="#bfbfbf"/><stop offset="1" stop-color="#fff"/></linearGradient><linearGradient id="z" x1="7.537" y1="13.38" x2="19.558" y2="13.38" xlink:href="#AK"><stop stop-color="#dfdfdf"/><stop offset=".021" stop-color="#e1e1e1"/><stop offset=".244" stop-color="#f2f2f2"/><stop offset=".487" stop-color="#fcfcfc"/><stop offset=".791" stop-color="#fff"/><stop offset=".841" stop-color="#fcfcfc"/><stop offset=".882" stop-color="#f2f2f2"/><stop offset=".919" stop-color="#e1e1e1"/><stop offset=".954" stop-color="#c9c9c9"/><stop offset=".966" stop-color="#bfbfbf"/><stop offset="1" stop-color="#fff"/></linearGradient><linearGradient id="AA" x1="7.536" y1="14.994" x2="19.563" y2="14.994" xlink:href="#AK"><stop stop-color="#dfdfdf"/><stop offset=".021" stop-color="#e1e1e1"/><stop offset=".244" stop-color="#f2f2f2"/><stop offset=".487" stop-color="#fcfcfc"/><stop offset=".791" stop-color="#fff"/><stop offset=".841" stop-color="#fcfcfc"/><stop offset=".882" stop-color="#f2f2f2"/><stop offset=".919" stop-color="#e1e1e1"/><stop offset=".954" stop-color="#c9c9c9"/><stop offset=".966" stop-color="#bfbfbf"/><stop offset="1" stop-color="#fff"/></linearGradient><linearGradient id="AB" x1="7.538" y1="14.62" x2="19.559" y2="14.62" xlink:href="#AK"><stop stop-color="#dfdfdf"/><stop offset=".021" stop-color="#e1e1e1"/><stop offset=".244" stop-color="#f2f2f2"/><stop offset=".487" stop-color="#fcfcfc"/><stop offset=".791" stop-color="#fff"/><stop offset=".841" stop-color="#fcfcfc"/><stop offset=".882" stop-color="#f2f2f2"/><stop offset=".919" stop-color="#e1e1e1"/><stop offset=".954" stop-color="#c9c9c9"/><stop offset=".966" stop-color="#bfbfbf"/><stop offset="1" stop-color="#fff"/></linearGradient><linearGradient id="AC" x1="7.538" y1="12.038" x2="19.559" y2="12.038" xlink:href="#AK"><stop stop-color="#dfdfdf"/><stop offset=".021" stop-color="#e1e1e1"/><stop offset=".244" stop-color="#f2f2f2"/><stop offset=".487" stop-color="#fcfcfc"/><stop offset=".791" stop-color="#fff"/><stop offset=".841" stop-color="#fcfcfc"/><stop offset=".882" stop-color="#f2f2f2"/><stop offset=".919" stop-color="#e1e1e1"/><stop offset=".954" stop-color="#c9c9c9"/><stop offset=".966" stop-color="#bfbfbf"/><stop offset="1" stop-color="#fff"/></linearGradient><linearGradient id="AD" x1="7.538" y1="13.759" x2="19.559" y2="13.759" xlink:href="#AK"><stop stop-color="#dfdfdf"/><stop offset=".021" stop-color="#e1e1e1"/><stop offset=".244" stop-color="#f2f2f2"/><stop offset=".487" stop-color="#fcfcfc"/><stop offset=".791" stop-color="#fff"/><stop offset=".841" stop-color="#fcfcfc"/><stop offset=".882" stop-color="#f2f2f2"/><stop offset=".919" stop-color="#e1e1e1"/><stop offset=".954" stop-color="#c9c9c9"/><stop offset=".966" stop-color="#bfbfbf"/><stop offset="1" stop-color="#fff"/></linearGradient><linearGradient id="AE" x1="7.538" y1="12.899" x2="19.559" y2="12.899" xlink:href="#AK"><stop stop-color="#dfdfdf"/><stop offset=".021" stop-color="#e1e1e1"/><stop offset=".244" stop-color="#f2f2f2"/><stop offset=".487" stop-color="#fcfcfc"/><stop offset=".791" stop-color="#fff"/><stop offset=".841" stop-color="#fcfcfc"/><stop offset=".882" stop-color="#f2f2f2"/><stop offset=".919" stop-color="#e1e1e1"/><stop offset=".954" stop-color="#c9c9c9"/><stop offset=".966" stop-color="#bfbfbf"/><stop offset="1" stop-color="#fff"/></linearGradient><clipPath id="AF"><path fill="#fff" d="M0 0h24v24H0z"/></clipPath><path id="AG" d="M8.411 12.88l-.055.173-.178.004.144.102-.055.173.144-.109.144.101-.055-.169.144-.11-.178.006-.055-.17z"/><path id="AH" d="M12.001 12.18l-.054.177-.177.02.143.089-.054.177.143-.122.143.088-.055-.164.144-.123-.178.022-.055-.164z"/><path id="AI" d="M13.026 12.909l-.055.178-.177.024.144.086-.055.178.144-.125.143.085-.055-.163.143-.126-.177.025-.055-.163z"/><path id="AJ" d="M10.975 14.01l-.055.176-.178.017.144.092-.055.176.144-.119.144.091-.055-.165.144-.12-.178.018-.055-.165z"/><linearGradient id="AK" gradientUnits="userSpaceOnUse"/><path id="AL" d="M10.975 12.289l-.055.176-.178.017.144.092-.055.176.144-.119.144.091-.055-.165.144-.12-.178.018-.055-.165z"/></defs></svg>