<svg xmlns="http://www.w3.org/2000/svg" width="484" height="484" fill="none" xmlns:v="https://vecta.io/nano"><path d="M0 242C0 108.347 108.347 0 242 0s242 108.347 242 242-108.347 242-242 242S0 375.653 0 242z" fill="url(#A)"/><path d="M171.548 242.344l.113 41.523 35.282 20.761v24.31l-55.93-32.803v-65.934l20.535 12.143zm0-41.523v24.196L151 212.862v-24.196l20.548-12.155 20.648 12.155-20.648 12.155zm50.129-12.155l20.548-12.155 20.648 12.155-20.648 12.155-20.548-12.155zm-35.281 86.594v-24.31l20.547 12.155v24.197l-20.547-12.042zm35.281 38.075l20.548 12.155 20.648-12.155v24.197l-20.648 12.155-20.548-12.155v-24.197zm70.665-124.669l20.548-12.155 20.648 12.155v24.196l-20.648 12.155v-24.196l-20.548-12.155zm20.548 95.201l.113-41.523 20.548-12.155v65.933l-55.931 32.803v-24.31l35.27-20.748zm-14.734-8.607l-20.548 12.042v-24.197l20.548-12.155v24.31zm-.001-65.833l.114 24.31-35.383 20.761v41.624l-20.548 12.041-20.547-12.041v-41.624l-35.383-20.761v-24.31l20.636-12.155 35.168 20.862 35.383-20.862 20.648 12.155h-.088zm-111.759-41.511L242.225 135l55.93 32.916-20.547 12.155-35.383-20.862-35.282 20.862-20.547-12.155z" fill="#fff"/><defs><linearGradient id="A" x1="-43.5" y1="-106" x2="561" y2="550.5" gradientUnits="userSpaceOnUse"><stop stop-color="#f0b90b"/><stop offset=".948" stop-color="#fbc61e"/></linearGradient></defs></svg>