<svg width="28" height="20" viewBox="0 0 28 20" fill="none" xmlns="http://www.w3.org/2000/svg">
<path d="M10 0C11.9491 0 13.767 0.559144 15.3047 1.52344C13.3025 2.97747 12 5.33626 12 8C12 11.7828 14.6261 14.9497 18.1543 15.7832C16.3422 18.3337 13.3673 20 10 20C4.47676 20 0 15.5232 0 10C3.05974e-07 4.47676 4.47676 3.05983e-07 10 0Z" fill="#F0B90B"/>
<path d="M11.3311 16.0615L10.0166 16.835L8.70801 16.0615V14.5205L10.0166 15.2939L11.3311 14.5205V16.0615ZM5.51562 10L5.52246 12.6436L7.76953 13.9658V15.5137L4.20801 13.4248V9.22656L5.51562 10ZM13.8203 13.0527C14.1111 13.4088 14.4322 13.7389 14.7793 14.04L12.2705 15.5127V13.9648L13.8203 13.0527ZM10.0156 8.45801L12.0566 7.25293C12.0339 7.49881 12.0195 7.74816 12.0195 8C12.0196 8.75946 12.1274 9.49355 12.3252 10.1895L11.332 10.7734V13.4238L10.0234 14.1914L8.71484 13.4238V10.7734L6.46191 9.45117V7.90332L7.77637 7.12891L10.0156 8.45801ZM7.76953 11.3213V12.8623L6.46094 12.0957V10.5479L7.76953 11.3213ZM12.6436 11.0996C12.8173 11.5121 13.0252 11.9065 13.2627 12.2803L12.2695 12.8623V11.3213L12.6436 11.0996ZM6.83008 6.58105L5.51562 7.35547V8.89648L4.20703 8.12207V6.58105L5.51562 5.80762L6.83008 6.58105ZM11.3311 6.58105L10.0166 7.35547L8.70801 6.58105L10.0166 5.80762L11.3311 6.58105ZM12.708 4.74805C12.5252 5.15835 12.3759 5.58697 12.2637 6.03027L10.0166 4.70508L7.76953 6.03418L6.46094 5.25977L10.0166 3.16406L12.708 4.74805Z" fill="white"/>
<path d="M24.3285 6.91462C23.4172 4.32792 20.1722 4.18844 20.9559 0.428846C21.0139 0.149888 20.7411 -0.0656706 20.5205 0.0801484C18.4133 1.4369 16.8982 4.15674 18.1695 7.71979C18.274 8.01143 17.9605 8.28405 17.7342 8.09385C16.6835 7.22528 16.5732 5.97631 16.666 5.08237C16.7009 4.7527 16.3061 4.5942 16.1378 4.86681C15.7431 5.52617 15.3425 6.59128 15.3425 8.19529C15.5631 11.7457 18.3088 12.8361 19.2957 12.9756C20.7063 13.1722 22.233 12.8869 23.3301 11.79C24.5375 10.5664 24.9787 8.61373 24.3285 6.91462Z" fill="#EB521C"/>
<path d="M17.4508 9.44153C17.9858 7.92321 19.8905 7.84134 19.4305 5.63457C19.3964 5.47083 19.5565 5.34431 19.686 5.4299C20.9229 6.22627 21.8122 7.82274 21.066 9.91414C21.0046 10.0853 21.1886 10.2453 21.3215 10.1337C21.9383 9.62388 22.003 8.89077 21.9485 8.36606C21.928 8.17255 22.1597 8.07951 22.2585 8.23953C22.4902 8.62655 22.7253 9.25174 22.7253 10.1932C22.5959 12.2772 20.9842 12.9173 20.405 12.9992C19.577 13.1145 18.6809 12.9471 18.0369 12.3033C17.3282 11.585 17.0692 10.4389 17.4508 9.44153Z" fill="#FEE100"/>
</svg>
