<svg width="94" height="25" viewBox="0 0 94 25" fill="none" xmlns="http://www.w3.org/2000/svg">
<g clip-path="url(#clip0_501_11538)">
<path d="M84.9922 17.8954C83.0048 17.8954 81.2388 16.4983 80.7839 14.5693H92.5837C92.5837 14.5693 92.6471 13.8704 92.6471 13.6231C92.6471 9.52896 89.2139 6.19727 84.9943 6.19727C80.7747 6.19727 77.3416 9.52827 77.3416 13.6231C77.3416 17.718 80.7554 20.9716 84.9943 20.9716C89.2331 20.9716 91.7081 17.9417 92.326 15.7482H88.7292C88.7292 15.7482 87.5853 17.8954 84.9922 17.8954ZM84.9943 9.27204C86.8998 9.27204 88.5541 10.4931 89.1207 12.313H80.8679C81.4324 10.4931 83.0874 9.27204 84.9943 9.27204Z" fill="white"/>
<path d="M39.965 20.9716C35.7454 20.9716 32.4355 17.6752 32.4355 13.6231C32.4355 9.57109 35.8685 6.19727 40.0882 6.19727C44.3079 6.19727 47.7409 9.65949 47.7409 13.5837C47.7409 15.2558 47.7409 20.6035 47.7409 20.6035H44.7698V18.2608L44.5535 18.2056C44.0303 19.4501 42.1346 20.9716 39.9644 20.9716H39.965ZM40.0882 9.27204C37.705 9.27204 35.7653 11.2134 35.7653 13.6003C35.7653 15.9872 37.7044 17.8962 40.0882 17.8962C42.4721 17.8962 44.4111 15.9692 44.4111 13.6003C44.4111 11.2314 42.4721 9.27204 40.0882 9.27204Z" fill="white"/>
<path d="M56.2196 20.9716C51.9998 20.9716 48.6899 17.6752 48.6899 13.6231C48.6899 9.57109 52.1231 6.19727 56.3427 6.19727C60.5623 6.19727 63.9954 9.65949 63.9954 13.5837C63.9954 15.2558 63.9954 20.6035 63.9954 20.6035H61.0243V18.2608L60.8079 18.2056C60.2847 19.4501 58.3892 20.9716 56.2188 20.9716H56.2196ZM56.3427 9.27204C53.9596 9.27204 52.0199 11.2134 52.0199 13.6003C52.0199 15.9872 53.9588 17.8962 56.3427 17.8962C58.7266 17.8962 60.6655 15.9692 60.6655 13.6003C60.6655 11.2314 58.7266 9.27204 56.3427 9.27204Z" fill="white"/>
<path d="M68.983 20.6018L62.8849 6.56641H66.2212L70.6907 16.9054L75.1609 6.56641H78.4964L72.3991 20.6018H68.983Z" fill="white"/>
<path d="M10.849 20.9496C12.5084 20.9496 13.8536 19.6444 13.8536 18.0343C13.8536 16.4243 12.5084 15.1191 10.849 15.1191C9.18965 15.1191 7.84445 16.4243 7.84445 18.0343C7.84445 19.6444 9.18965 20.9496 10.849 20.9496Z" fill="white"/>
<path d="M18.702 20.9496C20.3615 20.9496 21.7067 19.6444 21.7067 18.0343C21.7067 16.4243 20.3615 15.1191 18.702 15.1191C17.0427 15.1191 15.6975 16.4243 15.6975 18.0343C15.6975 19.6444 17.0427 20.9496 18.702 20.9496Z" fill="white"/>
<path d="M14.7701 6C6.61205 6 -0.00213493 12.5398 5.1694e-07 20.6045H3.77333C3.77333 14.5606 8.65781 9.66043 14.7701 9.66043C20.8825 9.66043 25.767 14.5606 25.767 20.6045H29.5403C29.5417 12.5398 22.9275 6 14.7701 6Z" fill="white"/>
</g>
<defs>
<clipPath id="clip0_501_11538">
<rect width="92.6471" height="15" fill="white" transform="translate(0 6)"/>
</clipPath>
</defs>
</svg>
