<svg width="48" height="48" viewBox="0 0 48 48" fill="none" xmlns="http://www.w3.org/2000/svg">
    <rect width="48" height="48" rx="8" fill="#2D3549"/>
    <path d="M31.5 21.5C30.47 21.5 29.6 22.12 29.21 23H26.29C25.9 22.12 25.03 21.5 24 21.5C22.97 21.5 22.1 22.12 21.71 23H18.79C18.4 22.12 17.53 21.5 16.5 21.5C15.12 21.5 14 22.62 14 24C14 25.38 15.12 26.5 16.5 26.5C17.53 26.5 18.4 25.88 18.79 25H21.71C22.1 25.88 22.97 26.5 24 26.5C25.03 26.5 25.9 25.88 26.29 25H29.21C29.6 25.88 30.47 26.5 31.5 26.5C32.88 26.5 34 25.38 34 24C34 22.62 32.88 21.5 31.5 21.5Z" fill="white"/>
</svg>
