<svg width="178" height="64" viewBox="0 0 178 64" fill="none" xmlns="http://www.w3.org/2000/svg">
<g clip-path="url(#clip0_2099_2603)">
<path d="M23.1138 29.6056L28.9016 23.7815L34.6917 29.6104L38.0576 26.2197L28.9016 17L19.7456 26.2173L23.1138 29.6056Z" fill="#BAC3DA"/>
<path d="M13.9988 32.0005L17.3657 28.611L20.7327 32.0005L17.3657 35.39L13.9988 32.0005Z" fill="#BAC3DA"/>
<path d="M23.1136 34.3945L28.9014 40.221L34.6916 34.3921L38.0597 37.7781L38.0574 37.7804L28.9014 47.0001L19.7454 37.7852L19.7407 37.7804L23.1136 34.3945Z" fill="#BAC3DA"/>
<path d="M37.0645 32.0015L40.4314 28.612L43.7983 32.0015L40.4314 35.391L37.0645 32.0015Z" fill="#BAC3DA"/>
<path d="M32.3167 31.9988L28.9014 28.5583L26.3759 31.1008L26.084 31.3922L25.4862 31.9941L25.4814 31.9988L25.4862 32.0059L28.9014 35.4417L32.3167 32.0012L32.319 31.9988H32.3167Z" fill="#BAC3DA"/>
<path d="M49.0518 24.2695H56.3765C58.1936 24.2695 59.5682 24.7434 60.5003 25.6912C60.8514 26.0413 61.1283 26.4596 61.314 26.9207C61.4997 27.3818 61.5904 27.876 61.5806 28.3735V28.4185C61.5869 28.826 61.5306 29.232 61.4135 29.6222C61.3092 29.9581 61.1578 30.2772 60.9639 30.57C60.7832 30.8461 60.5645 31.095 60.3143 31.3093C60.0699 31.521 59.8022 31.7039 59.5164 31.8542C60.3406 32.1432 61.0817 32.6314 61.6748 33.2759C62.1989 33.8762 62.4609 34.7055 62.4609 35.7639V35.8089C62.4758 36.4699 62.3329 37.1248 62.0443 37.7187C61.7646 38.2659 61.3546 38.7348 60.851 39.0835C60.2815 39.4678 59.6475 39.7448 58.9798 39.901C58.1864 40.0904 57.3731 40.1819 56.5578 40.1735H49.0518V24.2695ZM55.6422 30.7003C56.2759 30.7311 56.9066 30.5939 57.471 30.3022C57.6911 30.1728 57.8709 29.9839 57.9898 29.7569C58.1088 29.5299 58.1623 29.274 58.1442 29.018V28.973C58.1558 28.7371 58.1082 28.5021 58.0058 28.2896C57.9034 28.0771 57.7494 27.8941 57.5581 27.7574C57.1674 27.4778 56.6033 27.338 55.8658 27.338H52.4388V30.7003H55.6422ZM56.5672 37.1097C57.1986 37.1454 57.827 36.9999 58.3796 36.6903C58.5948 36.5511 58.769 36.3564 58.8841 36.1263C58.9992 35.8963 59.0509 35.6394 59.0339 35.3824V35.3374C59.0424 35.0931 58.9912 34.8505 58.885 34.6307C58.7787 34.4109 58.6205 34.2208 58.4243 34.0768C58.0194 33.7609 57.3651 33.6029 56.4613 33.6029H52.4388V37.1097H56.5672Z" fill="#BAC3DA"/>
<path d="M66.8247 24.2695H70.3012V40.1782H66.8247V24.2695Z" fill="#BAC3DA"/>
<path d="M75.5618 24.2695H78.7675L86.1771 34.0602V24.2695H89.6088V40.1782H86.6501L78.9982 30.0653V40.1782H75.5618V24.2695Z" fill="#BAC3DA"/>
<path d="M100.135 24.1558H103.336L110.107 40.1782H106.478L105.033 36.6098H98.3505L96.9053 40.1782H93.3606L100.135 24.1558ZM103.792 33.5199L101.688 28.3592L99.5933 33.5199H103.792Z" fill="#BAC3DA"/>
<path d="M113.866 24.2695H117.072L124.477 34.0602V24.2695H127.909V40.1782H124.95L117.298 30.0653V40.1782H113.866V24.2695Z" fill="#BAC3DA"/>
<path d="M140.421 40.4578C139.313 40.4673 138.215 40.2513 137.192 39.8227C136.229 39.4224 135.355 38.8321 134.622 38.0866C133.889 37.3411 133.312 36.4555 132.924 35.4819C132.515 34.4635 132.308 33.3744 132.315 32.276V32.2309C132.297 30.0658 133.124 27.9801 134.619 26.4233C135.355 25.6629 136.235 25.06 137.208 24.651C138.266 24.2097 139.403 23.9896 140.548 24.0041C141.226 23.999 141.902 24.0601 142.568 24.1865C143.137 24.295 143.694 24.4625 144.229 24.6865C144.715 24.8923 145.177 25.1514 145.606 25.459C146.025 25.7589 146.419 26.0934 146.783 26.4589L144.573 29.0274C144.008 28.5029 143.375 28.0588 142.69 27.7076C142.017 27.3838 141.279 27.2216 140.534 27.2337C139.914 27.227 139.299 27.3533 138.731 27.6041C138.163 27.855 137.654 28.2246 137.239 28.6886C136.827 29.1513 136.504 29.6873 136.288 30.269C136.061 30.8838 135.947 31.5349 135.951 32.1906V32.2357C135.949 32.8905 136.063 33.5405 136.288 34.1549C136.502 34.7388 136.821 35.2778 137.229 35.7449C137.641 36.2145 138.149 36.5896 138.717 36.8447C139.286 37.0998 139.902 37.229 140.525 37.2234C141.317 37.2486 142.104 37.0769 142.815 36.7235C143.492 36.3521 144.118 35.8932 144.676 35.3586L146.889 37.6097C146.498 38.0365 146.076 38.4326 145.625 38.7944C145.182 39.1469 144.701 39.4481 144.192 39.6924C143.648 39.9498 143.076 40.14 142.488 40.2587C141.807 40.396 141.115 40.4627 140.421 40.4578Z" fill="#BAC3DA"/>
<path d="M150.991 24.2695H162.885V27.383H154.411V30.6103H161.873V33.7238H154.423V37.0647H163.003V40.1782H150.999L150.991 24.2695Z" fill="#BAC3DA"/>
</g>
<defs>
<clipPath id="clip0_2099_2603">
<rect width="149" height="30" fill="white" transform="translate(14 17)"/>
</clipPath>
</defs>
</svg>
