<svg width="178" height="64" viewBox="0 0 178 64" fill="none" xmlns="http://www.w3.org/2000/svg">
<g clip-path="url(#clip0_2099_2761)">
<path fill-rule="evenodd" clip-rule="evenodd" d="M58.5398 22.1155L59.4386 19.9276C59.4386 19.9276 58.2941 18.7118 56.9055 17.3356C55.5169 15.9578 52.5749 16.7678 52.5749 16.7678L49.2238 13H37.4588L34.1095 16.7678C34.1095 16.7678 31.1674 15.9578 29.7788 17.3356C28.3902 18.7134 27.2457 19.9276 27.2457 19.9276L28.1445 22.1155L27 25.3571C27 25.3571 30.3645 37.9915 30.7584 39.5347C31.5343 42.5726 32.0662 43.7467 34.271 45.2866C36.4776 46.8264 40.48 49.5002 41.1348 49.9044C41.7878 50.3102 42.6058 51 43.3413 51C44.0768 51 44.8931 50.3102 45.5479 49.9044C46.2009 49.4986 50.205 46.8264 52.4116 45.2866C54.6182 43.7467 55.1483 42.5726 55.9242 39.5347C56.3181 37.9915 59.6826 25.3571 59.6826 25.3571L58.5381 22.1171L58.5398 22.1155Z" fill="#8896B7"/>
<path d="M47.5086 19.8475C47.9984 19.8475 51.6356 19.1594 51.6356 19.1594C51.6356 19.1594 55.9443 24.3251 55.9443 25.429C55.9443 26.3409 55.5741 26.6983 55.1381 27.1192C55.0472 27.2077 54.953 27.2979 54.8571 27.3981L51.6272 30.8001C51.5952 30.8335 51.5598 30.8686 51.5211 30.907C51.198 31.2293 50.7233 31.7019 51.0583 32.4886C51.0802 32.5403 51.1037 32.5938 51.1273 32.6489C51.4942 33.5006 51.9486 34.5528 51.3713 35.6183C50.757 36.7523 49.7051 37.5089 49.0318 37.3836C48.3569 37.2584 46.7748 36.4384 46.1924 36.0643C45.6101 35.6902 43.7654 34.1804 43.7654 33.6042C43.7654 33.1232 45.0917 32.3215 45.738 31.9324C45.8659 31.8556 45.9669 31.7938 46.0258 31.7554C46.0931 31.7103 46.2042 31.6418 46.3405 31.5583C46.9296 31.1959 47.9916 30.5412 48.0186 30.2506C48.0506 29.8932 48.0388 29.788 47.5641 28.9045C47.4632 28.7158 47.3453 28.5154 47.2225 28.3066C46.7714 27.5367 46.2648 26.6732 46.3775 26.0553C46.5038 25.3572 47.6062 24.958 48.5403 24.619C48.6565 24.5773 48.7709 24.5355 48.8803 24.4937C49.153 24.3919 49.4947 24.2649 49.8532 24.1313C50.7856 23.7856 51.8207 23.3998 51.9924 23.3213C52.2297 23.2128 52.1674 23.1109 51.4521 23.0424C51.3579 23.0341 51.2401 23.0207 51.1037 23.0073C50.2167 22.9138 48.5807 22.7418 47.7863 22.9606C47.6298 23.004 47.4547 23.0508 47.2713 23.1009C46.3775 23.3414 45.2835 23.6353 45.1775 23.804C45.159 23.8341 45.1405 23.8591 45.1236 23.8825C45.0226 24.0244 44.957 24.1163 45.0681 24.7192C45.1018 24.8979 45.1691 25.252 45.2532 25.6879C45.5006 26.9655 45.8844 28.9596 45.9332 29.4072C45.9399 29.4707 45.9467 29.5308 45.9551 29.5892C46.0174 30.0886 46.0578 30.421 45.4737 30.5546C45.4249 30.5663 45.3744 30.578 45.3206 30.5896C44.6608 30.74 43.693 30.9604 43.3429 30.9604C42.9928 30.9604 42.025 30.74 41.3636 30.5896C41.3114 30.578 41.2592 30.5663 41.2121 30.5546C40.6264 30.4226 40.6684 30.0903 40.729 29.5892C40.7358 29.5308 40.7442 29.4707 40.7509 29.4072C40.7997 28.9596 41.1852 26.9605 41.4326 25.6829C41.5167 25.2486 41.5841 24.8979 41.6177 24.7192C41.7288 24.1163 41.6632 24.0244 41.5622 23.8825C41.5453 23.8591 41.5268 23.8324 41.5083 23.804C41.404 23.6353 40.3083 23.3414 39.4145 23.1009C39.2311 23.0508 39.056 23.004 38.8995 22.9606C38.1051 22.7401 36.4691 22.9138 35.5821 23.0073C35.4474 23.0224 35.3296 23.0341 35.2337 23.0424C34.5167 23.1092 34.4561 23.2128 34.6934 23.3213C34.8651 23.3998 35.9002 23.7839 36.8326 24.1297C37.1911 24.2633 37.5328 24.3902 37.8055 24.4921C37.9149 24.5338 38.0293 24.5739 38.1455 24.6173C39.0796 24.9564 40.182 25.3555 40.3083 26.0536C40.4193 26.6716 39.9144 27.535 39.4633 28.3049C39.3405 28.5137 39.2226 28.7141 39.1217 28.9028C38.647 29.7863 38.6352 29.8915 38.6672 30.2489C38.6942 30.5395 39.7562 31.1926 40.3453 31.5566C40.4816 31.6418 40.5944 31.7103 40.66 31.7537C40.7189 31.7921 40.8199 31.8539 40.9478 31.9307C41.5925 32.3199 42.9204 33.1215 42.9204 33.6025C42.9204 34.1804 41.0758 35.6885 40.4934 36.0626C39.911 36.4367 38.3289 37.2567 37.654 37.382C36.9807 37.5072 35.9271 36.7507 35.3145 35.6167C34.7372 34.5511 35.1899 33.499 35.5585 32.6472C35.5821 32.5938 35.6056 32.5387 35.6275 32.4869C35.9625 31.7003 35.4878 31.2276 35.1647 30.9053C35.1276 30.8686 35.0906 30.8318 35.0586 30.7984L31.8271 27.3964C31.7328 27.2962 31.6386 27.206 31.5477 27.1175C31.1117 26.6966 30.7415 26.3392 30.7415 25.4273C30.7415 24.3234 35.0502 19.1577 35.0502 19.1577C35.0502 19.1577 38.6857 19.8458 39.1772 19.8458C39.5677 19.8458 40.3234 19.5886 41.1111 19.3197C41.3097 19.2513 41.5117 19.1828 41.7103 19.1177C42.6915 18.7937 43.3446 18.792 43.3446 18.792C43.3446 18.792 43.9976 18.7937 44.9789 19.1177C45.1775 19.1828 45.3778 19.2513 45.5781 19.3197C46.3658 19.5886 47.1215 19.8458 47.512 19.8458L47.5086 19.8475Z" fill="#BAC3DA"/>
<path d="M46.8842 38.1167C47.6534 38.5092 48.1988 38.7881 48.4041 38.9167C48.67 39.082 48.5084 39.3943 48.2661 39.5647C48.0237 39.735 44.7585 42.2419 44.4404 42.5191C44.4 42.5542 44.3562 42.5926 44.3125 42.6327C44.0061 42.9049 43.6173 43.254 43.3413 43.254C43.0653 43.254 42.6748 42.9049 42.3701 42.6327C42.3247 42.5926 42.2826 42.5542 42.2422 42.5191C41.9258 42.2419 38.6606 39.735 38.4165 39.5647C38.1741 39.3943 38.0109 39.082 38.2768 38.9167C38.4838 38.7881 39.0292 38.5092 39.7984 38.1167C40.0239 38.0015 40.2679 37.8762 40.5288 37.7426C41.6801 37.1514 43.1158 36.6487 43.3396 36.6487C43.5635 36.6487 44.9992 37.1514 46.1504 37.7426C46.4113 37.8762 46.657 38.0015 46.8826 38.1167H46.8842Z" fill="#BAC3DA"/>
<path d="M74.425 25.8232C75.3979 25.3138 76.5104 25.0599 77.7593 25.0599C79.2152 25.0599 80.5297 25.4173 81.7062 26.1288C82.8827 26.8403 83.8168 27.8524 84.5018 29.1651C85.1885 30.4761 85.5302 31.9959 85.5302 33.7261C85.5302 35.4564 85.1869 36.9862 84.5018 38.3173C83.8168 39.6483 82.8827 40.6805 81.7062 41.4137C80.5263 42.1468 79.2118 42.5126 77.7593 42.5126C76.4885 42.5126 75.3794 42.2637 74.425 41.766C73.4707 41.2684 72.7083 40.6237 72.136 39.8287V42.2387H67.834V19.6638H72.136V27.8073C72.6881 26.9939 73.4522 26.3326 74.425 25.8265V25.8232ZM80.5095 31.0874C80.0887 30.3458 79.5366 29.7813 78.8499 29.3939C78.1649 29.0064 77.4193 28.816 76.6232 28.816C75.8271 28.816 75.1118 29.0148 74.4267 29.4106C73.74 29.8064 73.1863 30.3826 72.7672 31.1341C72.3464 31.8874 72.1377 32.7725 72.1377 33.7879C72.1377 34.8034 72.3464 35.6885 72.7672 36.4417C73.188 37.195 73.74 37.7678 74.4267 38.1653C75.1118 38.5611 75.8456 38.7599 76.6232 38.7599C77.4008 38.7599 78.1649 38.5578 78.8499 38.1503C79.5366 37.7428 80.0904 37.1649 80.5095 36.4117C80.9303 35.6585 81.139 34.7649 81.139 33.7278C81.139 32.6907 80.9303 31.8322 80.5095 31.0907V31.0857V31.0874Z" fill="#BAC3DA"/>
<path d="M93.2909 25.8548C94.183 25.3454 95.2013 25.0916 96.3492 25.0916V29.5741H95.2114C93.8598 29.5741 92.8382 29.8898 92.1532 30.5211C91.4665 31.1524 91.1248 32.2513 91.1248 33.8145V42.2319H86.8228V25.3354H91.1248V27.9591C91.6768 27.0656 92.3989 26.3625 93.2909 25.8531V25.8565V25.8548Z" fill="#BAC3DA"/>
<path d="M97.9298 29.18C98.6165 27.8573 99.5472 26.8419 100.725 26.1304C101.902 25.4189 103.22 25.0615 104.672 25.0615C105.943 25.0615 107.052 25.3154 108.007 25.8248C108.959 26.3341 109.722 26.9738 110.296 27.7454V25.3354H114.628V42.2336H110.296V39.7618C109.744 40.5568 108.979 41.2115 108.007 41.7292C107.034 42.2469 105.913 42.5075 104.642 42.5075C103.21 42.5075 101.902 42.1417 100.725 41.4086C99.5455 40.6754 98.6148 39.6466 97.9298 38.3122C97.2447 36.9811 96.9014 35.4513 96.9014 33.721C96.9014 31.9908 97.2447 30.4977 97.9298 29.1767V29.18ZM109.683 31.1173C109.274 30.3758 108.722 29.8063 108.023 29.4105C107.327 29.0147 106.579 28.8159 105.78 28.8159C104.98 28.8159 104.243 29.0097 103.566 29.3938C102.892 29.7813 102.343 30.3457 101.922 31.0873C101.501 31.8288 101.293 32.709 101.293 33.7244C101.293 34.7398 101.501 35.6316 101.922 36.3915C102.343 37.1548 102.895 37.7393 103.58 38.1468C104.267 38.5543 104.999 38.7564 105.776 38.7564C106.554 38.7564 107.323 38.5577 108.02 38.1619C108.717 37.766 109.269 37.1965 109.68 36.455C110.089 35.7135 110.292 34.8216 110.292 33.7878C110.292 32.754 110.085 31.8622 109.68 31.1207H109.683V31.1173Z" fill="#BAC3DA"/>
<path d="M124.71 38.3022L129.012 25.3372H133.59L127.29 42.2353H122.065L115.796 25.3372H120.404L124.706 38.3022H124.711H124.71Z" fill="#BAC3DA"/>
<path d="M149.877 35.0671H137.432C137.535 36.288 137.964 37.2416 138.723 37.9347C139.481 38.6262 140.413 38.9719 141.519 38.9719C143.116 38.9719 144.254 38.2905 144.931 36.926H149.569C149.078 38.5527 148.137 39.8904 146.743 40.9359C145.35 41.9847 143.641 42.5075 141.612 42.5075C139.972 42.5075 138.503 42.1484 137.202 41.4253C135.899 40.7038 134.888 39.6817 134.16 38.3589C133.433 37.0362 133.07 35.5114 133.07 33.7845C133.07 32.0576 133.427 30.4994 134.145 29.18C134.862 27.8573 135.865 26.8419 137.156 26.1304C138.447 25.4189 139.934 25.0615 141.612 25.0615C143.29 25.0615 144.678 25.4072 145.961 26.0987C147.24 26.7901 148.236 27.7721 148.942 29.0431C149.647 30.314 150 31.7737 150 33.4204C150 34.0283 149.958 34.5795 149.877 35.0671ZM145.545 32.1996C145.525 31.1006 145.124 30.2205 144.347 29.5625C143.569 28.9011 142.615 28.5721 141.489 28.5721C140.423 28.5721 139.526 28.8928 138.801 29.5324C138.074 30.1721 137.628 31.0622 137.466 32.1996H145.548H145.545Z" fill="#BAC3DA"/>
</g>
<defs>
<clipPath id="clip0_2099_2761">
<rect width="123" height="38" fill="white" transform="translate(27 13)"/>
</clipPath>
</defs>
</svg>
