<svg width="178" height="64" viewBox="0 0 178 64" fill="none" xmlns="http://www.w3.org/2000/svg">
<path fill-rule="evenodd" clip-rule="evenodd" d="M127.034 27.0902H130.329V23.782H127.034V27.0902ZM109.523 32.6023C110.154 30.9249 111.764 29.7321 113.652 29.7321C115.541 29.7321 117.156 30.9249 117.782 32.6023H109.523ZM113.652 26.6522C109.523 26.6522 106.173 30.0163 106.173 34.1632C106.173 38.3101 109.523 41.6742 113.652 41.6742C116.487 41.6742 118.951 40.09 120.218 37.7603L117.457 36.4137C116.687 37.723 115.272 38.5989 113.652 38.5989C111.606 38.5989 109.885 37.2011 109.384 35.3001H117.921V35.3047H121.049C121.104 34.932 121.132 34.5499 121.132 34.1632C121.132 30.0163 117.787 26.6522 113.652 26.6522ZM122.004 41.2734H125.299V37.9653H122.004V41.2734ZM127.034 41.2734H130.329V28.5439H127.034V41.2734ZM139.52 38.5989C137.08 38.5989 135.103 36.614 135.103 34.1632C135.103 31.7123 137.08 29.7274 139.52 29.7274C141.961 29.7274 143.938 31.7123 143.938 34.1632C143.938 36.614 141.961 38.5989 139.52 38.5989ZM139.52 26.6522C135.391 26.6522 132.041 30.0163 132.041 34.1632C132.041 38.3101 135.391 41.6742 139.52 41.6742C143.65 41.6742 147 38.3101 147 34.1632C147 30.0163 143.65 26.6522 139.52 26.6522ZM70.6442 31.3955V34.8155H75.2518C75.0105 35.794 74.5372 36.6699 73.8551 37.3689C72.825 38.4265 71.4006 39.0043 69.8415 39.0043C66.6028 39.0043 63.9673 36.3578 63.9673 33.1008C63.9673 29.8486 66.6028 27.1974 69.8415 27.1974C71.5769 27.1974 73.173 27.9429 74.2774 29.2289L76.9129 27.0622C75.1636 25.0028 72.5698 23.7727 69.8415 23.7727C64.7236 23.7727 60.5615 27.9569 60.5615 33.0962C60.5615 38.2355 64.7236 42.4197 69.8415 42.4197C72.3286 42.4197 74.6161 41.5204 76.2911 39.8011C77.697 38.3567 78.6297 36.3438 78.806 34.3309C78.8942 33.3478 78.9034 32.3693 78.8478 31.3862L70.6442 31.3955ZM87.4225 38.5989C84.9865 38.5989 83.0052 36.614 83.0052 34.1632C83.0052 31.7123 84.9818 29.7274 87.4225 29.7274C89.8631 29.7274 91.8398 31.7123 91.8398 34.1632C91.8398 36.614 89.8631 38.5989 87.4225 38.5989ZM91.8398 28.1153C90.6009 27.202 89.0743 26.6662 87.4225 26.6662C83.2929 26.6662 79.9474 30.0303 79.9474 34.1772C79.9474 38.324 83.2975 41.6881 87.4225 41.6881C89.0743 41.6881 90.6009 41.1476 91.8398 40.2391V41.2781H94.9022V27.0762H91.8398V28.1153ZM101.472 23.782H98.41V27.0902H96.5772V29.993H98.41V37.5879C98.41 38.3706 98.5074 39.0323 98.7023 39.5495C98.8926 40.062 99.1895 40.4627 99.5375 40.7749C99.8902 41.0917 100.303 41.3387 100.795 41.4831C101.296 41.6229 101.844 41.6788 102.428 41.6788C103.031 41.6788 103.57 41.6182 104.024 41.4924C104.451 41.3759 104.86 41.2129 105.235 41.0079V38.6688C104.632 38.9298 104.066 39.0276 103.421 39.0556C102.739 39.0882 102.34 38.8925 102.006 38.571C101.653 38.2355 101.468 37.7975 101.468 37.066V29.993H105.235V27.0902H101.468V23.782H101.472Z" fill="#BAC3DA"/>
<path fill-rule="evenodd" clip-rule="evenodd" d="M44.2797 39.8337C40.2475 39.8337 36.9763 36.5488 36.9763 32.4998C36.9763 28.4508 40.2475 25.1659 44.2797 25.1659V19.1599C36.9438 19.1599 31 25.1333 31 32.4998C31 39.8663 36.9438 45.835 44.2797 45.835C51.6109 45.835 57.5594 39.8617 57.5594 32.4998H51.583C51.583 36.5535 48.3118 39.8337 44.2797 39.8337Z" fill="#BAC3DA"/>
<path fill-rule="evenodd" clip-rule="evenodd" d="M44.2798 32.4997H51.5831V25.1658H44.2798V32.4997Z" fill="#BAC3DA"/>
</svg>
