<svg width="178" height="64" viewBox="0 0 178 64" fill="none" xmlns="http://www.w3.org/2000/svg">
<path d="M147.938 32.0022C147.152 31.4664 146.295 31.1092 145.438 30.6448C144.902 30.3591 144.331 30.0733 143.866 29.6804C143.08 29.0374 143.223 27.7515 144.081 27.18C145.259 26.3942 147.224 26.8228 147.438 28.4302C147.438 28.4659 147.474 28.5016 147.51 28.5016H149.296C149.331 28.5016 149.367 28.4659 149.367 28.4302C149.26 27.3229 148.831 26.3942 148.045 25.787C147.295 25.2154 146.438 24.9297 145.509 24.9297C140.794 24.9297 140.366 29.9304 142.902 31.5021C143.188 31.6807 145.688 32.9309 146.581 33.5024C147.474 34.0382 147.724 35.0383 147.367 35.8241C147.01 36.5385 146.117 37.0386 145.224 36.9672C144.223 36.8957 143.473 36.3599 143.188 35.5384C143.152 35.3955 143.116 35.1097 143.116 34.9669C143.116 34.9312 143.08 34.8954 143.045 34.8954H141.116C141.08 34.8954 141.044 34.9312 141.044 34.9669C141.044 36.3599 141.402 37.1458 142.33 37.8602C143.223 38.5388 144.188 38.8246 145.224 38.8246C147.867 38.8246 149.224 37.3244 149.51 35.7884C149.724 34.2882 149.296 32.9309 147.938 32.0022Z" fill="#BAC3DA"/>
<path d="M63.7474 25.2153H62.8901H61.9614C61.9257 25.2153 61.89 25.251 61.89 25.251L60.2826 30.5018C60.2469 30.5733 60.1754 30.5733 60.1397 30.5018L58.5323 25.251C58.5323 25.2153 58.4966 25.2153 58.4609 25.2153H57.5322H56.6749H55.5319C55.4962 25.2153 55.4604 25.2511 55.4604 25.2868V38.6816C55.4604 38.7173 55.4962 38.753 55.5319 38.753H57.4607C57.4965 38.753 57.5322 38.7173 57.5322 38.6816V28.5015C57.5322 28.4301 57.6393 28.3944 57.6751 28.4658L59.2824 33.7523L59.3896 34.1095C59.3896 34.1452 59.4253 34.1452 59.461 34.1452H60.9613C60.997 34.1452 61.0327 34.1095 61.0327 34.1095L61.1399 33.7523L62.7472 28.4658C62.783 28.3944 62.8901 28.3944 62.8901 28.5015V38.6816C62.8901 38.7173 62.9258 38.753 62.9616 38.753H64.8904C64.9261 38.753 64.9618 38.7173 64.9618 38.6816V25.2868C64.9618 25.2511 64.9261 25.2153 64.8904 25.2153H63.7474Z" fill="#BAC3DA"/>
<path d="M118.255 25.2153C118.22 25.2153 118.184 25.251 118.184 25.251L116.577 30.5018C116.541 30.5733 116.469 30.5733 116.434 30.5018L114.826 25.251C114.826 25.2153 114.791 25.2153 114.755 25.2153H111.79C111.754 25.2153 111.719 25.2511 111.719 25.2868V38.6816C111.719 38.7173 111.754 38.753 111.79 38.753H113.719C113.755 38.753 113.79 38.7173 113.79 38.6816V28.5015C113.79 28.4301 113.898 28.3944 113.933 28.4658L115.541 33.7523L115.648 34.1095C115.648 34.1452 115.684 34.1452 115.719 34.1452H117.22C117.255 34.1452 117.291 34.1095 117.291 34.1095L117.398 33.7523L119.006 28.4658C119.041 28.3944 119.148 28.3944 119.148 28.5015V38.6816C119.148 38.7173 119.184 38.753 119.22 38.753H121.149C121.184 38.753 121.22 38.7173 121.22 38.6816V25.2868C121.22 25.2511 121.184 25.2153 121.149 25.2153H118.255Z" fill="#BAC3DA"/>
<path d="M93.2516 25.2153H89.6439H87.7151H84.0717C84.036 25.2153 84.0002 25.2511 84.0002 25.2868V26.9656C84.0002 27.0013 84.036 27.037 84.0717 27.037H87.6079V38.6816C87.6079 38.7173 87.6436 38.753 87.6794 38.753H89.6082C89.6439 38.753 89.6797 38.7173 89.6797 38.6816V27.037H93.2159C93.2516 27.037 93.2873 27.0013 93.2873 26.9656V25.2868C93.323 25.2511 93.2873 25.2153 93.2516 25.2153Z" fill="#BAC3DA"/>
<path d="M104.682 38.7531H106.432C106.468 38.7531 106.504 38.7174 106.504 38.646L102.86 25.2154C102.86 25.1797 102.825 25.1797 102.789 25.1797H102.11H100.932H100.253C100.217 25.1797 100.181 25.2154 100.181 25.2154L96.5381 38.646C96.5381 38.6817 96.5738 38.7531 96.6095 38.7531H98.3598C98.3955 38.7531 98.4312 38.7174 98.4312 38.7174L99.5028 34.7882C99.5028 34.7525 99.5385 34.7525 99.5742 34.7525H103.468C103.503 34.7525 103.539 34.7882 103.539 34.7882L104.611 38.7174C104.611 38.7174 104.646 38.7531 104.682 38.7531ZM100.039 32.8237L101.467 27.5729C101.503 27.5015 101.575 27.5015 101.61 27.5729L103.039 32.8237C103.039 32.8594 103.003 32.9308 102.968 32.9308H100.146C100.074 32.9308 100.039 32.8594 100.039 32.8237Z" fill="#BAC3DA"/>
<path d="M134.758 38.7531H136.508C136.544 38.7531 136.58 38.7174 136.58 38.646L132.936 25.2154C132.936 25.1797 132.9 25.1797 132.865 25.1797H132.186H131.007H130.329C130.293 25.1797 130.257 25.2154 130.257 25.2154L126.614 38.646C126.614 38.6817 126.649 38.7531 126.685 38.7531H128.435C128.471 38.7531 128.507 38.7174 128.507 38.7174L129.578 34.7882C129.578 34.7525 129.614 34.7525 129.65 34.7525H133.543C133.579 34.7525 133.615 34.7882 133.615 34.7882L134.686 38.7174C134.686 38.7174 134.722 38.7531 134.758 38.7531ZM130.114 32.8237L131.543 27.5729C131.579 27.5015 131.65 27.5015 131.686 27.5729L133.115 32.8237C133.115 32.8594 133.079 32.9308 133.043 32.9308H130.221C130.15 32.9308 130.114 32.8594 130.114 32.8237Z" fill="#BAC3DA"/>
<path d="M72.8203 36.7527V32.6093C72.8203 32.5736 72.856 32.5378 72.8917 32.5378H78.071C78.1068 32.5378 78.1425 32.5021 78.1425 32.4664V30.7876C78.1425 30.7519 78.1068 30.7161 78.071 30.7161H72.8917C72.856 30.7161 72.8203 30.6804 72.8203 30.6447V27.1085C72.8203 27.0727 72.856 27.037 72.8917 27.037H78.7497C78.7854 27.037 78.8212 27.0013 78.8212 26.9656V25.2868C78.8212 25.2511 78.7854 25.2153 78.7497 25.2153H72.8203H70.82C70.7843 25.2153 70.7485 25.2511 70.7485 25.2868V27.037V30.7519V32.5736V36.8599V38.6816C70.7485 38.7173 70.7843 38.753 70.82 38.753H72.8203H78.9997C79.0355 38.753 79.0712 38.7173 79.0712 38.6816V36.9313C79.0712 36.8956 79.0355 36.8599 78.9997 36.8599H72.856C72.856 36.8242 72.8203 36.7885 72.8203 36.7527Z" fill="#BAC3DA"/>
<path d="M165.655 38.6102L158.94 31.6806C158.904 31.6449 158.904 31.6092 158.94 31.5735L164.976 25.2868C165.012 25.2511 164.976 25.1797 164.941 25.1797H162.476C162.44 25.1797 162.44 25.1797 162.44 25.2154L157.297 30.5733C157.261 30.6091 157.189 30.5733 157.189 30.5376V25.3226C157.189 25.2868 157.154 25.2511 157.118 25.2511H155.153C155.118 25.2511 155.082 25.2868 155.082 25.3226V38.7174C155.082 38.7531 155.118 38.7888 155.153 38.7888H157.082C157.118 38.7888 157.154 38.7531 157.154 38.7174V32.8237C157.154 32.7522 157.225 32.7165 157.261 32.7879L163.047 38.7888L163.083 38.8245H165.548C165.655 38.7531 165.691 38.646 165.655 38.6102Z" fill="#BAC3DA"/>
<path d="M42.2087 18L30.4927 26.7156L32.6716 21.572L42.2087 18Z" fill="#98A6C8" stroke="#98A6C8" stroke-width="0.357195" stroke-linecap="round" stroke-linejoin="round"/>
<path d="M15.1331 18L26.7776 26.787L24.7059 21.572L15.1331 18Z" fill="#98A6C8" stroke="#98A6C8" stroke-width="0.357195" stroke-linecap="round" stroke-linejoin="round"/>
<path d="M37.9937 38.1814L34.8503 42.9678L41.5656 44.8252L43.4588 38.2886L37.9937 38.1814Z" fill="#98A6C8" stroke="#98A6C8" stroke-width="0.357195" stroke-linecap="round" stroke-linejoin="round"/>
<path d="M13.9187 38.2886L15.8118 44.8252L22.4914 42.9678L19.3838 38.1814L13.9187 38.2886Z" fill="#98A6C8" stroke="#98A6C8" stroke-width="0.357195" stroke-linecap="round" stroke-linejoin="round"/>
<path d="M22.1343 30.1088L20.2769 32.9307L26.885 33.2164L26.6707 26.0725L22.1343 30.1088Z" fill="#98A6C8" stroke="#98A6C8" stroke-width="0.357195" stroke-linecap="round" stroke-linejoin="round"/>
<path d="M35.2431 30.109L30.6353 26.0012L30.4924 33.2166L37.1005 32.9308L35.2431 30.109Z" fill="#98A6C8" stroke="#98A6C8" stroke-width="0.357195" stroke-linecap="round" stroke-linejoin="round"/>
<path d="M22.4915 42.968L26.492 41.0391L23.0272 38.3245L22.4915 42.968Z" fill="#98A6C8" stroke="#E27625" stroke-width="0.357195" stroke-linecap="round" stroke-linejoin="round"/>
<path d="M30.8855 41.0391L34.8504 42.968L34.3146 38.3245L30.8855 41.0391Z" fill="#98A6C8" stroke="#E27625" stroke-width="0.357195" stroke-linecap="round" stroke-linejoin="round"/>
<path d="M34.8501 42.9679L30.8853 41.0391L31.2067 43.6109L31.171 44.7182L34.8501 42.9679Z" fill="#BAC3DA" stroke="#BAC3DA" stroke-width="0.357195" stroke-linecap="round" stroke-linejoin="round"/>
<path d="M22.4912 42.9679L26.206 44.7182L26.1703 43.6109L26.4918 41.0391L22.4912 42.9679Z" fill="#BAC3DA" stroke="#BAC3DA" stroke-width="0.357195" stroke-linecap="round" stroke-linejoin="round"/>
<path d="M26.2777 36.6097L22.9558 35.6453L25.2776 34.5737L26.2777 36.6097Z" fill="#233447" stroke="#233447" stroke-width="0.357195" stroke-linecap="round" stroke-linejoin="round"/>
<path d="M31.0999 36.6097L32.0643 34.5737L34.4218 35.6453L31.0999 36.6097Z" fill="#233447" stroke="#233447" stroke-width="0.357195" stroke-linecap="round" stroke-linejoin="round"/>
<path d="M22.4914 42.9678L23.0629 38.1814L19.3838 38.2886L22.4914 42.9678Z" fill="#8694B6" stroke="#8694B6" stroke-width="0.357195" stroke-linecap="round" stroke-linejoin="round"/>
<path d="M34.3147 38.1814L34.8505 42.9678L37.9938 38.2886L34.3147 38.1814Z" fill="#8694B6" stroke="#8694B6" stroke-width="0.357195" stroke-linecap="round" stroke-linejoin="round"/>
<path d="M37.1008 32.9307L30.4927 33.2164L31.0999 36.6098L32.0643 34.5738L34.4218 35.6454L37.1008 32.9307Z" fill="#8896B7" stroke="#8896B7" stroke-width="0.357195" stroke-linecap="round" stroke-linejoin="round"/>
<path d="M22.9558 35.6454L25.2776 34.5738L26.2777 36.6098L26.885 33.2164L20.2769 32.9307L22.9558 35.6454Z" fill="#8896B7" stroke="#8896B7" stroke-width="0.357195" stroke-linecap="round" stroke-linejoin="round"/>
<path d="M20.2769 32.9307L23.0273 38.3243L22.9558 35.6454L20.2769 32.9307Z" fill="#98A6C8" stroke="#98A6C8" stroke-width="0.357195" stroke-linecap="round" stroke-linejoin="round"/>
<path d="M34.4219 35.6454L34.3147 38.3243L37.1008 32.9307L34.4219 35.6454Z" fill="#98A6C8" stroke="#98A6C8" stroke-width="0.357195" stroke-linecap="round" stroke-linejoin="round"/>
<path d="M26.8848 33.2166L26.2776 36.6099L27.0277 40.6462L27.2063 35.324L26.8848 33.2166Z" fill="#98A6C8" stroke="#98A6C8" stroke-width="0.357195" stroke-linecap="round" stroke-linejoin="round"/>
<path d="M30.4926 33.2166L30.1711 35.324L30.314 40.6462L31.0998 36.6099L30.4926 33.2166Z" fill="#98A6C8" stroke="#98A6C8" stroke-width="0.357195" stroke-linecap="round" stroke-linejoin="round"/>
<path d="M31.0998 36.6097L30.314 40.646L30.8855 41.0389L34.3146 38.3242L34.4217 35.6453L31.0998 36.6097Z" fill="#BAC3DA" stroke="#BAC3DA" stroke-width="0.357195" stroke-linecap="round" stroke-linejoin="round"/>
<path d="M22.9558 35.6453L23.0272 38.3242L26.492 41.0389L27.0278 40.646L26.2777 36.6097L22.9558 35.6453Z" fill="#BAC3DA" stroke="#BAC3DA" stroke-width="0.357195" stroke-linecap="round" stroke-linejoin="round"/>
<path d="M31.1711 44.718L31.2068 43.6107L30.8853 43.3607H26.4561L26.1703 43.6107L26.206 44.718L22.4912 42.9678L23.7771 44.0394L26.4204 45.8611H30.921L33.5643 44.0394L34.8502 42.9678L31.1711 44.718Z" fill="#BAC3DA" stroke="#BAC3DA" stroke-width="0.357195" stroke-linecap="round" stroke-linejoin="round"/>
<path d="M30.8854 41.0389L30.3139 40.646H27.0277L26.4919 41.0389L26.1704 43.6107L26.4562 43.3607H30.8854L31.2069 43.6107L30.8854 41.0389Z" fill="#161616" stroke="#161616" stroke-width="0.357195" stroke-linecap="round" stroke-linejoin="round"/>
<path d="M42.7087 27.2871L43.7088 22.4649L42.2086 18L30.8855 26.4298L35.2433 30.1089L41.387 31.8949L42.7444 30.3232L42.1729 29.8946L43.1016 29.0373L42.3872 28.4658L43.3159 27.7514L42.7087 27.2871Z" fill="#8896B7" stroke="#8896B7" stroke-width="0.357195" stroke-linecap="round" stroke-linejoin="round"/>
<path d="M13.6687 22.4649L14.6688 27.2871L14.0259 27.7514L14.9546 28.4658L14.2402 29.0373L15.2046 29.8946L14.5974 30.3232L15.9548 31.8949L22.1342 30.1089L26.492 26.4298L15.1332 18L13.6687 22.4649Z" fill="#8896B7" stroke="#8896B7" stroke-width="0.357195" stroke-linecap="round" stroke-linejoin="round"/>
<path d="M41.3869 31.8949L35.2432 30.1089L37.1006 32.9307L34.3145 38.3244L37.9936 38.2887H43.4587L41.3869 31.8949Z" fill="#BAC3DA" stroke="#BAC3DA" stroke-width="0.357195" stroke-linecap="round" stroke-linejoin="round"/>
<path d="M22.1342 30.1089L15.9547 31.8949L13.9187 38.2887H19.3838L23.0272 38.3244L20.2768 32.9307L22.1342 30.1089Z" fill="#BAC3DA" stroke="#BAC3DA" stroke-width="0.357195" stroke-linecap="round" stroke-linejoin="round"/>
<path d="M30.4924 33.2166L30.8853 26.4299L32.6713 21.572H24.7058L26.4918 26.4299L26.8847 33.2166L27.0276 35.3598V40.6463H30.3138V35.3598L30.4924 33.2166Z" fill="#BAC3DA" stroke="#BAC3DA" stroke-width="0.357195" stroke-linecap="round" stroke-linejoin="round"/>
</svg>
