<svg width="178" height="64" viewBox="0 0 178 64" fill="none" xmlns="http://www.w3.org/2000/svg">
<g clip-path="url(#clip0_2099_2632)">
<mask id="mask0_2099_2632" style="mask-type:luminance" maskUnits="userSpaceOnUse" x="13" y="16" width="152" height="32">
<path d="M165 16H13V48H165V16Z" fill="white"/>
</mask>
<g mask="url(#mask0_2099_2632)">
<path d="M59.2614 31.2239H59.8512C60.4675 31.2239 60.9404 31.0839 61.2698 30.8038C61.5992 30.5237 61.7639 30.1212 61.7639 29.5961C61.7639 29.071 61.5992 28.6684 61.2698 28.3883C60.9404 28.1083 60.4675 27.9682 59.8512 27.9682H59.2614V31.2239ZM66.1314 38.5228H62.2421L59.2614 33.4468V38.5228H56.1372V25.3252H60.9988C61.6683 25.3252 62.2528 25.4361 62.7522 25.6578C63.2517 25.8678 63.6608 26.1596 63.9796 26.533C64.309 26.9064 64.5534 27.3381 64.7128 27.8282C64.8828 28.3183 64.9678 28.8434 64.9678 29.4035C64.9678 30.4071 64.7447 31.2239 64.2984 31.854C63.8627 32.4725 63.2145 32.8925 62.3537 33.1142L66.1314 38.5228Z" fill="#BAC3DA"/>
<path d="M68.702 34.0068C68.702 34.2985 68.7498 34.5728 68.8454 34.8295C68.9411 35.0745 69.0686 35.2904 69.228 35.4771C69.398 35.6638 69.5946 35.8097 69.8178 35.9147C70.0515 36.0197 70.3013 36.0722 70.5669 36.0722C70.822 36.0722 71.0611 36.0197 71.2842 35.9147C71.518 35.8097 71.7146 35.6638 71.874 35.4771C72.044 35.2904 72.1768 35.0745 72.2725 34.8295C72.3788 34.5844 72.4319 34.3219 72.4319 34.0418C72.4319 33.7618 72.3788 33.4992 72.2725 33.2542C72.1768 32.9975 72.044 32.7757 71.874 32.589C71.7146 32.4023 71.518 32.2565 71.2842 32.1515C71.0611 32.0464 70.822 31.9939 70.5669 31.9939C70.3013 31.9939 70.0515 32.0464 69.8178 32.1515C69.5946 32.2565 69.398 32.4023 69.228 32.589C69.0686 32.7757 68.9411 32.9916 68.8454 33.2367C68.7498 33.47 68.702 33.7268 68.702 34.0068ZM72.3362 29.5435H75.2373V38.5227H72.3362V37.525C71.7199 38.3768 70.8857 38.8028 69.8337 38.8028C69.2386 38.8028 68.6914 38.6861 68.1919 38.4527C67.6925 38.2076 67.2568 37.8692 66.8848 37.4375C66.5129 37.0057 66.2207 36.4981 66.0082 35.9147C65.8063 35.3312 65.7053 34.6953 65.7053 34.0068C65.7053 33.365 65.8063 32.7582 66.0082 32.1865C66.2101 31.603 66.4917 31.0954 66.853 30.6637C67.2143 30.2319 67.6446 29.8935 68.1441 29.6485C68.6435 29.3918 69.1961 29.2634 69.8018 29.2634C70.822 29.2634 71.6668 29.6543 72.3362 30.4361V29.5435Z" fill="#BAC3DA"/>
<path d="M82.7635 34.0593C82.7635 33.7793 82.7157 33.5167 82.62 33.2717C82.5244 33.015 82.3916 32.7933 82.2215 32.6065C82.0515 32.4198 81.8549 32.274 81.6318 32.169C81.4086 32.0523 81.1642 31.9939 80.8985 31.9939C80.6435 31.9939 80.4044 32.0464 80.1813 32.1515C79.9581 32.2565 79.7615 32.4023 79.5915 32.589C79.4321 32.7757 79.2993 32.9975 79.193 33.2542C79.0974 33.4992 79.0495 33.7618 79.0495 34.0418C79.0495 34.3219 79.0974 34.5844 79.193 34.8295C79.2886 35.0745 79.4215 35.2904 79.5915 35.4771C79.7615 35.6521 79.9581 35.798 80.1813 35.9147C80.415 36.0197 80.6595 36.0722 80.9145 36.0722C81.1695 36.0722 81.4086 36.0197 81.6318 35.9147C81.8549 35.8097 82.0462 35.6638 82.2056 35.4771C82.3756 35.2904 82.5085 35.0745 82.6041 34.8295C82.7104 34.5844 82.7635 34.3277 82.7635 34.0593ZM79.1292 23.9949V30.4361C79.8093 29.6543 80.6594 29.2634 81.6796 29.2634C82.2853 29.2634 82.8379 29.3918 83.3373 29.6485C83.8474 29.8935 84.2778 30.2319 84.6285 30.6637C84.9898 31.0838 85.2714 31.5855 85.4733 32.169C85.6752 32.7407 85.7761 33.3534 85.7761 34.0068C85.7761 34.6719 85.6699 35.2962 85.4573 35.8797C85.2554 36.4631 84.9685 36.9707 84.5966 37.4025C84.2246 37.8342 83.7836 38.1785 83.2736 38.4352C82.7741 38.6802 82.2322 38.8028 81.6477 38.8028C80.5851 38.8028 79.7456 38.3768 79.1292 37.525V38.5227H76.2441V23.9949H79.1292Z" fill="#BAC3DA"/>
<path d="M92.9837 34.0593C92.9837 33.7793 92.9359 33.5167 92.8403 33.2717C92.7446 33.015 92.6118 32.7933 92.4418 32.6065C92.2718 32.4198 92.0752 32.274 91.852 32.169C91.6288 32.0523 91.3844 31.9939 91.1188 31.9939C90.8637 31.9939 90.6246 32.0464 90.4015 32.1515C90.1783 32.2565 89.9817 32.4023 89.8117 32.589C89.6523 32.7757 89.5195 32.9975 89.4132 33.2542C89.3176 33.4992 89.2698 33.7618 89.2698 34.0418C89.2698 34.3219 89.3176 34.5844 89.4132 34.8295C89.5089 35.0745 89.6417 35.2904 89.8117 35.4771C89.9817 35.6521 90.1783 35.798 90.4015 35.9147C90.6353 36.0197 90.8797 36.0722 91.1347 36.0722C91.3898 36.0722 91.6288 36.0197 91.852 35.9147C92.0752 35.8097 92.2664 35.6638 92.4258 35.4771C92.5959 35.2904 92.7287 35.0745 92.8243 34.8295C92.9306 34.5844 92.9837 34.3277 92.9837 34.0593ZM89.3495 23.9949V30.4361C90.0296 29.6543 90.8797 29.2634 91.8998 29.2634C92.5055 29.2634 93.0581 29.3918 93.5576 29.6485C94.0676 29.8935 94.498 30.2319 94.8487 30.6637C95.21 31.0838 95.4916 31.5855 95.6935 32.169C95.8954 32.7407 95.9963 33.3534 95.9963 34.0068C95.9963 34.6719 95.8901 35.2962 95.6776 35.8797C95.4756 36.4631 95.1887 36.9707 94.8168 37.4025C94.4449 37.8342 94.0039 38.1785 93.4938 38.4352C92.9944 38.6802 92.4524 38.8028 91.8679 38.8028C90.8053 38.8028 89.9658 38.3768 89.3495 37.525V38.5227H86.4644V23.9949H89.3495Z" fill="#BAC3DA"/>
<path d="M99.2135 37.2975L95.2605 29.5435H98.6078L100.792 34.1468L102.912 29.5435H106.227L99.6599 43.0036H96.4241L99.2135 37.2975Z" fill="#BAC3DA"/>
<path d="M113.006 25.3252L115.079 33.8494L117.629 25.3252H120.116L122.666 33.8494L124.738 25.3252H128.006L124.419 38.5228H121.231L118.872 30.8738L116.513 38.5228H113.325L109.739 25.3252H113.006Z" fill="#BAC3DA"/>
<path d="M130.178 34.0068C130.178 34.2985 130.226 34.5728 130.322 34.8295C130.418 35.0745 130.545 35.2904 130.704 35.4771C130.874 35.6638 131.071 35.8097 131.294 35.9147C131.528 36.0197 131.778 36.0722 132.043 36.0722C132.298 36.0722 132.538 36.0197 132.761 35.9147C132.994 35.8097 133.191 35.6638 133.35 35.4771C133.52 35.2904 133.653 35.0745 133.749 34.8295C133.855 34.5844 133.908 34.3219 133.908 34.0418C133.908 33.7618 133.855 33.4992 133.749 33.2542C133.653 32.9975 133.52 32.7757 133.35 32.589C133.191 32.4023 132.994 32.2565 132.761 32.1515C132.538 32.0464 132.298 31.9939 132.043 31.9939C131.778 31.9939 131.528 32.0464 131.294 32.1515C131.071 32.2565 130.874 32.4023 130.704 32.589C130.545 32.7757 130.418 32.9916 130.322 33.2367C130.226 33.47 130.178 33.7268 130.178 34.0068ZM133.813 29.5435H136.714V38.5227H133.813V37.525C133.196 38.3768 132.362 38.8028 131.31 38.8028C130.715 38.8028 130.168 38.6861 129.668 38.4527C129.169 38.2076 128.733 37.8692 128.361 37.4375C127.989 37.0057 127.697 36.4981 127.485 35.9147C127.283 35.3312 127.182 34.6953 127.182 34.0068C127.182 33.365 127.283 32.7582 127.485 32.1865C127.687 31.603 127.968 31.0954 128.329 30.6637C128.691 30.2319 129.121 29.8935 129.621 29.6485C130.12 29.3918 130.673 29.2634 131.278 29.2634C132.298 29.2634 133.143 29.6543 133.813 30.4361V29.5435Z" fill="#BAC3DA"/>
<path d="M140.606 23.9949V38.5227H137.721V23.9949H140.606Z" fill="#BAC3DA"/>
<path d="M144.506 23.9949V38.5227H141.621V23.9949H144.506Z" fill="#BAC3DA"/>
<path d="M151.499 32.7291C151.403 32.2857 151.206 31.9297 150.909 31.6614C150.611 31.393 150.25 31.2588 149.825 31.2588C149.379 31.2588 149.012 31.3871 148.725 31.6439C148.449 31.9006 148.273 32.2623 148.199 32.7291H151.499ZM148.119 34.5669C148.119 35.9322 148.704 36.6148 149.873 36.6148C150.5 36.6148 150.973 36.3348 151.291 35.7747H154.081C153.518 37.8284 152.11 38.8553 149.857 38.8553C149.166 38.8553 148.534 38.7444 147.96 38.5227C147.386 38.2893 146.892 37.9626 146.478 37.5425C146.074 37.1224 145.76 36.6207 145.537 36.0372C145.314 35.4538 145.202 34.8003 145.202 34.0768C145.202 33.33 145.309 32.6591 145.521 32.0639C145.734 31.4572 146.037 30.9437 146.43 30.5236C146.823 30.1036 147.296 29.7827 147.848 29.561C148.412 29.3276 149.044 29.2109 149.745 29.2109C150.436 29.2109 151.058 29.3276 151.61 29.561C152.163 29.7827 152.63 30.1094 153.013 30.5411C153.395 30.9729 153.688 31.5038 153.89 32.134C154.092 32.7524 154.192 33.4525 154.192 34.2344V34.5669H148.119Z" fill="#BAC3DA"/>
<path d="M158.214 32.1865V38.5227H155.329V32.1865H154.373V29.5435H155.329V26.8479H158.214V29.5435H159.856V32.1865H158.214Z" fill="#BAC3DA"/>
<path d="M48.1147 34.5508C49.501 31.2618 42.6477 22.0729 36.1005 18.2447C31.9736 15.2789 27.6734 15.6864 26.8024 16.9885C24.8911 19.8463 33.1314 22.2678 38.6424 25.0935C37.4578 25.64 36.3414 26.6206 35.6849 27.8747C33.6304 25.4925 29.121 23.4411 23.8296 25.0935C20.2639 26.2071 17.3005 28.8323 16.1552 32.7973C15.8769 32.666 15.5687 32.593 15.2446 32.593C14.0049 32.593 13 33.6603 13 34.9768C13 36.2934 14.0049 37.3606 15.2446 37.3606C15.4743 37.3606 16.1928 37.197 16.1928 37.197L27.6734 37.2853C23.082 45.0209 19.4536 46.1517 19.4536 47.4918C19.4536 48.832 22.9254 48.4688 24.2289 47.9693C30.4693 45.5779 37.1718 38.1251 38.3219 35.9797C43.1518 36.6196 47.2108 36.6953 48.1147 34.5508Z" fill="#BAC3DA"/>
<path fill-rule="evenodd" clip-rule="evenodd" d="M38.6415 25.0939C38.8969 24.9871 38.8565 24.5868 38.7864 24.2722C38.6251 23.5489 35.8435 20.6318 33.2315 19.3252C29.6724 17.5449 27.0516 17.6365 26.6641 18.4569C27.3889 20.0352 30.7502 21.5169 34.2608 23.0644C35.7585 23.7246 37.2826 24.3972 38.6415 25.0939Z" fill="#98A6C8"/>
<path fill-rule="evenodd" clip-rule="evenodd" d="M34.1248 40.9772C33.405 40.685 32.5919 40.417 31.6675 40.1738C32.6531 38.3007 32.8599 35.5277 31.9291 33.7745C30.6226 31.314 28.9827 30.0044 25.1719 30.0044C23.0759 30.0044 17.4327 30.7542 17.3325 35.7573C17.322 36.2822 17.3323 36.7633 17.368 37.2057L27.673 37.285C26.2837 39.6257 24.9826 41.3617 23.8435 42.6817C25.2112 43.0539 26.3398 43.3663 27.376 43.6532C28.3591 43.9254 29.2591 44.1746 30.2009 44.4298C31.6218 43.3304 32.9575 42.1316 34.1248 40.9772Z" fill="#98A6C8"/>
<path d="M16.0176 36.6918C16.4385 40.4924 18.4723 41.9819 22.6282 42.4227C26.7841 42.8635 29.1679 42.5678 32.3416 42.8744C34.9923 43.1306 37.3591 44.5651 38.2371 44.0694C39.0273 43.6232 38.5852 42.0113 37.5278 40.9772C36.1573 39.6366 34.2604 38.7046 30.9227 38.3739C31.5879 36.4397 31.4015 33.7277 30.3684 32.2522C28.8747 30.1187 26.1176 29.1542 22.6282 29.5756C18.9825 30.0159 15.4892 31.9221 16.0176 36.6918Z" fill="url(#paint0_linear_2099_2632)"/>
</g>
</g>
<defs>
<linearGradient id="paint0_linear_2099_2632" x1="18" y1="32.9321" x2="39" y2="46.9321" gradientUnits="userSpaceOnUse">
<stop stop-color="#BAC3DA"/>
<stop offset="1" stop-color="#98A6C8"/>
</linearGradient>
<clipPath id="clip0_2099_2632">
<rect width="152" height="32" fill="white" transform="translate(13 16)"/>
</clipPath>
</defs>
</svg>
