<svg width="178" height="64" viewBox="0 0 178 64" fill="none" xmlns="http://www.w3.org/2000/svg">
<g clip-path="url(#clip0_2099_2712)">
<path d="M70.8226 41.8994C68.4849 41.8994 65.9078 41.1077 63.0914 39.5245V36.1001C65.7422 37.8859 68.3284 38.7788 70.8502 38.7788C72.0099 38.7788 72.9302 38.5671 73.6113 38.1437C74.3108 37.7018 74.6606 37.0943 74.6606 36.321C74.6606 35.6214 74.3384 35.0691 73.6942 34.6641C73.0499 34.2406 72.0559 33.8632 70.7121 33.5318C68.3007 32.9058 66.6625 32.372 65.7974 31.9301C63.8829 30.9544 62.9258 29.4907 62.9258 27.5392C62.9258 25.8638 63.6345 24.5383 65.0519 23.5625C66.4692 22.5868 68.2179 22.0989 70.298 22.0989C72.8382 22.0989 75.1299 22.8353 77.1732 24.3081V27.7325C74.8354 26.0387 72.5437 25.1919 70.298 25.1919C69.1199 25.1919 68.1443 25.4128 67.3712 25.8546C66.5981 26.2965 66.2115 26.9132 66.2115 27.7049C66.2115 28.1835 66.4324 28.5978 66.8742 28.9476C67.316 29.279 67.7946 29.5367 68.31 29.7208C68.8438 29.8865 69.6353 30.0983 70.6846 30.356C71.789 30.6321 72.7001 30.8991 73.418 31.1568C74.1544 31.4146 74.8998 31.7736 75.6545 32.2339C76.4093 32.6757 76.9707 33.2372 77.3389 33.9184C77.7254 34.5996 77.9187 35.4097 77.9187 36.3486C77.9187 38.0976 77.2468 39.46 75.903 40.4358C74.5778 41.4115 72.8843 41.8994 70.8226 41.8994Z" fill="#BAC3DA"/>
<path d="M84.5666 41.8993C83.9224 41.8993 83.2965 41.8256 82.6891 41.6784C82.1 41.5311 81.5294 41.3009 80.9771 40.988C80.425 40.6566 79.9739 40.1871 79.6242 39.5796C79.2745 38.9536 79.0996 38.2264 79.0996 37.3979C79.0812 35.9067 79.5966 34.7744 80.6458 34.0012C81.6951 33.2095 83.1952 32.8136 85.1464 32.8136H89.5919V31.93C89.5919 31.1199 89.2605 30.5124 88.5978 30.1073C87.9352 29.6839 87.0792 29.4721 86.03 29.4721C84.0236 29.4721 82.8547 30.135 82.5234 31.4605L79.4862 31.5158C79.523 30.0613 80.1581 28.9107 81.3914 28.0638C82.6431 27.2169 84.1709 26.7935 85.9748 26.7935C87.7972 26.7935 89.3525 27.2353 90.6411 28.119C91.948 29.0027 92.6015 30.1442 92.6015 31.5434V41.6784H89.5919V39.4691C89.1685 40.0582 88.5242 40.6106 87.6591 41.126C86.8124 41.6416 85.7815 41.8993 84.5666 41.8993ZM84.8151 39.2758C86.03 39.2758 87.1253 38.8616 88.1008 38.0331C89.0949 37.2046 89.5919 36.2288 89.5919 35.1058H85.6987C84.5022 35.1058 83.6095 35.3359 83.0204 35.7962C82.4498 36.2381 82.2013 36.7996 82.2749 37.4808C82.3301 38.1067 82.6063 38.5669 83.1032 38.8616C83.6002 39.1377 84.1709 39.2758 84.8151 39.2758Z" fill="#BAC3DA"/>
<path d="M95.0304 41.6784L94.9751 29.7759V27.0421V26.5449C94.9751 24.7959 95.693 23.4796 97.1288 22.5959C98.5646 21.7122 100.461 21.5649 102.817 22.154L102.789 24.5842C101.261 24.1792 100.102 24.1792 99.3101 24.5842C98.537 24.9708 98.1504 25.6336 98.1504 26.5725V27.0421H102.679V29.7759H98.1504L98.178 41.6784H95.0304Z" fill="#BAC3DA"/>
<path d="M111.027 41.8993C108.929 41.8993 107.152 41.1629 105.698 39.69C104.244 38.1988 103.517 36.413 103.517 34.3326C103.517 32.2338 104.253 30.4571 105.725 29.0027C107.198 27.5299 108.965 26.7935 111.027 26.7935C112.849 26.7935 114.45 27.3917 115.831 28.5885C117.23 29.7668 118.086 31.2488 118.399 33.0346C118.583 33.8999 118.592 34.7284 118.427 35.5201H106.664C106.848 36.6063 107.346 37.4715 108.156 38.1159C108.965 38.7418 109.922 39.0549 111.027 39.0549C112.72 39.0549 114.073 38.4565 115.086 37.2598H117.934C117.934 37.2598 117.605 39.1947 115.086 40.8499C113.797 41.5495 112.444 41.8993 111.027 41.8993ZM106.664 33.0622H115.307C115.123 32.0865 114.634 31.2672 113.843 30.6045C113.07 29.9417 112.122 29.6103 110.999 29.6103C109.877 29.6103 108.919 29.9508 108.128 30.632C107.336 31.2948 106.848 32.1049 106.664 33.0622Z" fill="#BAC3DA"/>
<path d="M141.484 41.8993C140.84 41.8993 140.214 41.8256 139.606 41.6784C139.018 41.5311 138.447 41.3009 137.894 40.988C137.343 40.6566 136.891 40.1871 136.542 39.5796C136.192 38.9536 136.018 38.2264 136.018 37.3979C135.999 35.9067 136.514 34.7744 137.564 34.0012C138.613 33.2095 140.113 32.8136 142.064 32.8136H146.51V31.93C146.51 31.1199 146.178 30.5124 145.516 30.1073C144.853 29.6839 143.997 29.4721 142.948 29.4721C140.941 29.4721 139.772 30.135 139.441 31.4605L136.404 31.5158C136.441 30.0613 137.076 28.9107 138.309 28.0638C139.561 27.2169 141.089 26.7935 142.892 26.7935C144.715 26.7935 146.27 27.2353 147.559 28.119C148.865 29.0027 149.52 30.1442 149.52 31.5434V41.6784H146.51V39.4691C146.086 40.0582 145.442 40.6106 144.577 41.126C143.73 41.6416 142.699 41.8993 141.484 41.8993ZM141.733 39.2758C142.948 39.2758 144.043 38.8616 145.018 38.0331C146.012 37.2046 146.51 36.2288 146.51 35.1058H142.617C141.42 35.1058 140.527 35.3359 139.938 35.7962C139.367 36.2381 139.119 36.7996 139.192 37.4808C139.247 38.1067 139.524 38.5669 140.021 38.8616C140.518 39.1377 141.089 39.2758 141.733 39.2758Z" fill="#BAC3DA"/>
<path d="M151.825 41.6785V22.5959H155V41.6785H151.825Z" fill="#BAC3DA"/>
<path fill-rule="evenodd" clip-rule="evenodd" d="M120.271 22.5959H128.666C130.525 22.5959 132.071 23.2311 133.304 24.5014C134.537 25.7533 135.154 27.2722 135.154 29.058C135.154 30.8623 134.537 32.3811 133.304 33.6147C132.09 34.8297 130.544 35.4465 128.666 35.4649L123.557 35.4925V41.6785H120.271V22.5959ZM128.445 32.51L123.557 32.5376V25.5784L128.445 25.5509C129.53 25.5509 130.387 25.873 131.013 26.5174C131.656 27.1618 131.979 27.9718 131.979 28.9475C131.979 29.9418 131.656 30.7886 131.013 31.4882C130.369 32.1694 129.512 32.51 128.445 32.51Z" fill="#BAC3DA"/>
<path d="M35.8596 17.1833C34.9669 17.1833 34.1107 17.538 33.4794 18.1693L23.5634 28.0855C23.1878 28.4611 23 28.9534 23 29.4456C23 29.9379 23.1878 30.4302 23.5634 30.8058L30.0617 37.3041V25.7997C30.0617 24.9411 30.7522 24.2451 31.6108 24.2451C35.238 24.2451 44.0671 24.2451 45.2714 24.2451L52.333 17.1834L35.8596 17.1833Z" fill="#BAC3DA"/>
<path d="M30.0622 39.4548H43.7173C44.5759 39.4548 45.2719 38.7587 45.2719 37.9001V26.3958L51.7702 32.8941C52.1458 33.2697 52.3336 33.7619 52.3336 34.2542C52.3336 34.7465 52.1458 35.2388 51.7702 35.6143L41.8542 45.5306C41.2229 46.1618 40.3667 46.5165 39.474 46.5165L23.0005 46.5164L30.0622 39.4548Z" fill="#BAC3DA"/>
</g>
<defs>
<clipPath id="clip0_2099_2712">
<rect width="132" height="29.7" fill="white" transform="translate(23 17)"/>
</clipPath>
</defs>
</svg>
