<svg width="178" height="64" viewBox="0 0 178 64" fill="none" xmlns="http://www.w3.org/2000/svg">
<mask id="mask0_2099_2619" style="mask-type:luminance" maskUnits="userSpaceOnUse" x="27" y="15" width="124" height="34">
<path d="M151 15.0833H27V48.6661H151V15.0833Z" fill="white"/>
</mask>
<g mask="url(#mask0_2099_2619)">
<path d="M83.3416 23.0239H89.2613V26.3398C91.2007 23.3599 93.4322 23.0239 96.7005 23.0239V28.8835H95.2124C91.2972 28.8835 89.423 30.7264 89.423 34.3757V40.6039H83.3416V23.0239Z" fill="#BAC3DA"/>
<path d="M116.451 40.6039H110.372V38.9278C109.044 40.4685 107.235 41.1379 105.004 41.1379C100.768 41.1379 98.3718 38.6256 98.3718 34.0059V23.0239H104.452V32.6357C104.452 34.8108 105.519 36.0832 107.329 36.0832C109.139 36.0832 110.371 34.8434 110.371 32.736V23.0239H116.451V40.6039Z" fill="#BAC3DA"/>
<path d="M117.936 35.1756H123.63C123.89 36.448 124.763 36.9833 126.863 36.9833C128.578 36.9833 129.581 36.5822 129.581 35.8463C129.581 35.2759 129.096 34.9073 127.707 34.6064L123.114 33.5671C120.041 32.8651 118.488 31.0899 118.488 28.2429C118.488 24.4907 121.236 22.55 126.574 22.55C131.91 22.55 134.529 24.4418 134.984 28.4949H129.325C129.229 27.4243 128.128 26.7698 126.318 26.7698C124.864 26.7698 123.927 27.2375 123.927 27.942C123.927 28.5438 124.54 29.0126 125.771 29.316L130.589 30.4882C133.758 31.2567 135.28 32.8651 135.28 35.4765C135.28 39.0945 132.142 41.237 126.808 41.237C121.474 41.237 117.946 38.9265 117.946 35.1743H117.94H117.936V35.1756Z" fill="#BAC3DA"/>
<path d="M151.47 28.4924V23.0239H136.463V28.4949H140.941V40.6039H146.99V28.4924H151.47Z" fill="#BAC3DA"/>
<path d="M81.6493 28.4924V23.0239H66.6431V28.4949H71.1211V40.6039H77.1712V28.4924H81.6493Z" fill="#BAC3DA"/>
<path d="M27.2783 19.9337L42.2043 15.082V48.6649C31.5432 44.1868 27.2783 35.6043 27.2783 30.7539V19.9337Z" fill="#BAC3DA"/>
<path d="M57.1315 19.9339L42.2056 15.0823V48.6651C52.8666 44.1871 57.1315 35.6046 57.1315 30.7542V19.9339Z" fill="url(#paint0_linear_2099_2619)"/>
<path d="M57.1315 19.9339L42.2056 15.0823V48.6651C52.8666 44.1871 57.1315 35.6046 57.1315 30.7542V19.9339Z" fill="#98A6C8"/>
</g>
<defs>
<linearGradient id="paint0_linear_2099_2619" x1="41.5753" y1="52.8875" x2="53.7926" y2="8.69976" gradientUnits="userSpaceOnUse">
<stop offset="0.26" stop-color="#48FF91"/>
<stop offset="0.66" stop-color="#0094FF"/>
<stop offset="0.8" stop-color="#0038FF"/>
<stop offset="0.89" stop-color="#0500FF"/>
</linearGradient>
</defs>
</svg>
