<svg xmlns="http://www.w3.org/2000/svg" width="24" height="24" fill="none" xmlns:v="https://vecta.io/nano"><g clip-path="url(#A)"><circle cx="12" cy="12" r="12" fill="#e6007a"/><g fill="#fff"><path d="M12.357 3.6c-1.684.006-3.297.68-4.488 1.873A6.4 6.4 0 0 0 6 9.973c0 .704.113 1.403.335 2.071a.91.91 0 0 0 .447.502c.208.104.447.125.669.057.216-.082.392-.244.493-.452a.91.91 0 0 0 .05-.668 4.17 4.17 0 0 1-.247-1.623 4.61 4.61 0 0 1 .818-2.488 4.59 4.59 0 0 1 2.041-1.636 4.58 4.58 0 0 1 4.918.959 4.6 4.6 0 0 1 1.28 2.284c.197.87.137 1.778-.172 2.614s-.854 1.564-1.568 2.095a4.58 4.58 0 0 1-2.455.897l-1.336.112a4.58 4.58 0 0 0-.487.096c-.011.009-.026.013-.04.012a.06.06 0 0 1-.038-.017c-.01-.01-.016-.024-.017-.038s.003-.029.012-.04l.14-.756.837-3.802c.048-.226.005-.463-.121-.657a.87.87 0 0 0-1.582.293l-1.994 9.367a.85.85 0 0 0 .11.662.84.84 0 0 0 .239.244.86.86 0 0 0 .316.13.85.85 0 0 0 .904-.355c.064-.096.108-.204.129-.317l.279-1.343c.093-.453.321-.867.656-1.186s.758-.527 1.215-.597c.191-.028 1.001-.084 1.001-.084a6.35 6.35 0 0 0 4.189-2.139 6.38 6.38 0 0 0 1.575-4.44c-.061-1.627-.741-3.17-1.902-4.31s-2.713-1.791-4.337-1.819zm1.589 14.675c-.138-.028-.279-.028-.417-.001s-.269.081-.386.159a1.06 1.06 0 0 0-.295.295c-.078.117-.132.248-.159.386a1.06 1.06 0 0 0 .153.807 1.07 1.07 0 0 0 .296.296 1.05 1.05 0 0 0 .388.157c.137.031.28.034.419.009s.271-.079.388-.158a1.04 1.04 0 0 0 .446-.69c.047-.277-.013-.561-.168-.795a1.1 1.1 0 0 0-.666-.464z"/></g></g><defs><clipPath id="A"><path fill="#fff" d="M0 0h24v24H0z"/></clipPath></defs></svg>