<svg width="46" height="48" viewBox="0 0 46 48" fill="none" xmlns="http://www.w3.org/2000/svg">
<g clip-path="url(#clip0_3209_16790)">
<g clip-path="url(#clip1_3209_16790)">
<g clip-path="url(#clip2_3209_16790)">
<path d="M39.3974 24.8378C38.4408 28.6758 36.3676 32.1438 33.4398 34.8034C30.5121 37.463 26.8614 39.1946 22.9495 39.7792C19.0376 40.3639 15.0402 39.7753 11.4628 38.088C7.88537 36.4007 4.8887 33.6903 2.85175 30.2998C0.814803 26.9093 -0.170929 22.9908 0.0192219 19.04C0.209373 15.0893 1.56687 11.2836 3.92002 8.10435C6.27317 4.92512 9.51628 2.51511 13.2392 1.17914C16.9621 -0.156837 20.9976 -0.358771 24.8353 0.598874C29.9802 1.88274 34.4046 5.15751 37.1354 9.70301C39.8663 14.2485 40.6799 19.6925 39.3974 24.8378Z" fill="#F7931A"/>
<path d="M28.5237 17.2138C28.9097 14.6431 26.9439 13.2613 24.2543 12.3394L25.1262 8.85687L22.9964 8.32892L22.1466 11.7195C21.5866 11.5805 21.0117 11.4496 20.4397 11.3196L21.2956 7.90698L19.1669 7.37903L18.294 10.8606C17.8301 10.7556 17.3751 10.6516 16.9342 10.5426V10.5316L13.9966 9.80176L13.4296 12.0655C13.4296 12.0655 15.0104 12.4254 14.9764 12.4484C15.2705 12.4826 15.5395 12.6311 15.7252 12.8617C15.9109 13.0923 15.9985 13.3866 15.9693 13.6813L14.9755 17.6487C15.051 17.6673 15.1251 17.6911 15.1974 17.7198L14.9725 17.6648L13.5796 23.2221C13.5164 23.4177 13.3781 23.5802 13.1951 23.6739C13.0121 23.7677 12.7994 23.785 12.6037 23.722C12.6247 23.753 11.056 23.338 11.056 23.338L9.99805 25.7647L12.7697 26.4527C13.2857 26.5817 13.7906 26.7156 14.2885 26.8426L13.4077 30.3652L15.5354 30.8931L16.4083 27.4086C16.9892 27.5655 17.5541 27.7085 18.1081 27.8465L17.2382 31.3151L19.3679 31.843L20.2488 28.3275C23.8813 29.0114 26.612 28.7354 27.7618 25.4658C28.6887 22.8331 27.7159 21.3153 25.8051 20.3254C26.5384 20.1796 27.2029 19.7952 27.6949 19.2322C28.1868 18.6691 28.4786 17.9591 28.5247 17.2128L28.5237 17.2138ZM23.6574 24.005C22.9994 26.6377 18.545 25.2138 17.1012 24.8579L18.271 20.1915C19.7148 20.5504 24.3453 21.2603 23.6574 24.005ZM24.3163 17.1758C23.7163 19.5705 20.0088 18.3537 18.8069 18.0557L19.8678 13.8232C21.0677 14.1232 24.9422 14.6782 24.3173 17.1758H24.3163Z" fill="white"/>
</g>
</g>
</g>
<g clip-path="url(#clip3_3209_16790)">
<rect x="16" y="28" width="20" height="20" rx="10" fill="#373C58"/>
<g clip-path="url(#clip4_3209_16790)">
<g clip-path="url(#clip5_3209_16790)">
<path d="M35.6988 40.4188C35.2206 42.3376 34.184 44.0714 32.7203 45.4011C31.2566 46.7308 29.4315 47.5966 27.4757 47.889C25.52 48.1814 23.5214 47.8872 21.7328 47.0438C19.9442 46.2003 18.4459 44.8454 17.4273 43.1504C16.4088 41.4554 15.9157 39.4965 16.0105 37.5212C16.1053 35.546 16.7837 33.6433 17.9599 32.0536C19.1361 30.4639 20.7573 29.2587 22.6184 28.5905C24.4796 27.9222 26.4971 27.8208 28.4159 28.2991C30.9887 28.9407 33.2012 30.578 34.5669 32.8509C35.9325 35.1237 36.3394 37.8459 35.698 40.4188H35.6988Z" fill="#F7931A"/>
<path d="M30.2597 36.6061C30.453 35.3205 29.4698 34.6298 28.125 34.169L28.5616 32.4277L27.4968 32.1635L27.0719 33.8591C26.792 33.7899 26.5045 33.7241 26.2187 33.6591L26.6462 31.9527L25.5821 31.6886L25.1455 33.4291C24.9139 33.3766 24.6865 33.325 24.4657 33.27V33.2642L22.9968 32.8992L22.7134 34.0316C22.7134 34.0316 23.5033 34.2115 23.4866 34.2232C23.6344 34.2393 23.7698 34.3132 23.8634 34.4286C23.957 34.5441 24.0013 34.6918 23.9866 34.8397L23.4866 36.8236C23.5243 36.8328 23.5614 36.8444 23.5975 36.8586L23.485 36.8311L22.7885 39.6098C22.7729 39.6583 22.7478 39.7032 22.7148 39.7421C22.6818 39.7809 22.6415 39.8128 22.5962 39.836C22.5508 39.8593 22.5013 39.8733 22.4505 39.8774C22.3997 39.8815 22.3487 39.8754 22.3002 39.8597C22.311 39.8756 21.5262 39.6673 21.5262 39.6673L20.9971 40.8804L22.3835 41.2245C22.641 41.2887 22.8943 41.3562 23.1426 41.4195L22.7018 43.1809L23.7658 43.445L24.2024 41.7027C24.4931 41.7811 24.7748 41.8536 25.0514 41.9219L24.6165 43.6558L25.6813 43.9199L26.1221 42.1619C27.9384 42.5043 29.304 42.366 29.879 40.7313C29.9964 40.5004 30.0642 40.2475 30.078 39.9888C30.0919 39.7301 30.0514 39.4715 29.9593 39.2294C29.8672 38.9873 29.7254 38.7671 29.5431 38.5831C29.3608 38.3991 29.142 38.2552 28.9008 38.1609C29.2675 38.088 29.5997 37.8958 29.8457 37.6142C30.0917 37.3327 30.2375 36.9776 30.2605 36.6045L30.2597 36.6061ZM27.8259 40.0014C27.4926 41.3178 25.2697 40.6063 24.5482 40.428L25.1314 38.0951C25.8538 38.2742 28.1684 38.6291 27.8243 40.0022L27.8259 40.0014ZM28.1592 36.5853C27.8593 37.7826 26.0054 37.1744 25.4047 37.0252L25.9346 34.9089C26.5362 35.058 28.4717 35.3363 28.1592 36.5853Z" fill="white"/>
</g>
</g>
</g>
<rect x="16.5" y="28.5" width="19" height="19" rx="9.5" stroke="#252A47"/>
<g clip-path="url(#clip6_3209_16790)">
<rect x="26" y="28" width="20" height="20" rx="10" fill="#373C58"/>
<g clip-path="url(#clip7_3209_16790)">
<g clip-path="url(#clip8_3209_16790)">
<path d="M36 48C37.9778 48 39.9112 47.4135 41.5557 46.3147C43.2002 45.2159 44.4819 43.6541 45.2388 41.8268C45.9957 39.9996 46.1937 37.9889 45.8079 36.0491C45.422 34.1093 44.4696 32.3275 43.0711 30.9289C41.6726 29.5304 39.8907 28.578 37.9509 28.1922C36.0111 27.8063 34.0005 28.0043 32.1732 28.7612C30.3459 29.5181 28.7841 30.7998 27.6853 32.4443C26.5865 34.0888 26 36.0222 26 38C25.9968 39.3141 26.2533 40.6159 26.7547 41.8306C27.2562 43.0453 27.9926 44.149 28.9219 45.0782C29.8511 46.0074 30.9547 46.7439 32.1694 47.2453C33.3841 47.7467 34.6859 48.0032 36 48Z" fill="#2775CA"/>
<path d="M38.8174 39.6158C38.8174 38.1225 37.9216 37.6108 36.1299 37.3975C34.8499 37.2308 34.5941 36.8858 34.5941 36.2883C34.5941 35.6908 35.0207 35.3075 35.8741 35.3075C36.1775 35.2601 36.4878 35.3249 36.7469 35.4898C37.0059 35.6547 37.1961 35.9084 37.2816 36.2033C37.3035 36.2651 37.3439 36.3187 37.3972 36.3568C37.4506 36.395 37.5143 36.4158 37.5799 36.4167H38.2624C38.3018 36.4176 38.341 36.4105 38.3776 36.3958C38.4142 36.3811 38.4475 36.3592 38.4754 36.3313C38.5033 36.3034 38.5252 36.2702 38.5399 36.2335C38.5545 36.1969 38.5616 36.1578 38.5607 36.1183V36.0758C38.4784 35.6138 38.246 35.1919 37.8994 34.8755C37.5529 34.5591 37.1116 34.3659 36.6441 34.3258V33.3025C36.6441 33.1358 36.5158 33.0041 36.3024 32.9608H35.6624C35.4958 32.9608 35.3641 33.0892 35.3207 33.3025V34.2833C34.7731 34.3043 34.2537 34.5313 33.8662 34.9188C33.4787 35.3063 33.2517 35.8257 33.2307 36.3733C33.2307 37.7808 34.0841 38.3358 35.8757 38.5492C37.0699 38.7625 37.4541 39.0184 37.4541 39.7009C37.4541 40.3834 36.8566 40.8525 36.0466 40.8525C34.9374 40.8525 34.5532 40.3833 34.4257 39.7433C34.413 39.6729 34.3763 39.609 34.322 39.5625C34.2677 39.5159 34.1989 39.4894 34.1274 39.4875H33.4024C33.363 39.4866 33.3238 39.4937 33.2872 39.5083C33.2506 39.523 33.2173 39.5449 33.1894 39.5728C33.1615 39.6007 33.1396 39.634 33.1249 39.6706C33.1103 39.7072 33.1032 39.7464 33.1041 39.7858V39.8283C33.182 40.3801 33.4508 40.8872 33.8639 41.2613C34.2769 41.6354 34.8081 41.8528 35.3649 41.8758V42.9C35.3649 43.0667 35.4932 43.1983 35.7066 43.2408H36.3466C36.5132 43.2408 36.6449 43.1125 36.6882 42.9V41.8758C37.2595 41.8269 37.7927 41.5694 38.1862 41.1524C38.5797 40.7354 38.8058 40.1881 38.8215 39.615L38.8174 39.6158Z" fill="white"/>
<path d="M33.8918 43.9075C32.7027 43.4731 31.6759 42.6837 30.9505 41.6462C30.225 40.6088 29.8359 39.3734 29.8359 38.1075C29.8359 36.8416 30.225 35.6062 30.9505 34.5688C31.6759 33.5313 32.7027 32.7419 33.8918 32.3075C33.9718 32.2729 34.039 32.2141 34.0838 32.1394C34.1287 32.0646 34.1489 31.9777 34.1418 31.8908V31.3125C34.148 31.236 34.1261 31.1598 34.08 31.0984C34.0339 31.037 33.967 30.9946 33.8918 30.9792C33.8332 30.9727 33.7741 30.9871 33.7251 31.02C32.2206 31.496 30.9068 32.4388 29.9743 33.7119C29.0418 34.9849 28.5391 36.522 28.5391 38.1C28.5391 39.678 29.0418 41.215 29.9743 42.4881C30.9068 43.7611 32.2206 44.704 33.7251 45.18C33.7595 45.2002 33.7982 45.2118 33.838 45.214C33.8778 45.2162 33.9176 45.2088 33.9539 45.1925C33.9903 45.1762 34.0222 45.1514 34.0471 45.1202C34.0719 45.0891 34.089 45.0524 34.0968 45.0133C34.1385 44.9725 34.1385 44.93 34.1385 44.8467V44.2683C34.1242 44.1945 34.0949 44.1244 34.0525 44.0624C34.0101 44.0003 33.9554 43.9476 33.8918 43.9075ZM38.2735 31.0275C38.2391 31.0073 38.2004 30.9957 38.1606 30.9935C38.1208 30.9913 38.081 30.9987 38.0447 31.015C38.0083 31.0313 37.9763 31.0561 37.9515 31.0873C37.9266 31.1184 37.9096 31.1551 37.9018 31.1942C37.8601 31.2358 37.8601 31.2775 37.8601 31.3608V31.9383C37.8669 32.0224 37.893 32.1037 37.9364 32.1759C37.9797 32.2482 38.0392 32.3095 38.1101 32.355C39.2992 32.7894 40.326 33.5788 41.0514 34.6163C41.7769 35.6537 42.166 36.8891 42.166 38.155C42.166 39.4209 41.7769 40.6563 41.0514 41.6937C40.326 42.7312 39.2992 43.5206 38.1101 43.955C38.0301 43.9896 37.963 44.0484 37.9181 44.1231C37.8733 44.1979 37.853 44.2848 37.8601 44.3717V44.9492C37.8539 45.0257 37.8759 45.1018 37.9219 45.1632C37.968 45.2246 38.0349 45.2671 38.1101 45.2825C38.1687 45.289 38.2278 45.2745 38.2768 45.2417C39.2081 44.948 40.0723 44.4732 40.8197 43.8447C41.5672 43.2161 42.1831 42.4462 42.6322 41.579C43.0812 40.7118 43.3546 39.7644 43.4367 38.7913C43.5187 37.8182 43.4077 36.8384 43.1101 35.9083C42.7517 34.7679 42.1257 33.7299 41.2843 32.8808C40.4429 32.0317 39.4105 31.3962 38.2735 31.0275Z" fill="white"/>
</g>
</g>
</g>
<rect x="26.5" y="28.5" width="19" height="19" rx="9.5" stroke="#252A47"/>
<defs>
<clipPath id="clip0_3209_16790">
<rect width="40" height="40" fill="white"/>
</clipPath>
<clipPath id="clip1_3209_16790">
<rect width="40" height="40" fill="white"/>
</clipPath>
<clipPath id="clip2_3209_16790">
<rect width="39.995" height="40" fill="white" transform="translate(0.00244141)"/>
</clipPath>
<clipPath id="clip3_3209_16790">
<rect x="16" y="28" width="20" height="20" rx="10" fill="white"/>
</clipPath>
<clipPath id="clip4_3209_16790">
<rect width="20" height="20" fill="white" transform="translate(16 28)"/>
</clipPath>
<clipPath id="clip5_3209_16790">
<rect width="19.9967" height="20" fill="white" transform="translate(16.0015 28)"/>
</clipPath>
<clipPath id="clip6_3209_16790">
<rect x="26" y="28" width="20" height="20" rx="10" fill="white"/>
</clipPath>
<clipPath id="clip7_3209_16790">
<rect width="20" height="20" fill="white" transform="translate(26 28)"/>
</clipPath>
<clipPath id="clip8_3209_16790">
<rect width="20" height="20" fill="white" transform="translate(26 28)"/>
</clipPath>
</defs>
</svg>
