<svg width="40" height="40" viewBox="0 0 40 40" fill="none" xmlns="http://www.w3.org/2000/svg">
<g clip-path="url(#clip0_2331_11580)">
<g clip-path="url(#clip1_2331_11580)">
<path d="M20 40C31.0457 40 40 31.0457 40 20C40 8.9543 31.0457 0 20 0C8.9543 0 0 8.9543 0 20C0 31.0457 8.9543 40 20 40Z" fill="black"/>
<path d="M10.5542 19.3184C10.5542 19.3184 12.8146 15.8912 17.3278 15.5367V14.2933C12.3289 14.7059 8 19.0567 8 19.0567C8 19.0567 10.4518 26.3404 17.3278 27.0073V25.6857C12.2819 25.0333 10.5542 19.3184 10.5542 19.3184ZM17.3278 23.0573V24.2676C13.5142 23.5689 12.4556 19.4951 12.4556 19.4951C12.4556 19.4951 14.2867 17.4106 17.3278 17.0726V18.4007C17.3255 18.4007 17.3239 18.4 17.322 18.4C15.7258 18.2031 14.4789 19.7354 14.4789 19.7354C14.4789 19.7354 15.1778 22.3149 17.3278 23.0573ZM17.3278 12V14.2933C17.4745 14.2818 17.6213 14.2719 17.7688 14.2668C23.4521 14.0699 27.1551 19.0567 27.1551 19.0567C27.1551 19.0567 22.902 24.3713 18.4711 24.3713C18.065 24.3713 17.6849 24.3326 17.3278 24.2675V25.6857C17.6331 25.7255 17.9497 25.7489 18.2801 25.7489C22.4033 25.7489 25.3852 23.5849 28.2725 21.0238C28.7512 21.4178 30.711 22.3763 31.1139 22.7958C28.3686 25.1578 21.9705 27.0618 18.3433 27.0618C17.9936 27.0618 17.6578 27.04 17.3278 27.0073V29H33V12H17.3278ZM17.3278 17.0726V15.5367C17.473 15.5263 17.6194 15.5183 17.7688 15.5135C21.8556 15.3815 24.5368 19.1225 24.5368 19.1225C24.5368 19.1225 21.6409 23.2557 18.5358 23.2557C18.0889 23.2557 17.6884 23.1819 17.3278 23.0573V18.4007C18.9188 18.5982 19.2389 19.3205 20.1954 20.9591L22.3228 19.1157C22.3228 19.1157 20.7698 17.0227 18.152 17.0227C17.8675 17.0226 17.5952 17.0432 17.3278 17.0726Z" fill="#77B900"/>
</g>
</g>
<defs>
<clipPath id="clip0_2331_11580">
<rect width="40" height="40" fill="white"/>
</clipPath>
<clipPath id="clip1_2331_11580">
<rect width="40" height="40" fill="white"/>
</clipPath>
</defs>
</svg>
