<svg width="37" height="37" viewBox="0 0 37 37" fill="none" xmlns="http://www.w3.org/2000/svg">
<g clip-path="url(#clip0_5701_4962)">
<path d="M18.5 37C28.7173 37 37 28.7173 37 18.5C37 8.28273 28.7173 0 18.5 0C8.28273 0 0 8.28273 0 18.5C0 28.7173 8.28273 37 18.5 37Z" fill="#2245C5"/>
<path d="M20.1542 19.4064C20.5631 14.5547 24.7956 12.4871 27.4303 13.6228C30.0649 14.7585 30.9438 18.4373 29.6278 21.9346C27.5156 27.5481 20.1931 31.2185 14.3487 28.6993C19.7205 27.6941 19.7955 23.6642 20.1542 19.4064Z" fill="white"/>
<path d="M16.5476 17.6251C16.6392 22.4938 12.6424 25.0055 9.90574 24.1595C7.16905 23.3136 5.91729 19.7498 6.86687 16.1303C8.3911 10.3205 15.2961 5.88257 21.3669 7.75894C16.128 9.33657 16.4672 13.3522 16.5476 17.6251Z" fill="white"/>
<path d="M18.5 23.125C21.0543 23.125 23.125 21.0543 23.125 18.5C23.125 15.9457 21.0543 13.875 18.5 13.875C15.9457 13.875 13.875 15.9457 13.875 18.5C13.875 21.0543 15.9457 23.125 18.5 23.125Z" fill="#2245C5"/>
<path d="M19.6347 15.5381C20.3137 15.7696 20.8016 16.0776 21.1956 16.6943C21.23 16.8012 21.2643 16.908 21.2997 17.0181C20.8025 17.2378 20.8025 17.2378 20.1897 17.3881C19.8765 17.2114 19.5684 17.0257 19.2647 16.8331C18.5162 16.7395 18.1088 16.7605 17.4378 17.1106C16.9081 17.7338 16.8293 18.2469 16.8597 19.0531C17.0489 19.7782 17.1484 19.9239 17.7847 20.3481C18.5448 20.4559 19.2319 20.5054 19.866 20.0475C20.0262 19.9215 20.0262 19.9215 20.1897 19.7931C20.6985 19.9434 20.6985 19.9434 21.1147 20.1631C21.1147 20.3462 21.1147 20.5294 21.1147 20.7181C20.4007 21.4111 19.6886 21.8182 18.6779 21.8346C17.7064 21.7678 17.0519 21.5634 16.3047 20.9031C15.531 19.885 15.3952 19.0218 15.5647 17.7581C16.2204 15.8274 17.7574 15.3493 19.6347 15.5381Z" fill="#FBFCFE"/>
</g>
<circle cx="18.5" cy="18.5" r="17.5" stroke="#1BE3C2" stroke-width="2"/>
<defs>
<clipPath id="clip0_5701_4962">
<rect width="37" height="37" fill="white"/>
</clipPath>
</defs>
</svg>
