<svg width="100" height="100" viewBox="0 0 100 100" fill="none" xmlns="http://www.w3.org/2000/svg">
<mask id="mask0_29_403" style="mask-type:luminance" maskUnits="userSpaceOnUse" x="0" y="0" width="100" height="100">
<path d="M100 0H0V100H100V0Z" fill="white"/>
</mask>
<g mask="url(#mask0_29_403)">
<path d="M50 100C77.6143 100 100 77.6143 100 50C100 22.3858 77.6143 0 50 0C22.3858 0 0 22.3858 0 50C0 77.6143 22.3858 100 50 100Z" fill="#362E13"/>
<path d="M54.4708 52.4496C55.5759 39.3369 67.0151 33.7488 74.1359 36.8182C81.2565 39.8877 83.6319 49.8304 80.0751 59.2825C74.3665 74.4542 54.5759 84.3742 38.7802 77.5655C53.2986 74.8488 53.5013 63.9571 54.4708 52.4496Z" fill="white"/>
<path d="M44.7232 47.6356C44.9708 60.7942 34.1687 67.5826 26.7723 65.2961C19.3758 63.0099 15.9927 53.378 18.5591 43.5956C22.6787 27.8934 41.3408 15.899 57.7484 20.9703C43.5892 25.2341 44.506 36.0872 44.7232 47.6356Z" fill="white"/>
<path d="M50 62.5C56.9035 62.5 62.5 56.9035 62.5 50C62.5 43.0965 56.9035 37.5 50 37.5C43.0965 37.5 37.5 43.0965 37.5 50C37.5 56.9035 43.0965 62.5 50 62.5Z" fill="#362E13"/>
<path d="M45.811 42.7355H42.9834V43.1386L48.5133 49.7663L42.6613 56.8291V57.4215H45.3418L51.7577 49.7663L45.811 42.7355ZM57.4434 43.2354V42.5029H54.6183L50.7467 46.9674L52.6649 48.9904L57.4434 43.2354ZM52.4594 50.617H52.1462L50.7811 52.0339V52.4194L55.0268 57.4971H57.6613V56.7207L52.4594 50.617Z" fill="white"/>
</g>
<path d="M50 97.2972C76.1216 97.2972 97.2973 76.1215 97.2973 49.9999C97.2973 23.8784 76.1216 2.70264 50 2.70264C23.8784 2.70264 2.7027 23.8784 2.7027 49.9999C2.7027 76.1215 23.8784 97.2972 50 97.2972Z" stroke="#FFC400" stroke-width="5.40541"/>
</svg>
