<svg width="40" height="40" viewBox="0 0 40 40" fill="none" xmlns="http://www.w3.org/2000/svg">
<g clip-path="url(#clip0_2439_5586)">
<g clip-path="url(#clip1_2439_5586)">
<path d="M20 40C31.0457 40 40 31.0457 40 20C40 8.9543 31.0457 0 20 0C8.9543 0 0 8.9543 0 20C0 31.0457 8.9543 40 20 40Z" fill="black"/>
<mask id="mask0_2439_5586" style="mask-type:alpha" maskUnits="userSpaceOnUse" x="0" y="0" width="40" height="40">
<path d="M20 40C31.0457 40 40 31.0457 40 20C40 8.9543 31.0457 0 20 0C8.9543 0 0 8.9543 0 20C0 31.0457 8.9543 40 20 40Z" fill="black"/>
</mask>
<g mask="url(#mask0_2439_5586)">
<path d="M52.9134 8.76957C52.8983 8.76957 52.8914 8.7627 52.8859 8.7627C52.8708 8.7627 52.857 8.76957 52.8419 8.77782C25.1054 11.5704 12.0717 23.6292 9 26.5964L9.40837 27.2399H14.2552C26.8516 14.5721 43.8741 10.3673 52.8776 8.98545L52.8845 8.99232C52.89 8.99232 52.8969 8.9772 52.9051 8.9772C52.956 8.97032 52.9986 8.9277 52.9986 8.87132C52.9986 8.82045 52.9615 8.7847 52.912 8.77095L52.9134 8.76957ZM9.69437 15.2651L9.4015 15.8164L15.3525 20.1559C16.5556 19.4533 17.7876 18.8029 19.0416 18.1869L15.0528 15.2651H9.69437ZM22.9219 21.0208C21.9333 21.7523 20.9309 22.5264 19.8488 23.4353L25.0779 27.2372H30.4995L30.7291 26.7436L22.9219 21.0208Z" fill="white"/>
</g>
</g>
</g>
<defs>
<clipPath id="clip0_2439_5586">
<rect width="40" height="40" fill="white"/>
</clipPath>
<clipPath id="clip1_2439_5586">
<rect width="40" height="40" fill="white"/>
</clipPath>
</defs>
</svg>
