<svg width="40" height="40" viewBox="0 0 40 40" fill="none" xmlns="http://www.w3.org/2000/svg">
<g clip-path="url(#clip0_2331_11565)">
<g clip-path="url(#clip1_2331_11565)">
<path d="M20 40C31.0457 40 40 31.0457 40 20C40 8.9543 31.0457 0 20 0C8.9543 0 0 8.9543 0 20C0 31.0457 8.9543 40 20 40Z" fill="#E82127"/>
</g>
<path d="M20.003 34.9153L23.5004 15.2274C26.8341 15.2274 27.8857 15.5933 28.0375 17.0868C28.0375 17.0868 30.2738 16.2521 31.4018 14.5571C27.0003 12.5157 22.5778 12.4236 22.5778 12.4236L19.9972 15.5696L20.003 15.5692L17.4224 12.4231C17.4224 12.4231 12.9998 12.5153 8.59888 14.5567C9.72582 16.2517 11.963 17.0864 11.963 17.0864C12.1158 15.5928 13.166 15.2269 16.4773 15.2245L20.003 34.9153Z" fill="white"/>
<path d="M20.0001 11.5158C23.5581 11.4886 27.6306 12.0667 31.7996 13.8854C32.3569 12.8816 32.5001 12.4379 32.5001 12.4379C27.9427 10.6332 23.6748 10.0156 19.9996 10.0001C16.3246 10.0156 12.0569 10.6333 7.50012 12.4379C7.50012 12.4379 7.70341 12.9844 8.20009 13.8854C12.3683 12.0667 16.4415 11.4886 19.9996 11.5158H20.0001Z" fill="white"/>
</g>
<defs>
<clipPath id="clip0_2331_11565">
<rect width="40" height="40" fill="white"/>
</clipPath>
<clipPath id="clip1_2331_11565">
<rect width="40" height="40" fill="white"/>
</clipPath>
</defs>
</svg>
