<svg xmlns="http://www.w3.org/2000/svg" width="24" height="24" fill="none" xmlns:v="https://vecta.io/nano"><g clip-path="url(#A)"><path d="M24 12c0 6.628-5.372 12-12 12S0 18.628 0 12 5.373 0 12 0s12 5.373 12 12z" fill="#1ba27a"/><g fill="#fff"><path d="M17.629 6.051H6.267v2.743h4.31v4.032h2.743V8.794h4.31V6.051z"/><path d="M11.973 13.256c-3.565 0-6.456-.564-6.456-1.26s2.89-1.26 6.456-1.26 6.455.564 6.455 1.26-2.89 1.26-6.455 1.26zm7.249-1.05c0-.898-3.245-1.625-7.249-1.625s-7.249.727-7.249 1.625c0 .79 2.517 1.449 5.851 1.595v5.788h2.743v-5.786c3.36-.141 5.903-.803 5.903-1.597z"/></g></g><defs><clipPath id="A"><path fill="#fff" d="M0 0h24v24H0z"/></clipPath></defs></svg>