<svg width="24" height="24" viewBox="0 0 24 24" fill="none" xmlns="http://www.w3.org/2000/svg">
<g clip-path="url(#clip0_10784_8734)">
<circle cx="12" cy="12" r="12" fill="#181D27"/>
<mask id="mask0_10784_8734" style="mask-type:alpha" maskUnits="userSpaceOnUse" x="0" y="0" width="24" height="24">
<circle cx="12" cy="12" r="11.5" fill="#181D27" stroke="white"/>
</mask>
<g mask="url(#mask0_10784_8734)">
<path opacity="0.8" fill-rule="evenodd" clip-rule="evenodd" d="M11.9998 27.0794L0.36002 3.36864L3.38965 1.88136L11.9998 19.4206L20.61 1.88137L23.6397 3.36864L11.9998 27.0794Z" fill="white"/>
</g>
<circle opacity="0.8" cx="12" cy="12" r="10.5" fill="url(#paint0_linear_10784_8734)"/>
<circle cx="12" cy="12" r="9" fill="#181D27"/>
<path d="M16.4571 15.6299L13.018 7.38464C12.9588 7.20306 12.844 7.04432 12.6895 6.93056C12.535 6.8168 12.3487 6.75368 12.1563 6.75H11.8521C11.6598 6.75368 11.4734 6.8168 11.319 6.93056C11.1645 7.04432 11.0497 7.20306 10.9905 7.38464L9.49415 10.9773H8.36218C8.19923 10.978 8.04311 11.0423 7.92765 11.1564C7.81219 11.2704 7.74669 11.4251 7.74536 11.5867V11.5951C7.74669 11.7568 7.81219 11.9114 7.92765 12.0255C8.04311 12.1395 8.19923 12.2039 8.36218 12.2045H8.97053L7.54286 15.6299C7.51585 15.705 7.50154 15.7839 7.50049 15.8636C7.49384 16.033 7.55472 16.1982 7.66995 16.3234C7.72907 16.3833 7.8004 16.4299 7.87916 16.4602C7.95792 16.4905 8.04229 16.5038 8.12664 16.4991C8.2543 16.4975 8.37833 16.4567 8.48165 16.3822C8.58977 16.3028 8.67434 16.1959 8.72651 16.0729L10.2965 12.2054H11.387C11.5499 12.2047 11.7061 12.1404 11.8215 12.0263C11.937 11.9122 12.0025 11.7576 12.0038 11.596V11.5792C12.0025 11.4175 11.937 11.2629 11.8215 11.1488C11.7061 11.0347 11.5499 10.9704 11.387 10.9697H10.8049L12.0038 8.00331L15.2735 16.0729C15.3257 16.1959 15.4102 16.3028 15.5184 16.3822C15.6217 16.4567 15.7457 16.4975 15.8734 16.4991C15.9577 16.5038 16.0421 16.4905 16.1208 16.4602C16.1996 16.4299 16.2709 16.3833 16.3301 16.3234C16.4453 16.1982 16.5062 16.033 16.4995 15.8636C16.5026 15.7836 16.4882 15.7038 16.4571 15.6299Z" fill="white"/>
</g>
<defs>
<linearGradient id="paint0_linear_10784_8734" x1="22.2313" y1="18.1183" x2="-3.53296" y2="2.62136" gradientUnits="userSpaceOnUse">
<stop stop-color="#5433FF"/>
<stop offset="0.5" stop-color="#20BDFF"/>
<stop offset="1" stop-color="#5CFFA2"/>
</linearGradient>
<clipPath id="clip0_10784_8734">
<rect width="24" height="24" fill="white"/>
</clipPath>
</defs>
</svg>
