<svg width="24" height="24" viewBox="0 0 24 24" fill="none" xmlns="http://www.w3.org/2000/svg">
<g clip-path="url(#clip0_12361_1145)">
<circle cx="12" cy="12" r="12" fill="#181D27"/>
<mask id="mask0_12361_1145" style="mask-type:alpha" maskUnits="userSpaceOnUse" x="0" y="0" width="24" height="24">
<circle cx="12" cy="12" r="11.5" fill="#181D27" stroke="white"/>
</mask>
<g mask="url(#mask0_12361_1145)">
<path opacity="0.8" fill-rule="evenodd" clip-rule="evenodd" d="M11.9998 27.0793L0.36002 3.36861L3.38965 1.88134L11.9998 19.4206L20.61 1.88134L23.6397 3.36861L11.9998 27.0793Z" fill="white"/>
</g>
<circle opacity="0.8" cx="12" cy="12" r="10.5" fill="#5CFFA2"/>
<circle cx="12" cy="12" r="9" fill="#181D27"/>
<g clip-path="url(#clip1_12361_1145)">
<path d="M11.9813 20C16.3892 20 19.9626 16.4308 19.9626 12.028C19.9626 7.6252 16.3892 4.05603 11.9813 4.05603C7.57335 4.05603 4 7.6252 4 12.028C4 16.4308 7.57335 20 11.9813 20Z" fill="white"/>
<path d="M18.7967 15.5407C18.3977 15.7026 18.0204 15.9019 17.6432 16.1012C17.2129 16.3254 16.7952 16.5652 16.3836 16.8143C16.2215 16.914 16.0407 16.9575 15.863 17.0198C15.8037 17.0385 15.7601 17.0323 15.7383 16.9607C15.6759 16.7738 15.5419 16.6461 15.3642 16.5621C15.2987 16.5278 15.2862 16.4842 15.2893 16.4157C15.2956 16.3129 15.2924 16.2102 15.255 16.1136C15.2114 15.9891 15.1303 15.9081 15.0056 15.8739C14.8871 15.8365 14.7718 15.8085 14.6502 15.824C14.5691 15.8365 14.5411 15.8053 14.538 15.7337C14.5348 15.6746 14.5255 15.6123 14.5224 15.5531C14.5161 15.3974 14.5348 15.2355 14.5037 15.086C14.4694 14.9023 14.5286 14.7871 14.6658 14.6656C15.1241 14.2514 15.6447 13.9463 16.1935 13.6753C17.3688 13.093 18.5941 12.629 19.8256 12.1868C19.9628 12.028 19.3143 15.332 18.7967 15.5407Z" fill="#31C77F"/>
<path d="M8.71404 17.4558C8.77328 17.4807 8.81381 17.4963 8.8481 17.5119C8.91357 17.5368 8.98528 17.5399 9.02893 17.4745C9.07569 17.406 9.03205 17.35 8.98216 17.3032C8.92293 17.2534 8.86369 17.2005 8.80757 17.1475C8.57063 16.9296 8.67351 16.531 8.89487 16.3908C8.95099 16.3566 8.99152 16.3441 9.03516 16.3971C9.04763 16.4126 9.0601 16.422 9.07258 16.4375C9.53399 16.9576 10.1139 17.3344 10.6938 17.7018C10.9588 17.87 11.23 18.0319 11.5231 18.1472C11.5979 18.1752 11.6291 18.2126 11.6135 18.2935C11.5979 18.3589 11.601 18.4243 11.6291 18.4897C11.654 18.5582 11.6166 18.5769 11.5605 18.58C11.4638 18.5925 11.3703 18.6049 11.2705 18.6049C10.9027 18.6112 10.5379 18.689 10.17 18.6547C9.79588 18.6174 9.43423 18.5364 9.09128 18.3683C8.96969 18.3091 8.86369 18.2343 8.78263 18.1222C8.62051 17.9229 8.61739 17.705 8.71404 17.4558Z" fill="#31C77F"/>
<path d="M12.7359 18.4555C12.6798 18.4492 12.605 18.5084 12.552 18.4586C12.5146 18.4212 12.5115 18.3465 12.4896 18.2904C12.4834 18.2686 12.4709 18.2406 12.4553 18.2219C12.4023 18.1596 12.4397 18.1254 12.4927 18.0911C12.817 17.8887 13.1069 17.6396 13.4156 17.4154C13.7928 17.1351 14.1264 16.8081 14.4413 16.4593C14.5411 16.3504 14.6159 16.2196 14.6097 16.0639C14.6065 16.0016 14.6346 15.9736 14.7001 15.9829C14.7593 15.9891 14.8248 15.9985 14.884 16.014C15.0711 16.0576 15.149 16.2165 15.068 16.3908C15.0337 16.4625 14.99 16.5279 14.9526 16.5995C14.9277 16.6524 14.9152 16.7054 14.9682 16.749C15.0181 16.7894 15.068 16.7832 15.121 16.7552C15.1241 16.7521 15.1334 16.7521 15.1366 16.749C15.1802 16.7272 15.2083 16.6555 15.2519 16.6711C15.3205 16.6929 15.3828 16.7396 15.439 16.7832C15.573 16.8922 15.6229 17.0199 15.573 17.1538C15.5169 17.3033 15.4265 17.4372 15.308 17.5493C15.0711 17.7704 14.7905 17.9074 14.4974 18.0133C14.0048 18.1845 13.5091 18.3527 12.9885 18.4399C12.9074 18.4461 12.8263 18.4555 12.7359 18.4555Z" fill="#31C77F"/>
<path d="M12.0622 18.5676C12.0434 18.5644 12.0123 18.5644 11.9811 18.5613C11.8533 18.5426 11.7753 18.4804 11.7597 18.3807C11.7441 18.2811 11.8252 18.1503 11.9312 18.1098C12.1276 18.0288 12.3116 18.088 12.3957 18.2561C12.4519 18.362 12.4363 18.4181 12.3459 18.4897C12.2773 18.5426 12.1775 18.5707 12.0622 18.5676Z" fill="#31C77F"/>
<path d="M12.7325 11.8256C12.6483 11.7633 12.639 11.7135 12.6733 11.6263C12.7107 11.5267 12.7045 11.4208 12.6982 11.318C12.6795 11.1063 12.5268 10.9724 12.3148 10.9661C12.1807 10.963 12.0685 11.0097 11.9812 11.1125C11.95 11.0938 11.925 11.0783 11.9032 11.0658C11.6663 10.9288 11.4574 11.0035 11.367 11.2589C11.3202 11.3865 11.2922 11.5142 11.3358 11.6481C11.367 11.7478 11.3607 11.8163 11.2703 11.8879C11.2111 11.9377 11.1643 12.0094 11.1269 12.081C11.0084 12.2927 11.0614 12.5201 11.261 12.6571C11.314 12.6913 11.3389 12.7318 11.3545 12.791C11.3888 12.9093 11.4636 13.009 11.5696 13.0744C11.7692 13.2052 11.9936 13.2643 12.2306 13.2301C12.4426 13.1958 12.6203 13.0993 12.7201 12.8875C12.7637 12.7941 12.8073 12.6913 12.8915 12.6135C12.9539 12.5543 12.9757 12.4671 12.9819 12.3737C12.9913 12.1464 12.904 11.9626 12.7325 11.8256ZM12.1464 13.0744C11.8876 13.0775 11.5852 13.0121 11.5197 12.763C11.7723 12.7349 11.7879 12.7287 12.0497 12.4765C12.19 12.6602 12.3646 12.7723 12.6047 12.7536C12.5361 12.9623 12.3802 13.0681 12.1464 13.0744ZM12.5143 12.6073C12.3802 12.5979 12.2555 12.5169 12.1589 12.3799C12.0685 12.2491 11.9843 12.2523 11.9032 12.3862C11.8097 12.5419 11.6632 12.6166 11.4823 12.6073C11.2391 12.5886 11.1238 12.3581 11.2579 12.1526C11.3077 12.0748 11.3763 12.0125 11.4512 11.9564C11.5665 11.8692 11.5727 11.8505 11.526 11.7073C11.4948 11.6139 11.4667 11.5205 11.473 11.4208C11.4917 11.1997 11.6632 11.1094 11.8533 11.2153C11.8845 11.234 11.9095 11.2589 11.9375 11.2744C12.0092 11.318 12.0685 11.3212 12.109 11.2371C12.162 11.1343 12.2524 11.1312 12.349 11.1437C12.455 11.153 12.5143 11.2184 12.5517 11.3118C12.5735 11.3647 12.5704 11.4146 12.5486 11.4613C12.5205 11.5329 12.4893 11.5983 12.4613 11.6668C12.3958 11.8101 12.402 11.8412 12.5486 11.9066C12.6702 11.9595 12.7668 12.0374 12.8198 12.1619C12.9102 12.3768 12.7762 12.601 12.5143 12.6073Z" fill="#030202"/>
<path d="M11.7319 11.4239C11.7413 11.4301 11.7694 11.4332 11.7818 11.4488C11.8286 11.508 11.866 11.5765 11.8722 11.6512C11.8754 11.6855 11.8566 11.7166 11.8192 11.7322C11.7881 11.7415 11.7631 11.7291 11.7413 11.7073C11.6852 11.6481 11.6415 11.5765 11.654 11.4893C11.6571 11.455 11.6789 11.4301 11.7319 11.4239Z" fill="#0E0D0D"/>
<path d="M12.1498 11.5734C12.1592 11.5454 12.1748 11.4924 12.1997 11.4457C12.2184 11.4084 12.2496 11.3803 12.2995 11.399C12.3338 11.4177 12.3494 11.4488 12.3431 11.4831C12.3338 11.5329 12.3151 11.5827 12.2963 11.6295C12.2776 11.6762 12.2465 11.7104 12.1903 11.6886C12.1405 11.6793 12.1405 11.6326 12.1498 11.5734Z" fill="#191717"/>
<path d="M8.73586 18.2156L8.41162 19.1L8.62986 19.209C8.62986 19.209 8.93228 18.4772 8.96657 18.4056C9.00087 18.3309 8.73586 18.2156 8.73586 18.2156Z" fill="#231F20"/>
<path d="M15.1956 17.6395L15.0615 17.7828C15.0615 17.7828 15.6165 19.0813 15.7817 19.0844C15.9469 19.0844 15.8409 18.8229 15.8409 18.8229C15.8409 18.8229 15.3546 17.8108 15.2704 17.6302C15.2112 17.4869 15.1956 17.6395 15.1956 17.6395Z" fill="#231F20"/>
<path d="M14.5532 9.06036C14.8494 8.45935 15.1113 7.85523 15.1893 7.18571C15.2173 7.01132 15.2454 6.82136 15.236 6.62829C15.2204 6.36048 15.0396 6.21724 14.7746 6.27017C14.6561 6.29509 14.5439 6.33557 14.441 6.41031C14.1916 6.59404 13.9796 6.81825 13.7801 7.04869C13.5431 7.31961 13.3062 7.58742 13.0786 7.86457C13.0069 7.94865 12.9445 7.95176 12.8572 7.91439C12.72 7.85211 12.5766 7.80229 12.4239 7.79295C11.897 7.75558 11.3701 7.73689 10.8619 7.93308C10.7559 7.97667 10.6967 7.95488 10.625 7.8708C10.4005 7.59987 10.1667 7.33518 9.93283 7.06737C9.72394 6.83382 9.51505 6.60338 9.2594 6.42276C9.13781 6.33557 9.00375 6.29197 8.8541 6.28574C8.66704 6.27952 8.54545 6.36982 8.49869 6.55355C8.48622 6.60961 8.47998 6.66877 8.47998 6.72483C8.47998 7.04246 8.53922 7.35698 8.60157 7.66838C8.69198 8.11992 8.90087 8.53098 9.07858 8.94826C9.15028 9.1133 9.24382 9.26589 9.36541 9.39668C9.41217 9.44651 9.42152 9.48699 9.40282 9.55239C9.37476 9.65203 9.34982 9.75168 9.32488 9.85445C9.22511 10.2219 9.19081 10.5987 9.24693 10.9724C9.27811 11.1717 9.27187 11.3616 9.25005 11.5578C9.22511 11.7727 9.21887 11.9813 9.26876 12.1962C9.32799 12.4485 9.31552 12.7007 9.25005 12.9529C9.18458 13.2207 9.14717 13.4854 9.16276 13.7595C9.18146 14.0491 9.14405 14.3387 9.1347 14.6252C9.13158 14.7933 9.1347 14.9615 9.09728 15.1265C9.0474 15.3383 9.05052 15.55 9.0817 15.7649C9.14093 16.1822 9.10352 15.9798 9.11911 16.232C9.19705 16.232 9.28746 16.4749 9.36852 16.4718C9.36541 16.2756 9.34358 15.8023 9.32488 15.6061C9.30929 15.4379 9.32488 15.2729 9.35293 15.1047C9.41217 14.7435 9.44647 14.3854 9.40594 14.0179C9.36852 13.6723 9.40905 13.3235 9.48076 12.9841C9.54 12.6976 9.53376 12.408 9.487 12.1215C9.47764 12.0592 9.46517 11.9907 9.47764 11.9315C9.51505 11.7167 9.53688 11.4987 9.54311 11.2589C9.752 11.4426 9.97336 11.452 10.2072 11.399C10.4005 11.3554 10.5158 11.2309 10.5938 11.0596C10.6187 11.0035 10.6281 10.9319 10.7247 10.9537C10.7715 10.9631 10.8245 10.9568 10.8307 10.8945C10.837 10.8354 10.7933 10.8167 10.7434 10.8073C10.4504 10.742 10.1573 10.6703 9.86424 10.608C9.77071 10.5863 9.67094 10.5613 9.57741 10.552C9.49323 10.5427 9.47452 10.5022 9.48388 10.4243C9.52753 10.0662 9.593 9.71743 9.73641 9.38423C9.87671 9.06036 10.0575 8.75519 10.3132 8.50606C10.3444 8.47492 10.3849 8.44067 10.3631 8.38773C10.3412 8.33479 10.3007 8.32233 10.2508 8.3379C10.1978 8.35659 10.176 8.32856 10.1511 8.29119C10.1012 8.21334 10.0482 8.13549 10.0045 8.05764C9.84865 7.8054 9.6647 7.57808 9.47764 7.34452C9.44023 7.2947 9.39035 7.25421 9.33735 7.21373C9.17834 7.10163 9.03805 7.16391 9.02246 7.36009C9.00687 7.48777 9.01934 7.61544 9.06611 7.73378C9.23134 8.15106 9.35917 8.58703 9.59611 8.97317C9.65535 9.07282 9.57117 9.11642 9.54 9.18804C9.48076 9.14444 9.44958 9.08528 9.42152 9.03234C9.09417 8.45624 8.81981 7.86145 8.70445 7.20128C8.67328 7.03 8.67328 6.85562 8.67951 6.68123C8.68887 6.49127 8.77304 6.44145 8.95699 6.48816C9.09105 6.52241 9.19393 6.60649 9.29058 6.69991C9.62417 7.0082 9.90788 7.35698 10.2103 7.6933C10.2914 7.7836 10.3724 7.87702 10.4504 7.96733C10.5002 8.02339 10.5439 8.07632 10.5532 8.1604C10.5595 8.25383 10.6281 8.28185 10.7154 8.2476C10.7372 8.24137 10.759 8.22891 10.7777 8.21646C10.9243 8.11369 11.0895 8.07944 11.2672 8.05141C11.7473 7.96422 12.2243 7.99847 12.6982 8.09812C12.773 8.11681 12.8354 8.15418 12.9009 8.19154C13.0443 8.27874 13.0973 8.25694 13.1409 8.09812C13.1503 8.05141 13.1783 8.01404 13.2126 7.97979C13.6023 7.54382 13.964 7.08606 14.3942 6.68434C14.4878 6.59715 14.5844 6.51307 14.7091 6.47259C14.918 6.40719 15.0053 6.46947 15.0178 6.68434C15.0427 7.09228 14.943 7.47843 14.8151 7.85523C14.6842 8.23514 14.5065 8.59014 14.3163 8.94203C14.2727 9.01988 14.2228 9.08528 14.1698 9.17247C13.9983 8.91712 13.9983 8.92023 14.1261 8.67422C14.2882 8.37216 14.4535 8.07944 14.5657 7.75246C14.6125 7.61544 14.6499 7.47531 14.6468 7.32895C14.6437 7.23864 14.625 7.15768 14.5345 7.11097C14.4472 7.06737 14.3755 7.10785 14.3132 7.16079C14.2352 7.22619 14.1542 7.29781 14.0856 7.37566C13.8424 7.63724 13.5774 7.88325 13.4215 8.21334C13.3935 8.27562 13.2843 8.30365 13.328 8.40019C13.3561 8.46247 13.4215 8.50295 13.4652 8.55589C13.7146 8.85795 13.9141 9.18804 14.0388 9.55861C14.1168 9.79217 14.1698 10.0382 14.2009 10.2842C14.2103 10.3683 14.1729 10.4212 14.0856 10.4461C13.7645 10.5302 13.4496 10.6143 13.1285 10.6984C13.1004 10.7046 13.0723 10.7077 13.0443 10.7233C12.9788 10.7544 12.9695 10.8136 13.0349 10.8541C13.0786 10.879 13.1004 10.8914 13.116 10.9475C13.169 11.1717 13.3124 11.3149 13.54 11.3461C13.7676 11.3803 13.9827 11.343 14.1168 11.125C14.123 11.1094 14.1261 11.1032 14.1511 11.1188C14.1448 11.3772 14.1667 11.6419 14.2134 11.9004C14.2228 11.9502 14.2165 12.0063 14.2103 12.0561C14.1448 12.3862 14.1573 12.7131 14.2259 13.037C14.2976 13.3982 14.3163 13.7595 14.2758 14.1238C14.2446 14.3916 14.2695 14.6563 14.3194 14.9179C14.3755 15.2137 14.3911 15.5033 14.3568 15.7992C14.3475 15.8988 14.3381 15.9954 14.3381 16.095C14.4192 16.0981 14.5002 16.1012 14.5813 16.1044C14.5844 16.0545 14.5875 16.0016 14.5969 15.9549C14.6281 15.6746 14.6686 15.3975 14.6156 15.111C14.5377 14.6906 14.5501 14.2577 14.5408 13.8311C14.5377 13.5228 14.5314 13.2207 14.4535 12.9187C14.3942 12.6882 14.3755 12.4485 14.4285 12.2149C14.4878 11.9564 14.4815 11.698 14.4472 11.4395C14.4285 11.3212 14.4036 11.1966 14.4379 11.0783C14.4971 10.8447 14.4909 10.608 14.4815 10.3714C14.466 10.0911 14.3911 9.82331 14.3194 9.55861C14.2976 9.47765 14.3007 9.42159 14.3662 9.35931C14.4379 9.26278 14.5065 9.16624 14.5532 9.06036ZM9.8923 10.7388C9.97336 10.7357 10.0264 10.7824 10.0295 10.8572C10.0295 10.935 9.9983 10.9755 9.92347 10.9786C9.84241 10.9817 9.78629 10.935 9.78629 10.8634C9.78318 10.7887 9.82682 10.7388 9.8923 10.7388ZM9.3997 8.30054C9.30929 8.05141 9.22199 7.80229 9.15964 7.54382C9.14405 7.48777 9.14093 7.43172 9.13781 7.37255C9.13781 7.33518 9.13158 7.28847 9.17523 7.26667C9.22199 7.24799 9.25629 7.27601 9.28435 7.30404C9.43088 7.43483 9.5587 7.5843 9.66159 7.75246C9.78318 7.95176 9.90788 8.15106 10.0388 8.35347C10.0887 8.43133 10.0887 8.48738 10.0139 8.54032C9.90165 8.62128 9.84241 8.74585 9.74265 8.87041C9.57117 8.70225 9.47452 8.50606 9.3997 8.30054ZM13.9235 8.7801C13.8424 8.63685 13.7208 8.53409 13.5992 8.4251C13.54 8.36905 13.5431 8.33168 13.5805 8.26317C13.7489 7.98602 13.9609 7.74001 14.176 7.494C14.2384 7.41926 14.2945 7.33518 14.3755 7.27913C14.4628 7.21996 14.5158 7.24487 14.5314 7.35075C14.5345 7.37878 14.5345 7.40992 14.5283 7.43794C14.4753 7.65593 14.4285 7.88014 14.3163 8.07632C14.2041 8.26628 14.1043 8.45935 14.0076 8.65554C13.9858 8.69913 13.9765 8.74585 13.9235 8.7801ZM13.5462 10.9942C13.4839 11.0098 13.4246 10.9475 13.4246 10.8821C13.4278 10.8105 13.4714 10.7762 13.5338 10.7731C13.5899 10.77 13.6335 10.8042 13.6429 10.8634C13.6211 10.9226 13.6117 10.9817 13.5462 10.9942Z" fill="#231F20"/>
<path d="M18.6689 15.5625C18.2854 15.7182 17.9238 15.9081 17.5621 16.0981C17.1506 16.3129 16.7515 16.5434 16.3525 16.7832C16.1966 16.8766 16.022 16.9202 15.8536 16.9794C15.7975 16.998 15.7539 16.9887 15.7352 16.9233C15.6759 16.7458 15.545 16.6212 15.3766 16.5403C15.3143 16.5091 15.3018 16.4655 15.3049 16.4001C15.3112 16.3005 15.308 16.204 15.2738 16.1105C15.2301 15.9922 15.1553 15.9143 15.0337 15.8801C14.9215 15.8458 14.8092 15.8178 14.6939 15.8303C14.6159 15.8396 14.5879 15.8116 14.5847 15.7431C14.5816 15.687 14.5754 15.6279 14.5723 15.5718C14.566 15.4223 14.5816 15.2666 14.5536 15.1234C14.5224 14.949 14.5785 14.8369 14.7095 14.7217C15.149 14.3262 15.6479 14.0303 16.1748 13.7719C17.3034 13.2145 18.4756 12.7692 19.6572 12.3456C19.757 12.3083 19.8599 12.2709 19.9596 12.2335C19.9628 12.1681 19.9628 12.0996 19.9628 12.0342C19.9628 11.9875 19.9628 11.9408 19.9596 11.8941C19.5325 12.056 19.1054 12.2117 18.6783 12.3674C17.6557 12.7442 16.6642 13.1895 15.704 13.7003C15.3486 13.8902 15.0243 14.1238 14.7219 14.3853C14.672 14.4289 14.6222 14.4757 14.5754 14.5161C14.5723 14.513 14.5692 14.513 14.566 14.5099C14.5504 14.5535 14.5193 14.5909 14.4787 14.6096C14.46 14.6812 14.407 14.7403 14.3135 14.7403H14.2917C14.2854 15.1545 14.2979 15.5687 14.3447 15.9829C14.3634 16.1323 14.3229 16.2351 14.2169 16.3472C13.6962 16.9015 13.1101 17.3686 12.5084 17.8233C12.4897 17.8388 12.4647 17.8482 12.4522 17.8669C12.3961 17.9509 12.3338 17.9447 12.2496 17.9011C12.0937 17.8233 11.9409 17.8669 11.8038 17.9478C11.7258 17.9945 11.6697 17.9914 11.6011 17.9541C11.2488 17.7765 10.9027 17.5959 10.5785 17.3655C10.142 17.0572 9.70555 16.752 9.32208 16.3815C9.27531 16.3379 9.24414 16.2943 9.22855 16.2475C9.22231 16.2444 9.20984 16.2413 9.20361 16.2382C9.20049 16.2382 9.19737 16.2382 9.19737 16.2351C9.11943 16.204 9.24725 16.095 9.16308 16.0794C9.14437 16.0856 9.1319 16.0887 9.11319 16.0981C9.09137 16.1199 8.93548 16.1448 8.82636 16.2382C8.82013 16.2444 8.80766 16.2538 8.79831 16.26C8.47407 16.5154 8.39301 16.8828 8.58318 17.2503C8.61748 17.3157 8.60813 17.3624 8.58007 17.4215C8.43354 17.7236 8.44601 18.0132 8.66113 18.281C8.71725 18.3558 8.77025 18.4305 8.84819 18.4866L9.02278 18.608C9.12566 18.6641 9.2722 18.7201 9.35014 18.7419C9.6775 18.8291 10.008 18.8852 10.3447 18.9007C10.5006 18.9069 10.6565 18.882 10.8123 18.8696C11.1116 18.8416 11.4141 18.8166 11.7071 18.7762C11.8194 18.7575 11.9254 18.7917 12.0314 18.7948C12.1249 18.798 12.2246 18.8104 12.3026 18.7606C12.4522 18.6703 12.6237 18.6672 12.7827 18.6516C13.1413 18.6205 13.4936 18.5395 13.8334 18.4305C14.1826 18.3215 14.5286 18.2156 14.8622 18.063C15.1958 17.9073 15.4889 17.7112 15.6572 17.3717C15.6759 17.3406 15.6915 17.3188 15.7196 17.3001C15.9752 17.1444 16.393 17.0697 16.6237 16.9731C16.9791 16.7769 17.3314 16.5808 17.69 16.3908C18.1327 16.1572 18.5785 15.9268 19.0493 15.7555C19.1148 15.631 19.1771 15.5064 19.2332 15.3818C19.043 15.4223 18.856 15.4877 18.6689 15.5625ZM11.5201 18.5769C11.4296 18.5862 11.3361 18.6018 11.2426 18.6018C10.8903 18.608 10.5411 18.6827 10.1888 18.6516C9.83026 18.6173 9.48108 18.5395 9.15684 18.3776C9.04149 18.3215 8.9386 18.2468 8.86066 18.144C8.71101 17.9478 8.70477 17.7361 8.79831 17.4994C8.85442 17.5243 8.89184 17.5368 8.92925 17.5523C8.9916 17.5773 9.06019 17.5804 9.10072 17.5181C9.14749 17.4527 9.10384 17.3997 9.05396 17.353C8.99784 17.3032 8.94172 17.2534 8.8856 17.2036C8.65801 16.9918 8.75466 16.6119 8.96978 16.478C9.02278 16.4468 9.06019 16.4313 9.10384 16.4842C9.11319 16.4967 9.12878 16.5091 9.13813 16.5216C9.58085 17.0198 10.1358 17.3811 10.6907 17.7361C10.9433 17.898 11.2052 18.0506 11.4858 18.1627C11.5575 18.1907 11.5886 18.225 11.5731 18.3028C11.5575 18.3651 11.5637 18.4305 11.5886 18.4928C11.6105 18.5551 11.5762 18.5737 11.5201 18.5769ZM12.3556 18.4897C12.2901 18.5395 12.1935 18.5675 12.0812 18.5644C12.0625 18.5613 12.0314 18.5613 12.0033 18.5582C11.8817 18.5395 11.8069 18.4803 11.7913 18.3869C11.7788 18.2935 11.8536 18.1658 11.9565 18.1284C12.1467 18.0506 12.3213 18.1066 12.4024 18.2686C12.4585 18.3651 12.446 18.418 12.3556 18.4897ZM15.5013 17.1569C15.4483 17.297 15.3642 17.4247 15.2519 17.5274C15.0306 17.733 14.7656 17.8637 14.4881 17.9634C14.0236 18.1253 13.559 18.281 13.0727 18.362C12.9978 18.3713 12.923 18.3807 12.8357 18.3807C12.7827 18.3744 12.7141 18.4305 12.6642 18.3838C12.63 18.3495 12.6268 18.2779 12.605 18.225C12.5988 18.2032 12.5863 18.1783 12.5738 18.1627C12.5239 18.1035 12.5582 18.0724 12.6081 18.0412C12.9137 17.8513 13.1849 17.6177 13.4748 17.406C13.8303 17.1444 14.142 16.833 14.4382 16.5091C14.5317 16.4064 14.6034 16.2849 14.5972 16.1386C14.5941 16.0794 14.6222 16.0545 14.6814 16.0607C14.7375 16.0669 14.7967 16.0763 14.8529 16.0887C15.0275 16.1323 15.1023 16.2787 15.0243 16.4437C14.9932 16.5091 14.9495 16.5745 14.9152 16.6399C14.8903 16.6897 14.8809 16.7396 14.9308 16.7801C14.9776 16.8174 15.0243 16.8112 15.0742 16.7863C15.0773 16.7832 15.0836 16.7832 15.0898 16.7801C15.1335 16.7583 15.1553 16.6929 15.1989 16.7053C15.2613 16.7271 15.3205 16.7676 15.3735 16.8112C15.5013 16.9108 15.5481 17.0292 15.5013 17.1569Z" fill="#231F20"/>
</g>
</g>
<defs>
<clipPath id="clip0_12361_1145">
<rect width="24" height="24" fill="white"/>
</clipPath>
<clipPath id="clip1_12361_1145">
<rect width="16" height="16" fill="white" transform="translate(4 4)"/>
</clipPath>
</defs>
</svg>
