<svg width="24" height="24" viewBox="0 0 24 24" fill="none" xmlns="http://www.w3.org/2000/svg">
<g clip-path="url(#clip0_12361_597)">
<circle cx="12" cy="12" r="12" fill="#181D27"/>
<mask id="mask0_12361_597" style="mask-type:alpha" maskUnits="userSpaceOnUse" x="0" y="0" width="24" height="24">
<circle cx="12" cy="12" r="11.5" fill="#181D27" stroke="white"/>
</mask>
<g mask="url(#mask0_12361_597)">
<path opacity="0.8" fill-rule="evenodd" clip-rule="evenodd" d="M11.9998 27.0794L0.36002 3.36864L3.38965 1.88137L11.9998 19.4206L20.61 1.88137L23.6397 3.36864L11.9998 27.0794Z" fill="white"/>
</g>
<circle opacity="0.8" cx="12" cy="12" r="10.5" fill="#B042FF"/>
<circle cx="12" cy="12" r="9" fill="#181D27"/>
<path d="M9.11594 14.9382C9.11594 14.5908 9.24228 14.2749 9.43178 13.9906C9.49496 13.8959 9.49496 13.7695 9.4002 13.7064C9.4002 13.7064 9.36862 13.7064 9.36862 13.6748C8.70532 13.3273 8.19996 12.6957 8.07363 11.9692C7.97889 11.4007 8.01047 10.8322 8.19996 10.2636C8.23157 10.1373 8.23157 10.011 8.23157 9.88461C8.01047 9.0634 8.04205 8.17902 8.29473 7.35783C8.51583 6.75772 8.83166 6.59979 9.43178 6.88406C9.77922 7.04198 10.0635 7.26307 10.3478 7.48417C10.4109 7.54734 10.5057 7.57892 10.6004 7.51575C11.6427 7.07356 12.8114 7.07356 13.8221 7.54734C13.8853 7.57892 13.98 7.57892 14.0432 7.51575C14.2958 7.29466 14.6117 7.07356 14.9275 6.91564C15.0539 6.85247 15.2118 6.7893 15.3697 6.75772C15.6224 6.69455 15.8751 6.82089 15.9698 7.04198C16.1278 7.35783 16.2541 7.67368 16.2857 8.0211C16.3805 8.68438 16.3489 9.34768 16.1909 10.011C16.1909 10.0741 16.1909 10.1373 16.2225 10.2005C16.3805 10.6742 16.4436 11.2112 16.412 11.7165C16.3489 12.5693 15.8435 13.2958 15.0855 13.6748C14.9907 13.738 14.9275 13.8327 14.9907 13.9591L15.0223 13.9906C15.3066 14.3381 15.4329 14.8118 15.3381 15.254C15.3381 15.3172 15.3066 15.3488 15.3697 15.3804C15.7172 15.6015 15.9067 16.0437 15.8435 16.4542C15.8119 16.7385 15.7488 16.9912 15.6224 17.2439C15.4961 17.5597 15.1802 17.7492 14.8328 17.7492H14.5485C14.3274 17.7492 14.1379 17.7808 13.9484 17.8756C13.6642 18.0019 13.3483 18.0335 13.064 17.9387C13.0325 17.9387 13.0325 17.9072 13.0009 17.9072C12.8114 17.6861 12.5587 17.7492 12.306 17.7492H11.927C11.7691 17.7492 11.6111 17.7808 11.4848 17.8756C11.1374 18.0651 10.7268 18.0335 10.4109 17.8124C10.3478 17.7492 10.253 17.7492 10.1582 17.7492H9.6213C9.27386 17.7492 8.9896 17.5597 8.83166 17.2439C8.70532 17.0228 8.64216 16.7701 8.61059 16.5174C8.61059 16.4227 8.5474 16.3595 8.48425 16.2963C7.56828 15.7278 7.3156 14.5276 7.88413 13.6432C7.91571 13.6116 7.91571 13.6116 7.91571 13.5801C7.94729 13.5169 8.01047 13.4853 8.07363 13.5169C8.13681 13.5484 8.16839 13.5801 8.16839 13.6432C8.19996 14.0222 8.38949 14.3381 8.64216 14.5908C8.80008 14.7803 8.958 14.875 9.11594 14.9382Z" fill="#181D27"/>
<path d="M8.32639 11.8113C8.26324 11.3376 8.29482 10.8638 8.45273 10.39C8.70541 9.5372 9.24237 8.77917 9.93722 8.24223C10.032 8.14747 10.0636 8.08431 9.9688 7.98955C9.84246 7.80003 9.68455 7.64212 9.52663 7.48419C9.58979 7.42102 9.65297 7.45261 9.71612 7.51578C9.90565 7.64212 10.0951 7.76845 10.2847 7.92637C10.3794 7.98955 10.5058 8.02113 10.6005 7.95797C11.3585 7.61053 12.2113 7.54736 13.001 7.70529C13.2852 7.76845 13.5379 7.86321 13.7906 7.95797C13.8853 7.98955 13.9801 7.98955 14.0433 7.92637C14.2328 7.76845 14.3907 7.64212 14.6118 7.51578C14.675 7.45261 14.7381 7.42102 14.8329 7.45261C14.675 7.61053 14.5486 7.76845 14.4223 7.92637C14.2959 8.11589 14.2959 8.14747 14.4854 8.24223C15.433 8.96869 16.0331 10.0741 16.0963 11.2744C16.1279 11.4323 16.0963 11.6218 16.0647 11.7797C15.9383 12.0008 15.6857 12.1272 15.433 12.1272C15.054 12.1587 14.675 12.0324 14.3907 11.7797C14.1064 11.5586 13.8537 11.3059 13.6011 11.0533C13.4431 10.8954 13.2536 10.7374 13.0641 10.6111C12.5272 10.2321 11.8323 10.2321 11.327 10.6427C11.0743 10.8322 10.8216 11.0533 10.6005 11.2744C10.4426 11.4323 10.2531 11.6218 10.0636 11.7481C9.77931 12.0008 9.36871 12.1587 8.98969 12.1272C8.73702 12.1587 8.48434 12.0324 8.32639 11.8113Z" fill="#D1D2D4"/>
<path d="M8.32617 11.8113C8.48412 11.9377 8.64203 12.0324 8.83153 12.064C9.27373 12.1588 9.74751 12.0008 10.0633 11.685C10.3792 11.4323 10.6635 11.1165 10.9793 10.8322C11.2004 10.6111 11.4847 10.4216 11.8005 10.3269C12.3059 10.2005 12.8112 10.3269 13.2218 10.6427C13.6008 10.927 13.9167 11.2744 14.2957 11.6218C14.6432 11.9693 15.1169 12.1272 15.5907 12.0324C15.7802 12.0008 15.9381 11.8745 16.0645 11.7482C16.0645 11.8429 16.0329 11.9377 16.0013 12.0324C15.9065 12.1904 15.8118 12.3483 15.6854 12.5062C15.3696 12.8221 14.9906 13.0747 14.5484 13.2327C14.043 13.3906 13.5377 13.5169 13.0007 13.5485C12.2111 13.6433 11.3899 13.5801 10.6003 13.4222C9.937 13.3274 9.30531 13.0116 8.83153 12.5694C8.64203 12.4115 8.51569 12.2219 8.38935 12.0008C8.35778 11.9693 8.32617 11.9061 8.32617 11.8113Z" fill="white"/>
<path d="M8.38867 12C8.51501 12.1263 8.64135 12.2527 8.73611 12.4106C8.95721 12.6633 9.24147 12.8528 9.55733 13.0107C10.1574 13.295 10.8207 13.4529 11.484 13.4845C12.3368 13.5793 13.1896 13.5161 14.0108 13.295C14.6425 13.1687 15.211 12.8528 15.6532 12.4106C15.7479 12.3159 15.8111 12.1895 15.9059 12.0948C15.9374 12.0632 15.9374 12 16.0006 12C15.8743 12.537 15.4953 13.0107 15.0215 13.295C14.4846 13.6108 13.8529 13.8004 13.2212 13.8635C12.2736 13.9898 11.2945 13.9267 10.3469 13.7056C9.74682 13.5793 9.20989 13.2634 8.76769 12.8212C8.57819 12.5685 8.45185 12.2843 8.38867 12Z" fill="#DCDCDC"/>
<path d="M12.9373 17.4333C12.9058 17.307 12.9058 17.1806 12.9058 17.0227V16.1384C12.9058 16.1068 12.9373 16.1068 12.9373 16.1068C12.9689 16.1384 12.9689 16.2015 12.9689 16.2331C13.3164 15.9173 13.6638 15.5698 13.9481 15.2224C14.1376 15.0013 14.2639 14.7486 14.2955 14.4643C14.2955 14.4328 14.3271 14.4012 14.3271 14.4012C14.3903 14.3696 14.4534 14.338 14.5166 14.3064C14.6114 14.3064 14.6114 14.4012 14.6114 14.4328C14.6745 14.6539 14.6745 14.9065 14.6429 15.1592C14.5797 15.5698 14.4534 15.9804 14.2639 16.391C14.1692 16.6437 14.0428 16.8964 13.8849 17.1175C13.8533 17.1806 13.8217 17.2438 13.7586 17.2754C13.727 17.2754 13.727 17.307 13.6954 17.307C13.4743 17.2754 13.2216 17.307 13.0005 17.4017C13.0005 17.4649 12.9689 17.4649 12.9373 17.4333Z" fill="#D1D2D4"/>
<path d="M11.4534 16.4543C11.4534 16.7701 11.485 17.1176 11.4534 17.4334C11.4218 17.465 11.3902 17.465 11.3586 17.4334C11.1375 17.3387 10.9164 17.3387 10.6953 17.3702C10.6638 17.4018 10.6006 17.3702 10.569 17.3387C10.5374 17.2439 10.5059 17.1807 10.4743 17.086C10.1584 16.549 9.93731 15.9805 9.77939 15.3804C9.71624 15.0961 9.68463 14.8119 9.74782 14.5276C9.77939 14.4644 9.77939 14.3697 9.84258 14.3381C9.90573 14.3697 9.96892 14.4013 10.0321 14.4328C10.0637 14.496 10.0637 14.5276 10.0637 14.5592C10.0953 14.7803 10.19 15.0014 10.3479 15.1909C10.6322 15.5383 10.9796 15.8858 11.2955 16.2016C11.3902 16.2648 11.4218 16.3595 11.4534 16.4543Z" fill="#D1D2D4"/>
<path d="M11.7371 16.9912V16.2015C11.7371 16.0752 11.674 16.0121 11.5476 16.0121C11.516 15.9805 11.4844 15.9173 11.4529 15.8541C11.3581 15.5067 11.1686 15.2224 10.9791 14.9382C10.9159 14.8434 10.8527 14.7802 10.758 14.7487C10.7264 14.7171 10.6948 14.7171 10.6948 14.6539C10.9791 14.6855 11.2633 14.7487 11.5476 14.7802C11.6424 14.7802 11.6108 14.8434 11.5792 14.9066C11.4844 15.1593 11.5476 15.4435 11.7371 15.633C11.9266 15.8225 12.2425 15.8857 12.4952 15.7594C12.811 15.6015 12.9689 15.254 12.8742 14.9066C12.811 14.7802 12.8742 14.7802 12.9689 14.7802C13.19 14.7487 13.3795 14.7171 13.6006 14.6855C13.6322 14.7487 13.569 14.7487 13.569 14.7802C13.2848 15.0961 13.0637 15.5067 12.9689 15.9173C12.9373 15.9489 12.9374 15.9805 12.9057 16.0121C12.7478 15.9805 12.7162 16.0436 12.7162 16.2015C12.7162 16.4542 12.7162 16.7385 12.6847 16.9912C12.4004 17.1807 12.0214 17.2123 11.7371 16.9912Z" fill="#DCDCDC"/>
<path d="M10.6945 14.6539C11.0104 14.7802 11.1367 15.0645 11.2946 15.3488C11.421 15.5383 11.5157 15.7593 11.5473 15.9804C11.4526 16.0436 11.4526 16.1384 11.4526 16.2331V16.4226C11.042 16.0436 10.6629 15.633 10.3155 15.1908C10.126 14.9697 10.0312 14.7171 10.0312 14.4328C10.2523 14.5276 10.4418 14.5907 10.6945 14.6539Z" fill="white"/>
<path d="M12.8433 16.0121C12.9064 15.6962 13.0012 15.4119 13.1907 15.1593C13.2855 14.9698 13.4118 14.8119 13.5697 14.6855C13.8224 14.6223 14.1067 14.5592 14.3593 14.4644C14.3909 14.6539 14.3278 14.875 14.233 15.0329C13.9803 15.4119 13.6961 15.7278 13.3802 16.0121C13.2223 16.1384 13.0959 16.2963 12.9696 16.4227C12.9064 16.3279 12.9696 16.2332 12.938 16.17C12.938 16.1068 12.9064 16.0436 12.8433 16.0121Z" fill="white"/>
<path d="M13.7588 17.3071C14.1378 16.707 14.4221 16.0437 14.58 15.3804C14.6748 15.033 14.6748 14.6855 14.5484 14.3697C14.58 14.3381 14.6116 14.3381 14.6116 14.3065C14.8327 14.2117 14.8327 14.2117 14.8958 14.4013C15.0222 14.7487 15.0222 15.1277 14.9274 15.4751C14.7695 16.1068 14.4852 16.707 14.1378 17.2755C14.1062 17.3386 14.0746 17.3702 14.0431 17.4018C13.9167 17.4334 13.822 17.4334 13.7588 17.3071Z" fill="white"/>
<path d="M9.84185 14.3696C9.71551 14.875 9.74709 15.4119 9.93661 15.8857C10.0945 16.3595 10.2841 16.8017 10.5683 17.1807C10.5999 17.2123 10.5999 17.2754 10.5683 17.307C10.5367 17.4018 10.442 17.4334 10.3472 17.4334C10.0945 17.1175 9.87343 16.7701 9.74709 16.3595C9.5576 15.9489 9.43126 15.5067 9.36808 15.0645C9.3365 14.8118 9.39968 14.5907 9.49441 14.3696C9.58918 14.1801 9.58918 14.1801 9.74709 14.3065C9.7787 14.338 9.7787 14.338 9.84185 14.3696Z" fill="white"/>
<path d="M14.3276 17.5281C14.6751 16.9596 14.9593 16.3595 15.1488 15.7278C15.1804 15.633 15.212 15.6647 15.2752 15.6962C15.4647 15.9173 15.5594 16.2016 15.5278 16.4858C15.4963 16.7069 15.4331 16.928 15.3383 17.1491C15.2436 17.3386 15.0541 17.4966 14.8646 17.5281C14.6751 17.5597 14.4856 17.5597 14.3276 17.5281Z" fill="white"/>
<path d="M9.77897 17.5282C9.39995 17.5913 9.05251 17.3387 8.98936 16.9596C8.86302 16.6754 8.83144 16.3279 8.92618 16.0437C8.95778 15.9173 9.02094 15.8226 9.1157 15.7278C9.17885 15.6646 9.21046 15.6331 9.21046 15.7594C9.39995 16.3595 9.65263 16.928 9.96849 17.465C10.0001 17.5282 10.0001 17.5597 9.90531 17.5597L9.77897 17.5282Z" fill="white"/>
<path d="M15.7173 9.25298C15.4646 8.87396 15.1803 8.52652 14.8329 8.21066C14.6434 8.05274 14.6434 8.02116 14.8013 7.83164C14.9908 7.61056 15.2119 7.42105 15.4646 7.26312C15.4962 7.29471 15.5277 7.35788 15.5593 7.38946C15.6857 7.70531 15.7488 8.05274 15.7488 8.3686C15.7804 8.52652 15.7804 8.71601 15.7804 8.90554C15.7804 9.06345 15.7804 9.15821 15.7173 9.25298Z" fill="white"/>
<path d="M8.89455 7.29462C9.17881 7.45254 9.46307 7.70522 9.65259 7.98948C9.68417 8.05264 9.71575 8.08425 9.65259 8.11582C9.27357 8.43166 8.92613 8.81068 8.67345 9.2213C8.6103 9.18972 8.57869 9.12654 8.57869 9.03178C8.54711 8.52642 8.6103 7.98948 8.76822 7.48413C8.76822 7.42096 8.83137 7.35779 8.89455 7.29462Z" fill="white"/>
<path d="M14.8323 7.4526C14.6112 7.54735 14.4217 7.67369 14.2322 7.83162C14.0742 8.02111 13.8216 8.0843 13.6005 7.95796C13.0319 7.70527 12.4002 7.61052 11.7685 7.70527C11.3263 7.73686 10.8842 7.8632 10.4736 8.0843C10.4104 8.11587 10.3788 8.11587 10.3472 8.05272C10.1261 7.8632 9.90504 7.67369 9.65236 7.51577C9.62079 7.48418 9.5576 7.4526 9.52602 7.4526C9.36811 7.32626 9.24177 7.19991 9.05225 7.07358C9.21019 7.10516 9.33653 7.13675 9.46287 7.2315C9.74712 7.38943 9.9998 7.57893 10.2525 7.80004C10.3156 7.89477 10.442 7.89477 10.5367 7.8632C11.579 7.38943 12.7793 7.38943 13.79 7.8632C13.8847 7.92638 13.9795 7.89477 14.0427 7.83162C14.3585 7.54735 14.7059 7.29467 15.0849 7.10516C15.1481 7.07358 15.1797 7.07358 15.2113 7.04199C15.2429 7.04199 15.2429 7.04199 15.2745 7.07358C15.1165 7.19991 14.9902 7.32626 14.8323 7.4526Z" fill="white"/>
<path d="M7.91571 14.338C7.91571 14.2433 7.94731 14.1485 8.01047 14.0538C8.10523 14.338 8.29473 14.6223 8.51583 14.8434C8.67374 15.0013 8.86326 15.1277 9.05276 15.2224C9.1791 15.2856 9.1791 15.3488 9.08436 15.4435C8.95803 15.5383 8.83169 15.6646 8.7685 15.7909C8.70535 15.7909 8.64216 15.7594 8.61059 15.7278C8.29473 15.4751 8.04205 15.0961 7.97889 14.6855C7.91571 14.5591 7.88413 14.4328 7.91571 14.338Z" fill="white"/>
<path d="M8.89474 7.29464C8.67364 7.86316 8.61048 8.4317 8.64206 9.03182C8.64206 9.09498 8.64206 9.15816 8.67364 9.22131C8.61048 9.34765 8.5473 9.50557 8.45256 9.66351C8.38938 9.53718 8.3578 9.41084 8.38938 9.2845C8.32623 8.71596 8.3578 8.14745 8.51572 7.57891C8.5473 7.51574 8.5789 7.45257 8.5789 7.35781C8.67364 7.13672 8.67364 7.13672 8.89474 7.29464Z" fill="#D1D2D4"/>
<path d="M15.7167 9.25289C15.7799 8.74753 15.7483 8.21057 15.6219 7.70522C15.5588 7.57888 15.5272 7.45255 15.4956 7.29462L15.5272 7.26304C15.7167 7.1367 15.7167 7.1367 15.8114 7.35779C15.9694 7.7684 16.0641 8.21057 16.0641 8.62119C16.0641 8.93703 16.0641 9.22129 16.001 9.53715C16.001 9.56873 15.9694 9.63191 15.9694 9.66349C15.8746 9.50557 15.7799 9.37923 15.7167 9.25289Z" fill="#D1D2D4"/>
<path d="M11.7373 16.9912C12.0216 17.1491 12.369 17.1491 12.6533 16.9912C12.6533 17.1491 12.6848 17.2755 12.6848 17.4334C12.6848 17.5281 12.6533 17.5281 12.5901 17.5281H11.832C11.7689 17.5281 11.7373 17.4966 11.7373 17.4334C11.7373 17.307 11.7373 17.1491 11.7373 16.9912Z" fill="white"/>
<path d="M7.91563 14.3381C7.94721 14.9382 8.26307 15.4436 8.73683 15.791C8.70525 15.8858 8.67367 15.9805 8.64209 16.0752C8.61049 16.1384 8.61049 16.17 8.54733 16.1069C8.01039 15.6962 7.75772 15.0014 7.91563 14.3381Z" fill="#DCDCDC"/>
<path d="M12.0531 15.5383C11.832 15.4751 11.7373 15.2225 11.8005 15.0329C11.8636 14.8118 12.1163 14.7171 12.3058 14.7803C12.3374 14.7803 12.369 14.8118 12.4006 14.8118C12.5585 15.0014 12.4953 15.3172 12.3058 15.4435C12.2426 15.5067 12.1479 15.5383 12.0531 15.5383Z" fill="#D1D2D4"/>
<path d="M9.74719 13.9906C9.71561 13.8643 9.74719 13.8643 9.84195 13.8959C10.4105 14.0854 10.979 14.2117 11.5791 14.2433C11.7686 14.2433 11.7686 14.2749 11.7686 14.4644C11.737 14.6223 11.6423 14.5276 11.5791 14.5591C11.5475 14.5591 11.5159 14.5276 11.5159 14.5276C11.5475 14.496 11.5475 14.496 11.5791 14.4644C10.9474 14.4328 10.3157 14.2749 9.74719 13.9906Z" fill="#923BD4"/>
<path d="M12.8425 14.5276C12.6214 14.5908 12.5898 14.5592 12.5898 14.3381C12.5898 14.2434 12.653 14.2118 12.7162 14.2118C13.1584 14.1802 13.6321 14.117 14.0743 13.9907C14.2323 13.9591 14.3902 13.8959 14.5165 13.8643C14.5797 13.8327 14.6113 13.8327 14.6113 13.9275C14.5165 14.0223 14.3902 14.117 14.2323 14.1486C13.7901 14.3065 13.3163 14.4329 12.8425 14.4644C12.8109 14.4644 12.7793 14.4329 12.8109 14.496C12.8425 14.496 12.8425 14.5276 12.8425 14.5276Z" fill="#923BD4"/>
<path d="M10.6633 17.307C10.9476 17.2438 11.2318 17.2754 11.4529 17.4333C11.4529 17.5913 11.3898 17.7176 11.2318 17.7492C11.0739 17.7808 10.916 17.7808 10.7581 17.7492C10.7581 17.686 10.8213 17.686 10.8528 17.686C10.7897 17.6228 10.7265 17.5597 10.6633 17.4965C10.6633 17.4333 10.6002 17.3702 10.6633 17.307Z" fill="#FCFCFA"/>
<path d="M12.9375 17.4333C13.1586 17.2754 13.4429 17.2438 13.7271 17.307C13.7903 17.3702 13.7587 17.4017 13.7271 17.4333C13.664 17.5281 13.5692 17.6228 13.4745 17.7176C13.3797 17.7808 13.2849 17.7492 13.1902 17.7492C13.0007 17.7176 12.9375 17.6228 12.9375 17.4333Z" fill="#FFFCFB"/>
<path d="M12.8433 14.5276C12.7801 14.496 12.6538 14.5592 12.6538 14.496C12.6538 14.4012 12.7801 14.4644 12.8433 14.4328C13.2855 14.3696 13.7593 14.2749 14.2015 14.1485C14.3594 14.0854 14.4857 14.0222 14.6437 13.9275C14.6752 14.0222 14.5805 14.0222 14.5173 14.0538C14.0751 14.2749 13.6329 14.4012 13.1276 14.4644C13.0328 14.496 12.9381 14.5276 12.8433 14.5276Z" fill="#923BD4"/>
<path d="M9.74707 13.9906C9.81023 13.959 9.84183 13.9906 9.87341 14.0222C10.3472 14.2433 10.8841 14.4012 11.4211 14.4328C11.5158 14.4328 11.6106 14.4328 11.6737 14.4644C11.7053 14.4644 11.7369 14.4644 11.7369 14.5276C11.7369 14.5592 11.7053 14.5592 11.6737 14.5592H11.5158C10.9473 14.5276 10.3472 14.3696 9.84183 14.117C9.77865 14.0538 9.74707 14.0222 9.74707 13.9906Z" fill="#923BD4"/>
<path d="M13.1274 17.7492C13.4117 17.7808 13.538 17.5281 13.696 17.3702V17.307H13.7591C13.8539 17.3386 13.9486 17.4018 14.0434 17.4333C13.8223 17.7492 13.4749 17.8439 13.1274 17.7492Z" fill="#D9D9D8"/>
<path d="M10.6638 17.307C10.727 17.4965 10.8849 17.5597 10.9797 17.686C10.9165 17.7492 10.8218 17.6544 10.7586 17.7492C10.5691 17.7176 10.4112 17.6228 10.3164 17.4649C10.3796 17.4333 10.4427 17.3702 10.5375 17.3386C10.5691 17.3386 10.6007 17.3386 10.6638 17.307Z" fill="#D9D9D9"/>
<path d="M12.0532 15.5383C12.4322 15.3804 12.4638 15.2856 12.3691 14.7803C12.5586 14.9066 12.6218 15.1593 12.527 15.3488C12.4638 15.5383 12.2427 15.6015 12.0532 15.5383Z" fill="#F9F8F6"/>
<path d="M12.211 14.4961C12.1162 14.4961 12.0215 14.5592 12.0215 14.4013C12.0215 14.275 12.0847 14.275 12.1794 14.275C12.2742 14.275 12.3689 14.2434 12.3689 14.4013C12.3689 14.5277 12.2426 14.4645 12.211 14.4961Z" fill="#C3C3C2"/>
<path d="M10.7583 17.7492C10.9162 17.7492 11.0742 17.7492 11.2321 17.7492C11.0742 17.7808 10.9162 17.7808 10.7583 17.7492Z" fill="#D9D9D9"/>
<path d="M9.55859 10.4848C9.55859 10.169 9.77966 9.9163 10.0955 9.9163C10.4114 9.88472 10.6956 10.1058 10.7272 10.4217C10.7588 10.5796 10.664 10.7691 10.5061 10.8323C10.285 10.927 10.0639 10.9586 9.81127 10.927C9.65332 10.8323 9.52698 10.6743 9.55859 10.4848Z" fill="#181D27"/>
<path d="M14.2965 10.9269C14.1701 10.9269 14.0754 10.8953 13.949 10.8638C13.7279 10.8006 13.57 10.5795 13.6332 10.3584C13.6332 10.3268 13.6648 10.2952 13.6648 10.2636C13.7595 10.011 14.0438 9.85304 14.3281 9.88462C14.6123 9.94778 14.8018 10.2005 14.8018 10.4847C14.8334 10.769 14.6439 10.9269 14.2965 10.9269Z" fill="#181D27"/>
<path d="M11.0428 9.28448C11.0428 9.47397 10.8849 9.63192 10.6954 9.63192C10.6638 9.63192 10.6638 9.63192 10.6322 9.63192C10.6006 9.63192 10.6006 9.63192 10.5691 9.60031C10.3164 9.56873 10.1585 9.4424 10.19 9.2529C10.2532 9.0318 10.4427 8.84228 10.6954 8.87388C10.8849 8.90546 11.0428 9.09496 11.0428 9.28448Z" fill="#FFFFFC"/>
<path d="M13.3486 9.2845C13.3486 9.0634 13.5066 8.90548 13.7277 8.8739C13.9803 8.8739 14.1699 9.03182 14.2014 9.2845C14.2014 9.37926 14.1699 9.47399 14.0751 9.53718C13.9172 9.66351 13.6961 9.66351 13.5066 9.60033C13.4118 9.5056 13.3486 9.41084 13.3486 9.2845Z" fill="#FFFFFC"/>
<path d="M11.5157 10.9269C11.7052 10.6742 12.021 10.5795 12.3053 10.6426C12.3685 10.6426 12.4632 10.6742 12.5264 10.7058C12.7475 10.7374 12.9054 10.9585 12.8738 11.1796C12.8423 11.3691 12.7475 11.5586 12.558 11.6218C12.4316 11.6849 12.4316 11.6849 12.5264 11.8113C12.7475 11.9376 12.8738 11.906 13.0318 11.7165C13.0949 11.6534 13.1265 11.5586 13.1581 11.4954C13.1897 11.4323 13.2529 11.4007 13.316 11.4323C13.316 11.4323 13.3476 11.4323 13.3476 11.4638C13.4108 11.4954 13.4423 11.5586 13.4108 11.6218C13.3476 11.8113 13.1897 11.9692 13.0318 12.064C12.9686 12.0955 12.937 12.1587 12.937 12.1903C12.9054 12.4114 12.8107 12.6325 12.6212 12.7904C12.4001 13.0431 12.021 13.0431 11.7684 12.822L11.7368 12.7904C11.5789 12.6325 11.4525 12.4114 11.4209 12.1587C11.4209 12.0955 11.3578 12.0324 11.3262 11.9692C11.1682 11.8745 11.0419 11.7165 10.9788 11.527C10.9472 11.4638 10.9472 11.4007 11.0103 11.3691C11.0735 11.3375 11.1367 11.3375 11.1682 11.4007V11.4323C11.1999 11.527 11.263 11.5902 11.2946 11.6534C11.3893 11.8113 11.6104 11.8429 11.7684 11.7481C11.7999 11.7481 11.7999 11.7165 11.8315 11.6849C11.8947 11.5902 11.8315 11.5902 11.7684 11.527C11.5789 11.4954 11.4525 11.2112 11.5157 10.9269Z" fill="#181D27"/>
<path d="M11.5164 10.9269C11.4848 11.3375 11.7059 11.527 12.0533 11.6534C12.0217 11.7166 11.9586 11.7481 11.8954 11.7481C11.548 11.6534 11.39 11.2744 11.5164 10.9269Z" fill="#CBCCCD"/>
<path d="M12.5273 11.8113C12.4641 11.7797 12.3693 11.7165 12.3062 11.685C12.5588 11.6218 12.7799 11.4323 12.8747 11.1796C12.9378 11.2744 12.9063 11.4323 12.8115 11.4954C12.7484 11.5902 12.6536 11.685 12.5588 11.7481C12.5273 11.7481 12.4957 11.7481 12.5273 11.8113Z" fill="#CCCECE"/>
<path d="M10.2217 10.1058C10.3164 10.1374 10.4111 10.1689 10.4111 10.2953C10.4111 10.39 10.348 10.4848 10.2532 10.4848C10.1585 10.4848 10.0637 10.39 10.0637 10.2953C10.0321 10.1689 10.0953 10.1058 10.2217 10.1058Z" fill="#F9F8F8"/>
<path d="M14.3595 10.2952C14.3595 10.39 14.2647 10.4531 14.17 10.4531C14.0752 10.4531 13.9805 10.3584 13.9805 10.2636C13.9805 10.1689 14.0437 10.0741 14.17 10.0741C14.2647 10.0741 14.3595 10.1689 14.3595 10.2952Z" fill="#F7F7F7"/>
<path d="M12.1796 11.1165C12.0849 11.1165 11.9585 11.1165 11.8638 11.0849C11.7374 11.0217 11.7374 10.8954 11.8322 10.8322C12.0533 10.7374 12.2744 10.7374 12.4955 10.8638C12.5902 10.927 12.5902 11.0533 12.4639 11.0849C12.4007 11.1165 12.306 11.148 12.1796 11.1165Z" fill="#D1D2D4"/>
<path d="M12.495 12.5378C12.4318 12.6957 12.2107 12.7904 12.0528 12.7273C11.958 12.6957 11.8949 12.6325 11.8633 12.5378C11.8633 12.5062 11.8949 12.4746 11.958 12.443C12.1475 12.3799 12.3371 12.4114 12.495 12.5378Z" fill="white"/>
<path d="M12.4956 12.5377C12.306 12.4746 12.0849 12.4746 11.8639 12.5377C11.8007 12.4746 11.7691 12.443 11.8955 12.4114C12.0849 12.3482 12.306 12.3482 12.5271 12.4114C12.6219 12.443 12.5271 12.5061 12.4956 12.5377Z" fill="#D1D2D4"/>
</g>
<defs>
<clipPath id="clip0_12361_597">
<rect width="24" height="24" fill="white"/>
</clipPath>
</defs>
</svg>
