<svg width="24" height="24" viewBox="0 0 24 24" fill="none" xmlns="http://www.w3.org/2000/svg">
<g clip-path="url(#clip0_12361_1133)">
<circle cx="12" cy="12" r="12" fill="#181D27"/>
<mask id="mask0_12361_1133" style="mask-type:alpha" maskUnits="userSpaceOnUse" x="0" y="0" width="24" height="24">
<circle cx="12" cy="12" r="11.5" fill="#181D27" stroke="white"/>
</mask>
<g mask="url(#mask0_12361_1133)">
<path opacity="0.8" fill-rule="evenodd" clip-rule="evenodd" d="M11.9998 27.0793L0.36002 3.36861L3.38965 1.88134L11.9998 19.4206L20.61 1.88134L23.6397 3.36861L11.9998 27.0793Z" fill="white"/>
</g>
<circle opacity="0.8" cx="12" cy="12" r="10.5" fill="#5CFFA2"/>
<circle cx="12" cy="12" r="9" fill="#181D27"/>
<g clip-path="url(#clip1_12361_1133)">
<path d="M12 18.5C15.5978 18.5 18.5 15.5978 18.5 12C18.5 8.40221 15.5738 5.5 12 5.5C8.40221 5.5 5.5 8.40221 5.5 12C5.5 15.5738 8.40221 18.5 12 18.5Z" fill="#181D27"/>
<path d="M17.0132 7.94647L15.7899 8.23429C14.9744 8.42618 14.2309 9.02581 14.063 10.1531C13.9191 11.1605 14.2548 11.5922 14.1109 12.7675C13.8471 14.8302 11.8803 15.5258 10.9689 15.9575L8.1626 17.2048C9.24193 17.9963 10.5611 18.476 12.0242 18.476C12.8782 18.4773 13.724 18.31 14.5132 17.9838C15.3023 17.6576 16.0194 17.1788 16.6232 16.575C17.2271 15.9712 17.7058 15.2541 18.032 14.4649C18.3582 13.6757 18.5255 12.8299 18.5242 11.976C18.5242 10.4409 17.9965 9.04979 17.1091 7.92249C17.0611 7.94647 17.0371 7.94647 17.0132 7.94647Z" fill="white"/>
<path d="M11.2565 11.0406C11.7601 9.96125 11.5683 9.96125 11.952 8.92989C12.4317 7.63469 13.9188 8.01845 14.3266 8.06642C14.9982 8.16236 15.19 7.92251 16.6052 7.68266C16.6771 7.68266 16.7491 7.65867 16.821 7.65867C15.6218 6.33948 13.8948 5.5 11.976 5.5C9.40959 5.5 7.17897 7.01107 6.12362 9.19373C8.28229 9.7214 10.5849 10.8727 11.2565 11.0406ZM9.84133 6.62731C10.0332 6.65129 10.9446 7.80258 11.1125 10.7288C11.1125 10.7288 9.93727 10.441 9.67343 9.84133C9.48155 9.33764 9.74539 8.66605 9.84133 6.62731ZM5.5 12C5.5 11.4723 5.57196 10.9686 5.6679 10.4889C5.92809 10.6987 6.17632 10.9229 6.41144 11.1605C8.11439 12.7196 10.8487 13.9668 11.8561 12.8155C11.6642 13.0554 10.9686 13.8229 9.64945 13.583L7.56273 16.7251C6.29151 15.5498 5.5 13.8708 5.5 12Z" fill="white"/>
</g>
</g>
<defs>
<clipPath id="clip0_12361_1133">
<rect width="24" height="24" fill="white"/>
</clipPath>
<clipPath id="clip1_12361_1133">
<rect width="13" height="13" fill="white" transform="translate(5.5 5.5)"/>
</clipPath>
</defs>
</svg>
