<svg width="24" height="24" viewBox="0 0 24 24" fill="none" xmlns="http://www.w3.org/2000/svg">
<g clip-path="url(#clip0_10784_8739)">
<circle cx="12" cy="12" r="12" fill="#181D27"/>
<mask id="mask0_10784_8739" style="mask-type:alpha" maskUnits="userSpaceOnUse" x="0" y="0" width="24" height="24">
<circle cx="12" cy="12" r="11.5" fill="#181D27" stroke="white"/>
</mask>
<g mask="url(#mask0_10784_8739)">
<path opacity="0.8" fill-rule="evenodd" clip-rule="evenodd" d="M11.9998 27.0794L0.36002 3.36864L3.38965 1.88136L11.9998 19.4206L20.61 1.88137L23.6397 3.36864L11.9998 27.0794Z" fill="white"/>
</g>
<circle opacity="0.8" cx="12" cy="12" r="10.5" fill="url(#paint0_linear_10784_8739)"/>
<circle cx="12" cy="12" r="9" fill="#181D27"/>
<path d="M16.0122 10.8977C16.1898 9.7156 15.286 9.08013 14.0501 8.6562L14.451 7.05489L13.4722 6.81197L13.082 8.37109C12.8246 8.30724 12.5604 8.24699 12.2978 8.1873L12.6908 6.61792L11.7126 6.375L11.3114 7.97576C11.0985 7.92745 10.8894 7.8797 10.6864 7.82945L10.6875 7.82445L9.3377 7.48881L9.07732 8.52989C9.07732 8.52989 9.80353 8.69563 9.7882 8.7059C10.1846 8.80445 10.2563 9.06569 10.2443 9.2728C9.1459 13.6595 10.2443 9.2728 9.1459 13.6595C9.09739 13.7794 8.97445 13.9593 8.69735 13.891C8.7071 13.9052 7.98591 13.7142 7.98591 13.7142L7.5 14.8299L8.77373 15.1461C9.01069 15.2053 9.24291 15.2672 9.47151 15.3255L9.06645 16.9451L10.0441 17.188L10.4453 15.5856C10.7123 15.6578 10.9716 15.7244 11.2253 15.7872L10.8255 17.3821L11.8043 17.625L12.2094 16.0084C13.8784 16.323 15.1335 16.1961 15.6618 14.6928C16.0874 13.4824 15.6406 12.7841 14.7624 12.3288C15.4019 12.182 15.8837 11.7631 16.0122 10.8977ZM13.7758 14.0207C13.4734 15.2311 11.4269 14.5767 10.7634 14.4127L11.3008 12.2669C11.9643 12.4318 14.092 12.7583 13.7758 14.0207ZM14.0786 10.8802C13.8026 11.9813 12.0993 11.4219 11.5467 11.2847L12.034 9.33859C12.5866 9.47574 14.366 9.7317 14.0786 10.8802Z" fill="white"/>
</g>
<defs>
<linearGradient id="paint0_linear_10784_8739" x1="22.2313" y1="18.1183" x2="-3.53296" y2="2.62136" gradientUnits="userSpaceOnUse">
<stop stop-color="#5433FF"/>
<stop offset="0.5" stop-color="#20BDFF"/>
<stop offset="1" stop-color="#5CFFA2"/>
</linearGradient>
<clipPath id="clip0_10784_8739">
<rect width="24" height="24" fill="white"/>
</clipPath>
</defs>
</svg>
