<svg width="24" height="24" viewBox="0 0 24 24" fill="none" xmlns="http://www.w3.org/2000/svg">
<g clip-path="url(#clip0_12379_252)">
<circle cx="12" cy="12" r="12" fill="#181D27"/>
<mask id="mask0_12379_252" style="mask-type:alpha" maskUnits="userSpaceOnUse" x="0" y="0" width="24" height="24">
<circle cx="12" cy="12" r="11.5" fill="#181D27" stroke="white"/>
</mask>
<g mask="url(#mask0_12379_252)">
<path opacity="0.8" fill-rule="evenodd" clip-rule="evenodd" d="M11.9998 27.0793L0.36002 3.36861L3.38965 1.88134L11.9998 19.4206L20.61 1.88134L23.6397 3.36861L11.9998 27.0793Z" fill="white"/>
</g>
<circle opacity="0.8" cx="12" cy="12" r="10.5" fill="#AAB3CA"/>
<circle cx="12" cy="12" r="9" fill="#181D27"/>
<path d="M17.8768 10.7939C17.7974 10.4078 17.6799 10.0306 17.5261 9.66769C17.3745 9.31024 17.1891 8.96812 16.9723 8.64602C16.7573 8.3278 16.5121 8.0311 16.2401 7.76004C15.9689 7.48798 15.672 7.24277 15.3536 7.02783C15.031 6.81213 14.6892 6.62674 14.3324 6.47403C13.5947 6.16113 12.8015 5.99988 12.0001 5.99988C11.1987 5.99988 10.4056 6.16113 9.66781 6.47403C8.95443 6.77494 8.30648 7.21191 7.76016 7.76054C7.48815 8.03144 7.24295 8.32798 7.02796 8.64602C6.81223 8.96876 6.62684 9.31078 6.47415 9.66769C6.16125 10.4054 6 11.1986 6 12C6 12.8014 6.16125 13.5945 6.47415 14.3323C6.6219 14.6891 6.81287 15.0273 7.02796 15.3535C7.24294 15.6718 7.48814 15.9687 7.76016 16.2399C8.03138 16.512 8.32825 16.7572 8.64665 16.9722C8.96626 17.1872 9.31101 17.3722 9.66781 17.526C10.4056 17.8389 11.1987 18.0001 12.0001 18.0001C12.8015 18.0001 13.5947 17.8389 14.3324 17.526C14.6892 17.3782 15.0274 17.1872 15.3536 16.9722C15.672 16.7572 15.9689 16.512 16.2401 16.2399C16.5121 15.9687 16.7573 15.6719 16.9723 15.3535C17.1874 15.0338 17.3723 14.6891 17.5261 14.3323C17.9995 13.2158 18.1218 11.9816 17.8768 10.7939ZM12.0056 17.2491C9.10748 17.2491 6.76312 14.8982 6.76312 12.006C6.76312 9.11389 9.11401 6.76299 12.0056 6.76299C14.8978 6.76299 17.2487 9.11389 17.2487 12.006C17.2487 14.8982 14.8983 17.2491 12.0056 17.2491Z" fill="white"/>
<path d="M12.0987 16.7938H12.2404C12.265 16.7938 12.2891 16.7938 12.3138 16.7873H12.3203C12.3449 16.7873 12.363 16.7873 12.3876 16.7812H12.4062C12.4248 16.7812 12.4434 16.7812 12.4615 16.7752H12.4801C12.4987 16.7752 12.5173 16.7692 12.5419 16.7692H12.554C12.5786 16.7692 12.6032 16.7626 12.6278 16.7626C12.6525 16.7626 12.6711 16.7566 12.6957 16.7506H12.7077C12.7263 16.7506 12.7449 16.7445 12.763 16.7445H12.7756C12.8002 16.738 12.8188 16.738 12.8434 16.732C12.8922 16.726 12.9414 16.7134 12.9846 16.7013H12.9972C13.0153 16.6953 13.0399 16.6953 13.0585 16.6888H13.0646C13.1138 16.6767 13.157 16.6641 13.2063 16.6521C12.7454 16.6667 12.2844 16.6233 11.8343 16.5229C11.1569 16.3752 10.5111 16.1108 9.96336 15.655C9.53152 15.2957 9.18495 14.8448 8.94872 14.335C8.71249 13.8253 8.59251 13.2694 8.59745 12.7076C8.60188 11.8695 8.90011 11.0595 9.44021 10.4185C10.1418 9.58784 11.1388 9.15063 12.16 9.126H12.3017V8.30786H12.1419C11.8312 8.31355 11.5219 8.35059 11.2187 8.41842C10.9136 8.48742 10.6166 8.58849 10.3327 8.71995C10.0433 8.85563 9.7724 9.02147 9.52012 9.21244C9.25943 9.4106 9.02205 9.6377 8.81254 9.88936C8.61527 10.1223 8.44406 10.3761 8.30196 10.6462C8.16137 10.9066 8.04787 11.1808 7.96324 11.4643C7.88023 11.7435 7.82468 12.0302 7.7974 12.3202L7.77881 12.5905V12.7503C7.78484 13.0644 7.82203 13.372 7.88937 13.6735C7.95721 13.9816 8.06174 14.2766 8.19089 14.56C8.34517 14.8982 8.62208 15.3967 9.03416 15.7721C9.87557 16.4354 10.9162 16.7954 11.9876 16.7938H12.0987Z" fill="white"/>
<path d="M13.4397 16.0058C13.1362 15.995 12.8339 15.962 12.5351 15.9073C11.2677 15.6797 10.1782 14.9042 9.7787 13.7353C9.29224 12.3136 10.037 10.7753 11.4522 10.308C11.7219 10.2176 12.0045 10.1718 12.2889 10.1723C12.6522 10.1723 13.0151 10.2462 13.3478 10.3813L13.692 9.64914C13.5885 9.60764 13.4839 9.56876 13.3784 9.53256C13.0258 9.4219 12.6584 9.3658 12.2889 9.36621C11.9187 9.36691 11.551 9.42714 11.1999 9.54462C10.7518 9.69241 10.3391 9.93126 9.98776 10.2462C9.8183 10.3971 9.66381 10.5641 9.52642 10.7447C9.39061 10.9232 9.27309 11.115 9.17565 11.3171C8.97722 11.7233 8.86011 12.1645 8.8309 12.6157C8.80025 13.083 8.86156 13.5504 9.01534 13.9936C9.17202 14.4496 9.42383 14.867 9.75407 15.2183C10.0556 15.5445 10.4064 15.7907 10.8305 16.0184C11.2738 16.2521 11.8215 16.3752 12.3934 16.4556C12.7628 16.5043 13.2553 16.5169 13.5443 16.5169C13.7965 16.4244 13.9011 16.3812 14.0367 16.3259C14.1538 16.2706 14.2704 16.2154 14.3875 16.1475C14.5046 16.0797 14.5232 16.0671 14.7197 15.9385C14.7372 15.9276 14.7537 15.9151 14.7689 15.9013C14.092 16.0184 13.9197 16.0118 13.4397 16.0058Z" fill="white"/>
<path d="M14.9547 15.089C14.7637 15.1011 14.4928 15.1192 14.1853 15.1192C13.6375 15.1192 12.9666 15.0704 12.3947 14.8794C11.5082 14.5844 10.6715 13.8276 10.6715 12.8919C10.6713 12.6704 10.7148 12.4511 10.7994 12.2464C10.8841 12.0418 11.0083 11.8558 11.1649 11.6992C11.3215 11.5426 11.5074 11.4184 11.7121 11.3338C11.9167 11.2491 12.1361 11.2057 12.3575 11.2059C12.9912 11.2059 13.539 11.5566 13.8285 12.0672L14.5607 11.7044C14.4459 11.4882 14.2984 11.2911 14.1235 11.1199C13.8917 10.8877 13.6164 10.7035 13.3133 10.5778C13.0102 10.4521 12.6854 10.3875 12.3573 10.3875C12.0292 10.3875 11.7043 10.4521 11.4013 10.5778C11.0982 10.7035 10.8229 10.8877 10.5911 11.1199C10.359 11.3517 10.1748 11.627 10.0492 11.93C9.92355 12.233 9.85889 12.5578 9.85889 12.8859C9.86053 13.2296 9.93414 13.5693 10.075 13.8829C10.2036 14.1658 10.3825 14.4307 10.6102 14.6769C11.0102 15.1071 11.5575 15.4518 12.1424 15.6488C12.7023 15.8333 13.5269 15.9011 14.327 15.8458C14.5481 15.8272 14.7145 15.8086 14.9974 15.7473C15.2704 15.5319 15.5182 15.2862 15.7361 15.0151C15.5452 15.0337 15.1944 15.0704 14.9547 15.089Z" fill="white"/>
</g>
<defs>
<clipPath id="clip0_12379_252">
<rect width="24" height="24" fill="white"/>
</clipPath>
</defs>
</svg>
