<svg width="24" height="24" viewBox="0 0 24 24" fill="none" xmlns="http://www.w3.org/2000/svg">
<g clip-path="url(#clip0_10784_8754)">
<circle cx="12" cy="12" r="12" fill="#181D27"/>
<mask id="mask0_10784_8754" style="mask-type:alpha" maskUnits="userSpaceOnUse" x="0" y="0" width="24" height="24">
<circle cx="12" cy="12" r="11.5" fill="#181D27" stroke="white"/>
</mask>
<g mask="url(#mask0_10784_8754)">
<path opacity="0.8" fill-rule="evenodd" clip-rule="evenodd" d="M11.9998 27.0794L0.36002 3.36864L3.38965 1.88136L11.9998 19.4206L20.61 1.88137L23.6397 3.36864L11.9998 27.0794Z" fill="white"/>
</g>
<circle opacity="0.8" cx="12" cy="12" r="10.5" fill="url(#paint0_linear_10784_8754)"/>
<circle cx="12" cy="12" r="9" fill="#181D27"/>
<path d="M12.2265 6.375C11.0738 6.37928 9.96945 6.83527 9.15431 7.64356C8.33917 8.45185 7.87931 9.5469 7.875 10.69C7.87494 11.1666 7.95238 11.6401 8.10432 12.0922C8.15887 12.2402 8.26843 12.3619 8.41055 12.4324C8.55267 12.5028 8.71658 12.5167 8.8687 12.4712C9.01634 12.4156 9.13699 12.3061 9.20599 12.1653C9.275 12.0244 9.28715 11.8627 9.23998 11.7132C9.11073 11.3616 9.05319 10.988 9.07072 10.6142C9.08878 10.0107 9.28342 9.42543 9.63095 8.92967C9.97848 8.43391 10.4639 8.04906 11.0281 7.82199C11.5922 7.59492 12.2108 7.53543 12.8085 7.65076C13.4062 7.7661 13.9571 8.05128 14.3942 8.47158C14.8314 8.89187 15.1358 9.42915 15.2705 10.018C15.4052 10.6068 15.3642 11.2217 15.1527 11.7879C14.9412 12.354 14.5683 12.847 14.0793 13.2067C13.5903 13.5664 13.0063 13.7774 12.3985 13.8139C12.3985 13.8139 11.7898 13.8518 11.484 13.8897C11.3719 13.9054 11.2607 13.9271 11.1509 13.9547C11.1431 13.9605 11.1333 13.9634 11.1235 13.9627C11.1136 13.962 11.1044 13.9578 11.0974 13.9509C11.0905 13.944 11.0862 13.9348 11.0855 13.925C11.0848 13.9153 11.0877 13.9056 11.0936 13.8978L11.1892 13.3862L11.7625 10.8118C11.7954 10.6585 11.7656 10.4985 11.6796 10.3671C11.5936 10.2356 11.4584 10.1434 11.3038 10.1107C11.1492 10.078 10.9879 10.1076 10.8553 10.1929C10.7227 10.2782 10.6297 10.4122 10.5968 10.5655C10.5968 10.5655 9.23179 16.8512 9.23179 16.908C9.21299 16.9839 9.21 17.0627 9.22301 17.1397C9.23601 17.2167 9.26473 17.2903 9.30741 17.356C9.35009 17.4216 9.40583 17.4779 9.47122 17.5214C9.53661 17.565 9.61027 17.5948 9.68769 17.6091C9.76435 17.6273 9.84394 17.6299 9.92162 17.6167C9.99931 17.6034 10.0735 17.5747 10.1396 17.5321C10.2057 17.4896 10.2625 17.4342 10.3063 17.3692C10.3502 17.3043 10.3803 17.2312 10.3947 17.1544C10.4139 17.0786 10.5858 16.2448 10.5858 16.2448C10.6492 15.9379 10.8059 15.6576 11.0348 15.4418C11.2637 15.2259 11.5539 15.0848 11.8662 15.0375C11.9972 15.0185 12.5514 14.9806 12.5514 14.9806C13.6589 14.8791 14.685 14.3607 15.4189 13.5321C16.1528 12.7034 16.5386 11.6274 16.497 10.5253C16.4553 9.42326 15.9895 8.37888 15.1952 7.60692C14.4009 6.83497 13.3386 6.39411 12.2265 6.375Z" fill="white"/>
<path d="M13.196 16.2019C13.1039 16.1832 13.009 16.1829 12.9168 16.2011C12.8246 16.2192 12.7369 16.2555 12.6587 16.3077C12.5805 16.36 12.5134 16.4272 12.4612 16.5056C12.409 16.5839 12.3728 16.6718 12.3546 16.7642C12.3348 16.8566 12.3337 16.9521 12.3513 17.0449C12.369 17.1377 12.405 17.2261 12.4573 17.3047C12.5096 17.3834 12.5771 17.4507 12.6558 17.5027C12.7345 17.5548 12.8228 17.5904 12.9155 17.6077C13.0076 17.6287 13.103 17.6306 13.1959 17.6134C13.2888 17.5962 13.3772 17.5601 13.4557 17.5075C13.5342 17.4549 13.6012 17.3868 13.6525 17.3073C13.7039 17.2278 13.7385 17.1387 13.7543 17.0454C13.7858 16.86 13.7456 16.6695 13.6419 16.5128C13.5381 16.3561 13.3787 16.2449 13.196 16.2019Z" fill="white"/>
</g>
<defs>
<linearGradient id="paint0_linear_10784_8754" x1="22.2313" y1="18.1183" x2="-3.53296" y2="2.62136" gradientUnits="userSpaceOnUse">
<stop stop-color="#5433FF"/>
<stop offset="0.5" stop-color="#20BDFF"/>
<stop offset="1" stop-color="#5CFFA2"/>
</linearGradient>
<clipPath id="clip0_10784_8754">
<rect width="24" height="24" fill="white"/>
</clipPath>
</defs>
</svg>
