<svg width="24" height="24" viewBox="0 0 24 24" fill="none" xmlns="http://www.w3.org/2000/svg">
<g clip-path="url(#clip0_12574_288)">
<circle cx="12" cy="12" r="12" fill="#181D27"/>
<mask id="mask0_12574_288" style="mask-type:alpha" maskUnits="userSpaceOnUse" x="0" y="0" width="24" height="24">
<circle cx="12" cy="12" r="11.5" fill="#181D27" stroke="white"/>
</mask>
<g mask="url(#mask0_12574_288)">
<path opacity="0.8" fill-rule="evenodd" clip-rule="evenodd" d="M11.9998 27.0794L0.36002 3.36863L3.38965 1.88136L11.9998 19.4206L20.61 1.88136L23.6397 3.36863L11.9998 27.0794Z" fill="white"/>
</g>
<circle opacity="0.8" cx="12" cy="12" r="10.5" fill="url(#paint0_linear_12574_288)"/>
<circle cx="12" cy="12" r="9" fill="#181D27"/>
<path d="M16.1387 9.98318C16.0745 8.70755 15.0171 8.22684 13.6618 8.02317L13.7394 6.27524L12.6878 6.21894L12.6117 7.93343C12.3351 7.91865 12.053 7.90353 11.7705 7.89959L11.847 6.17667L10.8008 6.12067L10.7227 7.87974C10.4955 7.86759 10.2709 7.85554 10.0518 7.84383L8.58941 7.76553L8.53864 8.90947C8.53864 8.90947 9.31699 8.93718 9.30265 8.95041C9.59446 8.93253 9.85083 9.15551 9.8788 9.45273L9.66497 14.2679C9.65504 14.3678 9.60428 14.4599 9.52736 14.5228C9.45048 14.5856 9.3504 14.6138 9.25218 14.6002C9.26534 14.612 8.48812 14.5592 8.48812 14.5592L8.22323 15.8256L10.3484 15.9394L10.269 17.7263L11.3206 17.7826L11.3987 16.0236C11.6781 16.0385 11.9601 16.0536 12.2394 16.0686L12.1617 17.8193L13.216 17.8758L13.2945 16.1083C15.0767 16.0949 16.337 15.716 16.5655 14.0319C16.7519 12.6776 16.149 12.0371 15.1521 11.7383C15.7798 11.451 16.1906 10.915 16.1387 9.98318ZM14.4965 13.7063C14.4375 15.034 12.2041 14.7637 11.492 14.7256L11.5967 12.3682C12.3086 12.409 14.558 12.3202 14.4965 13.7063ZM14.1566 10.357C14.1026 11.5732 12.2388 11.3228 11.6473 11.2912L11.7424 9.15078C12.3338 9.18522 14.2127 9.09329 14.1566 10.357Z" fill="white"/>
</g>
<defs>
<linearGradient id="paint0_linear_12574_288" x1="22.2313" y1="18.1183" x2="-3.53296" y2="2.62136" gradientUnits="userSpaceOnUse">
<stop stop-color="#5433FF"/>
<stop offset="0.5" stop-color="#20BDFF"/>
<stop offset="1" stop-color="#5CFFA2"/>
</linearGradient>
<clipPath id="clip0_12574_288">
<rect width="24" height="24" fill="white"/>
</clipPath>
</defs>
</svg>
