<svg width="24" height="24" viewBox="0 0 24 24" fill="none" xmlns="http://www.w3.org/2000/svg">
<g clip-path="url(#clip0_12574_246)">
<circle cx="12" cy="12" r="12" fill="#181D27"/>
<mask id="mask0_12574_246" style="mask-type:alpha" maskUnits="userSpaceOnUse" x="0" y="0" width="24" height="24">
<circle cx="12" cy="12" r="11.5" fill="#181D27" stroke="white"/>
</mask>
<g mask="url(#mask0_12574_246)">
<path opacity="0.8" fill-rule="evenodd" clip-rule="evenodd" d="M11.9998 27.0794L0.36002 3.36863L3.38965 1.88136L11.9998 19.4206L20.61 1.88136L23.6397 3.36863L11.9998 27.0794Z" fill="white"/>
</g>
<circle opacity="0.8" cx="12" cy="12" r="10.5" fill="url(#paint0_linear_12574_246)"/>
<circle cx="12" cy="12" r="9" fill="#181D27"/>
<path d="M17.2416 11.9996C17.2416 10.9336 16.9213 9.94168 16.3727 9.11287L18 7.48564L16.5365 6.02224L14.9136 7.64502C14.0803 7.08532 13.078 6.75839 12.0007 6.75839C10.9346 6.75839 9.94267 7.07864 9.1138 7.62723L7.48573 6L6.02224 7.4634L7.64513 9.08618C7.08538 9.91944 6.75843 10.9217 6.75843 11.9989C6.75843 13.0649 7.07871 14.0568 7.62733 14.8856L6 16.5136L7.46349 17.977L9.08637 16.3542C9.91968 16.9139 10.922 17.2409 11.9993 17.2409C13.0654 17.2409 14.0573 16.9206 14.8862 16.372L16.5143 18L17.9778 16.5366L16.3549 14.9138C16.9146 14.0791 17.2416 13.0768 17.2416 11.9996ZM8.82911 11.9996C8.82911 10.2508 10.2518 8.8282 12.0007 8.8282C13.7497 8.8282 15.1724 10.2508 15.1724 11.9996C15.1724 13.7484 13.7497 15.1711 12.0007 15.1711C10.2518 15.1711 8.82911 13.7484 8.82911 11.9996Z" fill="white"/>
</g>
<defs>
<linearGradient id="paint0_linear_12574_246" x1="22.2313" y1="18.1183" x2="-3.53296" y2="2.62136" gradientUnits="userSpaceOnUse">
<stop stop-color="#5433FF"/>
<stop offset="0.5" stop-color="#20BDFF"/>
<stop offset="1" stop-color="#5CFFA2"/>
</linearGradient>
<clipPath id="clip0_12574_246">
<rect width="24" height="24" fill="white"/>
</clipPath>
</defs>
</svg>
