<svg width="24" height="24" viewBox="0 0 24 24" fill="none" xmlns="http://www.w3.org/2000/svg">
<g clip-path="url(#clip0_12682_3492)">
<circle cx="12" cy="12" r="12" fill="#181D27"/>
<mask id="mask0_12682_3492" style="mask-type:alpha" maskUnits="userSpaceOnUse" x="0" y="0" width="24" height="24">
<circle cx="12" cy="12" r="11.5" fill="#181D27" stroke="white"/>
</mask>
<g mask="url(#mask0_12682_3492)">
<path opacity="0.8" fill-rule="evenodd" clip-rule="evenodd" d="M12 27.0794L0.360203 3.36864L3.38983 1.88137L12 19.4206L20.6102 1.88137L23.6398 3.36864L12 27.0794Z" fill="white"/>
</g>
<circle opacity="0.8" cx="12" cy="12" r="10.5" fill="url(#paint0_linear_12682_3492)"/>
<circle cx="12" cy="12" r="9" fill="#181D27"/>
<path d="M3.99995 11.9906C4.00013 13.2578 4.30167 14.5068 4.87967 15.6344C5.45768 16.7621 6.29558 17.7361 7.3242 18.4762C8.35283 19.2161 9.54268 19.7008 10.7956 19.8902C12.0485 20.0797 13.3284 19.9684 14.5298 19.5656C15.7312 19.1628 16.8196 18.48 17.7051 17.5736C18.5905 16.6672 19.2478 15.5632 19.6225 14.3527C19.9973 13.1422 20.0788 11.8599 19.8603 10.6117C19.6419 9.36346 19.1296 8.1851 18.366 7.17387L17.9979 7.42797L16.3903 8.53759L16.3946 8.54346L12.5892 11.1915V14.3877L17.5148 11.1132C17.642 11.9205 17.5908 12.746 17.3647 13.5314C17.1386 14.3168 16.7432 15.0431 16.2062 15.6592C15.6692 16.2753 15.0037 16.7662 14.2566 17.0975C13.5094 17.4287 12.6989 17.5921 11.8818 17.5763C11.0647 17.5605 10.261 17.3658 9.52722 17.006C8.79348 16.646 8.14751 16.1297 7.63476 15.4933C7.12202 14.8569 6.75496 14.1158 6.55942 13.3223C6.36388 12.5287 6.3446 11.702 6.50296 10.9002L11.3907 14.3877V11.1915L7.64126 8.47474L7.64979 8.46409L6.06883 7.33315L5.69597 7.06679C4.59445 8.47138 3.99711 10.2056 3.99995 11.9906ZM11.99 4.00001C9.95469 3.99725 7.99564 4.77403 6.51521 6.17078L8.52124 7.60323C9.52295 6.81109 10.7655 6.38561 12.0426 6.39753C13.3195 6.40944 14.554 6.85803 15.5407 7.66875L17.5681 6.26933C16.0773 4.81206 14.0746 3.99733 11.99 4.00001Z" fill="white"/>
<g clip-path="url(#clip1_12682_3492)">
<g clip-path="url(#clip2_12682_3492)">
<path d="M19 24C21.7708 24 24 21.7708 24 19C24 16.2292 21.7708 14 19 14C16.2292 14 14 16.2292 14 19C14 21.7708 16.2292 24 19 24Z" fill="#2775CA"/>
<path d="M20.375 19.7396C20.375 19.0104 19.9375 18.7604 19.0625 18.6563C18.4375 18.5729 18.3125 18.4063 18.3125 18.1146C18.3125 17.8229 18.5209 17.6354 18.9375 17.6354C19.3125 17.6354 19.5209 17.7604 19.625 18.0729C19.6459 18.1354 19.7084 18.1771 19.7709 18.1771H20.1042C20.1875 18.1771 20.25 18.1146 20.25 18.0313V18.0104C20.1667 17.5521 19.7917 17.1979 19.3125 17.1563V16.6563C19.3125 16.5729 19.25 16.5104 19.1459 16.4896H18.8334C18.75 16.4896 18.6875 16.5521 18.6667 16.6563V17.1354C18.0417 17.2188 17.6459 17.6354 17.6459 18.1563C17.6459 18.8438 18.0625 19.1146 18.9375 19.2188C19.5209 19.3229 19.7084 19.4479 19.7084 19.7813C19.7084 20.1146 19.4167 20.3438 19.0209 20.3438C18.4792 20.3438 18.2917 20.1146 18.2292 19.8021C18.2084 19.7188 18.1459 19.6771 18.0834 19.6771H17.7292C17.6459 19.6771 17.5834 19.7396 17.5834 19.8229V19.8438C17.6667 20.3646 18 20.7396 18.6875 20.8438V21.3438C18.6875 21.4271 18.75 21.4896 18.8542 21.5104H19.1667C19.25 21.5104 19.3125 21.4479 19.3334 21.3438V20.8438C19.9584 20.7396 20.375 20.3021 20.375 19.7396Z" fill="white"/>
<path d="M17.9375 21.9166C16.3125 21.3333 15.4792 19.5208 16.0834 17.9166C16.3959 17.0416 17.0834 16.375 17.9375 16.0625C18.0209 16.0208 18.0625 15.9583 18.0625 15.8541V15.5625C18.0625 15.4791 18.0209 15.4166 17.9375 15.3958C17.9167 15.3958 17.875 15.3958 17.8542 15.4166C15.875 16.0416 14.7917 18.1458 15.4167 20.125C15.7917 21.2916 16.6875 22.1875 17.8542 22.5625C17.9375 22.6041 18.0209 22.5625 18.0417 22.4791C18.0625 22.4583 18.0625 22.4375 18.0625 22.3958V22.1041C18.0625 22.0416 18 21.9583 17.9375 21.9166ZM20.1459 15.4166C20.0625 15.375 19.9792 15.4166 19.9584 15.5C19.9375 15.5208 19.9375 15.5416 19.9375 15.5833V15.875C19.9375 15.9583 20 16.0416 20.0625 16.0833C21.6875 16.6666 22.5209 18.4791 21.9167 20.0833C21.6042 20.9583 20.9167 21.625 20.0625 21.9375C19.9792 21.9791 19.9375 22.0416 19.9375 22.1458V22.4375C19.9375 22.5208 19.9792 22.5833 20.0625 22.6041C20.0834 22.6041 20.125 22.6041 20.1459 22.5833C22.125 21.9583 23.2084 19.8541 22.5834 17.875C22.2084 16.6875 21.2917 15.7916 20.1459 15.4166Z" fill="white"/>
</g>
</g>
<g clip-path="url(#clip3_12682_3492)">
<circle cx="13" cy="19.0497" r="5" fill="#EDEFF0"/>
<path opacity="0.6" d="M12.9985 20.5752L15.4 19.1236L12.9985 18.009L10.6 19.1236L12.9985 20.5752Z" fill="black"/>
<path opacity="0.45" d="M12.9985 18.009V15.0497L10.6 19.1236L12.9985 20.5752V18.009Z" fill="black"/>
<path opacity="0.8" d="M12.9985 20.5752L15.4 19.1236L12.9985 15.0497V18.009V20.5752Z" fill="black"/>
<path opacity="0.45" d="M12.9985 21.0393L10.6 19.5907L12.9985 23.0497V21.0393Z" fill="black"/>
<path opacity="0.8" d="M15.4 19.5907L12.9985 21.0393V23.0497L15.4 19.5907Z" fill="black"/>
</g>
</g>
<defs>
<linearGradient id="paint0_linear_12682_3492" x1="22.2313" y1="18.1183" x2="-3.53296" y2="2.62136" gradientUnits="userSpaceOnUse">
<stop stop-color="#5433FF"/>
<stop offset="0.5" stop-color="#20BDFF"/>
<stop offset="1" stop-color="#5CFFA2"/>
</linearGradient>
<clipPath id="clip0_12682_3492">
<rect width="24" height="24" fill="white"/>
</clipPath>
<clipPath id="clip1_12682_3492">
<rect width="10" height="10" fill="white" transform="translate(14 14)"/>
</clipPath>
<clipPath id="clip2_12682_3492">
<rect width="10" height="10" fill="white" transform="translate(14 14)"/>
</clipPath>
<clipPath id="clip3_12682_3492">
<rect width="10" height="10" fill="white" transform="translate(8 14.0497)"/>
</clipPath>
</defs>
</svg>
