<svg width="24" height="24" viewBox="0 0 24 24" fill="none" xmlns="http://www.w3.org/2000/svg">
<g clip-path="url(#clip0_12317_2835)">
<circle cx="12" cy="12" r="12" fill="#181D27"/>
<mask id="mask0_12317_2835" style="mask-type:alpha" maskUnits="userSpaceOnUse" x="0" y="0" width="24" height="24">
<circle cx="12" cy="12" r="11.5" fill="#181D27" stroke="white"/>
</mask>
<g mask="url(#mask0_12317_2835)">
<path opacity="0.8" fill-rule="evenodd" clip-rule="evenodd" d="M11.9998 27.0794L0.36002 3.36863L3.38965 1.88136L11.9998 19.4206L20.61 1.88136L23.6397 3.36863L11.9998 27.0794Z" fill="white"/>
</g>
<circle opacity="0.8" cx="12" cy="12" r="10.5" fill="url(#paint0_linear_12317_2835)"/>
<circle cx="12" cy="12" r="9" fill="#181D27"/>
<path d="M8.64395 14.9278C7.96795 14.9278 7.41445 14.7761 6.98345 14.4727C6.55698 14.165 6.34375 13.7229 6.34375 13.1551C6.34375 13.0337 6.35736 12.8907 6.38458 12.7173C6.45717 12.3272 6.56152 11.8591 6.69763 11.3087C7.08326 9.81767 8.08138 9.07217 9.68743 9.07217C10.123 9.07217 10.5177 9.14152 10.8625 9.28455C11.2073 9.41892 11.4795 9.62696 11.6791 9.90436C11.8787 10.1774 11.9786 10.5025 11.9786 10.8796C11.9786 10.9923 11.9649 11.1353 11.9377 11.3087C11.8515 11.7898 11.7517 12.2622 11.6292 12.7173C11.4296 13.4585 11.0893 14.0176 10.5993 14.386C10.1139 14.7501 9.46059 14.9278 8.64395 14.9278ZM8.76645 13.7575C9.08403 13.7575 9.3517 13.6665 9.57401 13.4888C9.80085 13.3111 9.96418 13.0381 10.0595 12.6653C10.191 12.1539 10.2908 11.7118 10.3589 11.3303C10.3816 11.2177 10.3952 11.1006 10.3952 10.9793C10.3952 10.4852 10.1275 10.2381 9.58762 10.2381C9.27004 10.2381 8.99783 10.3291 8.77098 10.5068C8.54867 10.6845 8.38988 10.9576 8.29461 11.3303C8.19026 11.6944 8.09045 12.1365 7.9861 12.6653C7.96342 12.7737 7.94981 12.8864 7.94981 13.0077C7.94527 13.5105 8.22202 13.7575 8.76645 13.7575Z" fill="white"/>
<path d="M12.3731 14.8498C12.3096 14.8498 12.2642 14.8325 12.2279 14.7935C12.2007 14.7501 12.1916 14.7025 12.2007 14.6461L13.3757 9.35827C13.3848 9.29759 13.4166 9.24991 13.471 9.2109C13.5209 9.17189 13.5753 9.15456 13.6343 9.15456H15.8982C16.5289 9.15456 17.0324 9.28025 17.4135 9.52731C17.7992 9.7787 17.9943 10.1384 17.9943 10.6109C17.9943 10.7452 17.9761 10.8883 17.9444 11.0356C17.8037 11.6598 17.5179 12.1192 17.0824 12.4183C16.6559 12.7173 16.0706 12.8647 15.3266 12.8647H14.1787L13.7886 14.6461C13.775 14.7068 13.7477 14.7545 13.6933 14.7935C13.6434 14.8325 13.589 14.8498 13.53 14.8498H12.3731ZM15.3856 11.7421C15.626 11.7421 15.8302 11.6815 16.0071 11.5558C16.1886 11.4301 16.3065 11.2524 16.3655 11.0183C16.3837 10.9273 16.3927 10.8449 16.3927 10.7756C16.3927 10.6195 16.3428 10.4982 16.2476 10.4158C16.1523 10.3292 15.9844 10.2858 15.753 10.2858H14.7322L14.4101 11.7421H15.3856Z" fill="white"/>
</g>
<defs>
<linearGradient id="paint0_linear_12317_2835" x1="22.2313" y1="18.1183" x2="-3.53296" y2="2.62136" gradientUnits="userSpaceOnUse">
<stop stop-color="#5433FF"/>
<stop offset="0.5" stop-color="#20BDFF"/>
<stop offset="1" stop-color="#5CFFA2"/>
</linearGradient>
<clipPath id="clip0_12317_2835">
<rect width="24" height="24" fill="white"/>
</clipPath>
</defs>
</svg>
