<svg width="24" height="24" viewBox="0 0 24 24" fill="none" xmlns="http://www.w3.org/2000/svg">
<g clip-path="url(#clip0_12378_196)">
<circle cx="12" cy="12" r="12" fill="#181D27"/>
<mask id="mask0_12378_196" style="mask-type:alpha" maskUnits="userSpaceOnUse" x="0" y="0" width="24" height="24">
<circle cx="12" cy="12" r="11.5" fill="#181D27" stroke="white"/>
</mask>
<g mask="url(#mask0_12378_196)">
<path opacity="0.8" fill-rule="evenodd" clip-rule="evenodd" d="M11.9998 27.0793L0.36002 3.36861L3.38965 1.88134L11.9998 19.4206L20.61 1.88134L23.6397 3.36861L11.9998 27.0793Z" fill="white"/>
</g>
<circle opacity="0.8" cx="12" cy="12" r="10.5" fill="#F57842"/>
<circle cx="12" cy="12" r="9" fill="#181D27"/>
<g clip-path="url(#clip1_12378_196)">
<path d="M15.8544 12.6884V12.641C15.4314 12.3086 14.9143 12.1662 14.3972 12.1662C13.8801 12.2137 13.363 12.4511 12.9869 12.8309C12.6108 13.2107 12.4228 13.7329 12.3758 14.2552C12.3288 14.7774 12.5168 15.3471 12.8459 15.727C14.4442 15.2522 15.7134 14.0653 15.8544 12.6884Z" fill="white"/>
<path fill-rule="evenodd" clip-rule="evenodd" d="M10.5425 13.0208C10.5425 13.4956 10.6365 13.9703 10.8245 14.3976C11.0126 14.8249 11.2476 15.2047 11.5767 15.5371C11.8117 15.5845 12.0468 15.632 12.2818 15.632C11.9057 15.1098 11.7177 14.4926 11.7647 13.8279C11.8117 13.2107 12.0938 12.5935 12.5168 12.1662C12.9869 11.7389 13.551 11.4541 14.1621 11.4066C14.7732 11.3591 15.3844 11.5965 15.9015 11.9763C15.9015 11.0742 15.6664 10.4096 15.4314 9.98228C15.3844 9.88733 15.3374 9.79237 15.2903 9.69742C14.7733 9.50751 14.2091 9.41256 13.645 9.46004C13.0809 9.50751 12.5638 9.7449 12.0938 10.0772C11.6237 10.4096 11.2476 10.8369 10.9656 11.3591C10.6835 11.8814 10.5425 12.4511 10.5425 13.0208Z" fill="white"/>
<path fill-rule="evenodd" clip-rule="evenodd" d="M8.38007 9.08023C7.62794 9.60247 7.01683 10.3621 6.73478 11.2642C6.68777 11.4541 6.59375 11.6915 6.59375 11.8814C6.59375 11.9288 6.59375 11.9763 6.59375 12.0238C6.59375 13.1632 6.92281 14.3027 7.53392 15.2522C7.90999 15.4896 9.03819 16.0118 11.2006 16.0118C11.7647 16.0118 12.3758 15.9169 12.9399 15.727C12.7519 15.7745 12.5638 15.7745 12.3288 15.7745C11.3886 15.7745 10.4955 15.3946 9.83734 14.7774C9.13221 14.1128 8.75614 13.2107 8.66213 12.2612C8.56811 11.3116 8.89717 10.3621 9.46127 9.60247C10.0254 8.84284 10.8715 8.36808 11.8117 8.22565C11.7647 8.22565 11.6707 8.22565 11.6237 8.22565C10.7305 8.27312 9.41426 8.41555 8.38007 9.08023Z" fill="white"/>
<path fill-rule="evenodd" clip-rule="evenodd" d="M8.94431 7.18114C6.92294 8.70039 6.64089 10.7419 6.54688 11.454C6.59388 11.2641 6.6879 11.0742 6.78192 10.8843C6.92294 10.5995 7.06397 10.3146 7.252 10.0772C7.53405 9.69741 7.91012 9.31759 8.3332 9.03273C8.47423 8.93778 8.66226 8.84282 8.80329 8.74787C9.64944 8.32058 10.5896 8.17815 11.3417 8.17815C11.7178 8.17815 12.0939 8.17815 12.517 8.22563C12.799 8.22563 12.987 8.2731 13.0811 8.2731C13.6452 8.17815 14.1153 7.79834 14.1153 7.22861C14.1153 6.65889 13.5982 6.2316 13.1751 6.13665C12.94 6.08917 12.658 6.08917 12.3759 6.08917C11.5768 6.08917 10.2135 6.27908 8.94431 7.18114Z" fill="white"/>
<path fill-rule="evenodd" clip-rule="evenodd" d="M16.1367 12.6885C16.0426 13.638 15.4785 14.5875 14.5384 15.2522C13.5982 15.9169 12.47 16.2967 11.2478 16.2967C9.60246 16.2967 8.52127 16.0118 7.91016 15.727C9.08537 17.2462 11.4358 18.3382 13.5982 17.7685C17.6409 16.7715 18.111 12.8309 16.9828 11.0742C16.6537 10.5995 16.2777 10.1722 15.7606 9.88733C15.9956 10.552 16.2777 11.4541 16.1367 12.6885Z" fill="white"/>
</g>
</g>
<defs>
<clipPath id="clip0_12378_196">
<rect width="24" height="24" fill="white"/>
</clipPath>
<clipPath id="clip1_12378_196">
<rect width="11" height="11.9167" fill="white" transform="translate(6.5 6.04169)"/>
</clipPath>
</defs>
</svg>
