<svg width="24" height="24" viewBox="0 0 24 24" fill="none" xmlns="http://www.w3.org/2000/svg">
<g clip-path="url(#clip0_12381_641)">
<circle cx="12" cy="12" r="12" fill="#181D27"/>
<mask id="mask0_12381_641" style="mask-type:alpha" maskUnits="userSpaceOnUse" x="0" y="0" width="24" height="24">
<circle cx="12" cy="12" r="11.5" fill="#181D27" stroke="white"/>
</mask>
<g mask="url(#mask0_12381_641)">
<path opacity="0.8" fill-rule="evenodd" clip-rule="evenodd" d="M11.9998 27.0793L0.36002 3.36861L3.38965 1.88134L11.9998 19.4206L20.61 1.88134L23.6397 3.36861L11.9998 27.0793Z" fill="white"/>
</g>
<circle opacity="0.8" cx="12" cy="12" r="10.5" fill="#FFF370"/>
<circle cx="12" cy="12" r="9" fill="#181D27"/>
<path d="M6.71846 11.2312C7.26094 7.5191 11.7001 6.74447 13.2506 7.27234C9.88556 8.36104 11.9641 11.858 10.5455 13.8375C9.74242 14.958 6.0917 15.52 6.71846 11.2312Z" fill="white"/>
<path d="M17.0549 13.2218C16.2663 16.8896 11.7854 17.3667 10.2735 16.7367C13.7036 15.8746 11.8626 12.2469 13.41 10.3664C14.2859 9.3019 17.966 8.98431 17.0549 13.2218Z" fill="white"/>
</g>
<defs>
<clipPath id="clip0_12381_641">
<rect width="24" height="24" fill="white"/>
</clipPath>
</defs>
</svg>
