<svg width="24" height="24" viewBox="0 0 24 24" fill="none" xmlns="http://www.w3.org/2000/svg">
<g clip-path="url(#clip0_12571_83)">
<circle cx="12" cy="12" r="12" fill="#181D27"/>
<mask id="mask0_12571_83" style="mask-type:alpha" maskUnits="userSpaceOnUse" x="0" y="0" width="24" height="24">
<circle cx="12" cy="12" r="11.5" fill="#181D27" stroke="white"/>
</mask>
<g mask="url(#mask0_12571_83)">
<path opacity="0.8" fill-rule="evenodd" clip-rule="evenodd" d="M11.9998 27.0793L0.36002 3.36861L3.38965 1.88134L11.9998 19.4206L20.61 1.88134L23.6397 3.36861L11.9998 27.0793Z" fill="white"/>
</g>
<circle opacity="0.8" cx="12" cy="12" r="10.5" fill="#FFF370"/>
<circle cx="12" cy="12" r="9" fill="#181D27"/>
<g clip-path="url(#clip1_12571_83)">
<path d="M11.9647 18.3009C15.4374 18.3009 18.2525 15.4482 18.2525 11.9292C18.2525 8.41016 15.4374 5.55743 11.9647 5.55743C8.49194 5.55743 5.67676 8.41016 5.67676 11.9292C5.67676 15.4482 8.49194 18.3009 11.9647 18.3009Z" fill="#364258"/>
<path d="M19.9292 11.9292C19.9292 12.989 19.7232 14.0385 19.3229 15.0178C18.9227 15.997 18.336 16.8867 17.5964 17.6362C16.8568 18.3856 15.9788 18.9801 15.0125 19.3856C14.0462 19.7912 13.0105 20 11.9646 20C10.9187 20 9.88305 19.7913 8.91674 19.3856C7.95042 18.98 7.07242 18.3856 6.33284 17.6362C5.59326 16.8867 5.00653 15.997 4.60632 15.0178C4.20605 14.0386 4.00002 12.9891 4 11.9292H5.90895C5.90897 13.5567 6.54698 15.1175 7.68263 16.2683C8.24495 16.8382 8.91253 17.2902 9.64726 17.5985C11.1311 18.2213 12.7983 18.2213 14.2821 17.5985C15.0169 17.2902 15.6844 16.8382 16.2467 16.2683C17.3824 15.1175 18.0204 13.5567 18.0204 11.9292H19.9293H19.9292Z" fill="white"/>
<path d="M18.2523 11.9292C18.2523 12.766 18.0897 13.5945 17.7737 14.3675C17.4577 15.1405 16.9945 15.8429 16.4107 16.4346C15.8268 17.0263 15.1336 17.4956 14.3708 17.8158C13.6079 18.136 12.7902 18.3008 11.9645 18.3008C11.1389 18.3008 10.3212 18.136 9.55834 17.8158C8.79549 17.4956 8.10234 17.0263 7.51844 16.4346C6.93457 15.8429 6.47141 15.1405 6.15539 14.3675C5.83939 13.5945 5.67676 12.7659 5.67676 11.9292H11.9647H18.2524H18.2523Z" fill="#070B09"/>
<path d="M9.15428 12.0369L9.15881 13.7217L10.5715 14.5642V15.5505L8.33196 14.2195V11.5442L9.15428 12.0369ZM9.15428 10.3521V11.3339L8.33154 10.8407V9.85891L9.15428 9.36568L9.98112 9.85891L9.15428 10.3521ZM11.1615 9.85891L11.9843 9.36568L12.8111 9.85891L11.9843 10.3521L11.1615 9.85891ZM9.74881 13.3726V12.3862L10.5715 12.8794V13.8611L9.74881 13.3726ZM11.1615 14.9175L11.9843 15.4107L12.8111 14.9175V15.8992L11.9843 16.3925L11.1615 15.8992V14.9175ZM13.9911 9.85891L14.8139 9.36568L15.6407 9.85891V10.8407L14.8139 11.3339V10.3521L13.9911 9.85891ZM14.8139 13.7217L14.8185 12.0369L15.6412 11.5437V14.219L13.4016 15.5501V14.5637L14.8139 13.7217ZM14.2239 13.3726L13.4011 13.8613V12.8795L14.2239 12.3863V13.3726ZM14.2239 10.7014L14.2284 11.6877L12.8116 12.5302V14.2191L11.9889 14.7078L11.1662 14.2191V12.5302L9.74933 11.6877V10.7014L10.5756 10.2081L11.9839 11.0546L13.4006 10.2081L14.2273 10.7014H14.2239ZM9.74881 9.01709L11.9843 7.68152L14.2239 9.01709L13.4011 9.51032L11.9844 8.66381L10.5716 9.51032L9.74881 9.01709Z" fill="white"/>
</g>
</g>
<defs>
<clipPath id="clip0_12571_83">
<rect width="24" height="24" fill="white"/>
</clipPath>
<clipPath id="clip1_12571_83">
<rect width="16" height="16" fill="white" transform="translate(4 4)"/>
</clipPath>
</defs>
</svg>
