<svg width="24" height="24" viewBox="0 0 24 24" fill="none" xmlns="http://www.w3.org/2000/svg">
<g clip-path="url(#clip0_10784_8761)">
<circle cx="12" cy="12" r="12" fill="#181D27"/>
<mask id="mask0_10784_8761" style="mask-type:alpha" maskUnits="userSpaceOnUse" x="0" y="0" width="24" height="24">
<circle cx="12" cy="12" r="11.5" fill="#181D27" stroke="white"/>
</mask>
<g mask="url(#mask0_10784_8761)">
<path opacity="0.8" fill-rule="evenodd" clip-rule="evenodd" d="M11.9998 27.0794L0.36002 3.36863L3.38965 1.88136L11.9998 19.4206L20.61 1.88136L23.6397 3.36863L11.9998 27.0794Z" fill="white"/>
</g>
<circle opacity="0.8" cx="12" cy="12" r="10.5" fill="url(#paint0_linear_10784_8761)"/>
<circle cx="12" cy="12" r="9" fill="#181D27"/>
<path fill-rule="evenodd" clip-rule="evenodd" d="M11.8174 6.39566C11.3309 6.45107 10.8785 6.67043 10.5365 7.01682C10.2797 7.26808 10.0365 7.52604 9.77626 7.77981C9.64603 7.91186 9.51438 8.04028 9.38273 8.17066C9.25108 8.30103 9.10586 8.4395 8.96913 8.5763C8.83239 8.71309 8.71882 8.83314 8.59226 8.96017C8.3945 9.15559 8.19674 9.35101 7.99898 9.54839C7.84728 9.70333 7.69896 9.8633 7.54894 10.018C7.46052 10.1104 7.36531 10.1961 7.28197 10.2932C6.93803 10.7079 6.75005 11.2275 6.75 11.7636C6.75 11.7952 6.75 11.8276 6.75198 11.8588C6.75901 12.1667 6.84079 12.4684 6.99042 12.7385C7.0756 12.9018 7.17425 13.0578 7.28536 13.205C7.35881 13.3072 7.41221 13.3055 7.50883 13.2265C7.52729 13.2114 7.54457 13.1948 7.56053 13.1771C7.65573 13.078 7.74896 12.9792 7.84586 12.8803C7.9826 12.7385 8.12272 12.597 8.25946 12.4535C8.3962 12.31 8.54451 12.152 8.68803 12.0037C8.7564 11.9312 8.82929 11.8641 8.89822 11.7927C9.04484 11.6394 9.18836 11.4814 9.33498 11.3298C9.4816 11.1782 9.63021 11.0364 9.77372 10.8882C9.91724 10.7399 10.0938 10.5584 10.2554 10.3937C10.417 10.229 10.554 10.0905 10.704 9.93895C10.8992 9.73934 11.0894 9.53499 11.2826 9.33566C11.4027 9.21366 11.5261 9.09668 11.6462 8.97636C11.8129 8.81164 11.968 8.64693 12.1316 8.48222C12.2951 8.3175 12.4166 8.20695 12.5567 8.06513C12.87 7.75245 13.1827 7.43791 13.495 7.12152C13.5151 7.10187 13.534 7.08099 13.5515 7.05898C13.6283 6.96322 13.6348 6.94201 13.5399 6.87444C13.3949 6.7616 13.2398 6.66226 13.0763 6.57768C12.7874 6.44416 12.4723 6.37497 12.1533 6.375H12.1375C12.031 6.37502 11.9245 6.38164 11.8188 6.39482L11.8171 6.39315L11.8174 6.39566ZM14.5773 8.42415H14.5572C14.4204 8.42419 14.2852 8.45372 14.161 8.51066C14.0369 8.5676 13.9269 8.65059 13.8385 8.75385C13.8227 8.77115 13.806 8.78765 13.7885 8.80327L13.2783 9.29769C13.1116 9.46268 12.9314 9.64219 12.7562 9.81528C12.6113 9.9585 12.4661 10.0986 12.3228 10.2421C12.1796 10.3856 12.0259 10.5453 11.8708 10.6952C11.7157 10.8452 11.5507 11.0023 11.3905 11.1567L10.8218 11.7234L9.76468 12.7684C9.2976 13.2318 8.83117 13.6943 8.3654 14.1559C8.27556 14.2433 8.27387 14.2547 8.3654 14.3485C8.58887 14.5719 8.81572 14.7935 9.03241 15.0186C9.16648 15.159 9.34341 15.2521 9.53613 15.2838C9.71795 15.3199 9.9058 15.3137 10.0848 15.2656C10.2189 15.2328 10.3426 15.1677 10.445 15.0761L10.9987 14.5476C11.1286 14.4242 11.2606 14.3022 11.3888 14.1768C11.6456 13.9256 11.8991 13.6726 12.1559 13.4231C12.3644 13.2204 12.5779 13.0194 12.7895 12.8167L13.6577 11.9806C13.9278 11.7184 14.1995 11.4549 14.473 11.1927C14.4912 11.166 14.5165 11.1446 14.5462 11.1311C14.5758 11.1175 14.6086 11.1123 14.6411 11.1159C14.6735 11.1195 14.7044 11.1318 14.7302 11.1515C14.7561 11.1712 14.776 11.1975 14.7877 11.2276C14.9267 11.4282 15.0011 11.6657 15.001 11.9088C15.001 11.9504 14.9988 11.992 14.9945 12.0333C14.9721 12.2784 14.8698 12.5097 14.703 12.6925C14.5027 12.9052 14.2894 13.1062 14.0815 13.3106C13.9331 13.4554 13.7814 13.5973 13.6328 13.7438C13.441 13.9317 13.2526 14.123 13.0607 14.3108C13.0325 14.3421 13.0059 14.3751 12.976 14.4046L12.7876 14.5976C12.6463 14.7371 12.5025 14.8728 12.3638 15.0127C12.2251 15.1526 12.0657 15.3162 11.9174 15.4689C11.9041 15.4837 11.8892 15.4934 11.8759 15.5066C11.7089 15.6598 11.5555 15.8136 11.397 15.968C11.3222 16.0406 11.2504 16.1146 11.177 16.1872C11.0504 16.3142 10.9202 16.4384 10.7984 16.568C10.7235 16.6453 10.7235 16.693 10.812 16.7542C10.9571 16.8643 11.1117 16.9618 11.2739 17.0456C11.6773 17.2259 12.1244 17.2888 12.5627 17.2268C12.9977 17.1758 13.4059 16.9921 13.7303 16.7011C13.9769 16.487 14.1973 16.2464 14.4273 16.0158C14.5939 15.8508 14.7609 15.6746 14.9392 15.5049L15.4211 15.0253C15.568 14.8787 15.713 14.7318 15.8616 14.5869C16.0102 14.4421 16.1949 14.269 16.3616 14.1056C16.5283 13.9423 16.6953 13.7762 16.8619 13.6015C16.9948 13.4677 17.1176 13.3245 17.2292 13.1729C17.4373 12.8623 17.5672 12.507 17.6081 12.1366C17.6307 11.9527 17.6307 11.7667 17.6081 11.5827C17.5584 11.2554 17.4384 10.9424 17.256 10.6648C17.1249 10.4684 16.9679 10.29 16.7893 10.1344C16.3274 9.68128 15.8669 9.22482 15.4152 8.76167C15.3167 8.65332 15.1963 8.56666 15.0617 8.50731C14.9271 8.44795 14.7814 8.41724 14.6341 8.41717H14.6278L14.5778 8.42387L14.5773 8.42415Z" fill="white"/>
</g>
<defs>
<linearGradient id="paint0_linear_10784_8761" x1="22.2313" y1="18.1183" x2="-3.53296" y2="2.62136" gradientUnits="userSpaceOnUse">
<stop stop-color="#5433FF"/>
<stop offset="0.5" stop-color="#20BDFF"/>
<stop offset="1" stop-color="#5CFFA2"/>
</linearGradient>
<clipPath id="clip0_10784_8761">
<rect width="24" height="24" fill="white"/>
</clipPath>
</defs>
</svg>
