<svg width="24" height="24" viewBox="0 0 24 24" fill="none" xmlns="http://www.w3.org/2000/svg">
<g clip-path="url(#clip0_12379_449)">
<circle cx="12" cy="12" r="12" fill="#181D27"/>
<mask id="mask0_12379_449" style="mask-type:alpha" maskUnits="userSpaceOnUse" x="0" y="0" width="24" height="24">
<circle cx="12" cy="12" r="11.5" fill="#181D27" stroke="white"/>
</mask>
<g mask="url(#mask0_12379_449)">
<path opacity="0.8" fill-rule="evenodd" clip-rule="evenodd" d="M11.9998 27.0793L0.36002 3.36861L3.38965 1.88134L11.9998 19.4206L20.61 1.88134L23.6397 3.36861L11.9998 27.0793Z" fill="white"/>
</g>
<circle opacity="0.8" cx="12" cy="12" r="10.5" fill="#AAB3CA"/>
<circle cx="12" cy="12" r="9" fill="#181D27"/>
<path d="M17.1021 10.5142C16.5657 10.0273 15.8238 9.28371 15.2195 8.75638L15.1837 8.73177C15.1242 8.6848 15.0572 8.64796 14.9853 8.62279C13.5282 8.3556 6.74687 7.10933 6.61457 7.12515C6.5775 7.13025 6.54207 7.14347 6.51088 7.16382L6.47691 7.19019C6.43508 7.23195 6.40331 7.28241 6.38394 7.33784L6.375 7.36069V7.4855V7.50483C7.13841 9.59484 10.1527 16.4414 10.7463 18.0481C10.782 18.157 10.85 18.3645 10.9769 18.375H11.0055C11.0735 18.375 11.3631 17.9988 11.3631 17.9988C11.3631 17.9988 16.5407 11.8255 17.0645 11.1681C17.1323 11.0871 17.1922 11 17.2433 10.9079C17.2564 10.8359 17.2502 10.7617 17.2255 10.6927C17.2007 10.6237 17.1582 10.5622 17.1021 10.5142ZM12.6915 11.2331L14.9012 9.43137L16.1974 10.6056L12.6915 11.2331ZM11.8333 11.1153L8.02876 8.04975L14.1843 9.16594L11.8333 11.1153ZM12.1766 11.9186L16.0705 11.3017L11.6188 16.575L12.1766 11.9186ZM7.51207 8.3556L11.5151 11.6954L10.9358 16.5785L7.51207 8.3556Z" fill="white"/>
</g>
<defs>
<clipPath id="clip0_12379_449">
<rect width="24" height="24" fill="white"/>
</clipPath>
</defs>
</svg>
