<svg width="24" height="24" viewBox="0 0 24 24" fill="none" xmlns="http://www.w3.org/2000/svg">
<g clip-path="url(#clip0_11596_172)">
<circle cx="12" cy="12" r="12" fill="#181D27"/>
<mask id="mask0_11596_172" style="mask-type:alpha" maskUnits="userSpaceOnUse" x="0" y="0" width="24" height="24">
<circle cx="12" cy="12" r="11.5" fill="#181D27" stroke="white"/>
</mask>
<g mask="url(#mask0_11596_172)">
<path opacity="0.8" fill-rule="evenodd" clip-rule="evenodd" d="M11.9998 27.0794L0.36002 3.36863L3.38965 1.88136L11.9998 19.4206L20.61 1.88136L23.6397 3.36863L11.9998 27.0794Z" fill="white"/>
</g>
<circle opacity="0.8" cx="12" cy="12" r="10.5" fill="url(#paint0_linear_11596_172)"/>
<circle cx="12" cy="12" r="9" fill="#181D27"/>
<g clip-path="url(#clip1_11596_172)">
<path d="M10.8139 7.95821C10.6767 7.93808 10.6701 7.93138 10.7355 7.92467C10.8597 7.90454 11.1473 7.93138 11.3499 7.97833C11.8205 8.09237 12.2453 8.38752 12.6963 8.90403L12.8139 9.04489L12.9839 9.01806C13.7093 8.89732 14.4544 8.99123 15.0754 9.28638C15.2453 9.36688 15.5133 9.52787 15.5459 9.56811C15.559 9.58153 15.5786 9.66873 15.5917 9.75594C15.6374 10.0712 15.6178 10.306 15.5198 10.4871C15.4675 10.5877 15.4675 10.6146 15.5002 10.7018C15.5263 10.7688 15.6048 10.8158 15.6767 10.8158C15.8335 10.8158 15.9969 10.5609 16.0754 10.2054L16.108 10.0645L16.1669 10.1316C16.5002 10.5139 16.7616 11.0439 16.8008 11.4195L16.8139 11.5201L16.7551 11.4329C16.6571 11.2786 16.5656 11.178 16.4414 11.0908C16.2191 10.9365 15.9839 10.8896 15.3629 10.856C14.8008 10.8225 14.4806 10.7755 14.1669 10.6682C13.6309 10.4871 13.3564 10.2523 12.7224 9.387C12.4414 9.00465 12.2649 8.7967 12.0884 8.62229C11.7028 8.23994 11.3172 8.0387 10.8139 7.95821Z" fill="white"/>
<path d="M15.683 8.81012C15.6961 8.55522 15.7288 8.38752 15.8007 8.23324C15.8268 8.17287 15.853 8.1192 15.8595 8.1192C15.866 8.1192 15.853 8.16616 15.8334 8.21982C15.7811 8.3674 15.7745 8.57534 15.8072 8.81012C15.853 9.11198 15.8726 9.15223 16.1863 9.48091C16.3301 9.6352 16.5 9.82973 16.5654 9.91022L16.6765 10.0578L16.5654 9.95047C16.4281 9.81631 16.1144 9.56141 16.0425 9.52787C15.9968 9.50104 15.9902 9.50104 15.9575 9.53458C15.9314 9.56141 15.9249 9.60166 15.9249 9.79619C15.9183 10.098 15.8791 10.2859 15.7811 10.4804C15.7288 10.581 15.7222 10.5609 15.768 10.4469C15.8007 10.3597 15.8072 10.3194 15.8072 10.031C15.8072 9.44738 15.7419 9.30651 15.3432 9.07173C15.2451 9.01136 15.0752 8.92416 14.9771 8.8772C14.8726 8.83024 14.7941 8.79 14.8007 8.79C14.8137 8.77658 15.1994 8.89062 15.3497 8.95769C15.5785 9.05161 15.6177 9.05831 15.6438 9.05161C15.6634 9.03148 15.6765 8.97782 15.683 8.81012Z" fill="white"/>
<path d="M11.0818 9.80959C10.8072 9.42053 10.6308 8.81682 10.67 8.36738L10.6831 8.22652L10.7484 8.23993C10.8661 8.26006 11.0687 8.34055 11.1667 8.40092C11.4282 8.56191 11.5458 8.78328 11.6569 9.33333C11.6896 9.49432 11.7353 9.68214 11.755 9.74251C11.7876 9.84313 11.9118 10.0779 12.0164 10.2255C12.0883 10.3328 12.0425 10.3865 11.8791 10.3731C11.6308 10.3462 11.2974 10.1114 11.0818 9.80959Z" fill="white"/>
<path d="M15.3498 12.7276C14.0557 12.1909 13.5981 11.7281 13.5981 10.9432C13.5981 10.8292 13.6047 10.7353 13.6047 10.7353C13.6112 10.7353 13.657 10.7755 13.7158 10.8225C13.9772 11.0371 14.2713 11.1311 15.0883 11.2518C15.5655 11.3256 15.84 11.3793 16.0883 11.4665C16.8792 11.7348 17.3694 12.2848 17.487 13.0294C17.5197 13.2441 17.5001 13.6532 17.4478 13.8679C17.4021 14.0356 17.2713 14.3442 17.2387 14.3509C17.2321 14.3509 17.2191 14.3173 17.2191 14.2637C17.206 13.9819 17.0687 13.7136 16.84 13.5057C16.5655 13.2642 16.2125 13.0831 15.3498 12.7276Z" fill="white"/>
<path d="M14.4346 12.9489C14.4216 12.8483 14.3889 12.7208 14.3693 12.6672L14.3366 12.5666L14.3954 12.6403C14.4804 12.741 14.5457 12.8617 14.6046 13.0294C14.6503 13.1569 14.6503 13.1971 14.6503 13.4051C14.6503 13.6063 14.6438 13.6532 14.6046 13.7673C14.5392 13.9484 14.4608 14.0758 14.3301 14.2167C14.0948 14.4649 13.7876 14.5991 13.3497 14.6594C13.2712 14.6661 13.049 14.6863 12.8529 14.6997C12.3627 14.7265 12.0359 14.7802 11.7418 14.8875C11.7026 14.9009 11.6634 14.9143 11.6569 14.9076C11.6438 14.8942 11.8464 14.7735 12.0098 14.693C12.2386 14.5789 12.4738 14.5186 12.9902 14.4247C13.2451 14.3844 13.5065 14.3307 13.5719 14.3039C14.2189 14.096 14.5392 13.5795 14.4346 12.9489Z" fill="white"/>
<path d="M15.0295 14.0289C14.8595 13.6465 14.8203 13.2843 14.9118 12.9422C14.9249 12.9087 14.938 12.8751 14.951 12.8751C14.9641 12.8751 15.0033 12.8952 15.0425 12.9221C15.121 12.9757 15.2844 13.0697 15.7027 13.3044C16.2321 13.5996 16.5327 13.8277 16.7419 14.0893C16.9249 14.3173 17.036 14.5789 17.0883 14.9009C17.121 15.082 17.1014 15.5181 17.0556 15.6992C16.9118 16.2693 16.585 16.7255 16.1079 16.9871C16.036 17.0273 15.9772 17.0542 15.9706 17.0542C15.9641 17.0542 15.9902 16.9871 16.0295 16.9066C16.1863 16.5645 16.2059 16.2358 16.0883 15.8669C16.0164 15.6388 15.8661 15.3638 15.5654 14.9009C15.2059 14.3643 15.121 14.2234 15.0295 14.0289Z" fill="white"/>
<path d="M10.1602 16.0815C10.6439 15.6656 11.2386 15.3705 11.7877 15.2766C12.0229 15.2363 12.4151 15.2497 12.6308 15.3101C12.9772 15.404 13.2909 15.6053 13.4543 15.8535C13.6112 16.0949 13.6831 16.3029 13.755 16.7657C13.7811 16.9469 13.8138 17.1347 13.8203 17.1749C13.8726 17.4164 13.9772 17.6042 14.1079 17.7049C14.3105 17.8591 14.6635 17.8658 15.0099 17.7317C15.0687 17.7116 15.121 17.6914 15.121 17.6981C15.1341 17.7116 14.9576 17.8323 14.8399 17.8927C14.6765 17.9799 14.5458 18.0067 14.3694 18.0067C14.0556 18.0067 13.7877 17.839 13.572 17.5036C13.5262 17.4365 13.4347 17.242 13.3563 17.0609C13.1275 16.5175 13.0099 16.3566 12.7419 16.1754C12.5066 16.0212 12.206 15.9876 11.9772 16.1017C11.6765 16.2492 11.5981 16.645 11.8073 16.8865C11.8922 16.9871 12.0491 17.0676 12.1798 17.0877C12.4216 17.1213 12.6308 16.9267 12.6308 16.6785C12.6308 16.5175 12.572 16.4236 12.4151 16.3498C12.206 16.2559 11.9772 16.3633 11.9837 16.5712C11.9837 16.6584 12.0229 16.7121 12.1079 16.7523C12.1602 16.7792 12.1602 16.7792 12.121 16.7724C11.9314 16.7322 11.8857 16.4907 12.036 16.3364C12.219 16.1486 12.6046 16.2291 12.7354 16.4907C12.7877 16.598 12.7942 16.8127 12.7484 16.9469C12.6373 17.242 12.3236 17.3963 12.0033 17.3091C11.7877 17.2487 11.6962 17.1883 11.4347 16.9133C10.9772 16.4303 10.8007 16.3364 10.1471 16.2358L10.0229 16.2157L10.1602 16.0815Z" fill="white"/>
<path fill-rule="evenodd" clip-rule="evenodd" d="M6.72202 5.28844C8.2449 7.18679 10.5913 10.1383 10.709 10.2993C10.807 10.4334 10.7678 10.5609 10.6044 10.6548C10.5129 10.7085 10.3233 10.7621 10.2318 10.7621C10.1273 10.7621 10.0031 10.7085 9.9181 10.6213C9.85928 10.5609 9.60438 10.1785 9.02921 9.25955C8.59131 8.55521 8.21876 7.97162 8.21222 7.96491C8.18608 7.9515 8.18608 7.9515 8.98346 9.41383C9.48673 10.3328 9.65013 10.6615 9.65013 10.7018C9.65013 10.789 9.62399 10.8359 9.51941 10.9567C9.34294 11.1579 9.26451 11.386 9.20568 11.8622C9.14033 12.3922 8.96385 12.7678 8.46059 13.4051C8.16647 13.7807 8.12072 13.8478 8.04882 14.0021C7.95732 14.1899 7.93117 14.2972 7.9181 14.5387C7.90503 14.7936 7.93117 14.9546 8.00307 15.1961C8.06843 15.4107 8.14033 15.5516 8.3168 15.8266C8.46712 16.0681 8.55863 16.2492 8.55863 16.3163C8.55863 16.37 8.5717 16.37 8.80699 16.3163C9.36908 16.1821 9.83314 15.9541 10.088 15.6723C10.2449 15.4979 10.2841 15.404 10.2841 15.1625C10.2841 15.0083 10.2776 14.9747 10.2384 14.8808C10.173 14.7332 10.0488 14.6125 9.78085 14.4247C9.42791 14.1765 9.27758 13.9752 9.23836 13.7069C9.20568 13.4788 9.2449 13.3246 9.44098 12.902C9.64359 12.4659 9.69588 12.2848 9.72856 11.8421C9.74817 11.5604 9.78085 11.4463 9.85928 11.3591C9.94425 11.2652 10.0161 11.2317 10.2188 11.2049C10.5521 11.1579 10.7678 11.0707 10.9377 10.903C11.088 10.7621 11.1534 10.6213 11.1599 10.4133L11.1665 10.259L11.0815 10.1651C10.7743 9.80289 6.51941 5 6.4998 5C6.49327 5 6.59784 5.12745 6.72202 5.28844ZM8.72856 14.8271C8.80046 14.6997 8.76124 14.5387 8.64359 14.4582C8.53248 14.3844 8.36255 14.418 8.36255 14.5186C8.36255 14.5454 8.37562 14.5722 8.41483 14.5857C8.47366 14.6192 8.48019 14.6527 8.43444 14.7265C8.38869 14.8003 8.38869 14.8674 8.44751 14.9143C8.53902 14.9881 8.6632 14.9479 8.72856 14.8271Z" fill="white"/>
<path fill-rule="evenodd" clip-rule="evenodd" d="M11.376 11.2988C11.2192 11.3457 11.0688 11.5201 11.0231 11.6945C10.9969 11.8019 11.01 11.9964 11.0558 12.0568C11.1277 12.1507 11.193 12.1775 11.376 12.1775C11.7355 12.1775 12.0427 12.0165 12.0754 11.822C12.1081 11.661 11.9708 11.4396 11.7813 11.339C11.6832 11.2853 11.4806 11.2652 11.376 11.2988ZM11.7943 11.6342C11.8466 11.5537 11.827 11.4665 11.729 11.4061C11.5525 11.2921 11.2845 11.386 11.2845 11.5604C11.2845 11.6476 11.4218 11.7415 11.5525 11.7415C11.6375 11.7415 11.7551 11.6878 11.7943 11.6342Z" fill="white"/>
</g>
</g>
<defs>
<linearGradient id="paint0_linear_11596_172" x1="22.2313" y1="18.1183" x2="-3.53296" y2="2.62136" gradientUnits="userSpaceOnUse">
<stop stop-color="#5433FF"/>
<stop offset="0.5" stop-color="#20BDFF"/>
<stop offset="1" stop-color="#5CFFA2"/>
</linearGradient>
<clipPath id="clip0_11596_172">
<rect width="24" height="24" fill="white"/>
</clipPath>
<clipPath id="clip1_11596_172">
<rect width="11" height="13" fill="white" transform="translate(6.5 5)"/>
</clipPath>
</defs>
</svg>
