<svg width="24" height="24" viewBox="0 0 24 24" fill="none" xmlns="http://www.w3.org/2000/svg">
<g clip-path="url(#clip0_12384_187)">
<circle cx="12" cy="12" r="12" fill="#181D27"/>
<mask id="mask0_12384_187" style="mask-type:alpha" maskUnits="userSpaceOnUse" x="0" y="0" width="24" height="24">
<circle cx="12" cy="12" r="11.5" fill="#181D27" stroke="white"/>
</mask>
<g mask="url(#mask0_12384_187)">
<path opacity="0.8" fill-rule="evenodd" clip-rule="evenodd" d="M11.9998 27.0793L0.36002 3.36861L3.38965 1.88134L11.9998 19.4206L20.61 1.88134L23.6397 3.36861L11.9998 27.0793Z" fill="white"/>
</g>
<circle opacity="0.8" cx="12" cy="12" r="10.5" fill="#AAB3CA"/>
<circle cx="12" cy="12" r="9" fill="#181D27"/>
<path d="M9.07493 5.00425H15.8006C15.9936 5.00425 16.1531 5.16369 16.1531 5.35667V5.535C16.1531 5.72797 15.9936 5.88742 15.8006 5.88742H9.07493C8.88196 5.88742 8.72251 5.72797 8.72251 5.535V5.35667C8.72251 5.16369 8.88196 5.00425 9.07493 5.00425ZM12.0769 6.24409V18.2731C12.0769 18.4661 11.9174 18.6255 11.7245 18.6255H11.5461C11.3531 18.6255 11.1937 18.4661 11.1937 18.2731V6.24409H12.0726H12.0769ZM13.495 6.24409V18.2731C13.495 18.4661 13.3356 18.6255 13.1426 18.6255H12.9643C12.7713 18.6255 12.6119 18.4661 12.6119 18.2731V6.24409H13.4908H13.495Z" fill="white" stroke="#181D27" stroke-width="0.00849206"/>
<path d="M11.3254 9.23761C11.5717 9.1442 11.8859 9.10174 12.2595 9.10174C12.82 9.10174 13.2361 9.21214 13.5418 9.40745C13.7541 9.55182 13.8985 9.73015 13.9749 9.94245C14.0513 10.1548 14.2467 10.3671 14.5269 10.3671H16.1574C16.4461 10.3671 16.7094 10.1208 16.6669 9.80658C16.599 9.31404 16.4121 8.87245 16.1149 8.48182C15.7413 7.98928 15.2148 7.61563 14.5609 7.35237C13.907 7.08063 13.1427 6.95325 12.2765 6.95325C11.4273 6.95325 10.663 7.08912 9.98365 7.35237C9.30428 7.61563 8.76928 7.99777 8.37016 8.48182C7.97103 8.97436 7.77571 9.55182 7.77571 10.2057C7.77571 11.004 8.07294 11.6578 8.67587 12.1334C9.26182 12.6005 10.0516 12.9317 11.0282 13.144L12.268 13.4242C12.6756 13.5091 13.0238 13.611 13.2956 13.7129C13.5673 13.8148 13.7626 13.9337 13.89 14.0696C14.0089 14.1885 14.0683 14.3328 14.0683 14.5197C14.0683 14.7235 14.0004 14.8933 13.8645 15.0547C13.7202 15.216 13.5163 15.3519 13.2276 15.4453C12.9474 15.5387 12.6162 15.5982 12.2256 15.5982C11.8264 15.5982 11.4698 15.5472 11.164 15.4368C10.8583 15.3264 10.629 15.1736 10.4507 14.9782C10.3403 14.8509 10.2639 14.698 10.2129 14.5197C10.1535 14.2819 9.94119 14.0696 9.66095 14.0696H8.02198C7.72476 14.0696 7.47 14.3159 7.51246 14.6301C7.5804 15.233 7.78421 15.751 8.1154 16.1926C8.52301 16.7191 9.08349 17.1013 9.78833 17.3645C10.4932 17.6278 11.3169 17.7552 12.2595 17.7552C13.2021 17.7552 14.0174 17.6278 14.6967 17.373C15.3846 17.1098 15.9196 16.7446 16.2848 16.2605C16.6669 15.768 16.8537 15.1905 16.8537 14.5367C16.8537 14.0866 16.7603 13.6875 16.5735 13.3308C16.3952 12.9826 16.1404 12.6769 15.8177 12.4221C15.495 12.1674 15.1213 11.9551 14.6967 11.7852C14.2721 11.6154 13.8051 11.4795 13.2956 11.3776L12.268 11.1568C12.0217 11.1059 11.801 11.0464 11.5886 10.987C11.3763 10.919 11.198 10.8341 11.0452 10.7492C10.9008 10.6643 10.7819 10.5624 10.7055 10.452C10.6375 10.3501 10.6036 10.2312 10.6121 10.0868C10.6121 9.90848 10.6715 9.75563 10.7819 9.61126C10.9008 9.4669 11.0791 9.34801 11.3254 9.26309V9.23761Z" fill="white" stroke="#181D27" stroke-width="0.5" stroke-miterlimit="22.9256"/>
</g>
<defs>
<clipPath id="clip0_12384_187">
<rect width="24" height="24" fill="white"/>
</clipPath>
</defs>
</svg>
