<svg width="24" height="24" viewBox="0 0 24 24" fill="none" xmlns="http://www.w3.org/2000/svg">
<g clip-path="url(#clip0_12317_2270)">
<path fill-rule="evenodd" clip-rule="evenodd" d="M12 24C18.6274 24 24 18.6274 24 12C24 10.355 23.669 8.78735 23.07 7.35995C22.2205 8.79088 20.6598 9.75 18.875 9.75C16.1826 9.75 14 7.56739 14 4.875C14 3.15242 14.8934 1.63852 16.2422 0.771384C14.9233 0.272836 13.4935 0 12 0C5.37258 0 0 5.37258 0 12C0 18.6274 5.37258 24 12 24Z" fill="#181D27"/>
<mask id="mask0_12317_2270" style="mask-type:alpha" maskUnits="userSpaceOnUse" x="0" y="0" width="24" height="24">
<circle cx="12" cy="12" r="11.5" fill="#181D27" stroke="white"/>
</mask>
<g mask="url(#mask0_12317_2270)">
<path opacity="0.8" fill-rule="evenodd" clip-rule="evenodd" d="M12.0001 27.0794L0.360289 3.36863L3.38992 1.88136L12.0001 19.4206L17 9.50001L20.0296 10.9873L12.0001 27.0794Z" fill="white"/>
</g>
<path opacity="0.8" fill-rule="evenodd" clip-rule="evenodd" d="M21.9555 8.6536C21.1158 9.33896 20.0434 9.75 18.875 9.75C16.1826 9.75 14 7.56739 14 4.875C14 3.76919 14.3682 2.74937 14.9886 1.93145C14.0414 1.65071 13.0383 1.5 12 1.5C6.20101 1.5 1.5 6.20101 1.5 12C1.5 17.799 6.20101 22.5 12 22.5C17.799 22.5 22.5 17.799 22.5 12C22.5 10.83 22.3086 9.70464 21.9555 8.6536Z" fill="url(#paint0_linear_12317_2270)"/>
<path fill-rule="evenodd" clip-rule="evenodd" d="M20.6265 9.4259C20.0829 9.63524 19.4924 9.75 18.875 9.75C16.1826 9.75 14 7.56739 14 4.875C14 4.31911 14.093 3.78496 14.2644 3.28726C13.5409 3.09976 12.7821 3 12 3C7.02944 3 3 7.02944 3 12C3 16.9706 7.02944 21 12 21C16.9706 21 21 16.9706 21 12C21 11.1055 20.8695 10.2415 20.6265 9.4259Z" fill="#181D27"/>
<path d="M14.5621 19.1937C16.6314 18.4366 18.2969 16.8216 19.054 14.7018C19.6789 13.0426 19.6646 11.3113 19.1417 9.73919C19.3654 9.74226 19.9338 9.62544 20.6454 9.42165C22.0772 14.1805 19.5181 19.257 14.764 20.7583C14.7135 20.8087 14.6126 20.8087 14.5621 20.8087C14.3602 20.7583 14.2593 20.6069 14.2593 20.405V19.6985C14.2593 19.446 14.3602 19.2946 14.5621 19.1937Z" fill="white"/>
<path d="M15.3192 13.905C15.3192 12.1385 14.2594 11.5329 12.1396 11.2805C10.6254 11.0786 10.3226 10.6749 10.3226 9.96821C10.3226 9.26154 10.8274 8.80742 11.8367 8.80742C12.7452 8.80742 13.25 9.11024 13.5023 9.86731C13.5528 10.0187 13.7042 10.1196 13.8556 10.1196H14.6631C14.865 10.1196 15.0164 9.96821 15.0164 9.76641V9.7159C14.8145 8.60549 13.906 7.74752 12.7452 7.64662V6.43531C12.7452 6.23339 12.5938 6.08198 12.3415 6.03146H11.5844C11.3825 6.03146 11.2311 6.18288 11.1806 6.43531V7.59611C9.66644 7.79803 8.70757 8.80742 8.70757 10.0692C8.70757 11.7348 9.71695 12.3908 11.8367 12.6433C13.25 12.8956 13.7042 13.1984 13.7042 14.006C13.7042 14.8136 12.9975 15.3687 12.0387 15.3687C10.7263 15.3687 10.2721 14.8134 10.1207 14.0564C10.0703 13.8546 9.91887 13.7535 9.76746 13.7535H8.90937C8.70757 13.7535 8.55615 13.905 8.55615 14.1069V14.1574C8.75796 15.4191 9.56554 16.3276 11.2311 16.58V17.7913C11.2311 17.9931 11.3825 18.1445 11.6348 18.1951H12.3919C12.5938 18.1951 12.7452 18.0436 12.7957 17.7913V16.58C14.3099 16.3276 15.3192 15.2677 15.3192 13.905Z" fill="white"/>
<path d="M9.41384 19.2046C5.47709 17.7915 3.4582 13.4005 4.92195 9.51415C5.67901 7.39437 7.34456 5.77933 9.41384 5.02226C9.61576 4.92136 9.71666 4.76995 9.71666 4.51751V3.81096C9.71666 3.60903 9.61576 3.45762 9.41384 3.40723C9.36333 3.40723 9.26242 3.40723 9.21191 3.45762C4.41719 4.97175 1.79265 10.0694 3.30679 14.8641C4.21527 17.6905 6.38557 19.8608 9.21191 20.7693C9.41384 20.8702 9.61576 20.7693 9.66615 20.5673C9.71667 20.5169 9.71666 20.4664 9.71666 20.3655V19.6589C9.71666 19.5074 9.56525 19.3056 9.41384 19.2046Z" fill="white"/>
<path fill-rule="evenodd" clip-rule="evenodd" d="M22.0119 2.49237L21.6016 2.90153C21.5395 2.96347 21.5307 3.06003 21.5788 3.1333C21.7291 3.36233 21.8488 3.60888 21.9359 3.86695L21.9369 3.86589C22.0481 4.19522 22.1056 4.54269 22.1056 4.89354C22.1056 6.66589 20.6598 8.10777 18.8827 8.10777C18.3479 8.10777 17.8342 7.97966 17.3722 7.73381L18.0676 7.04034C18.327 7.13845 18.6035 7.18941 18.8827 7.18941C20.1521 7.18941 21.1848 6.15949 21.1848 4.89354C21.1848 4.81445 21.18 4.73513 21.1717 4.65602C21.144 4.38989 21.0703 4.13189 20.9545 3.89307C20.8992 3.77905 20.7477 3.75311 20.6579 3.84271L20.2414 4.25809C20.1964 4.30296 20.1778 4.36789 20.1923 4.42974L20.2272 4.57887C20.2516 4.68286 20.2639 4.78876 20.2639 4.89354C20.2639 5.65312 19.6443 6.27106 18.8827 6.27106C18.643 6.27106 18.4065 6.2084 18.1989 6.08977L18.0156 5.98509C17.9435 5.94388 17.8527 5.95594 17.7939 6.01457L16.0959 7.70784C16.0172 7.78629 16.0258 7.91591 16.1141 7.98348L16.3642 8.1747C17.0926 8.73174 17.9635 9.02613 18.8827 9.02613C21.1676 9.02613 23.0264 7.17223 23.0264 4.89354C23.0264 4.17413 22.838 3.46538 22.4815 2.84393L22.302 2.53103C22.2673 2.47058 22.2049 2.43855 22.1419 2.43855C22.0953 2.43855 22.0484 2.45601 22.0119 2.49237Z" fill="url(#paint1_linear_12317_2270)"/>
<path fill-rule="evenodd" clip-rule="evenodd" d="M18.9382 0.776138C16.6433 0.776138 14.7764 2.63 14.7764 4.9087C14.7764 5.6282 14.9656 6.33697 15.3236 6.95833L15.504 7.27124C15.5645 7.37632 15.7091 7.3955 15.7953 7.3099L16.2073 6.90079C16.2697 6.83886 16.2785 6.74235 16.2303 6.66906C16.0795 6.44017 15.9591 6.19344 15.8716 5.93538L15.8706 5.93638C15.759 5.60705 15.7012 5.2596 15.7012 4.9087C15.7012 3.1364 17.1533 1.69447 18.9382 1.69447C19.4752 1.69447 19.9912 1.82257 20.4552 2.06846L19.7568 2.76193C19.4962 2.66382 19.2185 2.61282 18.9382 2.61282C17.6632 2.61282 16.6261 3.64277 16.6261 4.9087C16.6261 4.94703 16.6275 4.98539 16.6294 5.02375C16.6301 5.0362 16.6309 5.04859 16.6317 5.06102C16.6337 5.09095 16.6363 5.12089 16.6396 5.1508C16.6679 5.41471 16.7419 5.67144 16.8575 5.90905C16.913 6.0231 17.0652 6.04897 17.1553 5.95938L17.5735 5.54421C17.6187 5.4993 17.6373 5.43437 17.6228 5.37256L17.5877 5.22336C17.5633 5.1195 17.5509 5.01366 17.5509 4.9087C17.5509 4.14914 18.1732 3.53118 18.9382 3.53118C19.1789 3.53118 19.4163 3.59387 19.6248 3.71246L19.809 3.81721C19.8814 3.85845 19.9726 3.84633 20.0317 3.78773L21.737 2.09442C21.816 2.01592 21.8074 1.88632 21.7188 1.81879L21.4675 1.62756C20.7359 1.07056 19.8613 0.776138 18.9382 0.776138Z" fill="url(#paint2_linear_12317_2270)"/>
</g>
<defs>
<linearGradient id="paint0_linear_12317_2270" x1="22.2313" y1="18.1183" x2="-3.53296" y2="2.62136" gradientUnits="userSpaceOnUse">
<stop stop-color="#5433FF"/>
<stop offset="0.5" stop-color="#20BDFF"/>
<stop offset="1" stop-color="#5CFFA2"/>
</linearGradient>
<linearGradient id="paint1_linear_12317_2270" x1="575.84" y1="137.944" x2="46.2505" y2="655.725" gradientUnits="userSpaceOnUse">
<stop stop-color="#5FBFFF"/>
<stop offset="1" stop-color="#B090F5"/>
</linearGradient>
<linearGradient id="paint2_linear_12317_2270" x1="14.7764" y1="620.634" x2="755.581" y2="-104.336" gradientUnits="userSpaceOnUse">
<stop stop-color="#68D7FA"/>
<stop offset="1" stop-color="#7EF1B3"/>
</linearGradient>
<clipPath id="clip0_12317_2270">
<rect width="24" height="24" fill="white"/>
</clipPath>
</defs>
</svg>
