<svg width="24" height="24" viewBox="0 0 24 24" fill="none" xmlns="http://www.w3.org/2000/svg">
<g clip-path="url(#clip0_12395_791)">
<circle cx="12" cy="12" r="12" fill="#181D27"/>
<mask id="mask0_12395_791" style="mask-type:alpha" maskUnits="userSpaceOnUse" x="0" y="0" width="24" height="24">
<circle cx="12" cy="12" r="11.5" fill="#181D27" stroke="white"/>
</mask>
<g mask="url(#mask0_12395_791)">
<path opacity="0.8" fill-rule="evenodd" clip-rule="evenodd" d="M11.9998 27.0793L0.36002 3.36861L3.38965 1.88134L11.9998 19.4206L20.61 1.88134L23.6397 3.36861L11.9998 27.0793Z" fill="white"/>
</g>
<circle opacity="0.8" cx="12" cy="12" r="10.5" fill="#2CDFFF"/>
<circle cx="12" cy="12" r="9" fill="#181D27"/>
<path fill-rule="evenodd" clip-rule="evenodd" d="M16.9318 16.7421C16.933 16.7508 16.9335 16.7598 16.9337 16.7687C16.934 16.8384 16.8982 16.9032 16.8388 16.9398L12.086 19.8705C12.0217 19.91 11.9409 19.9103 11.8768 19.8707L7.16234 16.9765C7.103 16.94 7.06692 16.8754 7.06716 16.8058C7.06716 16.7998 7.0674 16.7936 7.06815 16.7876C7.0674 16.7812 7.06716 16.775 7.06716 16.7685L7.06685 13.1525C7.06685 13.1482 7.06713 13.1438 7.06737 13.1397C7.06391 13.0873 7.08118 13.0341 7.11826 12.993C7.18156 12.9229 7.28512 12.9068 7.36645 12.9541L11.9991 15.6428L16.5891 12.9801C16.5965 12.9755 16.6044 12.9719 16.6123 12.9684C16.6459 12.9424 16.688 12.927 16.7339 12.927C16.8439 12.927 16.9334 13.0165 16.9334 13.1266L16.9337 16.714C16.9337 16.7237 16.933 16.7329 16.9318 16.7421ZM7.46612 16.4529L8.8355 15.6256L7.46588 13.7406L7.46612 16.4529ZM9.07087 15.9497C8.69093 16.1791 7.65029 16.8078 7.65029 16.8078L11.3399 19.073L9.07087 15.9497ZM12.6866 19.0314L16.3506 16.772L14.9349 15.9208L12.6866 19.0314ZM15.1694 15.5961L16.5347 16.417L16.5345 13.7072L15.1694 15.5961ZM11.899 16.046L7.98252 13.7727L11.9989 19.3015L15.9781 13.7957L12.0993 16.046C12.0375 16.0819 11.9608 16.0819 11.899 16.046ZM7.25961 12.182C7.15256 12.1783 7.06678 12.0905 7.06678 11.9825L7.06641 7.28236C7.06641 7.27063 7.0674 7.25914 7.06938 7.24809C7.0674 7.23729 7.06641 7.22627 7.06641 7.21502C7.06613 7.14535 7.10222 7.08054 7.16156 7.04422L11.9147 4.12912C11.9784 4.08981 12.059 4.08981 12.1228 4.12889L16.8373 7.00721C16.8969 7.04354 16.933 7.10835 16.933 7.17798C16.933 7.18099 16.9328 7.18376 16.9328 7.18674C16.9328 7.18971 16.933 7.19272 16.933 7.19594L16.9334 11.9579C16.9334 12.042 16.881 12.1142 16.8073 12.1434L12.0952 14.7355C12.0354 14.7683 11.9627 14.7683 11.9029 14.7355L7.25961 12.182ZM7.4654 7.56695L7.46571 11.3489L9.16075 8.58625L7.4654 7.56695ZM16.534 7.53107L14.823 8.56484L16.5343 11.3537L16.534 7.53107ZM14.6144 8.22464C15.0531 7.95958 16.3491 7.17661 16.3491 7.17661L12.5468 4.85508L14.6144 8.22464ZM11.4231 4.89853L7.65026 7.21249L9.36934 8.24625L11.4231 4.89853ZM7.59057 11.9087L11.999 14.333L16.4066 11.9084L11.9982 4.72405L7.59057 11.9087Z" fill="white"/>
</g>
<defs>
<clipPath id="clip0_12395_791">
<rect width="24" height="24" fill="white"/>
</clipPath>
</defs>
</svg>
