<svg width="24" height="24" viewBox="0 0 24 24" fill="none" xmlns="http://www.w3.org/2000/svg">
<g clip-path="url(#clip0_12379_395)">
<circle cx="12" cy="12" r="12" fill="#181D27"/>
<mask id="mask0_12379_395" style="mask-type:alpha" maskUnits="userSpaceOnUse" x="0" y="0" width="24" height="24">
<circle cx="12" cy="12" r="11.5" fill="#181D27" stroke="white"/>
</mask>
<g mask="url(#mask0_12379_395)">
<path opacity="0.8" fill-rule="evenodd" clip-rule="evenodd" d="M11.9998 27.0793L0.36002 3.36861L3.38965 1.88134L11.9998 19.4206L20.61 1.88134L23.6397 3.36861L11.9998 27.0793Z" fill="white"/>
</g>
<circle opacity="0.8" cx="12" cy="12" r="10.5" fill="#AAB3CA"/>
<circle cx="12" cy="12" r="9" fill="#181D27"/>
<path d="M16.3648 6.84161C16.324 6.8417 16.284 6.85251 16.2487 6.87295L16.2484 6.87265L15.3427 7.38641C15.1215 7.5085 15.1054 7.65568 15.1069 7.70523C15.1057 7.75479 15.1215 7.90196 15.3427 8.02405L16.2484 8.53781L16.2487 8.53751C16.2841 8.55785 16.3241 8.56855 16.3649 8.56853C16.4057 8.56852 16.4458 8.55778 16.4811 8.53741C16.5165 8.51703 16.5458 8.48773 16.5663 8.45244C16.5868 8.41714 16.5976 8.3771 16.5977 8.33631C16.5976 8.29551 16.5868 8.25545 16.5664 8.22014C16.5459 8.18482 16.5166 8.1555 16.4813 8.1351L16.4816 8.1348L15.6982 7.70523L16.4816 7.27566L16.4813 7.27536C16.5254 7.24965 16.5599 7.21013 16.5793 7.16289C16.5988 7.11566 16.6022 7.06333 16.589 7.01397C16.5758 6.96462 16.5467 6.92098 16.5063 6.88978C16.4658 6.85857 16.4162 6.84154 16.3651 6.84131L16.3648 6.84161ZM11.0386 6.96609C10.8265 6.96617 10.6232 7.05045 10.4732 7.20042C10.3232 7.35038 10.2389 7.55375 10.2389 7.76583C10.2389 7.97791 10.3232 8.18128 10.4732 8.33124C10.6232 8.48121 10.8265 8.56549 11.0386 8.56557C11.2507 8.56549 11.4541 8.48121 11.604 8.33124C11.754 8.18128 11.8383 7.97791 11.8383 7.76583C11.8383 7.55375 11.754 7.35038 11.604 7.20042C11.4541 7.05045 11.2507 6.96617 11.0386 6.96609ZM19.2572 9.63219C19.1573 9.63237 19.0588 9.6559 18.9695 9.70088C18.8803 9.74587 18.8028 9.81107 18.7432 9.89131L18.742 9.89041L17.4715 11.6768L17.4738 11.6777C17.3923 11.7871 17.3477 11.9197 17.3467 12.0562C17.3478 12.1926 17.3923 12.3251 17.4738 12.4344L17.4715 12.4353L18.742 14.2217L18.7432 14.2208C18.7981 14.2945 18.8683 14.3556 18.949 14.3999C19.0296 14.4442 19.1189 14.4706 19.2106 14.4774C19.3024 14.4841 19.3945 14.4711 19.4808 14.4391C19.5671 14.4072 19.6455 14.357 19.7107 14.2921C19.8171 14.1852 19.8825 14.0442 19.8954 13.8938C19.9082 13.7435 19.8676 13.5934 19.7808 13.47L19.7817 13.4694L18.776 12.0562L19.7817 10.643L19.7808 10.6424C19.848 10.5464 19.8877 10.4337 19.8954 10.3168C19.9032 10.1998 19.8788 10.083 19.8248 9.97888C19.7709 9.87481 19.6894 9.78751 19.5894 9.72645C19.4893 9.66538 19.3744 9.63259 19.2572 9.63219ZM10.2039 15.4516C10.026 15.4516 9.88184 15.6026 9.88184 15.7892C9.88184 15.9179 9.95169 16.0355 10.0618 16.0922C11.9273 17.2621 13.5668 17.1561 13.5668 17.1561C13.5668 17.1561 15.2063 17.2624 17.0717 16.0922C17.1819 16.0355 17.2517 15.9179 17.2517 15.7892C17.2517 15.6026 17.1076 15.4516 16.9296 15.4516C16.8619 15.4519 16.7956 15.4743 16.7407 15.5164L16.7126 15.5352C16.7126 15.5352 15.3137 16.5188 13.5668 16.4886C11.8198 16.5188 10.421 15.5352 10.421 15.5352L10.3929 15.5164C10.3387 15.4747 10.2723 15.452 10.2039 15.4516Z" fill="white"/>
<path d="M14.5796 9.60437L14.4017 9.61333L14.3052 9.62497L14.1945 9.64169L14.1058 9.66169L13.9912 9.69094L13.9109 9.71781L13.7948 9.7602L13.7213 9.79304L13.6061 9.84886L13.5404 9.88647L13.427 9.95603L13.37 9.99693L13.2598 10.0808L13.2111 10.1235L13.1058 10.2217L13.0646 10.2659L12.9673 10.3766L12.9323 10.4229L12.8449 10.5453L12.8168 10.5913L12.7404 10.7247L12.718 10.7713L12.6541 10.914L12.6374 10.96L12.5875 11.1104L12.5756 11.1573L12.541 11.3125L12.5338 11.3594L12.5144 11.5188L12.5084 11.6209H12.5078V11.6343L12.5063 11.6776L12.5069 11.6946H12.5078V13.8622C12.5117 14.2043 12.7905 14.4792 13.1323 14.4795C13.4741 14.4798 13.7524 14.2043 13.7565 13.8622L13.7568 13.855V11.6251C13.7804 11.2573 14.0449 10.9498 14.4049 10.8716L14.4112 10.8701L14.4733 10.8603L14.4936 10.8573L14.544 10.8543L14.5793 10.8525L14.6196 10.8546L14.6646 10.8573L14.6885 10.8608L14.7473 10.8701L14.7551 10.8722L14.8276 10.8913C15.1521 10.9943 15.3802 11.2856 15.4017 11.6254V13.8553V13.8625C15.4056 14.2043 15.6841 14.4795 16.0262 14.4798C16.1906 14.4799 16.3484 14.4151 16.4653 14.2995C16.5821 14.1839 16.6487 14.0269 16.6504 13.8625H16.6507V11.6949H16.6513L16.6522 11.6779L16.6507 11.6346V11.6212H16.6501L16.6441 11.5191L16.6247 11.3582L16.6182 11.3137L16.5832 11.157L16.5716 11.111L16.5218 10.9606L16.505 10.9146L16.4409 10.771L16.4191 10.7256L16.3423 10.5916L16.3143 10.5459L16.2268 10.4235L16.1919 10.3772L16.0946 10.2665L16.0534 10.2223L15.948 10.1241L15.8993 10.0814L15.7889 9.99722L15.7322 9.95663L15.6181 9.88677L15.553 9.84946L15.4372 9.79363L15.3641 9.7608L15.248 9.71841L15.1677 9.69154L15.053 9.66228L14.9644 9.64228L14.8536 9.62557L14.7572 9.61392L14.5793 9.60497L14.5796 9.60437ZM4.72656 9.64586C4.38177 9.64586 4.10205 9.92558 4.10205 10.2704C4.1022 10.3167 4.10751 10.3628 4.11787 10.408L4.11638 10.4083L5.00209 14.0189L5.00389 14.0186C5.03927 14.1485 5.11572 14.2635 5.22184 14.3464C5.32795 14.4293 5.45803 14.4756 5.59264 14.4784C5.72725 14.4813 5.85918 14.4405 5.96871 14.3622C6.07824 14.2839 6.1595 14.1723 6.20036 14.044L6.20126 14.0479L6.86129 12.1636L7.52162 14.0479L7.52251 14.044C7.56337 14.1723 7.64463 14.2839 7.75417 14.3622C7.8637 14.4405 7.99562 14.4813 8.13023 14.4784C8.26485 14.4756 8.39492 14.4293 8.50104 14.3464C8.60715 14.2635 8.68361 14.1485 8.71899 14.0186L8.72078 14.0189L9.60649 10.4083L9.605 10.408C9.61537 10.3628 9.62067 10.3167 9.62082 10.2704C9.62082 9.92558 9.34111 9.64586 8.99632 9.64586C8.84792 9.64593 8.7044 9.69889 8.59153 9.79524C8.47866 9.89159 8.40383 10.025 8.38046 10.1716L8.37897 10.1713L8.01209 11.6624L7.45087 10.0596L7.44878 10.0605L7.42818 10.011L7.4234 9.99991L7.39982 9.95573L7.39355 9.94498L7.36609 9.90409L7.35833 9.89334L7.32788 9.85662L7.31773 9.84498L7.28459 9.81214L7.27295 9.80139L7.23743 9.77274L7.22369 9.76229L7.18727 9.73871L7.17056 9.72856L7.13354 9.70945L7.11443 9.7002L7.07772 9.68557L7.05563 9.67751L7.01921 9.66706L6.99532 9.66109L6.9592 9.65452L6.93323 9.65064L6.8992 9.64795L6.86159 9.64616L6.82278 9.64825L6.79024 9.65064L6.76218 9.65482L6.72815 9.66109L6.70307 9.66736L6.66725 9.67751L6.64516 9.68557L6.60844 9.7002L6.58933 9.70945L6.55232 9.72856L6.535 9.739L6.49948 9.76229L6.48485 9.77333L6.44963 9.80169L6.43798 9.81244L6.40485 9.84498L6.3944 9.85692L6.36425 9.89334L6.35619 9.90468L6.32902 9.94528L6.32275 9.95633L6.29917 9.99991L6.2941 10.0113L6.27469 10.0578L6.27141 10.0599L5.71019 11.6627L5.3433 10.1716L5.34181 10.1719C5.31845 10.0253 5.24362 9.89189 5.13075 9.79554C5.01788 9.69919 4.87436 9.64623 4.72596 9.64616L4.72656 9.64586ZM11.0645 9.64586C10.7239 9.64616 10.4462 9.91931 10.4406 10.2599H10.44V10.2704V13.855V13.898H10.4415C10.4513 14.0565 10.5212 14.2053 10.6369 14.314C10.7526 14.4228 10.9054 14.4833 11.0642 14.4833C11.223 14.4833 11.3758 14.4228 11.4915 14.314C11.6072 14.2053 11.6771 14.0565 11.6869 13.898H11.689V13.855V10.2704V10.2599C11.6864 10.0961 11.6192 9.93989 11.5024 9.825C11.3856 9.71011 11.2283 9.64577 11.0645 9.64586Z" fill="white"/>
</g>
<defs>
<clipPath id="clip0_12379_395">
<rect width="24" height="24" fill="white"/>
</clipPath>
</defs>
</svg>
