<svg width="24" height="24" viewBox="0 0 24 24" fill="none" xmlns="http://www.w3.org/2000/svg">
<g clip-path="url(#clip0_12387_307)">
<circle cx="12" cy="12" r="12" fill="#181D27"/>
<mask id="mask0_12387_307" style="mask-type:alpha" maskUnits="userSpaceOnUse" x="0" y="0" width="24" height="24">
<circle cx="12" cy="12" r="11.5" fill="#181D27" stroke="white"/>
</mask>
<g mask="url(#mask0_12387_307)">
<path opacity="0.8" fill-rule="evenodd" clip-rule="evenodd" d="M11.9998 27.0793L0.36002 3.36861L3.38965 1.88134L11.9998 19.4206L20.61 1.88134L23.6397 3.36861L11.9998 27.0793Z" fill="white"/>
</g>
<circle opacity="0.8" cx="12" cy="12" r="10.5" fill="#2CDFFF"/>
<circle cx="12" cy="12" r="9" fill="#181D27"/>
<path opacity="0.6" d="M15.8328 11.2689L15.9374 11.4294C17.1172 13.2391 16.8537 15.6093 15.3039 17.1277C14.3923 18.021 13.1974 18.4677 12.0024 18.4678C12.0024 18.4678 12.0024 18.4678 15.8328 11.2689Z" fill="white"/>
<path opacity="0.2" d="M12.001 13.4569L15.8314 11.2689C12.001 18.4678 12.001 18.4678 12.001 18.4678C12.001 16.9 12.001 15.1034 12.001 13.4569Z" fill="white"/>
<path d="M8.16757 11.2689L8.06297 11.4294C6.88323 13.2391 7.14673 15.6093 8.69645 17.1277C9.60814 18.021 10.803 18.4677 11.998 18.4678C11.998 18.4678 11.998 18.4678 8.16757 11.2689Z" fill="white"/>
<path opacity="0.6" d="M11.9964 13.4569L8.16602 11.2689C11.9964 18.4678 11.9964 18.4678 11.9964 18.4678C11.9964 16.9 11.9964 15.1034 11.9964 13.4569Z" fill="white"/>
<path opacity="0.2" d="M12.0029 8.56921V12.3428L15.3024 10.4572L12.0029 8.56921Z" fill="white"/>
<path opacity="0.6" d="M12.0025 8.56921L8.70068 10.4572L12.0025 12.3428V8.56921Z" fill="white"/>
<path d="M12.0025 5.39563L8.70068 10.4584L12.0025 8.56512V5.39563Z" fill="white"/>
<path opacity="0.6" d="M12.0029 8.56453L15.3049 10.4579L12.0029 5.39258V8.56453Z" fill="white"/>
</g>
<defs>
<clipPath id="clip0_12387_307">
<rect width="24" height="24" fill="white"/>
</clipPath>
</defs>
</svg>
