<svg width="125" height="19" viewBox="0 0 125 19" fill="none" xmlns="http://www.w3.org/2000/svg">
<mask id="mask0_1916_2586" style="mask-type:luminance" maskUnits="userSpaceOnUse" x="0" y="0" width="125" height="19">
<path d="M124.75 0.348633H0.75V18.6512H124.75V0.348633Z" fill="white"/>
</mask>
<g mask="url(#mask0_1916_2586)">
<mask id="mask1_1916_2586" style="mask-type:luminance" maskUnits="userSpaceOnUse" x="0" y="0" width="125" height="19">
<path d="M124.626 0.348633H0.75V18.6512H124.626V0.348633Z" fill="white"/>
</mask>
<g mask="url(#mask1_1916_2586)">
<path d="M4.9628 4.66512C6.26167 3.35796 7.98253 2.63708 9.80799 2.63708H17.3361C17.9466 2.63708 18.4415 2.12505 18.4415 1.49349C18.4415 0.861928 17.9466 0.348633 17.3361 0.348633H9.80799C7.40243 0.348633 5.13427 1.29975 3.42071 3.02583C1.69861 4.75947 0.75 7.05924 0.75 9.49988C0.75 11.9406 1.69861 14.2404 3.42071 15.974C5.13427 17.7001 7.40365 18.65 9.80799 18.65H17.3361C17.9466 18.65 18.4415 18.1379 18.4415 17.5064C18.4415 16.8748 17.9466 16.3628 17.3361 16.3628H9.80799C7.98253 16.3628 6.26167 15.6432 4.9628 14.3348C3.67245 13.0352 2.96099 11.3179 2.96099 9.49988C2.96099 7.682 3.67123 5.96471 4.9628 4.66512Z" fill="white"/>
<path d="M57.0682 0.35267C56.4807 0.39167 56.0356 0.923842 56.0356 1.53275C56.0356 3.36325 56.0356 9.02966 56.0356 12.317C56.0356 13.214 54.9874 13.6619 54.3744 13.0278L42.4437 0.684802C42.0656 0.29354 41.4574 0.230636 41.0026 0.574092C40.7143 0.791742 40.5551 1.15029 40.5551 1.52017V17.4689C40.5551 18.0778 40.999 18.6099 41.5875 18.6489C42.2322 18.6917 42.7672 18.1646 42.7672 17.5079V6.6846C42.7672 5.78758 43.8156 5.33845 44.4286 5.97252L56.3603 18.3155C56.572 18.5345 56.8542 18.6502 57.1423 18.6502C57.3321 18.6502 57.523 18.5999 57.697 18.4955C58.0471 18.2866 58.2479 17.8853 58.2479 17.4676V1.49375C58.2479 0.837032 57.7127 0.308637 57.0682 0.35267Z" fill="white"/>
<path d="M103.544 0.352459C102.956 0.39146 102.511 0.92363 102.511 1.53254C102.511 3.36304 102.511 9.02945 102.511 12.3168C102.511 13.2138 101.463 13.6617 100.85 13.0276L88.9365 0.70221C88.6835 0.440525 88.3273 0.303394 87.9733 0.361266C87.4163 0.450589 87.0307 0.93998 87.0307 1.49354V17.4674C87.0307 18.0763 87.4747 18.6085 88.0633 18.6475C88.7079 18.6902 89.2431 18.1631 89.2431 17.5064V6.68439C89.2431 5.78737 90.2912 5.33824 90.9043 5.97231L102.836 18.3154C103.048 18.5343 103.33 18.65 103.618 18.65C103.808 18.65 103.999 18.5997 104.173 18.4953C104.523 18.2864 104.724 17.8851 104.724 17.4674V1.49354C104.724 0.83682 104.188 0.308426 103.544 0.352459Z" fill="white"/>
<path d="M76.7275 -0.0869141H61.2858C60.6971 -0.0869141 60.1827 0.372286 60.1449 0.981202C60.1036 1.64798 60.6132 2.20154 61.248 2.20154H67.2741C67.6098 2.20154 67.8823 2.48335 67.8823 2.83058V17.0318C67.8823 17.6407 68.3261 18.1729 68.9147 18.2119C69.5593 18.2546 70.0944 17.7275 70.0944 17.0708V2.83058C70.0944 2.48335 70.3668 2.20154 70.7025 2.20154H76.691C77.2795 2.20154 77.7939 1.74234 77.8317 1.13342C77.873 0.466642 77.3624 -0.0869141 76.7275 -0.0869141Z" fill="white"/>
<path d="M81.4547 0.348633C80.8442 0.348633 80.3492 0.860678 80.3492 1.49223V17.5064C80.3492 18.1379 80.8442 18.65 81.4547 18.65C82.0652 18.65 82.5603 18.1379 82.5603 17.5064V1.49349C82.5603 0.861928 82.0652 0.349891 81.4547 0.349891V0.348633Z" fill="white"/>
<path d="M29.4988 0.348633C27.1396 0.348633 24.9164 1.32994 23.2405 3.11139C21.572 4.88402 20.6537 7.23035 20.6537 9.71878V17.5064C20.6537 18.1379 21.1488 18.65 21.7593 18.65C22.3698 18.65 22.8648 18.1379 22.8648 17.5064V9.71878C22.8648 7.83046 23.5604 6.05027 24.8251 4.70663C26.0814 3.3718 27.7415 2.63584 29.4988 2.63584C31.2563 2.63584 32.9163 3.37056 34.1725 4.70663C35.4362 6.05027 36.1331 7.83046 36.1331 9.71878V17.5064C36.1331 18.1379 36.628 18.65 37.2386 18.65C37.8491 18.65 38.344 18.1379 38.344 17.5064V9.71878C38.344 7.23035 37.4259 4.88402 35.7574 3.11139C34.0815 1.3312 31.8582 0.348633 29.4988 0.348633Z" fill="white"/>
<path d="M29.4988 9.5C28.8885 9.5 28.3934 10.012 28.3934 10.6436V17.5064C28.3934 18.138 28.8885 18.65 29.4988 18.65C30.1094 18.65 30.6045 18.138 30.6045 17.5064V10.6436C30.6045 10.012 30.1094 9.5 29.4988 9.5Z" fill="#FA5E06"/>
<path d="M122.039 3.11139C120.363 1.3312 118.14 0.348633 115.781 0.348633C113.422 0.348633 111.198 1.32994 109.523 3.11139C107.854 4.88402 106.936 7.23035 106.936 9.71878V17.5064C106.936 18.1379 107.431 18.65 108.041 18.65C108.652 18.65 109.147 18.1379 109.147 17.5064V9.71878C109.147 7.83046 109.842 6.05027 111.107 4.70663C112.363 3.3718 114.024 2.63584 115.781 2.63584C117.538 2.63584 119.198 3.37056 120.455 4.70663C121.718 6.05027 122.415 7.83046 122.415 9.71878V17.5064C122.415 18.1379 122.91 18.65 123.521 18.65C124.131 18.65 124.626 18.1379 124.626 17.5064V9.71878C124.626 7.23035 123.708 4.88402 122.039 3.11139Z" fill="white"/>
<path d="M115.781 9.5C115.171 9.5 114.675 10.012 114.675 10.6436V17.5064C114.675 18.138 115.171 18.65 115.781 18.65C116.392 18.65 116.886 18.138 116.886 17.5064V10.6436C116.886 10.012 116.392 9.5 115.781 9.5Z" fill="#FA5E06"/>
</g>
</g>
</svg>
