<svg width="163" height="26" viewBox="0 0 163 26" fill="none" xmlns="http://www.w3.org/2000/svg">
<mask id="mask0_1922_3283" style="mask-type:luminance" maskUnits="userSpaceOnUse" x="0" y="0" width="163" height="26">
<path d="M163 0.5H0V25.5H163V0.5Z" fill="white"/>
</mask>
<g mask="url(#mask0_1922_3283)">
<path d="M22.9047 25.4202V18.9333H15.708C13.7509 18.9333 11.9381 19.9418 10.9357 21.5882L8.60254 25.4202H22.9047Z" fill="#BAC3DA"/>
<path d="M0 0.5V6.98687H18.9553L22.9049 0.5H0Z" fill="#BAC3DA"/>
<path d="M9.07195 10.638L0.0209961 25.4203H7.73219L18.5555 7.73535H14.2974C12.1555 7.73535 10.1713 8.83758 9.07195 10.638Z" fill="#BAC3DA"/>
<path d="M39.3104 19.1958C35.4329 19.1958 32.5796 16.4292 32.5796 12.7166C32.5796 9.03965 35.4512 6.23732 39.3287 6.23732C43.2062 6.23732 46.0778 9.07535 46.0778 12.7166C46.0778 16.3935 43.188 19.1958 39.3104 19.1958ZM39.3287 16.929C41.7796 16.929 43.5355 15.1441 43.5355 12.7166C43.5355 10.3248 41.7796 8.50417 39.3287 8.50417C36.8595 8.50417 35.1037 10.3248 35.1037 12.7166C35.1037 15.1441 36.8595 16.929 39.3287 16.929ZM48.6743 23.0691V9.57513H51.0155V10.771H51.1435C51.3996 10.3783 52.2775 9.34309 54.0334 9.34309C56.722 9.34309 58.5693 11.3065 58.5693 14.2338C58.5693 17.161 56.7403 19.1958 54.1065 19.1958C52.4055 19.1958 51.491 18.2677 51.1801 17.7501H51.0521V23.0691H48.6743ZM53.5761 17.0896C55.1125 17.0896 56.155 15.9294 56.155 14.2695C56.155 12.5559 55.1125 11.4493 53.5578 11.4493C51.9849 11.4493 50.9972 12.6809 50.9972 14.2695C50.9972 16.0187 52.0946 17.0896 53.5761 17.0896ZM65.3726 19.1958C62.5376 19.1958 60.5257 17.1253 60.5257 14.323C60.5257 11.36 62.5559 9.34309 65.3726 9.34309C68.4637 9.34309 70.1464 11.5742 70.1464 14.2159V14.9477H62.8303C62.9035 16.3757 63.9094 17.3395 65.4458 17.3395C66.6164 17.3395 67.5126 16.8041 67.8418 16.0365H70.0549C69.5794 17.9464 67.8601 19.1958 65.3726 19.1958ZM62.8669 13.3056H67.8784C67.7687 12.0383 66.7627 11.1994 65.3726 11.1994C64.0374 11.1994 63.0132 12.1276 62.8669 13.3056ZM72.7063 18.9638V9.57513H74.9743V10.7175H75.1023C75.4864 10.0214 76.4375 9.34309 77.8093 9.34309C79.9675 9.34309 81.2844 10.8246 81.2844 12.8237V18.9638H78.9067V13.4306C78.9067 12.2882 78.1568 11.5207 77.0594 11.5207C75.9071 11.5207 75.0841 12.4131 75.0841 13.5912V18.9638H72.7063ZM83.6432 18.9638V16.8398L90.3008 8.64697V8.52202H83.881V6.46936H93.337V8.57557L86.6794 16.7684V16.9111H93.3736V18.9638H83.6432ZM99.8111 19.1958C96.9761 19.1958 94.9642 17.1253 94.9642 14.323C94.9642 11.36 96.9944 9.34309 99.8111 9.34309C102.902 9.34309 104.585 11.5742 104.585 14.2159V14.9477H97.2687C97.3419 16.3757 98.3479 17.3395 99.8842 17.3395C101.055 17.3395 101.951 16.8041 102.28 16.0365H104.494C104.018 17.9464 102.299 19.1958 99.8111 19.1958ZM97.3053 13.3056H102.317C102.207 12.0383 101.201 11.1994 99.8111 11.1994C98.4759 11.1994 97.4516 12.1276 97.3053 13.3056ZM107.145 23.0691V9.57513H109.486V10.771H109.614C109.87 10.3783 110.748 9.34309 112.504 9.34309C115.193 9.34309 117.04 11.3065 117.04 14.2338C117.04 17.161 115.211 19.1958 112.577 19.1958C110.876 19.1958 109.962 18.2677 109.651 17.7501H109.523V23.0691H107.145ZM112.047 17.0896C113.583 17.0896 114.626 15.9294 114.626 14.2695C114.626 12.5559 113.583 11.4493 112.028 11.4493C110.455 11.4493 109.468 12.6809 109.468 14.2695C109.468 16.0187 110.565 17.0896 112.047 17.0896ZM119.6 23.0691V9.57513H121.941V10.771H122.069C122.325 10.3783 123.203 9.34309 124.959 9.34309C127.648 9.34309 129.495 11.3065 129.495 14.2338C129.495 17.161 127.666 19.1958 125.032 19.1958C123.331 19.1958 122.417 18.2677 122.106 17.7501H121.978V23.0691H119.6ZM124.502 17.0896C126.038 17.0896 127.081 15.9294 127.081 14.2695C127.081 12.5559 126.038 11.4493 124.483 11.4493C122.91 11.4493 121.923 12.6809 121.923 14.2695C121.923 16.0187 123.02 17.0896 124.502 17.0896ZM136.298 19.1958C133.463 19.1958 131.451 17.1253 131.451 14.323C131.451 11.36 133.482 9.34309 136.298 9.34309C139.389 9.34309 141.072 11.5742 141.072 14.2159V14.9477H133.756C133.829 16.3757 134.835 17.3395 136.371 17.3395C137.542 17.3395 138.438 16.8041 138.767 16.0365H140.981C140.505 17.9464 138.786 19.1958 136.298 19.1958ZM133.792 13.3056H138.804C138.694 12.0383 137.688 11.1994 136.298 11.1994C134.963 11.1994 133.939 12.1276 133.792 13.3056ZM145.973 18.9638C144.29 18.9638 143.339 17.9821 143.339 16.3221V5.5769H145.717V16.1079C145.717 16.6434 145.991 16.929 146.485 16.929H146.869V18.9638H145.973ZM150.344 8.32568C149.484 8.32568 148.881 7.80805 148.881 6.96914C148.881 6.16593 149.484 5.63045 150.344 5.63045C151.203 5.63045 151.807 6.16593 151.807 6.96914C151.807 7.80805 151.203 8.32568 150.344 8.32568ZM149.155 18.9638V9.57513H151.533V18.9638H149.155ZM154.422 18.9638V9.57513H156.69V10.7175H156.818C157.202 10.0214 158.153 9.34309 159.525 9.34309C161.683 9.34309 163 10.8246 163 12.8237V18.9638H160.622V13.4306C160.622 12.2882 159.872 11.5207 158.775 11.5207C157.623 11.5207 156.8 12.4131 156.8 13.5912V18.9638H154.422Z" fill="#BAC3DA"/>
</g>
</svg>
