<svg width="48" height="47" viewBox="0 0 48 47" fill="none" xmlns="http://www.w3.org/2000/svg">
<path d="M10.6916 46.08C7.27829 46.08 4.67563 45.12 2.88363 43.2C1.09163 41.2373 0.195627 38.4427 0.195627 34.816V33.984H6.85163V35.264C6.85163 38.208 8.06763 39.68 10.4996 39.68C11.8223 39.68 12.8036 39.2747 13.4436 38.464C14.0836 37.6533 14.4036 36.224 14.4036 34.176V25.6H14.2756C13.0383 28.2027 10.905 29.504 7.87563 29.504C5.31563 29.504 3.37429 28.6293 2.05163 26.88C0.72896 25.1307 0.067627 22.592 0.067627 19.264V11.264C0.067627 7.68 0.98496 4.90667 2.81963 2.944C4.65429 0.981333 7.29963 0 10.7556 0C14.2116 0 16.857 0.981333 18.6916 2.944C20.5263 4.90667 21.4436 7.68 21.4436 11.264V34.432C21.4436 42.1973 17.8596 46.08 10.6916 46.08ZM10.7556 23.104C13.1876 23.104 14.4036 21.632 14.4036 18.688V10.752C14.4036 7.85067 13.1876 6.4 10.7556 6.4C8.32363 6.4 7.10763 7.85067 7.10763 10.752V18.688C7.10763 21.632 8.32363 23.104 10.7556 23.104Z" fill="white"/>
<path d="M36.3286 46.08C32.8726 46.08 30.2273 45.0987 28.3926 43.136C26.558 41.1733 25.6406 38.4 25.6406 34.816V11.264C25.6406 7.68 26.558 4.90667 28.3926 2.944C30.2273 0.981333 32.8726 0 36.3286 0C39.7846 0 42.43 0.981333 44.2646 2.944C46.0993 4.90667 47.0166 7.68 47.0166 11.264V34.816C47.0166 38.4 46.0993 41.1733 44.2646 43.136C42.43 45.0987 39.7846 46.08 36.3286 46.08ZM36.3286 39.68C38.7606 39.68 39.9766 38.208 39.9766 35.264V10.816C39.9766 7.872 38.7606 6.4 36.3286 6.4C33.8966 6.4 32.6806 7.872 32.6806 10.816V35.264C32.6806 38.208 33.8966 39.68 36.3286 39.68Z" fill="white"/>
</svg>
