<svg xmlns="http://www.w3.org/2000/svg" width="20" height="20" viewBox="0 0 20 20" fill="none">
  <g clip-path="url(#clip0_2597_7831)">
    <mask id="mask0_2597_7831" style="mask-type:luminance" maskUnits="userSpaceOnUse" x="0" y="0" width="20" height="20">
      <path d="M0 0H19.9855V20H0V0Z" fill="white"/>
    </mask>
    <g mask="url(#mask0_2597_7831)">
      <path fill-rule="evenodd" clip-rule="evenodd" d="M10.0088 13.3257C8.16933 13.3257 6.67836 11.8349 6.6802 9.99657C6.68207 8.14583 8.17161 6.66609 10.024 6.67432C11.4886 6.68083 12.7299 7.63254 13.1682 8.95039C13.2449 9.18073 13.4601 9.33638 13.7031 9.33638H16.6349C16.7108 9.33638 16.7723 9.27491 16.7723 9.1991V8.44332C16.7723 8.4096 16.7997 8.38228 16.8334 8.38228H17.5477C17.5814 8.38228 17.6088 8.4096 17.6088 8.44332V9.1991C17.6088 9.27491 17.6703 9.33638 17.7462 9.33638H18.1639C18.2398 9.33638 18.3013 9.27491 18.3013 9.1991V8.44332C18.3013 8.4096 18.3287 8.38228 18.3624 8.38228H19.0767C19.1104 8.38228 19.1378 8.4096 19.1378 8.44332V9.1991C19.1378 9.27491 19.1993 9.33638 19.2752 9.33638H19.8479C19.9282 9.33638 19.9914 9.26794 19.985 9.18801C19.5715 4.04696 15.2664 0.00319407 10.0151 -1.9172e-06C4.4893 -0.00337067 0 4.47925 0 10.0001C0 15.5229 4.48115 20 10.0088 20C15.2629 20 19.5713 15.9551 19.985 10.8122C19.9914 10.7322 19.9283 10.6636 19.8479 10.6636H13.7032C13.4588 10.6636 13.2444 10.8216 13.167 11.0531C12.7261 12.3737 11.4788 13.3257 10.0088 13.3257Z" fill="white"/>
    </g>
  </g>
  <defs>
    <clipPath id="clip0_2597_7831">
      <rect width="20" height="20" fill="white"/>
    </clipPath>
  </defs>
</svg>
