<svg width="24" height="24" viewBox="0 0 24 24" fill="none" xmlns="http://www.w3.org/2000/svg">
<g clip-path="url(#clip0_8_2956)">
<circle cx="12" cy="12" r="12" fill="#F3BA2F"/>
<path d="M8.27115 10.468L11.9998 6.73952L15.7304 10.47L17.9 8.30041L11.9998 2.40002L6.10156 8.29844L8.27115 10.468Z" fill="white"/>
<path d="M6.73937 11.9996L4.56982 9.83008L2.40017 11.9997L4.56972 14.1693L6.73937 11.9996Z" fill="white"/>
<path d="M8.27092 13.532L11.9996 17.2605L15.73 13.5302L17.9008 15.6985L17.8998 15.6997L11.9996 21.6L6.10118 15.7017L6.09814 15.6987L8.27092 13.532Z" fill="white"/>
<path d="M19.4304 14.1704L21.6001 12.0007L19.4305 9.83118L17.2609 12.0008L19.4304 14.1704Z" fill="white"/>
<path d="M14.2002 11.999H14.2011L11.9995 9.79736L10.3725 11.4244H10.3724L10.1855 11.6113L9.79991 11.997L9.79688 12L9.79991 12.0032L11.9995 14.2028L14.2011 12.0012L14.2022 12L14.2002 11.999Z" fill="white"/>
</g>
<defs>
<clipPath id="clip0_8_2956">
<rect width="24" height="24" fill="white"/>
</clipPath>
</defs>
</svg>
