<svg width="484" height="484" viewBox="0 0 484 484" fill="none" xmlns="http://www.w3.org/2000/svg">
<path d="M0 242C0 108.347 108.347 0 242 0C375.653 0 484 108.347 484 242C484 375.653 375.653 484 242 484C108.347 484 0 375.653 0 242Z" fill="url(#paint0_linear_25192_125763)"/>
<path d="M171.548 242.344L171.661 283.867L206.943 304.628V328.938L151.013 296.135V230.201L171.548 242.344ZM171.548 200.821V225.017L151 212.862V188.666L171.548 176.511L192.196 188.666L171.548 200.821ZM221.677 188.666L242.225 176.511L262.873 188.666L242.225 200.821L221.677 188.666Z" fill="white"/>
<path d="M186.396 275.26V250.95L206.943 263.105V287.302L186.396 275.26ZM221.677 313.335L242.225 325.49L262.873 313.335V337.532L242.225 349.687L221.677 337.532V313.335ZM292.342 188.666L312.89 176.511L333.538 188.666V212.862L312.89 225.017V200.821L292.342 188.666ZM312.89 283.867L313.003 242.344L333.551 230.189V296.122L277.62 328.925V304.615L312.89 283.867Z" fill="white"/>
<path d="M298.156 275.26L277.608 287.302V263.105L298.156 250.95V275.26Z" fill="white"/>
<path d="M298.155 209.427L298.269 233.737L262.886 254.498V296.122L242.338 308.163L221.791 296.122V254.498L186.408 233.737V209.427L207.044 197.272L242.212 218.134L277.595 197.272L298.243 209.427H298.155ZM186.396 167.916L242.225 135L298.155 167.916L277.608 180.071L242.225 159.209L206.943 180.071L186.396 167.916Z" fill="white"/>
<defs>
<linearGradient id="paint0_linear_25192_125763" x1="-43.5" y1="-106" x2="561" y2="550.5" gradientUnits="userSpaceOnUse">
<stop stop-color="#F0B90B"/>
<stop offset="0.947917" stop-color="#FBC61E"/>
</linearGradient>
</defs>
</svg>
