<svg width="48" height="48" viewBox="0 0 48 48" fill="none" xmlns="http://www.w3.org/2000/svg">
<g clip-path="url(#clip0_2324_94)">
<path fill-rule="evenodd" clip-rule="evenodd" d="M13.4981 42H34.5005C38.6434 42 42 38.3885 42 33.9331V14.0669C42 9.61152 38.6434 6 34.5019 6H13.4981C9.35664 6 6 9.61152 6 14.0669V33.9331C6 38.3885 9.35664 42 13.4981 42Z" fill="#0052FF"/>
<path fill-rule="evenodd" clip-rule="evenodd" d="M24.0001 36.7856C31.0619 36.7856 36.7859 31.0616 36.7859 23.9999C36.7859 16.9381 31.0619 11.2141 24.0001 11.2141C16.9384 11.2141 11.2144 16.9381 11.2144 23.9999C11.2144 31.0616 16.9384 36.7856 24.0001 36.7856Z" fill="white"/>
<path fill-rule="evenodd" clip-rule="evenodd" d="M20.8508 28.0869H27.1479C27.6663 28.0869 28.0853 27.6348 28.0853 27.0789V20.9229C28.0853 20.3656 27.6648 19.9149 27.1479 19.9149H20.8508C20.3324 19.9149 19.9133 20.3671 19.9133 20.9229V27.0789C19.9133 27.6348 20.3338 28.0869 20.8508 28.0869Z" fill="#0052FF"/>
</g>
<defs>
<clipPath id="clip0_2324_94">
<rect width="36" height="36" fill="white" transform="matrix(1 0 0 -1 6 42)"/>
</clipPath>
</defs>
</svg>
