<svg width="1080" height="1080" viewBox="0 0 1080 1080" fill="none" xmlns="http://www.w3.org/2000/svg">
<rect width="1080" height="1080" fill="white"/>
<path d="M385.67 428H171.631C170.311 428 169.045 428.524 168.112 429.458C167.178 430.391 166.654 431.657 166.654 432.978V647.017C166.654 648.337 167.178 649.603 168.112 650.536C169.045 651.47 170.311 651.994 171.631 651.994H385.67C386.991 651.994 388.257 651.47 389.19 650.536C390.124 649.603 390.648 648.337 390.648 647.017V432.978C390.648 431.657 390.124 430.391 389.19 429.458C388.257 428.524 386.991 428 385.67 428ZM315.983 572.352C315.983 573.672 315.459 574.938 314.525 575.872C313.592 576.805 312.326 577.33 311.006 577.33H246.296C244.976 577.33 243.71 576.805 242.776 575.872C241.843 574.938 241.319 573.672 241.319 572.352V507.642C241.319 506.322 241.843 505.056 242.776 504.123C243.71 503.189 244.976 502.665 246.296 502.665H311.006C312.326 502.665 313.592 503.189 314.525 504.123C315.459 505.056 315.983 506.322 315.983 507.642V572.352Z" fill="black"/>
<path d="M833.783 502.673H769.074C766.325 502.673 764.096 504.901 764.096 507.65V572.36C764.096 575.109 766.325 577.338 769.074 577.338H833.783C836.532 577.338 838.761 575.109 838.761 572.36V507.65C838.761 504.901 836.532 502.673 833.783 502.673Z" fill="black"/>
<path d="M759.088 428.006H694.379C691.63 428.006 689.401 430.234 689.401 432.984V497.693C689.401 500.442 691.63 502.671 694.379 502.671H759.088C761.838 502.671 764.066 500.442 764.066 497.693V432.984C764.066 430.234 761.838 428.006 759.088 428.006Z" fill="black"/>
<path d="M908.418 428.006H843.708C840.959 428.006 838.73 430.234 838.73 432.984V497.693C838.73 500.442 840.959 502.671 843.708 502.671H908.418C911.167 502.671 913.395 500.442 913.395 497.693V432.984C913.395 430.234 911.167 428.006 908.418 428.006Z" fill="black"/>
<path d="M759.088 577.334H694.379C691.63 577.334 689.401 579.562 689.401 582.311V647.021C689.401 649.77 691.63 651.999 694.379 651.999H759.088C761.838 651.999 764.066 649.77 764.066 647.021V582.311C764.066 579.562 761.838 577.334 759.088 577.334Z" fill="black"/>
<path d="M908.418 577.334H843.708C840.959 577.334 838.73 579.562 838.73 582.311V647.021C838.73 649.77 840.959 651.999 843.708 651.999H908.418C911.167 651.999 913.395 649.77 913.395 647.021V582.311C913.395 579.562 911.167 577.334 908.418 577.334Z" fill="black"/>
<path d="M646.997 428.006H582.288C579.539 428.006 577.31 430.234 577.31 432.984V497.693C577.31 500.442 579.539 502.671 582.288 502.671H646.997C649.746 502.671 651.975 500.442 651.975 497.693V432.984C651.975 430.234 649.746 428.006 646.997 428.006Z" fill="black"/>
<path d="M646.997 577.334H582.288C579.539 577.334 577.31 579.562 577.31 582.311V647.021C577.31 649.77 579.539 651.999 582.288 651.999H646.997C649.746 651.999 651.975 649.77 651.975 647.021V582.311C651.975 579.562 649.746 577.334 646.997 577.334Z" fill="black"/>
<path d="M577.31 507.586C577.31 506.266 576.785 505 575.852 504.067C574.918 503.133 573.652 502.609 572.332 502.609H502.645V432.978C502.645 431.657 502.12 430.391 501.187 429.458C500.253 428.524 498.987 428 497.667 428H432.958C431.637 428 430.371 428.524 429.438 429.458C428.504 430.391 427.98 431.657 427.98 432.978V646.905C427.98 648.225 428.504 649.491 429.438 650.424C430.371 651.358 431.637 651.882 432.958 651.882H497.667C498.987 651.882 500.253 651.358 501.187 650.424C502.12 649.491 502.645 648.225 502.645 646.905V577.274H572.332C573.652 577.274 574.918 576.749 575.852 575.816C576.785 574.882 577.31 573.616 577.31 572.296V507.586Z" fill="black"/>
</svg>
