<svg width="170" height="170" viewBox="0 0 170 170" fill="none" xmlns="http://www.w3.org/2000/svg">
<path d="M50.2711 56H2.1198C1.82281 56 1.53799 56.1334 1.32798 56.371C1.11798 56.6085 1 56.9307 1 57.2666V111.731C1 112.067 1.11798 112.39 1.32798 112.627C1.53799 112.864 1.82281 112.998 2.1198 112.998H50.2711C50.5684 112.998 50.8529 112.864 51.0632 112.627C51.2731 112.39 51.3913 112.067 51.3913 111.731V57.2666C51.3913 56.9307 51.2731 56.6085 51.0632 56.371C50.8529 56.1334 50.5684 56 50.2711 56ZM34.594 92.732C34.594 93.068 34.4761 93.3901 34.2661 93.6277C34.0561 93.8652 33.7712 93.9986 33.4742 93.9986H18.9168C18.6198 93.9986 18.335 93.8652 18.125 93.6277C17.915 93.3901 17.797 93.068 17.797 92.732V76.2659C17.797 75.93 17.915 75.6078 18.125 75.3703C18.335 75.1328 18.6198 74.9993 18.9168 74.9993H33.4742C33.7712 74.9993 34.0561 75.1328 34.2661 75.3703C34.4761 75.6078 34.594 75.93 34.594 76.2659V92.732Z" fill="white"/>
<path d="M151.074 75.0016H136.516C135.898 75.0016 135.397 75.5687 135.397 76.2683V92.7343C135.397 93.4339 135.898 94.001 136.516 94.001H151.074C151.693 94.001 152.194 93.4339 152.194 92.7343V76.2683C152.194 75.5687 151.693 75.0016 151.074 75.0016Z" fill="white"/>
<path d="M134.281 56.0009H119.724C119.105 56.0009 118.604 56.568 118.604 57.2675V73.7336C118.604 74.4331 119.105 75.0003 119.724 75.0003H134.281C134.899 75.0003 135.401 74.4331 135.401 73.7336V57.2675C135.401 56.568 134.899 56.0009 134.281 56.0009Z" fill="white"/>
<path d="M167.88 56.0009H153.323C152.704 56.0009 152.203 56.568 152.203 57.2675V73.7336C152.203 74.4331 152.704 75.0003 153.323 75.0003H167.88C168.499 75.0003 169 74.4331 169 73.7336V57.2675C169 56.568 168.499 56.0009 167.88 56.0009Z" fill="white"/>
<path d="M134.281 94.0005H119.724C119.105 94.0005 118.604 94.5676 118.604 95.2671V111.733C118.604 112.433 119.105 113 119.724 113H134.281C134.899 113 135.401 112.433 135.401 111.733V95.2671C135.401 94.5676 134.899 94.0005 134.281 94.0005Z" fill="white"/>
<path d="M167.88 94.0005H153.323C152.704 94.0005 152.203 94.5676 152.203 95.2671V111.733C152.203 112.433 152.704 113 153.323 113H167.88C168.499 113 169 112.433 169 111.733V95.2671C169 94.5676 168.499 94.0005 167.88 94.0005Z" fill="white"/>
<path d="M109.065 56.0009H94.508C93.8894 56.0009 93.3878 56.568 93.3878 57.2675V73.7336C93.3878 74.4331 93.8894 75.0003 94.508 75.0003H109.065C109.684 75.0003 110.185 74.4331 110.185 73.7336V57.2675C110.185 56.568 109.684 56.0009 109.065 56.0009Z" fill="white"/>
<path d="M109.065 94.0005H94.508C93.8894 94.0005 93.3878 94.5676 93.3878 95.2671V111.733C93.3878 112.433 93.8894 113 94.508 113H109.065C109.684 113 110.185 112.433 110.185 111.733V95.2671C110.185 94.5676 109.684 94.0005 109.065 94.0005Z" fill="white"/>
<path d="M93.3831 76.2517C93.3831 75.9158 93.2649 75.5936 93.0551 75.3561C92.8452 75.1185 92.5602 74.9851 92.2633 74.9851H76.5859V57.2666C76.5859 56.9307 76.4678 56.6085 76.2579 56.371C76.048 56.1334 75.7631 56 75.4662 56H60.9089C60.6116 56 60.3271 56.1334 60.1168 56.371C59.9069 56.6085 59.7888 56.9307 59.7888 57.2666V111.703C59.7888 112.039 59.9069 112.361 60.1168 112.598C60.3271 112.836 60.6116 112.969 60.9089 112.969H75.4662C75.7631 112.969 76.048 112.836 76.2579 112.598C76.4678 112.361 76.5859 112.039 76.5859 111.703V93.9844H92.2633C92.5602 93.9844 92.8452 93.8509 93.0551 93.6134C93.2649 93.3759 93.3831 93.0537 93.3831 92.7178V76.2517Z" fill="white"/>
</svg>
