<svg width="71" height="19" viewBox="0 0 71 19" fill="none" xmlns="http://www.w3.org/2000/svg">
<g opacity="0.8">
<mask id="mask0_828_3578" style="mask-type:luminance" maskUnits="userSpaceOnUse" x="0" y="0" width="71" height="19">
<path d="M71 0H0V18.9136H71V0Z" fill="white"/>
</mask>
<g mask="url(#mask0_828_3578)">
<path d="M15.1226 7.55757C15.1226 9.43031 14.4217 11.2483 13.1622 12.6392C11.9028 14.03 10.1724 14.9062 8.29969 15.0923C8.3873 14.0191 8.05875 12.9458 7.36879 12.1135C6.67883 11.2811 5.70413 10.7445 4.63086 10.6131V0.581318C5.78079 0.0994427 7.02929 -0.0976889 8.27778 0.02278C9.51533 0.143249 10.7091 0.559416 11.7495 1.24937C12.7899 1.93933 13.6441 2.88118 14.2246 3.97635C14.816 5.08248 15.1226 6.30907 15.1226 7.55757Z" fill="#DEDEDE"/>
<path d="M0.0211092 15.2244C-0.0555528 14.5892 0.0211092 13.954 0.240144 13.3517C0.459178 12.7493 0.798681 12.2127 1.25865 11.7637C1.94861 12.8041 2.89046 13.6474 3.98563 14.2388C5.0808 14.8302 6.31835 15.1258 7.55589 15.1258C7.80778 15.1258 8.04872 15.1149 8.30061 15.093C8.213 16.1225 7.75302 17.0862 6.99736 17.7981C6.24169 18.5099 5.25603 18.9042 4.21562 18.9261C3.18616 18.937 2.1786 18.5756 1.40103 17.8857C0.634405 17.1957 0.141578 16.2539 0.0211092 15.2244Z" fill="#1E4480"/>
<path d="M4.63094 0.591797V10.6126C5.70421 10.7331 6.68987 11.2697 7.36887 12.113C8.05883 12.9453 8.38738 14.0186 8.29977 15.0919C8.05883 15.1138 7.80694 15.1247 7.55505 15.1247C6.30656 15.1247 5.07996 14.8181 3.98479 14.2376C2.88962 13.6462 1.94777 12.803 1.25781 11.7626C1.91492 11.1274 2.76915 10.7221 3.67814 10.6236V1.06272C3.97384 0.887492 4.29144 0.723218 4.63094 0.591797Z" fill="#152E51"/>
<path d="M-0.00175269 7.55687C-0.00175269 6.24267 0.337751 4.96131 0.983902 3.82233C1.63005 2.68336 2.56095 1.73055 3.68898 1.0625V10.6124C2.77998 10.711 1.92575 11.1162 1.2577 11.7623C0.425364 10.5138 -0.0127044 9.05726 -0.00175269 7.55687Z" fill="#DEDEDE"/>
<path d="M23.7199 9.11205H21.88V11.7624H21.0586V5.24609H23.7527C24.2017 5.25705 24.6289 5.44323 24.9574 5.74987C25.1436 5.9251 25.2969 6.13318 25.3955 6.36317C25.494 6.6041 25.5378 6.856 25.5269 7.10789C25.5269 7.39263 25.4831 7.67737 25.3955 7.95117C25.3298 8.15925 25.2202 8.35638 25.0669 8.53161C24.9355 8.67398 24.7822 8.7835 24.6179 8.88206C24.4646 8.95872 24.3113 9.02444 24.147 9.06824C24.0046 9.09015 23.8622 9.11205 23.7199 9.11205ZM21.88 8.37829H23.7308C23.9827 8.36733 24.2236 8.26877 24.3989 8.08259C24.607 7.87451 24.7274 7.55691 24.7274 7.11884C24.7384 6.96551 24.7055 6.82314 24.6508 6.68077C24.596 6.5384 24.5193 6.40698 24.4098 6.29746C24.3332 6.19889 24.2346 6.12223 24.1141 6.06747C24.0046 6.01271 23.8841 5.97986 23.7527 5.96891H21.869V8.37829H21.88Z" fill="#AAB3CA"/>
<path d="M30.9042 8.76236V10.4051C30.9042 10.8213 31.1561 11.0403 31.6489 11.0403H34.0473V11.7741H31.5175C31.0246 11.7631 30.6632 11.6646 30.4333 11.4893C30.2033 11.3141 30.0938 10.9856 30.0938 10.5365V5.25781H34.0583V5.98062H30.9042V8.0505H33.8502V8.77331H30.9042V8.76236Z" fill="#AAB3CA"/>
<path d="M42.9514 10.3605V5.24609H43.7618V11.7624H42.8528C42.4586 10.9848 42.13 10.3605 41.8781 9.90057C41.6263 9.4406 41.2977 8.87111 40.9034 8.19211C40.5092 7.5131 40.093 6.86695 39.6659 6.2427V11.7624H38.8555V5.24609H39.9287C40.542 6.11128 41.0677 6.9217 41.5058 7.67737C41.9329 8.42209 42.4148 9.32013 42.9514 10.3605Z" fill="#AAB3CA"/>
<path d="M51.0676 11.7634H48.9102V5.24712H51.0676C51.4619 5.23617 51.8452 5.31283 52.2176 5.46616C52.579 5.61948 52.9075 5.83852 53.1813 6.12326C53.7618 6.7037 54.0575 7.50318 54.0575 8.53264C54.0575 9.5621 53.7618 10.3616 53.1813 10.9311C52.8966 11.2049 52.568 11.4239 52.2066 11.5663C51.8452 11.7086 51.451 11.7743 51.0676 11.7634ZM49.7206 11.0406H50.6515C51.4838 11.0406 52.119 10.8325 52.5461 10.4054C52.9732 9.98922 53.1923 9.35402 53.1923 8.51073C53.1923 6.80227 52.349 5.95898 50.6515 5.95898H49.7206V11.0406Z" fill="#AAB3CA"/>
<path d="M59.6085 5.24609V10.4044C59.6085 10.8205 59.8604 11.0396 60.3532 11.0396H62.8283V11.7733H60.2108C59.7071 11.7624 59.3566 11.6638 59.1266 11.4886C58.9076 11.3024 58.7871 10.9848 58.7871 10.5358V5.25705H59.6085V5.24609Z" fill="#AAB3CA"/>
<path d="M67.8565 8.76236V10.4051C67.8565 10.8213 68.1084 11.0403 68.6013 11.0403H70.9997V11.7741H68.4589C67.9551 11.7631 67.6046 11.6646 67.3747 11.4893C67.1447 11.3141 67.0352 10.9856 67.0352 10.5365V5.25781H70.9997V5.98062H67.8456V8.0505H70.7806V8.77331H67.8565V8.76236Z" fill="#AAB3CA"/>
</g>
</g>
</svg>
