<svg xmlns="http://www.w3.org/2000/svg" width="24" height="24" fill="none" xmlns:v="https://vecta.io/nano"><g clip-path="url(#B)"><path d="M12 24c6.627 0 12-5.373 12-12S18.627 0 12 0 0 5.373 0 12s5.373 12 12 12z" fill="url(#A)"/><path d="M17.251 16.78l-4.059-9.809a1.09 1.09 0 0 0-1.017-.755h-.359a1.09 1.09 0 0 0-1.017.755l-1.766 4.274H7.697a.73.73 0 0 0-.728.725v.01a.73.73 0 0 0 .728.725h.718L6.73 16.78a.86.86 0 0 0-.05.278c-.008.202.064.398.2.547a.7.7 0 0 0 .539.209.73.73 0 0 0 .419-.139c.128-.095.227-.222.289-.368l1.853-4.601h1.287a.73.73 0 0 0 .728-.725v-.02a.73.73 0 0 0-.728-.725h-.687l1.415-3.529 3.859 9.6c.062.146.161.274.289.368a.73.73 0 0 0 .419.139.7.7 0 0 0 .539-.209c.136-.149.208-.345.2-.547.004-.095-.013-.19-.05-.278h0z" fill="#fff"/></g><defs><linearGradient id="A" x1="21.768" y1="5.448" x2="3.912" y2="20.472" gradientUnits="userSpaceOnUse"><stop stop-color="#b6509e"/><stop offset="1" stop-color="#2ebac6"/></linearGradient><clipPath id="B"><path fill="#fff" d="M0 0h24v24H0z"/></clipPath></defs></svg>