<svg xmlns="http://www.w3.org/2000/svg" width="24" height="24" fill="none" xmlns:v="https://vecta.io/nano"><g clip-path="url(#B)"><path d="M12 24c6.628 0 12-5.373 12-12S18.627 0 12 0 0 5.372 0 12s5.373 12 12 12z" fill="url(#A)"/><path fill-rule="evenodd" d="M11.566 4.329a3.05 3.05 0 0 0-1.834.9L8.642 6.335l-.564.566-.592.588-.54.556-.85.852-.645.681-.382.399a3.36 3.36 0 0 0-.762 2.131l.003.138c.01.446.127.883.341 1.275.122.237.263.463.422.676.105.148.182.146.32.031.026-.022.051-.046.074-.072l.409-.43.592-.619.614-.652.301-.306.626-.671.628-.64.69-.717.642-.659.829-.874.521-.521.695-.716.609-.604 1.344-1.368c.029-.028.056-.059.081-.091.11-.139.119-.17-.017-.267-.208-.164-.43-.308-.664-.43a3.12 3.12 0 0 0-1.322-.294h-.023a3.65 3.65 0 0 0-.456.029l-.002-.002v.004zm3.952 2.94h-.029a1.35 1.35 0 0 0-1.029.478.98.98 0 0 1-.072.072l-.731.717-.748.75-.621.619-.647.657-.688.669-.815.821-1.514 1.514-2.004 2.011c-.129.127-.131.143 0 .279l.955.971a1.28 1.28 0 0 0 .721.384 1.71 1.71 0 0 0 .786-.026c.192-.047.369-.142.516-.275l.793-.766.559-.537 1.098-1.092.908-.879 1.243-1.212 1.168-1.142c.026-.039.062-.07.105-.089s.09-.027.136-.022.091.023.128.052.066.067.082.11c.199.291.306.635.305.987 0 .06-.003.12-.009.181-.032.355-.179.69-.418.955l-.89.896-.643.628-.819.822-.121.136-.27.28-.607.602-.639.661c-.019.021-.04.036-.059.055l-.686.669-.315.318-.542.552c-.107.112-.107.181.02.27a4.54 4.54 0 0 0 .662.422c.578.261 1.218.352 1.846.263a3.02 3.02 0 0 0 1.672-.762c.353-.31.669-.659.998-.993l.733-.74.69-.695.631-.635.716-.697.717-.731c.19-.194.366-.401.526-.621.298-.45.484-.965.543-1.502.032-.267.032-.536 0-.803-.071-.474-.243-.928-.504-1.33a3.86 3.86 0 0 0-.668-.769l-1.968-1.989c-.141-.157-.314-.283-.506-.369s-.401-.131-.612-.131h-.009l-.072.01h-.001z" fill="#fff"/></g><defs><linearGradient id="A" x1="1.635" y1="5.035" x2="20.895" y2="18.212" gradientUnits="userSpaceOnUse"><stop stop-color="#ff3b3b"/><stop offset="1" stop-color="#ff9914"/></linearGradient><clipPath id="B"><path fill="#fff" d="M0 0h24v24H0z"/></clipPath></defs></svg>