<svg width="120" height="121" viewBox="0 0 120 121" fill="none" xmlns="http://www.w3.org/2000/svg">
<mask id="mask0_1577_6455" style="mask-type:luminance" maskUnits="userSpaceOnUse" x="0" y="0" width="120" height="121">
<path d="M120 0H0V120.506H120V0Z" fill="white"/>
</mask>
<g mask="url(#mask0_1577_6455)">
<path d="M32.9769 120.506C63.8979 120.506 63.8979 120.045 69.1427 118.49C75.9935 116.456 49.7961 98.3213 32.9769 98.3213C16.1577 98.3213 2.52148 103.289 2.52148 109.415C2.52148 115.541 16.1522 120.506 32.9769 120.506Z" fill="black"/>
<path d="M103.191 26.1784L104.614 27.7108L103.372 29.3905C63.0431 83.9198 39.8105 108.607 29.9531 105.298C23.9507 103.28 17.9293 97.2149 11.907 88.407C9.79073 85.3103 7.80269 82.05 5.99563 78.8069C4.79243 76.6461 3.77386 74.6762 3.24456 73.5667C2.69254 72.4829 2.2946 71.3274 2.06229 70.1335L2.03501 69.9953C1.94406 69.5088 1.90768 69.3587 1.83675 69.0859C-0.931409 58.6542 -0.568119 47.6386 2.88134 37.412C6.33079 27.1854 12.7138 18.2002 21.2348 11.5764C29.7558 4.95262 40.0379 0.983205 50.7993 0.162953C61.5608 -0.6573 72.3257 1.70789 81.7522 6.9637L81.9613 7.09466C88.6106 11.7255 95.6872 18.0862 103.191 26.1784ZM79.1821 11.3045C70.6164 6.56361 60.8465 4.44435 51.0864 5.21006C41.3263 5.97578 32.0064 9.5927 24.2848 15.6113C16.5633 21.63 10.7807 29.785 7.65549 39.0629C4.53031 48.3408 4.20042 58.3325 6.70681 67.7963C6.81594 68.2073 6.86596 68.4383 6.97964 69.034L7.00238 69.1568C7.1565 69.9364 7.42334 70.6895 7.7945 71.3922C8.27742 72.4053 9.24961 74.2797 10.3991 76.3478C12.1371 79.4653 14.046 82.5975 16.0677 85.5577C21.5098 93.5144 26.9037 98.9501 31.5573 100.513C37.7661 102.599 61.1351 77.8611 98.0666 28.0782C92.3455 21.8726 86.0193 16.2535 79.1821 11.3045Z" fill="black"/>
<path d="M79.1823 11.3039C70.6166 6.5626 60.8464 4.44306 51.086 5.20865C41.3256 5.97425 32.0054 9.59122 24.2837 15.61C16.562 21.6289 10.7792 29.7842 7.65411 39.0624C4.52901 48.3406 4.19937 58.3326 6.70616 67.7966C6.81529 68.2077 6.86531 68.4387 6.97899 69.0343L7.00173 69.1571C7.15493 69.9379 7.42117 70.6922 7.79203 71.3962C8.27495 72.4093 9.24714 74.2836 10.3967 76.3517C12.1346 79.4693 14.0435 82.6014 16.0652 85.5616C21.5073 93.5183 26.9012 98.9541 31.5548 100.517C37.7672 102.605 61.1336 77.8687 98.0669 28.0822C92.346 21.875 86.0198 16.2543 79.1823 11.3039Z" fill="#EC1C79"/>
<path d="M65.0425 120.001C54.1727 120.001 43.5471 116.778 34.5092 110.739C25.4713 104.7 18.4272 96.1166 14.2675 86.0742C10.1078 76.0319 9.01944 64.9815 11.14 54.3206C13.2606 43.6597 18.4949 33.8671 26.181 26.181C33.8671 18.4949 43.6597 13.2606 54.3206 11.14C64.9815 9.01944 76.0319 10.1078 86.0742 14.2675C96.1166 18.4272 104.7 25.4713 110.739 34.5092C116.778 43.5471 120.001 54.1728 120.001 65.0425C120.001 72.2598 118.58 79.4064 115.818 86.0744C113.056 92.7423 109.008 98.8009 103.904 103.904C98.8009 109.008 92.7423 113.056 86.0744 115.818C79.4064 118.58 72.2598 120.001 65.0425 120.001ZM65.0425 114.959C74.9149 114.959 84.5654 112.031 92.7739 106.546C100.982 101.061 107.38 93.2656 111.158 84.1447C114.936 75.0238 115.924 64.9874 113.998 55.3048C112.072 45.6222 107.318 36.7281 100.337 29.7474C93.3561 22.7667 84.462 18.0128 74.7793 16.0868C65.0967 14.1609 55.0603 15.1494 45.9395 18.9275C36.8187 22.7055 29.023 29.1033 23.5382 37.3119C18.0534 45.5204 15.126 55.1711 15.126 65.0434C15.1262 78.2818 20.3852 90.9779 29.7462 100.339C39.1071 109.7 51.8041 114.959 65.0425 114.959Z" fill="black"/>
<path d="M65.0421 114.96C74.9145 114.96 84.5651 112.033 92.7737 106.548C100.982 101.063 107.38 93.2675 111.158 84.1467C114.936 75.0258 115.925 64.9895 113.999 55.3069C112.073 45.6242 107.319 36.7301 100.338 29.7492C93.3574 22.7683 84.4634 18.0143 74.7807 16.0882C65.0981 14.162 55.0618 15.1504 45.9409 18.9283C36.8199 22.7061 29.0241 29.1038 23.5392 37.3123C18.0543 45.5207 15.1266 55.1713 15.1265 65.0437C15.1267 78.2821 20.3857 90.9782 29.7467 100.339C39.1076 109.7 51.8037 114.96 65.0421 114.96Z" fill="white"/>
<path fill-rule="evenodd" clip-rule="evenodd" d="M27.7023 75.2679L21.0952 55.362H26.8847L30.3297 66.7974L34.1393 55.3057H38.853L42.6645 66.7974L46.1094 55.362H51.7862L45.1791 75.2679H40.4081L36.4275 63.8899L32.4732 75.2679H27.7023ZM53.9606 75.1279V55.362H69.8577V60.022H59.3836V63.015H68.87V67.3376H59.3836V70.4706H69.9977V75.1306L53.9606 75.1279ZM77.6243 75.1279V60.1621H71.6957V55.362H89.0287V60.1621H83.1001V75.127L77.6243 75.1279ZM91.4306 75.1279V55.362H96.909V62.7585H103.939V55.362H109.419V75.127H103.939V67.6168H96.909V75.127L91.4306 75.1279Z" fill="black"/>
<path d="M3.27562 49.4164C2.60569 49.0815 2.09624 48.4942 1.85934 47.7837C1.62244 47.0731 1.6775 46.2976 2.01241 45.6277C2.34731 44.9577 2.93463 44.4483 3.64516 44.2114C4.35568 43.9745 5.13121 44.0296 5.80114 44.3645L13.867 48.3997C14.1986 48.5654 14.4943 48.7948 14.7372 49.0748C14.9802 49.3547 15.1656 49.6798 15.2829 50.0315C15.4002 50.3831 15.4471 50.7544 15.4209 51.1242C15.3947 51.494 15.2959 51.855 15.1302 52.1866C14.9645 52.5182 14.7351 52.8139 14.4551 53.0568C14.1751 53.2998 13.85 53.4852 13.4984 53.6025C13.1467 53.7198 12.7754 53.7667 12.4056 53.7405C12.0359 53.7143 11.6749 53.6155 11.3433 53.4498L3.27562 49.4164Z" fill="black"/>
<path d="M2.34705 62.7942C2.01044 62.639 1.7077 62.4189 1.45613 62.1467C1.20455 61.8744 1.00907 61.5553 0.880829 61.2075C0.752592 60.8597 0.694116 60.49 0.708741 60.1196C0.723365 59.7492 0.810802 59.3853 0.966061 59.0487C1.12132 58.7121 1.34136 58.4094 1.61361 58.1578C1.88587 57.9062 2.20501 57.7107 2.55282 57.5825C2.90062 57.4543 3.27028 57.3958 3.64068 57.4104C4.01109 57.425 4.37499 57.5125 4.7116 57.6677L12.7793 61.3892C13.4501 61.7085 13.968 62.2793 14.2209 62.9779C14.4737 63.6765 14.441 64.4465 14.13 65.1212C13.8189 65.7959 13.2545 66.3208 12.559 66.5822C11.8636 66.8435 11.0931 66.8203 10.4147 66.5175L2.34705 62.7942Z" fill="black"/>
</g>
</svg>
