<svg width="20" height="20" viewBox="0 0 20 20" fill="none" xmlns="http://www.w3.org/2000/svg">
<g clip-path="url(#clip0_8039_2667)">
<path d="M1.80566 6.08061V13.9211C1.80566 14.4251 2.06968 14.8811 2.50971 15.1371L9.3021 19.0574C9.73413 19.3054 10.2702 19.3054 10.7022 19.0574L17.4946 15.1371C17.9266 14.8891 18.1986 14.4251 18.1986 13.9211V6.08061C18.1986 5.57658 17.9346 5.12056 17.4946 4.86454L10.7022 0.944312C10.2702 0.696297 9.73413 0.696297 9.3021 0.944312L2.50971 4.86454C2.07768 5.11256 1.81366 5.57658 1.81366 6.08061H1.80566Z" fill="#213147"/>
<path d="M11.4782 11.5211L10.5102 14.1772C10.4862 14.2493 10.4862 14.3293 10.5102 14.4093L12.1743 18.9775L14.1024 17.8655L11.7903 11.5211C11.7343 11.3771 11.5342 11.3771 11.4782 11.5211Z" fill="#12AAFF"/>
<path d="M13.4221 7.05674C13.3661 6.91273 13.1661 6.91273 13.1101 7.05674L12.142 9.71289C12.118 9.7849 12.118 9.8649 12.142 9.94491L14.8702 17.4253L16.7983 16.3133L13.4221 7.06474V7.05674Z" fill="#12AAFF"/>
<path d="M9.99733 1.24007C10.0453 1.24007 10.0933 1.25607 10.1333 1.28008L17.4778 5.52032C17.5658 5.56833 17.6138 5.66433 17.6138 5.76034V14.2408C17.6138 14.3368 17.5578 14.4328 17.4778 14.4808L10.1333 18.7211C10.0933 18.7451 10.0453 18.7611 9.99733 18.7611C9.94933 18.7611 9.90133 18.7451 9.86132 18.7211L2.51689 14.4808C2.42889 14.4328 2.38089 14.3368 2.38089 14.2408V5.75234C2.38089 5.65633 2.43689 5.56033 2.51689 5.51232L9.86132 1.27207C9.90133 1.24807 9.94933 1.23207 9.99733 1.23207V1.24007ZM9.99733 0C9.73332 0 9.4773 0.0640038 9.23729 0.200012L1.89286 4.44026C1.42083 4.71228 1.13281 5.20831 1.13281 5.75234V14.2328C1.13281 14.7769 1.42083 15.2729 1.89286 15.5449L9.23729 19.7852C9.4693 19.9212 9.73332 19.9852 9.99733 19.9852C10.2613 19.9852 10.5174 19.9212 10.7574 19.7852L18.1018 15.5449C18.5738 15.2729 18.8618 14.7769 18.8618 14.2328V5.75234C18.8618 5.20831 18.5738 4.71228 18.1018 4.44026L10.7494 0.200012C10.5174 0.0640038 10.2533 0 9.98933 0H9.99733Z" fill="#9DCCED"/>
<path d="M5.13379 17.4323L5.81383 15.5762L7.17391 16.7042L5.90183 17.8723L5.13379 17.4323Z" fill="#213147"/>
<path d="M9.37344 5.15204H7.50933C7.37332 5.15204 7.24532 5.24005 7.19731 5.36806L3.20508 16.3127L5.13319 17.4248L9.53345 5.36806C9.57345 5.25605 9.49345 5.14404 9.38144 5.14404L9.37344 5.15204Z" fill="white"/>
<path d="M12.6378 5.15204H10.7737C10.6376 5.15204 10.5096 5.24005 10.4616 5.36806L5.90137 17.8648L7.82948 18.9769L12.7898 5.36806C12.8298 5.25605 12.7498 5.14404 12.6378 5.14404V5.15204Z" fill="white"/>
</g>
<defs>
<clipPath id="clip0_8039_2667">
<rect width="20.0012" height="20.0012" fill="white" transform="translate(-0.000976562)"/>
</clipPath>
</defs>
</svg>
