<svg width="20" height="20" viewBox="0 0 20 20" fill="none" xmlns="http://www.w3.org/2000/svg">
<g clip-path="url(#clip0_8039_2655)">
<path d="M15.3741 13.0669L13.46 14.1887V11.9346L15.3741 10.8022V13.0669Z" fill="#F0B90B"/>
<path d="M3.58019 10.0005L3.59074 13.8688L6.87755 15.8029V18.0675L1.66719 15.0116V8.86939L3.58019 10.0005ZM3.58019 6.13234V8.38645L1.66602 7.25412V5.00001L3.58019 3.86768L5.50375 5.00001L3.58019 6.13234ZM8.25018 5.00001L10.1644 3.86768L12.0879 5.00001L10.1644 6.13234L8.25018 5.00001Z" fill="#F0B90B"/>
<path d="M4.96387 13.067V10.8023L6.87804 11.9347V14.1888L4.96387 13.067ZM8.25067 16.614L10.1649 17.7463L12.0884 16.614V18.8681L10.1649 20.0005L8.25067 18.8681V16.614ZM14.8337 5.00001L16.7478 3.86768L18.6714 5.00001V7.25412L16.7478 8.38645V6.13234L14.8337 5.00001ZM16.7478 13.8688L16.7584 10.0005L18.6726 8.86822V15.0105L13.4622 18.0663V15.8017L16.7478 13.8688Z" fill="#F0B90B"/>
<path d="M15.3752 6.93396L15.3858 9.19862L12.0896 11.1327V15.0103L10.1754 16.1321L8.26122 15.0103V11.1327L4.96504 9.19862V6.93396L6.88742 5.80163L10.1637 7.74511L13.4599 5.80163L15.3834 6.93396H15.3752ZM4.96387 3.06692L10.1648 0.000488281L15.3752 3.06692L13.461 4.19925L10.1648 2.25577L6.87804 4.19925L4.96387 3.06692Z" fill="#F0B90B"/>
</g>
<defs>
<clipPath id="clip0_8039_2655">
<rect width="20" height="20" fill="white" transform="translate(0 0.000488281)"/>
</clipPath>
</defs>
</svg>
