<svg width="20" height="20" viewBox="0 0 20 20" fill="none" xmlns="http://www.w3.org/2000/svg">
<g clip-path="url(#clip0_8039_2692)">
<path d="M3.94974 15.0527C2.78926 15.0527 1.83906 14.7923 1.09915 14.2715C0.367036 13.7432 0.000976562 12.9843 0.000976562 12.0095C0.000976562 11.8012 0.0243422 11.5557 0.0710731 11.258C0.195689 10.5884 0.374824 9.7848 0.608479 8.83984C1.2705 6.28027 2.98397 5.00049 5.7411 5.00049C6.48879 5.00049 7.16639 5.11954 7.75832 5.36508C8.35024 5.59574 8.81755 5.95289 9.16024 6.42908C9.50294 6.89784 9.67428 7.45589 9.67428 8.10322C9.67428 8.29668 9.65092 8.54222 9.60419 8.83984C9.45621 9.66575 9.28486 10.4768 9.07457 11.258C8.73188 12.5304 8.14774 13.4902 7.30658 14.1227C6.47321 14.7477 5.35167 15.0527 3.94974 15.0527ZM4.16003 13.0438C4.70523 13.0438 5.16475 12.8875 5.54638 12.5825C5.93581 12.2774 6.21619 11.8086 6.37975 11.1688C6.60562 10.2908 6.77696 9.53182 6.89379 8.87704C6.93273 8.68359 6.9561 8.48269 6.9561 8.27436C6.9561 7.42613 6.49658 7.00201 5.56975 7.00201C5.02455 7.00201 4.55724 7.15826 4.16782 7.46333C3.78618 7.76839 3.51359 8.23715 3.35003 8.87704C3.17089 9.50206 2.99955 10.261 2.82041 11.1688C2.78147 11.3548 2.7581 11.5482 2.7581 11.7566C2.75031 12.6197 3.22541 13.0438 4.16003 13.0438Z" fill="white"/>
<path d="M10.3516 14.919C10.2426 14.919 10.1647 14.8893 10.1024 14.8223C10.0556 14.7479 10.0401 14.6661 10.0556 14.5693L12.0729 5.4918C12.0884 5.38763 12.143 5.30578 12.2364 5.23882C12.3221 5.17185 12.4156 5.14209 12.5168 5.14209H16.4033C17.4859 5.14209 18.3504 5.35787 19.0046 5.78198C19.6666 6.21354 20.0016 6.83111 20.0016 7.64213C20.0016 7.87279 19.9704 8.11833 19.9159 8.37131C19.6744 9.44276 19.1838 10.2315 18.4361 10.7449C17.7039 11.2583 16.6992 11.5112 15.4219 11.5112H13.4514L12.7816 14.5693C12.7583 14.6735 12.7115 14.7554 12.6181 14.8223C12.5324 14.8893 12.4389 14.919 12.3377 14.919H10.3516ZM15.5232 9.58413C15.936 9.58413 16.2864 9.47996 16.5902 9.26419C16.9017 9.04841 17.1042 8.74334 17.2055 8.34155C17.2366 8.1853 17.2522 8.04393 17.2522 7.92488C17.2522 7.65702 17.1665 7.44868 17.003 7.30731C16.8394 7.15849 16.5512 7.08409 16.154 7.08409H14.4016L13.8486 9.58413H15.5232Z" fill="white"/>
</g>
<defs>
<clipPath id="clip0_8039_2692">
<rect width="20.0008" height="20.0008" fill="white" transform="translate(0.000976562)"/>
</clipPath>
</defs>
</svg>
