<svg width="178" height="64" viewBox="0 0 178 64" fill="none" xmlns="http://www.w3.org/2000/svg">
<g clip-path="url(#clip0_2099_2699)">
<path d="M156.683 39.4495C155.457 39.4495 154.519 39.1167 153.865 38.4508C153.212 37.785 152.885 36.8388 152.885 35.6119V31.284H151.12V30.0634L152.885 29.6657V27.3262C154.059 26.9844 155.233 27.8545 155.233 29.0648V35.695C155.233 36.3238 155.383 36.8293 155.682 37.2116C155.982 37.5938 156.373 37.785 156.856 37.785C157.081 37.785 157.315 37.7664 157.561 37.7295C157.813 37.6863 158.115 37.6124 158.469 37.5076L159 38.987C158.49 39.1412 158.058 39.2553 157.704 39.3292C157.357 39.4093 157.016 39.4495 156.683 39.4495ZM157.867 31.284C157.5 31.284 157.19 31.204 156.938 31.0436C156.686 30.8771 156.479 30.6705 156.316 30.4239C156.159 30.1773 156.036 29.9246 155.948 29.6657H158.877V31.284H157.867Z" fill="#BAC3DA"/>
<path d="M146.86 39.4497C146.003 39.4497 145.248 39.308 144.594 39.0244C143.941 38.7408 143.396 38.3585 142.961 37.8778C142.525 37.3969 142.198 36.8513 141.981 36.2409C141.763 35.6245 141.654 34.9832 141.654 34.3175C141.654 33.3066 141.879 32.4372 142.327 31.7097C142.776 30.9823 143.393 30.4242 144.175 30.0359C144.964 29.6414 145.86 29.4441 146.86 29.4441C147.595 29.4441 148.255 29.5829 148.841 29.8603C149.426 30.1313 149.902 30.5107 150.269 30.9978C150.637 31.4786 150.862 32.0427 150.943 32.69C151.032 33.3374 150.94 34.031 150.667 34.7708H144.87C145.012 34.3763 145.219 34.0432 145.492 33.7721C145.771 33.5008 146.115 33.3653 146.523 33.3653H148.636C148.691 32.9522 148.643 32.57 148.494 32.2187C148.35 31.8673 148.123 31.5868 147.81 31.377C147.496 31.1674 147.125 31.0626 146.696 31.0626C146.247 31.0626 145.826 31.1797 145.431 31.414C145.036 31.642 144.716 31.9935 144.472 32.468C144.233 32.9428 144.115 33.5439 144.115 34.2712C144.115 34.9863 144.239 35.6059 144.491 36.13C144.751 36.654 145.108 37.0578 145.563 37.3415C146.019 37.6252 146.543 37.7669 147.136 37.7669C147.605 37.7669 148.062 37.7175 148.503 37.6189C148.953 37.5141 149.47 37.3352 150.055 37.0827L150.688 38.6178C149.987 38.926 149.316 39.1417 148.677 39.2652C148.044 39.3881 147.439 39.4497 146.86 39.4497Z" fill="#BAC3DA"/>
<path d="M137.938 39.2275V25.2085C139.297 25.2085 140.398 26.2988 140.398 27.6439V39.2275H137.938Z" fill="#BAC3DA"/>
<path d="M133.621 39.2275V25.2085C134.98 25.2085 136.08 26.2988 136.08 27.6437V39.2275H133.621Z" fill="#BAC3DA"/>
<path d="M126.421 39.4496C125.747 39.4496 125.166 39.3263 124.675 39.0797C124.185 38.8269 123.808 38.4941 123.542 38.081C123.284 37.6617 123.154 37.2085 123.154 36.7215C123.154 36.1668 123.325 35.6705 123.665 35.2326C124.012 34.7887 124.594 34.4219 125.41 34.1323C126.227 33.8426 127.346 33.6389 128.769 33.5221C128.728 33.7563 128.657 33.9875 128.555 34.2156C128.453 34.4438 128.303 34.641 128.105 34.8075C127.914 34.9678 127.663 35.0726 127.35 35.1221C126.907 35.1837 126.56 35.2854 126.309 35.4272C126.057 35.5689 125.876 35.7354 125.768 35.9264C125.666 36.1176 125.615 36.3178 125.615 36.5275C125.615 36.8728 125.747 37.1657 126.013 37.406C126.285 37.6464 126.629 37.7668 127.044 37.7668C127.466 37.7668 127.887 37.6527 128.309 37.4245C128.738 37.1903 129.136 36.8666 129.504 36.4535V33.4018C129.504 32.7236 129.307 32.1812 128.912 31.7743C128.523 31.3612 127.932 31.1547 127.136 31.1547C126.789 31.1547 126.424 31.1887 126.043 31.2565C125.669 31.3181 125.237 31.429 124.747 31.5893C124.397 30.7508 124.918 29.8067 125.82 29.6451C125.871 29.6359 125.921 29.6275 125.972 29.6196C126.564 29.521 127.095 29.4717 127.564 29.4717C128.96 29.4717 130.035 29.817 130.79 30.5075C131.552 31.1916 131.933 32.1751 131.933 33.4573V36.5736C131.933 37.0668 131.96 37.5354 132.015 37.9791C132.07 38.4167 132.151 38.8329 132.26 39.2274H130.433C130.249 39.1288 130.099 38.9964 129.984 38.8298C129.868 38.6633 129.769 38.4844 129.688 38.2933L129.647 37.942L129.401 38.2656C128.83 38.7527 128.316 39.0732 127.86 39.2274C127.411 39.3756 126.931 39.4496 126.421 39.4496Z" fill="#BAC3DA"/>
<path d="M107.253 39.2275L103.129 25.7817H103.701C104.84 25.7817 105.839 26.5352 106.142 27.6229L108.488 36.0557L108.651 37.0358L108.876 36.0557L111.724 25.9668H112.183C113.552 25.9668 114.751 26.8725 115.114 28.179L117.298 36.0557L117.502 37.0358L117.665 36.0925L120.523 25.7817C121.738 25.7817 122.609 26.9423 122.258 28.0936L118.86 39.2275H116.205L113.255 29.1108L113.082 28.3433L112.918 29.0831L109.968 39.2275H107.253Z" fill="#BAC3DA"/>
<path d="M93.6974 39.1146L84.8164 25.6689H86.2513C87.1324 25.6689 87.9471 26.1327 88.3901 26.8869L90.3797 30.2741L90.5738 30.8012L90.737 30.2741L93.4523 25.6689H96.2595L91.8598 32.2438L96.4942 39.1146H93.6974ZM84.5815 39.1146L88.6342 33.0669C88.8041 33.2702 88.9744 33.5385 89.1445 33.8713C89.3146 34.198 89.4235 34.5463 89.4711 34.9162C89.5188 35.2861 89.4404 35.6375 89.2364 35.9704L87.3071 39.1144L84.5815 39.1146Z" fill="#BAC3DA"/>
<path d="M77.3328 39.4865C75.8765 39.4865 74.6106 39.1905 73.5355 38.5987C72.4602 38.0068 71.6266 37.1869 71.0346 36.1389C70.4424 35.0847 70.1465 33.8701 70.1465 32.4955C70.1465 31.4473 70.3269 30.4949 70.6875 29.6379C71.048 28.7809 71.5518 28.0443 72.1983 27.4278C72.8447 26.8114 73.6036 26.3366 74.4748 26.0037C75.3526 25.6709 76.3055 25.5044 77.333 25.5044C78.5786 25.5044 79.6538 25.7018 80.5588 26.0963C81.464 26.4908 82.2092 27.0241 82.7943 27.6961C83.3796 28.3618 83.8118 29.1109 84.0909 29.9431C84.3768 30.7692 84.5197 31.6199 84.5197 32.4953C84.5197 33.4631 84.3494 34.3694 84.0092 35.214C83.6689 36.0586 83.1823 36.8014 82.5494 37.4425C81.9165 38.0835 81.1612 38.586 80.2834 38.9497C79.4053 39.3078 78.4217 39.4865 77.3328 39.4865ZM77.3328 37.8037C78.1631 37.8037 78.9186 37.5848 79.5992 37.1472C80.2797 36.7095 80.8207 36.093 81.2222 35.2978C81.6237 34.4964 81.8243 33.5623 81.8243 32.4959C81.8243 31.4541 81.6338 30.5354 81.2527 29.7401C80.8783 28.9388 80.3544 28.3161 79.6807 27.8722C79.0069 27.4222 78.2243 27.1971 77.3328 27.1971C76.4209 27.1971 75.6281 27.4282 74.9543 27.8907C74.2806 28.3531 73.7601 28.9851 73.3925 29.7864C73.0319 30.588 72.8515 31.491 72.8515 32.4959C72.8515 33.211 72.9535 33.8891 73.1577 34.5304C73.3618 35.1654 73.6578 35.7293 74.0458 36.2227C74.4336 36.716 74.9033 37.1043 75.4544 37.3879C76.0126 37.6649 76.6388 37.8037 77.3328 37.8037Z" fill="#BAC3DA"/>
<path d="M60.3955 39.2275V29.7806C60.3955 27.5721 62.2041 25.7817 64.435 25.7817H69.1235C69.1235 27.0815 68.059 28.1354 66.7458 28.1354H65.3147C64.0018 28.1354 62.9371 29.1891 62.9371 30.4891V39.2277L60.3955 39.2275ZM63.7132 32.9948C63.8016 32.742 63.9241 32.4892 64.0805 32.2366C64.2438 31.9777 64.4515 31.765 64.7033 31.5985C64.9618 31.4319 65.275 31.3488 65.6424 31.3488H68.4293V32.9948H63.7132Z" fill="#BAC3DA"/>
<path d="M51.5581 32.1151C51.5581 23.215 44.2698 16 35.2791 16C26.2884 16 19 23.215 19 32.1151C19 41.0152 26.2884 48.2302 35.2791 48.2302C44.2698 48.2302 51.5581 41.0152 51.5581 32.1151Z" fill="#BAC3DA"/>
<path fill-rule="evenodd" clip-rule="evenodd" d="M39.8822 23.7345C38.533 23.0274 37.509 21.7854 37.1046 20.2927C36.9799 20.7491 36.9157 21.228 36.9157 21.7218C36.9157 22.1071 36.9572 22.4812 37.0328 22.8441C37.0328 22.8441 37.0328 22.8441 37.0328 22.8478C37.0328 22.8516 37.0366 22.8591 37.0366 22.8628C37.1386 23.3491 37.3048 23.8093 37.5279 24.2357C37.0516 23.8878 36.6284 23.4726 36.2732 23.005C35.7971 26.6599 37.1386 30.4646 39.5912 32.971C42.7921 36.6596 39.8407 42.9184 34.8522 42.7538C27.7929 42.8137 26.5836 32.5221 33.3557 30.906L33.3519 30.8873C35.1584 30.3074 36.0049 29.144 36.1523 27.6326C33.5447 29.7238 29.4255 27.1313 30.2795 23.8841C20.4917 28.6539 24.1272 44.1267 35.2226 43.9359C40.0561 43.9359 44.145 40.771 45.4866 36.4203C47.0889 31.3475 44.4965 25.9417 39.8822 23.7345Z" fill="#181D27"/>
</g>
<defs>
<clipPath id="clip0_2099_2699">
<rect width="140" height="32.2302" fill="white" transform="translate(19 16)"/>
</clipPath>
</defs>
</svg>
