<svg width="178" height="64" viewBox="0 0 178 64" fill="none" xmlns="http://www.w3.org/2000/svg">
<g clip-path="url(#clip0_2099_2738)">
<path d="M56.478 25.135H58.1162V39.1H56.478V25.135Z" fill="#BAC3DA"/>
<path d="M60.0861 28.9749H61.3165L61.7313 30.1299C62.7335 29.4624 63.6252 28.7949 65.063 28.7949C67.026 28.7949 67.9385 30.3774 67.9385 32.1324V39.0999H66.2933V32.1024C66.2933 30.9174 65.6851 30.3999 64.8625 30.3999C63.7426 30.4131 62.6493 30.7721 61.7105 31.4349V39.0999H60.0654V28.9674H60.1069L60.0861 28.9749Z" fill="#BAC3DA"/>
<path d="M69.0791 29.305L70.7519 28.975V28.03C70.7285 27.511 70.8049 26.9925 70.976 26.5072C71.1471 26.022 71.4093 25.5806 71.746 25.2111C72.0826 24.8416 72.4863 24.552 72.9316 24.3607C73.3768 24.1695 73.8538 24.0807 74.3324 24.1C75.5419 24.1608 76.7409 24.3722 77.906 24.73V25.8475L74.7955 25.6675C73.7103 25.6 72.39 26.0575 72.39 28.0675V28.975L78.7147 29.1775V39.1H77.0627V30.55H72.3762V39.1H70.738V30.55H69.0583V29.275L69.0791 29.305Z" fill="#BAC3DA"/>
<path d="M80.6018 28.9749H81.8045L82.2192 30.1299C83.2284 29.4624 84.1201 28.7949 85.5509 28.7949C87.514 28.7949 88.4264 30.3774 88.4264 32.1324V39.0999H86.7882V32.1024C86.7882 30.9174 86.1799 30.3999 85.3574 30.3999C84.2354 30.4142 83.1402 30.773 82.1985 31.4349V39.0999H80.5603V28.9674H80.6018V28.9749Z" fill="#BAC3DA"/>
<path d="M90.0991 26.1625C90.093 26.0988 90.0997 26.0344 90.1188 25.9738C90.1379 25.9132 90.1689 25.8578 90.2096 25.8114C90.2504 25.7651 90.2999 25.7289 90.3548 25.7053C90.4097 25.6818 90.4687 25.6714 90.5277 25.675H91.682C91.7395 25.6748 91.7964 25.6876 91.8491 25.7125C91.9018 25.7374 91.9492 25.774 91.9882 25.8198C92.0272 25.8656 92.057 25.9198 92.0757 25.9788C92.0943 26.0378 92.1015 26.1004 92.0967 26.1625V27.3775C92.1014 27.4369 92.0937 27.4967 92.0742 27.5524C92.0547 27.6081 92.0238 27.6583 91.984 27.6994C91.9442 27.7404 91.8964 27.7712 91.8441 27.7895C91.7918 27.8078 91.7364 27.8131 91.682 27.805H90.5277C90.4733 27.8091 90.4188 27.8012 90.3673 27.7816C90.3159 27.762 90.2687 27.7313 90.2286 27.6913C90.1885 27.6513 90.1564 27.6029 90.1341 27.5489C90.1118 27.495 90.0999 27.4366 90.0991 27.3775V26.1625ZM90.2581 28.975H91.8963V39.1H90.2581V28.975Z" fill="#BAC3DA"/>
<path d="M93.2441 29.35L94.9307 28.9525L95.2694 26.125H96.5689V28.9525H99.1472V30.535H96.5689V35.35C96.5689 36.9625 96.956 37.3225 97.5297 37.5025C97.5297 37.5025 98.9122 37.9 99.002 37.9V39.1H97.2601C95.8777 39.1 94.9376 38.1925 94.9376 35.485V30.5425H93.2511V29.3725L93.2441 29.35Z" fill="#BAC3DA"/>
<path d="M104.456 39.1001L103.543 42.1001H105.347L109.204 28.9751H107.435L104.953 37.4276C104.835 37.4643 104.711 37.4736 104.589 37.455C104.468 37.4364 104.351 37.3903 104.247 37.3196C104.142 37.2489 104.053 37.1552 103.984 37.0446C103.915 36.934 103.869 36.809 103.847 36.6776L101.774 28.9826H100.025L102.202 36.8951C102.714 38.8901 103.834 39.1001 104.456 39.1001Z" fill="#BAC3DA"/>
<path d="M112.059 25.1351L115.598 36.3851L118.563 25.1351H120.361L119.241 29.3501L121.522 36.4151L124.577 25.1125H126.34L122.407 39.1001H120.672L118.432 32.3501L116.448 39.1001H114.713L110.29 25.1201L112.059 25.1351Z" fill="#BAC3DA"/>
<path d="M126.167 35.5524C126.143 35.1982 126.191 34.8427 126.307 34.5106C126.424 34.1786 126.605 33.8781 126.84 33.6302C127.074 33.3823 127.355 33.193 127.664 33.0755C127.973 32.958 128.302 32.9151 128.628 32.9499H132.25C132.25 32.9499 132.25 31.8624 132.25 31.8399C132.25 30.6924 131.697 30.3399 130.867 30.3399C129.713 30.3399 127.944 30.4524 126.485 30.5724V29.3499C127.954 28.9194 129.471 28.715 130.992 28.7424C132.609 28.7424 133.902 29.5524 133.902 31.7424V39.0999H132.665L132.277 37.8924C131.17 38.6092 129.931 39.0546 128.649 39.1974C128.329 39.2194 128.008 39.1689 127.707 39.0491C127.406 38.9293 127.132 38.7427 126.901 38.5015C126.67 38.2602 126.488 37.9694 126.366 37.6476C126.245 37.3258 126.186 36.9801 126.195 36.6324V35.5449L126.167 35.5524ZM128.794 37.6149C129.979 37.4894 131.143 37.1839 132.25 36.7074V34.2174L128.794 34.4874C128.657 34.491 128.523 34.5248 128.399 34.5868C128.275 34.6488 128.163 34.7377 128.072 34.8479C127.981 34.9582 127.911 35.0876 127.868 35.2281C127.824 35.3686 127.808 35.5172 127.819 35.6649V36.4899C127.805 37.3824 128.234 37.5999 128.794 37.5999V37.6149Z" fill="#BAC3DA"/>
<path d="M135.706 24.1599H137.351V35.3499C137.351 36.9624 137.738 37.3224 138.305 37.4799C138.305 37.4799 139.687 37.8774 139.784 37.8774V39.0999H138.097C136.68 39.0999 135.733 38.1924 135.733 35.4999V24.1599H135.706Z" fill="#BAC3DA"/>
<path d="M141.07 24.1599H142.715V35.3499C142.715 36.9624 143.095 37.3224 143.669 37.4799C143.669 37.4799 145.051 37.8774 145.141 37.8774V39.0999H143.448C142.031 39.0999 141.084 38.1924 141.084 35.4999V24.1599H141.07Z" fill="#BAC3DA"/>
<path d="M149.682 28.9075C152.026 28.9075 153.374 29.155 153.374 32.5225C153.374 34.0825 152.599 34.915 150.892 34.915H147.201C147.201 37.165 147.678 37.6075 149.046 37.6075C150.432 37.6579 151.818 37.5901 153.194 37.405V38.6725C151.709 39.0882 150.178 39.2726 148.646 39.22C146.247 39.22 145.542 37.9075 145.542 33.97C145.57 29.515 146.752 28.9075 149.682 28.9075ZM150.74 33.4075C151.431 33.4075 151.763 33.1 151.763 32.53C151.763 30.715 151.466 30.535 149.752 30.535C147.934 30.535 147.208 30.5725 147.229 33.4225H150.74V33.4075Z" fill="#BAC3DA"/>
<path d="M154.383 29.35L156.062 28.9525L156.408 26.125H157.694V28.9525H160.5V30.535H157.694V35.35C157.694 36.9625 158.081 37.3225 158.648 37.5025C158.648 37.5025 160.231 37.9 160.355 37.9V39.1H158.399C157.016 39.1 156.076 38.1925 156.076 35.485V30.5425H154.39V29.35H154.383Z" fill="#BAC3DA"/>
<path d="M34.9948 27.0476C34.9811 27.0086 34.9588 26.9739 34.9299 26.9464C34.901 26.919 34.8663 26.8996 34.8289 26.8901C34.7852 26.8748 34.7383 26.8738 34.6941 26.8872C34.6499 26.9005 34.6102 26.9276 34.58 26.9651L34.0685 27.5126L33.9925 27.6026L29.9419 23.2376C29.2057 22.448 28.2122 22.0051 27.177 22.0051C26.1418 22.0051 25.1484 22.448 24.4122 23.2376L18.6543 29.5001C17.9282 30.2999 17.5212 31.3775 17.5212 32.5001C17.5212 33.6227 17.9282 34.7003 18.6543 35.5001L24.4191 41.7326C25.1535 42.5258 26.1477 42.9712 27.184 42.9712C28.2203 42.9712 29.2144 42.5258 29.9488 41.7326L31.2622 40.3076C31.474 40.0992 31.6414 39.8433 31.7529 39.5576C31.8435 39.2917 31.8697 39.0051 31.829 38.7251C31.7899 38.4557 31.6954 38.1994 31.5525 37.9751C31.4934 37.8856 31.4263 37.8026 31.352 37.7276C31.0452 37.3969 30.6302 37.2113 30.1977 37.2113C29.7652 37.2113 29.3502 37.3969 29.0434 37.7276L27.6609 39.2276C27.5781 39.3228 27.4689 39.386 27.3498 39.4076C27.2402 39.4493 27.1208 39.4493 27.0112 39.4076C26.9003 39.363 26.7991 39.2941 26.7139 39.2051L20.9837 32.9876C20.8955 32.8951 20.8372 32.774 20.8178 32.6426C20.7892 32.4779 20.8162 32.3075 20.8939 32.1626V32.1251C20.963 32.0501 26.6725 25.8701 26.7209 25.8101C26.8129 25.7189 26.9246 25.6544 27.0457 25.6226C27.0869 25.6152 27.1289 25.6152 27.1701 25.6226C27.3365 25.624 27.4955 25.6968 27.6125 25.8251L31.6562 30.1751L31.4557 30.3926L31.0548 30.8276C31.0239 30.859 31.0009 30.8984 30.988 30.9422C30.975 30.9859 30.9726 31.0326 30.9809 31.0776C30.9892 31.1227 31.008 31.1647 31.0354 31.1997C31.0629 31.2347 31.0981 31.2615 31.1378 31.2776L34.7736 31.7651C34.8487 31.7659 34.9233 31.7496 34.9923 31.7173C35.0614 31.685 35.1234 31.6374 35.1745 31.5776C35.2289 31.5203 35.2718 31.4515 35.3004 31.3753C35.3289 31.2991 35.3425 31.2173 35.3404 31.1351L34.9948 27.0476Z" fill="#BAC3DA"/>
<path opacity="0.49" d="M20.9216 32.9351C20.8476 32.8285 20.8036 32.7009 20.795 32.5678C20.7864 32.4347 20.8136 32.3018 20.8732 32.1851C20.8732 32.1851 18.9724 34.435 19.8848 36.91L21.0944 38.2L22.8432 35.05L20.9216 32.9351Z" fill="#BAC3DA"/>
<path opacity="0.49" d="M26.8176 39.3324C27.4012 39.9435 28.1355 40.358 28.9317 40.5257C29.7278 40.6934 30.5517 40.6072 31.3037 40.2774C31.5011 40.0666 31.6523 39.8103 31.746 39.5274C31.428 39.3549 29.1263 37.5774 29.1263 37.5774L27.7438 39.0774C27.6494 39.2411 27.5004 39.3591 27.3279 39.4066C27.1553 39.4541 26.9726 39.4275 26.8176 39.3324Z" fill="#BAC3DA"/>
<path opacity="0.49" d="M25.4145 27.2199L26.7969 25.7199C26.9055 25.6345 27.0361 25.5886 27.1702 25.5886C27.3042 25.5886 27.4349 25.6345 27.5435 25.7199C27.5435 25.7199 25.2624 23.6874 22.8362 24.9699L22.145 25.7199L25.4145 27.2199Z" fill="#BAC3DA"/>
<path d="M32.0709 37.9526C32.0852 37.9925 32.1085 38.0278 32.1387 38.0554C32.1689 38.0829 32.205 38.1017 32.2437 38.1101C32.2862 38.1258 32.3322 38.127 32.3754 38.1136C32.4187 38.1002 32.4571 38.0728 32.4856 38.0351L32.9971 37.4876L33.0732 37.3976L37.1237 41.7626C37.8599 42.5522 38.8534 42.995 39.8886 42.995C40.9238 42.995 41.9172 42.5522 42.6535 41.7626L48.4183 35.5001C49.1411 34.6985 49.5458 33.6216 49.5458 32.5001C49.5458 31.3787 49.1411 30.3018 48.4183 29.5001L42.6535 23.2376C41.919 22.4444 40.9249 21.999 39.8886 21.999C38.8523 21.999 37.8582 22.4444 37.1237 23.2376L35.8104 24.6626C35.6007 24.8714 35.4356 25.1274 35.3265 25.4126C35.2337 25.6778 35.2051 25.9645 35.2436 26.2451C35.2775 26.5275 35.3722 26.7973 35.5201 27.0326C35.5812 27.1203 35.6482 27.203 35.7205 27.2801C36.0274 27.6108 36.4424 27.7964 36.8749 27.7964C37.3074 27.7964 37.7223 27.6108 38.0292 27.2801L39.4116 25.7801C39.4953 25.6862 39.6042 25.6232 39.7227 25.6001C39.8323 25.5584 39.9518 25.5584 40.0614 25.6001C40.173 25.643 40.2745 25.7121 40.3586 25.8026L46.0888 32.0201C46.1771 32.1126 46.2353 32.2337 46.2548 32.3651C46.2834 32.5298 46.2564 32.7002 46.1787 32.8451V32.8826C46.1096 32.9576 40.4001 39.1376 40.3517 39.1976C40.2597 39.2888 40.148 39.3533 40.0268 39.3851C39.9857 39.3925 39.9436 39.3925 39.9024 39.3851C39.7361 39.3837 39.577 39.3109 39.46 39.1826L35.4233 34.8326L35.6168 34.6151L36.0178 34.1801C36.0487 34.1487 36.0717 34.1092 36.0846 34.0655C36.0976 34.0217 36.1 33.9751 36.0917 33.9301C36.0834 33.885 36.0646 33.843 36.0372 33.808C36.0097 33.773 35.9745 33.7462 35.9348 33.7301L32.299 33.2426C32.1474 33.2465 32.0032 33.3146 31.8973 33.4324C31.7914 33.5501 31.7321 33.7081 31.7322 33.8726L32.0709 37.9526Z" fill="#BAC3DA"/>
<path opacity="0.49" d="M46.1442 32.0651C46.2183 32.1716 46.2623 32.2992 46.2708 32.4323C46.2794 32.5654 46.2523 32.6984 46.1926 32.8151C46.1926 32.8151 48.0935 30.5651 47.1811 28.0901L45.9783 26.8L44.2227 29.9501L46.1442 32.0651Z" fill="#BAC3DA"/>
<path opacity="0.49" d="M40.2482 25.6674C39.6646 25.0563 38.9303 24.6418 38.1341 24.4741C37.338 24.3064 36.5141 24.3926 35.7621 24.7224C35.5697 24.9215 35.4208 25.165 35.3267 25.4349C35.6446 25.6074 37.9395 27.3849 37.9395 27.3849L39.3219 25.8849C39.4217 25.7274 39.5731 25.6172 39.7453 25.5768C39.9174 25.5364 40.0973 25.5688 40.2482 25.6674Z" fill="#BAC3DA"/>
<path opacity="0.49" d="M41.6512 37.78L40.2687 39.28C40.1602 39.3654 40.0296 39.4114 39.8955 39.4114C39.7614 39.4114 39.6308 39.3654 39.5222 39.28C39.5222 39.28 41.8033 41.3125 44.2295 40.03L44.9207 39.28L41.6512 37.78Z" fill="#BAC3DA"/>
</g>
<defs>
<clipPath id="clip0_2099_2738">
<rect width="143" height="21" fill="white" transform="translate(17.5 22)"/>
</clipPath>
</defs>
</svg>
