<svg width="178" height="64" viewBox="0 0 178 64" fill="none" xmlns="http://www.w3.org/2000/svg">
<path d="M68.9741 17H40.6584C40.4838 17 40.3163 17.0693 40.1929 17.1929C40.0693 17.3163 40 17.4838 40 17.6585V45.9742C40 46.1488 40.0693 46.3163 40.1929 46.4397C40.3163 46.5633 40.4838 46.6326 40.6584 46.6326H68.9741C69.1488 46.6326 69.3163 46.5633 69.4397 46.4397C69.5633 46.3163 69.6326 46.1488 69.6326 45.9742V17.6585C69.6326 17.4838 69.5633 17.3163 69.4397 17.1929C69.3163 17.0693 69.1488 17 68.9741 17ZM59.755 36.0966C59.755 36.2712 59.6857 36.4387 59.5621 36.5623C59.4387 36.6857 59.2712 36.7552 59.0966 36.7552H50.536C50.3614 36.7552 50.1939 36.6857 50.0703 36.5623C49.9469 36.4387 49.8776 36.2712 49.8776 36.0966V27.536C49.8776 27.3614 49.9469 27.1939 50.0703 27.0705C50.1939 26.9469 50.3614 26.8776 50.536 26.8776H59.0966C59.2712 26.8776 59.4387 26.9469 59.5621 27.0705C59.6857 27.1939 59.755 27.3614 59.755 27.536V36.0966Z" fill="#BAC3DA"/>
<path d="M128.256 26.8784H119.695C119.332 26.8784 119.037 27.1732 119.037 27.5368V36.0974C119.037 36.4611 119.332 36.756 119.695 36.756H128.256C128.62 36.756 128.914 36.4611 128.914 36.0974V27.5368C128.914 27.1732 128.62 26.8784 128.256 26.8784Z" fill="#BAC3DA"/>
<path d="M118.374 17.0007H109.814C109.45 17.0007 109.155 17.2955 109.155 17.6593V26.2198C109.155 26.5834 109.45 26.8783 109.814 26.8783H118.374C118.738 26.8783 119.033 26.5834 119.033 26.2198V17.6593C119.033 17.2955 118.738 17.0007 118.374 17.0007Z" fill="#BAC3DA"/>
<path d="M138.129 17.0007H129.569C129.205 17.0007 128.91 17.2955 128.91 17.6593V26.2198C128.91 26.5834 129.205 26.8783 129.569 26.8783H138.129C138.493 26.8783 138.788 26.5834 138.788 26.2198V17.6593C138.788 17.2955 138.493 17.0007 138.129 17.0007Z" fill="#BAC3DA"/>
<path d="M118.374 36.7556H109.814C109.45 36.7556 109.155 37.0504 109.155 37.414V45.9746C109.155 46.3383 109.45 46.6332 109.814 46.6332H118.374C118.738 46.6332 119.033 46.3383 119.033 45.9746V37.414C119.033 37.0504 118.738 36.7556 118.374 36.7556Z" fill="#BAC3DA"/>
<path d="M138.129 36.7556H129.569C129.205 36.7556 128.91 37.0504 128.91 37.414V45.9746C128.91 46.3383 129.205 46.6332 129.569 46.6332H138.129C138.493 46.6332 138.788 46.3383 138.788 45.9746V37.414C138.788 37.0504 138.493 36.7556 138.129 36.7556Z" fill="#BAC3DA"/>
<path d="M103.546 17.0007H94.9852C94.6215 17.0007 94.3267 17.2955 94.3267 17.6593V26.2198C94.3267 26.5834 94.6215 26.8783 94.9852 26.8783H103.546C103.909 26.8783 104.204 26.5834 104.204 26.2198V17.6593C104.204 17.2955 103.909 17.0007 103.546 17.0007Z" fill="#BAC3DA"/>
<path d="M103.546 36.7556H94.9852C94.6215 36.7556 94.3267 37.0504 94.3267 37.414V45.9746C94.3267 46.3383 94.6215 46.6332 94.9852 46.6332H103.546C103.909 46.6332 104.204 46.3383 104.204 45.9746V37.414C104.204 37.0504 103.909 36.7556 103.546 36.7556Z" fill="#BAC3DA"/>
<path d="M94.3264 27.5286C94.3264 27.354 94.257 27.1865 94.1336 27.063C94.01 26.9395 93.8425 26.8702 93.6679 26.8702H84.4489V17.6585C84.4489 17.4838 84.3794 17.3163 84.256 17.1929C84.1324 17.0693 83.9649 17 83.7903 17H75.2298C75.0551 17 74.8876 17.0693 74.7642 17.1929C74.6406 17.3163 74.5713 17.4838 74.5713 17.6585V45.9594C74.5713 46.134 74.6406 46.3015 74.7642 46.4249C74.8876 46.5485 75.0551 46.6178 75.2298 46.6178H83.7903C83.9649 46.6178 84.1324 46.5485 84.256 46.4249C84.3794 46.3015 84.4489 46.134 84.4489 45.9594V36.7477H93.6679C93.8425 36.7477 94.01 36.6783 94.1336 36.5549C94.257 36.4313 94.3264 36.2638 94.3264 36.0892V27.5286Z" fill="#BAC3DA"/>
</svg>
