<svg width="178" height="64" viewBox="0 0 178 64" fill="none" xmlns="http://www.w3.org/2000/svg">
<g clip-path="url(#clip0_2099_2779)">
<mask id="mask0_2099_2779" style="mask-type:luminance" maskUnits="userSpaceOnUse" x="43" y="15" width="93" height="27">
<path d="M136 15H43V42H136V15Z" fill="white"/>
</mask>
<g mask="url(#mask0_2099_2779)">
<path d="M74.1449 41.8059C72.4778 41.8059 71.644 41.003 71.644 39.3974V25.1688C71.644 23.5916 72.4406 22.7988 74.0291 22.7988C75.6177 22.7988 76.4098 23.5916 76.4098 25.1688V26.3388C77.3472 24.1788 79.3526 22.9745 82.4259 22.7259C83.5472 22.6016 84.1701 23.2145 84.3036 24.5688C84.4371 25.9231 83.7564 26.6388 82.2701 26.7888L81.4113 26.8659C78.2074 27.1516 76.6055 28.7316 76.6055 31.6059V39.3931C76.6085 41.0016 75.7883 41.8059 74.1449 41.8059Z" fill="#BAC3DA"/>
<path d="M89.7759 41.7642C89.4461 41.7822 89.1161 41.731 88.809 41.614C88.5015 41.4971 88.2243 41.3173 87.996 41.0871C87.5515 40.5571 87.3294 39.8858 87.3732 39.2056V25.3971C87.3732 23.6829 88.1802 22.8257 89.7937 22.8257C91.4076 22.8257 92.2277 23.6829 92.2544 25.3971V39.2056C92.2962 39.8856 92.0742 40.5561 91.6315 41.0871C91.393 41.324 91.1028 41.5075 90.782 41.6244C90.4615 41.7415 90.118 41.7893 89.7759 41.7642ZM92.3835 17.4943C92.3835 17.9876 92.2317 18.4699 91.9474 18.88C91.6625 19.2902 91.2581 19.6099 90.785 19.7987C90.3116 19.9875 89.7909 20.0369 89.2886 19.9407C88.7863 19.8444 88.3248 19.6068 87.9626 19.258C87.6004 18.9092 87.3538 18.4647 87.2539 17.9809C87.1539 17.4971 87.2053 16.9955 87.4013 16.5398C87.5973 16.084 87.9292 15.6944 88.355 15.4204C88.781 15.1463 89.2814 15 89.7937 15C90.4807 15 91.1393 15.2628 91.6252 15.7306C92.1107 16.1983 92.3835 16.8328 92.3835 17.4943Z" fill="#BAC3DA"/>
<path d="M104.643 41.8074C103.338 41.8074 102.373 41.1418 101.75 39.8104L95.5207 25.9289C95.3436 25.5906 95.2515 25.217 95.2515 24.8382C95.2515 24.4593 95.3436 24.0857 95.5207 23.7475C95.8723 23.1217 96.5798 22.8046 97.6477 22.8046C98.1617 22.7809 98.6693 22.9194 99.0938 23.1989C99.5535 23.5935 99.8949 24.0997 100.082 24.6646L104.772 35.9532L109.618 24.6646C109.806 24.1038 110.149 23.603 110.61 23.216C111.069 22.932 111.609 22.7941 112.154 22.8217C112.514 22.7907 112.876 22.8638 113.193 23.0317C113.51 23.1997 113.768 23.4548 113.934 23.7646C114.101 24.1 114.184 24.4682 114.179 24.8401C114.172 25.2119 114.076 25.5774 113.898 25.9075L107.566 39.8274C106.976 41.1475 106.002 41.8074 104.643 41.8074Z" fill="#BAC3DA"/>
<path d="M125.828 41.8757C124.031 41.9215 122.252 41.5199 120.662 40.71C119.215 39.9447 118.033 38.7868 117.263 37.3801C116.424 35.8054 116.008 34.0536 116.052 32.2843C116.006 30.519 116.422 28.7709 117.263 27.2015C118.039 25.8044 119.22 24.6549 120.662 23.8929C122.265 23.1261 124.03 22.7271 125.819 22.7271C127.609 22.7271 129.374 23.1261 130.977 23.8929C132.418 24.656 133.599 25.8053 134.376 27.2015C135.217 28.7709 135.633 30.519 135.587 32.2843C135.632 34.0536 135.216 35.8054 134.376 37.3801C133.605 38.7859 132.423 39.9435 130.977 40.71C129.393 41.5165 127.62 41.9179 125.828 41.8757ZM125.828 38.3015C126.496 38.3242 127.161 38.1989 127.77 37.935C128.38 37.6713 128.918 37.2761 129.344 36.78C130.234 35.7658 130.679 34.2671 130.679 32.2843C130.679 30.3014 130.234 28.8029 129.344 27.7886C128.896 27.32 128.353 26.9459 127.748 26.69C127.143 26.434 126.49 26.3019 125.828 26.3019C125.168 26.3019 124.514 26.434 123.909 26.69C123.304 26.9459 122.76 27.32 122.313 27.7886C121.423 28.7772 120.978 30.2757 120.978 32.2843C120.978 34.2929 121.423 35.7915 122.313 36.78C122.739 37.2761 123.277 37.6713 123.887 37.935C124.497 38.1989 125.161 38.3242 125.828 38.3015Z" fill="#BAC3DA"/>
<path d="M54.5255 40.9864C54.0202 38.1192 52.7688 35.4219 50.888 33.1466C49.0073 30.8712 46.5585 29.0921 43.7704 27.9751C43.5243 27.8785 43.317 27.7082 43.1792 27.4893C43.0414 27.2704 42.9805 27.0146 43.0055 26.7597C43.0304 26.5049 43.1399 26.2646 43.3178 26.0744C43.4957 25.8841 43.7324 25.7541 43.9929 25.7036L62.268 22.2365C62.6254 22.168 62.9954 22.1955 63.3375 22.3161C63.6796 22.4366 63.9808 22.6456 64.2077 22.92C64.4348 23.1945 64.579 23.5238 64.6246 23.8719C64.6701 24.22 64.6155 24.5735 64.4663 24.8936L56.8705 41.2908C56.76 41.5227 56.5751 41.7144 56.3429 41.8375C56.1108 41.9606 55.8437 42.0086 55.5811 41.9746C55.3185 41.9405 55.0742 41.8261 54.8841 41.6482C54.6941 41.4703 54.5684 41.2384 54.5255 40.9864Z" fill="#BAC3DA"/>
</g>
</g>
<defs>
<clipPath id="clip0_2099_2779">
<rect width="93" height="27" fill="white" transform="translate(43 15)"/>
</clipPath>
</defs>
</svg>
