<svg width="48" height="48" viewBox="0 0 48 48" fill="none" xmlns="http://www.w3.org/2000/svg">
    <rect width="48" height="48" rx="8" fill="#2D3549"/>
    <mask id="path-2-inside-1_550_4107" fill="white">
        <path d="M23.8334 38.9219C23.6543 38.9219 23.4753 38.8808 23.3137 38.7971L18.1061 36.1015C16.6285 35.3357 15.4725 34.4764 14.5699 33.4753C12.5943 31.2859 11.4952 28.4753 11.4777 25.5599L11.4166 15.9641C11.4093 14.8566 12.1241 13.8626 13.1927 13.4882L22.7546 10.1544C23.3224 9.95165 23.9557 9.94881 24.5337 10.1445L34.132 13.3648C35.2064 13.7236 35.9329 14.7105 35.9387 15.8166L35.9998 25.4195C36.0188 28.3307 34.9575 31.1526 33.0125 33.3661C32.12 34.3814 30.9743 35.2535 29.5112 36.0334L24.3502 38.79C24.1901 38.8765 24.0125 38.9205 23.8334 38.9219Z"/>
    </mask>
    <path d="M23.3137 38.7971L24.2332 37.0211L24.2331 37.021L23.3137 38.7971ZM18.1061 36.1015L17.1859 37.8772L17.1867 37.8776L18.1061 36.1015ZM14.5699 33.4753L16.0553 32.136L16.0548 32.1355L14.5699 33.4753ZM11.4777 25.5599L13.4777 25.5479L13.4777 25.5471L11.4777 25.5599ZM11.4166 15.9641L13.4165 15.9513L13.4165 15.9509L11.4166 15.9641ZM13.1927 13.4882L12.5342 11.5997L12.5314 11.6007L13.1927 13.4882ZM22.7546 10.1544L23.4131 12.0429L23.4202 12.0404L23.4273 12.0379L22.7546 10.1544ZM24.5337 10.1445L23.8923 12.0389L23.8975 12.0406L24.5337 10.1445ZM34.132 13.3648L33.4958 15.261L33.4985 15.2619L34.132 13.3648ZM35.9387 15.8166L33.9387 15.8271L33.9387 15.8293L35.9387 15.8166ZM35.9998 25.4195L33.9999 25.4322L33.9999 25.4325L35.9998 25.4195ZM33.0125 33.3661L34.5146 34.6865L34.5149 34.6862L33.0125 33.3661ZM29.5112 36.0334L28.5704 34.2685L28.5689 34.2693L29.5112 36.0334ZM24.3502 38.79L23.4079 37.0259L23.3997 37.0303L24.3502 38.79ZM23.8334 36.9219C23.9583 36.9219 24.0967 36.9504 24.2332 37.0211L22.3941 40.5732C22.8538 40.8112 23.3503 40.9219 23.8334 40.9219V36.9219ZM24.2331 37.021L19.0255 34.3253L17.1867 37.8776L22.3942 40.5733L24.2331 37.021ZM19.0263 34.3257C17.7144 33.6459 16.765 32.9232 16.0553 32.136L13.0845 34.8145C14.18 36.0296 15.5425 37.0256 17.1859 37.8772L19.0263 34.3257ZM16.0548 32.1355C14.4033 30.3052 13.4922 27.9655 13.4777 25.5479L9.47774 25.5718C9.49819 28.9852 10.7854 32.2665 13.085 34.8151L16.0548 32.1355ZM13.4777 25.5471L13.4165 15.9513L9.4166 15.9768L9.47774 25.5726L13.4777 25.5471ZM13.4165 15.9509C13.415 15.7272 13.5638 15.4774 13.8539 15.3757L12.5314 11.6007C10.6844 12.2478 9.40351 13.986 9.4166 15.9772L13.4165 15.9509ZM13.8511 15.3767L23.4131 12.0429L22.0962 8.26592L12.5343 11.5997L13.8511 15.3767ZM23.4273 12.0379C23.5629 11.9895 23.733 11.9849 23.8923 12.0389L25.175 8.25014C24.1784 7.91268 23.0819 7.9138 22.0819 8.27094L23.4273 12.0379ZM23.8975 12.0406L33.4958 15.261L34.7682 11.4687L25.1698 8.24837L23.8975 12.0406ZM33.4985 15.2619C33.7855 15.3577 33.9375 15.6038 33.9387 15.8271L37.9387 15.8061C37.9282 13.8173 36.6273 12.0895 34.7654 11.4678L33.4985 15.2619ZM33.9387 15.8293L33.9999 25.4322L37.9998 25.4067L37.9386 15.8039L33.9387 15.8293ZM33.9999 25.4325C34.0156 27.8465 33.1359 30.1956 31.51 32.046L34.5149 34.6862C36.779 32.1095 38.0219 28.8149 37.9998 25.4065L33.9999 25.4325ZM31.5103 32.0457C30.8086 32.844 29.8685 33.5765 28.5704 34.2685L30.452 37.7983C32.0801 36.9304 33.4314 35.9189 34.5146 34.6865L31.5103 32.0457ZM28.5689 34.2693L23.4079 37.0259L25.2925 40.5542L30.4534 37.7975L28.5689 34.2693ZM23.3997 37.0303C23.5355 36.957 23.6801 36.9231 23.8176 36.922L23.8492 40.9219C24.3449 40.9179 24.8447 40.7961 25.3007 40.5498L23.3997 37.0303Z" fill="white" mask="url(#path-2-inside-1_550_4107)"/>
    <path d="M22.7237 27.8175C22.4442 27.819 22.1647 27.7183 21.9492 27.5113L19.1773 24.8454C18.7493 24.4313 18.7449 23.7592 19.1685 23.3423C19.5922 22.9239 20.2837 22.9197 20.7132 23.3323L22.7077 25.2495L27.5775 20.4481C28.0026 20.0297 28.6941 20.0255 29.1221 20.4381C29.5516 20.8522 29.5559 21.5258 29.1323 21.9412L23.4938 27.5013C23.2813 27.7112 23.0032 27.8161 22.7237 27.8175Z" fill="white"/>
</svg>
