<?xml version="1.0" encoding="UTF-8"?>
<svg enable-background="new 0 0 1667 1667" version="1.1" viewBox="0 0 1667 1667" xml:space="preserve" xmlns="http://www.w3.org/2000/svg">
<path d="m1134 1668h-1133c-8.4e-5 -555.67-8.4e-5 -1111.3-1.69e-4 -1667 555.67-2.09e-4 1111.3-2.09e-4 1667-4.17e-4 2.45e-4 555.67 2.45e-4 1111.3 6.11e-4 1667-177.83 9.77e-4 -355.67 9.77e-4 -534 9.77e-4m-504.77-1176c-3.7578 2.2973-7.5156 4.5946-11.986 6.9992-11.75 8.1769-23.722 16.058-35.172 24.636-7.451 5.5817-14.143 12.176-21.784 18.585-6.4009 6.3975-13.057 12.563-19.143 19.247-9.1857 10.087-18.283 20.286-26.826 30.914-5.9858 7.4464-10.984 15.686-17.051 23.86-6.1128 10.378-12.791 20.471-18.2 31.204-7.3301 14.543-13.988 29.448-20.339 44.45-3.2773 7.7408-5.2687 16.026-8.4863 24.456-2.2812 8.6152-5.1857 17.121-6.7143 25.868-3.2242 18.449-5.9283 36.998-8.4265 55.562-0.96445 7.1666-0.96164 14.483-1.089 21.737-0.13742 7.8256 0.088562 15.657 0.018158 24.413 0.33362 38.455 7.8752 75.631 19.255 112.34-0.2807 0.58484-0.5127 1.1995-0.84924 1.7501-6.5084 10.649-13.029 21.29-20.164 32.256-3.2316 5.6813-6.4633 11.363-10.193 17.569-3.0615 6.0344-6.123 12.069-9.8102 18.431-4.1245 8.5573-8.249 17.115-13.008 26.01-1.6478 3.6622-3.439 7.2676-4.9139 10.998-3.2379 8.1896-6.3156 16.443-10.109 25.033-4.0232 13.228-8.0465 26.456-12.211 40.511-0.1196 0.96863-0.15335 1.957-0.3718 2.9028-2.9844 12.921-5.3286 25.911-4.6305 40.195 0.65979 9.0089 0.587 18.146 2.1397 26.999 2.7845 15.875 9.8255 30.037 21.616 41.14 9.917 9.3383 21.797 15.757 35.198 18.962 5.6537 1.3522 11.346 2.5414 17.912 3.9535 13.369-0.049683 26.738-0.099365 40.966 7.32e-4 13.063-2.2898 26.125-4.5796 40.013-6.964 11.747-3.3243 23.495-6.6487 36.028-10.01 10.718-3.9668 21.435-7.9336 32.924-11.991 10.074-4.3015 20.149-8.6032 30.983-13 7.0803-3.3013 14.161-6.6024 21.974-10.012 6.366-3.2075 12.732-6.4152 19.684-9.9343 4.5077-2.4137 9.0154-4.8274 14.204-6.917 13.463 4.6157 26.778 9.7357 40.422 13.738 25.427 7.4595 51.604 11.532 77.971 12.812 21.331 1.0358 42.783-0.31213 64.177-0.7981 3.3012-0.075074 6.5787-1.1989 10.741-1.8921 2.5854-0.33423 5.1689-0.68482 7.7567-1 22.314-2.7181 44.042-8.1754 65.292-15.238 13.301-4.4207 26.074-10.431 39.824-15.79 3.1285-1.3435 6.342-2.5197 9.3719-4.0574 24.029-12.194 47.17-25.914 68.072-42.955 13.115-10.693 25.253-22.583 38.434-34.201 30.642-31.098 55.468-66.27 74.431-106.43 3.3197-7.7656 6.6394-15.531 10.594-23.67 1.3613-3.8915 2.7227-7.783 4.4263-12.356 1.9768-6.4215 3.9535-12.843 6.5839-19.66 2.3579-9.5536 4.7158-19.107 7.234-29.46 1.3354-6.8189 2.8008-13.616 3.969-20.463 1.1177-6.5517 1.9264-13.156 3.0071-20.637 0.01294-2.144-0.048583-4.2916 0.050782-6.4316 0.5835-12.557 1.2043-25.112 1.95-38.59-1.0457-14.359-2.0914-28.718-2.9974-43.933-3.6725-18.638-7.3448-37.276-10.395-56.268 2.2627-3.3298 4.5255-6.6597 7.3156-10.516 5.5374-8.7821 11.026-17.595 16.621-26.341 17.437-27.253 33.089-55.476 46.649-85.69 0.58655-1.3234 1.1887-2.6402 1.7577-3.9712 11.974-28.012 22.162-56.495 26.267-86.959 2.3779-17.648 2.6677-35.049-1.2216-52.411-3.856-17.212-12.558-31.758-26.396-42.628-17.481-13.732-38.248-18.329-59.974-19.338-21.002-0.97543-41.707 1.7965-62.15 6.1446-11.978 2.5475-23.67 6.4361-36.278 9.8177-9.0795 3.0098-18.329 5.5916-27.202 9.122-16.592 6.602-33.207 13.237-49.366 20.812-18.848 8.8362-37.217 18.694-56.436 27.788-1.8881-0.8443-3.7351-1.7995-5.6711-2.514-9.1516-3.3772-18.327-6.6885-28.189-10.367-7.1016-2.2187-14.203-4.4373-22.108-6.8035-4.0656-0.95129-8.1312-1.9026-12.997-3.0193-9.0667-1.6109-18.133-3.2218-27.937-5.2132-4.4209-0.54013-8.8418-1.0803-14.09-1.7902-5.0574-0.61014-10.115-1.2203-16.07-1.9761-5.0341-0.28464-10.068-0.56928-16.029-0.99954-6.0239 0.048798-12.048 0.097565-18.998 1.22e-4 -8.0236 0.38251-16.047 0.76502-24.947 1.0016-4.4084 0.38248-8.8167 0.76492-14.154 1.0693-1.739 0.30255-3.4802 0.59338-5.2167 0.91-3.9195 0.7146-7.8368 1.4419-12.607 2.0192-7.3829 1.3816-14.766 2.7632-22.954 4.0023-8.4354 2.3098-16.871 4.6196-26.096 6.9692-6.7167 2.2999-13.433 4.5997-20.935 6.9908-6.7584 2.6564-13.517 5.3127-21.022 8.0302-6.3399 2.8684-12.68 5.7367-19.606 8.9108-3.8629 1.9898-7.7259 3.9796-12.235 6.2665-3.1168 1.8999-6.2336 3.7997-10.076 5.807z" fill="#fff"/>
<path d="m453.9 955.95c-11.996-36.386-19.538-73.562-19.447-112.48 4.0607 2.2998 7.8938 4.8373 11.296 7.8604 8.4193 7.4822 16.573 15.263 24.958 22.785 14.905 13.371 29.954 26.583 44.845 39.97 11.701 10.519 23.159 21.31 34.933 31.745 3.518 3.1179 7.7384 5.4432 11.945 8.3013 14.684 30.901 33.793 58.247 58.035 82.075 4.0598 3.9902 7.3196 9.2537 9.5859 14.516 5.1051 11.854 1.3808 27.583-9.8945 35.478-10.916 7.6429-22.448 14.454-34.007 21.116-12.361 7.1248-25.175 6.7057-37.024-0.95129-5.7975-3.7462-10.618-9.1649-15.404-14.273-5.2626-5.6172-10.077-11.667-14.905-17.675-5.7152-7.1125-11.236-14.381-16.864-21.931-0.90808-1.9255-1.7045-3.5608-2.6912-5.0718-12.627-19.337-23.844-39.448-32.95-60.683-4.3595-10.167-8.2883-20.518-12.412-30.786z" fill="#00ECB1"/>
<path d="m1115 414.89c11.821-3.2853 23.513-7.1739 35.49-9.7214 20.443-4.3481 41.148-7.12 62.15-6.1446 21.726 1.0091 42.492 5.6056 59.974 19.338 13.837 10.87 22.54 25.415 26.396 42.628 3.8893 17.361 3.5995 34.763 1.2216 52.411-4.1049 30.465-14.293 58.948-26.267 86.959-0.56897 1.331-1.1711 2.6478-2.2578 4.2648-1.7461-0.76312-3.1838-1.6614-4.2079-2.9014-8.7411-10.582-17.353-21.271-26.109-31.841-11.079-13.373-22.257-26.663-33.371-40.408 0.68921-6.3882 1.9547-12.364 1.8982-18.327-0.10791-11.37-7.0471-20.893-18.996-22.064-5.91-0.57919-11.914-0.19418-17.921-0.58356-5.2874-6.9363-10.448-13.601-15.789-20.118-10.595-12.927-21.393-25.689-31.887-38.697-3.767-4.6689-6.9009-9.8486-10.324-14.795z" fill="#00F79C"/>
<path d="m986.11 1186c-13.01 5.2971-25.783 11.307-39.084 15.728-21.25 7.0625-42.977 12.52-65.292 15.238-2.5878 0.31518-5.1713 0.66577-8.4773 0.73535-9.9282-2.046-19.275-3.3036-28.319-5.6995-38.279-10.141-66.453-33.105-85.086-68.366-1.1736-2.3987-2.5002-4.3795-3.2147-6.5608-2.9624-9.0448-5.74-18.15-8.1866-27.187 3.8523 0.92236 7.2903 1.8654 10.762 2.6628 18.398 4.2274 37.011 7.0626 55.899 7.3124 11.088 0.14673 22.213-0.22925 33.275-1.0197 9.2839-0.66333 18.547-1.99 27.734-3.5341 8.6489-1.4537 17.185-3.5756 26.081-5.262 12.684 11.438 25.007 22.793 37.453 34.011 7.8758 7.099 16.014 13.907 23.888 21.007 7.6198 6.8705 15.053 13.948 22.568 20.935z" fill="#00E5BF"/>
<path d="m986.48 1186c-7.8847-6.9557-15.318-14.033-22.938-20.904-7.8746-7.1001-16.013-13.908-23.888-21.007-12.446-11.218-24.769-22.573-37.255-34.343 10.02-3.9099 20.253-7.0747 30.259-10.842 18.66-7.0251 36.274-16.366 52.437-27.876 14.233-10.135 27.24-21.99 41.101-32.945 4.7322 4.1251 9.1426 8.1204 13.574 12.092 15.744 14.11 31.456 28.256 47.266 42.293 4.8889 4.3407 10.049 8.3762 15.085 12.551-12.576 11.353-24.714 23.244-37.829 33.937-20.901 17.041-44.042 30.761-68.072 42.955-3.03 1.5377-6.2435 2.7139-9.7417 4.0884z" fill="#00DBD1"/>
<path d="m562.12 953.96c-3.8986-2.6884-8.119-5.0137-11.637-8.1316-11.774-10.435-23.232-21.226-34.933-31.745-14.891-13.387-29.94-26.599-44.845-39.97-8.3848-7.5219-16.538-15.303-24.958-22.785-3.4017-3.023-7.2348-5.5605-11.227-8.3235-0.42248-7.8336-0.64847-15.666-0.51105-23.491 0.12735-7.2538 0.12454-14.571 1.089-21.737 2.4982-18.564 5.2023-37.112 8.4265-55.562 1.5286-8.7467 4.4331-17.253 7.4104-26.049 1.7354 0.24829 2.9861 0.43793 3.7824 1.1418 12.387 10.949 24.769 21.904 37.04 32.982 11.912 10.753 23.64 21.711 35.575 32.439 3.0152 2.7102 6.5123 4.8843 9.7357 7.7461-0.7251 7.4492-2.0526 14.467-1.9425 21.463 0.28027 17.818 0.8844 35.644 1.9615 53.431 0.99616 16.449 4.6567 32.513 9.8547 48.103 4.5559 13.664 10.081 27.005 15.178 40.489z" fill="#00E5BF"/>
<path d="m1102.4 1104.9c-5.3386-4.043-10.499-8.0785-15.388-12.419-15.809-14.036-31.522-28.182-47.266-42.293-4.4315-3.9718-8.8419-7.967-13.434-12.399 8.8474-10.468 18.403-20.062 26.776-30.596 18.743-23.581 33.064-49.733 43.394-78.156 2.705 1.8334 5.2262 3.4545 7.4183 5.439 18.574 16.815 37.023 33.77 55.66 50.514 5.502 4.943 11.486 9.3488 17.25 14.001-18.64 39.507-43.466 74.679-74.411 105.91z" fill="#00D2E2"/>
<path d="m1208 529.89c11.135 13.326 22.313 26.617 33.392 39.989 8.7562 10.569 17.368 21.258 26.109 31.841 1.024 1.2399 2.4618 2.1382 4.0427 3.2362-12.895 29.585-28.547 57.808-45.984 85.061-5.5952 8.7451-11.084 17.558-17.023 26.225-5.5159-6.4077-10.596-12.728-15.751-18.985-10.626-12.898-21.211-25.83-31.976-38.611-5.1014-6.0566-10.578-11.798-15.736-18 1.619-2.4557 3.1464-4.5563 4.552-6.7355 13.47-20.883 27.651-41.355 40.101-62.83 7.4897-12.919 12.274-27.407 18.274-41.19z" fill="#00F1A8"/>
<path d="m1144.9 640.96c5.3064 5.884 10.782 11.625 15.884 17.682 10.765 12.781 21.35 25.713 31.976 38.611 5.1554 6.2578 10.235 12.578 15.488 19.249-2.1246 3.7088-4.3875 7.0386-7.2745 10.631-7.4154 9.7603-14.206 19.258-21.289 28.927-6.4279 8.4078-12.564 16.643-18.996 25.037-1.5343 1.7058-2.7896 3.2386-4.007 4.801-5.9772 7.6708-11.944 15.349-18.194 23.196-7.3931 8.7307-14.507 17.29-21.891 25.989-1.0854 0.72552-1.9011 1.312-2.6553 1.4344-0.26477-6.7285-0.44922-13.004-0.94836-19.255-0.90198-11.297-1.2159-22.715-3.1635-33.839-4.1578-23.75-10.736-46.872-20.59-68.988-0.67273-1.51-0.30176-4.1879 0.65906-5.5812 2.229-3.2323 5.2035-5.9388 7.7208-8.9865 7.1984-8.7147 14.387-17.439 21.454-26.26 8.6757-10.829 17.224-21.761 25.827-32.648z" fill="#00EAB5"/>
<path d="m537.12 790.04c-3.2756-2.4205-6.7727-4.5945-9.7879-7.3047-11.935-10.727-23.663-21.685-35.575-32.439-12.271-11.078-24.653-22.033-37.04-32.982-0.79624-0.70386-2.047-0.89349-3.4599-1.3375 2.1989-8.0543 4.1904-16.339 7.4677-24.08 6.3514-15.002 13.009-29.908 20.339-44.45 5.4096-10.732 12.087-20.826 18.825-31.202 9.2 7.5017 17.862 14.906 26.33 22.525 11.796 10.613 23.355 21.49 35.205 32.042 4.883 4.3481 10.257 8.1447 15.369 12.541-0.63672 1.5039-1.1841 2.6883-1.8388 3.8102-13.62 23.343-23.629 48.153-29.927 74.422-2.2575 9.4161-3.9541 18.967-5.9066 28.456z" fill="#00DDCD"/>
<path d="m1114.6 414.93c3.8164 4.8985 6.9503 10.078 10.717 14.747 10.494 13.007 21.292 25.769 31.887 38.697 5.3413 6.5171 10.502 13.182 15.374 20.19-10.946 3.3604-21.899 5.3778-32.014 9.467-17.878 7.2272-35.297 15.606-52.793 23.748-4.7905 2.2295-9.1735 5.335-14.079 8.0091-12.29-8.6744-23.791-18.055-36.315-25.776-15.317-9.4428-31.492-17.494-47.475-26.441-2.8056-1.7126-5.4318-3.1318-8.0581-4.551 18.577-9.4143 36.946-19.272 55.794-28.108 16.158-7.5752 32.774-14.211 49.366-20.812 8.8724-3.5303 18.122-6.1122 27.595-9.1701z" fill="#00F1A8"/>
<path d="m574.83 683c-5.1508-4.0474-10.525-7.844-15.408-12.192-11.85-10.552-23.409-21.429-35.205-32.042-8.4684-7.619-17.13-15.023-26.016-22.669 5.1284-8.0315 10.127-16.272 16.113-23.718 8.543-10.628 17.641-20.827 26.826-30.914 6.0866-6.6837 12.742-12.849 19.757-19.236 12.034 10.354 23.41 20.747 34.889 31.024 7.8906 7.0653 16.023 13.862 23.858 20.987 5.6253 5.1153 10.938 10.575 16.257 16.184-2.0137 2.1779-3.9387 4.0103-5.7672 5.9343-10.745 11.306-22.033 22.161-32.025 34.099-8.5358 10.197-15.576 21.647-23.278 32.542z" fill="#00D6DB"/>
<path d="m759.98 1144c18.504 34.936 46.678 57.9 84.957 68.041 9.0449 2.3959 18.391 3.6534 27.883 5.7267-3.0046 0.93066-6.2821 2.0544-9.5833 2.1295-21.394 0.48596-42.846 1.8339-64.177 0.7981-26.367-1.2805-52.544-5.3529-77.971-12.812-13.643-4.0023-26.958-9.1223-40.912-14.197-4.3639-7.8792-8.2372-15.3-12.126-23.107-2.2946-8.7802-4.5741-17.173-6.4369-25.574 3.1924-0.34363 5.9673-0.96484 8.7437-0.97107 29.874-0.067016 59.748-0.036987 89.621-0.033447z" fill="#00FE8F"/>
<path d="m636.04 610.12c-5.4521-5.3058-10.765-10.765-16.39-15.88-7.8352-7.1248-15.968-13.922-23.858-20.987-11.479-10.278-22.855-20.67-34.585-31.158 6.7229-6.2856 13.415-12.88 20.866-18.462 11.45-8.5775 23.422-16.459 35.672-24.379 6.5238 5.6921 12.568 11.104 18.568 16.566 15.205 13.844 30.368 27.734 45.596 41.552 4.902 4.4481 9.9551 8.7298 14.635 13.314-14.793 9.1381-29.376 17.903-43.726 27.034-5.853 3.7244-11.201 8.243-16.778 12.4z" fill="#00D0E6"/>
<path d="m372.17 1128c4.0233-13.228 8.0465-26.456 12.748-39.823 1.8535 0.73852 3.2427 1.4353 4.167 2.526 4.7045 5.5514 9.2758 11.215 13.917 16.821 19.305 23.314 38.619 46.621 57.93 69.931 19.311 23.31 38.659 46.588 57.879 69.973 2.1233 2.5835 3.508 5.7738 5.2353 8.6829-13.063 2.2898-26.125 4.5796-39.659 6.4526-7.2668-9.1224-13.877-17.982-20.899-26.501-13.771-16.708-27.848-33.165-41.655-49.844-13.381-16.164-26.513-32.534-39.919-48.678-2.8887-3.4789-6.4789-6.3751-9.7459-9.5398z" fill="#0056FA"/>
<path d="m524.46 1256.1c-2.1396-2.8617-3.5244-6.052-5.6476-8.6355-19.219-23.385-38.568-46.663-57.879-69.973-19.311-23.31-38.625-46.617-57.93-69.931-4.6414-5.6051-9.2127-11.269-13.917-16.821-0.92435-1.0907-2.3135-1.7875-3.8421-2.7079 2.7894-8.2689 5.8672-16.522 9.105-24.711 1.4749-3.7306 3.2661-7.3359 5.5413-11.023 2.5291 2.0342 4.5116 4.0249 6.3174 6.1647 5.541 6.5657 11.025 13.18 16.512 19.791 9.175 11.057 18.257 22.192 27.537 33.16 3.989 4.7144 8.3753 9.0924 12.524 13.999-1.5489 6.2854-3.5201 12.122-4.439 18.12-2.3996 15.662 5.0817 30.264 23.972 30.434 6.2153 0.055908 12.438-0.68152 18.67-0.68262 2.3697 3.6866 4.5557 7.1383 7.1136 10.288 9.0735 11.171 18.231 22.275 27.439 33.336 8.1357 9.7723 16.382 19.453 24.579 29.173-11.747 3.3243-23.495 6.6487-35.655 10.02z" fill="#0062F8"/>
<path d="m372.1 1128.4c3.3375 2.7507 6.9277 5.647 9.8164 9.1259 13.405 16.144 26.537 32.514 39.919 48.678 13.807 16.679 27.884 33.135 41.655 49.844 7.0219 8.5199 13.632 17.379 20.469 26.427-13.328 0.39148-26.697 0.44116-40.517 0.056031-1.0925-1.9366-1.4455-3.6687-2.4271-4.8994-3.6104-4.5265-7.4703-8.8527-11.162-13.316-9.1713-11.089-18.283-22.227-27.453-33.317-9.9113-11.985-19.816-23.978-29.849-35.86-1.4289-1.6921-3.5694-2.7836-5.3806-4.153-0.8411-13.357 1.503-26.348 4.4875-39.268 0.21844-0.9458 0.2522-1.9342 0.44226-3.3166z" fill="#004AFC"/>
<path d="m885 445.17c9.0667 1.6109 18.133 3.2218 27.605 5.2718 1.1174 1.6953 1.5731 3.2289 2.5832 4.1633 7.1863 6.6478 14.456 13.206 21.756 19.73 14.961 13.371 30.003 26.651 44.923 40.067 11.599 10.431 23.025 21.055 34.597 31.517 16.488 14.907 33.042 29.741 49.562 44.613 7.3994 6.6612 14.781 13.342 22.176 20.008 10.943 9.864 21.889 19.723 32.702 29.899-3.0181 3.7442-5.9034 7.1738-9.0994 10.463-4.7379-4.1557-9.1697-8.1665-13.592-12.188-7.6144-6.9249-15.188-13.895-22.841-20.777-15.913-14.312-31.879-28.564-47.797-42.871-7.4071-6.6574-14.726-13.413-22.131-20.073-16.038-14.421-32.117-28.798-48.159-43.215-7.4074-6.6572-14.745-13.392-22.154-20.048-15.797-14.192-31.637-28.336-47.398-42.568-1.1641-1.0511-1.834-2.6494-2.7336-3.9933z" fill="#0056FA"/>
<path d="m820 440.17c6.0239-0.048797 12.048-0.097564 18.576 0.25967 1.5331 1.685 2.4185 3.1196 3.6126 4.2187 11.714 10.782 23.436 21.557 35.242 32.239 16.47 14.902 33.021 29.715 49.525 44.579 7.269 6.5469 14.482 13.156 21.766 19.686 15.547 13.939 31.146 27.82 46.681 41.774 7.7723 6.9815 15.411 14.112 23.176 21.101 16.014 14.415 32.035 28.822 48.125 43.151 9.3982 8.3691 18.937 16.581 28.275 25.174-3.0708 3.4611-6.0048 6.6114-9.0815 9.4498-8.4658-7.9894-16.729-15.733-25.156-23.296-2.0056-1.7997-4.557-2.9911-7.1669-4.5959-4.8267-5.3254-9.4263-10.448-13.846-15.722-11.783-14.061-25.32-26.237-39.967-37.196-8.1584-6.1038-16.528-11.925-24.821-18.227-3.1439-3.4746-6.1812-6.6909-9.413-9.6981-8.3756-7.7936-16.775-15.564-25.277-23.219-15.511-13.966-31.124-27.819-46.653-41.765-7.8935-7.089-15.663-14.316-23.548-21.415-15.882-14.299-31.82-28.537-47.677-42.863-1.0384-0.93811-1.593-2.4119-2.3726-3.6365z" fill="#0068F7"/>
<path d="m1116.8 834.95c7.1143-8.5596 14.229-17.119 21.991-25.802 8.2372 6.4536 15.925 12.92 23.391 19.633 11.797 10.607 23.352 21.483 35.2 32.032 4.8815 4.3465 10.255 8.1403 15.405 12.185-0.94458 6.5812-1.7533 13.186-2.871 19.737-1.1682 6.8475-2.6335 13.644-4.385 20.822-16.414-13.723-32.491-27.717-48.385-41.914-13.557-12.109-26.906-24.453-40.346-36.693z" fill="#0094F1"/>
<path d="m819.54 440.09c1.2429 1.2978 1.7975 2.7715 2.8359 3.7096 15.857 14.326 31.795 28.564 47.677 42.863 7.8848 7.0988 15.654 14.326 23.548 21.415 15.529 13.946 31.142 27.799 46.653 41.765 8.502 7.655 16.901 15.425 25.277 23.219 3.2318 3.0073 6.2691 6.2235 9.0499 9.6428-18.436-8.3315-36.526-16.961-54.635-25.944-3.7299-4.0597-7.3259-7.8923-11.176-11.45-11.68-10.796-23.408-21.541-35.21-32.203-16.095-14.541-32.254-29.011-48.43-43.462-8.0209-7.1661-16.21-14.145-24.168-21.379-2.2652-2.0591-3.9854-4.7176-5.9555-7.1013 8.0236-0.38248 16.047-0.76498 24.534-1.0744z" fill="#006FF6"/>
<path d="m1095.1 672.04c-9.4753-8.2824-19.014-16.494-28.412-24.863-16.091-14.329-32.112-28.736-48.125-43.151-7.765-6.9897-15.404-14.12-23.176-21.101-15.534-13.954-31.133-27.835-46.681-41.774-7.2839-6.5302-14.497-13.14-21.766-19.686-16.504-14.864-33.054-29.677-49.525-44.579-11.806-10.681-23.527-21.457-35.242-32.239-1.1942-1.0991-2.0795-2.5338-3.1494-4.1459 4.9929-0.048584 10.027 0.23605 15.517 0.94412 0.67523 1.0305 0.71631 1.8354 1.1393 2.216 14.3 12.868 28.657 25.674 42.963 38.536 17.022 15.302 33.997 30.656 51.008 45.971 13.065 11.762 26.159 23.49 39.228 35.247 16.769 15.086 33.567 30.139 50.276 45.291 15.61 14.156 31.071 28.476 46.703 42.607 4.9059 4.4353 10.151 8.4955 15.186 13.075-2.0184 2.7825-3.9817 5.2172-5.9449 7.6519z" fill="#0064F8"/>
<path d="m981.49 472.86c2.947 1.5792 5.5732 2.9984 8.3683 5.0859 1.1705 2.3053 1.8744 4.2585 3.2224 5.5273 7.9752 7.5071 16.079 14.878 24.181 22.25 6.7479 6.1397 13.543 12.228 20.334 18.32 15.925 14.285 31.873 28.545 47.786 42.843 7.5288 6.7648 14.977 13.62 22.501 20.39 10.703 9.6309 21.443 19.221 32.036 29.142-3.0453 3.7727-5.959 7.2321-9.0542 10.408-6.682-6.2132-13.137-12.193-19.692-18.062-15.074-13.495-30.237-26.89-45.283-40.415-8.5182-7.6573-16.797-15.581-25.325-23.227-14.693-13.172-29.523-26.192-44.247-39.329-12.996-11.595-26.007-23.176-38.835-34.955-3.4869-3.2018-6.3359-7.0983-9.4777-10.676 9.1672 3.3348 18.343 6.6461 27.495 10.023 1.936 0.71448 3.783 1.6697 5.9918 2.674z" fill="#0049FC"/>
<path d="m1116.6 835.09c13.71 12.101 27.059 24.445 40.616 36.554 15.895 14.197 31.971 28.191 48.305 42.313-2.0221 9.5944-4.38 19.148-7.3827 28.763-8.5106-6.7421-16.492-13.417-24.218-20.376-15.239-13.727-30.259-27.698-45.533-41.387-5.4912-4.9212-11.452-9.3187-17.252-14.374 0.5929-6.5985 1.2682-12.776 1.8755-18.96 0.34753-3.5396 0.5846-7.0899 0.87134-10.635 0.81592-0.58649 1.6316-1.1729 2.717-1.8984z" fill="#00A6EE"/>
<path d="m560.5 1246c-8.5901-9.7021-16.836-19.382-24.972-29.155-9.2083-11.061-18.365-22.164-27.439-33.336-2.558-3.1494-4.744-6.6011-6.9119-10.626 4.1045-1.6349 8.0864-2.3441 11.922-3.5271 7.3423-2.264 14.602-4.7971 21.94-6.8813 11.561 14.436 23.096 28.519 34.587 42.638 7.8379 9.63 15.615 19.31 23.419 28.967-10.718 3.9668-21.435 7.9336-32.545 11.919z" fill="#006FF6"/>
<path d="m593.43 1234.1c-8.1897-9.6124-15.966-19.292-23.804-28.922-11.491-14.119-23.026-28.203-34.254-42.802 10.4-5.0582 20.512-9.6154 30.668-13.835 2.5129 3.4346 4.94 6.5663 7.4572 9.6238 13.886 16.867 27.845 33.674 41.657 50.601 3.2059 3.9291 5.9367 8.2458 8.8861 12.384-10.074 4.3016-20.149 8.6033-30.609 12.95z" fill="#007CF4"/>
<path d="m1101.1 664.04c-5.0897-4.2319-10.335-8.2922-15.241-12.727-15.631-14.132-31.093-28.452-46.703-42.607-16.709-15.152-33.507-30.206-50.276-45.291-13.069-11.757-26.164-23.485-39.228-35.247-17.011-15.315-33.986-30.668-51.008-45.971-14.307-12.861-28.663-25.667-42.963-38.536-0.42297-0.38065-0.46405-1.1855-0.69061-2.1432 5.05 0.25958 10.107 0.86972 15.584 1.9225 0.8125 1.3155 0.9798 2.4406 1.6318 3.024 14.32 12.81 28.72 25.529 43.048 38.33 13.221 11.812 26.381 23.692 39.557 35.554 20.197 18.182 40.381 36.379 60.578 54.56 13.177 11.862 26.347 23.729 39.556 35.555 17.366 15.546 34.766 31.054 52.015 46.892-2.0453 2.4379-3.9535 4.5616-5.8617 6.6855z" fill="#005FF9"/>
<path d="m1212.9 872.54c-5.2179-3.5952-10.591-7.3889-15.473-11.735-11.847-10.549-23.403-21.425-35.2-32.032-7.4661-6.7131-15.154-13.179-23.113-19.804 5.6008-7.7236 11.568-15.402 17.545-23.073 1.2174-1.5624 2.4727-3.0953 4.1581-4.4928 14.493 12.922 28.467 25.775 42.635 38.411 3.4666 3.0916 7.569 5.4702 11.379 8.1766-0.60816 12.556-1.229 25.111-1.8125 37.668-0.099365 2.14-0.037842 4.2876-0.11878 6.8817z" fill="#0080F4"/>
<path d="m713.89 455.95c8.4354-2.3098 16.871-4.6196 25.75-6.5248 1.1172 1.329 1.6616 2.3931 2.4848 3.1564 8.5006 7.8813 17.022 15.74 25.587 23.552 6.602 6.0212 13.263 11.978 19.917 17.942 15.77 14.134 31.571 28.234 47.293 42.421 1.2849 1.1594 2.066 2.877 2.6172 4.4078-10.402 0.35724-20.339 0.64197-30.397 0.5592-6.6375-6.7325-12.98-13.289-19.707-19.425-16.277-14.845-32.728-29.499-49.119-44.219-8.1307-7.302-16.283-14.58-24.426-21.869z" fill="#0091F1"/>
<path d="m1177 998.67c-5.9247-4.324-11.909-8.7299-17.411-13.673-18.638-16.744-37.086-33.699-55.66-50.514-2.1921-1.9846-4.7134-3.6056-7.368-5.7992 2.5835-9.1754 5.4529-17.947 8.6357-26.578 4.0388 3.4331 7.781 6.7073 11.486 10.023 15.808 14.145 31.596 28.312 47.409 42.451 7.6556 6.845 15.351 13.645 23.029 20.466-3.3197 7.7656-6.6394 15.531-10.121 23.625z" fill="#00C2EA"/>
<path d="m838 540.83c-1.0152-1.4583-1.7963-3.1758-3.0812-4.3353-15.722-14.187-31.523-28.287-47.293-42.421-6.6541-5.9638-13.315-11.92-19.917-17.942-8.5648-7.8114-17.086-15.671-25.587-23.552-0.82324-0.76331-1.3676-1.8274-2.0822-3.0851 7.3422-1.7149 14.725-3.0965 22.575-4.0717 8.7466 8.2379 16.894 16.215 25.335 23.869 15.21 13.791 30.589 27.394 45.91 41.062 8.7711 7.8246 17.681 15.499 26.297 23.489 3.5897 3.3289 6.5794 7.3047 9.4303 11.047-8.7711-0.92517-17.134-1.8825-25.487-2.916-2.049-0.25348-4.0673-0.75616-6.0996-1.1442z" fill="#0086F2"/>
<path d="m462.83 1125c-4.2058-4.5309-8.5921-8.9089-12.581-13.623-9.28-10.968-18.362-22.103-27.537-33.16-5.4864-6.6116-10.971-13.225-16.512-19.791-1.8058-2.1398-3.7884-4.1305-6.0001-6.334 3.8145-8.702 7.939-17.259 12.687-25.836 2.278 1.6025 4.0881 3.0956 5.5618 4.8684 7.4819 9.0009 14.835 18.109 22.312 27.114 11.059 13.319 22.184 26.583 33.252 40.236-3.7468 9.0853-7.4648 17.806-11.183 26.526z" fill="#006FF6"/>
<path d="m1107.1 657.04c-17.386-15.524-34.786-31.032-52.152-46.578-13.209-11.825-26.38-23.693-39.556-35.555-20.197-18.182-40.381-36.378-60.578-54.56-13.176-11.862-26.336-23.742-39.557-35.554-14.328-12.801-28.729-25.52-43.048-38.33-0.65204-0.58334-0.81934-1.7085-1.2181-2.9391 4.4152 0.18234 8.8361 0.72247 13.626 1.4529 1.2682 1.5341 1.9382 3.1324 3.1022 4.1835 15.761 14.232 31.601 28.376 47.398 42.568 7.4088 6.6557 14.746 13.391 22.154 20.048 16.042 14.417 32.121 28.794 48.159 43.215 7.4056 6.6591 14.724 13.415 22.131 20.073 15.918 14.306 31.884 28.559 47.797 42.871 7.6525 6.8824 15.226 13.852 22.841 20.777 4.4219 4.0214 8.8536 8.0322 13.457 12.5-1.4004 2.2441-2.9772 4.0366-4.554 5.8289z" fill="#005BF9"/>
<path d="m947.65 459.99c3.4892 3.7496 6.3382 7.6461 9.8251 10.848 12.828 11.779 25.839 23.36 38.835 34.955 14.725 13.137 29.554 26.157 44.247 39.329 8.5286 7.6455 16.807 15.57 25.325 23.227 15.046 13.525 30.209 26.921 45.283 40.415 6.5551 5.8684 13.01 11.849 19.669 18.412-1.8279 3.0693-3.8145 5.5042-5.9406 7.6268-8.4225-7.9664-16.682-15.646-24.996-23.266-6.8467-6.2751-13.73-12.511-20.647-18.708-15.435-13.829-30.925-27.596-46.343-41.443-7.9-7.095-15.636-14.373-23.549-21.454-14.824-13.265-29.756-26.409-44.579-39.675-12.358-11.06-24.646-22.198-36.884-33.391-0.95935-0.87738-1.2803-2.4528-1.8979-3.7037 7.1016 2.2187 14.203 4.4374 21.652 6.8279z" fill="#004EFB"/>
<path d="m713.5 455.97c8.5373 7.2689 16.69 14.547 24.82 21.849 16.391 14.72 32.842 29.374 49.119 44.219 6.7269 6.1353 13.069 12.692 19.296 19.497-9.093 1.1547-17.896 1.8694-26.736 2.231-1.6221-2.2313-3.0143-4.3221-4.8212-5.9534-12.167-10.984-24.412-21.883-36.652-32.786-8.529-7.5973-17.203-15.036-25.603-22.773-6.8175-6.2794-13.324-12.897-19.968-19.364 6.7167-2.2998 13.433-4.5996 20.545-6.9194z" fill="#009CF0"/>
<path d="m692.56 462.94c7.0367 6.4218 13.543 13.039 20.361 19.319 8.3998 7.7369 17.074 15.176 25.603 22.773 12.24 10.903 24.485 21.802 36.652 32.786 1.8069 1.6313 3.1992 3.7221 4.6007 6.2938-7.7128 2.0369-15.243 3.3802-22.817 4.389-4.5275-4.7238-8.8718-9.2669-13.52-13.474-15.99-14.473-32.078-28.836-48.145-43.224-7.7826-6.9693-15.6-13.9-23.402-20.848 6.7584-2.6564 13.517-5.3128 20.668-8.0148z" fill="#00A6EE"/>
<path d="m367.09 1171.5c1.8827 0.90613 4.0232 1.9976 5.4521 3.6897 10.034 11.883 19.938 23.875 29.849 35.86 9.1705 11.089 18.282 22.228 27.453 33.317 3.6915 4.4633 7.5513 8.7894 11.162 13.316 0.98154 1.2307 1.3345 2.9628 1.9814 4.8251-5.6695-0.90295-11.362-2.0922-17.016-3.4443-13.401-3.2048-25.281-9.6238-35.198-18.962-11.79-11.102-18.831-25.264-21.616-41.14-1.5527-8.8523-1.4799-17.99-2.0682-27.462z" fill="#0042FD"/>
<path d="m624.42 1221.1c-3.3295-4.0908-6.0603-8.4076-9.2662-12.337-13.812-16.927-27.771-33.735-41.657-50.601-2.5172-3.0575-4.9443-6.1892-7.1312-9.7827 7.0648-4.0573 13.848-7.6184 20.674-10.844 2.8584 3.7878 5.6578 7.2521 8.4908 10.689 13.886 16.843 27.831 33.638 41.633 50.549 3.2037 3.9252 5.9305 8.2397 8.8766 12.375-7.0803 3.3013-14.161 6.6024-21.621 9.9512z" fill="#0086F2"/>
<path d="m1111.2 867c5.7463 4.6365 11.707 9.0341 17.198 13.955 15.274 13.688 30.294 27.659 45.533 41.387 7.7255 6.9592 15.707 13.634 23.891 20.574-1.6587 6.558-3.6354 12.98-6.1166 19.701-3.0868-2.0184-5.6675-4.3386-8.2517-6.6549-15.933-14.28-31.826-28.605-47.815-42.822-9.1624-8.1475-18.479-16.121-27.674-24.597 1.1134-7.4636 2.1747-14.503 3.2358-21.543z" fill="#00B1EC"/>
<path d="m671.52 470.98c8.1751 6.9175 15.992 13.848 23.775 20.817 16.067 14.388 32.155 28.751 48.145 43.224 4.6483 4.2072 8.9927 8.7504 13.129 13.556-7.4209 2.3619-14.494 4.307-21.61 5.9183-2.976-3.188-5.8332-6.1258-8.8553-8.8828-18.448-16.83-36.882-33.676-55.438-50.388-5.9994-5.4034-12.35-10.417-18.539-15.609 6.3399-2.8684 12.68-5.7367 19.393-8.6356z" fill="#00B1EC"/>
<path d="m453.59 956.11c4.4318 10.105 8.3606 20.456 12.72 30.623 9.1057 21.235 20.323 41.346 32.95 60.683 0.9867 1.511 1.7831 3.1462 2.3775 5.2301-2.3662 3.4681-4.4421 6.4299-6.8303 9.2523-4.5639-4.9779-8.9194-9.7296-13.047-14.672-10.698-12.811-21.203-25.783-31.972-38.533-5.4249-6.4228-11.256-12.503-16.903-18.738 6.5182-10.643 13.039-21.284 19.547-31.933 0.33655-0.55066 0.56854-1.1653 1.1573-1.913z" fill="#0086F2"/>
<path d="m870 544.83c-3.2626-3.6816-6.2523-7.6575-9.842-10.986-8.6168-7.9905-17.526-15.665-26.297-23.489-15.321-13.668-30.7-27.271-45.91-41.062-8.4412-7.6535-16.589-15.631-24.909-23.796 3.8776-1.0562 7.7949-1.7834 11.714-2.498 1.7364-0.31662 3.4777-0.60745 5.7041-0.4632 0.90302 1.3305 1.0999 2.4541 1.7668 3.062 10.056 9.1649 20.161 18.276 30.28 27.372 16.162 14.528 32.319 29.062 48.526 43.541 8.0365 7.1794 16.318 14.09 24.215 21.418 3.9042 3.6225 7.1881 7.9134 10.348 11.973-8.8017-1.6426-17.199-3.3566-25.596-5.0707z" fill="#007DF4"/>
<path d="m432.58 990.12c5.9558 6.0734 11.787 12.153 17.211 18.576 10.769 12.75 21.274 25.722 31.972 38.533 4.1272 4.9421 8.4827 9.6938 12.897 14.995-3.4041 6.2469-6.971 12.032-10.883 17.766-2.5477-2.4789-4.8368-4.8354-6.9393-7.348-10.517-12.568-20.996-25.169-31.468-37.776-7.6146-9.1666-15.197-18.359-22.794-27.541 3.2316-5.6813 6.4633-11.363 10.003-17.206z" fill="#007DF4"/>
<path d="m646.41 1211.1c-3.3126-4.0813-6.0394-8.3959-9.2431-12.321-13.802-16.911-27.748-33.706-41.633-50.549-2.833-3.4365-5.6324-6.9008-8.1689-10.845 5.6931-3.458 11.108-6.4238 16.835-9.2452 5.3127 6.067 10.348 11.96 15.305 17.919 8.8674 10.661 17.647 21.396 26.54 32.034 6.5458 7.8303 13.215 15.557 19.83 23.33-6.3659 3.2076-12.732 6.4153-19.464 9.677z" fill="#0091F1"/>
<path d="m666.17 1201.2c-6.9074-7.6171-13.577-15.344-20.123-23.174-8.8937-10.639-17.673-21.373-26.54-32.034-4.9564-5.9587-9.9918-11.852-15.155-18.24 5.4065-3.5863 10.976-6.7069 16.857-9.6815 3.31 3.4551 6.4263 6.6666 9.2885 10.091 11.351 13.58 22.599 27.247 33.976 40.805 0.82037 0.97766 2.3776 1.3367 3.5923 1.9834 3.8734 7.4205 7.7468 14.841 11.77 22.558-4.3575 2.7102-8.8652 5.1239-13.666 7.6934z" fill="#0094F1"/>
<path d="m925.6 453.09c1.0193 1.3247 1.3403 2.9001 2.2996 3.7775 12.238 11.192 24.527 22.33 36.884 33.391 14.823 13.266 29.755 26.41 44.579 39.675 7.9127 7.0808 15.649 14.359 23.549 21.454 15.418 13.847 30.909 27.614 46.343 41.443 6.917 6.1974 13.8 12.433 20.647 18.708 8.3142 7.6201 16.573 15.3 24.871 23.573-1.2354 2.0816-2.485 3.5448-3.7346 5.008-10.945-9.8611-21.892-19.72-32.834-29.584-7.3949-6.6661-14.777-13.346-22.176-20.008-16.52-14.872-33.074-29.706-49.562-44.613-11.572-10.462-22.998-21.086-34.597-31.517-14.92-13.417-29.962-26.696-44.923-40.067-7.2995-6.524-14.569-13.083-21.756-19.73-1.0101-0.93436-1.4658-2.468-2.183-4.0806 4.0607 0.59491 8.1263 1.5462 12.594 2.5712z" fill="#0051FB"/>
<path d="m1214.9 827.53c-3.8788-2.2455-7.9812-4.6241-11.448-7.7157-14.168-12.636-28.142-25.489-42.338-38.57 5.9847-8.5432 12.12-16.778 18.605-24.841 7.1386 6.6163 13.79 13.217 20.778 19.438 3.4573 3.0776 7.5365 5.4563 11.334 8.1513 1.0457 14.359 2.0914 28.718 3.0684 43.537z" fill="#006FF6"/>
<path d="m896 549.83c-3.5646-3.9885-6.8485-8.2794-10.753-11.902-7.8971-7.3273-16.178-14.238-24.215-21.418-16.207-14.478-32.364-29.012-48.526-43.541-10.119-9.0959-20.224-18.207-30.28-27.372-0.66693-0.60785-0.86377-1.7314-1.3022-3.0229 4.3855-0.79022 8.7938-1.1727 13.64-1.4822 2.4081 2.4566 4.1283 5.1151 6.3935 7.1742 7.958 7.2342 16.147 14.213 24.168 21.379 16.175 14.452 32.335 28.922 48.43 43.462 11.802 10.662 23.53 21.407 35.21 32.203 3.8497 3.5582 7.4457 7.3907 10.781 11.4-8.1003-2.0922-15.824-4.4866-23.548-6.881z" fill="#0077F5"/>
<path d="m422.33 1007.6c7.846 8.9187 15.429 18.112 23.043 27.278 10.472 12.606 20.951 25.207 31.468 37.776 2.1026 2.5126 4.3917 4.8691 6.8802 7.7084-3.034 6.1958-6.3535 11.981-9.6729 17.766-11.097-13.288-22.222-26.552-33.281-39.871-7.4769-9.0051-14.83-18.113-22.312-27.114-1.4737-1.7728-3.2838-3.2659-5.249-5.0326 2.7513-6.1789 5.8128-12.213 9.1234-18.51z" fill="#0077F5"/>
<path d="m651.83 479.77c6.4827 5.0392 12.833 10.053 18.832 15.457 18.555 16.712 36.989 33.558 55.438 50.388 3.0222 2.757 5.8793 5.6948 8.5153 9.0544-5.059 2.1541-9.8205 3.8027-14.72 5.1401-1.0341-1.2876-1.8637-2.3367-2.8368-3.2294-11.823-10.846-23.611-21.731-35.525-32.476-7.85-7.0801-16.002-13.827-23.807-20.956-6.0953-5.567-11.865-11.491-17.779-17.256 3.8629-1.9898 7.7259-3.9796 11.882-6.1222z" fill="#00BAEB"/>
<path d="m696.85 570.46c-4.9839-4.3578-10.037-8.6395-14.939-13.088-15.228-13.818-30.391-27.708-45.596-41.552-5.9993-5.4619-12.044-10.874-18.211-16.62 3.6144-2.6082 7.3723-4.9055 11.636-6.9464 9.964 8.7994 19.451 17.311 28.873 25.893 12.007 10.937 23.934 21.962 35.954 32.885 5.0178 4.5598 10.186 8.954 14.98 13.652-4.4359 2.0776-8.5661 3.9264-12.696 5.7753z" fill="#00C5E9"/>
<path d="m1107.9 888.96c9.2472 8.0519 18.564 16.026 27.726 24.173 15.989 14.218 31.882 28.542 47.815 42.822 2.5842 2.3163 5.1649 4.6365 8.0804 6.9956-1.028 3.9321-2.3893 7.8235-4.0681 11.902-7.9952-6.6338-15.691-13.434-23.346-20.279-15.813-14.139-31.602-28.306-47.409-42.451-3.7053-3.3154-7.4475-6.5896-11.434-10.434 0.70459-4.6104 1.6703-8.6697 2.636-12.729z" fill="#00BAEB"/>
<path d="m709.85 564.46c-5.0997-4.4695-10.268-8.8638-15.286-13.424-12.02-10.923-23.947-21.948-35.954-32.885-9.4224-8.5824-18.909-17.094-28.511-25.947 2.9738-2.21 6.0905-4.1098 9.5302-6.1583 6.2371 5.6167 12.007 11.541 18.102 17.108 7.8048 7.1282 15.956 13.875 23.807 20.956 11.914 10.745 23.702 21.63 35.525 32.476 0.97308 0.89264 1.8027 1.9418 2.6608 3.543-3.3168 1.8604-6.5955 3.0961-9.8741 4.3318z" fill="#00C2EA"/>
<path d="m1211.9 783.57c-3.8677-2.2664-7.9469-4.6451-11.404-7.7227-6.9886-6.2213-13.64-12.822-20.486-19.611 6.7347-9.8422 13.526-19.339 20.63-28.922 3.9855 18.552 7.6578 37.19 11.26 56.256z" fill="#0062F8"/>
<path d="m709.54 564.68c3.5842-1.4645 6.8629-2.7002 10.318-4.2495 4.9374-1.9622 9.6989-3.6108 14.8-5.431 7.4133-2.1167 14.487-4.0618 21.951-6.0891 7.9216-1.4257 15.452-2.769 23.203-4.4528 9.0231-1.055 17.826-1.7697 27.039-2.5569 10.348-0.3573 20.286-0.64203 30.688-0.99927 2.4963 0.31555 4.5146 0.81824 6.5636 1.0717 8.3533 1.0334 16.716 1.9908 25.487 2.916 8.8091 1.6539 17.206 3.3679 26.008 5.0105 8.1281 2.3229 15.852 4.7173 23.97 7.1621 18.485 8.6801 36.576 17.31 55.03 25.995 8.6378 6.0038 17.008 11.825 25.166 17.929 14.648 10.959 28.184 23.135 39.967 37.196 4.4194 5.2739 9.019 10.397 13.899 16.077 8.4619 12.534 16.561 24.58 24.924 37.019 2.5364-3.1064 5.012-6.1383 7.4875-9.1702 2.934-3.1503 5.8679-6.3007 8.9387-9.7618 2.1001-2.7455 4.0634-5.1802 6.0818-7.9627 1.9631-2.4717 3.8713-4.5955 5.9166-7.0333 1.7139-2.1064 3.2906-3.8988 5.0017-6.0028 3.0198-3.7412 5.9052-7.1708 8.9232-10.915 1.3824-1.7778 2.6321-3.241 4.0071-5.0104 2.1118-2.7412 4.0984-5.176 6.1079-7.9615 2.9365-3.81 5.8502-7.2694 9.2119-11.2 1.4197-1.7678 2.9082-2.9454 3.2404-4.3892 0.49036-2.1302 1.1143-5.2147 0.029175-6.5718-12.342-15.436-24.462-31.109-37.75-45.711-9.7357-10.698-21.114-19.902-31.76-29.771 4.5699-2.7036 8.9529-5.8091 13.743-8.0386 17.496-8.1427 34.916-16.521 52.793-23.748 10.115-4.0892 21.068-6.1066 32.059-9.1289 6.3773-0.020538 12.382-0.40555 18.292 0.17364 11.948 1.1709 18.888 10.693 18.996 22.064 0.056518 5.9632-1.209 11.939-1.8982 18.327-6.021 14.201-10.805 28.689-18.295 41.609-12.45 21.475-26.631 41.947-40.101 62.83-1.4056 2.1791-2.933 4.2798-4.5521 6.7354-8.7513 11.206-17.3 22.137-25.975 32.967-7.0668 8.8212-14.255 17.546-21.454 26.26-2.5173 3.0477-5.4918 5.7542-7.7208 8.9865-0.96082 1.3934-1.3318 4.0712-0.65906 5.5812 9.8535 22.116 16.432 45.238 20.59 68.988 1.9475 11.124 2.2615 22.542 3.1635 33.839 0.49915 6.2507 0.68359 12.526 0.94836 19.255-0.34851 4.0096-0.58557 7.5599-0.9331 11.099-0.6073 6.1841-1.2826 12.362-1.8755 18.96-1.0071 7.4579-2.0684 14.497-3.1818 21.961-1.0178 4.4835-1.9835 8.5428-3.0016 13.013-2.9219 9.1823-5.7913 17.954-8.7109 27.085-10.044 28.827-24.365 54.979-43.108 78.56-8.3728 10.534-17.929 20.128-27.088 30.456-13.689 11.403-26.697 23.258-40.929 33.393-16.164 11.51-33.778 20.851-52.437 27.876-10.006 3.7673-20.239 6.9321-30.569 10.701-8.7845 2.1599-17.321 4.2817-25.97 5.7355-9.1865 1.5441-18.45 2.8707-27.734 3.5341-11.062 0.7904-22.187 1.1664-33.275 1.0197-18.888-0.24976-37.501-3.085-55.899-7.3124-3.4716-0.79749-6.9095-1.7405-10.783-3.1239-0.47778-7.1621-0.53522-13.817-0.52039-20.936 0.023987-16.822-0.024292-33.18-0.001159-50.001 0.023865-12.822-0.02356-25.18 0-38.001 0.071045-6.2691 0.071045-12.075 0.071045-18.291 6.3907 2.9648 12.373 5.9001 18.481 8.5449 21.239 9.1962 43.355 14.592 66.6 14.132 12.699-0.25153 25.558-0.21576 38.031-2.2422 19.706-3.2016 38.467-10.068 55.737-20.221 8.7977-5.1721 16.877-11.567 25.592-17.546 1.4936-0.987 2.8116-1.7001 3.8355-2.711 6.6649-6.58 13.786-12.792 19.745-19.966 6.2954-7.579 11.463-16.094 17.429-24.365 4.7687-9.7219 9.2325-19.279 14.012-29.018 3.1028-10.725 5.8895-21.268 9.0164-32.039 1.075-6.0449 2.2463-11.848 2.4479-17.684 0.34894-10.1 0.26941-20.226 0.010315-30.331-0.1015-3.9595-1.1711-7.8942-1.8497-12.27-1.7763-8.1301-3.5028-15.83-5.1718-23.92-2.5528-7.1432-5.1632-13.896-7.827-21.028-2.7796-5.7806-5.5059-11.182-8.27-16.932-4.9166-7.4606-9.7955-14.573-14.82-22-9.0496-9.4398-17.953-18.564-27.004-28.004-1.6735-1.5074-3.2025-2.6973-4.7278-3.8917-10.831-8.4809-22.415-15.691-35.37-21.19-2.8632-1.4191-5.5687-2.4953-8.252-3.6244-19.579-8.2396-40.115-12.013-61.225-12.916-15.345-0.65601-30.699 0.28742-45.51 4.184-12.552 3.3024-24.637 8.3817-37.296 12.728-14.508 6.474-27.47 14.745-39.598 24.896-9.2419 9.436-18.178 18.785-27.421 28.285-5.6734 8.7278-11.039 17.304-16.566 26.205-3.8157 9.0978-7.4711 17.87-11.45 26.833-2.0115 7.0737-3.6997 13.957-5.5775 21.204-1.0631 5.4557-1.9366 10.548-2.8805 16.082-0.4118 3.3638-1.0403 6.2853-1.0475 9.2082-0.041626 17.117 0.062073 34.235 0.047058 51.816-0.023254 18.155 0.023132 35.846 0 54-0.023193 15.488 0.023071 30.511-1.22e-4 45.999-0.022949 12.488 0.023498 24.512 4.88e-4 37-0.02301 12.822 0.023377 25.18 2.44e-4 38.001-0.023315 16.822 0.023011 33.18 8.55e-4 49.959-0.11816 2.1268-0.16791 3.8324-0.56934 5.5624-6.4232 3.981-12.495 7.9375-18.888 12.044-5.7963 3.7396-11.271 7.3297-16.745 10.92-5.5698 3.1205-11.14 6.2411-16.859 9.6831-5.5643 3.2874-10.979 6.2532-16.715 9.375-7.1049 3.7173-13.888 7.2784-20.997 10.999-10.438 4.7159-20.549 9.2731-30.994 13.994-7.6267 2.5853-14.886 5.1184-22.228 7.3824-3.8358 1.183-7.8176 1.8922-11.935 3.1536-6.4209 0.71252-12.643 1.45-18.859 1.394-18.89-0.16992-26.372-14.772-23.972-30.434 0.91894-5.9978 2.8901-11.834 4.439-18.12 3.7753-9.0958 7.4933-17.816 11.24-26.901 3.3482-6.1499 6.6677-11.935 10.046-18.08 3.626-6.1451 7.1929-11.93 10.909-18.038 2.2255-3.2847 4.3013-6.2465 6.6908-9.3666 5.9185 7.0428 11.439 14.312 17.154 21.424 4.8275 6.0079 9.642 12.058 14.905 17.675 4.7859 5.1084 9.6063 10.527 15.404 14.273 11.849 7.657 24.663 8.076 37.024 0.95129 11.558-6.662 23.091-13.473 34.007-21.116 11.275-7.895 15-23.624 9.8945-35.478-2.2662-5.2622-5.5261-10.526-9.5859-14.516-24.243-23.828-43.352-51.173-58.035-82.075-5.4049-13.654-10.93-26.995-15.486-40.659-5.198-15.59-8.8586-31.655-9.8547-48.103-1.0771-17.787-1.6813-35.613-1.9615-53.431-0.11005-6.9956 1.2174-14.014 1.9425-21.463 2.0048-9.9306 3.7014-19.481 5.9589-28.897 6.2977-26.269 16.307-51.079 29.927-74.422 0.65466-1.1219 1.2021-2.3063 1.8388-3.8102 7.7411-11.244 14.781-22.693 23.317-32.891 9.9927-11.938 21.28-22.793 32.025-34.099 1.8286-1.924 3.7535-3.7563 5.7672-5.9343 5.7108-4.4604 11.058-8.9791 16.911-12.703 14.35-9.1309 28.933-17.896 43.726-27.034 4.434-2.0749 8.5642-3.9237 13-6.0013z" fill="#fff"/>
<path d="m747.83 1089c0.057434 6.6548 0.11487 13.31 0.19385 20.425 2.8669 9.5442 5.6445 18.649 8.6069 27.694 0.71454 2.1813 2.0411 4.1621 3.2147 6.5608-29.745 0.32214-59.619 0.29212-89.493 0.35913-2.7764 0.006226-5.5513 0.62744-8.8004 0.54956-1.2108-4.8044-1.9482-9.1952-2.6266-14.028-0.64331-12.162-1.3455-23.882-2.0477-35.601 0.049683-1.7054 0.099427-3.411 0.67523-5.5394 30.443-0.422 60.36-0.4209 90.277-0.4198z" fill="#00F79C"/>
<path d="m1073.7 529.79c10.982 9.8992 22.36 19.103 32.096 29.801 13.287 14.602 25.407 30.274 37.75 45.711 1.0851 1.3572 0.46118 4.4416-0.029175 6.5718-0.33215 1.4438-1.8207 2.6214-3.1086 4.0759-11.041-9.4498-21.781-19.04-32.484-28.671-7.5239-6.7701-14.972-13.625-22.501-20.39-15.913-14.299-31.861-28.558-47.786-42.843-6.7911-6.0919-13.586-12.18-20.334-18.32-8.1018-7.3716-16.206-14.743-24.181-22.25-1.348-1.2688-2.0519-3.222-3.0431-5.2338 15.814 8.2782 31.989 16.33 47.306 25.772 12.524 7.721 24.025 17.102 36.315 25.776z" fill="#0042FD"/>
<path d="m658.87 1131c0.7373 4.3909 1.4747 8.7816 2.2687 13.594 2.3362 8.8148 4.6158 17.208 6.9103 25.988-1.1996-0.25989-2.7568-0.6189-3.5772-1.5966-11.378-13.558-22.625-27.225-33.976-40.805-2.8622-3.4241-5.9785-6.6356-9.2885-10.091 5.1638-3.7358 10.638-7.3259 16.474-10.709 4.1472 4.9767 7.7676 9.8907 11.772 14.469 2.8724 3.2833 6.259 6.1167 9.4161 9.1509z" fill="#009CF0"/>
<path d="m1085.9 681.8c-2.3328 3.3439-4.8083 6.3759-7.3447 9.4822-8.3634-12.439-16.462-24.485-24.615-36.886 2.2469 1.1167 4.7983 2.308 6.804 4.1078 8.4266 7.5622 16.69 15.306 25.156 23.296z" fill="#006FF6"/>
<path d="m657.17 964c-0.046265-15.024-0.092529-30.048 0.38818-45.536 75.062-0.46472 149.6-0.46857 224.13-0.46314 37.144 0.002746 74.289 0.022522 111.43 0.034546-5.6605 8.1064-10.828 16.622-17.124 24.201-5.9591 7.174-13.08 13.386-19.745 19.966-1.0239 1.0109-2.3419 1.724-4.2263 2.5414-2.8256-0.27045-4.9487-0.71448-7.072-0.71521-95.929-0.034058-191.86-0.029175-287.79-0.028931z" fill="#00DFC9"/>
<path d="m993.43 917.87c-37.449 0.1524-74.594 0.13263-111.74 0.12988-74.535-0.005432-149.07-0.001587-224.06-8.55e-4 -0.50384-17.69-0.55023-35.381-0.069458-53.536 31.308-0.4646 62.09-0.44519 92.871-0.51227 1.8737-0.00409 3.7458-0.69391 5.9318-0.89319 6.6039 13.742 16.012 24.905 27.972 33.617 22.121 16.112 46.689 21.846 73.719 15.838 17.391-3.8658 31.839-12.966 45.194-24.315 2.0779 0.47931 3.8759 0.77881 5.6741 0.78101 32.735 0.039795 65.471 0.043823 98.206 0.055481-4.4638 9.5574-8.9276 19.115-13.696 28.837z" fill="#00D9D5"/>
<path d="m657.1 964.46c95.999-0.46436 191.93-0.46924 287.86-0.43518 2.1233 7.33e-4 4.2465 0.44476 6.7605 0.8515-8.013 6.0118-16.092 12.407-24.89 17.579-17.27 10.153-36.031 17.019-55.737 20.221-12.473 2.0265-25.333 1.9907-38.031 2.2422-23.245 0.46045-45.361-4.9359-66.6-14.132-6.1082-2.6447-12.091-5.5801-18.481-8.5449 0 6.2167 0 12.022-0.52863 18.291-30.446 0.46332-60.363 0.46368-90.28 0.46399-0.046509-12.024-0.092956-24.048-0.070007-36.536z" fill="#00E5BF"/>
<path d="m954.12 684.96c8.9039 9.1244 17.808 18.249 26.434 27.746-2.7285 0.67993-5.1791 1.2541-7.63 1.2553-89.9 0.045898-179.8 0.047912-269.7-0.004822-2.7814-0.001648-5.5624-0.64667-8.3437-0.9917 8.936-9.3486 17.872-18.697 27.594-28.05 3.4041 0.35883 6.0232 1.0474 8.6395 1.0372 74.335-0.2876 148.67-0.64551 223.01-0.992z" fill="#0068F7"/>
<path d="m694.57 713.12c3.0886 0.19318 5.8696 0.8382 8.651 0.83984 89.9 0.052734 179.8 0.05072 269.7 0.004822 2.4509-0.001221 4.9016-0.57538 7.7756-0.93988 5.3022 7.0544 10.181 14.166 14.694 21.69-2.645 0.70392-4.9241 1.2479-7.2039 1.251-39.54 0.051941-79.081 0.022217-118.62 0.085022-1.8681 0.002991-3.7351 0.6991-6.0159 1.0181-5.82-1.0594-11.191-2.6065-16.64-2.9654-14.963-0.9856-29.632 0.61761-44.022 6.4791-3.0301-0.67523-5.5945-1.5132-8.1608-1.5189-38.854-0.085632-77.708-0.062195-116.56-0.064209 5.366-8.5759 10.732-17.152 16.405-25.88z" fill="#0080F4"/>
<path d="m756.04 862.89c-1.8729 0.37079-3.7451 1.0606-5.6187 1.0647-30.781 0.067077-61.562 0.047668-92.801 0.048278-0.51215-17.117-0.61584-34.234-0.57422-51.352 0.007141-2.9229 0.63568-5.8444 1.5049-9.2078 30.778-0.44208 61.027-0.44293 91.346-0.029602-2.3132 11.452-3.1929 22.617-0.85498 33.695 1.8359 8.6987 4.6294 17.195 6.9976 25.781z" fill="#00D2E2"/>
<path d="m1017.1 796.96c0.62866 3.946 1.6982 7.8807 1.7997 11.84 0.25909 10.106 0.33862 20.231-0.010315 30.331-0.20166 5.8363-1.3729 11.639-2.9241 17.672-31.577 0.19672-62.338 0.17889-93.048-0.23291 0.63257-2.2479 1.3105-4.0779 1.7784-5.96 2.8032-11.276 5.6887-22.52 3.348-34.337-1.1978-6.0466-1.9412-12.183-2.486-18.341 2.5192-0.35144 4.634-0.88922 6.7501-0.89447 28.264-0.069642 56.528-0.064881 84.792-0.078614z" fill="#00D1E4"/>
<path d="m953.97 684.64c-74.189 0.66193-148.52 1.0198-222.86 1.3074-2.6163 0.010132-5.2354-0.6784-8.3335-1.1246 11.342-10.147 24.304-18.418 38.903-24.487 2.1039 0.78742 3.7476 1.6021 5.3925 1.6045 47.228 0.068238 94.456 0.077881 141.68-0.034363 1.7625-0.00415 3.5217-1.3229 5.2825-2.0291 12.787 5.1808 24.371 12.391 35.202 20.871 1.5253 1.1944 3.0543 2.3843 4.7278 3.8917z" fill="#0051FB"/>
<path d="m747.91 1088.5c-29.989 0.46289-59.906 0.46179-90.281 0.4624-0.50391-16.356-0.55023-32.714-0.069397-49.537 30.444-0.46423 60.361-0.4635 90.278-0.46277 0.048217 16.358 0.096496 32.716 0.072509 49.537z" fill="#00EFAB"/>
<path d="m747.9 1038.5c-29.988 0.46326-59.905 0.46252-90.279 0.46289-0.50397-12.357-0.55035-24.715-0.52734-37.536 29.987-0.46442 59.904-0.46478 90.278-0.4646 0.50507 12.358 0.55249 24.716 0.52863 37.538z" fill="#00EAB5"/>
<path d="m922.88 856.96c30.761 0.017822 61.522 0.035644 92.759 0.065979-2.3105 10.556-5.0972 21.099-8.2 31.824-33.052 0.17004-65.787 0.16602-98.522 0.12622-1.7982-0.002197-3.5961-0.3017-5.537-1.0883 2.114-3.3911 4.6927-5.9564 6.5637-8.9622 4.4891-7.2119 8.6459-14.631 12.937-21.966z" fill="#00D8D6"/>
<path d="m678.01 739.32c39.014-0.32312 77.869-0.34656 116.72-0.26092 2.5663 0.005676 5.1307 0.84363 7.7847 1.6343-13.219 6.6047-25.094 14.769-34.789 26.18-2.5088-0.40161-4.6247-0.841-6.7413-0.84479-31.368-0.055908-62.736-0.054016-94.104-0.065856 3.6554-8.7726 7.3108-17.545 11.126-26.643z" fill="#009CF0"/>
<path d="m1017.1 796.53c-28.214 0.44391-56.478 0.43915-84.742 0.50879-2.1161 0.005249-4.2309 0.54303-6.9172 0.55926-4.2214-8.0345-7.8719-15.795-11.13-23.72 2.3472-0.401 4.3013-0.84088 6.256-0.84375 30.434-0.044739 60.869-0.032898 91.303-0.034119 1.7265 7.6999 3.453 15.4 5.2294 23.53z" fill="#00BAEB"/>
<path d="m1011.9 772.61c-30.492 0.39166-60.927 0.37982-91.361 0.42456-1.9547 0.002869-3.9088 0.44275-6.5651 0.70258-6.9055-6.63-13.109-13.283-18.785-20.117 2.8405-0.32666 5.153-0.59705 7.4658-0.59912 31.05-0.028198 62.101 0.007385 93.151-0.06427 2.7742-0.006409 5.5469-0.64832 8.3203-0.99512 2.6104 6.7527 5.2208 13.506 7.7736 20.649z" fill="#00A6EE"/>
<path d="m913.87 659.56c-1.5929 1.0247-3.3522 2.3434-5.1146 2.3476-47.228 0.11224-94.456 0.1026-141.68 0.034363-1.6449-0.00238-3.2886-0.81708-5.0245-1.6583 12.2-4.6981 24.284-9.7774 36.837-13.08 14.81-3.8965 30.165-4.84 45.51-4.184 21.111 0.90265 41.646 4.6761 61.225 12.916 2.6833 1.1292 5.3889 2.2053 8.252 3.6244z" fill="#0042FD"/>
<path d="m666.56 766.15c31.691-0.17822 63.059-0.18012 94.427-0.12421 2.1166 0.003785 4.2325 0.44318 6.5982 1.1598-3.7496 6.9208-7.7487 13.362-12.206 19.805-31.708 0.001526-62.958 0.001099-94.207 6.71e-4 1.6882-6.8837 3.3763-13.767 5.3879-20.841z" fill="#00B1EC"/>
<path d="m1004.1 751.58c-2.72 0.72589-5.4927 1.3678-8.2668 1.3742-31.05 0.071655-62.101 0.036072-93.151 0.06427-2.3127 0.002075-4.6252 0.27246-7.7383 0.47815-1.7866-0.78766-2.6544-1.8629-3.7776-2.447-9.0285-4.6957-18.105-9.2988-27.167-13.93 1.8676-0.37335 3.7346-1.0695 5.6027-1.0724 39.54-0.062805 79.081-0.033081 118.62-0.085022 2.2798-0.003051 4.559-0.54706 7.2417-0.9024 3.1296 5.3384 5.8559 10.74 8.6355 16.52z" fill="#0091F1"/>
<path d="m660.98 787.36c31.439-0.36273 62.689-0.3623 94.354-0.004029-1.5565 5.4528-3.5279 10.548-5.4993 15.643-30.25 8.54e-4 -60.5 0.001709-91.207 0.002136 0.41608-5.0929 1.2896-10.185 2.3527-15.641z" fill="#00C5E9"/>
<path d="m658.93 1130.6c-3.216-2.5918-6.6025-5.4252-9.475-8.7085-4.0048-4.5778-7.6252-9.4918-11.45-14.618 6.0311-4.3127 12.103-8.2693 18.526-12.25 1.054 11.695 1.7562 23.415 2.3995 35.577z" fill="#00A6EE"/>
<path d="m749.9 803.41c1.9024-5.5092 3.8738-10.604 5.8884-16.059 4.0424-6.8007 8.0415-13.242 12.184-19.998 9.445-11.891 21.32-20.056 35.004-26.436 14.301-6.2014 28.97-7.8046 43.933-6.819 5.4493 0.35889 10.82 1.906 16.64 2.9654 9.4752 4.6858 18.552 9.2889 27.58 13.985 1.1232 0.58411 1.991 1.6593 3.2497 2.628 6.4761 6.7741 12.68 13.427 19.192 20.222 3.9596 7.9017 7.6101 15.662 11.428 23.758 1.1159 6.4312 1.8593 12.568 3.0571 18.614 2.3407 11.817-0.5448 23.061-3.348 34.337-0.4679 1.8821-1.1458 3.7121-1.7784 5.96-4.3425 7.7292-8.4992 15.148-12.988 22.36-1.8709 3.0059-4.4496 5.5711-6.8436 8.644-13.212 11.974-27.66 21.075-45.051 24.94-27.03 6.0087-51.599 0.27441-73.719-15.838-11.96-8.7114-21.368-19.875-27.972-33.617-2.6812-8.7578-5.4747-17.254-7.3106-25.953-2.338-11.077-1.4582-22.242 0.85492-33.695z" fill="#fff"/>
</svg>