<svg xmlns="http://www.w3.org/2000/svg" width="152" height="150" fill="none" xmlns:v="https://vecta.io/nano"><circle cx="75.664" cy="74.336" r="59.735" fill="#f0b90b"/><path d="M151.327 74.336c0 9.936-1.957 19.775-5.759 28.956a75.67 75.67 0 0 1-16.402 24.547c-7.026 7.026-15.367 12.599-24.547 16.401S85.6 150 75.664 150s-19.775-1.957-28.955-5.76-17.521-9.375-24.547-16.401S9.562 112.472 5.76 103.292A75.67 75.67 0 0 1 0 74.336h18.135a57.53 57.53 0 0 0 16.85 40.679c5.342 5.343 11.684 9.58 18.664 12.471a57.53 57.53 0 0 0 44.031 0 57.51 57.51 0 0 0 18.664-12.471 57.53 57.53 0 0 0 16.85-40.679h18.134z" fill="#c73238"/><path d="M135.398 74.336c0 7.845-1.545 15.612-4.547 22.859s-7.402 13.832-12.949 19.379-12.132 9.947-19.379 12.949-15.015 4.547-22.859 4.547-15.612-1.545-22.859-4.547-13.832-7.402-19.379-12.949a59.74 59.74 0 0 1-12.949-19.379c-3.002-7.247-4.547-15.015-4.547-22.859h59.735 59.734z" fill="#070b09"/><path d="M48.967 75.346l.043 15.795 13.421 7.898v9.247L41.155 95.808V70.727l7.811 4.619zm0-15.795v9.204l-7.816-4.624v-9.204l7.816-4.624 7.855 4.624-7.855 4.624zm19.069-4.624l7.816-4.624 7.855 4.624-7.855 4.624-7.816-4.624zM54.615 87.868V78.62l7.816 4.624v9.204l-7.816-4.581zm13.421 14.483l7.816 4.624 7.855-4.624v9.204l-7.855 4.624-7.816-4.624v-9.204zm26.881-47.424l7.816-4.624 7.855 4.624v9.204l-7.855 4.624v-9.204l-7.816-4.624zm7.816 36.214l.044-15.795 7.816-4.624v25.081l-21.276 12.479v-9.248l13.416-7.893zm-5.605-3.273l-7.816 4.581v-9.204l7.816-4.624v9.247zm0-25.043l.043 9.247-13.459 7.898v15.834l-7.816 4.581-7.816-4.581V79.97l-13.46-7.898v-9.247l7.85-4.624 13.378 7.936 13.459-7.936 7.854 4.624h-.033zm-42.513-15.79l21.237-12.521 21.276 12.521-7.816 4.624-13.459-7.936-13.421 7.936-7.816-4.624z" fill="#fff"/></svg>