<svg xmlns="http://www.w3.org/2000/svg" viewBox="0 0 2500 2500" xmlns:v="https://vecta.io/nano"><path d="M1250 0h0c690 0 1250 560 1250 1250h0c0 690-560 1250-1250 1250h0C560 2500 0 1940 0 1250h0C0 560 560 0 1250 0z" fill="#fff"/><g fill="#216c58"><circle cx="1250" cy="1250" r="1167" stroke="#216c58" stroke-width="42"/><path d="M2333,1250c0,598-485,1083-1083,1083S167,1848,167,1250S652,167,1250,167S2333,652,2333,1250z"/><path d="M1104 1771h125v125h-125zm208 0h125v125h-125z"/></g><g fill="#fff"><path d="M896 479h792c23 0 42 19 42 42v21c0 23-19 42-42 42H896c-23 0-42-19-42-42v-21c0-23 19-42 42-42zm354 146v1417c0 23-19 42-42 42h-21c-23 0-42-19-42-42V625h104 1zm167 0v1417c0 23-19 42-42 42h-21c-23 0-42-19-42-42V625h104 1z"/><path d="M1161 978h0 0c29-11 66-16 110-16 66 0 115 13 151 36 25 17 42 38 51 63s32 50 65 50h192c34 0 65-29 60-66-8-58-30-110-65-156-44-58-106-102-183-133-77-32-167-47-269-47-100 0-190 16-270 47s-143 76-190 133h0 0c-47 58-70 126-70 203 0 94 35 171 106 227 69 55 162 94 277 119h0l146 33h0 0c48 10 89 22 121 34h0c32 12 55 26 70 42h0 0c14 14 21 31 21 53 0 24-8 44-24 63-17 19-41 35-75 46h0c-33 11-72 18-118 18-47 0-89-6-125-19s-63-31-84-54c-13-15-22-33-28-54-7-28-32-53-65-53H772c-35 0-65 29-60 66 8 71 32 132 71 184h0c48 62 114 107 197 138h0c83 31 180 46 291 46s207-15 287-45h0c81-31 144-74 187-131 45-58 67-126 67-203h0 0c0-53-11-100-33-142-21-41-51-77-89-107s-82-55-132-75-105-36-165-48l-121-26h0 0c-29-6-55-13-80-20-25-8-46-18-64-28-17-10-31-22-40-35-8-12-12-26-11-43h0 0c0-21 7-39 20-56 14-17 35-31 64-41v-3z" stroke="#216c58" stroke-width="42" stroke-miterlimit="22.9256"/><path d="M1146 896h104v146h-104zm0 521h104v146h-104zm0 437h104v146h-104zm167-958h104v146h-104zm0 521h104v146h-104zm0 437h104v146h-104z"/><path d="M2298 1313c-17 0-30 13-32 29-46 521-484 929-1017 929s-970-408-1017-929c-1-17-15-29-32-29-18 0-32 15-31 33 48 554 513 988 1079 988s1031-434 1079-988c2-18-13-33-31-33h2zM201 1188c17 0 30-13 32-29 46-521 484-929 1017-929s970 408 1017 929c1 17 15 29 32 29 18 0 32-15 31-33-48-554-513-988-1079-988S220 601 172 1155c-2 18 13 33 31 33h-2z" fill-rule="evenodd"/></g></svg>