<svg xmlns="http://www.w3.org/2000/svg" viewBox="0 0 67.733 67.733" height="255.999" width="255.999" xmlns:v="https://vecta.io/nano"><circle r="33.867" cy="33.867" cx="33.867" opacity=".98" fill="#0a142e" fill-rule="evenodd"/><path d="M47.429 14.999h0a.78.78 0 0 0-.389.105l-.001-.001-3.034 1.721c-.741.409-.795.902-.79 1.068-.004.166.049.659.79 1.068l3.034 1.721.001-.001a.78.78 0 0 0 1.169-.674.78.78 0 0 0-.39-.674l.001-.001-2.624-1.439 2.624-1.439-.001-.001a.78.78 0 0 0-.389-1.454zm-17.842.417a2.68 2.68 0 0 0-2.679 2.679 2.68 2.68 0 0 0 2.679 2.679 2.68 2.68 0 0 0 2.679-2.679 2.68 2.68 0 0 0-2.679-2.679zm27.531 8.931a2.15 2.15 0 0 0-1.722.868l-.004-.003-4.256 5.984.008.003a2.15 2.15 0 0 0-.426 1.268 2.15 2.15 0 0 0 .426 1.267l-.008.003 4.256 5.984.004-.003a2.15 2.15 0 0 0 3.241.239 2.15 2.15 0 0 0 .235-2.754l.003-.002-3.369-4.734 3.369-4.734-.003-.002a2.15 2.15 0 0 0-1.754-3.383zM26.791 43.841c-.596 0-1.079.506-1.079 1.131 0 .431.234.825.603 1.015 6.249 3.919 11.741 3.564 11.741 3.564s5.492.356 11.741-3.564c.369-.19.603-.584.603-1.015 0-.625-.483-1.131-1.079-1.131-.227.001-.449.076-.633.217l-.094.063s-4.686 3.295-10.538 3.194c-5.852.101-10.538-3.194-10.538-3.194l-.094-.063a1.05 1.05 0 0 0-.633-.217z" fill="#fff"/><path d="M41.448 24.254l-.596.03-.323.039-.371.056-.297.067-.384.098-.269.09-.389.142-.246.11-.386.187-.22.126-.38.233-.191.137-.369.281-.163.143-.353.329-.138.148-.326.371-.117.155-.293.41-.094.154-.256.447-.075.156-.214.478-.056.154-.167.504-.04.157-.116.52-.024.157-.065.534-.02.342h-.002v.045l-.005.145.002.057h.001.002v7.261h.001c.013 1.146.946 2.067 2.091 2.068s2.077-.922 2.091-2.068h.001v-.024-7.47c.079-1.232.965-2.262 2.171-2.524l.021-.005.208-.033.068-.01.169-.01.118-.006.135.007.151.009.08.012.197.031.026.007.243.064c1.087.345 1.851 1.321 1.923 2.459v7.47.024h.001c.013 1.145.945 2.067 2.091 2.068a2.09 2.09 0 0 0 2.091-2.068h.001v-7.261h.002.001l.002-.057-.005-.145v-.045h-.002l-.02-.342-.065-.539-.022-.149-.117-.525-.039-.154-.167-.504-.056-.154-.215-.481-.073-.152-.257-.449-.094-.153-.293-.41-.117-.155-.326-.371-.138-.148-.353-.329-.163-.143-.37-.282-.19-.136-.382-.234-.218-.125-.388-.187-.245-.11-.389-.142-.269-.09-.384-.098-.297-.067-.371-.056-.323-.039-.596-.03zm-33.006.139c-1.155 0-2.092.937-2.092 2.092a2.09 2.09 0 0 0 .053.461l-.005.001 2.967 12.095.006-.001a2.09 2.09 0 0 0 4.008.085l.003.013 2.211-6.312 2.212 6.312.003-.013a2.09 2.09 0 0 0 4.008-.085l.006.001 2.967-12.095-.005-.001a2.09 2.09 0 0 0 .053-.461c0-1.155-.937-2.092-2.092-2.092a2.09 2.09 0 0 0-2.063 1.761l-.005-.001-1.229 4.995-1.88-5.369-.007.003-.069-.166-.016-.037-.079-.148-.021-.036-.092-.137-.026-.036-.102-.123-.034-.039-.111-.11-.039-.036-.119-.096-.046-.035-.122-.079-.056-.034-.124-.064-.064-.031-.123-.049-.074-.027-.122-.035-.08-.02-.121-.022-.087-.013-.114-.009-.126-.006-.13.007-.109.008-.094.014-.114.021-.084.021-.12.034-.074.027-.123.049-.064.031-.124.064-.058.035-.119.078-.049.037-.118.095-.039.036-.111.109-.035.04-.101.122-.027.038-.091.136-.021.037-.079.146-.017.038-.065.156-.011.007-1.88 5.369-1.229-4.995-.005.001a2.09 2.09 0 0 0-2.063-1.761zm21.231 0c-1.141.001-2.071.916-2.09 2.057h-.002v.035 12.008.144h.005a2.09 2.09 0 0 0 4.172 0h.007v-.144-12.008-.035h-.001a2.09 2.09 0 0 0-2.091-2.057z" fill="#fbc509"/></svg>