<?xml version="1.0" encoding="UTF-8" standalone="no"?>
<svg
   xmlns:dc="http://purl.org/dc/elements/1.1/"
   xmlns:cc="http://creativecommons.org/ns#"
   xmlns:rdf="http://www.w3.org/1999/02/22-rdf-syntax-ns#"
   xmlns:svg="http://www.w3.org/2000/svg"
   xmlns="http://www.w3.org/2000/svg"
   xmlns:sodipodi="http://sodipodi.sourceforge.net/DTD/sodipodi-0.dtd"
   xmlns:inkscape="http://www.inkscape.org/namespaces/inkscape"
   sodipodi:docname="WINk-Coin-Icon-256x256.svg"
   inkscape:version="1.0 (4035a4f, 2020-05-01)"
   id="svg8"
   version="1.1"
   viewBox="0 0 67.733329 67.733331"
   height="67.73333mm"
   width="67.73333mm">
  <defs
     id="defs2" />
  <sodipodi:namedview
     inkscape:document-rotation="0"
     inkscape:window-maximized="1"
     inkscape:window-y="-8"
     inkscape:window-x="-8"
     inkscape:window-height="1377"
     inkscape:window-width="2560"
     showgrid="false"
     inkscape:current-layer="layer1"
     inkscape:document-units="mm"
     inkscape:cy="254.24865"
     inkscape:cx="172.49193"
     inkscape:zoom="0.90636095"
     inkscape:pageshadow="2"
     inkscape:pageopacity="0.0"
     borderopacity="1.0"
     bordercolor="#666666"
     pagecolor="#ffffff"
     id="base" />
  <metadata
     id="metadata5">
    <rdf:RDF>
      <cc:Work
         rdf:about="">
        <dc:format>image/svg+xml</dc:format>
        <dc:type
           rdf:resource="http://purl.org/dc/dcmitype/StillImage" />
        <dc:title />
      </cc:Work>
    </rdf:RDF>
  </metadata>
  <g
     transform="translate(7.2988491,-137.28208)"
     id="layer1"
     inkscape:groupmode="layer"
     inkscape:label="Layer 1">
    <circle
       r="33.866665"
       cy="171.14874"
       cx="26.567816"
       id="path841"
       style="opacity:0.98;fill:#0a142e;fill-opacity:1;fill-rule:evenodd;stroke-width:0.851632" />
    <g
       transform="matrix(0.23088534,0,0,0.23088534,-0.94885093,118.26798)"
       id="g860">
      <g
         id="g1258"
         transform="translate(-111.85611,-48.22771)">
        <path
           id="path828"
           transform="scale(0.26458333)"
           d="m 1095.2207,739.07031 v 0.002 a 12.754945,12.754945 0 0 0 -6.375,1.72265 l -0.01,-0.01 c 0,0 -34.8594,19.99462 -49.6582,28.16796 -12.1295,6.69922 -13.0101,14.76205 -12.9394,17.48633 -0.071,2.72425 0.8099,10.78716 12.9394,17.48633 14.7988,8.17334 49.6582,28.16797 49.6582,28.16797 l 0.01,-0.0117 a 12.754945,12.754945 0 0 0 6.375,1.72266 12.754945,12.754945 0 0 0 12.7539,-12.75586 12.754945,12.754945 0 0 0 -6.3887,-11.03906 l 0.01,-0.0195 -42.9512,-23.55273 42.9531,-23.55273 -0.01,-0.0195 a 12.754945,12.754945 0 0 0 6.3887,-11.03906 12.754945,12.754945 0 0 0 -12.7539,-12.75586 z m -292.06836,6.82813 a 43.856045,43.856045 0 0 0 -43.85742,43.85547 43.856045,43.856045 0 0 0 43.85742,43.85742 43.856045,43.856045 0 0 0 43.85547,-43.85742 43.856045,43.856045 0 0 0 -43.85547,-43.85547 z M 1253.832,892.09375 a 35.160853,35.160853 0 0 0 -28.1836,14.20703 l -0.061,-0.0449 -69.6641,97.95112 0.127,0.041 a 35.160853,35.160853 0 0 0 -6.9746,20.75 35.160853,35.160853 0 0 0 6.9746,20.7481 l -0.127,0.043 69.6641,97.9492 0.061,-0.043 a 35.160853,35.160853 0 0 0 28.1836,14.2051 35.160853,35.160853 0 0 0 35.1621,-35.1602 35.160853,35.160853 0 0 0 -6.4511,-20.2265 l 0.041,-0.029 -55.1524,-77.4864 55.1524,-77.48626 -0.041,-0.0312 a 35.160853,35.160853 0 0 0 6.4511,-20.22461 35.160853,35.160853 0 0 0 -35.1621,-35.16211 z M 757.38281,1211.1934 c -9.7519,-4e-4 -17.65748,8.291 -17.6582,18.5195 0.004,7.0595 3.83515,13.5024 9.87695,16.6133 102.29016,64.1576 192.19532,58.334 192.19532,58.334 0,0 89.90322,5.8237 192.19332,-58.334 6.0419,-3.1109 9.8725,-9.5538 9.877,-16.6133 -7e-4,-10.2285 -7.9064,-18.5199 -17.6582,-18.5195 -3.724,0.01 -7.351,1.2495 -10.3613,3.5488 -2e-4,-10e-5 -1.5411,1.0234 -1.5411,1.0234 0,0 -76.7105,53.9393 -172.50972,52.2891 -95.79927,1.6502 -172.51172,-52.2891 -172.51172,-52.2891 0,0 -1.54083,-1.0235 -1.54102,-1.0234 -3.01039,-2.2993 -6.63736,-3.5413 -10.36133,-3.5488 z"
           style="fill:#ffffff;fill-opacity:1;stroke:none;stroke-width:1.0913"
           inkscape:connector-curvature="0" />
        <path
           inkscape:connector-curvature="0"
           id="path828-4"
           d="m 263.86957,235.63046 a 30.080249,30.080249 0 0 0 -2.58279,0.13074 30.080249,30.080249 0 0 0 -1.39733,0.1695 30.080249,30.080249 0 0 0 -1.60559,0.24391 30.080249,30.080249 0 0 0 -1.28467,0.28836 30.080249,30.080249 0 0 0 -1.66295,0.42529 30.080249,30.080249 0 0 0 -1.16686,0.38809 30.080249,30.080249 0 0 0 -1.6862,0.6165 30.080249,30.080249 0 0 0 -1.06505,0.47646 30.080249,30.080249 0 0 0 -1.67173,0.80874 30.080249,30.080249 0 0 0 -0.95395,0.54725 30.080249,30.080249 0 0 0 -1.64383,1.00924 30.080249,30.080249 0 0 0 -0.8294,0.59324 30.080249,30.080249 0 0 0 -1.59887,1.21698 30.080249,30.080249 0 0 0 -0.70642,0.62064 30.080249,30.080249 0 0 0 -1.52704,1.4242 30.080249,30.080249 0 0 0 -0.59583,0.63924 30.080249,30.080249 0 0 0 -1.4118,1.60869 30.080249,30.080249 0 0 0 -0.50849,0.66921 30.080249,30.080249 0 0 0 -1.26866,1.77663 30.080249,30.080249 0 0 0 -0.40876,0.66715 30.080249,30.080249 0 0 0 -1.11001,1.93683 30.080249,30.080249 0 0 0 -0.32659,0.67644 30.080249,30.080249 0 0 0 -0.92501,2.07068 30.080249,30.080249 0 0 0 -0.2434,0.66611 30.080249,30.080249 0 0 0 -0.72399,2.18332 30.080249,30.080249 0 0 0 -0.17311,0.678 30.080249,30.080249 0 0 0 -0.50436,2.25309 30.080249,30.080249 0 0 0 -0.10232,0.678 30.080249,30.080249 0 0 0 -0.27957,2.31303 30.080249,30.080249 0 0 0 -0.0863,1.48208 h -0.007 v 0.19586 a 30.080249,30.080249 0 0 0 -0.0222,0.62683 30.080249,30.080249 0 0 0 0.009,0.24547 h 0.003 0.01 v 31.44976 h 0.004 a 9.0609617,9.0609617 0 0 0 9.05732,8.955 9.0609617,9.0609617 0 0 0 9.05578,-8.955 h 0.005 v -0.10594 -32.35255 a 11.973483,11.973483 0 0 1 9.40511,-10.93318 11.973484,11.973484 0 0 1 0.0894,-0.0227 11.973483,11.973483 0 0 1 0.90175,-0.14263 11.973484,11.973484 0 0 1 0.29456,-0.0444 11.973483,11.973483 0 0 1 0.73174,-0.0419 11.973484,11.973484 0 0 1 0.51263,-0.0258 11.973483,11.973483 0 0 1 10e-4,0 11.973483,11.973483 0 0 1 0.5855,0.0294 11.973484,11.973484 0 0 1 0.6537,0.0372 11.973483,11.973483 0 0 1 0.34675,0.0527 11.973484,11.973484 0 0 1 0.8537,0.13539 11.973483,11.973483 0 0 1 0.1142,0.0289 11.973484,11.973484 0 0 1 1.0511,0.27595 11.973484,11.973484 0 0 1 8.33024,10.65103 v 32.35255 0.10594 h 0.005 a 9.0609617,9.0609617 0 0 0 9.05578,8.955 9.0609617,9.0609617 0 0 0 9.05733,-8.955 h 0.004 v -31.44976 h 0.01 0.004 a 30.080249,30.080249 0 0 0 0.009,-0.24547 30.080249,30.080249 0 0 0 -0.0222,-0.62683 v -0.19586 h -0.007 a 30.080249,30.080249 0 0 0 -0.0863,-1.48156 30.080249,30.080249 0 0 0 -0.28267,-2.33577 30.080249,30.080249 0 0 0 -0.0971,-0.64441 30.080249,30.080249 0 0 0 -0.5085,-2.27273 30.080249,30.080249 0 0 0 -0.17053,-0.66869 30.080249,30.080249 0 0 0 -0.7245,-2.18436 30.080249,30.080249 0 0 0 -0.24288,-0.6656 30.080249,30.080249 0 0 0 -0.93121,-2.08307 30.080249,30.080249 0 0 0 -0.31833,-0.6594 30.080249,30.080249 0 0 0 -1.11362,-1.94458 30.080249,30.080249 0 0 0 -0.40773,-0.66456 30.080249,30.080249 0 0 0 -1.26866,-1.77663 30.080249,30.080249 0 0 0 -0.50849,-0.66921 30.080249,30.080249 0 0 0 -1.4118,-1.60869 30.080249,30.080249 0 0 0 -0.59583,-0.63924 30.080249,30.080249 0 0 0 -1.52704,-1.4242 30.080249,30.080249 0 0 0 -0.70642,-0.62064 30.080249,30.080249 0 0 0 -1.603,-1.22008 30.080249,30.080249 0 0 0 -0.82269,-0.58807 30.080249,30.080249 0 0 0 -1.65365,-1.01544 30.080249,30.080249 0 0 0 -0.94361,-0.54157 30.080249,30.080249 0 0 0 -1.67845,-0.81184 30.080249,30.080249 0 0 0 -1.06091,-0.47491 30.080249,30.080249 0 0 0 -1.68672,-0.6165 30.080249,30.080249 0 0 0 -1.16686,-0.38809 30.080249,30.080249 0 0 0 -1.66294,-0.42529 30.080249,30.080249 0 0 0 -1.28468,-0.28836 30.080249,30.080249 0 0 0 -1.60559,-0.24391 30.080249,30.080249 0 0 0 -1.39733,-0.1695 30.080249,30.080249 0 0 0 -2.58279,-0.13074 30.080249,30.080249 0 0 0 -5.1e-4,0 z m -142.95252,0.60048 a 9.0609617,9.0609617 0 0 0 -9.06094,9.06094 9.0609617,9.0609617 0 0 0 0.23048,1.99678 l -0.0196,0.004 12.85089,52.38543 0.0243,-0.006 a 9.0609617,9.0609617 0 0 0 8.73384,6.68899 9.0609617,9.0609617 0 0 0 8.62634,-6.32209 l 0.0114,0.0558 9.57823,-27.33632 9.57874,27.33632 0.0114,-0.0558 a 9.0609617,9.0609617 0 0 0 8.62635,6.32209 9.0609617,9.0609617 0 0 0 8.73383,-6.68899 l 0.0243,0.006 12.85089,-52.38543 -0.0196,-0.004 a 9.0609617,9.0609617 0 0 0 0.23047,-1.99678 9.0609617,9.0609617 0 0 0 -9.06094,-9.06094 9.0609617,9.0609617 0 0 0 -8.93538,7.62641 l -0.0207,-0.004 -5.32268,21.63589 -8.1411,-23.25594 -0.0305,0.0109 a 9.0609617,9.0609617 0 0 0 -0.0165,-0.0403 9.0609617,9.0609617 0 0 0 -0.28215,-0.68006 9.0609617,9.0609617 0 0 0 -0.0708,-0.15917 9.0609617,9.0609617 0 0 0 -0.34416,-0.63975 9.0609617,9.0609617 0 0 0 -0.0899,-0.1571 9.0609617,9.0609617 0 0 0 -0.39998,-0.59272 9.0609617,9.0609617 0 0 0 -0.11213,-0.1571 9.0609617,9.0609617 0 0 0 -0.44236,-0.5333 9.0609617,9.0609617 0 0 0 -0.14675,-0.16691 9.0609617,9.0609617 0 0 0 -0.48215,-0.47439 9.0609617,9.0609617 0 0 0 -0.16743,-0.15555 9.0609617,9.0609617 0 0 0 -0.51521,-0.41496 9.0609617,9.0609617 0 0 0 -0.20102,-0.15297 9.0609617,9.0609617 0 0 0 -0.52762,-0.34416 9.0609617,9.0609617 0 0 0 -0.24236,-0.14831 9.0609617,9.0609617 0 0 0 -0.53744,-0.27802 9.0609617,9.0609617 0 0 0 -0.27543,-0.13333 9.0609617,9.0609617 0 0 0 -0.53227,-0.21135 9.0609617,9.0609617 0 0 0 -0.32246,-0.11782 9.0609617,9.0609617 0 0 0 -0.52917,-0.15038 9.0609617,9.0609617 0 0 0 -0.34623,-0.0884 9.0609617,9.0609617 0 0 0 -0.52245,-0.0941 9.0609617,9.0609617 0 0 0 -0.37879,-0.0574 9.0609617,9.0609617 0 0 0 -0.49299,-0.0382 9.0609617,9.0609617 0 0 0 -0.54519,-0.0274 9.0609617,9.0609617 0 0 0 -0.004,0 9.0609617,9.0609617 0 0 0 -0.55708,0.0284 9.0609617,9.0609617 0 0 0 -0.47283,0.0367 9.0609617,9.0609617 0 0 0 -0.40773,0.0615 9.0609617,9.0609617 0 0 0 -0.49454,0.0889 9.0609617,9.0609617 0 0 0 -0.36329,0.0925 9.0609617,9.0609617 0 0 0 -0.51935,0.1478 9.0609617,9.0609617 0 0 0 -0.32246,0.11782 9.0609617,9.0609617 0 0 0 -0.53227,0.21135 9.0609617,9.0609617 0 0 0 -0.27543,0.13333 9.0609617,9.0609617 0 0 0 -0.5364,0.2775 9.0609617,9.0609617 0 0 0 -0.25012,0.15348 9.0609617,9.0609617 0 0 0 -0.51728,0.33693 9.0609617,9.0609617 0 0 0 -0.21084,0.1602 9.0609617,9.0609617 0 0 0 -0.50901,0.41031 9.0609617,9.0609617 0 0 0 -0.16743,0.15555 9.0609617,9.0609617 0 0 0 -0.48111,0.47387 9.0609617,9.0609617 0 0 0 -0.1509,0.17156 9.0609617,9.0609617 0 0 0 -0.43718,0.52658 9.0609617,9.0609617 0 0 0 -0.11782,0.16485 9.0609617,9.0609617 0 0 0 -0.39584,0.58705 9.0609617,9.0609617 0 0 0 -0.0925,0.16123 9.0609617,9.0609617 0 0 0 -0.34055,0.63407 9.0609617,9.0609617 0 0 0 -0.0744,0.16536 9.0609617,9.0609617 0 0 0 -0.27957,0.67541 9.0609617,9.0609617 0 0 0 -0.0171,0.0408 l -0.0305,-0.0109 -8.1411,23.25594 -5.32267,-21.63589 -0.0207,0.004 a 9.0609617,9.0609617 0 0 0 -8.93538,-7.62641 z m 91.95305,5.1e-4 a 9.0609617,9.0609617 0 0 0 -9.0532,8.90954 h -0.008 v 0.15141 52.00768 0.62373 h 0.0222 a 9.0609617,9.0609617 0 0 0 9.03873,8.43721 9.0609617,9.0609617 0 0 0 9.02942,-8.43721 h 0.0315 v -0.62373 -52.00768 -0.15141 h -0.005 a 9.0609617,9.0609617 0 0 0 -9.05577,-8.90954 z"
           style="fill:#fbc509;fill-opacity:1;stroke:none;stroke-width:0.225471" />
      </g>
    </g>
  </g>
</svg>
