<svg xmlns="http://www.w3.org/2000/svg" width="24" height="24" fill="none" xmlns:v="https://vecta.io/nano"><g clip-path="url(#B)"><circle cx="12" cy="12" r="12" fill="#1f2028"/><path d="M18.957 9.442l-5.27 9.128c-.159.275-.388.504-.664.663s-.588.243-.906.243-.631-.084-.906-.243-.505-.387-.664-.663l-.924-1.599c-.003-.019 0-.023.004-.026.019-.003.023 0 .026.004a1.52 1.52 0 0 0 1.267.425 1.52 1.52 0 0 0 .642-.241c.193-.128.354-.299.47-.499l4.412-7.649a1.52 1.52 0 0 0 .086-1.341 1.52 1.52 0 0 0-1.012-.884c-.017-.009-.019-.014-.019-.019.009-.017.014-.019.019-.019h1.87c.318 0 .631.084.906.244s.504.388.663.664.243.588.242.907-.084.631-.243.907zm-6.239-2.721h-1.827c-.012.01-.013.014-.013.018.006.014.009.017.013.018.123.048.234.121.326.216s.163.208.207.332.061.257.049.388-.051.259-.117.373l-2.663 4.606a.92.92 0 0 1-.648.441.92.92 0 0 1-.752-.22c-.017-.008-.022-.007-.026-.004-.008.017-.007.022-.004.026l.935 1.623c.105.182.256.333.438.439s.389.161.599.161.417-.055.599-.161.333-.257.438-.439l3.484-6.022c.105-.182.16-.389.16-.599s-.055-.417-.161-.599-.257-.333-.439-.438-.389-.16-.599-.16zm-6.342 0c-.312 0-.617.092-.876.266s-.461.419-.581.708-.151.605-.09.911.211.587.431.807.501.371.807.431.623.03.911-.09.534-.321.708-.581.266-.564.266-.876c0-.207-.04-.412-.12-.604s-.195-.365-.342-.512-.32-.263-.512-.342-.396-.12-.604-.12z" fill="url(#A)"/></g><defs><linearGradient id="A" x1="19.016" y1="16.814" x2="2.55" y2="5.633" gradientUnits="userSpaceOnUse"><stop stop-color="#5433ff"/><stop offset=".5" stop-color="#20bdff"/><stop offset="1" stop-color="#5cffa2"/></linearGradient><clipPath id="B"><path fill="#fff" d="M0 0h24v24H0z"/></clipPath></defs></svg>