<svg width="16" height="16" viewBox="0 0 16 16" fill="none" xmlns="http://www.w3.org/2000/svg">
<g clip-path="url(#clip0_707_6474)">
<circle cx="8" cy="8" r="8" fill="url(#paint0_linear_707_6474)"/>
<path d="M13.7978 5.68558L9.40597 13.2926C9.27317 13.522 9.08239 13.7125 8.85275 13.8449C8.62311 13.9773 8.36269 14.047 8.09761 14.047C7.83253 14.047 7.57211 13.9773 7.34248 13.8449C7.11284 13.7125 6.92205 13.522 6.78926 13.2926L6.01936 11.9601C6.01688 11.9568 6.01581 11.9526 6.0164 11.9485C6.01698 11.9444 6.01917 11.9407 6.02248 11.9383C6.02578 11.9358 6.02994 11.9347 6.03403 11.9353C6.03812 11.9359 6.04181 11.9381 6.04429 11.9414C6.18163 12.077 6.34816 12.1793 6.53114 12.2407C6.71412 12.302 6.90871 12.3207 7.10001 12.2952C7.29131 12.2698 7.47427 12.201 7.63489 12.094C7.79551 11.987 7.92953 11.8447 8.0267 11.678L11.7032 5.30375C11.8001 5.13546 11.857 4.94712 11.8695 4.75331C11.8819 4.5595 11.8496 4.36543 11.775 4.18612C11.7004 4.0068 11.5856 3.84706 11.4393 3.71927C11.2931 3.59147 11.1194 3.49904 10.9317 3.44914C10.9276 3.44914 10.9236 3.4475 10.9207 3.44457C10.9178 3.44165 10.9161 3.43769 10.9161 3.43355C10.9161 3.42942 10.9178 3.42546 10.9207 3.42253C10.9236 3.41961 10.9276 3.41797 10.9317 3.41797H12.4902C12.7555 3.41826 13.0159 3.48832 13.2455 3.62111C13.4751 3.75391 13.6657 3.94478 13.7982 4.17454C13.9307 4.40431 14.0004 4.66489 14.0003 4.93012C14.0003 5.19534 13.9304 5.45589 13.7978 5.68558ZM8.59867 3.41797H7.07602C7.0729 3.41899 7.07019 3.42098 7.06826 3.42364C7.06634 3.42629 7.0653 3.42949 7.0653 3.43278C7.0653 3.43606 7.06634 3.43926 7.06826 3.44191C7.07019 3.44457 7.0729 3.44656 7.07602 3.44758C7.17857 3.48719 7.27137 3.54848 7.34805 3.62726C7.42474 3.70603 7.48352 3.80043 7.52036 3.90402C7.55721 4.0076 7.57125 4.11791 7.56154 4.22742C7.55183 4.33693 7.51858 4.44305 7.46408 4.53853L5.24479 8.3771C5.18745 8.47444 5.10927 8.55787 5.01586 8.62141C4.92245 8.68496 4.81614 8.72703 4.70454 8.74461C4.59295 8.76219 4.47885 8.75484 4.37043 8.7231C4.26201 8.69135 4.16196 8.636 4.07747 8.561C4.07499 8.5577 4.0713 8.55551 4.06721 8.55493C4.06312 8.55434 4.05896 8.55541 4.05566 8.55789C4.05235 8.56037 4.05016 8.56406 4.04958 8.56815C4.04899 8.57224 4.05006 8.5764 4.05254 8.5797L4.83179 9.93248C4.91928 10.0843 5.04522 10.2104 5.19692 10.298C5.34863 10.3857 5.52076 10.4319 5.69597 10.4319C5.87119 10.4319 6.04331 10.3857 6.19502 10.298C6.34673 10.2104 6.47266 10.0843 6.56016 9.93248L9.46363 4.91412C9.55123 4.76241 9.59731 4.5903 9.59726 4.41512C9.59721 4.23993 9.55102 4.06785 9.46334 3.91619C9.37566 3.76452 9.24958 3.63863 9.09779 3.55117C8.946 3.46371 8.77385 3.41777 8.59867 3.41797ZM3.31381 3.41797C3.05396 3.41797 2.79995 3.49502 2.5839 3.63939C2.36784 3.78375 2.19945 3.98894 2.10001 4.22901C2.00057 4.46907 1.97455 4.73324 2.02525 4.98809C2.07594 5.24295 2.20107 5.47705 2.38481 5.66079C2.56855 5.84453 2.80265 5.96965 3.0575 6.02035C3.31235 6.07104 3.57652 6.04502 3.81659 5.94558C4.05665 5.84614 4.26184 5.67775 4.40621 5.46169C4.55057 5.24564 4.62762 4.99163 4.62762 4.73178C4.62783 4.55919 4.59399 4.38826 4.52803 4.22876C4.46208 4.06927 4.36531 3.92436 4.24327 3.80232C4.12123 3.68028 3.97632 3.58351 3.81683 3.51756C3.65734 3.45161 3.4864 3.41776 3.31381 3.41797Z" fill="#2A2C34"/>
</g>
<defs>
<linearGradient id="paint0_linear_707_6474" x1="-3.49988" y1="25.5" x2="26.9873" y2="-6.10033" gradientUnits="userSpaceOnUse">
<stop stop-color="#674031"/>
<stop offset="0.3125" stop-color="#FFECE3"/>
<stop offset="0.625" stop-color="#6D4637"/>
<stop offset="1" stop-color="#FFECE3"/>
</linearGradient>
<clipPath id="clip0_707_6474">
<rect width="16" height="16" fill="white"/>
</clipPath>
</defs>
</svg>
