<svg xmlns="http://www.w3.org/2000/svg" width="20" height="20" viewBox="0 0 20 20" fill="none">
  <g clip-path="url(#clip0_2760_18914)">
    <path d="M20 10.0002C20 10.2352 19.9928 10.4702 19.9754 10.7007C19.9748 10.72 19.9729 10.7386 19.9716 10.7573C19.9518 11.0219 19.9214 11.2839 19.8815 11.5428C19.837 11.8319 19.7797 12.1164 19.7103 12.3966C18.9999 15.2843 17.0349 17.6801 14.4259 18.9692C14.1735 19.0941 13.9141 19.2094 13.6494 19.313C13.5786 19.3408 13.5078 19.3678 13.4362 19.3936C13.3564 19.4226 13.276 19.4509 13.1948 19.4785C13.0731 19.5199 12.9502 19.5584 12.8258 19.5951C12.746 19.6189 12.6656 19.6408 12.5844 19.6626C12.5805 19.6633 12.5774 19.6646 12.5735 19.6652C12.5516 19.671 12.5297 19.6768 12.5084 19.6827C12.4093 19.7084 12.3102 19.7322 12.2103 19.7554C12.2007 19.7573 12.1917 19.7598 12.182 19.7618C11.4802 19.9176 10.7494 20 10 20C9.94909 20 9.89885 19.9994 9.84798 19.9987C4.3951 19.9176 0 15.4723 0 10C0 4.52771 4.47689 0 10 0C14.5644 0 18.414 3.05777 19.613 7.23651C19.6935 7.51727 19.7623 7.80383 19.8184 8.09413C19.8847 8.43928 19.9335 8.79142 19.9632 9.14881C19.9709 9.23761 19.9773 9.32648 19.9825 9.41598C19.9844 9.43657 19.9851 9.45716 19.9863 9.47783C19.9889 9.53124 19.9914 9.58403 19.9934 9.63816C19.9979 9.75787 19.9999 9.87894 19.9999 10L20 10.0002Z" fill="#30354A"/>
    <g filter="url(#filter0_di_2760_18914)">
      <path d="M14.5468 8.1792C14.9401 8.1792 14.9963 7.99754 14.6718 7.77543L10.6503 4.57903C10.3257 4.35702 9.79352 4.35538 9.4676 4.57547L5.38226 7.779C5.05634 7.99918 5.1114 8.1793 5.50474 8.1793H14.5468V8.1792Z" fill="white"/>
      <path d="M10.5776 13.196C10.7349 13.196 10.8637 13.0671 10.8637 12.9099V9.93492C10.8637 9.77758 10.7349 9.64888 10.5776 9.64888H9.65118C9.49385 9.64888 9.36523 9.77758 9.36523 9.93492V12.9099C9.36523 13.0671 9.49385 13.196 9.65118 13.196H10.5776Z" fill="white"/>
      <path d="M13.7523 13.196C13.9097 13.196 14.0384 13.0671 14.0384 12.9099V9.93492C14.0384 9.77758 13.9097 9.64888 13.7523 9.64888H12.8259C12.6685 9.64888 12.5399 9.77758 12.5399 9.93492V12.9099C12.5399 13.0671 12.6686 13.196 12.8259 13.196H13.7523Z" fill="white"/>
      <path d="M7.40304 13.196C7.56038 13.196 7.68909 13.0671 7.68909 12.9099V9.93492C7.68909 9.77758 7.56038 9.64888 7.40304 9.64888H6.47659C6.31926 9.64888 6.19055 9.77758 6.19055 9.93492V12.9099C6.19055 13.0671 6.31926 13.196 6.47659 13.196H7.40304Z" fill="white"/>
      <path d="M10.8634 13.5479C10.8634 13.5492 10.8634 13.5513 10.8634 13.5525C10.8634 13.5537 10.8636 13.554 10.8636 13.5502C10.8636 13.5463 10.8634 13.5466 10.8634 13.5479Z" fill="white"/>
      <path d="M9.36542 13.5502C9.36542 13.5539 9.36542 13.5561 9.36542 13.5547C9.36551 13.5536 9.36551 13.5492 9.36542 13.5479C9.36542 13.5466 9.36523 13.5462 9.36523 13.5502H9.36542Z" fill="white"/>
      <path d="M12.5399 13.5502C12.5399 13.5539 12.5399 13.5561 12.5401 13.5547C12.5401 13.5536 12.5403 13.5492 12.5401 13.5479C12.5399 13.5466 12.5399 13.5462 12.5399 13.5502Z" fill="white"/>
      <path d="M14.0382 13.5479C14.038 13.5492 14.038 13.5513 14.0382 13.5525C14.0382 13.5537 14.0382 13.554 14.0382 13.5502C14.0382 13.5463 14.0382 13.5466 14.0382 13.5479Z" fill="white"/>
      <path d="M6.19028 13.5502C6.19028 13.5539 6.19037 13.5561 6.19046 13.5547C6.19055 13.5536 6.19055 13.5492 6.19046 13.5479C6.19046 13.5466 6.19019 13.5462 6.19019 13.5502H6.19028Z" fill="white"/>
      <path d="M7.68898 13.5479C7.6888 13.5492 7.6888 13.5513 7.68898 13.5525C7.68898 13.5537 7.68907 13.554 7.68907 13.5502C7.68907 13.5463 7.68907 13.5466 7.68898 13.5479Z" fill="white"/>
      <path d="M5.11615 14.0769C5.11615 14.2342 5.24495 14.3629 5.40219 14.3629H14.5984C14.7557 14.3629 14.8844 14.2342 14.8844 14.0769V13.9098C14.8844 13.7525 14.7557 13.6237 14.5984 13.6237H14.3126C14.1554 13.6237 14.029 13.6129 14.032 13.5998C14.035 13.5865 14.0086 13.4874 13.9726 13.4106C13.9367 13.3339 13.6237 13.271 13.4664 13.271H13.1118C12.9545 13.271 12.7625 13.2993 12.6849 13.3336C12.6074 13.3679 12.5412 13.5615 12.5425 13.5752C12.5437 13.589 12.4229 13.6237 12.2656 13.6237H11.1378C10.9805 13.6237 10.8542 13.6129 10.8572 13.5998C10.8602 13.5865 10.8338 13.4874 10.7979 13.4106C10.7619 13.3339 10.4489 13.271 10.2916 13.271H9.93712C9.77979 13.271 9.58769 13.2993 9.51012 13.3336C9.43273 13.3679 9.36642 13.5615 9.36779 13.5752C9.36907 13.589 9.24823 13.6237 9.09089 13.6237H7.96302C7.80577 13.6237 7.67945 13.6129 7.68246 13.5998C7.68539 13.5865 7.65914 13.4874 7.62319 13.4106C7.58715 13.3339 7.27412 13.271 7.11688 13.271H6.76241C6.60508 13.271 6.41289 13.2993 6.33541 13.3336C6.25784 13.3679 6.19171 13.5615 6.19299 13.5752C6.19427 13.589 6.07343 13.6237 5.91618 13.6237H5.40201C5.24476 13.6237 5.11597 13.7524 5.11597 13.9098V14.0769H5.11615Z" fill="white"/>
      <path d="M12.6828 9.47096C12.7616 9.50636 12.9546 9.53526 13.1118 9.53526H13.4664C13.6236 9.53526 13.8166 9.50636 13.8953 9.47096C13.9739 9.43546 14.0382 9.21007 14.0382 9.16214C14.0382 9.11421 14.1669 9.07496 14.3242 9.07496H14.5982C14.7555 9.07496 14.8842 8.94626 14.8842 8.78901V8.62189C14.8842 8.46446 14.7555 8.33585 14.5982 8.33585H5.40201C5.24476 8.33585 5.11597 8.46455 5.11597 8.62189V8.78901C5.11597 8.94626 5.24476 9.07496 5.40201 9.07496H5.90438C6.06163 9.07496 6.19033 9.11421 6.19033 9.16214C6.19033 9.21007 6.21924 9.31353 6.25473 9.39229C6.29013 9.47096 6.60508 9.53526 6.76241 9.53526H7.11688C7.27421 9.53526 7.46713 9.50636 7.54589 9.47096C7.62447 9.43546 7.68877 9.21007 7.68877 9.16214C7.68877 9.11421 7.81757 9.07496 7.97482 9.07496H9.079C9.23625 9.07496 9.36504 9.11421 9.36504 9.16214C9.36504 9.21007 9.39395 9.31353 9.42935 9.39229C9.46475 9.47096 9.7797 9.53526 9.93703 9.53526H10.2915C10.4488 9.53526 10.6419 9.50636 10.7205 9.47096C10.7991 9.43546 10.8636 9.21007 10.8636 9.16214C10.8636 9.11421 10.9923 9.07496 11.1496 9.07496H12.2537C12.411 9.07496 12.5398 9.11421 12.5398 9.16214C12.5398 9.21007 12.6041 9.43546 12.6826 9.47096H12.6828Z" fill="white"/>
      <path d="M15.8738 14.777C15.8738 14.6044 15.7327 14.4633 15.5603 14.4633H4.43964C4.26712 14.4633 4.12598 14.6044 4.12598 14.777V14.8889C4.12598 15.0614 4.26712 15.2026 4.43964 15.2026H15.5603C15.7328 15.2026 15.8738 15.0614 15.8738 14.8889V14.777Z" fill="white"/>
    </g>
  </g>
  <defs>
    <filter id="filter0_di_2760_18914" x="-35.874" y="-31.5885" width="91.7479" height="90.7911" filterUnits="userSpaceOnUse" color-interpolation-filters="sRGB">
      <feFlood flood-opacity="0" result="BackgroundImageFix"/>
      <feColorMatrix in="SourceAlpha" type="matrix" values="0 0 0 0 0 0 0 0 0 0 0 0 0 0 0 0 0 0 127 0" result="hardAlpha"/>
      <feOffset dy="4"/>
      <feGaussianBlur stdDeviation="20"/>
      <feComposite in2="hardAlpha" operator="out"/>
      <feColorMatrix type="matrix" values="0 0 0 0 0 0 0 0 0 0 0 0 0 0 0 0 0 0 0.09 0"/>
      <feBlend mode="normal" in2="BackgroundImageFix" result="effect1_dropShadow_2760_18914"/>
      <feBlend mode="normal" in="SourceGraphic" in2="effect1_dropShadow_2760_18914" result="shape"/>
      <feColorMatrix in="SourceAlpha" type="matrix" values="0 0 0 0 0 0 0 0 0 0 0 0 0 0 0 0 0 0 127 0" result="hardAlpha"/>
      <feOffset dy="16"/>
      <feGaussianBlur stdDeviation="6.15"/>
      <feComposite in2="hardAlpha" operator="arithmetic" k2="-1" k3="1"/>
      <feColorMatrix type="matrix" values="0 0 0 0 1 0 0 0 0 1 0 0 0 0 1 0 0 0 0.55 0"/>
      <feBlend mode="normal" in2="shape" result="effect2_innerShadow_2760_18914"/>
    </filter>
    <clipPath id="clip0_2760_18914">
      <rect width="20" height="20" fill="white"/>
    </clipPath>
  </defs>
</svg>
