<svg xmlns="http://www.w3.org/2000/svg" width="24" height="24" fill="none" xmlns:v="https://vecta.io/nano"><g clip-path="url(#A)"><circle cx="12" cy="12" r="12" fill="#0033ad"/><g fill="#fff"><path d="M7.664 12.407c-.041.712.507 1.321 1.219 1.362h.077c.717 0 1.295-.578 1.29-1.295s-.579-1.295-1.295-1.29c-.686 0-1.254.538-1.29 1.224zm-4.823-.333c-.23-.015-.43.164-.44.394s.164.43.394.44c.23.015.425-.164.44-.394s-.164-.425-.394-.44zm4.741-7.173a.42.42 0 0 0 .184-.563.42.42 0 0 0-.563-.184c-.205.103-.287.353-.184.558s.353.297.563.189zm1.31 2.289c.317-.159.445-.548.287-.865s-.548-.445-.865-.287-.445.548-.287.865.548.445.865.287zM4.479 8.762c.246.159.573.092.737-.154.159-.246.092-.573-.154-.737s-.573-.092-.737.154a.53.53 0 0 0 .154.737zm.783 3.082c-.358-.021-.66.251-.681.609s.251.66.609.681.66-.251.681-.609c.02-.353-.251-.66-.609-.681zm-.711 4.336c-.261.133-.369.451-.236.717s.451.369.717.236.369-.451.236-.717-.456-.369-.717-.236zm2.509-5.673c.353.23.824.133 1.05-.22s.133-.824-.22-1.05-.824-.133-1.05.22-.133.819.22 1.05zm7.961-3.369a.65.65 0 0 0 .896-.184.65.65 0 0 0-.184-.896.65.65 0 0 0-.896.184.64.64 0 0 0 .184.896zm1.32-2.278c.195.128.45.072.578-.123s.072-.451-.123-.579a.42.42 0 0 0-.579.118.43.43 0 0 0 .123.584zm-1.223 6.313a1.292 1.292 0 0 0-.143 2.58h.072a1.29 1.29 0 0 0 1.29-1.295c.005-.681-.532-1.249-1.219-1.285zm-5.801-.758c.22.435.666.712 1.157.712a1.29 1.29 0 0 0 1.29-1.295 1.31 1.31 0 0 0-.138-.584 1.29 1.29 0 0 0-1.736-.573c-.64.328-.896 1.106-.573 1.741zm10.132-1.653c.261-.133.363-.456.23-.717s-.456-.364-.717-.23-.364.451-.236.712a.54.54 0 0 0 .722.236zm-3.276.409a.76.76 0 0 0-.338 1.019.76.76 0 0 0 1.019.338.76.76 0 0 0 .338-1.019c-.189-.374-.645-.522-1.019-.338zm-4.224-4.505a.54.54 0 0 0 .563-.502c.021-.292-.21-.543-.502-.563s-.543.205-.563.497a.54.54 0 0 0 .502.568zm-.005 3.343c.42.026.778-.297.799-.717.026-.42-.297-.778-.717-.799s-.778.297-.799.717.297.778.717.799zm-4.117 7.762a.76.76 0 0 0 .338-1.019.76.76 0 0 0-1.019-.338.76.76 0 0 0-.338 1.019.76.76 0 0 0 1.019.338zm4.608-6.651a1.291 1.291 0 1 0 1.787-.374c-.21-.138-.456-.21-.707-.21-.435 0-.84.22-1.08.584zm2.248 5.406a1.292 1.292 0 1 0-2.309 1.162 1.29 1.29 0 0 0 1.736.573c.635-.317.896-1.085.579-1.725zm2.258-.092c-.353-.23-.824-.133-1.05.22s-.133.824.22 1.05.824.133 1.049-.22c.23-.348.133-.819-.22-1.05zm2.478-1.94c.02-.358-.251-.661-.609-.681s-.66.251-.681.609.251.66.609.681a.65.65 0 0 0 .681-.609zm1.786-.461c-.23-.015-.43.164-.44.394s.164.43.394.44c.23.015.425-.164.44-.394a.42.42 0 0 0-.394-.44zm-1.684 4.147c-.246-.159-.574-.092-.737.154s-.092.573.154.737.573.092.737-.154a.53.53 0 0 0-.153-.737zM7.653 20.081a.42.42 0 0 0-.579.118.42.42 0 0 0 .118.579.42.42 0 0 0 .579-.118c.133-.189.077-.451-.118-.579zm8.765-.041a.42.42 0 0 0-.184.563.42.42 0 0 0 .563.184c.205-.103.287-.353.184-.558-.102-.21-.353-.297-.563-.19zm-4.853-4.218c.389-.599.225-1.398-.374-1.792-.599-.389-1.398-.225-1.792.374a1.29 1.29 0 0 0 .374 1.792c.21.138.456.21.707.21.44.005.845-.215 1.085-.584zm-2.586 1.981a.65.65 0 0 0-.896.184.65.65 0 0 0 .184.896.65.65 0 0 0 .896-.184.64.64 0 0 0-.184-.896zm3.016 2.473a.54.54 0 0 0-.563.502c-.021.292.21.543.502.563s.543-.205.563-.497a.54.54 0 0 0-.502-.568zM12 16.933c-.42-.026-.778.297-.799.717-.026.42.297.778.717.799s.778-.297.799-.717c.026-.415-.297-.778-.717-.799zm3.108.819a.65.65 0 0 0-.282.87c.163.317.553.445.87.282s.445-.548.287-.865c-.164-.317-.553-.451-.875-.287z"/></g></g><defs><clipPath id="A"><path fill="#fff" d="M0 0h24v24H0z"/></clipPath></defs></svg>