<svg width="819" height="819" viewBox="0 0 819 819" fill="none" xmlns="http://www.w3.org/2000/svg">
<g clip-path="url(#clip0_437_41)">
<path d="M409.5 819C635.661 819 819 635.661 819 409.5C819 183.339 635.661 0 409.5 0C183.339 0 0 183.339 0 409.5C0 635.661 183.339 819 409.5 819Z" fill="#F0B90B"/>
<path d="M263.627 221.006L407.872 137.042L552.119 221.006L499.088 252.025L407.872 199.079L316.659 252.025L263.627 221.006ZM552.119 326.897L499.088 295.879L407.872 348.826L316.659 295.879L263.627 326.897V388.936L354.842 441.881V547.771L407.872 578.791L460.906 547.771V441.881L552.119 388.936V326.897ZM552.119 494.826V432.79L499.088 463.806V525.846L552.119 494.826ZM589.772 516.755L498.56 569.7V631.736L642.806 547.771V379.842L589.772 410.861V516.755ZM536.742 273.952L589.772 304.97V367.007L642.806 335.989V273.952L589.772 242.933L536.742 273.952ZM354.842 592.161V654.197L407.872 685.216L460.906 654.197V592.161L407.872 623.18L354.842 592.161ZM263.627 494.826L316.659 525.846V463.806L263.627 432.79V494.826ZM354.842 273.952L407.872 304.97L460.906 273.952L407.872 242.933L354.842 273.952ZM225.973 304.97L279.005 273.952L225.973 242.933L172.941 273.952V335.989L225.973 367.007V304.97ZM225.973 410.861L172.941 379.842V547.771L317.188 631.736V569.7L225.973 516.755V410.861Z" fill="white"/>
<path d="M819 648.375C819 554.141 742.609 477.75 648.375 477.75C554.141 477.75 477.75 554.141 477.75 648.375C477.75 742.609 554.141 819 648.375 819C742.609 819 819 742.609 819 648.375Z" fill="#F4D5B1"/>
<path d="M749.153 714.195C749.757 715.243 749.023 716.55 747.815 716.55H701.712C700.347 716.55 699.931 715.325 700.146 714.769C700.282 714.41 700.624 714.079 701.183 713.919C701.74 713.759 703.002 713.769 703.002 713.769C705.701 713.919 708.162 714.059 710.134 712.192C712.107 710.322 713.144 708.039 713.247 705.343C713.349 702.644 712.803 700.324 711.489 697.498C711.267 697.02 710.967 696.457 710.694 695.969C710.619 695.836 710.54 695.703 710.465 695.57C710.312 695.3 710.158 695.034 710.001 694.771C709.769 694.372 638.294 570.649 638.294 570.649L566.564 694.816C566.564 694.816 566.185 695.454 565.908 695.949C565.632 696.444 565.328 697.013 565.103 697.498C563.789 700.324 563.243 702.644 563.346 705.343C563.448 708.039 564.489 710.322 566.458 712.192C568.43 714.059 570.928 714.404 573.522 714.404H574.511L574.853 714.441C575.269 714.485 575.453 714.806 575.586 715.257C575.815 716.055 574.965 716.55 574.511 716.55H548.955C547.747 716.55 546.993 715.243 547.597 714.195L594.369 633.234L595.212 631.732L647.017 542.106C647.621 541.062 649.129 541.062 649.733 542.106L693.666 618.154L704.422 600.706C704.599 600.416 704.917 600.238 705.258 600.238C706.009 600.238 706.483 601.047 706.114 601.702L695.28 620.945L749.153 714.195Z" fill="black"/>
<path d="M576.259 601.173C576.259 601.173 576.282 600.156 576.794 600.085C577.095 600.04 577.391 600.184 577.542 600.45L591.779 625.597L589.946 628.767L576.259 601.173Z" fill="black"/>
<path d="M602.603 644.84L600.89 647.808L638.342 714.127C638.943 715.192 642.202 715.192 642.802 714.127L677.856 651.883L675.45 647.713L639.001 706.845C639.001 706.845 638.602 707.537 638.332 707.537C638.015 707.537 637.643 706.845 637.643 706.845L602.603 644.84Z" fill="black"/>
<path d="M637.503 606.282C637.503 625.201 630.562 638.23 616.287 638.23C616.284 638.393 616.284 638.561 616.284 638.724C616.284 638.796 616.284 638.868 616.284 638.939C616.284 639.008 616.284 639.079 616.284 639.151C616.284 639.315 616.284 639.482 616.287 639.646C630.562 639.646 637.503 652.678 637.503 671.597H639.001C639.001 652.678 645.942 639.646 660.216 639.646C660.22 639.482 660.22 639.315 660.22 639.151V639.096V638.939V638.854V638.724C660.22 638.561 660.22 638.393 660.216 638.23C645.942 638.23 639.001 625.201 639.001 606.282H637.503Z" fill="black"/>
</g>
<defs>
<clipPath id="clip0_437_41">
<rect width="819" height="819" fill="white"/>
</clipPath>
</defs>
</svg>
