<svg width="54" height="54" viewBox="0 0 54 54" fill="none" xmlns="http://www.w3.org/2000/svg">
<g clip-path="url(#clip0_12055_3)">
<circle cx="27" cy="27" r="27" fill="#FEEC59"/>
<path d="M15.6198 37.973C15.6198 36.6231 16.1107 35.3958 16.847 34.2913C17.0925 33.9231 17.0925 33.4322 16.7243 33.1868C16.7243 33.1868 16.6016 33.1868 16.6016 33.064C14.0243 31.714 12.0607 29.2595 11.5698 26.4369C11.2017 24.2278 11.3244 22.0188 12.0607 19.8097C12.1835 19.3188 12.1835 18.8279 12.1835 18.337C11.3244 15.1461 11.4471 11.7098 12.4289 8.51899C13.288 6.18721 14.5152 5.57358 16.847 6.67811C18.197 7.29173 19.3015 8.15081 20.4061 9.00989C20.6515 9.25534 21.0197 9.37806 21.3879 9.13261C25.4378 7.41446 29.9786 7.41446 33.9058 9.25534C34.1513 9.37806 34.5195 9.37806 34.7649 9.13261C35.7467 8.27353 36.974 7.41446 38.2012 6.80083C38.6921 6.55538 39.3057 6.30993 39.9194 6.18721C40.9012 5.94176 41.883 6.43266 42.2511 7.29173C42.8648 8.51899 43.3557 9.74624 43.4784 11.0962C43.8466 13.6734 43.7238 16.2507 43.1102 18.8279C43.1102 19.0734 43.1102 19.3188 43.2329 19.5643C43.8466 21.4051 44.092 23.4915 43.9693 25.4551C43.7238 28.7686 41.7602 31.5913 38.8148 33.064C38.4467 33.3095 38.2012 33.6777 38.4467 34.1686L38.5694 34.2913C39.6739 35.6413 40.1648 37.4821 39.7966 39.2003C39.7966 39.4457 39.6739 39.5685 39.9194 39.6912C41.2693 40.5503 42.0057 42.2684 41.7602 43.8638C41.6375 44.9684 41.3921 45.9502 40.9012 46.932C40.4103 48.1592 39.183 48.8956 37.833 48.8956H36.7285C35.8694 48.8956 35.1331 49.0183 34.3967 49.3865C33.2922 49.8774 32.065 50.0001 30.9604 49.6319C30.8377 49.6319 30.8377 49.5092 30.715 49.5092C29.9786 48.6501 28.9968 48.8956 28.015 48.8956H26.5423C25.9287 48.8956 25.3151 49.0183 24.8242 49.3865C23.4742 50.1228 21.8788 50.0001 20.6515 49.141C20.4061 48.8956 20.0379 48.8956 19.6697 48.8956H17.5834C16.2334 48.8956 15.1289 48.1592 14.5152 46.932C14.0243 46.0729 13.7789 45.0911 13.6562 44.1093C13.6562 43.7411 13.4107 43.4957 13.1653 43.2502C9.60624 41.0412 8.62444 36.3776 10.8335 32.9413C10.9562 32.8186 10.9562 32.8186 10.9562 32.6959C11.0789 32.4504 11.3244 32.3277 11.5698 32.4504C11.8153 32.5731 11.938 32.6959 11.938 32.9413C12.0607 34.414 12.7971 35.6413 13.7789 36.6231C14.3925 37.3594 15.0061 37.7276 15.6198 37.973Z" fill="#2F201C"/>
<path d="M12.5516 25.8233C12.3062 23.9825 12.4289 22.1416 13.0425 20.3007C14.0243 16.9871 16.1107 14.0417 18.8106 11.9554C19.1788 11.5872 19.3015 11.3418 18.9333 10.9736C18.4424 10.2372 17.8288 9.62361 17.2152 9.00998C17.4606 8.76453 17.7061 8.88726 17.9515 9.13271C18.6879 9.62361 19.4242 10.1145 20.1606 10.7281C20.5288 10.9736 21.0197 11.0963 21.3878 10.8509C24.3332 9.50088 27.6468 9.25543 30.715 9.86906C31.8195 10.1145 32.8013 10.4827 33.7831 10.8509C34.1513 10.9736 34.5194 10.9736 34.7649 10.7281C35.5012 10.1145 36.1149 9.62361 36.9739 9.13271C37.2194 8.88726 37.4648 8.76453 37.833 8.88726C37.2194 9.50088 36.7285 10.1145 36.2376 10.7281C35.7467 11.4645 35.7467 11.5872 36.483 11.9554C40.1648 14.7781 42.4966 19.0734 42.742 23.737C42.8648 24.3506 42.742 25.087 42.6193 25.7006C42.1284 26.5597 41.1466 27.0506 40.1648 27.0506C38.6921 27.1733 37.2194 26.6824 36.1149 25.7006C35.0103 24.8415 34.0285 23.8597 33.0467 22.8779C32.4331 22.2643 31.6968 21.6507 30.9604 21.1598C28.8741 19.6871 26.1741 19.6871 24.2105 21.2825C23.2287 22.0189 22.2469 22.8779 21.3878 23.737C20.7742 24.3506 20.0379 25.087 19.3015 25.5779C18.197 26.5597 16.6016 27.1733 15.1289 27.0506C14.1471 27.1733 13.1653 26.6824 12.5516 25.8233Z" fill="#EAA548"/>
<path d="M12.5516 25.8234C13.1653 26.3143 13.7789 26.6825 14.5152 26.8052C16.2334 27.1734 18.0743 26.5597 19.3015 25.3325C20.5288 24.3507 21.6333 23.1234 22.8606 22.0189C23.7196 21.1598 24.8242 20.4235 26.0514 20.0553C28.015 19.5644 29.9786 20.0553 31.574 21.2826C33.0467 22.3871 34.274 23.7371 35.7467 25.087C37.0967 26.437 38.9376 27.0506 40.7784 26.6825C41.5148 26.5597 42.1284 26.0688 42.6193 25.5779C42.6193 25.9461 42.4966 26.3143 42.3739 26.6825C42.0057 27.2961 41.6375 27.9097 41.1466 28.5233C39.9194 29.7506 38.4467 30.7324 36.7285 31.346C34.7649 31.9596 32.8013 32.4506 30.715 32.5733C27.6468 32.9415 24.456 32.696 21.3879 32.0824C18.8106 31.7142 16.3561 30.4869 14.5152 28.7688C13.7789 28.1552 13.288 27.4188 12.7971 26.5597C12.6744 26.437 12.5516 26.1916 12.5516 25.8234Z" fill="white"/>
<path d="M12.7971 26.9277C13.288 27.4186 13.7789 27.9095 14.1471 28.5232C15.0062 29.505 16.1107 30.2413 17.338 30.8549C19.6697 31.9595 22.247 32.5731 24.8242 32.6958C28.1378 33.064 31.4514 32.8185 34.6422 31.9595C37.0967 31.4686 39.3058 30.2413 41.0239 28.5232C41.3921 28.155 41.6375 27.6641 42.0057 27.2959C42.1284 27.1732 42.1284 26.9277 42.3739 26.9277C41.883 29.0141 40.4103 30.8549 38.5694 31.9595C36.4831 33.1867 34.0286 33.9231 31.5741 34.1685C27.8923 34.6594 24.0878 34.414 20.4061 33.5549C18.0743 33.064 15.988 31.8367 14.2698 30.1186C13.5335 29.1368 13.0426 28.0323 12.7971 26.9277Z" fill="#DCDCDC"/>
<path d="M30.4695 47.6681C30.3468 47.1772 30.3468 46.6863 30.3468 46.0727V42.6364C30.3468 42.5136 30.4695 42.5136 30.4695 42.5136C30.5923 42.6364 30.5923 42.8818 30.5923 43.0045C31.9422 41.7773 33.2922 40.4273 34.3967 39.0773C35.1331 38.2183 35.624 37.2365 35.7467 36.1319C35.7467 36.0092 35.8694 35.8865 35.8694 35.8865C36.1149 35.7638 36.3603 35.641 36.6058 35.5183C36.974 35.5183 36.974 35.8865 36.974 36.0092C37.2194 36.8683 37.2194 37.8501 37.0967 38.8319C36.8512 40.4273 36.3603 42.0227 35.624 43.6182C35.2558 44.6 34.7649 45.5818 34.1513 46.4409C34.0286 46.6863 33.9058 46.9318 33.6604 47.0545C33.5377 47.0545 33.5377 47.1772 33.4149 47.1772C32.5559 47.0545 31.5741 47.1772 30.715 47.5454C30.715 47.7908 30.5923 47.7908 30.4695 47.6681Z" fill="#EAA548"/>
<path d="M24.7014 43.8639C24.7014 45.0912 24.8242 46.4412 24.7014 47.6684C24.5787 47.7912 24.456 47.7912 24.3333 47.6684C23.4742 47.3003 22.6151 47.3003 21.756 47.423C21.6333 47.5457 21.3879 47.423 21.2651 47.3003C21.1424 46.9321 21.0197 46.6866 20.897 46.3185C19.6697 44.2321 18.8106 42.0231 18.197 39.6913C17.9516 38.5868 17.8288 37.4822 18.0743 36.3777C18.197 36.1323 18.197 35.7641 18.4425 35.6414C18.6879 35.7641 18.9334 35.8868 19.1788 36.0095C19.3015 36.255 19.3015 36.3777 19.3015 36.5004C19.4243 37.3595 19.7924 38.2186 20.4061 38.9549C21.5106 40.3049 22.8606 41.6549 24.0878 42.8821C24.456 43.1276 24.5787 43.4958 24.7014 43.8639Z" fill="#EAA548"/>
<path d="M25.8059 45.9501V42.8819C25.8059 42.391 25.5605 42.1456 25.0696 42.1456C24.9468 42.0229 24.8241 41.7774 24.7014 41.532C24.3332 40.182 23.5969 39.0775 22.8605 37.9729C22.6151 37.6048 22.3696 37.3593 22.0014 37.2366C21.8787 37.1139 21.756 37.1139 21.756 36.8684C22.8605 36.9911 23.965 37.2366 25.0696 37.3593C25.4377 37.3593 25.315 37.6048 25.1923 37.8502C24.8241 38.832 25.0696 39.9365 25.8059 40.6729C26.5423 41.4092 27.7695 41.6547 28.7513 41.1638C29.9786 40.5502 30.5922 39.2002 30.224 37.8502C29.9786 37.3593 30.224 37.3593 30.5922 37.3593C31.4513 37.2366 32.1876 37.1139 33.0467 36.9911C33.1694 37.2366 32.924 37.2366 32.924 37.3593C31.8194 38.5866 30.9604 40.182 30.5922 41.7774C30.4695 41.9001 30.4695 42.0229 30.3467 42.1456C29.7331 42.0229 29.6104 42.2683 29.6104 42.8819C29.6104 43.8637 29.6104 44.9683 29.4877 45.9501C28.3831 46.6864 26.9104 46.8092 25.8059 45.9501Z" fill="#DCDCDC"/>
<path d="M21.756 36.8684C22.9833 37.3593 23.4742 38.4638 24.0878 39.5683C24.5787 40.3047 24.9469 41.1637 25.0696 42.0228C24.7014 42.2683 24.7014 42.6364 24.7014 43.0046V43.741C23.106 42.2683 21.6333 40.6728 20.2833 38.9547C19.5469 38.0956 19.1788 37.1138 19.1788 36.0093C20.0378 36.3775 20.7742 36.6229 21.756 36.8684Z" fill="white"/>
<path d="M30.1013 42.1456C30.3468 40.9184 30.7149 39.8138 31.4513 38.832C31.8195 38.0957 32.3104 37.4821 32.924 36.9912C33.9058 36.7457 35.0103 36.5003 35.9921 36.1321C36.1149 36.8684 35.8694 37.7275 35.5012 38.3411C34.5194 39.8138 33.4149 41.0411 32.1876 42.1456C31.574 42.6365 31.0831 43.2501 30.5922 43.741C30.3468 43.3729 30.5922 43.0047 30.4695 42.7592C30.4695 42.5138 30.3468 42.2683 30.1013 42.1456Z" fill="white"/>
<path d="M33.6603 47.1776C35.133 44.8458 36.2376 42.2686 36.8512 39.6913C37.2194 38.3414 37.2194 36.9914 36.7285 35.7641C36.8512 35.6414 36.9739 35.6414 36.9739 35.5187C37.833 35.1505 37.833 35.1505 38.0784 35.8869C38.5693 37.2368 38.5693 38.7095 38.2012 40.0595C37.5875 42.514 36.483 44.8458 35.133 47.0549C35.0103 47.3003 34.8876 47.423 34.7649 47.5458C34.274 47.6685 33.9058 47.6685 33.6603 47.1776Z" fill="#E08532"/>
<path d="M18.4425 35.7638C17.9516 37.7274 18.0743 39.8138 18.8107 41.6547C19.4243 43.4955 20.1607 45.2137 21.2652 46.6864C21.3879 46.8091 21.3879 47.0546 21.2652 47.1773C21.1425 47.5455 20.7743 47.6682 20.4061 47.6682C19.4243 46.4409 18.5652 45.091 18.0743 43.4955C17.338 41.9001 16.8471 40.182 16.6016 38.4638C16.4789 37.482 16.7244 36.6229 17.0925 35.7638C17.4607 35.0275 17.4607 35.0275 18.0743 35.5184C18.1971 35.6411 18.1971 35.6411 18.4425 35.7638Z" fill="#E08532"/>
<path d="M35.8694 48.0364C37.2194 45.8274 38.3239 43.4956 39.0602 41.0411C39.183 40.6729 39.3057 40.7957 39.5511 40.9184C40.2875 41.7775 40.6557 42.882 40.5329 43.9865C40.4102 44.8456 40.1648 45.7047 39.7966 46.5637C39.4284 47.3001 38.6921 47.9137 37.9557 48.0364C37.2194 48.1592 36.483 48.1592 35.8694 48.0364Z" fill="#E08432"/>
<path d="M18.197 48.0365C16.7243 48.282 15.3743 47.3002 15.1289 45.8275C14.638 44.7229 14.5153 43.373 14.8834 42.2684C15.0062 41.7775 15.2516 41.4094 15.6198 41.0412C15.8652 40.7957 15.988 40.673 15.988 41.1639C16.7243 43.4957 17.7061 45.7047 18.9334 47.7911C19.0561 48.0365 19.0561 48.1592 18.6879 48.1592L18.197 48.0365Z" fill="#E08432"/>
<path d="M41.2694 15.8826C40.2876 14.4099 39.183 13.0599 37.8331 11.8326C37.0967 11.219 37.0967 11.0963 37.7103 10.3599C38.4467 9.50086 39.3058 8.7645 40.2876 8.15088C40.4103 8.2736 40.533 8.51905 40.6557 8.64178C41.1466 9.86903 41.3921 11.219 41.3921 12.4463C41.5148 13.0599 41.5148 13.7962 41.5148 14.5326C41.5148 15.1462 41.5148 15.5144 41.2694 15.8826Z" fill="#B8572A"/>
<path d="M14.7607 8.27344C15.8652 8.88706 16.9697 9.86887 17.7061 10.9734C17.8288 11.2188 17.9515 11.3416 17.7061 11.4643C16.2334 12.6915 14.8834 14.1642 13.9016 15.7597C13.6562 15.637 13.5334 15.3915 13.5334 15.0233C13.4107 13.0597 13.6562 10.9734 14.2698 9.00979C14.2698 8.76434 14.5152 8.51889 14.7607 8.27344Z" fill="#B8572A"/>
<path d="M37.833 8.88718C36.974 9.25535 36.2376 9.74625 35.5013 10.3599C34.8876 11.0962 33.9058 11.3417 33.0468 10.8508C30.8377 9.86898 28.3832 9.5008 25.9287 9.86898C24.2105 9.9917 22.4924 10.4826 20.897 11.3417C20.6515 11.4644 20.5288 11.4644 20.4061 11.219C19.547 10.4826 18.6879 9.74625 17.7061 9.13263C17.5834 9.0099 17.3379 8.88718 17.2152 8.88718C16.6016 8.39628 16.1107 7.90537 15.3743 7.41447C15.988 7.5372 16.4789 7.65992 16.9698 8.0281C18.0743 8.64173 19.0561 9.37808 20.0379 10.2372C20.2833 10.6053 20.7742 10.6053 21.1424 10.4826C25.1923 8.64173 29.8559 8.64173 33.7831 10.4826C34.1513 10.7281 34.5195 10.6053 34.7649 10.3599C35.9922 9.25535 37.3421 8.27355 38.8148 7.5372C39.0603 7.41447 39.183 7.41447 39.3057 7.29175C39.4285 7.29175 39.4285 7.29175 39.5512 7.41447C38.9376 7.90537 38.4467 8.39628 37.833 8.88718Z" fill="#F4CB71"/>
<path d="M10.9562 35.6411C10.9562 35.273 11.079 34.9048 11.3244 34.5366C11.6926 35.6411 12.4289 36.7457 13.288 37.6048C13.9016 38.2184 14.638 38.7093 15.3743 39.0775C15.8652 39.3229 15.8652 39.5684 15.4971 39.9365C15.0062 40.3047 14.5153 40.7956 14.2698 41.2865C14.0244 41.2865 13.7789 41.1638 13.6562 41.0411C12.4289 40.0593 11.4471 38.5866 11.2017 36.9911C10.9562 36.5002 10.8335 36.0093 10.9562 35.6411Z" fill="#E08432"/>
<path d="M14.7607 8.27348C13.9016 10.4825 13.6562 12.6916 13.7789 15.0234C13.7789 15.2688 13.7789 15.5143 13.9016 15.7597C13.6562 16.2506 13.4107 16.8642 13.0426 17.4779C12.7971 16.987 12.6744 16.4961 12.7971 16.0052C12.5517 13.7961 12.6744 11.5871 13.288 9.37801C13.4107 9.13256 13.5335 8.88711 13.5335 8.51893C13.9016 7.65985 13.9016 7.65985 14.7607 8.27348Z" fill="#CF722E"/>
<path d="M41.2694 15.8825C41.5148 13.9189 41.3921 11.8325 40.9012 9.86893C40.6557 9.37803 40.533 8.88713 40.4103 8.2735L40.533 8.15078C41.2694 7.65988 41.2694 7.65988 41.6375 8.51895C42.2512 10.1144 42.6193 11.8325 42.6193 13.428C42.6193 14.6552 42.6193 15.7597 42.3739 16.987C42.3739 17.1097 42.2512 17.3552 42.2512 17.4779C41.883 16.8643 41.5148 16.3734 41.2694 15.8825Z" fill="#CF722E"/>
<path d="M25.806 45.9502C26.9105 46.5638 28.2605 46.5638 29.365 45.9502C29.365 46.5638 29.4877 47.0547 29.4877 47.6683C29.4877 48.0365 29.365 48.0365 29.1196 48.0365H26.1741C25.9287 48.0365 25.806 47.9138 25.806 47.6683C25.806 47.1774 25.806 46.5638 25.806 45.9502Z" fill="#DF8432"/>
<path d="M10.9562 35.6414C11.0789 37.9731 12.3062 39.9367 14.147 41.2867C14.0243 41.6549 13.9016 42.0231 13.7789 42.3912C13.6561 42.6367 13.6561 42.7594 13.4107 42.514C11.3244 40.9185 10.3426 38.2186 10.9562 35.6414Z" fill="#DCDCDC"/>
<path d="M27.0333 40.3047C26.1742 40.0593 25.806 39.0775 26.0515 38.3411C26.2969 37.482 27.2787 37.1139 28.0151 37.3593C28.1378 37.3593 28.2605 37.482 28.3832 37.482C28.9969 38.2184 28.7514 39.4456 28.0151 39.9365C27.7696 40.182 27.4014 40.3047 27.0333 40.3047Z" fill="#F3DF5A"/>
<path d="M18.0742 34.2911C17.9515 33.8002 18.0742 33.8002 18.4424 33.9229C20.6514 34.6593 22.8605 35.1502 25.1923 35.2729C25.9286 35.2729 25.9286 35.3956 25.9286 36.132C25.8059 36.7456 25.4377 36.3774 25.1923 36.5001C25.0696 36.5001 24.9468 36.3774 24.9468 36.3774C25.0696 36.2547 25.0696 36.2547 25.1923 36.132C22.7378 36.0092 20.2833 35.3956 18.0742 34.2911Z" fill="#A22B2A"/>
<path d="M30.1014 36.3777C29.2423 36.6231 29.1196 36.5004 29.1196 35.6413C29.1196 35.2732 29.365 35.1504 29.6105 35.1504C31.3286 35.0277 33.1695 34.7823 34.8877 34.2914C35.5013 34.1686 36.1149 33.9232 36.6058 33.8004C36.8513 33.6777 36.974 33.6777 36.974 34.0459C36.6058 34.4141 36.1149 34.7823 35.5013 34.905C33.7831 35.5186 31.9422 36.0095 30.1014 36.1322C29.9786 36.1322 29.8559 36.0095 29.9786 36.255C30.1014 36.255 30.1014 36.3777 30.1014 36.3777Z" fill="#A22B2A"/>
<path d="M21.6333 47.1774C22.7378 46.9319 23.8423 47.0546 24.7014 47.6683C24.7014 48.2819 24.4559 48.7728 23.8423 48.8955C23.2287 49.0182 22.6151 49.0182 22.0014 48.8955C22.0014 48.6501 22.2469 48.6501 22.3696 48.6501C22.1242 48.4046 21.8787 48.1592 21.6333 47.9137C21.6333 47.6683 21.3878 47.4228 21.6333 47.1774Z" fill="#FCFCFA"/>
<path d="M30.4695 47.6683C31.3286 47.0546 32.4331 46.9319 33.5377 47.1774C33.7831 47.4228 33.6604 47.5455 33.5377 47.6683C33.2922 48.0364 32.924 48.4046 32.5559 48.7728C32.1877 49.0182 31.8195 48.8955 31.4513 48.8955C30.715 48.7728 30.4695 48.4046 30.4695 47.6683Z" fill="#FFFCFB"/>
<path d="M30.1013 36.3774C29.8559 36.2547 29.365 36.5002 29.365 36.2547C29.365 35.8865 29.8559 36.132 30.1013 36.0093C31.8195 35.7638 33.6604 35.3956 35.3785 34.9047C35.9921 34.6593 36.4831 34.4138 37.0967 34.0457C37.2194 34.4138 36.8512 34.4138 36.6058 34.5366C34.8876 35.3956 33.1695 35.8865 31.2059 36.132C30.8377 36.2547 30.4695 36.3774 30.1013 36.3774Z" fill="#C03433"/>
<path d="M18.0743 34.2913C18.3197 34.1686 18.4425 34.2913 18.5652 34.414C20.4061 35.2731 22.4924 35.8867 24.5787 36.0095C24.9469 36.0095 25.3151 36.0095 25.5605 36.1322C25.6832 36.1322 25.806 36.1322 25.806 36.3776C25.806 36.5004 25.6832 36.5004 25.5605 36.5004H24.9469C22.7378 36.3776 20.4061 35.764 18.4425 34.7822C18.197 34.5368 18.0743 34.414 18.0743 34.2913Z" fill="#C43533"/>
<path d="M31.2059 48.8956C32.3104 49.0184 32.8013 48.0366 33.4149 47.4229V47.1775H33.6604C34.0286 47.3002 34.3967 47.5457 34.7649 47.6684C33.9058 48.8956 32.5558 49.2638 31.2059 48.8956Z" fill="#D9D9D8"/>
<path d="M21.6333 47.1775C21.8788 47.9138 22.4924 48.1593 22.8606 48.6502C22.6151 48.8956 22.2469 48.5275 22.0015 48.8956C21.2651 48.7729 20.6515 48.4047 20.2833 47.7911C20.5288 47.6684 20.7742 47.4229 21.1424 47.3002C21.2651 47.3002 21.3879 47.3002 21.6333 47.1775Z" fill="#D9D9D9"/>
<path d="M27.0332 40.3048C28.5059 39.6912 28.6286 39.323 28.2605 37.3594C28.9968 37.8503 29.2423 38.8321 28.8741 39.5684C28.6286 40.3048 27.7696 40.5502 27.0332 40.3048Z" fill="#F9F8F6"/>
<path d="M27.6469 36.2551C27.2787 36.2551 26.9105 36.5005 26.9105 35.8869C26.9105 35.396 27.156 35.396 27.5241 35.396C27.8923 35.396 28.2605 35.2733 28.2605 35.8869C28.2605 36.3778 27.7696 36.1324 27.6469 36.2551Z" fill="#C3C3C2"/>
<path d="M22.0015 48.8955C22.6152 48.8955 23.2288 48.8955 23.8424 48.8955C23.2288 49.0182 22.6152 49.0182 22.0015 48.8955Z" fill="#D9D9D9"/>
<path d="M17.338 20.669C17.338 19.4417 18.197 18.4599 19.4243 18.4599C20.6515 18.3372 21.7561 19.1963 21.8788 20.4235C22.0015 21.0371 21.6333 21.7735 21.0197 22.0189C20.1606 22.3871 19.3016 22.5098 18.3198 22.3871C17.7061 22.0189 17.2152 21.4053 17.338 20.669Z" fill="#2F201C"/>
<path d="M35.7468 22.387C35.2559 22.387 34.8877 22.2643 34.3968 22.1416C33.5377 21.8961 32.9241 21.037 33.1695 20.178C33.1695 20.0552 33.2923 19.9325 33.2923 19.8098C33.6604 18.828 34.765 18.2144 35.8695 18.3371C36.974 18.5825 37.7104 19.5643 37.7104 20.6689C37.8331 21.7734 37.0967 22.387 35.7468 22.387Z" fill="#2F201C"/>
<path d="M23.106 16.0051C23.106 16.7414 22.4924 17.3551 21.756 17.3551C21.6333 17.3551 21.6333 17.3551 21.5106 17.3551C21.3878 17.3551 21.3878 17.3551 21.2651 17.2323C20.2833 17.1096 19.6697 16.6187 19.7924 15.8824C20.0379 15.0233 20.7742 14.2869 21.756 14.4097C22.4924 14.5324 23.106 15.2687 23.106 16.0051Z" fill="#FFFFFC"/>
<path d="M32.0649 16.0051C32.0649 15.146 32.6786 14.5324 33.5376 14.4097C34.5194 14.4097 35.2558 15.0233 35.3785 16.0051C35.3785 16.3733 35.2558 16.7414 34.8876 16.9869C34.274 17.4778 33.4149 17.4778 32.6786 17.2323C32.3104 16.8642 32.0649 16.496 32.0649 16.0051Z" fill="#FFFFFC"/>
<path d="M24.9469 22.3869C25.6833 21.4051 26.9105 21.0369 28.015 21.2824C28.2605 21.2824 28.6287 21.4051 28.8741 21.5278C29.7332 21.6506 30.3468 22.5096 30.2241 23.3687C30.1014 24.1051 29.7332 24.8414 28.9968 25.0869C28.5059 25.3323 28.5059 25.3323 28.8741 25.8232C29.7332 26.3141 30.2241 26.1914 30.8377 25.455C31.0832 25.2096 31.2059 24.8414 31.3286 24.596C31.4513 24.3505 31.6968 24.2278 31.9422 24.3505C31.9422 24.3505 32.065 24.3505 32.065 24.4732C32.3104 24.596 32.4331 24.8414 32.3104 25.0869C32.065 25.8232 31.4513 26.4368 30.8377 26.805C30.5923 26.9277 30.4695 27.1732 30.4695 27.2959C30.3468 28.155 29.9786 29.0141 29.2423 29.6277C28.3832 30.6095 26.9105 30.6095 25.9287 29.7504L25.806 29.6277C25.1924 29.0141 24.7015 28.155 24.5787 27.1732C24.5787 26.9277 24.3333 26.6823 24.2106 26.4368C23.5969 26.0687 23.106 25.455 22.8606 24.7187C22.7379 24.4732 22.7379 24.2278 22.9833 24.1051C23.2288 23.9823 23.4742 23.9823 23.5969 24.2278V24.3505C23.7197 24.7187 23.9651 24.9641 24.0878 25.2096C24.456 25.8232 25.3151 25.9459 25.9287 25.5778C26.0514 25.5778 26.0514 25.455 26.1742 25.3323C26.4196 24.9641 26.1742 24.9641 25.9287 24.7187C25.1924 24.596 24.7015 23.4914 24.9469 22.3869Z" fill="#2F201C"/>
<path d="M24.9468 22.387C24.8241 23.9824 25.6832 24.7187 27.0332 25.2096C26.9104 25.4551 26.665 25.5778 26.4195 25.5778C25.0696 25.2096 24.4559 23.7369 24.9468 22.387Z" fill="#CBCCCD"/>
<path d="M28.8741 25.8234C28.6286 25.7007 28.2605 25.4552 28.015 25.3325C28.9968 25.087 29.8559 24.3507 30.2241 23.3689C30.4695 23.7371 30.3468 24.3507 29.9786 24.5961C29.7332 24.9643 29.365 25.3325 28.9968 25.5779C28.8741 25.5779 28.7514 25.578 28.8741 25.8234Z" fill="#CCCECE"/>
<path d="M19.9152 19.1963C20.2833 19.319 20.6515 19.4417 20.6515 19.9326C20.6515 20.3008 20.4061 20.669 20.0379 20.669C19.6697 20.669 19.3015 20.3008 19.3015 19.9326C19.1788 19.4417 19.4243 19.1963 19.9152 19.1963Z" fill="#F9F8F8"/>
<path d="M35.9921 19.9323C35.9921 20.3005 35.6239 20.5459 35.2558 20.5459C34.8876 20.5459 34.5194 20.1778 34.5194 19.8096C34.5194 19.4414 34.7649 19.0732 35.2558 19.0732C35.6239 19.0732 35.9921 19.4414 35.9921 19.9323Z" fill="#F7F7F7"/>
<path d="M27.5241 23.1233C27.1559 23.1233 26.665 23.1233 26.2968 23.0006C25.8059 22.7551 25.8059 22.2642 26.1741 22.0188C27.0332 21.6506 27.8923 21.6506 28.7514 22.1415C29.1195 22.387 29.1195 22.8779 28.6286 23.0006C28.3832 23.1233 28.015 23.246 27.5241 23.1233Z" fill="#573E39"/>
<path d="M28.7514 28.6459C28.5059 29.2596 27.6469 29.6277 27.0332 29.3823C26.665 29.2596 26.4196 29.0141 26.2969 28.6459C26.2969 28.5232 26.4196 28.4005 26.665 28.2778C27.4014 28.0323 28.1378 28.155 28.7514 28.6459Z" fill="#E18981"/>
<path d="M28.7514 28.6459C28.015 28.4005 27.1559 28.4005 26.2969 28.6459C26.0514 28.4005 25.9287 28.2778 26.4196 28.155C27.1559 27.9096 28.015 27.9096 28.8741 28.155C29.2423 28.2778 28.8741 28.5232 28.7514 28.6459Z" fill="#EAAFA7"/>
</g>
<defs>
<clipPath id="clip0_12055_3">
<rect width="54" height="54" fill="white"/>
</clipPath>
</defs>
</svg>
