<svg xmlns="http://www.w3.org/2000/svg" width="24" height="24" fill="none" xmlns:v="https://vecta.io/nano"><g clip-path="url(#A)"><g clip-path="url(#B)"><path fill-rule="evenodd" d="M12 0a12 12 0 1 1 0 24 12 12 0 1 1 0-24z" fill="#f0b90b"/><g fill="#fff"><path d="M6.595 12l.009 3.173L9.3 16.76v1.858l-4.274-2.507v-5.039L6.595 12zm0-3.173v1.849l-1.57-.929V7.898l1.57-.929 1.578.929-1.578.929zm3.831-.929l1.57-.929 1.578.929-1.578.929-1.57-.929zM7.73 14.515v-1.858l1.57.929v1.849l-1.57-.92zm2.696 2.91l1.57.929 1.578-.929v1.849l-1.578.929-1.57-.929v-1.849zm5.4-9.527l1.57-.929 1.578.929v1.849l-1.578.929V8.827l-1.57-.929zm1.57 7.275L17.405 12l1.57-.929v5.038l-4.274 2.507v-1.858l2.695-1.586zm-1.126-.658l-1.57.92v-1.849l1.57-.929v1.858zm0-5.03l.009 1.858-2.704 1.587v3.181l-1.57.92-1.57-.92V12.93l-2.704-1.587V9.485l1.577-.929 2.687 1.594 2.704-1.594 1.578.929h-.007zM7.73 6.313l4.266-2.515 4.274 2.515-1.57.929-2.704-1.594L9.3 7.241l-1.57-.929z"/></g></g></g><defs><clipPath id="A"><path fill="#fff" d="M0 0h24v24H0z"/></clipPath><clipPath id="B"><path fill="#fff" d="M0 0h24v24H0z"/></clipPath></defs></svg>