<svg width="32" height="32" viewBox="0 0 32 32" fill="none" xmlns="http://www.w3.org/2000/svg">
<g clip-path="url(#clip0_12508_2022)">
<path fill-rule="evenodd" clip-rule="evenodd" d="M12.128 31.5215C20.7014 33.6589 29.3839 28.4425 31.5211 19.8711C33.6583 11.2992 28.4418 2.61626 19.8688 0.479281C11.2979 -1.6577 2.61551 3.55925 0.479281 12.1317C-1.65895 20.7026 3.55811 29.3845 12.128 31.5215ZM19.5196 9.70286C21.7363 10.4664 23.3575 11.6108 23.039 13.7398C22.8084 15.2983 21.9444 16.0528 20.7972 16.3173C22.3724 17.1373 23.174 18.3948 22.4104 20.5747C21.4628 23.2822 19.2116 23.5107 16.2177 22.9442L15.7101 24.9783C15.5892 25.4629 15.0983 25.7578 14.6137 25.637C14.1287 25.5162 13.8336 25.025 13.9547 24.5401L14.4526 22.5457C13.9975 22.4327 13.5325 22.3127 13.0534 22.1827L12.5525 24.1916C12.4317 24.676 11.9411 24.9707 11.4568 24.8499C10.9726 24.7291 10.6779 24.2387 10.7985 23.7545L11.3067 21.7142C11.143 21.6723 10.9783 21.6294 10.8124 21.5861L10.8118 21.586L10.8117 21.5859C10.5622 21.5209 10.3102 21.4552 10.0551 21.3912L8.99934 21.1281C8.35596 20.9677 8.0105 20.2681 8.27435 19.6597C8.48566 19.1726 9.02124 18.9151 9.53618 19.0448C9.75426 19.0997 9.9245 19.1401 9.91808 19.1308C10.4151 19.2538 10.6357 18.9298 10.7227 18.7138L12.6929 10.8133C12.7144 10.4404 12.5859 9.96986 11.8748 9.79236C11.8841 9.78611 11.7415 9.74788 11.5486 9.70001C11.0289 9.57102 10.7059 9.04887 10.8353 8.52928C10.9631 8.01634 11.4826 7.70422 11.9955 7.83226L13.488 8.20487L13.486 8.21387C13.85 8.30437 14.225 8.39037 14.6071 8.47737L15.1077 6.47153C15.2286 5.98707 15.7193 5.69231 16.2038 5.81311C16.6884 5.93394 16.9833 6.42477 16.8624 6.90938L16.3763 8.85837C16.8473 8.96587 17.3214 9.07437 17.7829 9.18936L18.2642 7.2591C18.385 6.77434 18.8759 6.47931 19.3607 6.60011C19.8456 6.72093 20.1407 7.21197 20.0198 7.69682L19.5196 9.70286ZM14.7659 13.6284C14.2356 13.7829 13.9311 14.338 14.0856 14.8682C14.2402 15.3985 14.7953 15.703 15.3255 15.5485L18.5642 14.6046C19.0945 14.45 19.399 13.8949 19.2445 13.3647C19.09 12.8345 18.5348 12.5299 18.0046 12.6845L14.7659 13.6284ZM13.2798 19.4641C13.1253 18.9338 13.4299 18.3787 13.9601 18.2242L17.1988 17.2803C17.7291 17.1257 18.2842 17.4303 18.4387 17.9605C18.5932 18.4908 18.2887 19.0459 17.7584 19.2004L14.5197 20.1443C13.9895 20.2989 13.4344 19.9943 13.2798 19.4641Z" fill="url(#paint0_linear_12508_2022)"/>
<path d="M16 0.867155H16.0006C24.3584 0.867155 31.1339 7.64256 31.1339 16.0004V16.0011C31.1339 24.3589 24.3584 31.1343 16.0006 31.1343H16C7.64207 31.1343 0.866667 24.3589 0.866667 16.0011V16.0004C0.866667 7.64256 7.64207 0.867155 16 0.867155Z" stroke="#6AE0C3" stroke-width="1.73333"/>
<path d="M25.398 18.7961C21.7517 18.7961 18.7957 21.752 18.7957 25.3982C18.7957 29.0445 21.7515 32.0005 25.3977 32.0005C29.0439 32.0005 32 29.0446 32 25.3985C32 21.7522 29.0441 18.7961 25.398 18.7961Z" fill="black"/>
<mask id="mask0_12508_2022" style="mask-type:luminance" maskUnits="userSpaceOnUse" x="21" y="21" width="9" height="9">
<path d="M29.5018 21.2943H21.2938V29.5023H29.5018V21.2943Z" fill="white"/>
</mask>
<g mask="url(#mask0_12508_2022)">
<path d="M26.1778 25.397C26.1778 25.862 25.797 26.2389 25.3274 26.2389C24.8576 26.2389 24.4768 25.862 24.4768 25.397C24.4768 24.9321 24.8576 24.5552 25.3274 24.5552C25.797 24.5552 26.1778 24.9321 26.1778 25.397Z" fill="#FF7C2B"/>
<path d="M25.329 22.0607C23.8233 22.0607 22.5481 23.0377 22.1151 24.3863H21.3105C21.7659 22.6093 23.3924 21.2946 25.329 21.2947C27.6185 21.2947 29.4746 23.132 29.4746 25.3985C29.4746 27.6651 27.6185 29.5024 25.329 29.5024C23.4024 29.5024 21.7826 28.2013 21.3176 26.4382H22.124C22.5269 27.656 23.6185 28.5652 24.9429 28.7147V27.6637C23.8447 27.4817 23.0077 26.5368 23.0077 25.3985C23.0077 24.13 24.0472 23.1017 25.3293 23.1017C26.2445 23.1017 27.0361 23.6256 27.4142 24.3868H26.4912C26.2076 24.0683 25.7921 23.8673 25.3293 23.8673C24.4745 23.8673 23.7816 24.5528 23.7816 25.3985C23.7816 26.2443 24.4745 26.9298 25.3293 26.9298C25.7788 26.9298 26.1835 26.7403 26.4662 26.4376H27.4005C27.0735 27.0741 26.4557 27.5397 25.7201 27.663V28.7142C27.3981 28.5223 28.7008 27.111 28.7008 25.3985C28.7008 23.5552 27.1912 22.0607 25.329 22.0607Z" fill="white"/>
</g>
</g>
<defs>
<linearGradient id="paint0_linear_12508_2022" x1="0" y1="0.000488281" x2="0" y2="32.0005" gradientUnits="userSpaceOnUse">
<stop stop-color="#F7CF62"/>
<stop offset="1" stop-color="#F7931A"/>
</linearGradient>
<clipPath id="clip0_12508_2022">
<rect width="32" height="32" fill="white" transform="translate(0 0.000488281)"/>
</clipPath>
</defs>
</svg>
