<svg width="32" height="32" viewBox="0 0 32 32" fill="none" xmlns="http://www.w3.org/2000/svg">
<path d="M16 0.866667H16.0006C24.3584 0.866667 31.1339 7.64207 31.1339 16V16.0006C31.1339 24.3584 24.3584 31.1339 16.0006 31.1339H16C7.64207 31.1339 0.866667 24.3584 0.866667 16.0006V16C0.866667 7.64207 7.64207 0.866667 16 0.866667Z" fill="white" stroke="#6AE0C3" stroke-width="1.73333"/>
<path fill-rule="evenodd" clip-rule="evenodd" d="M13.4335 2.83423C7.25737 4.02386 2.5921 9.45756 2.5921 15.9809C2.5921 22.5042 7.25737 27.9379 13.4335 29.1275V27.8727C7.94111 26.7019 3.82167 21.8225 3.82167 15.9809C3.82167 10.1393 7.94111 5.25983 13.4335 4.08903V2.83423ZM18.5511 4.09395V2.83867C24.7158 4.03733 29.3695 9.46564 29.3695 15.9809C29.3695 22.4961 24.7158 27.9244 18.5511 29.1231V27.8678C24.0319 26.6883 28.1399 21.8143 28.1399 15.9809C28.1399 10.1474 24.0319 5.27343 18.5511 4.09395Z" fill="black"/>
<path d="M17.8883 15.5335C18.9098 15.7282 19.7022 16.1037 20.2654 16.66C20.8285 17.2023 21.1101 17.8976 21.1101 18.7459V20.081C21.1101 21.0961 20.7434 21.9166 20.01 22.5424C19.2766 23.1543 18.3139 23.4602 17.1221 23.4602H16.7096V25.5879H15.2951V23.4602H14.8629C14.0771 23.4602 13.383 23.2864 12.7805 22.9387C12.1781 22.5772 11.7066 22.0765 11.3661 21.4368C11.0386 20.7832 10.8749 20.0323 10.8749 19.184H12.2894C12.2894 20.0462 12.5251 20.7485 12.9966 21.2908C13.4812 21.8193 14.1164 22.0835 14.9022 22.0835H17.0828C17.8556 22.0835 18.4777 21.9027 18.9491 21.5411C19.4206 21.1657 19.6564 20.6789 19.6564 20.081V18.7459C19.6564 18.2731 19.4796 17.8698 19.1259 17.5361C18.7854 17.2023 18.3139 16.9868 17.7115 16.8894L14.1753 16.2636C13.18 16.0828 12.4073 15.7074 11.8572 15.1372C11.3071 14.567 11.0321 13.8509 11.0321 12.9887V11.8622C11.0321 10.8471 11.3857 10.0405 12.0929 9.4425C12.8133 8.83061 13.7628 8.52467 14.9415 8.52467H15.2951V6.39697H16.7096V8.52467H17.1614C18.2747 8.52467 19.1718 8.88624 19.8528 9.60937C20.5339 10.3186 20.8744 11.2573 20.8744 12.4254H19.4599C19.4599 11.6606 19.2504 11.0487 18.8313 10.5898C18.4122 10.1309 17.8556 9.90141 17.1614 9.90141H14.9415C14.195 9.90141 13.5991 10.0822 13.1538 10.4438C12.7085 10.7914 12.4859 11.2642 12.4859 11.8622V12.9887C12.4859 13.4754 12.6496 13.8856 12.977 14.2194C13.3175 14.5531 13.7824 14.7756 14.3718 14.8869L17.8883 15.5335Z" fill="black"/>
</svg>
