<svg width="32" height="32" viewBox="0 0 32 32" fill="none" xmlns="http://www.w3.org/2000/svg"><g clip-path="url(#clip0_12290_80)"><path d="M20.4001 18.5332C20.4001 16.1999 19.0001 15.3999 16.2001 15.0666C14.2001 14.7999 13.8001 14.2666 13.8001 13.3332C13.8001 12.3997 14.4668 11.7999 15.8001 11.7999C17.0001 11.7999 17.6668 12.1999 18.0001 13.1999C18.0668 13.3999 18.2668 13.5332 18.4668 13.5332H19.5334C19.8001 13.5332 20.0001 13.3332 20.0001 13.0666V12.9999C19.7334 11.5332 18.5334 10.3999 17.0001 10.2666V8.66662C17.0001 8.3999 16.8001 8.1999 16.4668 8.13318H15.4668C15.2001 8.13318 15.0001 8.33318 14.9334 8.66662V10.1999C12.9334 10.4666 11.6668 11.7999 11.6668 13.4666C11.6668 15.6666 13.0001 16.5332 15.8001 16.8666C17.6668 17.1999 18.2668 17.5999 18.2668 18.6666C18.2668 19.7333 17.3334 20.4666 16.0668 20.4666C14.3334 20.4666 13.7334 19.7332 13.5334 18.7332C13.4668 18.4666 13.2668 18.3332 13.0668 18.3332H11.9334C11.6668 18.3332 11.4668 18.5332 11.4668 18.7999V18.8666C11.7334 20.5332 12.8001 21.7332 15.0001 22.0666V23.6666C15.0001 23.9332 15.2001 24.1332 15.5334 24.1999H16.5334C16.8001 24.1999 17.0001 23.9999 17.0668 23.6666V22.0666C19.0668 21.7332 20.4001 20.3332 20.4001 18.5332Z" fill="white"/><path fill-rule="evenodd" clip-rule="evenodd" d="M32 16C32 24.8667 24.8667 32 16 32C7.13328 32 0 24.8667 0 16C0 7.13328 7.13328 0 16 0C18.0764 0 20.0577 0.391173 21.8746 1.10418C20.1406 2.2715 19 4.25255 19 6.5C19 10.0899 21.9101 13 25.5 13C27.7475 13 29.7285 11.8594 30.8958 10.1254C31.6088 11.9423 32 13.9236 32 16Z" fill="#2775CA"/><path d="M19.4001 25.5191C22.1334 24.5191 24.3334 22.3858 25.3334 19.5858C26.1588 17.3942 26.1458 15.0812 25.4552 13.0045C25.7507 13.0086 26.5766 12.9494 27.5165 12.6802C29.4079 18.9662 25.9464 25.6028 19.6668 27.5858C19.6001 27.6524 19.4668 27.6524 19.4001 27.6524C19.1334 27.5858 19.0001 27.3858 19.0001 27.1191V26.1858C19.0001 25.8524 19.1334 25.6524 19.4001 25.5191Z" fill="white"/><path d="M20.4001 18.5332C20.4001 16.1999 19.0001 15.3999 16.2001 15.0666C14.2001 14.7999 13.8001 14.2666 13.8001 13.3332C13.8001 12.3997 14.4668 11.7999 15.8001 11.7999C17.0001 11.7999 17.6668 12.1999 18.0001 13.1999C18.0668 13.3999 18.2668 13.5332 18.4668 13.5332H19.5334C19.8001 13.5332 20.0001 13.3332 20.0001 13.0666V12.9999C19.7334 11.5332 18.5334 10.3999 17.0001 10.2666V8.66662C17.0001 8.3999 16.8001 8.1999 16.4668 8.13318H15.4668C15.2001 8.13318 15.0001 8.33318 14.9334 8.66662V10.1999C12.9334 10.4666 11.6668 11.7999 11.6668 13.4666C11.6668 15.6666 13.0001 16.5332 15.8001 16.8666C17.6668 17.1999 18.2668 17.5999 18.2668 18.6666C18.2668 19.7333 17.3334 20.4666 16.0668 20.4666C14.3334 20.4666 13.7334 19.7332 13.5334 18.7332C13.4668 18.4666 13.2668 18.3332 13.0668 18.3332H11.9334C11.6668 18.3332 11.4668 18.5332 11.4668 18.7999V18.8666C11.7334 20.5332 12.8001 21.7332 15.0001 22.0666V23.6666C15.0001 23.9332 15.2001 24.1332 15.5334 24.1999H16.5334C16.8001 24.1999 17.0001 23.9999 17.0668 23.6666V22.0666C19.0668 21.7332 20.4001 20.3332 20.4001 18.5332Z" fill="white"/><path d="M12.6001 25.5334C7.40014 23.6668 4.73342 17.8668 6.66686 12.7334C7.66686 9.93337 9.86686 7.80009 12.6001 6.80009C12.8669 6.66681 13.0001 6.46681 13.0001 6.13337V5.20009C13.0001 4.93337 12.8669 4.73337 12.6001 4.66681C12.5334 4.66681 12.4001 4.66681 12.3334 4.73337C6.00014 6.73337 2.53342 13.4668 4.53342 19.8001C5.73342 23.5334 8.60014 26.4001 12.3334 27.6001C12.6001 27.7334 12.8669 27.6001 12.9334 27.3334C13.0001 27.2668 13.0001 27.2001 13.0001 27.0668V26.1334C13.0001 25.9334 12.8001 25.6668 12.6001 25.5334Z" fill="white"/><path fill-rule="evenodd" clip-rule="evenodd" d="M29.6473 3.2883L29.1002 3.83386C29.0174 3.91644 29.0056 4.04519 29.0698 4.14288C29.2702 4.44826 29.4298 4.77699 29.5459 5.12108L29.5473 5.11966C29.6955 5.55877 29.7722 6.02207 29.7722 6.48986C29.7722 8.85301 27.8445 10.7755 25.475 10.7755C24.7619 10.7755 24.0769 10.6047 23.461 10.2769L24.3882 9.35227C24.7341 9.48308 25.1028 9.55103 25.475 9.55103C27.1675 9.55103 28.5444 8.17781 28.5444 6.48986C28.5444 6.38442 28.5381 6.27865 28.527 6.17317C28.4901 5.81834 28.3918 5.47433 28.2374 5.1559C28.1637 5.00388 27.9617 4.9693 27.8419 5.08876L27.2866 5.6426C27.2266 5.70243 27.2018 5.78901 27.2211 5.87146L27.2677 6.07031C27.3002 6.20896 27.3166 6.35016 27.3166 6.48986C27.3166 7.50265 26.4905 8.32656 25.475 8.32656C25.1554 8.32656 24.8401 8.24301 24.5632 8.08485L24.3189 7.94526C24.2227 7.89032 24.1016 7.9064 24.0232 7.98457L21.7593 10.2423C21.6544 10.3469 21.6658 10.5197 21.7835 10.6098L22.117 10.8648C23.0881 11.6075 24.2494 12 25.475 12C28.5215 12 31 9.52813 31 6.48986C31 5.53065 30.7487 4.58566 30.2734 3.75706L30.034 3.33985C29.9878 3.25926 29.9047 3.21655 29.8206 3.21655C29.7585 3.21655 29.6959 3.23982 29.6473 3.2883Z" fill="url(#paint0_linear_12290_80)"/><path fill-rule="evenodd" clip-rule="evenodd" d="M25.5491 1C22.4893 1 20 3.47182 20 6.51008C20 7.46942 20.2523 8.41445 20.7297 9.24292L20.9701 9.66013C21.0509 9.80024 21.2436 9.82581 21.3586 9.71168L21.9079 9.16621C21.9911 9.08363 22.0029 8.95496 21.9386 8.85723C21.7375 8.55205 21.5769 8.22307 21.4604 7.87899L21.459 7.88032C21.3101 7.44122 21.2331 6.97795 21.2331 6.51008C21.2331 4.14702 23.1693 2.22444 25.5491 2.22444C26.2652 2.22444 26.9531 2.39525 27.5718 2.72309L26.6406 3.64772C26.2931 3.51691 25.9228 3.44891 25.5491 3.44891C23.8491 3.44891 22.4663 4.82218 22.4663 6.51008C22.4663 6.56119 22.4681 6.61233 22.4707 6.66348C22.4716 6.68009 22.4727 6.69661 22.4738 6.71317C22.4765 6.75309 22.48 6.793 22.4843 6.83288C22.522 7.18476 22.6207 7.52707 22.7748 7.84388C22.8488 7.99595 23.0517 8.03045 23.1719 7.91098L23.7295 7.35743C23.7897 7.29756 23.8146 7.21098 23.7952 7.12856L23.7484 6.92963C23.7159 6.79114 23.6994 6.65003 23.6994 6.51008C23.6994 5.49734 24.5291 4.67339 25.5491 4.67339C25.87 4.67339 26.1866 4.75698 26.4646 4.9151L26.7101 5.05476C26.8067 5.10975 26.9284 5.09359 27.0071 5.01545L29.2808 2.75771C29.3862 2.65304 29.3748 2.48025 29.2565 2.3902L28.9216 2.13523C27.9461 1.39256 26.7799 1 25.5491 1Z" fill="url(#paint1_linear_12290_80)"/></g><defs><linearGradient id="paint0_linear_12290_80" x1="768.085" y1="183.891" x2="61.9654" y2="874.265" gradientUnits="userSpaceOnUse"><stop stop-color="#5FBFFF"/><stop offset="1" stop-color="#B090F5"/></linearGradient><linearGradient id="paint1_linear_12290_80" x1="20" y1="827.478" x2="1007.74" y2="-139.149" gradientUnits="userSpaceOnUse"><stop stop-color="#68D7FA"/><stop offset="1" stop-color="#7EF1B3"/></linearGradient><clipPath id="clip0_12290_80"><rect width="32" height="32" fill="white"/></clipPath></defs></svg>
