<svg width="24" height="24" viewBox="0 0 24 24" fill="none" xmlns="http://www.w3.org/2000/svg">
<g clip-path="url(#clip0_10784_8735)">
<circle cx="12" cy="12" r="12" fill="#181D27"/>
<mask id="mask0_10784_8735" style="mask-type:alpha" maskUnits="userSpaceOnUse" x="0" y="0" width="24" height="24">
<circle cx="12" cy="12" r="11.5" fill="#181D27" stroke="white"/>
</mask>
<g mask="url(#mask0_10784_8735)">
<path opacity="0.8" fill-rule="evenodd" clip-rule="evenodd" d="M11.9998 27.0794L0.36002 3.36864L3.38965 1.88136L11.9998 19.4206L20.61 1.88137L23.6397 3.36864L11.9998 27.0794Z" fill="white"/>
</g>
<circle opacity="0.8" cx="12" cy="12" r="10.5" fill="url(#paint0_linear_10784_8735)"/>
<circle cx="12" cy="12" r="9" fill="#181D27"/>
<path d="M9.28992 11.96C9.26432 12.4048 9.6067 12.7856 10.0515 12.8112C10.0675 12.8112 10.0835 12.8112 10.0995 12.8112C10.5475 12.8112 10.909 12.4496 10.9058 12.0016C10.9058 11.5537 10.5443 11.1921 10.0963 11.1953C9.6675 11.1953 9.31232 11.5313 9.28992 11.96Z" fill="white"/>
<path d="M6.27545 11.752C6.13146 11.7424 6.00667 11.8544 6.00027 11.9984C5.99387 12.1424 6.10266 12.2672 6.24666 12.2736C6.39065 12.2832 6.51224 12.1712 6.52184 12.0272C6.53144 11.8832 6.41945 11.7616 6.27545 11.752Z" fill="white"/>
<path d="M9.23842 7.26908C9.36641 7.20508 9.41761 7.04509 9.35361 6.9171C9.28962 6.78911 9.12963 6.73791 9.00163 6.8019C8.87364 6.8659 8.82244 7.02269 8.88644 7.15069C8.95043 7.28188 9.10723 7.33628 9.23842 7.26908C9.23842 7.26908 9.23522 7.26908 9.23842 7.26908Z" fill="white"/>
<path d="M10.058 8.69942C10.2563 8.60023 10.3363 8.35704 10.2371 8.15865C10.138 7.96026 9.89476 7.88027 9.69637 7.97946C9.49798 8.07866 9.41799 8.32184 9.51718 8.52023C9.61638 8.71862 9.85957 8.79862 10.058 8.69942Z" fill="white"/>
<path d="M7.29959 9.68175C7.45318 9.78094 7.65797 9.73935 7.76037 9.58575C7.85956 9.43216 7.81797 9.22737 7.66437 9.12498C7.51078 9.02578 7.30599 9.06738 7.2036 9.22097C7.1012 9.37456 7.146 9.58255 7.29959 9.68175Z" fill="white"/>
<path d="M7.78905 11.6081C7.56506 11.5953 7.37627 11.7648 7.36347 11.9888C7.35067 12.2128 7.52026 12.4016 7.74425 12.4144C7.96824 12.4272 8.15703 12.2576 8.16983 12.0336C8.18263 11.8128 8.01304 11.6209 7.78905 11.6081Z" fill="white"/>
<path d="M7.34409 14.3183C7.1809 14.4015 7.1137 14.5999 7.1969 14.7663C7.28009 14.9295 7.47848 14.9967 7.64487 14.9135C7.80807 14.8303 7.87526 14.6319 7.79207 14.4655C7.70887 14.3023 7.50728 14.2351 7.34409 14.3183Z" fill="white"/>
<path d="M8.91188 10.7729C9.13267 10.9169 9.42706 10.8561 9.56785 10.6353C9.71184 10.4145 9.65105 10.1201 9.43026 9.97934C9.20947 9.83535 8.91508 9.89615 8.77429 10.1169C8.6303 10.3345 8.6911 10.6289 8.91188 10.7729Z" fill="white"/>
<path d="M13.888 8.66741C14.0736 8.78901 14.3263 8.73781 14.4479 8.55222C14.5695 8.36663 14.5183 8.11384 14.3327 7.99225C14.1472 7.87065 13.8944 7.92185 13.7728 8.10744C13.648 8.29623 13.6992 8.54582 13.888 8.66741Z" fill="white"/>
<path d="M14.7132 7.24349C14.8348 7.32348 14.9948 7.28828 15.0748 7.16669C15.1548 7.0451 15.1196 6.8851 14.998 6.80511C14.8764 6.72511 14.7164 6.76031 14.6364 6.8787C14.5596 7.0003 14.5948 7.16349 14.7132 7.24349Z" fill="white"/>
<path d="M13.9487 11.1889C13.5039 11.1633 13.1199 11.5057 13.0975 11.9504C13.0719 12.3952 13.4143 12.7792 13.8591 12.8016C13.8751 12.8016 13.8911 12.8016 13.9039 12.8016C14.3487 12.8016 14.7103 12.44 14.7103 11.992C14.7135 11.5665 14.3775 11.2113 13.9487 11.1889Z" fill="white"/>
<path d="M10.3235 10.7153C10.4611 10.9873 10.7394 11.1601 11.0466 11.1601C11.4914 11.1601 11.853 10.7985 11.853 10.3505C11.853 10.2257 11.8242 10.1009 11.7666 9.98574C11.565 9.58576 11.0786 9.42576 10.6818 9.62735C10.2819 9.83214 10.1219 10.3185 10.3235 10.7153Z" fill="white"/>
<path d="M16.6555 9.68175C16.8187 9.59856 16.8826 9.39697 16.7995 9.23378C16.7163 9.07059 16.5147 9.00659 16.3515 9.08978C16.1883 9.17298 16.1243 9.37137 16.2043 9.53456C16.2907 9.69775 16.4891 9.76495 16.6555 9.68175Z" fill="white"/>
<path d="M14.6077 9.93775C14.3741 10.0561 14.2781 10.3409 14.3965 10.5745C14.5149 10.8081 14.7997 10.9041 15.0333 10.7857C15.2668 10.6673 15.3628 10.3825 15.2444 10.1489C15.1261 9.91535 14.8413 9.82255 14.6077 9.93775Z" fill="white"/>
<path d="M11.9679 7.12189C12.1502 7.13149 12.307 6.99069 12.3198 6.8083C12.3326 6.62591 12.1886 6.46912 12.0063 6.45632C11.8239 6.44672 11.6671 6.58432 11.6543 6.76671C11.6447 6.9523 11.7855 7.10909 11.9679 7.12189Z" fill="white"/>
<path d="M11.9647 9.21138C12.2271 9.22738 12.4511 9.02579 12.4639 8.7634C12.4799 8.50102 12.2783 8.27703 12.0159 8.26423C11.7535 8.24823 11.5295 8.44982 11.5167 8.71221C11.5039 8.97459 11.7023 9.19858 11.9647 9.21138Z" fill="white"/>
<path d="M9.39214 14.0623C9.62573 13.9439 9.72173 13.6592 9.60333 13.4256C9.48494 13.192 9.20015 13.096 8.96657 13.2144C8.73298 13.3328 8.63698 13.6176 8.75538 13.8511C8.87377 14.0847 9.15856 14.1807 9.39214 14.0623Z" fill="white"/>
<path d="M12.2719 9.90575C12.0287 10.2801 12.1311 10.7793 12.5055 11.0225C12.8799 11.2657 13.379 11.1633 13.6222 10.7889C13.8654 10.4145 13.763 9.91534 13.3886 9.67216C13.2574 9.58576 13.1038 9.54096 12.9471 9.54096C12.6751 9.54096 12.4223 9.67856 12.2719 9.90575Z" fill="white"/>
<path d="M13.6767 13.2848C13.4752 12.8848 12.9888 12.7248 12.592 12.9264C12.192 13.128 12.032 13.6144 12.2336 14.0111C12.4352 14.4111 12.9216 14.5711 13.3184 14.3695C13.7151 14.1711 13.8783 13.6912 13.6799 13.2912C13.6799 13.288 13.6799 13.288 13.6767 13.2848Z" fill="white"/>
<path d="M15.088 13.2272C14.8672 13.0832 14.5728 13.144 14.432 13.3648C14.288 13.5856 14.3488 13.8799 14.5696 14.0207C14.7904 14.1647 15.0848 14.1039 15.2256 13.8831C15.3696 13.6655 15.3088 13.3712 15.088 13.2272Z" fill="white"/>
<path d="M16.6366 12.0144C16.6494 11.7904 16.4798 11.6016 16.2558 11.5888C16.0319 11.576 15.8431 11.7456 15.8303 11.9696C15.8175 12.1936 15.9871 12.3824 16.211 12.3952C16.4318 12.408 16.6238 12.2352 16.6366 12.0144Z" fill="white"/>
<path d="M17.7535 11.7264C17.6095 11.7168 17.4847 11.8288 17.4783 11.9728C17.4719 12.1168 17.5807 12.2416 17.7247 12.248C17.8687 12.2576 17.9903 12.1456 17.9999 12.0016C18.0063 11.8576 17.8975 11.736 17.7535 11.7264Z" fill="white"/>
<path d="M16.7006 14.3183C16.547 14.2192 16.3422 14.2607 16.2398 14.4143C16.1406 14.5679 16.1822 14.7727 16.3358 14.8751C16.4894 14.9743 16.6942 14.9327 16.7966 14.7791C16.8989 14.6255 16.8542 14.4175 16.7006 14.3183Z" fill="white"/>
<path d="M9.28311 16.7566C9.16152 16.6766 9.00153 16.7118 8.92153 16.8302C8.84153 16.9518 8.87673 17.1118 8.99513 17.1918C9.11672 17.2718 9.27671 17.2366 9.35671 17.1182C9.4399 16.9998 9.4047 16.8366 9.28311 16.7566Z" fill="white"/>
<path d="M14.7614 16.731C14.6334 16.795 14.5822 16.955 14.6462 17.083C14.7102 17.211 14.8702 17.2622 14.9982 17.1982C15.1262 17.1342 15.1774 16.9774 15.1134 16.8494C15.0494 16.7182 14.8926 16.6638 14.7614 16.731C14.7646 16.731 14.7614 16.731 14.7614 16.731Z" fill="white"/>
<path d="M11.7279 14.0943C11.9711 13.7199 11.8687 13.2208 11.4943 12.9744C11.1199 12.7312 10.6208 12.8336 10.3744 13.208C10.128 13.5824 10.2336 14.0815 10.608 14.3279C10.7392 14.4143 10.8927 14.4591 11.0495 14.4591C11.3247 14.4623 11.5775 14.3247 11.7279 14.0943Z" fill="white"/>
<path d="M10.1123 15.3327C9.92666 15.2111 9.67388 15.2623 9.55228 15.4479C9.43069 15.6335 9.48189 15.8862 9.66748 16.0078C9.85307 16.1294 10.1059 16.0782 10.2274 15.8926C10.3522 15.707 10.301 15.4543 10.1123 15.3327Z" fill="white"/>
<path d="M11.9968 16.8782C11.8144 16.8686 11.6576 17.0094 11.6448 17.1918C11.632 17.3742 11.776 17.531 11.9584 17.5438C12.1408 17.5534 12.2976 17.4158 12.3104 17.2334C12.32 17.0478 12.1792 16.891 11.9968 16.8782Z" fill="white"/>
<path d="M12.0001 14.7887C11.7377 14.7727 11.5137 14.9743 11.5009 15.2367C11.4849 15.4991 11.6865 15.723 11.9489 15.7358C12.2113 15.7486 12.4352 15.5502 12.448 15.2879C12.464 15.0287 12.2625 14.8015 12.0001 14.7887Z" fill="white"/>
<path d="M13.9423 15.3007C13.7439 15.4031 13.6639 15.6463 13.7663 15.8446C13.8687 16.043 14.1119 16.123 14.3103 16.0206C14.5087 15.9214 14.5887 15.6783 14.4895 15.4799C14.3871 15.2815 14.1439 15.1983 13.9423 15.3007Z" fill="white"/>
</g>
<defs>
<linearGradient id="paint0_linear_10784_8735" x1="22.2313" y1="18.1183" x2="-3.53296" y2="2.62136" gradientUnits="userSpaceOnUse">
<stop stop-color="#5433FF"/>
<stop offset="0.5" stop-color="#20BDFF"/>
<stop offset="1" stop-color="#5CFFA2"/>
</linearGradient>
<clipPath id="clip0_10784_8735">
<rect width="24" height="24" fill="white"/>
</clipPath>
</defs>
</svg>
