<svg width="24" height="24" viewBox="0 0 24 24" fill="none" xmlns="http://www.w3.org/2000/svg">
<g clip-path="url(#clip0_12361_1125)">
<circle cx="12" cy="12" r="12" fill="#181D27"/>
<mask id="mask0_12361_1125" style="mask-type:alpha" maskUnits="userSpaceOnUse" x="0" y="0" width="24" height="24">
<circle cx="12" cy="12" r="11.5" fill="#181D27" stroke="white"/>
</mask>
<g mask="url(#mask0_12361_1125)">
<path opacity="0.8" fill-rule="evenodd" clip-rule="evenodd" d="M11.9998 27.0793L0.36002 3.36861L3.38965 1.88134L11.9998 19.4206L20.61 1.88134L23.6397 3.36861L11.9998 27.0793Z" fill="white"/>
</g>
<circle opacity="0.8" cx="12" cy="12" r="10.5" fill="#5CFFA2"/>
<circle cx="12" cy="12" r="9" fill="#181D27"/>
<g clip-path="url(#clip1_12361_1125)">
<path fill-rule="evenodd" clip-rule="evenodd" d="M12.7773 6.18L16.62 8.19C17.1773 8.49 17.5293 9.06 17.5293 9.72V10.65H16.1213V9.72C16.1213 9.63 16.0627 9.54 15.9747 9.48L12.132 7.47C12.0733 7.44 11.9853 7.44 11.8973 7.47L8.05467 9.48C7.96667 9.51 7.908 9.6 7.908 9.72V10.65H6.5V9.72C6.5 9.09 6.852 8.49 7.40933 8.19L11.252 6.18C11.7213 5.94 12.2787 5.94 12.7773 6.18ZM13.2173 11.94C13.2173 11.25 12.66 10.71 12.0147 10.71C11.34 10.71 10.812 11.25 10.812 11.94C10.812 12.63 11.3693 13.17 12.0147 13.17C12.66 13.17 13.2173 12.63 13.2173 11.94ZM15.9453 14.52C16.0333 14.49 16.092 14.4 16.092 14.28V13.35H17.5V14.28C17.5 14.91 17.148 15.51 16.5907 15.81L12.748 17.82C12.5133 17.94 12.2493 18 11.9853 18C11.7213 18 11.4573 17.94 11.2227 17.82L7.40933 15.81C6.852 15.51 6.5 14.94 6.5 14.28V13.35H7.908V14.28C7.908 14.37 7.96667 14.46 8.05467 14.52L11.3107 16.2V14.52C10.196 14.19 9.404 13.17 9.404 11.94C9.404 10.47 10.5773 9.24 12.044 9.24C13.4813 9.24 14.684 10.44 14.684 11.94C14.684 13.17 13.8627 14.22 12.7773 14.52V16.2L15.9453 14.52Z" fill="white"/>
</g>
</g>
<defs>
<clipPath id="clip0_12361_1125">
<rect width="24" height="24" fill="white"/>
</clipPath>
<clipPath id="clip1_12361_1125">
<rect width="11" height="12" fill="white" transform="translate(6.5 6)"/>
</clipPath>
</defs>
</svg>
