<svg width="24" height="24" viewBox="0 0 24 24" fill="none" xmlns="http://www.w3.org/2000/svg">
<g clip-path="url(#clip0_12392_532)">
<circle cx="12" cy="12" r="12" fill="#181D27"/>
<mask id="mask0_12392_532" style="mask-type:alpha" maskUnits="userSpaceOnUse" x="0" y="0" width="24" height="24">
<circle cx="12" cy="12" r="11.5" fill="#181D27" stroke="white"/>
</mask>
<g mask="url(#mask0_12392_532)">
<path opacity="0.8" fill-rule="evenodd" clip-rule="evenodd" d="M11.9998 27.0793L0.36002 3.36861L3.38965 1.88134L11.9998 19.4206L20.61 1.88134L23.6397 3.36861L11.9998 27.0793Z" fill="white"/>
</g>
<circle opacity="0.8" cx="12" cy="12" r="10.5" fill="#2CDFFF"/>
<circle cx="12" cy="12" r="9" fill="#181D27"/>
<g clip-path="url(#clip1_12392_532)">
<path d="M13.0364 13.064L12.3588 14.9232C12.342 14.9736 12.342 15.0296 12.3588 15.0856L13.5236 18.2832L14.8732 17.5048L13.2548 13.064C13.2156 12.9632 13.0756 12.9632 13.0364 13.064Z" fill="#C6C8CC"/>
<path d="M14.3974 9.93925C14.3582 9.83845 14.2182 9.83845 14.179 9.93925L13.5014 11.7984C13.4846 11.8488 13.4846 11.9048 13.5014 11.9608L15.411 17.1968L16.7606 16.4184L14.3974 9.94485V9.93925Z" fill="#C6C8CC"/>
<path d="M12.0002 5.868C12.0338 5.868 12.0674 5.8792 12.0954 5.896L17.2362 8.864C17.2978 8.8976 17.3314 8.9648 17.3314 9.032V14.968C17.3314 15.0352 17.2922 15.1024 17.2362 15.136L12.0954 18.104C12.0674 18.1208 12.0338 18.132 12.0002 18.132C11.9666 18.132 11.933 18.1208 11.905 18.104L6.76421 15.136C6.70261 15.1024 6.66901 15.0352 6.66901 14.968V9.0264C6.66901 8.9592 6.70821 8.892 6.76421 8.8584L11.905 5.8904C11.933 5.8736 11.9666 5.8624 12.0002 5.8624V5.868ZM12.0002 5C11.8154 5 11.6362 5.0448 11.4682 5.14L6.32741 8.108C5.99701 8.2984 5.79541 8.6456 5.79541 9.0264V14.9624C5.79541 15.3432 5.99701 15.6904 6.32741 15.8808L11.4682 18.8488C11.6306 18.944 11.8154 18.9888 12.0002 18.9888C12.185 18.9888 12.3642 18.944 12.5322 18.8488L17.673 15.8808C18.0034 15.6904 18.205 15.3432 18.205 14.9624V9.0264C18.205 8.6456 18.0034 8.2984 17.673 8.108L12.5266 5.14C12.3642 5.0448 12.1794 5 11.9946 5H12.0002Z" fill="white"/>
<path d="M11.5632 8.60643H10.2584C10.1632 8.60643 10.0736 8.66803 10.04 8.75763L7.24561 16.4184L8.59521 17.1968L11.6752 8.75763C11.7032 8.67923 11.6472 8.60083 11.5688 8.60083L11.5632 8.60643Z" fill="white"/>
<path d="M13.848 8.60643H12.5432C12.448 8.60643 12.3584 8.66803 12.3248 8.75763L9.13281 17.5048L10.4824 18.2832L13.9544 8.75763C13.9824 8.67923 13.9264 8.60083 13.848 8.60083V8.60643Z" fill="white"/>
</g>
</g>
<defs>
<clipPath id="clip0_12392_532">
<rect width="24" height="24" fill="white"/>
</clipPath>
<clipPath id="clip1_12392_532">
<rect width="14" height="14" fill="white" transform="translate(5 5)"/>
</clipPath>
</defs>
</svg>
