<svg width="24" height="24" viewBox="0 0 24 24" fill="none" xmlns="http://www.w3.org/2000/svg">
<g clip-path="url(#clip0_10784_8736)">
<circle cx="12" cy="12" r="12" fill="#181D27"/>
<mask id="mask0_10784_8736" style="mask-type:alpha" maskUnits="userSpaceOnUse" x="0" y="0" width="24" height="24">
<circle cx="12" cy="12" r="11.5" fill="#181D27" stroke="white"/>
</mask>
<g mask="url(#mask0_10784_8736)">
<path opacity="0.8" fill-rule="evenodd" clip-rule="evenodd" d="M11.9998 27.0794L0.36002 3.36864L3.38965 1.88136L11.9998 19.4206L20.61 1.88137L23.6397 3.36864L11.9998 27.0794Z" fill="white"/>
</g>
<circle opacity="0.8" cx="12" cy="12" r="10.5" fill="url(#paint0_linear_10784_8736)"/>
<circle cx="12" cy="12" r="9" fill="#181D27"/>
<path d="M14.8805 9.01258C14.43 7.97918 13.3948 7.75823 12.1276 7.97228L11.7203 6.375L10.7602 6.62587L11.1606 8.21855C10.9081 8.28299 10.6487 8.33823 10.3917 8.41188L9.99124 6.82841L9.03115 7.07928L9.43839 8.67655C9.23136 8.7364 7.5 9.1852 7.5 9.1852L7.76391 10.2255C7.76391 10.2255 8.4692 10.0253 8.46237 10.0414C8.85369 9.93781 9.03797 10.1357 9.12443 10.3222L10.2438 14.6997C10.2574 14.8263 10.2347 15.0427 9.96622 15.1163C9.98214 15.1255 9.26776 15.2981 9.26776 15.2981L9.37241 16.511C9.37241 16.511 11.0878 16.0668 11.3131 16.0093L11.7249 17.625L12.685 17.3741L12.2732 15.7469C12.5371 15.6848 12.7942 15.6203 13.0444 15.5536L13.454 17.1716L14.4141 16.9207L14.0023 15.3073C15.4811 14.9437 16.5254 14.0001 16.3115 12.557C16.175 11.687 15.2354 10.9735 14.455 10.893C14.9351 10.4626 15.1785 9.83424 14.8805 9.01258ZM14.4186 12.8217C14.6097 14.2509 12.6463 14.4258 11.9979 14.5985L11.4337 12.4603C12.0843 12.2877 14.0955 11.5627 14.4186 12.8217ZM13.2355 9.91019C13.438 11.1806 11.759 11.3279 11.2175 11.4683L10.7034 9.52813C11.2471 9.39234 12.8238 8.73409 13.2355 9.91019Z" fill="white"/>
</g>
<defs>
<linearGradient id="paint0_linear_10784_8736" x1="22.2313" y1="18.1183" x2="-3.53296" y2="2.62136" gradientUnits="userSpaceOnUse">
<stop stop-color="#5433FF"/>
<stop offset="0.5" stop-color="#20BDFF"/>
<stop offset="1" stop-color="#5CFFA2"/>
</linearGradient>
<clipPath id="clip0_10784_8736">
<rect width="24" height="24" fill="white"/>
</clipPath>
</defs>
</svg>
