<svg width="24" height="24" viewBox="0 0 24 24" fill="none" xmlns="http://www.w3.org/2000/svg">
<g clip-path="url(#clip0_10784_8741)">
<circle cx="12" cy="12" r="12" fill="#181D27"/>
<mask id="mask0_10784_8741" style="mask-type:alpha" maskUnits="userSpaceOnUse" x="0" y="0" width="24" height="24">
<circle cx="12" cy="12" r="11.5" fill="#181D27" stroke="white"/>
</mask>
<g mask="url(#mask0_10784_8741)">
<path opacity="0.8" fill-rule="evenodd" clip-rule="evenodd" d="M11.9998 27.0794L0.36002 3.36864L3.38965 1.88136L11.9998 19.4206L20.61 1.88137L23.6397 3.36864L11.9998 27.0794Z" fill="white"/>
</g>
<circle opacity="0.8" cx="12" cy="12" r="10.5" fill="url(#paint0_linear_10784_8741)"/>
<circle cx="12" cy="12" r="9" fill="#181D27"/>
<path fill-rule="evenodd" clip-rule="evenodd" d="M8.77759 8.36259C8.63276 7.71344 9.13966 7.10034 9.79138 7.10034C10.3707 7.10034 10.8414 7.56918 10.8414 8.14621V10.5265C11.2034 10.4904 11.5655 10.4543 11.9638 10.4543C12.3259 10.4543 12.6879 10.4904 13.05 10.5265V8.14621C13.05 7.56918 13.5207 7.10034 14.1 7.10034C14.7517 7.10034 15.2586 7.71344 15.15 8.36259L14.6793 10.9592C16.2 11.5363 17.25 12.5461 17.25 13.7001C17.25 15.4673 14.8966 16.9099 12 16.9099C9.10345 16.9099 6.75 15.4673 6.75 13.7001C6.75 12.5461 7.76379 11.5363 9.28448 10.9592L8.77759 8.36259Z" fill="white"/>
<path d="M10.5156 13.4477C10.5156 13.9165 10.2621 14.3132 9.93624 14.3132C9.61038 14.3132 9.35693 13.9165 9.35693 13.4477C9.35693 12.9788 9.61038 12.5821 9.93624 12.5821C10.2621 12.5821 10.5156 12.9788 10.5156 13.4477Z" fill="#1F2028"/>
<path d="M14.5341 13.4477C14.5341 13.9165 14.2807 14.3132 13.9548 14.3132C13.6289 14.3132 13.3755 13.9165 13.3755 13.4477C13.3755 12.9788 13.6289 12.5821 13.9548 12.5821C14.2807 12.5821 14.5341 12.9788 14.5341 13.4477Z" fill="#1F2028"/>
</g>
<defs>
<linearGradient id="paint0_linear_10784_8741" x1="22.2313" y1="18.1183" x2="-3.53296" y2="2.62136" gradientUnits="userSpaceOnUse">
<stop stop-color="#5433FF"/>
<stop offset="0.5" stop-color="#20BDFF"/>
<stop offset="1" stop-color="#5CFFA2"/>
</linearGradient>
<clipPath id="clip0_10784_8741">
<rect width="24" height="24" fill="white"/>
</clipPath>
</defs>
</svg>
