<svg width="24" height="24" viewBox="0 0 24 24" fill="none" xmlns="http://www.w3.org/2000/svg">
<g clip-path="url(#clip0_12573_187)">
<circle cx="12" cy="12" r="12" fill="#181D27"/>
<mask id="mask0_12573_187" style="mask-type:alpha" maskUnits="userSpaceOnUse" x="0" y="0" width="24" height="24">
<circle cx="12" cy="12" r="11.5" fill="#181D27" stroke="white"/>
</mask>
<g mask="url(#mask0_12573_187)">
<path opacity="0.8" fill-rule="evenodd" clip-rule="evenodd" d="M11.9998 27.0793L0.36002 3.36861L3.38965 1.88134L11.9998 19.4206L20.61 1.88134L23.6397 3.36861L11.9998 27.0793Z" fill="white"/>
</g>
<circle opacity="0.8" cx="12" cy="12" r="10.5" fill="#91C2FF"/>
<circle cx="12" cy="12" r="9" fill="#181D27"/>
<path d="M12.0676 18.5808C11.7841 18.5808 11.5402 18.5297 11.3358 18.4275C11.1348 18.3221 10.9799 18.1737 10.8711 17.9826C10.7656 17.7881 10.7129 17.559 10.7129 17.2953V15.0507H11.3655V17.3151C11.3655 17.5261 11.4248 17.6925 11.5435 17.8145C11.6654 17.9364 11.8401 17.9974 12.0676 17.9974C12.295 17.9974 12.468 17.9364 12.5867 17.8145C12.7087 17.6925 12.7696 17.5261 12.7696 17.3151V15.0507H13.4223V17.2953C13.4223 17.559 13.3679 17.7881 13.2591 17.9826C13.1536 18.1737 12.9987 18.3221 12.7944 18.4275C12.5933 18.5297 12.351 18.5808 12.0676 18.5808Z" fill="#D1D2D4"/>
<path d="M14.9141 18.5116V15.0507H16.4171C16.6346 15.0507 16.8241 15.0886 16.9856 15.1644C17.1472 15.2402 17.2724 15.3474 17.3614 15.4858C17.4504 15.6242 17.4949 15.7874 17.4949 15.9753V16.0346C17.4949 16.2422 17.4454 16.4103 17.3466 16.5389C17.2477 16.6674 17.1257 16.7614 16.9807 16.8207V16.9097C17.1125 16.9163 17.2147 16.9624 17.2872 17.0481C17.3597 17.1305 17.396 17.241 17.396 17.3794V18.5116H16.7434V17.4733C16.7434 17.3942 16.722 17.3299 16.6791 17.2805C16.6396 17.2311 16.572 17.2063 16.4764 17.2063H15.5667V18.5116H14.9141ZM15.5667 16.6131H16.3478C16.5028 16.6131 16.6231 16.5719 16.7088 16.4894C16.7978 16.4037 16.8423 16.2917 16.8423 16.1533V16.1038C16.8423 15.9654 16.7994 15.8549 16.7137 15.7725C16.628 15.6869 16.5061 15.644 16.3478 15.644H15.5667V16.6131Z" fill="#D1D2D4"/>
<path d="M17.9999 10.4095L12.2973 4.58636L6.59424 10.4095L9.44549 13.3207L12.2973 10.4095L15.1486 13.3207L17.9999 10.4095Z" fill="white"/>
<path fill-rule="evenodd" clip-rule="evenodd" d="M7.05371 18.5931V14.9693H9.4415V15.7255H7.86927V16.3882H9.30307V17.1445H7.86927V17.8369H9.47117V18.5931H7.05371ZM11.2987 18.5001L11.298 18.4997C11.0836 18.3873 10.917 18.2281 10.8002 18.0229L10.7998 18.0222L10.7994 18.0215C10.6864 17.813 10.6314 17.57 10.6314 17.2954V14.9693H11.4469V17.3152C11.4469 17.51 11.5012 17.654 11.6015 17.7573C11.7037 17.8593 11.8549 17.916 12.0675 17.916C12.2807 17.916 12.4296 17.8591 12.5283 17.7577L12.5291 17.7569C12.6325 17.6535 12.6881 17.5096 12.6881 17.3152V14.9693H13.5037V17.2954C13.5037 17.5703 13.4469 17.8135 13.3303 18.0221C13.2166 18.2281 13.0495 18.3876 12.8317 18.5L12.8312 18.5002C12.6162 18.6095 12.3606 18.6623 12.0675 18.6623C11.7744 18.6623 11.5174 18.6095 11.2994 18.5005L11.2987 18.5001ZM13.2591 17.9826C13.3679 17.7882 13.4223 17.5591 13.4223 17.2954V15.0508H12.7696V17.3152C12.7696 17.5261 12.7087 17.6926 12.5867 17.8145C12.468 17.9365 12.295 17.9974 12.0676 17.9974C11.8402 17.9974 11.6654 17.9365 11.5435 17.8145C11.4248 17.6926 11.3655 17.5261 11.3655 17.3152V15.0508H10.7129V17.2954C10.7129 17.5591 10.7656 17.7882 10.8711 17.9826C10.9799 18.1738 11.1348 18.3221 11.3359 18.4276C11.5402 18.5298 11.7841 18.5808 12.0676 18.5808C12.351 18.5808 12.5933 18.5298 12.7944 18.4276C12.9987 18.3221 13.1536 18.1738 13.2591 17.9826ZM14.8328 18.5931V14.9693H16.4173C16.6442 14.9693 16.8461 15.0088 17.0205 15.0907C17.1947 15.1725 17.3322 15.2894 17.4302 15.4418C17.5288 15.5952 17.5766 15.7741 17.5766 15.9753V16.0346C17.5766 16.2552 17.5239 16.4423 17.4114 16.5886C17.3277 16.6975 17.2281 16.7841 17.1129 16.8478C17.2066 16.8727 17.2864 16.9211 17.3491 16.995C17.4375 17.0957 17.4777 17.2268 17.4777 17.3794V18.5931H16.6621V17.4734C16.6621 17.4096 16.6452 17.3656 16.6178 17.3339L16.6167 17.3327L16.6157 17.3315C16.5982 17.3095 16.5604 17.2879 16.4766 17.2879H15.6484V18.5931H14.8328ZM15.567 17.2064H16.4767C16.5723 17.2064 16.6398 17.2311 16.6794 17.2806C16.7222 17.33 16.7436 17.3943 16.7436 17.4734V18.5116H17.3963V17.3794C17.3963 17.241 17.36 17.1306 17.2875 17.0482C17.215 16.9625 17.1128 16.9163 16.981 16.9098V16.8208C17.126 16.7614 17.2479 16.6675 17.3468 16.5389C17.4457 16.4104 17.4952 16.2423 17.4952 16.0346V15.9753C17.4952 15.7874 17.4507 15.6243 17.3617 15.4858C17.2727 15.3474 17.1474 15.2403 16.9859 15.1645C16.8244 15.0887 16.6349 15.0508 16.4173 15.0508H14.9143V18.5116H15.567V17.2064ZM16.6569 15.8308L16.6563 15.8302C16.5902 15.7641 16.4916 15.7255 16.3481 15.7255H15.6484V16.5316H16.3481C16.4885 16.5316 16.5862 16.4946 16.6525 16.4308C16.7235 16.3624 16.761 16.2725 16.761 16.1533V16.1039C16.761 15.9836 16.7246 15.8958 16.6575 15.8313L16.6569 15.8308ZM16.709 16.4895C16.6233 16.5719 16.503 16.6131 16.3481 16.6131H15.567V15.6441H16.3481C16.5063 15.6441 16.6283 15.6869 16.714 15.7726C16.7997 15.855 16.8425 15.9654 16.8425 16.1039V16.1533C16.8425 16.2917 16.798 16.4038 16.709 16.4895Z" fill="#D1D2D4"/>
</g>
<defs>
<clipPath id="clip0_12573_187">
<rect width="24" height="24" fill="white"/>
</clipPath>
</defs>
</svg>
