<svg width="24" height="24" viewBox="0 0 24 24" fill="none" xmlns="http://www.w3.org/2000/svg">
<g clip-path="url(#clip0_12394_697)">
<circle cx="12" cy="12" r="12" fill="#181D27"/>
<mask id="mask0_12394_697" style="mask-type:alpha" maskUnits="userSpaceOnUse" x="0" y="0" width="24" height="24">
<circle cx="12" cy="12" r="11.5" fill="#181D27" stroke="white"/>
</mask>
<g mask="url(#mask0_12394_697)">
<path opacity="0.8" fill-rule="evenodd" clip-rule="evenodd" d="M11.9998 27.0793L0.36002 3.36861L3.38965 1.88134L11.9998 19.4206L20.61 1.88134L23.6397 3.36861L11.9998 27.0793Z" fill="white"/>
</g>
<circle opacity="0.8" cx="12" cy="12" r="10.5" fill="#2CDFFF"/>
<circle cx="12" cy="12" r="9" fill="#181D27"/>
<path d="M11.999 5.33496V10.2625L16.1638 12.1236L11.999 5.33496Z" fill="#9AC147"/>
<path d="M11.9989 5.33496L7.8335 12.1236L11.9989 10.2625V5.33496Z" fill="#CBEC7B"/>
<path d="M11.999 15.3167V18.665L16.1667 12.8989L11.999 15.3167Z" fill="#728C33"/>
<path d="M11.9989 18.665V15.3162L7.8335 12.8989L11.9989 18.665Z" fill="#CBEC7B"/>
<path opacity="0.5" d="M11.999 14.5416L16.1638 12.1234L11.999 10.2634V14.5416Z" fill="#AFD951"/>
<path d="M7.8335 12.1234L11.9989 14.5416V10.2634L7.8335 12.1234Z" fill="#E7F6BF"/>
</g>
<defs>
<clipPath id="clip0_12394_697">
<rect width="24" height="24" fill="white"/>
</clipPath>
</defs>
</svg>
