<svg width="24" height="24" viewBox="0 0 24 24" fill="none" xmlns="http://www.w3.org/2000/svg">
<g clip-path="url(#clip0_10784_8756)">
<circle cx="12" cy="12" r="12" fill="#181D27"/>
<mask id="mask0_10784_8756" style="mask-type:alpha" maskUnits="userSpaceOnUse" x="0" y="0" width="24" height="24">
<circle cx="12" cy="12" r="11.5" fill="#181D27" stroke="white"/>
</mask>
<g mask="url(#mask0_10784_8756)">
<path opacity="0.8" fill-rule="evenodd" clip-rule="evenodd" d="M11.9998 27.0794L0.36002 3.36864L3.38965 1.88136L11.9998 19.4206L20.61 1.88137L23.6397 3.36864L11.9998 27.0794Z" fill="white"/>
</g>
<circle opacity="0.8" cx="12" cy="12" r="10.5" fill="url(#paint0_linear_10784_8756)"/>
<circle cx="12" cy="12" r="9" fill="#181D27"/>
<path fill-rule="evenodd" clip-rule="evenodd" d="M12.7404 11.0348L12.4865 12.3536L14.8981 12.6833L14.7288 13.3014L12.3596 12.9718C12.1904 13.5075 12.1058 14.0845 11.8942 14.579C11.6827 15.156 11.4712 15.733 11.2173 16.2687C10.8788 16.9693 10.2865 17.4639 9.48269 17.5875C9.01731 17.6699 8.50962 17.6287 8.12885 17.3402C8.00192 17.2578 7.875 17.093 7.875 16.9693C7.875 16.8045 7.95962 16.5984 8.08654 16.516C8.17115 16.4748 8.38269 16.516 8.50962 16.5572C8.63654 16.6808 8.76346 16.8457 8.84808 17.0105C9.10192 17.3402 9.44038 17.3814 9.77885 17.1342C10.1596 16.8045 10.3712 16.3511 10.4981 15.8978C10.7519 14.9087 11.0058 13.9608 11.2173 12.9718V12.8069L8.975 12.4772L9.05962 11.859L11.3865 12.1887L11.6827 10.9112L9.27115 10.5402L9.35577 9.88085L11.8519 10.2105C11.9365 9.96328 11.9788 9.75722 12.0635 9.55116C12.275 8.80934 12.4865 8.06752 12.9942 7.40813C13.5019 6.74874 14.0942 6.33662 14.9827 6.37783C15.3635 6.37783 15.7442 6.50147 15.9981 6.78995C16.0404 6.83116 16.125 6.91359 16.125 6.99601C16.125 7.16086 16.125 7.36692 15.9981 7.49055C15.8288 7.61419 15.6173 7.57298 15.4481 7.40813C15.3212 7.28449 15.2365 7.16086 15.1096 7.03722C14.8558 6.70753 14.475 6.66631 14.1788 6.9548C13.9673 7.16086 13.7558 7.44934 13.6288 7.73783C13.3327 8.60328 13.1212 9.50994 12.825 10.4166L15.1519 10.7463L14.9827 11.3645L12.7404 11.0348Z" fill="white"/>
</g>
<defs>
<linearGradient id="paint0_linear_10784_8756" x1="22.2313" y1="18.1183" x2="-3.53296" y2="2.62136" gradientUnits="userSpaceOnUse">
<stop stop-color="#5433FF"/>
<stop offset="0.5" stop-color="#20BDFF"/>
<stop offset="1" stop-color="#5CFFA2"/>
</linearGradient>
<clipPath id="clip0_10784_8756">
<rect width="24" height="24" fill="white"/>
</clipPath>
</defs>
</svg>
