<svg width="24" height="24" viewBox="0 0 24 24" fill="none" xmlns="http://www.w3.org/2000/svg">
<g clip-path="url(#clip0_10784_8759)">
<circle cx="12" cy="12" r="12" fill="#181D27"/>
<mask id="mask0_10784_8759" style="mask-type:alpha" maskUnits="userSpaceOnUse" x="0" y="0" width="24" height="24">
<circle cx="12" cy="12" r="11.5" fill="#181D27" stroke="white"/>
</mask>
<g mask="url(#mask0_10784_8759)">
<path opacity="0.8" fill-rule="evenodd" clip-rule="evenodd" d="M11.9998 27.0794L0.36002 3.36864L3.38965 1.88136L11.9998 19.4206L20.61 1.88137L23.6397 3.36864L11.9998 27.0794Z" fill="white"/>
</g>
<circle opacity="0.8" cx="12" cy="12" r="10.5" fill="url(#paint0_linear_10784_8759)"/>
<circle cx="12" cy="12" r="9" fill="#181D27"/>
<path d="M10.1493 6.91072C11.2196 6.5104 12.4242 6.50949 13.5145 6.83852C14.9339 7.27905 16.1321 8.35021 16.7582 9.69466C16.9309 10.0776 17.0963 10.477 17.1128 10.9029C16.3149 10.4405 15.4402 10.1407 14.5638 9.8674C13.1617 9.36197 11.6939 9.01101 10.3668 8.3164C10.0579 8.13178 9.66399 7.94259 9.5799 7.55781C9.54609 7.22512 9.89796 7.03959 10.1493 6.91072Z" fill="white"/>
<path d="M6.91859 10.1462C7.22842 9.30531 7.73659 8.52478 8.42663 7.94624C8.60211 9.38939 9.21629 10.7841 10.2308 11.8333C11.4473 13.0973 13.1802 13.8733 14.9432 13.8441C15.6433 13.866 16.3279 13.7042 17.0106 13.5735C16.3388 16.001 13.6783 17.6123 11.2133 17.2248C9.72537 17.0347 8.35168 16.1536 7.52272 14.9097C6.58773 13.5351 6.35193 11.7099 6.91859 10.1462Z" fill="white"/>
<path d="M14.564 9.86739C15.4405 10.1407 16.3151 10.4404 17.113 10.9029L17.1669 10.9312C17.241 11.4878 17.2949 12.0554 17.1962 12.6129C16.795 12.4429 16.4696 12.1441 16.1296 11.8799C15.4752 11.3352 14.8071 10.7119 14.564 9.86739Z" fill="white" fill-opacity="0.6"/>
</g>
<defs>
<linearGradient id="paint0_linear_10784_8759" x1="22.2313" y1="18.1183" x2="-3.53296" y2="2.62136" gradientUnits="userSpaceOnUse">
<stop stop-color="#5433FF"/>
<stop offset="0.5" stop-color="#20BDFF"/>
<stop offset="1" stop-color="#5CFFA2"/>
</linearGradient>
<clipPath id="clip0_10784_8759">
<rect width="24" height="24" fill="white"/>
</clipPath>
</defs>
</svg>
