<svg width="24" height="24" viewBox="0 0 24 24" fill="none" xmlns="http://www.w3.org/2000/svg">
<g clip-path="url(#clip0_12361_1104)">
<circle cx="12" cy="12" r="12" fill="#181D27"/>
<mask id="mask0_12361_1104" style="mask-type:alpha" maskUnits="userSpaceOnUse" x="0" y="0" width="24" height="24">
<circle cx="12" cy="12" r="11.5" fill="#181D27" stroke="white"/>
</mask>
<g mask="url(#mask0_12361_1104)">
<path opacity="0.8" fill-rule="evenodd" clip-rule="evenodd" d="M11.9998 27.0793L0.36002 3.36861L3.38965 1.88134L11.9998 19.4206L20.61 1.88134L23.6397 3.36861L11.9998 27.0793Z" fill="white"/>
</g>
<circle opacity="0.8" cx="12" cy="12" r="10.5" fill="#5CFFA2"/>
<circle cx="12" cy="12" r="9" fill="#181D27"/>
<g clip-path="url(#clip1_12361_1104)">
<path d="M17.5648 6.99232C16.9898 6.36189 15.5578 6.63556 13.8325 7.56849C14.2429 7.74822 14.624 7.98154 14.9654 8.26131C15.8053 7.79095 16.4134 7.61495 16.6169 7.83809C16.8225 8.0636 16.579 8.65741 16.0123 9.45401C15.7818 9.77787 15.4981 10.135 15.1686 10.5151C15.3731 10.9651 15.4878 11.464 15.4878 11.9896C15.4878 12.0198 15.4861 12.05 15.4854 12.0802C15.8917 11.6142 16.2526 11.1537 16.5623 10.7094C17.7109 9.05995 18.15 7.63394 17.5651 6.99232H17.5648Z" fill="white"/>
<path d="M9.83298 15.7915C9.8101 15.6426 9.79474 15.4677 9.79474 15.2608C9.47003 15.4738 9.16649 15.6569 8.89061 15.8054C8.12135 16.2191 7.56754 16.3646 7.37531 16.154C7.18513 15.9458 7.37907 15.4225 7.85674 14.7158C7.6092 14.3567 7.4098 13.9623 7.26639 13.5421C6.24618 15.0838 5.87913 16.3985 6.43431 17.0073C6.99939 17.6268 8.39177 17.3739 10.0771 16.4796C10.0771 16.4796 9.9098 16.29 9.83298 15.7915Z" fill="white"/>
<path d="M16.5623 10.7094C16.2529 11.1537 15.892 11.6142 15.4854 12.0802C15.4369 14.0217 13.8383 15.5809 11.8719 15.5809C11.7705 15.5809 11.6701 15.5759 11.5708 15.5677C11.3448 15.5491 11.1252 15.5091 10.9128 15.4511V15.4521C10.9128 15.4521 10.9483 15.6488 11.0805 15.8916C10.7377 16.1103 10.4017 16.3073 10.0767 16.4796C10.6322 16.699 11.2375 16.8208 11.8719 16.8208C14.5584 16.8208 16.7361 14.6579 16.7361 11.9896C16.7361 11.5461 16.6746 11.1171 16.5619 10.7091L16.5623 10.7094Z" fill="white"/>
<path d="M10.913 13.8436C11.2462 14.0369 11.6338 14.1485 12.0476 14.1485C13.2921 14.1485 14.3007 13.1467 14.3007 11.9106C14.3007 10.6745 13.2921 9.67273 12.0476 9.67273C10.803 9.67273 9.83165 10.6389 9.79614 11.8441L9.79443 11.8431V15.2608C9.79443 15.4683 9.8098 15.6433 9.83267 15.7919C9.90984 16.2904 10.0768 16.4799 10.0768 16.4799C11.3002 16.9849 12.4938 16.7821 12.4938 16.7821C11.6809 16.7068 11.2756 16.2493 11.0806 15.8919C10.9481 15.6491 10.913 15.4524 10.913 15.4524V13.8439V13.8436ZM12.0476 10.7834C12.6741 10.7834 13.1822 11.288 13.1822 11.9103C13.1822 12.5326 12.6741 13.0372 12.0476 13.0372C11.421 13.0372 10.913 12.5326 10.913 11.9103C10.913 11.288 11.421 10.7834 12.0476 10.7834Z" fill="white"/>
<path d="M14.9658 8.2613C14.6244 7.98153 14.2434 7.74821 13.8329 7.56847C13.233 7.30565 12.5703 7.15881 11.8724 7.15881C9.18599 7.15881 7.0083 9.32174 7.0083 11.99C7.0083 12.5332 7.09981 13.0548 7.26643 13.5421C7.40983 13.9623 7.60923 14.3567 7.85677 14.7158C8.007 14.9339 8.17499 15.1384 8.35834 15.3286C8.50345 15.4792 8.73358 15.5111 8.91454 15.4056C9.03507 15.3354 9.15936 15.2601 9.28705 15.1801C9.40178 15.1082 9.47177 14.9824 9.47177 14.8477C9.47177 14.743 9.42977 14.6419 9.35397 14.5686C9.07912 14.3045 8.8507 13.9989 8.67008 13.6567C8.43926 13.2203 8.29654 12.7313 8.26445 12.2121C8.26001 12.1388 8.25694 12.0649 8.25694 11.9903C8.25694 10.0071 9.87569 8.39932 11.8724 8.39932C12.0578 8.39932 12.2401 8.41323 12.418 8.44002C12.935 8.51768 13.4157 8.70487 13.8364 8.97583C14.3352 9.29732 14.749 9.7375 15.0375 10.256C15.0416 10.2513 15.0461 10.2465 15.0502 10.2418C15.366 9.88536 15.6412 9.54929 15.8703 9.24069C15.6149 8.87477 15.3107 8.54481 14.9655 8.26198L14.9658 8.2613Z" fill="white"/>
</g>
</g>
<defs>
<clipPath id="clip0_12361_1104">
<rect width="24" height="24" fill="white"/>
</clipPath>
<clipPath id="clip1_12361_1104">
<rect width="11.6478" height="10.6969" fill="white" transform="translate(6.17578 6.65149)"/>
</clipPath>
</defs>
</svg>
