<svg width="24" height="24" viewBox="0 0 24 24" fill="none" xmlns="http://www.w3.org/2000/svg">
<g clip-path="url(#clip0_12395_851)">
<circle cx="12" cy="12" r="12" fill="#181D27"/>
<mask id="mask0_12395_851" style="mask-type:alpha" maskUnits="userSpaceOnUse" x="0" y="0" width="24" height="24">
<circle cx="12" cy="12" r="11.5" fill="#181D27" stroke="white"/>
</mask>
<g mask="url(#mask0_12395_851)">
<path opacity="0.8" fill-rule="evenodd" clip-rule="evenodd" d="M11.9998 27.0793L0.36002 3.36861L3.38965 1.88134L11.9998 19.4206L20.61 1.88134L23.6397 3.36861L11.9998 27.0793Z" fill="white"/>
</g>
<circle opacity="0.8" cx="12" cy="12" r="10.5" fill="#2CDFFF"/>
<circle cx="12" cy="12" r="9" fill="#181D27"/>
<path d="M12.4097 8.37935C13.6435 8.48945 14.6145 9.51136 14.6448 10.7665L16.5379 11.5531L15.5511 9.9442L17.6492 7.84604L16.3954 6.59223L14.598 8.39036L12.4104 4.823V8.37935H12.4097Z" fill="white"/>
<path d="M14.6124 11.2338C14.4308 12.3265 13.5279 13.175 12.4097 13.2755V14.5747L16.5757 12.0499L14.6124 11.2338Z" fill="white"/>
<path d="M9.76358 11.2338L7.80029 12.0492L11.9663 14.574V13.2748C10.8481 13.175 9.94525 12.3265 9.76358 11.2338Z" fill="white"/>
<path d="M16.5289 13.3739L12.4097 15.8705V19.1771L14.1046 16.7885L15.8738 18.5577L17.1276 17.3039L15.1457 15.3221L16.5289 13.3739Z" fill="white"/>
<path d="M11.9665 15.8705L7.84722 13.3739L9.2304 15.3221L7.24854 17.3039L8.50234 18.5577L10.2716 16.7892L11.9665 19.1764V15.8705Z" fill="white"/>
<path d="M7.83841 11.5538L9.73151 10.7672C9.76179 9.51204 10.7328 8.49014 11.9666 8.38004V4.823L9.77899 8.39036L7.98086 6.59223L6.72705 7.84672L8.82522 9.94489L7.83841 11.5538Z" fill="white"/>
<path d="M12.2749 10.545C11.6673 10.3585 11.6673 10.2553 11.6673 10.172C11.6673 10.0564 11.8421 9.89678 12.1703 9.89678C12.3644 9.89678 12.6906 9.94495 12.6906 10.2698H13.2817C13.2817 9.69309 12.8351 9.30566 12.1703 9.30566C11.4595 9.30566 11.0762 9.75227 11.0762 10.172C11.0762 10.746 11.5799 10.9497 12.0974 11.1093C12.705 11.2958 12.7085 11.4004 12.7085 11.4837C12.7085 11.5993 12.5337 11.7589 12.2054 11.7589C12.0107 11.7589 11.6852 11.7107 11.6852 11.3859H11.0941C11.0941 11.9626 11.5407 12.35 12.2054 12.35C12.9163 12.35 13.2996 11.9034 13.2996 11.4837C13.3003 10.9091 12.7931 10.704 12.2749 10.545Z" fill="white"/>
</g>
<defs>
<clipPath id="clip0_12395_851">
<rect width="24" height="24" fill="white"/>
</clipPath>
</defs>
</svg>
