<svg width="24" height="24" viewBox="0 0 24 24" fill="none" xmlns="http://www.w3.org/2000/svg">
<g clip-path="url(#clip0_12317_1926)">
<circle cx="12" cy="12" r="12" fill="#181D27"/>
<mask id="mask0_12317_1926" style="mask-type:alpha" maskUnits="userSpaceOnUse" x="0" y="0" width="24" height="24">
<circle cx="12" cy="12" r="11.5" fill="#181D27" stroke="white"/>
</mask>
<g mask="url(#mask0_12317_1926)">
<path opacity="0.8" fill-rule="evenodd" clip-rule="evenodd" d="M11.9998 27.0794L0.36002 3.36863L3.38965 1.88136L11.9998 19.4206L20.61 1.88136L23.6397 3.36863L11.9998 27.0794Z" fill="white"/>
</g>
<circle opacity="0.8" cx="12" cy="12" r="10.5" fill="url(#paint0_linear_12317_1926)"/>
<circle cx="12" cy="12" r="9" fill="#181D27"/>
<path fill-rule="evenodd" clip-rule="evenodd" d="M16.2836 10.9711C16.4827 9.6405 15.4695 8.9252 14.084 8.44801L14.3966 7.19424C14.4722 6.89121 14.2877 6.58431 13.9847 6.5088C13.6817 6.4333 13.3749 6.61769 13.2993 6.92066L12.9986 8.12708C12.7101 8.05521 12.4138 7.98739 12.1194 7.92021L12.4233 6.70209C12.4988 6.39921 12.3145 6.09244 12.0116 6.01692C11.7088 5.94142 11.4021 6.12565 11.3266 6.42843L11.0137 7.68209C10.7749 7.62771 10.5405 7.57396 10.313 7.5174L10.3142 7.51177L9.38142 7.27889C9.06087 7.19886 8.73617 7.39394 8.65632 7.71453C8.57543 8.03927 8.77731 8.36562 9.10213 8.44624C9.22268 8.47616 9.3118 8.50004 9.30599 8.50395C9.75041 8.61489 9.83073 8.90895 9.81729 9.14207L8.58591 14.0798C8.53153 14.2148 8.3937 14.4173 8.08304 14.3405C8.08706 14.3463 7.98066 14.321 7.84436 14.2867C7.52252 14.2056 7.18778 14.3666 7.05572 14.6711C6.89081 15.0513 7.10672 15.4885 7.50884 15.5888L8.16868 15.7532C8.32812 15.7932 8.48564 15.8343 8.64152 15.8749L8.64164 15.8749C8.74545 15.902 8.84852 15.9289 8.95095 15.9551L8.63332 17.2303C8.55794 17.5329 8.74211 17.8394 9.04473 17.9149C9.34746 17.9904 9.65409 17.8062 9.72957 17.5035L10.0426 16.2479C10.342 16.3292 10.6327 16.4042 10.9171 16.4748L10.6059 17.7213C10.5303 18.0244 10.7147 18.3313 11.0178 18.4069C11.3207 18.4824 11.6275 18.298 11.7031 17.9951L12.0203 16.7239C13.8915 17.0779 15.2985 16.9351 15.8907 15.2429C16.368 13.8805 15.867 13.0945 14.8825 12.582C15.5995 12.4167 16.1395 11.9452 16.2836 10.9711ZM10.6878 11.6764C10.5912 11.345 10.7815 10.998 11.1129 10.9015L13.1371 10.3115C13.4685 10.2149 13.8155 10.4053 13.912 10.7367C14.0086 11.0681 13.8183 11.415 13.4869 11.5116L11.4627 12.1015C11.1313 12.1981 10.7843 12.0078 10.6878 11.6764ZM10.6093 13.7739C10.2779 13.8704 10.0876 14.2174 10.1841 14.5488C10.2807 14.8802 10.6277 15.0705 10.9591 14.9739L12.9833 14.384C13.3147 14.2874 13.505 13.9404 13.4084 13.6091C13.3118 13.2777 12.9649 13.0873 12.6335 13.1839L10.6093 13.7739Z" fill="white"/>
</g>
<defs>
<linearGradient id="paint0_linear_12317_1926" x1="22.2313" y1="18.1183" x2="-3.53296" y2="2.62136" gradientUnits="userSpaceOnUse">
<stop stop-color="#5433FF"/>
<stop offset="0.5" stop-color="#20BDFF"/>
<stop offset="1" stop-color="#5CFFA2"/>
</linearGradient>
<clipPath id="clip0_12317_1926">
<rect width="24" height="24" fill="white"/>
</clipPath>
</defs>
</svg>
