<svg width="24" height="24" viewBox="0 0 24 24" fill="none" xmlns="http://www.w3.org/2000/svg">
<g clip-path="url(#clip0_10784_8764)">
<circle cx="12" cy="12" r="12" fill="#181D27"/>
<mask id="mask0_10784_8764" style="mask-type:alpha" maskUnits="userSpaceOnUse" x="0" y="0" width="24" height="24">
<circle cx="12" cy="12" r="11.5" fill="#181D27" stroke="white"/>
</mask>
<g mask="url(#mask0_10784_8764)">
<path opacity="0.8" fill-rule="evenodd" clip-rule="evenodd" d="M11.9998 27.0794L0.36002 3.36863L3.38965 1.88136L11.9998 19.4206L20.61 1.88136L23.6397 3.36863L11.9998 27.0794Z" fill="white"/>
</g>
<circle opacity="0.8" cx="12" cy="12" r="10.5" fill="url(#paint0_linear_10784_8764)"/>
<circle cx="12" cy="12" r="9" fill="#181D27"/>
<path d="M14.057 13.1689C14.057 12.0781 13.4025 11.7041 12.0936 11.5483C11.1586 11.4237 10.9716 11.1744 10.9716 10.738C10.9716 10.3016 11.2833 10.0212 11.9066 10.0212C12.4676 10.0212 12.7792 10.2082 12.935 10.6757C12.9662 10.7692 13.0597 10.8315 13.1532 10.8315H13.6518C13.7765 10.8315 13.87 10.738 13.87 10.6134V10.5822C13.7453 9.89654 13.1843 9.36675 12.4676 9.30445V8.55648C12.4676 8.43179 12.3741 8.3383 12.2183 8.30711H11.7508C11.6261 8.30711 11.5326 8.4006 11.5014 8.55648V9.27326C10.5664 9.39794 9.97436 10.0212 9.97436 10.8004C9.97436 11.8288 10.5976 12.2339 11.9066 12.3898C12.7792 12.5456 13.0597 12.7326 13.0597 13.2313C13.0597 13.7299 12.6234 14.0727 12.0313 14.0727C11.2209 14.0727 10.9404 13.7299 10.8469 13.2624C10.8158 13.1378 10.7223 13.0754 10.6288 13.0754H10.099C9.97436 13.0754 9.88086 13.1689 9.88086 13.2936V13.3248C10.0055 14.1039 10.5041 14.6648 11.5326 14.8207V15.5687C11.5326 15.6933 11.6261 15.7868 11.7819 15.818H12.2494C12.3741 15.818 12.4676 15.7245 12.4987 15.5687V14.8207C13.4337 14.6648 14.057 14.0104 14.057 13.1689Z" fill="white"/>
<path d="M10.4105 16.4412C7.97965 15.5686 6.73301 12.8573 7.63685 10.4575C8.10433 9.14855 9.13279 8.15128 10.4105 7.6838C10.5352 7.6215 10.5975 7.528 10.5975 7.37213V6.93584C10.5975 6.81115 10.5352 6.71765 10.4105 6.68654C10.3794 6.68654 10.317 6.68654 10.2859 6.71765C7.32518 7.65261 5.70455 10.8004 6.63951 13.761C7.20049 15.5063 8.54062 16.8464 10.2859 17.4074C10.4105 17.4697 10.5352 17.4074 10.5663 17.2827C10.5975 17.2516 10.5975 17.2204 10.5975 17.1581V16.7217C10.5975 16.6282 10.504 16.5036 10.4105 16.4412ZM13.7141 6.71765C13.5894 6.65535 13.4647 6.71765 13.4336 6.84234C13.4024 6.87353 13.4024 6.90465 13.4024 6.96703V7.40332C13.4024 7.528 13.4959 7.65261 13.5894 7.71499C16.0203 8.58757 17.2669 11.299 16.3631 13.6987C15.8956 15.0077 14.8672 16.0049 13.5894 16.4724C13.4647 16.5347 13.4024 16.6282 13.4024 16.7841V17.2204C13.4024 17.3451 13.4647 17.4386 13.5894 17.4697C13.6206 17.4697 13.6829 17.4697 13.7141 17.4386C16.6748 16.5036 18.2954 13.3559 17.3604 10.3952C16.7995 8.61876 15.4281 7.27863 13.7141 6.71765Z" fill="white"/>
</g>
<defs>
<linearGradient id="paint0_linear_10784_8764" x1="22.2313" y1="18.1183" x2="-3.53296" y2="2.62136" gradientUnits="userSpaceOnUse">
<stop stop-color="#5433FF"/>
<stop offset="0.5" stop-color="#20BDFF"/>
<stop offset="1" stop-color="#5CFFA2"/>
</linearGradient>
<clipPath id="clip0_10784_8764">
<rect width="24" height="24" fill="white"/>
</clipPath>
</defs>
</svg>
