<svg width="24" height="24" viewBox="0 0 24 24" fill="none" xmlns="http://www.w3.org/2000/svg">
<g clip-path="url(#clip0_12390_507)">
<circle cx="12" cy="12" r="12" fill="#181D27"/>
<mask id="mask0_12390_507" style="mask-type:alpha" maskUnits="userSpaceOnUse" x="0" y="0" width="24" height="24">
<circle cx="12" cy="12" r="11.5" fill="#181D27" stroke="white"/>
</mask>
<g mask="url(#mask0_12390_507)">
<path opacity="0.8" fill-rule="evenodd" clip-rule="evenodd" d="M11.9998 27.0793L0.36002 3.36861L3.38965 1.88134L11.9998 19.4206L20.61 1.88134L23.6397 3.36861L11.9998 27.0793Z" fill="white"/>
</g>
<circle opacity="0.8" cx="12" cy="12" r="10.5" fill="#2CDFFF"/>
<circle cx="12" cy="12" r="9" fill="#181D27"/>
<path d="M15.3 10.1378C15.1926 9.01704 14.2258 8.64108 13.003 8.5265V6.98328H12.0578V8.49786C11.8089 8.49786 11.5547 8.49786 11.3023 8.49786V6.98328H10.3642V8.53724H8.44678V9.54875C8.44678 9.54875 9.14499 9.53622 9.13425 9.54875C9.26014 9.5349 9.38649 9.57046 9.48668 9.64794C9.58687 9.72542 9.65307 9.83877 9.67133 9.9641V14.2178C9.66864 14.262 9.65711 14.3052 9.63743 14.3449C9.61775 14.3846 9.59032 14.4199 9.55675 14.4488C9.52382 14.4782 9.48527 14.5007 9.44343 14.5148C9.40158 14.529 9.35731 14.5345 9.31327 14.5311C9.32581 14.5419 8.62581 14.5311 8.62581 14.5311L8.44678 15.6608H10.3463V17.2398H11.2915V15.684H12.047V17.2326H12.9941V15.6715C14.591 15.5748 15.7046 15.181 15.8442 13.6861C15.957 12.483 15.3913 11.9459 14.4872 11.7293C15.0368 11.459 15.377 10.9577 15.3 10.1378ZM13.9752 13.4999C13.9752 14.6743 11.9629 14.5401 11.322 14.5401V12.4562C11.9629 12.458 13.9752 12.2736 13.9752 13.4999ZM13.5366 10.5638C13.5366 11.638 11.8573 11.5073 11.3238 11.5073V9.6132C11.8573 9.6132 13.5366 9.44491 13.5366 10.5638Z" fill="white"/>
<path d="M17.7931 6.67095L17.2886 7.17544C18.4924 8.49187 19.1599 10.2111 19.1599 11.995C19.1599 13.7788 18.4924 15.4981 17.2886 16.8145L17.7931 17.319C19.1318 15.8669 19.8751 13.9642 19.8751 11.9891C19.8751 10.014 19.1318 8.1113 17.7931 6.65918V6.67095Z" fill="white"/>
<path d="M7.18374 6.71467C8.50017 5.51087 10.2194 4.84331 12.0033 4.84331C13.7871 4.84331 15.5064 5.51087 16.8228 6.71467L17.3273 6.21018C15.8752 4.87143 13.9725 4.12817 11.9974 4.12817C10.0223 4.12817 8.1196 4.87143 6.66748 6.21018L7.18374 6.71467Z" fill="white"/>
<path d="M6.711 16.8196C5.50864 15.5034 4.84195 13.7852 4.84195 12.0025C4.84195 10.2199 5.50864 8.50166 6.711 7.18552L6.20651 6.68103C4.86777 8.13315 4.12451 10.0359 4.12451 12.011C4.12451 13.986 4.86777 15.8888 6.20651 17.3409L6.711 16.8196Z" fill="white"/>
<path d="M16.816 17.2854C15.4995 18.4892 13.7802 19.1568 11.9964 19.1568C10.2126 19.1568 8.49328 18.4892 7.17685 17.2854L6.67236 17.7899C8.12448 19.1286 10.0272 19.8719 12.0023 19.8719C13.9774 19.8719 15.8801 19.1286 17.3322 17.7899L16.816 17.2854Z" fill="white"/>
</g>
<defs>
<clipPath id="clip0_12390_507">
<rect width="24" height="24" fill="white"/>
</clipPath>
</defs>
</svg>
