<svg width="24" height="24" viewBox="0 0 24 24" fill="none" xmlns="http://www.w3.org/2000/svg">
<g clip-path="url(#clip0_12390_488)">
<circle cx="12" cy="12" r="12" fill="#181D27"/>
<mask id="mask0_12390_488" style="mask-type:alpha" maskUnits="userSpaceOnUse" x="0" y="0" width="24" height="24">
<circle cx="12" cy="12" r="11.5" fill="#181D27" stroke="white"/>
</mask>
<g mask="url(#mask0_12390_488)">
<path opacity="0.8" fill-rule="evenodd" clip-rule="evenodd" d="M11.9998 27.0793L0.36002 3.36861L3.38965 1.88134L11.9998 19.4206L20.61 1.88134L23.6397 3.36861L11.9998 27.0793Z" fill="white"/>
</g>
<circle opacity="0.8" cx="12" cy="12" r="10.5" fill="#2CDFFF"/>
<circle cx="12" cy="12" r="9" fill="#181D27"/>
<path d="M12.1655 5.33496V10.2625L16.3303 12.1236L12.1655 5.33496Z" fill="#C1DCDC"/>
<path d="M12.1654 5.33496L8 12.1236L12.1654 10.2625V5.33496Z" fill="white"/>
<path d="M12.1655 15.3167V18.665L16.3332 12.8989L12.1655 15.3167Z" fill="#C1DCDC"/>
<path d="M12.1654 18.665V15.3162L8 12.8989L12.1654 18.665Z" fill="white"/>
<path opacity="0.5" d="M12.1655 14.5415L16.3303 12.1232L12.1655 10.2633V14.5415Z" fill="white"/>
<path d="M8 12.1232L12.1654 14.5415V10.2633L8 12.1232Z" fill="white" fill-opacity="0.3"/>
</g>
<defs>
<clipPath id="clip0_12390_488">
<rect width="24" height="24" fill="white"/>
</clipPath>
</defs>
</svg>
