<svg width="24" height="24" viewBox="0 0 24 24" fill="none" xmlns="http://www.w3.org/2000/svg">
<g clip-path="url(#clip0_10784_8767)">
<circle cx="12" cy="12" r="12" fill="#181D27"/>
<mask id="mask0_10784_8767" style="mask-type:alpha" maskUnits="userSpaceOnUse" x="0" y="0" width="24" height="24">
<circle cx="12" cy="12" r="11.5" fill="#181D27" stroke="white"/>
</mask>
<g mask="url(#mask0_10784_8767)">
<path opacity="0.8" fill-rule="evenodd" clip-rule="evenodd" d="M11.9998 27.0794L0.36002 3.36863L3.38965 1.88136L11.9998 19.4206L20.61 1.88136L23.6397 3.36863L11.9998 27.0794Z" fill="white"/>
</g>
<circle opacity="0.8" cx="12" cy="12" r="10.5" fill="url(#paint0_linear_10784_8767)"/>
<circle cx="12" cy="12" r="9" fill="#181D27"/>
<path d="M15.9769 7.33005H17.6029L14.2191 10.6804C12.9937 11.8931 11.0069 11.8931 9.78063 10.6804L6.39551 7.33005H8.02281L10.5936 9.87515C10.9682 10.2443 11.473 10.4513 11.9989 10.4513C12.5248 10.4513 13.0296 10.2443 13.4041 9.87515L15.9769 7.33005Z" fill="white"/>
<path d="M8.00208 16.6465H6.375L9.78077 13.2754C11.0062 12.0628 12.993 12.0628 14.2193 13.2754L17.625 16.6465H15.9991L13.4063 14.0807C13.0317 13.7116 12.5269 13.5046 12.001 13.5046C11.4751 13.5046 10.9703 13.7116 10.5957 14.0807L8.00208 16.6465Z" fill="white"/>
</g>
<defs>
<linearGradient id="paint0_linear_10784_8767" x1="22.2313" y1="18.1183" x2="-3.53296" y2="2.62136" gradientUnits="userSpaceOnUse">
<stop stop-color="#5433FF"/>
<stop offset="0.5" stop-color="#20BDFF"/>
<stop offset="1" stop-color="#5CFFA2"/>
</linearGradient>
<clipPath id="clip0_10784_8767">
<rect width="24" height="24" fill="white"/>
</clipPath>
</defs>
</svg>
