<svg xmlns="http://www.w3.org/2000/svg" width="200" height="200" fill="none" xmlns:v="https://vecta.io/nano"><circle cx="100" cy="100" r="100" transform="rotate(90 100 100)" fill="url(#A)"/><path fill-rule="evenodd" d="M33.416 37.732C18.079 54.119 8.69 76.141 8.69 100.356a91.31 91.31 0 0 0 22.577 60.246l5.927-5.927c-12.424-14.554-19.925-33.438-19.925-54.074 0-21.914 8.458-41.851 22.288-56.727l-6.141-6.142zm123.913 123.914c-14.875 13.83-34.813 22.288-56.726 22.288-21.635 0-41.345-8.245-56.158-21.764l-5.888 5.888c16.298 14.885 37.989 23.964 61.8 23.964 24.215 0 46.236-9.389 62.623-24.725l-5.651-5.651zm12.851-1.895l-5.668-5.668c12.124-14.473 19.424-33.125 19.424-53.482 0-21.635-8.245-41.345-21.764-56.158l5.888-5.887c14.885 16.298 23.964 37.989 23.964 61.8 0 22.658-8.222 43.397-21.844 59.395zM47.12 36.691l-6.159-6.159a91.3 91.3 0 0 1 59.396-21.844c23.063 0 44.136 8.517 60.247 22.577l-5.927 5.926c-14.554-12.424-33.438-19.925-54.074-19.925-20.358 0-39.01 7.3-53.483 19.424z" fill="#fff"/><path d="M99.901 41.707v42.871L64.3 100.747l35.602-59.04z" fill="#868686"/><path d="M99.901 84.576v37.234L64.3 100.745l35.602-16.169z" fill="#363636"/><path d="M99.901 129.212v28.926L64.3 108.148l35.602 21.064z" fill="#868686"/><path d="M99.901 41.707v42.87l35.601 16.169-35.601-59.039z" fill="#312706"/><path d="M99.901 84.576v37.234l35.601-21.065-35.601-16.169z" fill="#130f03"/><path d="M99.901 129.212v28.926l35.601-49.99-35.601 21.064z" fill="#312807"/><defs><linearGradient id="A" x1="100" y1="0" x2="100" y2="200" gradientUnits="userSpaceOnUse"><stop stop-color="#f0b90b"/><stop offset="1" stop-color="#f8d33a"/></linearGradient></defs></svg>