<svg width="431" height="431" viewBox="0 0 431 431" fill="none" xmlns="http://www.w3.org/2000/svg">
<path d="M216.27 430.38C334.917 429.983 430.778 333.477 430.38 214.83C429.983 96.1828 333.477 0.322396 214.83 0.719982C96.1827 1.11757 0.322335 97.6226 0.719921 216.27C1.11751 334.917 97.6225 430.778 216.27 430.38Z" fill="url(#paint0_linear_23_37)"/>
<path d="M216.112 405.133C175.877 405.133 135.802 392.028 103.291 368.234L113.285 354.624C142.922 376.313 179.443 388.259 216.112 388.259C233.188 388.259 250.129 385.722 266.464 380.722L271.424 396.856C253.484 402.349 234.879 405.133 216.125 405.133H216.112ZM291.018 389.664L284.331 374.17C285.318 373.751 286.292 373.319 287.267 372.876C336.312 350.707 371.636 307.871 384.184 255.367L400.619 259.284C386.862 316.899 348.082 363.898 294.226 388.247C293.153 388.728 292.079 389.208 291.018 389.664ZM87.1398 354.993C68.324 337.738 53.3946 317.133 42.7837 293.744C31.5558 269 25.8679 242.767 25.8679 215.77C25.8679 209.106 26.2257 202.357 26.9414 195.719L43.7461 197.505C43.1045 203.552 42.7713 209.698 42.7713 215.77C42.7713 240.353 47.9534 264.246 58.1819 286.786C67.8551 308.093 81.4396 326.862 98.5775 342.566L87.1398 354.993ZM404.345 238.765L387.577 236.67C388.465 229.576 388.922 222.371 388.922 215.228C388.922 190.644 383.74 166.751 373.512 144.213C364.295 123.915 351.5 105.884 335.46 90.6117L347.121 78.4063C364.739 95.1687 378.792 114.973 388.91 137.254C400.137 161.997 405.826 188.23 405.826 215.228C405.826 223.061 405.32 230.981 404.345 238.765ZM46.7936 178.759L30.285 175.151C36.4912 146.885 49.2613 119.998 67.2382 97.398C86.0912 73.6891 109.707 55.3133 137.455 42.763C139.59 41.7899 141.761 40.8663 143.908 39.9917L150.311 55.5965C148.35 56.397 146.376 57.2469 144.427 58.1336C119.158 69.5631 97.6397 86.3011 80.4771 107.892C64.1042 128.485 52.4568 152.994 46.7936 178.771V178.759ZM320.962 78.2831C290.833 55.3625 253.398 42.7383 215.569 42.7383C199.579 42.7383 183.662 44.9676 168.288 49.3644L163.637 33.1439C180.528 28.3159 197.999 25.8649 215.569 25.8649C257.076 25.8649 298.137 39.7208 331.203 64.8583L320.962 78.2708V78.2831Z" fill="white"/>
<path opacity="0.2" d="M349.833 348.973C423.492 274.821 423.123 154.924 348.972 81.2651C274.82 7.60564 154.923 7.97454 81.2639 82.126L349.833 348.973Z" fill="white"/>
<path d="M206.777 130.701C209.661 130.407 212.587 130.256 215.549 130.256C262.638 130.256 300.811 168.428 300.811 215.518C300.811 252.237 277.598 283.536 245.047 295.538L216.116 336.223C282.521 335.918 336.257 281.993 336.257 215.518C336.257 153.096 288.875 101.741 228.115 95.4554L206.777 130.701Z" fill="white"/>
<path d="M212.81 94.8396C147.41 96.2958 94.8411 149.768 94.8411 215.518C94.8411 277.028 140.851 327.794 200.335 335.275L225.252 300.234C222.067 300.594 218.83 300.78 215.549 300.78C168.461 300.78 130.287 262.606 130.287 215.518C130.287 177.783 154.8 145.774 188.77 134.545L212.81 94.8396Z" fill="white"/>
<path d="M245.047 295.539C277.598 283.536 300.811 252.238 300.811 215.518H336.257C336.257 281.993 282.521 335.919 216.118 336.225L245.047 295.539Z" fill="url(#paint1_linear_23_37)"/>
<path d="M212.81 94.8396C147.41 96.2958 94.8411 149.768 94.8411 215.518C94.8411 215.518 130.287 216.027 130.287 215.518C130.287 177.783 154.8 145.774 188.77 134.545L212.81 94.8396Z" fill="url(#paint2_linear_23_37)"/>
<path d="M215.332 314.194L275.941 228.843L215.332 264.612L154.757 228.843L215.332 314.194Z" fill="white"/>
<path opacity="0.1" d="M215.333 314.194L275.942 228.843L215.333 264.612V314.194Z" fill="#4C52F9"/>
<path d="M215.146 253.284L276.056 217.45L215.146 116.847L154.237 217.45L215.146 253.284Z" fill="url(#paint3_linear_23_37)"/>
<path d="M215.146 253.284L276.056 217.45L215.146 116.847L154.237 217.45L215.146 253.284Z" fill="white"/>
<path opacity="0.1" d="M215.146 253.282L154.237 217.45L215.146 116.847V253.282Z" fill="#4C52F9"/>
<path opacity="0.1" d="M215.146 253.284V188.896L154.237 217.452L215.146 253.284Z" fill="#4C52F9"/>
<path opacity="0.1" d="M215.146 253.284V188.896L276.056 217.452L215.146 253.284Z" fill="#4C52F9"/>
<defs>
<linearGradient id="paint0_linear_23_37" x1="0.719921" y1="216.27" x2="430.38" y2="214.83" gradientUnits="userSpaceOnUse">
<stop offset="0.25" stop-color="#1A82FF"/>
<stop offset="0.5" stop-color="#7A26F3"/>
<stop offset="0.74" stop-color="#D6453B"/>
</linearGradient>
<linearGradient id="paint1_linear_23_37" x1="136.076" y1="366.762" x2="269.014" y2="279.681" gradientUnits="userSpaceOnUse">
<stop stop-color="#4C52F9" stop-opacity="0.5"/>
<stop offset="1" stop-color="white"/>
</linearGradient>
<linearGradient id="paint2_linear_23_37" x1="280.693" y1="39.2775" x2="153.498" y2="131.18" gradientUnits="userSpaceOnUse">
<stop stop-color="#4C52F9" stop-opacity="0.5"/>
<stop offset="1" stop-color="white"/>
</linearGradient>
<linearGradient id="paint3_linear_23_37" x1="85.5623" y1="153.278" x2="192.272" y2="218.398" gradientUnits="userSpaceOnUse">
<stop stop-color="#1C313F"/>
<stop offset="1" stop-color="white"/>
</linearGradient>
</defs>
</svg>
