<svg width="577" height="289" viewBox="0 0 577 289" fill="none" xmlns="http://www.w3.org/2000/svg">
<rect x="0.442797" y="0.442797" width="95.9543" height="95.9543" rx="13.7267" stroke="#84408C" stroke-width="0.885593"/>
<rect x="0.442797" y="96.3969" width="95.9543" height="95.9543" rx="47.9772" stroke="#84408C" stroke-width="0.885593"/>
<rect x="0.442797" y="192.351" width="95.9543" height="95.9543" rx="13.7267" stroke="#84408C" stroke-width="0.885593"/>
<rect x="96.3969" y="0.442797" width="95.9543" height="95.9543" rx="47.9772" stroke="#84408C" stroke-width="0.885593"/>
<rect x="96.3969" y="96.3969" width="95.9543" height="95.9543" rx="13.7267" stroke="#84408C" stroke-width="0.885593"/>
<rect x="96.3969" y="192.351" width="95.9543" height="95.9543" rx="13.7267" stroke="#84408C" stroke-width="0.885593"/>
<rect x="192.351" y="0.442797" width="95.9543" height="95.9543" rx="13.7267" stroke="#84408C" stroke-width="0.885593"/>
<rect x="192.351" y="96.3969" width="95.9543" height="95.9543" rx="3.09958" stroke="#84408C" stroke-width="0.885593"/>
<rect x="192.351" y="192.351" width="95.9543" height="95.9543" rx="47.9772" stroke="#84408C" stroke-width="0.885593"/>
<rect x="288.306" y="0.442797" width="95.9543" height="95.9543" rx="13.7267" stroke="#84408C" stroke-width="0.885593"/>
<rect x="288.306" y="96.3969" width="95.9543" height="95.9543" rx="13.7267" stroke="#84408C" stroke-width="0.885593"/>
<rect x="288.306" y="192.351" width="95.9543" height="95.9543" rx="13.7267" stroke="#84408C" stroke-width="0.885593"/>
<rect x="384.26" y="0.442797" width="95.9543" height="95.9543" rx="13.7267" stroke="#84408C" stroke-width="0.885593"/>
<rect x="384.26" y="96.3969" width="95.9543" height="95.9543" rx="13.7267" stroke="#84408C" stroke-width="0.885593"/>
<rect x="384.26" y="192.351" width="95.9543" height="95.9543" rx="13.7267" stroke="#84408C" stroke-width="0.885593"/>
<rect x="480.214" y="0.442797" width="95.9543" height="95.9543" rx="3.09958" stroke="#84408C" stroke-width="0.885593"/>
<rect x="480.214" y="96.3969" width="95.9543" height="95.9543" rx="3.09958" stroke="#84408C" stroke-width="0.885593"/>
<rect x="480.214" y="192.351" width="95.9543" height="95.9543" rx="3.09958" stroke="#84408C" stroke-width="0.885593"/>
</svg>
