<svg width="258" height="290" viewBox="0 0 258 290" fill="none" xmlns="http://www.w3.org/2000/svg">
<path fill-rule="evenodd" clip-rule="evenodd" d="M257.1 81.7V96.2C257.1 99.1 255.6 101.7 253.1 103.1L206.2 130.2L248.1 154.3C253.7 157.5 257.1 163.5 257.1 169.9V208.7C257.1 215.1 253.7 221.1 248.1 224.3L138 287.5C132.4 290.7 125.6 290.7 120 287.5L83.9 266.7C81.2 265.2 81.2 261.3 83.9 259.8L202.9 191.3C204.2 190.5 204.2 188.6 202.9 187.8L158.7 162.3C156.2 160.9 153.2 160.9 150.7 162.3L29.8 232C28 233.1 25.7 233.1 23.8 232L10.1 224.2C4.50002 221 1.00002 215 1.00002 208.6V192.7C1.00002 190.6 2.10002 188.6 4.00002 187.5L177.3 87.9C178.6 87.1 178.6 85.2 177.3 84.4L133 58.8C130.5 57.4 127.5 57.4 125 58.8L6.90002 126.7C4.20002 128.2 0.900024 126.3 0.900024 123.2V81.6C0.900024 75.2 4.30002 69.2 9.90002 66L120 2.80002C125.6 -0.399976 132.4 -0.399976 138 2.80002L247.9 66.2C253.7 69.3 257.1 75.3 257.1 81.7Z" fill="#7524F9"/>
</svg>
