<svg width="48" height="48" viewBox="0 0 48 48" fill="none" xmlns="http://www.w3.org/2000/svg">
<g clip-path="url(#clip0_924_6115)">
<path fill-rule="evenodd" clip-rule="evenodd" d="M39 26.5V29C39 36 28.8 40 25.7 41L24.6 41.4V37.1L25.2 36.9C30.1 35.1 35 32 35 29V26.5H39ZM23.5 6L27.7 7.3V11.7L23.5 10.4L23.2 10.5V20.4H27.6V24.5H23.2V41.3L22 40.9C21.5 40.7 20.6 40.4 19.5 39.9L19 39.7V7.3L23.5 6ZM17.8 7.8V12.2L12.1 13.9V20.4H17.8V39.3L16.5 38.7C12.6 36.7 8 33.4 8 28.7V26.5H12.1V28.7C12.1 29.7 12.6 30.7 13.6 31.7V24.5H8V10.7L17.8 7.8ZM28.9 7.7L38.9 10.8V24.6H33V30.6C33 30.6 31.7 32.3 28.9 33.7C28.9 32.9 28.9 20.8 28.9 13.4V7.7ZM33.1 13.3V20.4H34.9V13.9L33.1 13.3Z" fill="#3A78FF"/>
</g>
<defs>
<clipPath id="clip0_924_6115">
<rect width="31" height="35.4" fill="white" transform="translate(8 6)"/>
</clipPath>
</defs>
</svg>
