<svg width="48" height="48" viewBox="0 0 48 48" fill="none" xmlns="http://www.w3.org/2000/svg">
<path d="M23.047 2.65981L24.0629 1.34704C23.772 1.12206 23.4147 1 23.047 1C22.6792 1 22.3219 1.12206 22.0311 1.34704L23.047 2.65981ZM40.4561 7.7743L42.1176 7.80139C42.1211 7.58101 42.0807 7.36216 41.9987 7.15756C41.9167 6.95297 41.7949 6.76672 41.6403 6.60967C41.4856 6.45262 41.3013 6.3279 41.098 6.24278C40.8947 6.15766 40.6765 6.11384 40.4561 6.11387V7.7743ZM23.047 43.3386L22.127 44.7214C22.3994 44.9031 22.7195 45 23.047 45C23.3744 45 23.6945 44.9031 23.9669 44.7214L23.047 43.3386ZM5.66382 7.7743V6.11387C5.44351 6.11399 5.22543 6.15793 5.02226 6.24311C4.81909 6.3283 4.63489 6.45304 4.48037 6.61007C4.32586 6.76711 4.20412 6.9533 4.12223 7.15782C4.04034 7.36235 3.99994 7.58111 4.00339 7.80139L5.66382 7.7743ZM22.0311 3.97258C29.5679 9.81174 38.1918 9.43586 40.4572 9.43586V6.11387C38.1139 6.11387 30.5996 6.40961 24.0651 1.34704L22.0311 3.97258ZM38.7968 7.74721C38.6726 15.4613 38.3453 20.9031 37.7211 24.934C37.1036 28.923 36.222 31.3127 35.0865 32.9923C33.9363 34.7362 32.4903 35.7713 30.3558 37.0491C28.1987 38.3404 25.475 39.7322 22.1281 41.9559L23.9681 44.7214C27.1523 42.5993 29.8072 41.247 32.0614 39.8993C34.3336 38.5368 36.3315 37.0378 37.8385 34.8525C39.36 32.6017 40.3489 29.6692 40.999 25.4419C41.6447 21.2564 41.9878 15.5888 42.1154 7.80139L38.7968 7.74721ZM23.9669 41.9559C20.6201 39.7322 17.8975 38.3438 15.7438 37.0491C13.6081 35.7725 12.1678 34.7374 11.021 32.9934C9.89221 31.3149 9.00951 28.9298 8.39433 24.9351C7.77124 20.9031 7.44615 15.4613 7.32086 7.74721L4 7.80139C4.12755 15.5899 4.46844 21.2564 5.11184 25.4408C5.76315 29.668 6.7497 32.6006 8.27242 34.8514C9.77482 37.0367 11.7716 38.5368 14.0416 39.8993C16.2924 41.2459 18.9461 42.5993 22.1315 44.7214L23.9669 41.9559ZM5.66043 9.43586C7.90331 9.43586 16.5272 9.81174 24.0595 3.97258L22.0277 1.34704C15.4921 6.40961 7.97781 6.11387 5.66043 6.11387V9.43586Z" fill="#3A78FF"/>
</svg>
