<svg width="42" height="19" viewBox="0 0 42 19" fill="none" xmlns="http://www.w3.org/2000/svg">
<path fill-rule="evenodd" clip-rule="evenodd" d="M3.3421 0.654017C2.38342 0.977606 1.49794 1.80218 1.15082 2.69476C0.951001 3.20861 0.935662 4.24974 1.11781 4.94213C1.26069 5.48546 1.71044 6.46022 2.07481 7.01642C2.27714 7.32519 2.30498 7.42911 2.24946 7.6693C2.13942 8.14609 1.93593 8.4876 1.27987 9.29629C0.186814 10.6437 -0.0623577 11.3322 0.0121686 12.7985C0.104868 14.6221 1.01619 15.9843 2.6832 16.791C3.83127 17.3464 4.37279 17.4518 6.32532 17.4998L8.03426 17.5417L8.32219 17.7885C8.48058 17.9243 8.8182 18.1307 9.07246 18.2472C9.50144 18.4438 9.61898 18.4591 10.7019 18.4591C12.0737 18.4591 12.5232 18.344 13.1047 17.8438L13.4784 17.5224H14.851C16.9505 17.5224 18.3119 17.2162 19.3989 16.4993C20.7976 15.5769 21.5127 14.2488 21.5229 12.5542C21.5314 11.1828 21.3167 10.63 20.2692 9.32406C19.6574 8.56139 19.2981 7.94199 19.2371 7.54518C19.2233 7.45558 19.3178 7.22069 19.4471 7.02318C20.903 4.7991 20.9371 2.77702 19.5404 1.48649C18.0715 0.129171 15.9993 0.188628 14.0305 1.64466L13.4969 2.03919L12.8913 1.90415C12.066 1.72008 9.45651 1.72195 8.61779 1.90724L8.03426 2.03617L7.5931 1.71087C6.96138 1.24492 6.02996 0.772848 5.45334 0.626243C4.78802 0.457159 3.89037 0.468969 3.3421 0.654017ZM25.8475 0.907643C25.9462 1.43835 26.1232 1.92158 26.3687 2.33101C26.6326 2.77091 27.3739 3.4444 27.8099 3.64036L28.162 3.79861L28.1642 4.82932L28.1664 5.85995L27.7249 6.1034C26.0879 7.00608 25.3692 9.06612 26.0418 10.9284C26.3403 11.7551 27.0351 12.5384 27.7862 12.8949L28.1664 13.0754V14.1165V15.1577L27.7386 15.3695C26.8176 15.8256 25.9635 17.036 25.858 18.0352L25.8089 18.4998H26.6125H27.4161L27.4164 17.9908C27.4168 17.4713 27.5936 17.0461 27.906 16.8138C28.1148 16.6585 28.1664 16.687 28.1664 16.9577C28.1664 17.2933 28.2891 17.4961 28.5815 17.6438C29.2125 17.9626 29.9503 17.6529 30.053 17.0264C30.1132 16.6577 30.1568 16.6408 30.3987 16.8924C30.6659 17.1704 30.834 17.6326 30.834 18.09V18.4998H31.6259C32.5328 18.4998 32.5044 18.5327 32.2902 17.7295C32.0172 16.7053 31.2446 15.7223 30.421 15.3512L30.0881 15.2012L30.0859 14.1344L30.0837 13.0676L30.4275 12.9161C31.2538 12.5521 32.1034 11.4132 32.3258 10.3715C32.688 8.67444 31.9195 6.8532 30.5452 6.15162L30.0841 5.91623L30.0839 4.84691L30.0837 3.77768L30.345 3.67196C31.3012 3.28492 32.1845 2.05613 32.3844 0.834585L32.4392 0.5H31.6366H30.834L30.8335 0.84615C30.8328 1.37409 30.6788 1.80478 30.3916 2.08178L30.1317 2.33256L30.0791 2.02738C30.0165 1.66323 29.8074 1.41432 29.4346 1.26015C28.8603 1.02273 28.1664 1.43721 28.1664 2.01777C28.1664 2.3504 28.0963 2.36041 27.817 2.06786C27.4885 1.72366 27.4161 1.5299 27.4161 0.994058V0.5H26.5939H25.7716L25.8475 0.907643ZM37.7509 0.84615C37.7489 1.17316 37.7293 1.20102 37.3966 1.35015C37.203 1.43705 36.8341 1.70338 36.5769 1.94218C35.2674 3.1577 34.9953 5.29129 35.9473 6.87845C36.2223 7.33691 37.0804 8.114 37.4596 8.2479L37.7531 8.35167V9.47417V10.5967L37.3229 10.8097C35.7218 11.6024 34.9567 13.792 35.6296 15.6554C35.9173 16.4521 36.653 17.2731 37.3988 17.6298C37.7338 17.79 37.7531 17.8183 37.7531 18.1495V18.4998H38.7118H39.6704V18.1347C39.6704 17.78 39.6819 17.7639 40.0736 17.5699C41.5043 16.8617 42.2965 14.9548 41.8789 13.2246C41.6278 12.1841 40.9119 11.2277 40.0923 10.8378L39.6769 10.6402L39.6739 9.49991L39.6709 8.35965L40.1327 8.12386C41.4951 7.42838 42.2717 5.58727 41.9125 3.90441C41.6918 2.87052 40.9302 1.83516 40.0664 1.39453C39.6885 1.20183 39.6704 1.17674 39.6704 0.846313V0.5H38.7118H37.7531L37.7509 0.84615ZM37.7531 2.97314C37.7531 3.71838 38.8208 4.08245 39.3684 3.52397C39.4858 3.40432 39.612 3.1643 39.6489 2.99057L39.7161 2.6748L39.9821 2.93462C40.3397 3.28394 40.4198 3.62113 40.4198 4.77597C40.4198 5.93081 40.3397 6.268 39.9821 6.61733L39.7161 6.87715L39.6491 6.56227C39.527 5.98807 39.0247 5.67311 38.4348 5.80098C38.0493 5.88455 37.8465 6.08996 37.7395 6.5055L37.6478 6.86118L37.4424 6.67377C37.0442 6.31035 37.0028 6.13158 37.0028 4.77467C37.0028 3.4422 37.0306 3.31392 37.4037 2.92305C37.683 2.63049 37.7531 2.64051 37.7531 2.97314ZM28.1664 7.71613C28.1664 8.16548 28.5523 8.48182 29.1005 8.48182C29.4628 8.48182 29.5536 8.4459 29.8003 8.2049C30.0054 8.00454 30.0837 7.85541 30.0837 7.66555C30.0837 7.41282 30.0906 7.40753 30.2713 7.52074C30.3745 7.58549 30.5432 7.79929 30.6464 7.9959C30.8127 8.3129 30.8339 8.47384 30.8335 9.41536C30.833 10.657 30.7576 10.9873 30.3937 11.3429L30.1261 11.6043L30.0786 11.3259C30.0076 10.9085 29.8718 10.7171 29.5366 10.5617C28.9213 10.2765 28.1664 10.6807 28.1664 11.2954C28.1664 11.5891 28.1617 11.5937 27.9788 11.4766C27.8756 11.4106 27.7069 11.2357 27.6037 11.0881C27.4285 10.8374 27.4161 10.7339 27.4161 9.5232C27.4161 8.16483 27.443 8.03874 27.817 7.64698C28.0994 7.35109 28.1664 7.36436 28.1664 7.71613ZM37.7531 12.3568C37.7531 12.4802 37.8535 12.6649 37.9968 12.8048C38.2033 13.0066 38.3062 13.0429 38.672 13.0429C39.0516 13.0429 39.1377 13.0095 39.387 12.7659C39.5429 12.6136 39.6704 12.409 39.6704 12.3112C39.6704 12.0714 39.8157 12.1336 40.124 12.5057C40.3747 12.8082 40.3795 12.8315 40.4084 13.8708C40.4465 15.241 40.3908 15.584 40.073 15.9376C39.7551 16.2915 39.6704 16.292 39.6704 15.9405C39.6704 15.3643 38.9663 14.8894 38.3884 15.0758C37.982 15.2068 37.8045 15.4401 37.7548 15.9082L37.7114 16.3166L37.4721 16.1321C37.0712 15.8231 37.0028 15.5382 37.0028 14.1777C37.0028 12.8606 37.0831 12.5167 37.4491 12.2663C37.694 12.0986 37.7531 12.1162 37.7531 12.3568Z" fill="black"/>
</svg>
