<svg width="301" height="166" viewBox="0 0 301 166" fill="none" xmlns="http://www.w3.org/2000/svg">
<rect y="74.0781" width="46.7291" height="46.7291" rx="23.3646" transform="rotate(-15 0 74.0781)" fill="#F27DDA"/>
<rect x="12.3968" y="120.344" width="46.7291" height="46.7291" rx="23.3646" transform="rotate(-15 12.3968 120.344)" fill="#F27DDA"/>
<rect x="46.2653" y="61.6814" width="46.7291" height="46.7291" rx="23.3646" transform="rotate(-15 46.2653 61.6814)" fill="#F27DDA"/>
<rect x="58.6622" y="107.947" width="46.7291" height="46.7291" rx="23.3646" transform="rotate(-15 58.6622 107.947)" fill="#F27DDA"/>
<rect x="92.5306" y="49.2847" width="46.7291" height="46.7291" rx="23.3646" transform="rotate(-15 92.5306 49.2847)" fill="#F27DDA"/>
<rect x="104.927" y="95.55" width="46.7291" height="46.7291" rx="23.3646" transform="rotate(-15 104.927 95.55)" fill="#F27DDA"/>
<rect x="138.796" y="36.8879" width="46.7291" height="46.7291" rx="23.3646" transform="rotate(-15 138.796 36.8879)" fill="#F27DDA"/>
<rect x="151.193" y="83.1533" width="46.7291" height="46.7291" rx="23.3646" transform="rotate(-15 151.193 83.1533)" fill="#F27DDA"/>
<rect x="185.061" y="24.4911" width="46.7291" height="46.7291" rx="23.3646" transform="rotate(-15 185.061 24.4911)" fill="#F27DDA"/>
<rect x="197.458" y="70.7565" width="46.7291" height="46.7291" rx="23.3646" transform="rotate(-15 197.458 70.7565)" fill="#F27DDA"/>
<rect x="231.327" y="12.0944" width="46.7291" height="46.7291" rx="23.3646" transform="rotate(-15 231.327 12.0944)" fill="#F27DDA"/>
<rect x="243.723" y="58.3597" width="46.7291" height="46.7291" rx="23.3646" transform="rotate(-15 243.723 58.3597)" fill="#F27DDA"/>
</svg>
