<svg width="16" height="13" viewBox="0 0 16 13" fill="none" xmlns="http://www.w3.org/2000/svg">
<path d="M13.5447 1.01503C12.5249 0.545215 11.4313 0.199078 10.2879 0.000831619C10.2671 -0.00299448 10.2463 0.00656715 10.2356 0.0256909C10.0949 0.276845 9.93915 0.604496 9.83006 0.862028C8.60027 0.677171 7.37679 0.677171 6.17221 0.862028C6.0631 0.598771 5.90166 0.276845 5.76038 0.0256909C5.74966 0.00720521 5.72886 -0.00235642 5.70803 0.000831619C4.56527 0.198445 3.47171 0.544581 2.45129 1.01503C2.44246 1.01885 2.43488 1.02523 2.42986 1.03351C0.355594 4.14494 -0.212633 7.17989 0.0661201 10.1772C0.0673814 10.1919 0.0755799 10.2059 0.086932 10.2148C1.45547 11.2239 2.78114 11.8365 4.08219 12.2426C4.10301 12.2489 4.12507 12.2413 4.13832 12.2241C4.44608 11.8021 4.72043 11.3572 4.95565 10.8892C4.96953 10.8618 4.95628 10.8293 4.92791 10.8185C4.49275 10.6528 4.0784 10.4507 3.67982 10.2212C3.64829 10.2027 3.64577 10.1574 3.67477 10.1358C3.75865 10.0727 3.84255 10.007 3.92264 9.9407C3.93713 9.9286 3.95732 9.92604 3.97435 9.93369C6.59286 11.134 9.4277 11.134 12.0153 9.93369C12.0323 9.92541 12.0525 9.92796 12.0677 9.94007C12.1478 10.0064 12.2316 10.0727 12.3161 10.1358C12.3451 10.1574 12.3433 10.2027 12.3117 10.2212C11.9131 10.4551 11.4988 10.6528 11.063 10.8179C11.0346 10.8287 11.022 10.8618 11.0359 10.8892C11.2762 11.3565 11.5505 11.8014 11.8526 12.2234C11.8652 12.2413 11.8879 12.2489 11.9087 12.2426C13.2161 11.8365 14.5417 11.2239 15.9103 10.2148C15.9223 10.2059 15.9298 10.1925 15.9311 10.1778C16.2647 6.71261 15.3723 3.70255 13.5655 1.03415C13.5611 1.02523 13.5535 1.01885 13.5447 1.01503ZM5.34668 8.35216C4.55833 8.35216 3.90875 7.62547 3.90875 6.73302C3.90875 5.84057 4.54574 5.11389 5.34668 5.11389C6.15392 5.11389 6.79721 5.84696 6.78459 6.73302C6.78459 7.62547 6.14761 8.35216 5.34668 8.35216ZM10.6632 8.35216C9.87484 8.35216 9.22526 7.62547 9.22526 6.73302C9.22526 5.84057 9.86222 5.11389 10.6632 5.11389C11.4704 5.11389 12.1137 5.84696 12.1011 6.73302C12.1011 7.62547 11.4704 8.35216 10.6632 8.35216Z" fill="currentColor"/>
</svg>
