<svg width="20" height="20" viewBox="0 0 20 20" fill="none" xmlns="http://www.w3.org/2000/svg">
<path d="M9.99598 19.998C15.5166 19.998 19.992 15.5213 19.992 9.99899C19.992 4.4767 15.5166 0 9.99598 0C4.47535 0 0 4.4767 0 9.99899C0 15.5213 4.47535 19.998 9.99598 19.998Z" fill="#9597A2"/>
<path d="M7.366 9.648C6.666 9.648 6.09667 9.43333 5.658 9.004C5.21933 8.56533 5 8.01467 5 7.352C5 6.68 5.21933 6.12 5.658 5.672C6.09667 5.224 6.666 5 7.366 5C8.07533 5 8.64933 5.224 9.088 5.672C9.52667 6.12 9.746 6.68 9.746 7.352C9.746 8.01467 9.52667 8.56533 9.088 9.004C8.64933 9.43333 8.07533 9.648 7.366 9.648ZM7.506 14.478H6.456L12.42 5.14H13.484L7.506 14.478ZM14.212 13.988C13.7733 14.4267 13.204 14.646 12.504 14.646C11.804 14.646 11.2347 14.4267 10.796 13.988C10.3573 13.5493 10.138 12.9987 10.138 12.336C10.138 11.664 10.3573 11.104 10.796 10.656C11.2347 10.208 11.804 9.984 12.504 9.984C13.204 9.984 13.7733 10.208 14.212 10.656C14.66 11.104 14.884 11.664 14.884 12.336C14.884 12.9987 14.66 13.5493 14.212 13.988ZM7.366 8.556C7.69267 8.556 7.95867 8.44867 8.164 8.234C8.36933 8.01 8.472 7.716 8.472 7.352C8.472 6.96933 8.36933 6.666 8.164 6.442C7.95867 6.218 7.69267 6.106 7.366 6.106C7.03933 6.106 6.77333 6.218 6.568 6.442C6.36267 6.666 6.26 6.96933 6.26 7.352C6.26 7.70667 6.36267 7.996 6.568 8.22C6.78267 8.444 7.04867 8.556 7.366 8.556ZM11.706 13.232C11.9113 13.4467 12.1773 13.554 12.504 13.554C12.8307 13.554 13.0967 13.4467 13.302 13.232C13.5167 13.008 13.624 12.7093 13.624 12.336C13.624 11.9533 13.5167 11.65 13.302 11.426C13.0967 11.202 12.8307 11.09 12.504 11.09C12.1773 11.09 11.9113 11.202 11.706 11.426C11.5007 11.65 11.398 11.9533 11.398 12.336C11.398 12.7093 11.5007 13.008 11.706 13.232Z" fill="white"/>
</svg>
