<svg width="16" height="16" viewBox="0 0 16 16" fill="none" xmlns="http://www.w3.org/2000/svg">
<path fill-rule="evenodd" clip-rule="evenodd" d="M7.97553 0.192017C3.57186 0.192017 0 3.76388 0 8.16755C0 11.6905 2.29969 14.6752 5.43119 15.7516C5.82263 15.8006 5.96942 15.5559 5.96942 15.3602C5.96942 15.1645 5.96942 14.6752 5.96942 13.9902C3.76758 14.4795 3.27829 12.9137 3.27829 12.9137C2.93578 11.9841 2.39755 11.7394 2.39755 11.7394C1.66361 11.2501 2.44648 11.2501 2.44648 11.2501C3.22936 11.2991 3.66972 12.0819 3.66972 12.0819C4.40367 13.3052 5.52905 12.9627 5.96942 12.7669C6.01835 12.2287 6.263 11.8862 6.45872 11.6905C4.69725 11.4948 2.83792 10.8098 2.83792 7.72718C2.83792 6.84645 3.1315 6.16144 3.66972 5.57428C3.62079 5.42749 3.32722 4.59569 3.76758 3.51923C3.76758 3.51923 4.4526 3.32352 5.96942 4.35104C6.6055 4.15532 7.29052 4.10639 7.97553 4.10639C8.66055 4.10639 9.34557 4.20425 9.98165 4.35104C11.4985 3.32352 12.1835 3.51923 12.1835 3.51923C12.6239 4.59569 12.3303 5.42749 12.2813 5.62321C12.7706 6.16144 13.1131 6.89538 13.1131 7.77611C13.1131 10.8587 11.2538 11.4948 9.49235 11.6905C9.78593 11.9351 10.0306 12.4244 10.0306 13.1584C10.0306 14.2348 10.0306 15.0666 10.0306 15.3602C10.0306 15.5559 10.1774 15.8006 10.5688 15.7516C13.7492 14.6752 16 11.6905 16 8.16755C15.9511 3.76388 12.3792 0.192017 7.97553 0.192017Z" fill="currentColor"/>
</svg>
