<svg width="24" height="24" viewBox="0 0 24 24" fill="none" xmlns="http://www.w3.org/2000/svg">
<path d="M16.3452 6.6062L20.0397 6.61694L20.0504 2.92246" stroke="currentColor" stroke-width="2" stroke-linecap="round" stroke-linejoin="round"/>
<path d="M21.1577 11.5173C21.1575 13.8412 20.3124 16.0857 18.7801 17.8327C17.2477 19.5798 15.1324 20.7101 12.8284 21.0133C10.5244 21.3164 8.18881 20.7717 6.25668 19.4805C4.32454 18.1893 2.92768 16.2397 2.32634 13.995C1.725 11.7503 1.96018 9.36355 2.98808 7.27938C4.01598 5.19522 5.76648 3.5558 7.91347 2.66655C10.0605 1.7773 12.4575 1.69888 14.658 2.44589C16.6354 3.11716 18.333 4.41383 19.5 6.13021" stroke="currentColor" stroke-width="2" stroke-linecap="round"/>
<path d="M11.5 7.5V11.5L15 15" stroke="currentColor" stroke-width="2" stroke-linecap="round" stroke-linejoin="round"/>
</svg>
