<svg width="24" height="24" viewBox="0 0 24 24" fill="none" xmlns="http://www.w3.org/2000/svg">
<path d="M11.996 21.998C17.5166 21.998 21.992 17.5213 21.992 11.999C21.992 6.4767 17.5166 2 11.996 2C6.47535 2 2 6.4767 2 11.999C2 17.5213 6.47535 21.998 11.996 21.998Z" fill="#18DF8B"/>
<path d="M17.0965 12.5555H14.6156H13.2957H10.3108H8.99084H6.89526C6.55623 12.5555 6.27856 12.8333 6.27856 13.1724C6.27856 13.5116 6.55623 13.7893 6.89526 13.7893H9.45865L11.1951 18.3782C11.2916 18.6338 11.5432 18.7888 11.8037 18.7757C12.0643 18.7888 12.3158 18.6338 12.4124 18.3782L14.1498 13.7903H17.0975C17.4365 13.7903 17.7142 13.5126 17.7142 13.1734C17.7142 12.8343 17.4365 12.5555 17.0965 12.5555ZM11.8037 16.5004L10.7776 13.7903H12.8289L11.8037 16.5004Z" fill="white"/>
<path d="M6.89526 11.4032H8.55422H9.87414H13.7333H15.0532H17.0975C17.4365 11.4032 17.7142 11.1255 17.7142 10.7864C17.7142 10.4472 17.4365 10.1695 17.0975 10.1695H15.52L16.7916 6.8093C16.9114 6.49231 16.7504 6.13405 16.4335 6.01329C16.1166 5.89253 15.7584 6.05455 15.6377 6.37155L14.2001 10.1685H9.40633L7.96971 6.37255C7.84999 6.05555 7.49184 5.89353 7.17394 6.01429C6.85704 6.13506 6.69506 6.49231 6.81579 6.81031L8.08742 10.1705H6.89526C6.55623 10.1705 6.27856 10.4482 6.27856 10.7874C6.27856 11.1265 6.55522 11.4032 6.89526 11.4032Z" fill="white"/>
</svg>
