<svg width="16" height="16" viewBox="0 0 16 16" fill="none" xmlns="http://www.w3.org/2000/svg">
<path d="M8 16C12.4183 16 16 12.4183 16 8C16 3.58172 12.4183 0 8 0C3.58172 0 0 3.58172 0 8C0 12.4183 3.58172 16 8 16Z" fill="#84B865"/>
<path d="M12.0823 8.44543H10.0971H9.04102H6.65094H5.59483H3.9178C3.64621 8.44543 3.42395 8.66762 3.42395 8.93928C3.42395 9.21087 3.64614 9.43313 3.9178 9.43313H5.96891L7.35896 13.1039C7.43648 13.3088 7.63777 13.4322 7.84598 13.4219C8.05418 13.4322 8.25548 13.3088 8.33299 13.1039L9.72312 9.43305H12.0823C12.3539 9.43305 12.5762 9.21087 12.5762 8.93921C12.5762 8.66762 12.354 8.44543 12.0823 8.44543ZM7.84598 11.6012L7.02494 9.43305H8.66702L7.84598 11.6012Z" fill="white"/>
<path d="M3.9178 7.52342H5.24581H6.30191H9.39012H10.4462H12.0824C12.354 7.52342 12.5763 7.30124 12.5763 7.02957C12.5763 6.75791 12.3541 6.53572 12.0824 6.53572H10.8202L11.8382 3.84759C11.9344 3.5936 11.8053 3.30709 11.5512 3.21088C11.2971 3.11467 11.0107 3.24379 10.9145 3.49786L9.76404 6.53572H5.92783L4.7774 3.49786C4.68119 3.24387 4.39468 3.11475 4.14069 3.21088C3.8867 3.30709 3.75758 3.5936 3.85379 3.84759L4.87173 6.53572H3.9178C3.64621 6.53572 3.42395 6.75791 3.42395 7.02957C3.42395 7.30124 3.64614 7.52342 3.9178 7.52342Z" fill="white"/>
</svg>
