<svg width="12" height="12" viewBox="0 0 12 12" fill="none" xmlns="http://www.w3.org/2000/svg">
<path d="M11.7975 2.76755L7.40576 10.3743C7.27296 10.6038 7.08218 10.7942 6.85255 10.9266C6.62292 11.059 6.36251 11.1287 6.09744 11.1287C5.83237 11.1287 5.57196 11.059 5.34232 10.9266C5.11269 10.7942 4.92191 10.6038 4.78912 10.3743L4.01924 9.04187C4.01676 9.03856 4.0157 9.0344 4.01628 9.03031C4.01687 9.02622 4.01905 9.02253 4.02236 9.02005C4.02567 9.01757 4.02982 9.0165 4.03392 9.01709C4.03801 9.01767 4.0417 9.01986 4.04418 9.02316C4.18152 9.15874 4.34804 9.26111 4.53101 9.32244C4.71399 9.38377 4.90857 9.40244 5.09986 9.37703C5.29116 9.35161 5.47412 9.28278 5.63473 9.1758C5.79534 9.06882 5.92936 8.92652 6.02653 8.75979L9.70291 2.38573C9.79984 2.21744 9.85673 2.02911 9.86918 1.8353C9.88164 1.6415 9.84932 1.44743 9.77474 1.26813C9.70015 1.08882 9.5853 0.929084 9.43907 0.801289C9.29284 0.673494 9.11916 0.581069 8.93148 0.53117C8.92735 0.53117 8.92338 0.529528 8.92046 0.526605C8.91754 0.523683 8.91589 0.519719 8.91589 0.515585C8.91589 0.511452 8.91754 0.507488 8.92046 0.504566C8.92338 0.501643 8.92735 0.500001 8.93148 0.500001H10.4899C10.7551 0.500286 11.0156 0.570344 11.2452 0.70314C11.4748 0.835935 11.6654 1.02679 11.7979 1.25655C11.9304 1.48631 12.0001 1.74688 12 2.0121C11.9999 2.27732 11.9301 2.53786 11.7975 2.76755ZM6.59848 0.500001H5.07587C5.07276 0.501026 5.07004 0.503009 5.06812 0.505667C5.06619 0.508326 5.06516 0.511524 5.06516 0.514806C5.06516 0.518088 5.06619 0.521287 5.06812 0.523945C5.07004 0.526604 5.07276 0.528587 5.07587 0.529611C5.17842 0.569222 5.27121 0.630508 5.3479 0.709281C5.42459 0.788053 5.48336 0.882455 5.5202 0.986032C5.55705 1.08961 5.57109 1.19992 5.56138 1.30943C5.55167 1.41893 5.51843 1.52505 5.46393 1.62053L3.24469 5.45899C3.18736 5.55632 3.10918 5.63976 3.01578 5.7033C2.92237 5.76684 2.81606 5.80891 2.70447 5.82649C2.59287 5.84407 2.47877 5.83672 2.37036 5.80498C2.26194 5.77323 2.1619 5.71788 2.07741 5.64289C2.07493 5.63958 2.07124 5.63739 2.06715 5.63681C2.06306 5.63623 2.0589 5.63729 2.0556 5.63977C2.05229 5.64225 2.0501 5.64594 2.04952 5.65003C2.04893 5.65412 2.05 5.65828 2.05248 5.66159L2.8317 7.01432C2.91919 7.16613 3.04513 7.2922 3.19683 7.37987C3.34854 7.46753 3.52065 7.51369 3.69587 7.51369C3.87108 7.51369 4.0432 7.46753 4.1949 7.37987C4.3466 7.2922 4.47254 7.16613 4.56003 7.01432L7.46342 1.99611C7.55101 1.8444 7.5971 1.6723 7.59705 1.49712C7.597 1.32194 7.55081 1.14986 7.46313 0.998203C7.37545 0.846543 7.24938 0.720651 7.09759 0.633193C6.9458 0.545735 6.77366 0.499797 6.59848 0.500001ZM1.31377 0.500001C1.05393 0.500001 0.79993 0.577052 0.583881 0.721412C0.367832 0.865771 0.199442 1.07095 0.100006 1.31102C0.000569245 1.55108 -0.0254479 1.81523 0.0252444 2.07008C0.0759366 2.32493 0.201061 2.55902 0.384796 2.74275C0.56853 2.92649 0.802623 3.05161 1.05747 3.1023C1.31232 3.153 1.57647 3.12698 1.81653 3.02754C2.05659 2.92811 2.26178 2.75972 2.40614 2.54367C2.5505 2.32762 2.62755 2.07361 2.62755 1.81377C2.62775 1.64119 2.59391 1.47026 2.52796 1.31077C2.46201 1.15129 2.36525 1.00637 2.24321 0.884339C2.12117 0.762303 1.97626 0.665539 1.81678 0.599588C1.65729 0.533638 1.48636 0.499796 1.31377 0.500001Z" fill="currentColor"/>
</svg>
