<svg width="24" height="24" viewBox="0 0 24 24" fill="none" xmlns="http://www.w3.org/2000/svg">
<circle cx="12" cy="12" r="11" stroke="currentColor" stroke-width="2"/>
<path d="M19.1357 13.2095H15.6646H13.8179H9.64159H7.79485H4.86285C4.38849 13.2095 4 13.5981 4 14.0726C4 14.5471 4.38849 14.9357 4.86285 14.9357H8.44937L10.8789 21.3562C11.014 21.7138 11.3659 21.9307 11.7304 21.9124C12.095 21.9307 12.4469 21.7138 12.582 21.3562L15.0129 14.9371H19.1372C19.6115 14.9371 20 14.5485 20 14.074C20 13.5995 19.6115 13.2095 19.1357 13.2095ZM11.7304 18.7289L10.2947 14.9371H13.1648L11.7304 18.7289Z" fill="currentColor"/>
<path d="M4.86285 12.5973H7.18395H9.0307H14.4302H16.2769H19.1372C19.6115 12.5973 20 12.2087 20 11.7342C20 11.2597 19.6115 10.8711 19.1372 10.8711H16.9301L18.7092 6.16973C18.8767 5.72621 18.6515 5.22496 18.2081 5.056C17.7648 4.88704 17.2637 5.11372 17.0947 5.55725L15.0833 10.8697H8.37618L6.36615 5.55866C6.19865 5.11513 5.69755 4.88844 5.25275 5.0574C4.80936 5.22637 4.58274 5.72621 4.75165 6.17114L6.53083 10.8725H4.86285C4.38849 10.8725 4 11.2611 4 11.7356C4 12.2101 4.38709 12.5973 4.86285 12.5973Z" fill="currentColor"/>
</svg>
