<svg width="20" height="18" viewBox="0 0 20 18" fill="none" xmlns="http://www.w3.org/2000/svg">
    <path d="M19.6624 3.95258L12.3429 16.6306C12.1216 17.0129 11.8036 17.3304 11.4209 17.551C11.0382 17.7717 10.6042 17.8879 10.1624 17.8879C9.72061 17.8879 9.28659 17.7717 8.90387 17.551C8.52115 17.3304 8.20319 17.0129 7.98186 16.6306L6.69874 14.4098C6.69461 14.4043 6.69283 14.3973 6.69381 14.3905C6.69478 14.3837 6.69842 14.3776 6.70393 14.3734C6.70945 14.3693 6.71637 14.3675 6.72319 14.3685C6.73001 14.3695 6.73617 14.3731 6.7403 14.3786C6.96919 14.6046 7.24673 14.7752 7.55169 14.8774C7.85665 14.9796 8.18094 15.0107 8.49977 14.9684C8.81861 14.926 9.12353 14.8113 9.39121 14.633C9.6589 14.4547 9.88226 14.2175 10.0442 13.9397L16.1715 3.31622C16.3331 3.03574 16.4279 2.72185 16.4486 2.39885C16.4694 2.07584 16.4155 1.7524 16.2912 1.45355C16.1669 1.15471 15.9755 0.888479 15.7318 0.675488C15.4881 0.462497 15.1986 0.308454 14.8858 0.22529C14.8789 0.22529 14.8723 0.222553 14.8674 0.217682C14.8626 0.212811 14.8598 0.206204 14.8598 0.199316C14.8598 0.192427 14.8626 0.18582 14.8674 0.180949C14.8723 0.176078 14.8789 0.173341 14.8858 0.173341H17.4832C17.9252 0.173817 18.3594 0.29058 18.742 0.511906C19.1246 0.733232 19.4423 1.05133 19.6631 1.43426C19.8839 1.81719 20.0001 2.25148 20 2.69351C19.9999 3.13555 19.8835 3.56977 19.6624 3.95258ZM10.9975 0.173341H8.45979C8.45459 0.175049 8.45007 0.178354 8.44686 0.182785C8.44365 0.187216 8.44193 0.192547 8.44193 0.198017C8.44193 0.203487 8.44365 0.208817 8.44686 0.213248C8.45007 0.217679 8.45459 0.220984 8.45979 0.222692C8.63071 0.28871 8.78536 0.390854 8.91317 0.522141C9.04098 0.653429 9.13893 0.810764 9.20034 0.983394C9.26175 1.15602 9.28516 1.33988 9.26897 1.52239C9.25278 1.7049 9.19738 1.88176 9.10655 2.04088L5.40782 8.43832C5.31226 8.60055 5.18197 8.7396 5.02629 8.8455C4.87062 8.9514 4.69343 9.02152 4.50744 9.05082C4.32146 9.08012 4.13129 9.06788 3.9506 9.01497C3.76991 8.96206 3.60317 8.86981 3.46236 8.74482C3.45822 8.73931 3.45207 8.73566 3.44525 8.73469C3.43843 8.73372 3.43151 8.73549 3.42599 8.73962C3.42048 8.74376 3.41684 8.74991 3.41587 8.75673C3.41489 8.76355 3.41667 8.77048 3.4208 8.77599L4.71951 11.0305C4.86532 11.2836 5.07521 11.4937 5.32805 11.6398C5.58089 11.7859 5.86776 11.8628 6.15978 11.8628C6.45179 11.8628 6.73866 11.7859 6.9915 11.6398C7.24434 11.4937 7.45423 11.2836 7.60004 11.0305L12.439 2.66686C12.585 2.41401 12.6618 2.12717 12.6617 1.83521C12.6617 1.54324 12.5847 1.25644 12.4385 1.00368C12.2924 0.750912 12.0823 0.541092 11.8293 0.395329C11.5763 0.249566 11.2894 0.173002 10.9975 0.173341ZM2.18962 0.173341C1.75656 0.173341 1.33322 0.301761 0.973135 0.542359C0.613053 0.782958 0.332403 1.12493 0.166676 1.52503C0.000948741 1.92513 -0.0424131 2.36539 0.042074 2.79014C0.126561 3.21488 0.335102 3.60504 0.641327 3.91126C0.947551 4.21749 1.3377 4.42603 1.76245 4.51051C2.18719 4.595 2.62745 4.55164 3.02756 4.38591C3.42766 4.22018 3.76963 3.93953 4.01023 3.57945C4.25083 3.21937 4.37925 2.79603 4.37925 2.36296C4.37959 2.07532 4.32319 1.79044 4.21327 1.52463C4.10335 1.25882 3.94208 1.0173 3.73868 0.813905C3.53529 0.610511 3.29377 0.449238 3.02796 0.33932C2.76215 0.229403 2.47727 0.173 2.18962 0.173341Z" fill="currentColor"/>
</svg>
