<svg width="24" height="24" viewBox="0 0 24 24" fill="none" xmlns="http://www.w3.org/2000/svg">
<circle cx="10" cy="10" r="9" stroke="currentColor" stroke-width="2"/>
<path d="M14.956 7.93838L11.2018 14.4409C11.0883 14.6371 10.9252 14.7999 10.7289 14.913C10.5326 15.0262 10.31 15.0858 10.0834 15.0858C9.85681 15.0858 9.6342 15.0262 9.4379 14.913C9.24161 14.7999 9.07852 14.6371 8.965 14.4409L8.30689 13.3019C8.30477 13.2991 8.30386 13.2955 8.30436 13.292C8.30486 13.2885 8.30673 13.2854 8.30955 13.2832C8.31238 13.2811 8.31593 13.2802 8.31943 13.2807C8.32293 13.2812 8.32608 13.2831 8.3282 13.2859C8.4456 13.4018 8.58795 13.4893 8.74437 13.5417C8.90078 13.5942 9.06711 13.6101 9.23064 13.5884C9.39417 13.5667 9.55057 13.5078 9.68786 13.4164C9.82516 13.3249 9.93972 13.2033 10.0228 13.0608L13.1655 7.61199C13.2483 7.46813 13.297 7.30713 13.3076 7.14147C13.3183 6.9758 13.2906 6.8099 13.2269 6.65662C13.1631 6.50334 13.065 6.3668 12.9399 6.25755C12.8149 6.14831 12.6665 6.0693 12.506 6.02665C12.5025 6.02665 12.4991 6.02524 12.4966 6.02274C12.4941 6.02024 12.4927 6.01686 12.4927 6.01332C12.4927 6.00979 12.4941 6.0064 12.4966 6.0039C12.4991 6.0014 12.5025 6 12.506 6H13.8383C14.065 6.00024 14.2876 6.06013 14.4839 6.17365C14.6802 6.28717 14.8431 6.45032 14.9563 6.64673C15.0696 6.84314 15.1292 7.06588 15.1291 7.2926C15.1291 7.51932 15.0694 7.74204 14.956 7.93838ZM10.5117 6H9.21013C9.20747 6.00088 9.20515 6.00257 9.2035 6.00484C9.20186 6.00712 9.20097 6.00985 9.20097 6.01266C9.20097 6.01546 9.20186 6.0182 9.2035 6.02047C9.20515 6.02274 9.20747 6.02444 9.21013 6.02531C9.2978 6.05917 9.37712 6.11156 9.44267 6.1789C9.50823 6.24624 9.55847 6.32694 9.58996 6.41548C9.62146 6.50402 9.63347 6.59832 9.62516 6.69193C9.61686 6.78554 9.58844 6.87625 9.54186 6.95787L7.64478 10.2391C7.59576 10.3223 7.52893 10.3937 7.44909 10.448C7.36924 10.5023 7.27836 10.5382 7.18297 10.5533C7.08758 10.5683 6.99004 10.562 6.89736 10.5349C6.80468 10.5078 6.71916 10.4604 6.64694 10.3963C6.64482 10.3935 6.64167 10.3916 6.63817 10.3911C6.63467 10.3906 6.63112 10.3915 6.62829 10.3937C6.62547 10.3958 6.6236 10.3989 6.6231 10.4024C6.6226 10.4059 6.62351 10.4095 6.62563 10.4123L7.29174 11.5687C7.36653 11.6984 7.47418 11.8062 7.60386 11.8812C7.73354 11.9561 7.88068 11.9956 8.03045 11.9956C8.18023 11.9956 8.32736 11.9561 8.45704 11.8812C8.58673 11.8062 8.69438 11.6984 8.76917 11.5687L11.2511 7.27893C11.326 7.14924 11.3654 7.00212 11.3653 6.85237C11.3653 6.70262 11.3258 6.55553 11.2508 6.42588C11.1759 6.29624 11.0681 6.18862 10.9384 6.11386C10.8086 6.0391 10.6615 5.99983 10.5117 6ZM5.99416 6C5.77203 6 5.5549 6.06587 5.37022 6.18927C5.18553 6.31267 5.04158 6.48807 4.95658 6.69328C4.87158 6.8985 4.84934 7.12431 4.89267 7.34216C4.93601 7.56001 5.04297 7.76012 5.20003 7.91719C5.35709 8.07425 5.5572 8.18121 5.77506 8.22454C5.99291 8.26788 6.21872 8.24564 6.42393 8.16063C6.62914 8.07563 6.80454 7.93169 6.92795 7.747C7.05135 7.56231 7.11722 7.34518 7.11722 7.12306C7.11739 6.97553 7.08846 6.82941 7.03209 6.69308C6.97571 6.55674 6.89299 6.43287 6.78867 6.32855C6.68435 6.22423 6.56047 6.14151 6.42414 6.08513C6.2878 6.02875 6.14169 5.99983 5.99416 6Z" fill="currentColor"/>
<path d="M17 16.5L22 21.5" stroke="currentColor" stroke-width="2" stroke-linecap="round" stroke-linejoin="round"/>
</svg>
