<svg width="160" height="34" viewBox="0 0 160 34" fill="none" xmlns="http://www.w3.org/2000/svg">
<path d="M36.8199 7.07663L23.1141 30.8162C22.6997 31.5321 22.1043 32.1265 21.3876 32.5397C20.671 32.953 19.8583 33.1705 19.031 33.1705C18.2038 33.1705 17.3911 32.953 16.6745 32.5397C15.9578 32.1265 15.3624 31.5321 14.948 30.8162L12.5453 26.6577C12.5376 26.6474 12.5343 26.6345 12.5361 26.6217C12.5379 26.6089 12.5448 26.5974 12.5551 26.5897C12.5654 26.5819 12.5784 26.5786 12.5911 26.5804C12.6039 26.5822 12.6154 26.5891 12.6232 26.5994C13.0518 27.0225 13.5715 27.342 14.1425 27.5334C14.7135 27.7248 15.3208 27.783 15.9178 27.7037C16.5148 27.6244 17.0858 27.4096 17.587 27.0757C18.0882 26.7418 18.5065 26.2978 18.8097 25.7774L30.2831 5.88504C30.5856 5.35985 30.7632 4.77208 30.802 4.16726C30.8409 3.56244 30.74 2.95678 30.5073 2.3972C30.2745 1.83761 29.9161 1.3391 29.4597 0.940272C29.0034 0.541446 28.4613 0.253002 27.8756 0.0972762C27.8627 0.0972762 27.8503 0.092152 27.8412 0.0830308C27.8321 0.0739097 27.827 0.0615388 27.827 0.0486395C27.827 0.0357403 27.8321 0.0233694 27.8412 0.0142482C27.8503 0.00512709 27.8627 2.89186e-06 27.8756 2.89186e-06H32.7393C33.567 0.000894016 34.3799 0.219533 35.0964 0.633966C35.8129 1.0484 36.4077 1.64404 36.8212 2.36108C37.2346 3.07812 37.4522 3.89132 37.452 4.71903C37.4517 5.54673 37.2337 6.35982 36.8199 7.07663ZM20.5947 2.89186e-06H15.8429C15.8332 0.0032012 15.8247 0.00938994 15.8187 0.0176868C15.8127 0.0259836 15.8095 0.0359649 15.8095 0.0462077C15.8095 0.0564505 15.8127 0.0664318 15.8187 0.0747286C15.8247 0.0830255 15.8332 0.0892142 15.8429 0.0924125C16.163 0.216031 16.4525 0.407295 16.6919 0.653131C16.9312 0.898966 17.1146 1.19358 17.2296 1.51683C17.3446 1.84008 17.3884 2.18434 17.3581 2.52609C17.3278 2.86784 17.224 3.19901 17.054 3.49698L10.1281 15.4762C9.94916 15.7799 9.70519 16.0403 9.41369 16.2386C9.12219 16.4369 8.7904 16.5682 8.44214 16.6231C8.09388 16.6779 7.7378 16.655 7.39945 16.556C7.0611 16.4569 6.74889 16.2841 6.48522 16.0501C6.47748 16.0398 6.46596 16.033 6.45319 16.0311C6.44042 16.0293 6.42745 16.0326 6.41713 16.0404C6.40681 16.0481 6.39999 16.0596 6.39816 16.0724C6.39634 16.0852 6.39966 16.0981 6.4074 16.1085L8.83923 20.3301C9.11227 20.8039 9.50529 21.1973 9.97873 21.4709C10.4522 21.7445 10.9893 21.8885 11.5361 21.8885C12.0829 21.8885 12.6201 21.7445 13.0935 21.4709C13.567 21.1973 13.96 20.8039 14.233 20.3301L23.294 4.66912C23.5674 4.19566 23.7112 3.65855 23.7111 3.11184C23.7109 2.56514 23.5668 2.02811 23.2931 1.55481C23.0195 1.0815 22.626 0.688615 22.1523 0.415674C21.6786 0.142733 21.1414 -0.000632649 20.5947 2.89186e-06ZM4.10202 2.89186e-06C3.29111 2.89186e-06 2.4984 0.240468 1.82415 0.690989C1.14989 1.14151 0.624379 1.78185 0.314054 2.53104C0.00372964 3.28023 -0.0774654 4.10462 0.0807366 4.89996C0.238939 5.69529 0.629432 6.42585 1.20284 6.99926C1.77624 7.57266 2.5068 7.96316 3.30214 8.12136C4.09748 8.27956 4.92186 8.19837 5.67105 7.88804C6.42024 7.57772 7.06059 7.0522 7.51111 6.37795C7.96163 5.70369 8.20209 4.91099 8.20209 4.10007C8.20273 3.56146 8.09712 3.02802 7.8913 2.53029C7.68548 2.03255 7.38349 1.58031 7.00264 1.19946C6.62178 0.818604 6.16954 0.516619 5.67181 0.310798C5.17408 0.104977 4.64063 -0.000637167 4.10202 2.89186e-06Z" fill="url(#paint0_linear_4680_35849)"/>
<path d="M69.7326 7.43837H65.637L60.0396 20.7627L54.4696 7.43837H50.374L58.2649 25.732H61.8417L69.7326 7.43837Z" fill="white"/>
<path d="M89.897 22.3737H79.7126V18.2234H89.0506V14.9197H79.7126V10.7968H89.8424V7.43837H75.9993V25.732H89.897V22.3737Z" fill="white"/>
<path d="M114.356 7.43837H110.642V19.5067L100.512 7.43837H97.3998V25.732H101.113V13.9913L111.243 25.732H114.356V7.43837Z" fill="white"/>
<path d="M138.021 7.43837H134.308V17.5408C134.308 19.0699 133.926 20.2986 133.161 21.2269C132.397 22.1552 131.386 22.5921 130.158 22.5921C128.847 22.5921 127.782 22.1552 126.99 21.2269C126.199 20.2986 125.816 19.0699 125.816 17.5408V7.43837H122.103V17.5408C122.103 20.1074 122.84 22.1825 124.315 23.7662C125.789 25.3498 127.728 26.1416 130.158 26.1416C132.506 26.1416 134.417 25.3498 135.864 23.7662C137.284 22.1825 138.021 20.1074 138.021 17.5408V7.43837Z" fill="white"/>
<path d="M152.491 7.02881C150.361 7.02881 148.668 7.54759 147.412 8.58514C146.156 9.62269 145.528 10.9606 145.528 12.5988C145.528 15.4384 147.112 17.1859 150.334 17.8412L154.211 18.5784C154.975 18.7422 155.521 18.988 155.849 19.2883C156.177 19.616 156.34 20.0255 156.34 20.5716C156.34 21.2542 156.04 21.8003 155.494 22.2371C154.921 22.674 154.129 22.8924 153.091 22.8924C150.825 22.8924 149.46 21.9095 148.996 19.9163L145.091 20.7081C145.31 22.4556 146.129 23.8208 147.549 24.7491C148.968 25.6774 150.716 26.1416 152.736 26.1416C154.921 26.1416 156.668 25.6228 158.006 24.5853C159.317 23.5477 159.999 22.1552 159.999 20.3805C159.999 18.988 159.562 17.8412 158.716 16.9675C157.869 16.0937 156.695 15.4657 155.194 15.1381L151.262 14.3463C150.033 14.1278 149.433 13.4999 149.433 12.4896C149.433 11.8616 149.706 11.3155 150.252 10.8787C150.798 10.4418 151.508 10.2234 152.409 10.2234C153.337 10.2234 154.129 10.4964 154.811 11.0152C155.467 11.534 155.876 12.2166 156.013 13.063L159.726 12.2985C159.371 10.6875 158.552 9.40426 157.241 8.44862C155.931 7.52028 154.347 7.02881 152.491 7.02881Z" fill="white"/>
<defs>
<linearGradient id="paint0_linear_4680_35849" x1="18.8478" y1="-2.1775e-07" x2="18.8478" y2="33.1705" gradientUnits="userSpaceOnUse">
<stop stop-color="#FFE40A"/>
<stop offset="1" stop-color="#F38701"/>
</linearGradient>
</defs>
</svg>
