<svg width="38" height="34" viewBox="0 0 38 34" fill="none" xmlns="http://www.w3.org/2000/svg">
<path d="M36.8211 7.07724L23.1141 30.8188C22.6996 31.5348 22.1042 32.1293 21.3875 32.5425C20.6708 32.9558 19.858 33.1733 19.0307 33.1733C18.2034 33.1733 17.3906 32.9558 16.6739 32.5425C15.9572 32.1293 15.3618 31.5348 14.9473 30.8188L12.5445 26.66C12.5367 26.6497 12.5334 26.6367 12.5352 26.624C12.537 26.6112 12.5439 26.5997 12.5542 26.5919C12.5645 26.5842 12.5775 26.5809 12.5903 26.5827C12.603 26.5845 12.6145 26.5913 12.6223 26.6017C13.0509 27.0248 13.5707 27.3443 14.1417 27.5357C14.7128 27.7271 15.3201 27.7854 15.9172 27.7061C16.5143 27.6268 17.0853 27.4119 17.5865 27.078C18.0878 26.7441 18.5061 26.3 18.8094 25.7796L30.2838 5.88554C30.5863 5.3603 30.7638 4.77249 30.8027 4.16762C30.8416 3.56274 30.7407 2.95704 30.5079 2.3974C30.2751 1.83776 29.9167 1.33921 29.4603 0.940353C29.0039 0.541492 28.4618 0.253024 27.876 0.0972845C27.8631 0.0972845 27.8508 0.0921598 27.8416 0.0830379C27.8325 0.073916 27.8274 0.061544 27.8274 0.0486437C27.8274 0.0357433 27.8325 0.0233714 27.8416 0.0142495C27.8508 0.00512753 27.8631 2.89211e-06 27.876 2.89211e-06H32.7401C33.5679 0.000894092 34.3809 0.219552 35.0974 0.63402C35.814 1.04849 36.4089 1.64418 36.8224 2.36128C37.2359 3.07838 37.4534 3.89165 37.4532 4.71943C37.453 5.54721 37.235 6.36036 36.8211 7.07724ZM20.5945 2.89211e-06H15.8423C15.8326 0.00320148 15.8241 0.00939074 15.8181 0.0176883C15.8121 0.0259858 15.8089 0.035968 15.8089 0.0462116C15.8089 0.0564553 15.8121 0.0664375 15.8181 0.074735C15.8241 0.0830326 15.8326 0.0892218 15.8423 0.0924204C16.1624 0.216049 16.452 0.40733 16.6913 0.653186C16.9307 0.899043 17.1141 1.19368 17.2291 1.51696C17.3441 1.84023 17.3879 2.18453 17.3576 2.5263C17.3273 2.86808 17.2236 3.19929 17.0535 3.49728L10.127 15.4775C9.94806 15.7813 9.70406 16.0417 9.41254 16.24C9.12101 16.4383 8.7892 16.5696 8.44091 16.6245C8.09262 16.6794 7.7365 16.6564 7.39813 16.5574C7.05975 16.4583 6.74751 16.2855 6.48382 16.0515C6.47608 16.0411 6.46456 16.0343 6.45179 16.0325C6.43902 16.0307 6.42604 16.034 6.41572 16.0417C6.4054 16.0495 6.39858 16.061 6.39676 16.0738C6.39493 16.0865 6.39825 16.0995 6.40599 16.1098L8.83803 20.3319C9.1111 20.8056 9.50415 21.1992 9.97763 21.4728C10.4511 21.7464 10.9883 21.8904 11.5352 21.8904C12.082 21.8904 12.6192 21.7464 13.0927 21.4728C13.5662 21.1992 13.9592 20.8056 14.2323 20.3319L23.2941 4.66952C23.5675 4.19602 23.7113 3.65886 23.7111 3.11211C23.711 2.56535 23.5668 2.02829 23.2932 1.55494C23.0195 1.0816 22.626 0.688674 22.1523 0.415709C21.6785 0.142745 21.1413 -0.000632703 20.5945 2.89211e-06ZM4.10042 2.89211e-06C3.28943 2.89211e-06 2.49666 0.240488 1.82235 0.691048C1.14804 1.14161 0.622479 1.78201 0.312128 2.53126C0.00177667 3.28051 -0.0794253 4.10497 0.0787902 4.90037C0.237006 5.69578 0.627533 6.4264 1.20099 6.99986C1.77444 7.57331 2.50507 7.96384 3.30047 8.12205C4.09587 8.28027 4.92033 8.19907 5.66958 7.88871C6.41884 7.57836 7.05924 7.0528 7.5098 6.37849C7.96035 5.70418 8.20084 4.91141 8.20084 4.10042C8.20148 3.56177 8.09586 3.02828 7.89002 2.5305C7.68418 2.03273 7.38217 1.58045 7.00128 1.19956C6.6204 0.818674 6.16812 0.516664 5.67034 0.310825C5.17257 0.104986 4.63908 -0.000637221 4.10042 2.89211e-06Z" fill="#F50DB4"/>
</svg>
