<svg width="16" height="16" viewBox="0 0 16 16" fill="none" xmlns="http://www.w3.org/2000/svg">
<path d="M5.89655 3.169C4.22354 5.04704 3.07539 7.74518 2.96878 7.99942L0 6.72825L3.32142 3.40683C3.70687 3.02138 4.26454 2.84916 4.80581 2.95578L5.89655 3.169ZM7.52036 11.9031C7.52036 11.9031 10.5875 10.632 12.3508 8.86873C16.7793 4.44016 16.0412 0.979324 15.8034 0.200225C15.0243 -0.0458066 11.5635 -0.775699 7.13491 3.65286C5.37168 5.41609 4.10052 8.48328 4.10052 8.48328L7.52036 11.9031ZM12.8346 10.1071C10.9566 11.7801 8.25845 12.9282 8.00422 13.0349L9.27538 16.0036L12.5968 12.6822C12.9822 12.2968 13.1545 11.7391 13.0479 11.1978L12.8346 10.1071ZM5.74073 12.7232C5.74073 13.4039 5.46189 14.019 5.01904 14.4618C4.05131 15.4296 0 16.0036 0 16.0036C0 16.0036 0.574073 11.9523 1.5418 10.9846C1.98465 10.5417 2.59973 10.2629 3.28042 10.2629C4.64179 10.2629 5.74073 11.3618 5.74073 12.7232ZM9.02115 5.34228C9.02115 4.44016 9.75924 3.70207 10.6614 3.70207C11.5635 3.70207 12.3016 4.44016 12.3016 5.34228C12.3016 6.24439 11.5635 6.98249 10.6614 6.98249C9.75924 6.98249 9.02115 6.24439 9.02115 5.34228Z" fill="url(#paint0_linear_4535_8702)"/>
<defs>
<linearGradient id="paint0_linear_4535_8702" x1="0" y1="8.00182" x2="16" y2="8.00182" gradientUnits="userSpaceOnUse">
<stop stop-color="#1FA2FF"/>
<stop offset="0.5" stop-color="#12D8FA"/>
<stop offset="1" stop-color="#A6FFCB"/>
</linearGradient>
</defs>
</svg>
