<svg width="125" height="19" viewBox="0 0 125 19" fill="none" xmlns="http://www.w3.org/2000/svg">
<mask id="mask0_1922_3310" style="mask-type:luminance" maskUnits="userSpaceOnUse" x="0" y="0" width="125" height="19">
<path d="M124.25 0.348755H0.25V18.6514H124.25V0.348755Z" fill="white"/>
</mask>
<g mask="url(#mask0_1922_3310)">
<mask id="mask1_1922_3310" style="mask-type:luminance" maskUnits="userSpaceOnUse" x="0" y="0" width="125" height="19">
<path d="M124.126 0.348755H0.25V18.6513H124.126V0.348755Z" fill="white"/>
</mask>
<g mask="url(#mask1_1922_3310)">
<path d="M4.4628 4.66524C5.76167 3.35808 7.48253 2.6372 9.30799 2.6372H16.8361C17.4466 2.6372 17.9415 2.12517 17.9415 1.49361C17.9415 0.86205 17.4466 0.348755 16.8361 0.348755H9.30799C6.90243 0.348755 4.63427 1.29987 2.92071 3.02595C1.19861 4.75959 0.25 7.05936 0.25 9.5C0.25 11.9407 1.19861 14.2405 2.92071 15.9741C4.63427 17.7002 6.90365 18.6501 9.30799 18.6501H16.8361C17.4466 18.6501 17.9415 18.138 17.9415 17.5065C17.9415 16.8749 17.4466 16.3629 16.8361 16.3629H9.30799C7.48253 16.3629 5.76167 15.6433 4.4628 14.3349C3.17245 13.0353 2.46099 11.318 2.46099 9.5C2.46099 7.68212 3.17123 5.96483 4.4628 4.66524Z" fill="#BAC3DA"/>
<path d="M56.5683 0.352548C55.9808 0.391548 55.5357 0.92372 55.5357 1.53263C55.5357 3.36313 55.5357 9.02954 55.5357 12.3169C55.5357 13.2139 54.4875 13.6618 53.8745 13.0277L41.9438 0.68468C41.5657 0.293418 40.9575 0.230514 40.5027 0.57397C40.2144 0.79162 40.0552 1.15017 40.0552 1.52005V17.4688C40.0552 18.0777 40.4991 18.6098 41.0876 18.6488C41.7323 18.6916 42.2673 18.1645 42.2673 17.5078V6.68448C42.2673 5.78746 43.3157 5.33833 43.9287 5.9724L55.8604 18.3154C56.0721 18.5344 56.3543 18.6501 56.6424 18.6501C56.8322 18.6501 57.0231 18.5998 57.1971 18.4954C57.5472 18.2865 57.748 17.8852 57.748 17.4675V1.49363C57.748 0.83691 57.2128 0.308515 56.5683 0.352548Z" fill="#BAC3DA"/>
<path d="M103.044 0.352459C102.456 0.39146 102.011 0.92363 102.011 1.53254C102.011 3.36304 102.011 9.02945 102.011 12.3168C102.011 13.2138 100.963 13.6617 100.35 13.0276L88.4366 0.70221C88.1836 0.440525 87.8274 0.303394 87.4734 0.361266C86.9164 0.450589 86.5308 0.93998 86.5308 1.49354V17.4674C86.5308 18.0763 86.9748 18.6085 87.5634 18.6475C88.208 18.6902 88.7432 18.1631 88.7432 17.5064V6.68439C88.7432 5.78737 89.7913 5.33824 90.4044 5.97231L102.336 18.3154C102.548 18.5343 102.83 18.65 103.118 18.65C103.308 18.65 103.499 18.5997 103.673 18.4953C104.023 18.2864 104.224 17.8851 104.224 17.4674V1.49354C104.224 0.83682 103.688 0.308426 103.044 0.352459Z" fill="#BAC3DA"/>
<path d="M76.2275 -0.0870361H60.7858C60.1971 -0.0870361 59.6827 0.372164 59.6449 0.98108C59.6036 1.64786 60.1132 2.20142 60.748 2.20142H66.7741C67.1098 2.20142 67.3823 2.48323 67.3823 2.83046V17.0317C67.3823 17.6406 67.8261 18.1728 68.4147 18.2118C69.0593 18.2545 69.5944 17.7274 69.5944 17.0707V2.83046C69.5944 2.48323 69.8668 2.20142 70.2025 2.20142H76.191C76.7795 2.20142 77.2939 1.74222 77.3317 1.1333C77.373 0.46652 76.8624 -0.0870361 76.2275 -0.0870361Z" fill="#BAC3DA"/>
<path d="M80.9546 0.348755C80.3441 0.348755 79.8491 0.8608 79.8491 1.49235V17.5065C79.8491 18.138 80.3441 18.6501 80.9546 18.6501C81.5651 18.6501 82.0602 18.138 82.0602 17.5065V1.49361C82.0602 0.86205 81.5651 0.350013 80.9546 0.350013V0.348755Z" fill="#BAC3DA"/>
<path d="M28.9989 0.348755C26.6397 0.348755 24.4165 1.33006 22.7406 3.11151C21.0721 4.88414 20.1538 7.23047 20.1538 9.7189V17.5065C20.1538 18.138 20.6489 18.6501 21.2594 18.6501C21.8699 18.6501 22.3649 18.138 22.3649 17.5065V9.7189C22.3649 7.83058 23.0605 6.05039 24.3252 4.70675C25.5815 3.37192 27.2416 2.63596 28.9989 2.63596C30.7564 2.63596 32.4164 3.37068 33.6726 4.70675C34.9363 6.05039 35.6332 7.83058 35.6332 9.7189V17.5065C35.6332 18.138 36.1281 18.6501 36.7387 18.6501C37.3492 18.6501 37.8441 18.138 37.8441 17.5065V9.7189C37.8441 7.23047 36.926 4.88414 35.2575 3.11151C33.5816 1.33132 31.3583 0.348755 28.9989 0.348755Z" fill="#BAC3DA"/>
<path d="M28.999 9.5C28.3887 9.5 27.8936 10.012 27.8936 10.6436V17.5064C27.8936 18.138 28.3887 18.65 28.999 18.65C29.6096 18.65 30.1047 18.138 30.1047 17.5064V10.6436C30.1047 10.012 29.6096 9.5 28.999 9.5Z" fill="#BAC3DA"/>
<path d="M121.539 3.11151C119.863 1.33132 117.64 0.348755 115.281 0.348755C112.922 0.348755 110.698 1.33006 109.023 3.11151C107.354 4.88414 106.436 7.23047 106.436 9.7189V17.5065C106.436 18.138 106.931 18.6501 107.541 18.6501C108.152 18.6501 108.647 18.138 108.647 17.5065V9.7189C108.647 7.83058 109.342 6.05039 110.607 4.70675C111.863 3.37192 113.524 2.63596 115.281 2.63596C117.038 2.63596 118.698 3.37068 119.955 4.70675C121.218 6.05039 121.915 7.83058 121.915 9.7189V17.5065C121.915 18.138 122.41 18.6501 123.021 18.6501C123.631 18.6501 124.126 18.138 124.126 17.5065V9.7189C124.126 7.23047 123.208 4.88414 121.539 3.11151Z" fill="#BAC3DA"/>
<path d="M115.281 9.5C114.671 9.5 114.175 10.012 114.175 10.6436V17.5064C114.175 18.138 114.671 18.65 115.281 18.65C115.892 18.65 116.386 18.138 116.386 17.5064V10.6436C116.386 10.012 115.892 9.5 115.281 9.5Z" fill="#BAC3DA"/>
</g>
</g>
</svg>
