<svg width="200" height="51" viewBox="0 0 200 51" fill="none" xmlns="http://www.w3.org/2000/svg">
<g clip-path="url(#clip0_1922_3286)">
<path fill-rule="evenodd" clip-rule="evenodd" d="M41.157 8.10236L41.4099 9.68289C41.5996 11.137 41.6944 12.5911 41.6628 14.0768C41.6628 17.3327 41.2834 20.5569 40.5248 23.718C39.5133 27.9854 37.7431 32.0632 35.309 35.73C32.4957 39.9026 28.4179 43.9804 22.5067 47.3311L21.7797 47.7421L21.0527 47.3311C15.1415 44.0436 11.0637 39.9342 8.25037 35.73C5.78474 32.0632 4.04616 28.017 3.03462 23.718C2.27596 20.5569 1.89664 17.3327 1.89664 14.0768C1.89664 12.6227 1.95986 11.137 2.14952 9.68289L2.3708 8.10236C2.40241 7.97592 2.40241 7.84948 2.3708 7.72303C2.33918 7.59659 2.30757 7.47015 2.21274 7.37532C2.14952 7.28048 2.05469 7.18566 1.95986 7.12243C1.86502 7.05921 1.73858 7.0276 1.64375 6.99599C1.51731 6.96438 1.39087 6.96438 1.26442 6.99599C1.13798 7.0276 1.01154 7.09082 0.916708 7.15404C0.821876 7.21726 0.727043 7.3121 0.663822 7.40693C0.600601 7.53337 0.56899 7.65981 0.537379 7.78625L0.284496 9.36678C0.0948323 10.9157 0 12.4962 0 14.0768C0 17.4907 0.410939 20.873 1.2012 24.1922C1.73858 26.4365 2.46563 28.6493 3.38233 30.7672C4.29904 32.8851 5.40541 34.9082 6.70145 36.8364C9.67284 41.2619 13.9719 45.5925 20.1676 49.0065L21.3372 49.6703C21.4952 49.7335 21.6533 49.7651 21.8113 49.7651C21.9694 49.7651 22.1274 49.7335 22.2855 49.6703L23.4551 49.0065C29.6191 45.5609 33.9498 41.2303 36.9212 36.8364C39.5133 32.9799 41.3783 28.6809 42.4214 24.1922C43.2117 20.873 43.591 17.4907 43.591 14.0768C43.591 12.4962 43.4962 10.9157 43.3065 9.33518L43.0536 7.75465C43.022 7.6282 42.9904 7.50176 42.9272 7.37532C42.864 7.28048 42.7691 7.18566 42.6743 7.12243C42.5795 7.05921 42.453 6.99599 42.3266 6.96438C42.2002 6.93277 42.0737 6.93277 41.9473 6.96438C41.8208 6.99599 41.6944 7.0276 41.5679 7.09082C41.4731 7.15404 41.3783 7.24888 41.3151 7.34371C41.2518 7.43854 41.1886 7.56498 41.157 7.69142V8.10236Z" fill="#BAC3DA"/>
<path fill-rule="evenodd" clip-rule="evenodd" d="M7.68118 7.02759L21.8427 2.57049L36.2888 7.12242C36.4152 7.15403 36.5417 7.15403 36.6681 7.15403C36.7945 7.15403 36.921 7.12242 37.0474 7.0592C37.1739 6.99598 37.2687 6.93276 37.3635 6.80632C37.4584 6.71148 37.5216 6.58504 37.5216 6.4586C37.5532 6.33216 37.5532 6.20571 37.5532 6.07927C37.5532 5.95283 37.5216 5.82639 37.4584 5.69995C37.3952 5.5735 37.3319 5.47867 37.2371 5.38384C37.1423 5.28901 37.0158 5.22579 36.8894 5.22579L22.1272 0.547416C21.9376 0.484195 21.7479 0.484195 21.5582 0.547416L7.1438 5.09934C7.01736 5.13095 6.92253 5.19417 6.79609 5.25739C6.70125 5.35223 6.60642 5.44706 6.57481 5.5735C6.51159 5.69994 6.47998 5.82638 6.47998 5.95283C6.47998 6.07927 6.47998 6.20572 6.51159 6.33216C6.5432 6.4586 6.60642 6.58504 6.66964 6.67987C6.73286 6.7747 6.85931 6.86954 6.98575 6.93276C7.08058 6.99598 7.20703 7.02759 7.36508 7.02759C7.4283 7.0592 7.55474 7.0592 7.68118 7.02759Z" fill="#BAC3DA"/>
<path fill-rule="evenodd" clip-rule="evenodd" d="M0.695198 8.38684L20.9576 49.2277C21.0208 49.3858 21.1473 49.5122 21.2737 49.6071C21.5898 49.7967 21.9691 49.7967 22.2852 49.6071C22.4433 49.5122 22.5697 49.3858 22.6646 49.2277L35.0243 25.3617L35.0559 25.3301L42.9586 8.35522C43.0218 8.22878 43.0534 8.10234 43.0534 7.9759C43.0534 7.84945 43.0534 7.72301 42.9902 7.59657C42.9586 7.47013 42.8954 7.34368 42.8005 7.24885C42.7373 7.15402 42.6109 7.05919 42.516 6.99597C42.4212 6.93275 42.2948 6.90113 42.1367 6.90113C42.0103 6.90113 41.8838 6.90114 41.7574 6.93275C41.6309 6.96436 41.5045 7.02758 41.4097 7.12241C41.3148 7.21724 41.22 7.31208 41.1884 7.43852L33.2857 24.4134L21.7795 46.6357L2.37056 7.43852C2.30734 7.34369 2.21251 7.21724 2.14929 7.12241C2.05446 7.02758 1.92801 6.96436 1.80157 6.93275C1.67513 6.86953 1.54869 6.86952 1.42224 6.90113C1.2958 6.90113 1.16936 6.93275 1.04292 6.99597C0.948085 7.05919 0.821642 7.15402 0.758421 7.24885C0.6952 7.34368 0.631978 7.47013 0.600368 7.59657C0.568757 7.72301 0.537147 7.84945 0.568758 7.9759C0.600368 8.13395 0.631977 8.26039 0.695198 8.38684Z" fill="#BAC3DA"/>
<path fill-rule="evenodd" clip-rule="evenodd" d="M10.3997 26.5946H32.9697C33.0961 26.5946 33.2226 26.563 33.349 26.5313C33.4754 26.4997 33.5703 26.4049 33.6335 26.3101C33.7283 26.2152 33.7916 26.1204 33.8232 25.994C33.918 25.7411 33.918 25.4882 33.8232 25.2353C33.7916 25.1089 33.6967 25.014 33.6335 24.9192C33.5387 24.8244 33.4438 24.7612 33.349 24.6979C33.2226 24.6663 33.0961 24.6347 32.9697 24.6347H10.3997C10.2733 24.6347 10.1468 24.6663 10.0204 24.6979C9.89394 24.7295 9.79911 24.8244 9.73589 24.9192C9.64106 25.014 9.57783 25.1089 9.54622 25.2353C9.45139 25.4882 9.45139 25.7411 9.54622 25.994C9.57783 26.1204 9.64106 26.2152 9.73589 26.3101C9.83072 26.4049 9.92555 26.4681 10.0204 26.5313C10.1468 26.563 10.2733 26.563 10.3997 26.5946ZM73.3048 18.0913H58.6375C58.511 18.0913 58.3846 18.1229 58.2582 18.1545C58.1317 18.1861 58.0369 18.281 57.9737 18.3758C57.8788 18.4706 57.8156 18.5655 57.784 18.6919C57.7524 18.8184 57.7208 18.9448 57.7208 19.0712V31.2413C57.7208 31.3678 57.7524 31.4942 57.784 31.6207C57.8156 31.7471 57.8788 31.8419 57.9737 31.9368C58.0685 32.0316 58.1633 32.0948 58.2582 32.158C58.3846 32.1896 58.511 32.2213 58.6375 32.2213H73.3048V34.2759H58.6375C58.4478 34.2759 58.2582 34.2443 58.0685 34.2127C57.8788 34.1811 57.6892 34.1179 57.4995 34.0547C57.3098 33.9914 57.1518 33.8966 56.9937 33.8018C56.8357 33.6753 56.7092 33.5489 56.5512 33.4225C56.2667 33.138 56.077 32.8219 55.919 32.4741C55.8558 32.2845 55.7925 32.0948 55.7609 31.9051C55.7293 31.7155 55.6977 31.5258 55.6977 31.3362V19.1029C55.6977 18.9132 55.7293 18.7235 55.7609 18.5339C55.7925 18.3442 55.8558 18.1545 55.919 17.9649C55.9822 17.7752 56.077 17.5855 56.1719 17.4275C56.2667 17.2694 56.3931 17.1114 56.5512 16.9849C56.6776 16.8585 56.8357 16.7321 56.9937 16.6056C57.1518 16.5108 57.3098 16.4159 57.4995 16.3527C57.6892 16.2895 57.8788 16.2263 58.0685 16.1947C58.2582 16.1631 58.4478 16.1315 58.6375 16.1315H73.3048V18.0913ZM100.838 16.0366V18.0913H86.7077V24.1289H98.0559V26.2152H86.7077V32.2529H100.838V34.3076H84.7478V16.0366H100.838Z" fill="#BAC3DA"/>
<path d="M129.953 19.1345V24.4767C129.953 24.6663 129.921 24.856 129.889 25.0456C129.858 25.2353 129.795 25.425 129.731 25.6146C129.668 25.8043 129.573 25.994 129.479 26.152C129.352 26.3101 129.257 26.4681 129.099 26.5946C128.973 26.721 128.815 26.8475 128.657 26.9739C128.499 27.0687 128.341 27.1636 128.151 27.2268C127.961 27.29 127.772 27.3532 127.582 27.4164C127.392 27.4481 127.203 27.4797 127.013 27.4797H124.326L129.858 34.2759H127.203L121.702 27.4797H115.254C114.938 27.4797 114.622 27.4481 114.305 27.3848V34.2759H112.314V16.0682H127.045C127.234 16.0682 127.424 16.0999 127.614 16.1315C127.803 16.1631 127.993 16.2263 128.182 16.2895C128.372 16.3527 128.53 16.4476 128.688 16.574C129.004 16.7953 129.257 17.0798 129.479 17.3959C129.573 17.5539 129.668 17.7436 129.731 17.9333C129.795 18.1229 129.858 18.3126 129.889 18.5023C129.921 18.7235 129.953 18.9448 129.953 19.1345ZM115.222 25.4566H127.013C127.139 25.4566 127.266 25.425 127.392 25.3934C127.519 25.3618 127.613 25.2985 127.677 25.1721C127.772 25.0773 127.835 24.9824 127.866 24.856C127.898 24.7295 127.93 24.6031 127.93 24.4767V19.1345C127.93 18.8816 127.835 18.6287 127.677 18.439C127.519 18.2494 127.266 18.1229 127.013 18.1229H115.222C115.096 18.1229 114.969 18.1545 114.843 18.1862C114.716 18.2178 114.622 18.3126 114.558 18.4074C114.463 18.5023 114.4 18.5971 114.369 18.7235C114.337 18.85 114.305 18.9764 114.305 19.1029V24.445C114.305 24.6979 114.4 24.9508 114.622 25.1405C114.748 25.3301 115.001 25.4566 115.222 25.4566Z" fill="#BAC3DA"/>
<path fill-rule="evenodd" clip-rule="evenodd" d="M140.508 16.0366H158.147V18.0913H150.339V34.2759H148.348V18.0913H140.508V16.0366ZM168.895 34.3076V16.0682H170.886V34.3076H168.895ZM197.407 16.0366H199.968L192.603 25.1721L199.999 34.3076H197.407L190.832 26.2152H185.142V34.3076H183.151V16.0682H185.174V24.1606H190.864L197.407 16.0366Z" fill="#BAC3DA"/>
</g>
<defs>
<clipPath id="clip0_1922_3286">
<rect width="200" height="50" fill="white" transform="translate(0 0.5)"/>
</clipPath>
</defs>
</svg>
