<svg width="125" height="26" viewBox="0 0 125 26" fill="none" xmlns="http://www.w3.org/2000/svg">
<g clip-path="url(#clip0_1949_2782)">
<path d="M30.2112 13.9279C30.2112 16.9204 32.0744 18.9028 34.9261 18.9028C37.3788 18.9028 39.2039 17.397 39.4891 15.205H37.1506C36.9035 16.2343 36.0859 16.8061 34.9261 16.8061C33.4433 16.8061 32.5307 15.7005 32.5307 13.9279C32.5307 12.1552 33.5193 11.0306 35.0022 11.0306C36.1049 11.0306 36.8844 11.5834 37.1506 12.6508H39.4701C39.2229 10.3826 37.4738 8.953 34.9072 8.953C32.1314 8.953 30.2112 11.0116 30.2112 13.9279Z" fill="#BAC3DA"/>
<path d="M40.6642 13.9279C40.6642 16.8632 42.7745 18.8837 45.6833 18.8837C48.5922 18.8837 50.7026 16.8632 50.7026 13.9279C50.7026 10.9925 48.5922 8.97205 45.6833 8.97205C42.7745 8.97205 40.6642 10.9925 40.6642 13.9279ZM42.9837 13.9279C42.9837 12.2124 44.0863 11.0497 45.6833 11.0497C47.2804 11.0497 48.3831 12.2124 48.3831 13.9279C48.3831 15.6433 47.2804 16.8061 45.6833 16.8061C44.0863 16.8061 42.9837 15.6433 42.9837 13.9279Z" fill="#BAC3DA"/>
<path d="M56.5154 19.1624C57.9413 19.1624 59.158 18.5334 59.7284 17.4468L59.8805 18.9146H62.0099V4.73328H59.7094V10.6993C59.1201 9.76535 57.9603 9.21259 56.6485 9.21259C53.8156 9.21259 52.1046 11.3093 52.1046 14.2447C52.1046 17.161 53.7966 19.1624 56.5154 19.1624ZM57.0287 17.0275C55.4126 17.0275 54.424 15.8458 54.424 14.1684C54.424 12.4911 55.4126 11.2902 57.0287 11.2902C58.6447 11.2902 59.6904 12.472 59.6904 14.1684C59.6904 15.8649 58.6447 17.0275 57.0287 17.0275Z" fill="#BAC3DA"/>
<path d="M68.514 18.9028C70.9665 18.9028 72.6776 17.6638 73.0768 15.6053H70.9285C70.6623 16.5011 69.8257 16.9967 68.5519 16.9967C67.012 16.9967 66.1374 16.158 65.9663 14.4997L73.0388 14.4807V13.7754C73.0388 10.84 71.2517 8.953 68.4379 8.953C65.6811 8.953 63.7609 10.9925 63.7609 13.9469C63.7609 16.8632 65.7192 18.9028 68.514 18.9028ZM68.4569 10.8591C69.8447 10.8591 70.7383 11.7168 70.7383 13.013H66.0234C66.2515 11.6025 67.088 10.8591 68.4569 10.8591Z" fill="#BAC3DA"/>
<path d="M85.2757 16.0054V13.8707H83.5837V4.72144H80.5227L74.2298 13.8707V16.0054H81.2833V18.6549H83.5837V16.0054H85.2757ZM76.8154 13.8707L81.2833 7.35184V13.8707H76.8154Z" fill="#BAC3DA"/>
<path d="M93.08 9.20081C92.6997 9.1055 92.3766 9.06738 92.0533 9.06738C90.7986 9.06738 89.905 9.69639 89.5056 10.6304L89.3726 9.25799H87.1862V18.655H89.5056V14.0804C89.5056 12.2505 90.5513 11.3547 92.2244 11.3547H93.08V9.20081Z" fill="#BAC3DA"/>
<path d="M98.536 18.9028C100.989 18.9028 102.7 17.6638 103.099 15.6053H100.95C100.684 16.5011 99.8478 16.9967 98.574 16.9967C97.034 16.9967 96.1594 16.158 95.9884 14.4997L103.061 14.4807V13.7754C103.061 10.84 101.274 8.953 98.46 8.953C95.7032 8.953 93.783 10.9925 93.783 13.9469C93.783 16.8632 95.7412 18.9028 98.536 18.9028ZM98.4789 10.8591C99.8668 10.8591 100.76 11.7168 100.76 13.013H96.0454C96.2736 11.6025 97.1101 10.8591 98.4789 10.8591Z" fill="#BAC3DA"/>
<path d="M107.237 18.655V13.5848C107.237 12.0599 108.111 11.0688 109.537 11.0688C110.735 11.0688 111.514 11.8312 111.514 13.4133V18.655H113.834V12.8605C113.834 10.4207 112.618 8.953 110.26 8.953C108.986 8.953 107.845 9.50576 107.256 10.4588L107.066 9.23891H104.917V18.655H107.237Z" fill="#BAC3DA"/>
<path d="M118.907 18.9028C120.371 18.9028 121.645 18.2357 122.045 17.2635L122.216 18.655H124.25V12.9367C124.25 10.3254 122.691 8.953 120.163 8.953C117.615 8.953 115.942 10.2873 115.942 12.3267H117.919C117.919 11.3356 118.68 10.7638 120.048 10.7638C121.227 10.7638 121.988 11.2784 121.988 12.5555V12.7652L119.174 12.9748C116.949 13.1464 115.695 14.2329 115.695 15.9674C115.695 17.74 116.912 18.9028 118.907 18.9028ZM119.668 17.1492C118.622 17.1492 118.052 16.7299 118.052 15.8721C118.052 15.1097 118.603 14.6332 120.048 14.4997L122.006 14.3472V14.8428C122.006 16.2914 121.094 17.1492 119.668 17.1492Z" fill="#BAC3DA"/>
<path d="M24.7322 15.3013L23.345 8.75901C23.3327 8.70089 23.3153 8.64396 23.2929 8.58889C23.0959 7.90842 22.8322 7.76107 22.4766 7.47475C22.1477 7.22796 22.0062 7.13452 22.0062 7.13452C22.0062 7.13452 21.1064 9.19269 20.8609 9.38796C18.4543 11.3048 14.4222 14.2914 13.4366 14.8304L13.4185 14.84C13.0945 15.0358 12.7279 15.1516 12.3494 15.1779V25.0242C13.191 25.0025 14.0129 24.7674 14.7367 24.3414C15.8251 23.7423 18.7203 21.4398 22.1138 18.7108L23.4441 17.6421C24.3282 16.9365 24.7527 16.2357 24.743 15.4966C24.7457 15.4313 24.742 15.3659 24.7322 15.3013Z" fill="#A8B4D2"/>
<path d="M11.4806 14.9617L3.81478 9.32662C3.75083 9.27367 3.6939 9.21282 3.64533 9.14553C3.63855 8.9606 3.58258 8.7808 3.48317 8.62461C3.38377 8.46841 3.24451 8.34146 3.07969 8.25678L3.12863 7.13452C3.12863 7.13452 2.96872 7.23936 2.60356 7.45976C2.14414 7.73497 1.79927 7.9363 1.563 9.01924L1.38519 9.90562L0.270636 15.474C0.255123 15.5524 0.24832 15.6323 0.25035 15.7122C0.276603 16.719 1.14176 17.4243 1.33985 17.5719L10.0821 24.2865C10.7356 24.7755 11.5328 25.0347 12.3494 25.0239V15.225C12.0375 15.2441 11.7292 15.1506 11.4806 14.9617Z" fill="#BAC3DA"/>
<path d="M22.808 7.55195C22.7928 7.54112 22.7783 7.52945 22.7643 7.51698C22.4898 7.28662 17.0707 3.59131 13.865 1.40958C13.4407 1.1188 12.9353 0.967208 12.4198 0.976076C11.9044 0.984944 11.4046 1.15383 10.9908 1.45902L10.5984 1.7533C9.91811 2.26104 8.65476 3.20055 7.13143 4.27754C5.38458 5.51374 3.77743 6.58953 2.34764 7.4422C1.74026 7.80402 1.17903 8.78212 2.71207 9.97489C2.87364 10.0955 10.9385 16.0353 10.9385 16.0353C11.8642 16.7118 12.9599 16.6516 14.0471 16.0256C15.1052 15.4455 18.8515 12.6608 21.2143 10.8022L21.8144 10.3283C21.8703 10.2836 21.9213 10.2402 21.9699 10.1968C22.9794 9.36826 23.8261 8.25025 22.808 7.55195Z" fill="#D5DAE7"/>
</g>
<defs>
<clipPath id="clip0_1949_2782">
<rect width="124" height="24.0485" fill="white" transform="translate(0.25 0.975708)"/>
</clipPath>
</defs>
</svg>
