<svg width="164" height="26" viewBox="0 0 164 26" fill="none" xmlns="http://www.w3.org/2000/svg">
<mask id="mask0_1916_2605" style="mask-type:luminance" maskUnits="userSpaceOnUse" x="0" y="0" width="164" height="26">
<path d="M163.5 0H0.5V25.4688H163.5V0Z" fill="white"/>
</mask>
<g mask="url(#mask0_1916_2605)">
<path d="M23.4049 25.3878V18.7793H16.2082C14.2511 18.7793 12.4383 19.8066 11.4359 21.4839L9.10278 25.3878H23.4049Z" fill="#63D2F9"/>
<path d="M0.5 0V6.6085H19.4553L23.4049 0H0.5Z" fill="#4E5EE4"/>
<path d="M9.57182 10.3281L0.520874 25.3876H8.23207L19.0554 7.37109H14.7972C12.6554 7.37109 10.6712 8.49399 9.57182 10.3281Z" fill="#63B0F9"/>
<path d="M39.8108 19.0466C35.9332 19.0466 33.08 16.2281 33.08 12.4459C33.08 8.70003 35.9515 5.84516 39.829 5.84516C43.7066 5.84516 46.5781 8.7364 46.5781 12.4459C46.5781 16.1917 43.6883 19.0466 39.8108 19.0466ZM39.829 16.7373C42.2799 16.7373 44.0358 14.9189 44.0358 12.4459C44.0358 10.0092 42.2799 8.15451 39.829 8.15451C37.3599 8.15451 35.604 10.0092 35.604 12.4459C35.604 14.9189 37.3599 16.7373 39.829 16.7373ZM49.1747 22.9925V9.24555H51.5158V10.4638H51.6438C51.8999 10.0638 52.7778 9.00916 54.5337 9.00916C57.2224 9.00916 59.0697 11.0093 59.0697 13.9915C59.0697 16.9737 57.2407 19.0466 54.6069 19.0466C52.9059 19.0466 51.9914 18.1011 51.6804 17.5737H51.5524V22.9925H49.1747ZM54.0764 16.9009C55.6128 16.9009 56.6554 15.719 56.6554 14.0279C56.6554 12.2822 55.6128 11.1548 54.0582 11.1548C52.4852 11.1548 51.4975 12.4095 51.4975 14.0279C51.4975 15.8099 52.5949 16.9009 54.0764 16.9009ZM65.873 19.0466C63.038 19.0466 61.0261 16.9373 61.0261 14.0824C61.0261 11.0639 63.0563 9.00916 65.873 9.00916C68.964 9.00916 70.6467 11.2821 70.6467 13.9733V14.7189H63.3306C63.4038 16.1736 64.4097 17.1555 65.9461 17.1555C67.1167 17.1555 68.0129 16.61 68.3421 15.8281H70.5552C70.0797 17.7737 68.3604 19.0466 65.873 19.0466ZM63.3672 13.0459H68.3787C68.269 11.7549 67.263 10.9002 65.873 10.9002C64.5378 10.9002 63.5135 11.8458 63.3672 13.0459ZM73.2067 18.8102V9.24555H75.4746V10.4093H75.6027C75.9868 9.70014 76.9379 9.00916 78.3096 9.00916C80.4679 9.00916 81.7848 10.5184 81.7848 12.555V18.8102H79.407V13.1732C79.407 12.0095 78.6571 11.2276 77.5597 11.2276C76.4074 11.2276 75.5844 12.1367 75.5844 13.3369V18.8102H73.2067ZM84.1435 18.8102V16.6463L90.8012 8.29999V8.1727H84.3813V6.08155H93.8373V8.22725L87.1797 16.5736V16.7191H93.8739V18.8102H84.1435ZM100.311 19.0466C97.4764 19.0466 95.4645 16.9373 95.4645 14.0824C95.4645 11.0639 97.4947 9.00916 100.311 9.00916C103.402 9.00916 105.085 11.2821 105.085 13.9733V14.7189H97.7691C97.8422 16.1736 98.8482 17.1555 100.385 17.1555C101.555 17.1555 102.451 16.61 102.781 15.8281H104.994C104.518 17.7737 102.799 19.0466 100.311 19.0466ZM97.8056 13.0459H102.817C102.707 11.7549 101.701 10.9002 100.311 10.9002C98.9762 10.9002 97.952 11.8458 97.8056 13.0459ZM107.645 22.9925V9.24555H109.986V10.4638H110.114C110.37 10.0638 111.248 9.00916 113.004 9.00916C115.693 9.00916 117.54 11.0093 117.54 13.9915C117.54 16.9737 115.711 19.0466 113.077 19.0466C111.376 19.0466 110.462 18.1011 110.151 17.5737H110.023V22.9925H107.645ZM112.547 16.9009C114.083 16.9009 115.126 15.719 115.126 14.0279C115.126 12.2822 114.083 11.1548 112.529 11.1548C110.956 11.1548 109.968 12.4095 109.968 14.0279C109.968 15.8099 111.065 16.9009 112.547 16.9009ZM120.1 22.9925V9.24555H122.441V10.4638H122.569C122.825 10.0638 123.703 9.00916 125.459 9.00916C128.148 9.00916 129.995 11.0093 129.995 13.9915C129.995 16.9737 128.166 19.0466 125.532 19.0466C123.831 19.0466 122.917 18.1011 122.606 17.5737H122.478V22.9925H120.1ZM125.002 16.9009C126.538 16.9009 127.581 15.719 127.581 14.0279C127.581 12.2822 126.538 11.1548 124.984 11.1548C123.411 11.1548 122.423 12.4095 122.423 14.0279C122.423 15.8099 123.52 16.9009 125.002 16.9009ZM136.798 19.0466C133.963 19.0466 131.951 16.9373 131.951 14.0824C131.951 11.0639 133.982 9.00916 136.798 9.00916C139.889 9.00916 141.572 11.2821 141.572 13.9733V14.7189H134.256C134.329 16.1736 135.335 17.1555 136.872 17.1555C138.042 17.1555 138.938 16.61 139.268 15.8281H141.481C141.005 17.7737 139.286 19.0466 136.798 19.0466ZM134.293 13.0459H139.304C139.194 11.7549 138.188 10.9002 136.798 10.9002C135.463 10.9002 134.439 11.8458 134.293 13.0459ZM146.473 18.8102C144.79 18.8102 143.839 17.8101 143.839 16.119V5.17236H146.217V15.9008C146.217 16.4463 146.491 16.7373 146.985 16.7373H147.369V18.8102H146.473ZM150.844 7.97268C149.984 7.97268 149.381 7.44534 149.381 6.5907C149.381 5.77243 149.984 5.22691 150.844 5.22691C151.704 5.22691 152.307 5.77243 152.307 6.5907C152.307 7.44534 151.704 7.97268 150.844 7.97268ZM149.655 18.8102V9.24555H152.033V18.8102H149.655ZM154.922 18.8102V9.24555H157.19V10.4093H157.318C157.702 9.70014 158.653 9.00916 160.025 9.00916C162.183 9.00916 163.5 10.5184 163.5 12.555V18.8102H161.122V13.1732C161.122 12.0095 160.372 11.2276 159.275 11.2276C158.123 11.2276 157.3 12.1367 157.3 13.3369V18.8102H154.922Z" fill="white"/>
</g>
</svg>
