<svg width="201" height="41" viewBox="0 0 201 41" fill="none" xmlns="http://www.w3.org/2000/svg">
<g clip-path="url(#clip0_1921_3254)">
<path fill-rule="evenodd" clip-rule="evenodd" d="M15.7403 0.590067C15.71 0.639112 15.4903 0.679093 15.2515 0.679093C15.0132 0.679093 14.793 0.719075 14.7632 0.768119C14.7328 0.81663 14.5308 0.856612 14.3133 0.856612C14.0222 0.856612 13.9188 0.891796 13.9188 0.989884C13.9188 1.09064 13.8106 1.12316 13.4747 1.12316C13.2306 1.12316 13.0307 1.16314 13.0307 1.21218C13.0307 1.26123 12.9091 1.30121 12.7609 1.30121C12.6037 1.30121 12.4704 1.35665 12.4405 1.43448C12.4091 1.51658 12.2742 1.56775 12.0882 1.56775C11.9224 1.56775 11.7864 1.60773 11.7864 1.65625C11.7864 1.70529 11.6468 1.74527 11.4756 1.74527C11.3045 1.74527 11.1648 1.78525 11.1648 1.8343C11.1648 1.88281 11.0236 1.92279 10.8509 1.92279C10.6541 1.92279 10.5182 1.97237 10.4862 2.05606C10.4542 2.13869 10.3194 2.18933 10.1333 2.18933C9.96753 2.18933 9.83212 2.22505 9.83212 2.26823C9.83212 2.31194 9.69192 2.37378 9.5208 2.40577C9.34968 2.43775 9.21001 2.50226 9.21001 2.54917C9.21001 2.59555 9.11032 2.63393 8.98771 2.63393C8.86563 2.63393 8.76595 2.67391 8.76595 2.72242C8.76595 2.77147 8.62574 2.81145 8.45462 2.81145C8.2835 2.81145 8.14383 2.84717 8.14383 2.89035C8.14383 2.93406 8.00416 2.99537 7.83304 3.02788C7.66192 3.05987 7.52172 3.12437 7.52172 3.17075C7.52172 3.21766 7.42203 3.25551 7.29995 3.25551C7.17787 3.25551 7.07765 3.29549 7.07765 3.34454C7.07765 3.39358 6.98276 3.43356 6.86655 3.43356C6.75034 3.43356 6.60534 3.49327 6.54456 3.56684C6.48379 3.63987 6.34199 3.70011 6.23004 3.70011C6.11809 3.70011 6.01307 3.73689 5.99655 3.78274C5.98056 3.82805 5.84728 3.87816 5.70068 3.89362C5.55408 3.90908 5.3787 3.97412 5.31153 4.03809C5.24383 4.10206 5.13401 4.13351 5.06737 4.10739C4.99807 4.08127 4.9453 4.11752 4.9453 4.19162C4.9453 4.26945 4.86053 4.32169 4.73313 4.32169C4.61691 4.32169 4.40954 4.3798 4.27307 4.4507C4.1366 4.5216 3.99107 4.55838 3.95002 4.53279C3.90844 4.50721 3.88552 4.53919 3.89938 4.60423C3.91697 4.68952 3.77197 4.72897 3.36842 4.74816C3.06296 4.76256 2.81294 4.81267 2.81294 4.85904C2.81294 4.90596 2.66314 4.94487 2.47976 4.94647C2.29638 4.94807 2.07088 5.00671 1.97812 5.07708C1.88537 5.14745 1.77555 5.1837 1.73343 5.15757C1.69185 5.13199 1.65774 5.15438 1.65774 5.20768C1.65774 5.26099 1.5879 5.33136 1.50261 5.36388C1.31229 5.43585 1.12465 5.6139 1.12465 5.72212C1.12465 5.76636 1.02496 5.85592 0.902882 5.92096C0.763213 5.99559 0.680584 6.11713 0.680584 6.24721C0.680584 6.36129 0.640602 6.45405 0.591558 6.45405C0.469481 6.45405 0.469481 16.7293 0.591558 16.805C0.6454 16.8381 0.680584 17.4847 0.680584 18.4464C0.680584 19.3495 0.716301 20.0462 0.763746 20.0627C0.809058 20.0793 0.856503 20.5463 0.869297 21.1012C0.885823 21.8347 0.923672 22.1221 1.00843 22.1546C1.09053 22.186 1.12465 22.4009 1.12465 22.8828C1.12465 23.2586 1.1625 23.6046 1.20834 23.651C1.25472 23.6973 1.30163 23.9436 1.31336 24.1979C1.32615 24.4842 1.37893 24.6782 1.45143 24.7065C1.51807 24.7321 1.56924 24.8867 1.56924 25.0653C1.56924 25.2374 1.60923 25.3787 1.65774 25.3787C1.70678 25.3787 1.74676 25.4555 1.74676 25.5493C1.74676 25.7417 2.02237 26.2658 2.12419 26.2668C2.16097 26.2674 2.19083 26.3239 2.19083 26.3932C2.19083 26.552 2.47923 27.0659 2.56879 27.0665C2.60504 27.067 2.63542 27.1096 2.63542 27.1624C2.63542 27.2147 2.685 27.3133 2.7463 27.381C3.01338 27.679 3.08268 27.7776 3.02404 27.7776C2.98993 27.7776 3.1184 27.9279 3.30925 28.1119C3.50062 28.2958 3.71706 28.5655 3.79009 28.7116C3.92816 28.9861 4.09822 29.1994 4.17925 29.1994C4.24802 29.1994 4.81096 29.7916 5.00234 30.0646C5.09296 30.1941 5.27261 30.4111 5.40109 30.5454C5.52956 30.6803 5.61272 30.8125 5.58607 30.8391C5.55941 30.8658 5.60153 30.8876 5.67989 30.8876C5.75772 30.8876 5.91339 31.0172 6.02533 31.1761C6.22524 31.4602 7.13363 32.3979 7.20879 32.3979C7.28769 32.3979 7.74028 32.8894 7.72056 32.9534C7.70883 32.9896 7.75947 33.02 7.83304 33.02C7.90607 33.02 7.96631 33.0824 7.96631 33.1586C7.96631 33.2343 8.00096 33.2754 8.04308 33.2492C8.08572 33.2231 8.21153 33.3207 8.32295 33.4662C8.43436 33.6117 8.5799 33.7306 8.646 33.7306C8.71157 33.7306 8.76595 33.7706 8.76595 33.8196C8.76595 33.8681 8.80859 33.9081 8.86084 33.9081C8.98398 33.9081 9.21001 34.1342 9.21001 34.2573C9.21001 34.3095 9.25532 34.3527 9.31076 34.3527C9.41685 34.3527 9.83159 34.7941 9.83159 34.9077C9.83212 34.9445 9.86944 34.9743 9.91582 34.9743C9.96166 34.9743 10.1818 35.1545 10.4047 35.3741C10.628 35.5943 10.8525 35.7739 10.9036 35.7739C10.9553 35.7739 10.9745 35.8113 10.9463 35.8566C10.9186 35.9019 10.9841 35.9669 11.0923 36.0016C11.3226 36.0746 11.5199 36.2537 11.5199 36.3897C11.5199 36.4419 11.5652 36.4851 11.6206 36.4851C11.6761 36.4851 11.8531 36.6248 12.0146 36.7959C12.1756 36.967 12.3408 37.1067 12.3814 37.1067C12.4219 37.1067 12.5301 37.2069 12.6218 37.329C12.714 37.451 12.843 37.5513 12.9096 37.5513C12.9763 37.5513 13.0307 37.5912 13.0307 37.6398C13.0307 37.6888 13.0904 37.7288 13.1639 37.7288C13.237 37.7288 13.2972 37.7704 13.2972 37.8215C13.2972 37.9617 13.7146 38.3509 13.8644 38.3509C13.9369 38.3509 14.0211 38.4303 14.0521 38.5284C14.083 38.626 14.2056 38.7299 14.3245 38.7598C14.4433 38.7896 14.5409 38.8701 14.5409 38.9378C14.5409 39.0061 14.6033 39.0615 14.6795 39.0615C14.7557 39.0615 14.793 39.1015 14.7632 39.1505C14.7328 39.199 14.7707 39.239 14.8464 39.239C14.9226 39.239 14.985 39.279 14.985 39.328C14.985 39.3771 15.0457 39.4171 15.1204 39.4171C15.1945 39.4171 15.3011 39.5168 15.3565 39.6388C15.4125 39.7614 15.5218 39.8611 15.6001 39.8611C15.678 39.8611 15.8614 40.0003 16.008 40.1703C16.154 40.3404 16.3235 40.4801 16.3843 40.4811C16.4456 40.4822 16.4957 40.5456 16.4957 40.6219C16.4957 40.6976 16.5299 40.7391 16.5714 40.7135C16.613 40.6874 16.7228 40.7237 16.8156 40.794C17.0651 40.9828 17.1584 40.9588 17.5113 40.6165C17.6872 40.4454 17.8732 40.3052 17.9239 40.3052C17.9751 40.3052 17.9942 40.2695 17.9671 40.2258C17.9191 40.1479 18.1643 39.9971 18.2949 40.0248C18.3312 40.0323 18.3567 40.0088 18.3509 39.972C18.3226 39.795 18.3701 39.6783 18.45 39.7279C18.4991 39.7583 18.5391 39.7439 18.5391 39.6959C18.5391 39.6484 18.489 39.5893 18.4282 39.5647C18.3669 39.5397 18.3568 39.5168 18.4058 39.513C18.4644 39.5082 18.4863 36.9974 18.4703 32.1207L18.4463 24.7353L18.6926 24.7944C18.828 24.827 19.0988 24.8947 19.2945 24.9453C19.4896 24.9954 19.7897 25.0535 19.9608 25.0743C20.2737 25.1127 20.133 25.0626 19.0279 24.7395C17.0992 24.1766 15.7409 22.7367 14.8528 20.3144C14.7184 19.9481 14.5777 19.568 14.5393 19.4705C14.5009 19.3729 14.4018 19.0531 14.3186 18.7599C14.043 17.7854 13.9657 17.6153 13.6522 17.288C12.6452 16.2368 11.5194 16.37 7.03341 18.0706C6.00188 18.4619 5.94804 18.4955 5.37976 19.1059C4.10728 20.4727 2.90197 20.461 2.90197 19.0819C2.90197 18.093 4.90265 17.2528 5.56848 17.9613C5.83822 18.2486 5.97469 18.2401 6.50512 17.9027C7.10591 17.5204 9.12365 16.5145 10.7224 15.7991C11.1984 15.5864 11.3221 15.4547 11.6585 14.806C12.2769 13.6129 12.955 12.9945 14.0014 12.6688C15.2334 12.2855 15.9429 12.4401 18.2741 13.6001C19.2182 14.0703 20.028 14.4429 20.0733 14.428C20.1181 14.4131 20.0413 14.3475 19.9022 14.2819C19.7636 14.2169 19.5898 14.1289 19.5162 14.0863C19.4432 14.0442 19.2198 13.9306 19.0199 13.8347C18.4074 13.5393 18.4458 14.0127 18.4714 7.05484C18.489 2.18027 18.4698 0.67856 18.3871 0.601795C18.2501 0.473321 15.8192 0.463192 15.7403 0.590067ZM28.0904 7.83901L27.8239 8.06824L28.1123 7.87686C28.2711 7.77184 28.4012 7.66896 28.4012 7.64763C28.4012 7.581 28.3634 7.60445 28.0904 7.83901ZM32.3551 7.97069C32.2085 8.06451 32.1339 8.14181 32.1899 8.14181C32.2453 8.14234 32.385 8.06344 32.5007 7.96749C32.7645 7.74732 32.7011 7.74892 32.3551 7.97069ZM27.3793 8.37796C27.1117 8.61679 27.0919 8.64984 27.2983 8.51177C27.544 8.34758 27.8532 8.04852 27.7679 8.05705C27.7498 8.05864 27.5749 8.20311 27.3793 8.37796ZM30.3561 9.29754C30.098 9.49905 29.945 9.52037 29.8816 9.36418C29.8464 9.27675 29.8352 9.27782 29.8299 9.36685C29.8166 9.58488 30.0799 9.57688 30.4152 9.34925C30.6007 9.22291 30.7132 9.12056 30.6652 9.12162C30.6173 9.12269 30.4781 9.20159 30.3561 9.29754ZM25.8648 9.67497L25.5135 10.0524L25.8914 9.70162C26.2422 9.37484 26.3099 9.29754 26.2422 9.29754C26.2278 9.29754 26.0583 9.46707 25.8648 9.67497ZM24.3092 11.23L24.0032 11.5632L24.3364 11.2566C24.5198 11.0882 24.6696 10.9384 24.6696 10.9235C24.6696 10.8558 24.5944 10.9197 24.3092 11.23ZM22.1539 13.7472C22.0164 13.9386 21.9215 14.0953 21.9434 14.0953C22.0047 14.0953 22.4706 13.4658 22.4349 13.4306C22.4178 13.4135 22.2915 13.5559 22.1539 13.7472ZM21.6486 14.4504C21.5446 14.597 21.4791 14.7169 21.5036 14.7169C21.5276 14.7169 21.6331 14.597 21.7376 14.4504C21.8421 14.3038 21.9077 14.1838 21.8831 14.1838C21.8586 14.1838 21.7531 14.3038 21.6486 14.4504ZM31.7799 19.1197C31.6104 19.2391 31.5102 19.3372 31.5576 19.3367C31.6051 19.3367 31.7639 19.2381 31.9105 19.1176C32.2528 18.8372 32.1781 18.8382 31.7799 19.1197ZM30.6892 19.7434C30.3571 19.9236 30.3774 19.9988 30.7111 19.8261C30.8577 19.7498 30.9776 19.6693 30.9776 19.6459C30.9776 19.5888 30.968 19.592 30.6892 19.7434ZM29.606 20.2728C29.3842 20.4407 29.4663 20.4396 29.7904 20.2706C29.9306 20.1976 29.985 20.139 29.9115 20.14C29.8384 20.1416 29.7009 20.2013 29.606 20.2728ZM26.8462 21.114C26.7342 21.1625 26.7177 21.1908 26.8019 21.1908C26.875 21.1908 27.0152 21.1561 27.1127 21.114C27.2247 21.066 27.2412 21.0378 27.1575 21.0378C27.084 21.0378 26.9443 21.0724 26.8462 21.114ZM25.6985 21.4392C25.6478 21.5703 26.0183 22.2692 26.1383 22.2692C26.1628 22.2692 26.0737 22.105 25.941 21.904C25.7064 21.5495 25.7043 21.5346 25.8674 21.4152C26.0055 21.3144 26.0103 21.292 25.8957 21.292C25.8179 21.292 25.7294 21.3582 25.6985 21.4392ZM26.3131 22.6248C26.3893 22.7714 26.4709 22.8913 26.4954 22.8913C26.5199 22.8913 26.4778 22.7714 26.4021 22.6248C26.3264 22.4782 26.2443 22.3582 26.2198 22.3582C26.1953 22.3582 26.2374 22.4782 26.3131 22.6248ZM27.1074 26.2898L26.8462 26.5782L27.1351 26.3175C27.294 26.1741 27.4241 26.044 27.4241 26.0285C27.4241 25.9598 27.3505 26.0205 27.1074 26.2898ZM22.3496 28.2441C22.292 28.3544 22.0868 28.6337 21.8943 28.8656C21.5196 29.3172 21.5953 29.5491 22.0196 29.2516C22.1305 29.1743 22.1806 29.1103 22.1305 29.1103C22.0804 29.1103 21.9924 29.1578 21.9343 29.2159C21.7968 29.3534 21.6912 29.2457 21.816 29.0943C22.2872 28.5234 22.5985 28.0442 22.4989 28.0442C22.4749 28.0442 22.4072 28.1342 22.3496 28.2441Z" fill="#29A6DE"/>
<path fill-rule="evenodd" clip-rule="evenodd" d="M19.8708 0.995115C19.8708 1.08041 19.9134 1.10973 19.9817 1.07081C20.0707 1.0207 20.0707 1.03243 19.9817 1.12785C19.8393 1.28192 19.8175 14.0952 19.9598 14.0952C20.0083 14.0952 20.0483 14.1549 20.0483 14.2285C20.0483 14.3116 20.1325 14.3617 20.2717 14.3617C20.3948 14.3617 20.5643 14.3964 20.6496 14.4385C20.9535 14.5899 21.381 14.7003 21.381 14.6267C21.381 14.5856 21.4333 14.4993 21.4967 14.4348C21.5601 14.3697 21.743 14.1251 21.9034 13.8905C22.0639 13.6559 22.3022 13.3542 22.4323 13.2199C22.5629 13.0855 22.7878 12.8174 22.9328 12.6244C23.0773 12.4314 23.3172 12.1526 23.4659 12.005C23.6141 11.8568 23.8402 11.5972 23.9681 11.4271C24.2512 11.0513 25.9597 9.35662 26.2678 9.14605C26.3899 9.06235 26.5936 8.89176 26.7194 8.76755C26.8457 8.64281 27.0957 8.44077 27.2743 8.31923C27.4529 8.19768 27.5995 8.06761 27.6 8.03136C27.6 7.99457 27.6603 7.96472 27.7338 7.96472C27.8069 7.96472 27.8671 7.93434 27.8671 7.89702C27.8671 7.86024 28.1289 7.65233 28.4492 7.43483L29.0314 7.04035L29.2457 7.30262C29.3635 7.44656 29.4616 7.65233 29.4632 7.75948C29.4648 7.86663 29.5064 7.97858 29.5554 8.00897C29.6039 8.03935 29.6439 8.17902 29.6439 8.31976C29.6439 8.46103 29.6812 8.59856 29.726 8.62682C29.7713 8.65454 29.8337 8.79421 29.8651 8.93654C29.9504 9.32676 30.1098 9.41792 30.3358 9.20682C30.4403 9.1098 30.5438 9.0309 30.5661 9.0309C30.5885 9.0309 31.12 8.68599 31.7469 8.26432C33.0791 7.36873 33.4224 7.16509 33.6005 7.16509C33.7492 7.16509 33.7833 6.76367 33.6421 6.67625C33.5936 6.64586 33.5536 6.54244 33.5536 6.44595C33.5536 6.34946 33.4933 6.24764 33.4203 6.21992C33.3467 6.19167 33.287 6.11011 33.287 6.03867C33.287 5.89154 33.077 5.65431 32.9474 5.65431C32.9 5.65431 32.8387 5.59461 32.8104 5.52104C32.7822 5.44801 32.698 5.38777 32.6233 5.38777C32.5487 5.38777 32.4874 5.35578 32.4874 5.31634C32.4874 5.20759 31.837 4.94371 31.5689 4.94371C31.4388 4.94371 31.3322 4.90372 31.3322 4.85468C31.3322 4.80564 31.0982 4.76619 30.8087 4.76619C30.4254 4.76619 30.2713 4.73047 30.234 4.63292C30.2042 4.55508 30.0709 4.49964 29.9136 4.49964C29.7654 4.49964 29.6439 4.45966 29.6439 4.41062C29.6439 4.36157 29.5485 4.32159 29.4312 4.32159C29.3144 4.32159 29.1956 4.26189 29.1678 4.18832C29.138 4.11049 29.0047 4.05505 28.8475 4.05505C28.6993 4.05505 28.5777 4.01507 28.5777 3.96655C28.5777 3.91751 28.5004 3.87753 28.4055 3.87753C28.3106 3.87753 28.2083 3.83755 28.1779 3.7885C28.148 3.73999 27.9855 3.70001 27.8175 3.70001C27.6048 3.70001 27.5115 3.65896 27.5115 3.56674C27.5115 3.48358 27.4278 3.43347 27.2898 3.43347C27.1677 3.43347 27.0675 3.39348 27.0675 3.34444C27.0675 3.29539 26.9273 3.25541 26.7567 3.25541C26.5392 3.25541 26.4454 3.21543 26.4454 3.12214C26.4454 3.04005 26.3622 2.98887 26.2289 2.98887C26.1095 2.98887 25.9869 2.94889 25.9571 2.90038C25.9267 2.85133 25.7843 2.81135 25.6404 2.81135C25.497 2.81135 25.3792 2.77137 25.3792 2.72232C25.3792 2.67381 25.2395 2.63383 25.0684 2.63383C24.8514 2.63383 24.7576 2.59332 24.7576 2.50056C24.7576 2.40727 24.6638 2.36729 24.4463 2.36729C24.2752 2.36729 24.1355 2.32731 24.1355 2.27826C24.1355 2.22922 24.0406 2.18924 23.9244 2.18924C23.8082 2.18924 23.6669 2.13379 23.6104 2.06556C23.5139 1.94935 23.3289 1.89337 22.6471 1.77556C22.4882 1.74837 22.3587 1.69026 22.3587 1.64655C22.3587 1.60284 22.2228 1.56765 22.057 1.56765C21.8709 1.56765 21.7361 1.51648 21.7046 1.43438C21.6705 1.34642 21.5313 1.30111 21.2952 1.30111C21.0979 1.30111 20.937 1.26113 20.937 1.21208C20.937 1.16304 20.8015 1.12306 20.6352 1.12306C20.4497 1.12306 20.3143 1.07241 20.2829 0.989784C20.2146 0.812266 19.8708 0.81653 19.8708 0.995115ZM33.2721 18.1605C33.2556 18.1973 33.0626 18.3663 32.8424 18.5358C32.6228 18.7054 32.4229 18.8695 32.3984 18.901C32.3738 18.9325 32.1329 19.0934 31.8631 19.2587C31.5934 19.424 31.2933 19.6073 31.1968 19.6665C30.6994 19.9709 29.1567 20.6698 28.9818 20.6698C28.905 20.6698 28.7728 20.7044 28.6875 20.7466C28.3709 20.9049 27.9012 21.0504 27.5782 21.0909C27.3953 21.1139 27.245 21.1682 27.245 21.2125C27.245 21.2562 27.0952 21.2924 26.9118 21.293C26.729 21.294 26.4294 21.3463 26.2471 21.4097C25.8947 21.5329 25.7262 21.6469 25.8979 21.6469C25.9544 21.6469 26.0013 21.6939 26.0013 21.7514C26.0013 21.8085 26.0573 21.9183 26.1255 21.9956C26.3078 22.2008 26.753 23.0138 26.9806 23.5575C27.1837 24.0426 27.3591 24.4435 27.4358 24.6003C27.4774 24.685 27.5115 24.8551 27.5115 24.9777C27.5115 25.1003 27.5515 25.201 27.6006 25.201C28.0894 25.201 27.2279 26.6526 26.6255 26.844C26.5269 26.8755 26.4454 26.9384 26.4454 26.9842C26.4454 27.0295 26.3889 27.0669 26.3196 27.0669C26.2503 27.0669 26.1804 27.0967 26.1644 27.1335C26.1314 27.2071 25.4122 27.689 25.3349 27.689C25.3088 27.689 25.1286 27.7887 24.9351 27.9107C24.7416 28.0333 24.5257 28.133 24.4559 28.133C24.3855 28.133 24.3146 28.1629 24.2986 28.1997C24.2592 28.2887 22.4317 29.204 22.2995 29.2013C22.2425 29.2003 22.1822 29.2291 22.1663 29.2659C22.1145 29.3815 21.5468 29.6465 21.462 29.5942C21.2899 29.4876 21.4045 29.2243 21.8283 28.7552C22.0708 28.4865 22.2697 28.2162 22.2697 28.1554C22.2697 28.0941 22.3001 28.044 22.3368 28.044C22.4088 28.044 22.6087 27.5269 22.6844 27.1452C22.7607 26.7609 22.0388 25.8232 21.6673 25.8232C21.6193 25.8232 21.5308 25.7629 21.47 25.6899C21.4093 25.6163 21.2467 25.5566 21.1091 25.5566C20.9711 25.5566 20.8341 25.5166 20.8037 25.4676C20.7733 25.4185 20.6112 25.3786 20.4428 25.3786C20.2749 25.3786 20.1373 25.3386 20.1373 25.2901C20.1373 25.241 20.076 25.201 20.0008 25.201C19.8793 25.201 19.8676 25.9234 19.89 31.8647C19.9038 35.5296 19.8852 38.5283 19.8484 38.5283C19.8121 38.5283 19.7817 38.5912 19.7817 38.6679C19.7817 38.7922 19.7967 38.7927 19.915 38.6743C19.9886 38.6008 20.0483 38.4979 20.0483 38.4456C20.0483 38.3934 20.0995 38.3508 20.1624 38.3508C20.2247 38.3508 20.3335 38.2708 20.4039 38.1727C20.4742 38.0751 20.5734 37.9952 20.624 37.9952C20.6752 37.9952 20.8245 37.8955 20.9561 37.7729C21.0878 37.6508 21.2376 37.5511 21.2883 37.5511C21.3394 37.5511 21.381 37.5058 21.381 37.4504C21.381 37.3437 21.8229 36.9295 21.9365 36.929C21.9733 36.929 22.0031 36.8864 22.0031 36.8336C22.0031 36.7163 22.227 36.4849 22.3411 36.4849C22.3875 36.4849 22.5778 36.3447 22.7644 36.1736C22.9515 36.0025 23.1359 35.8628 23.1754 35.8628C23.2148 35.8628 23.2468 35.8026 23.2468 35.7296C23.2468 35.656 23.29 35.5963 23.3423 35.5963C23.4654 35.5963 23.6914 35.3703 23.6914 35.2471C23.6914 35.1949 23.733 35.1522 23.7842 35.1522C23.9047 35.1522 24.313 34.7433 24.313 34.6229C24.313 34.5717 24.3732 34.5301 24.4463 34.5301C24.5198 34.5301 24.5796 34.4901 24.5796 34.4411C24.5796 34.3926 24.6409 34.3526 24.716 34.3526C24.7907 34.3526 24.8749 34.2923 24.9031 34.2193C24.9309 34.1457 24.9879 34.086 25.0295 34.086C25.135 34.086 26.0471 33.1675 26.0221 33.0865C26.0104 33.0497 26.0439 33.0199 26.0962 33.0199C26.1484 33.0199 26.5077 32.7 26.8953 32.3087C27.2823 31.918 27.6395 31.5981 27.6885 31.5981C27.7381 31.5981 27.7781 31.5629 27.7781 31.5203C27.7781 31.4776 28.1982 31.0117 28.711 30.4856C29.2244 29.9589 29.6439 29.4546 29.6439 29.3639C29.6439 29.2733 29.686 29.1992 29.7372 29.1992C29.8353 29.1992 30.7101 28.3585 30.7101 28.2642C30.7101 28.2338 30.7602 28.1533 30.8215 28.0856C31.0513 27.8286 31.1547 27.6948 31.1547 27.6527C31.1547 27.6287 31.2544 27.5013 31.3764 27.3697C31.499 27.2374 31.5987 27.094 31.5987 27.0503C31.5987 27.0066 31.6803 26.8829 31.7805 26.7758C31.9868 26.554 32.2208 26.1164 32.2208 25.9522C32.2208 25.8914 32.2806 25.8189 32.3541 25.7906C32.4272 25.7629 32.4874 25.6584 32.4874 25.5593C32.4874 25.4601 32.5274 25.3786 32.5759 25.3786C32.6249 25.3786 32.6649 25.2389 32.6649 25.0678C32.6649 24.8967 32.7049 24.757 32.7539 24.757C32.8024 24.757 32.8424 24.5741 32.8424 24.3508C32.8424 24.1082 32.8963 23.8907 32.9757 23.8113C33.0669 23.7201 33.109 23.4962 33.109 23.1065C33.109 22.7851 33.1479 22.5356 33.198 22.5356C33.2513 22.5356 33.287 22.1779 33.287 21.6405C33.287 20.9641 33.3195 20.7135 33.4203 20.6128C33.6106 20.4219 33.6175 18.0934 33.4278 18.0934C33.3585 18.0934 33.2881 18.1232 33.2721 18.1605ZM19.4774 38.8455C19.3233 38.9995 19.3025 39.0614 19.4054 39.0614C19.4422 39.0614 19.5227 38.9814 19.5834 38.8838C19.7167 38.6706 19.6693 38.6535 19.4774 38.8455ZM18.1521 40.0236C17.99 40.2027 17.9543 40.3472 18.0935 40.2613C18.1862 40.2038 18.3915 39.861 18.3328 39.861C18.3142 39.861 18.2331 39.934 18.1521 40.0236Z" fill="#0D66A4"/>
<path fill-rule="evenodd" clip-rule="evenodd" d="M18.5087 0.738525C18.4761 0.771043 18.4495 3.64386 18.4495 7.12173C18.4495 14.1777 18.3898 13.5305 19.0716 13.8611C19.2427 13.9437 19.4426 14.0439 19.5157 14.0839C20.0184 14.3579 20.0488 14.3659 20.0488 14.2294C20.0488 14.1559 20.0088 14.0956 19.9603 14.0956C19.8179 14.0956 19.8398 1.28228 19.9821 1.12821C20.0711 1.03279 20.0711 1.02106 19.9821 1.07117C19.9149 1.10955 19.8712 1.08183 19.8712 1.0008C19.8712 0.909646 19.7939 0.873929 19.6271 0.88779C19.4927 0.898984 19.3296 0.856871 19.2651 0.793966C19.1425 0.674554 18.6115 0.635639 18.5087 0.738525ZM28.4374 7.44318C28.1485 7.64469 27.8985 7.8446 27.8825 7.88725C27.866 7.92989 27.7961 7.96508 27.7268 7.96508C27.6575 7.96508 27.6005 7.99493 27.6005 8.03171C27.6 8.06796 27.4534 8.19804 27.2748 8.31958C27.0962 8.44113 26.8462 8.64317 26.7198 8.76791C26.594 8.89212 26.3904 9.06271 26.2683 9.1464C25.9602 9.35697 24.2516 11.0517 23.9686 11.4275C23.8406 11.5976 23.6146 11.8572 23.4664 12.0054C23.3177 12.153 23.0778 12.4319 22.9333 12.6248C22.7883 12.8178 22.5633 13.0859 22.4327 13.2203C22.3027 13.3546 22.0644 13.6564 21.9039 13.8909C21.7434 14.1255 21.5606 14.3702 21.4972 14.4352C21.4337 14.4997 21.3815 14.5861 21.3815 14.6271C21.3815 14.7007 20.9539 14.5903 20.6501 14.4389C20.5648 14.3968 20.4049 14.3643 20.2945 14.3664C20.1479 14.3702 20.1895 14.408 20.4486 14.5066C20.6442 14.5807 20.8734 14.6788 20.9582 14.7241C21.2701 14.8899 21.4279 14.7993 21.8154 14.231C22.0292 13.917 22.2701 13.5881 22.3512 13.5002C22.4317 13.4122 22.7099 13.0801 22.9701 12.7629C24.6962 10.6535 26.9602 8.53015 28.5894 7.49223L29.0883 7.17451L29.2259 7.50289C29.301 7.68361 29.4242 7.99173 29.4988 8.18684C29.6204 8.50243 29.6358 8.51576 29.6401 8.30359C29.6422 8.17192 29.6044 8.03971 29.5559 8.00932C29.5068 7.97894 29.4668 7.87498 29.4668 7.7785C29.4668 7.60418 29.1315 7.07642 29.0206 7.07642C28.9892 7.07642 28.7269 7.24114 28.4374 7.44318ZM33.2502 7.28166C33.1563 7.33976 32.5246 7.75717 31.8455 8.20923C31.1669 8.66129 30.5922 9.03126 30.5687 9.03126C30.5447 9.03126 30.4408 9.11015 30.3363 9.20717C30.1103 9.41828 29.9509 9.32712 29.8656 8.9369C29.8037 8.65649 29.6444 8.4923 29.6444 8.7098C29.6444 8.78283 29.6795 8.8644 29.7216 8.89052C29.7643 8.91717 29.8235 9.05951 29.8528 9.20717C29.9152 9.51743 30.0442 9.54089 30.3555 9.2978C30.4776 9.20184 30.6071 9.12295 30.6439 9.12188C30.6801 9.12081 30.9904 8.91984 31.3326 8.67568C31.6749 8.43153 31.9915 8.23162 32.0363 8.23162C32.0811 8.23162 32.1307 8.20124 32.1472 8.16445C32.1877 8.0717 33.2811 7.37228 33.554 7.2646C33.739 7.19103 33.7465 7.17664 33.5983 7.17611C33.5007 7.17611 33.344 7.22355 33.2502 7.28166ZM33.1094 18.1924C32.9874 18.2921 32.8066 18.4408 32.708 18.5224C32.0768 19.0454 31.4083 19.4649 30.4632 19.9297C30.2052 20.0566 30.0138 20.1808 30.0383 20.2054C30.0794 20.2464 30.79 19.9164 31.1972 19.6669C31.2937 19.6078 31.5939 19.4244 31.8636 19.2591C32.1333 19.0939 32.3743 18.9329 32.3988 18.9014C32.4233 18.87 32.6233 18.7063 32.8429 18.5379C33.0631 18.3694 33.263 18.2063 33.2875 18.1759C33.3115 18.1455 33.3914 18.0975 33.465 18.0693C33.5833 18.0245 33.5833 18.0181 33.465 18.0149C33.3914 18.0128 33.232 18.0922 33.1094 18.1924ZM29.6843 20.2986C29.638 20.3386 29.3053 20.4671 28.9449 20.5838C28.5851 20.7006 28.3388 20.8125 28.3985 20.8323C28.4582 20.8525 28.5931 20.8285 28.6981 20.7795C28.8031 20.7304 29.0612 20.6388 29.2712 20.5759C29.6524 20.4612 30.0394 20.2341 29.8624 20.2288C29.8107 20.2272 29.7307 20.2587 29.6843 20.2986ZM27.7785 20.9415C27.6565 20.9831 27.3366 21.0754 27.0679 21.1473C26.5972 21.2731 26.5914 21.2779 26.9123 21.2849C27.0957 21.2891 27.2455 21.2523 27.2455 21.2033C27.2455 21.1543 27.3755 21.1132 27.5344 21.1111C27.6932 21.1095 27.923 21.0508 28.0451 20.981C28.286 20.8435 28.1357 20.8211 27.7785 20.9415ZM25.8669 21.4155C25.7038 21.5349 25.707 21.5514 25.9596 21.9262C26.103 22.1394 26.4101 22.6736 26.6415 23.1134C26.8728 23.5532 27.0637 23.8629 27.0653 23.801C27.0669 23.7392 27.0216 23.599 26.965 23.4897C26.9085 23.3804 26.835 23.2312 26.8019 23.1581C26.6585 22.8436 26.2406 22.125 26.126 21.996C26.0577 21.9187 26.0018 21.8121 26.0018 21.7588C26.0018 21.706 25.9516 21.6436 25.8909 21.6207C25.821 21.5951 25.8461 21.5562 25.9575 21.5173C26.4464 21.3462 26.5045 21.3046 26.263 21.2982C26.1382 21.295 25.9596 21.3478 25.8669 21.4155ZM27.1132 24.091C27.1463 24.1886 27.2396 24.4685 27.3206 24.7126C27.4358 25.0602 27.4741 25.1114 27.4976 24.9466C27.5136 24.8315 27.4837 24.6934 27.431 24.6401C27.3777 24.5873 27.3345 24.4797 27.3345 24.4013C27.3345 24.3224 27.271 24.1806 27.1937 24.0857C27.0551 23.9157 27.0541 23.9157 27.1132 24.091ZM18.4697 32.121C18.4857 36.9998 18.4639 39.5069 18.4052 39.5085C18.3562 39.5101 18.3876 39.5533 18.4751 39.6039C18.6073 39.6807 18.7182 39.6125 19.1286 39.202C19.4005 38.9296 19.6591 38.7297 19.7028 38.7563C19.7465 38.7835 19.7822 38.7435 19.7822 38.6673C19.7822 38.5911 19.8126 38.5287 19.8488 38.5287C19.8856 38.5287 19.9043 35.5301 19.8904 31.8651C19.868 25.9238 19.8798 25.2015 20.0013 25.2015C20.0765 25.2015 20.1378 25.2414 20.1378 25.2905C20.1378 25.339 20.27 25.379 20.431 25.379C20.592 25.379 20.7674 25.4227 20.8207 25.4755C20.8734 25.5288 21.0115 25.5565 21.1272 25.5373C21.2962 25.5096 21.2594 25.4803 20.9374 25.387C20.7172 25.323 20.4576 25.2377 20.3601 25.1977C20.262 25.1578 20.0621 25.1044 19.9155 25.0799C19.7689 25.0549 19.489 24.9941 19.2939 24.9445C19.0983 24.8949 18.8274 24.8272 18.692 24.7947L18.4458 24.7355L18.4697 32.121ZM27.5621 25.4142C27.7327 26.0939 26.6127 26.9361 23.3363 28.593C21.6086 29.4662 21.3554 29.5142 21.8938 28.8659C22.3069 28.3685 22.7158 27.6563 22.711 27.4415C22.7073 27.2379 22.4556 27.6702 22.4509 27.8893C22.4493 27.9746 22.4077 28.0444 22.3592 28.0444C22.3101 28.0444 22.2701 28.0945 22.2701 28.1558C22.2701 28.2166 22.0713 28.4869 21.8287 28.7556C21.4049 29.2247 21.2903 29.488 21.4625 29.5947C21.5473 29.6469 22.115 29.3819 22.1667 29.2663C22.1827 29.2295 22.2429 29.2007 22.3 29.2018C22.4322 29.2044 24.2596 28.2891 24.2991 28.2001C24.3151 28.1633 24.386 28.1335 24.4563 28.1335C24.5262 28.1335 24.7421 28.0338 24.9356 27.9112C25.1291 27.7891 25.3093 27.6894 25.3354 27.6894C25.4127 27.6894 26.1318 27.2075 26.1649 27.1339C26.1809 27.0971 26.2507 27.0673 26.32 27.0673C26.3893 27.0673 26.4458 27.03 26.4458 26.9846C26.4458 26.9388 26.5274 26.8759 26.626 26.8444C27.23 26.6525 28.0893 25.2015 27.5994 25.2015C27.5482 25.2015 27.5323 25.2942 27.5621 25.4142ZM21.4705 25.6903C21.5313 25.7633 21.6347 25.8236 21.6997 25.8236C21.8309 25.8236 22.4317 26.3881 22.598 26.6675C22.6806 26.8061 22.7051 26.8141 22.7094 26.7042C22.7163 26.5049 22.1982 25.9537 21.801 25.7388C21.4012 25.5224 21.3218 25.5107 21.4705 25.6903Z" fill="#3C84B4"/>
<path fill-rule="evenodd" clip-rule="evenodd" d="M38.4404 13.8634C38.4404 18.7092 38.4238 19.4134 38.3071 19.4582C38.1909 19.5029 38.1738 20.1442 38.1738 24.4873V29.4658H41.0616H43.9493V28.9423C43.9493 28.5591 43.985 28.405 44.0826 28.3677C44.1977 28.3234 44.2159 27.849 44.2159 24.8488V21.3805H45.1488C45.7112 21.3805 46.0817 21.4157 46.0817 21.4695C46.0817 21.5276 47.7401 21.5585 50.8795 21.5585H55.6773V21.2856C55.6773 21.1353 55.737 20.9524 55.8105 20.8794C55.9262 20.7637 55.9438 19.9518 55.9438 14.6662V8.58637H49.0227C42.9535 8.58637 42.0963 8.57038 42.051 8.4531C42.0083 8.34115 41.7205 8.31982 40.2204 8.31982H38.4404V13.8634ZM93.4376 13.1123C93.4376 15.9158 93.4061 17.4804 93.3485 17.5156C93.291 17.5513 93.26 19.6789 93.26 23.6072V29.6434H95.1605C96.7683 29.6434 97.069 29.6641 97.1127 29.7766C97.1527 29.8816 97.335 29.9099 97.9662 29.9099H98.7685V29.155C98.7685 28.7104 98.8052 28.3997 98.8575 28.3997C98.9145 28.3997 98.946 27.4076 98.946 25.6009C98.946 23.1722 98.9636 22.8022 99.0792 22.8022C99.1528 22.8022 99.2125 22.8619 99.2125 22.9355C99.2125 23.0085 99.2525 23.0688 99.3015 23.0688C99.3506 23.0688 99.3906 23.1487 99.3906 23.2463C99.3906 23.3454 99.4497 23.4243 99.5238 23.4243C99.5969 23.4243 99.6571 23.484 99.6571 23.5576C99.6571 23.6306 99.6971 23.6909 99.7456 23.6909C99.7946 23.6909 99.8357 23.7607 99.8373 23.846C99.841 24.0385 100.041 24.3125 100.177 24.3125C100.233 24.3125 100.279 24.3727 100.279 24.4457C100.279 24.5193 100.319 24.579 100.368 24.579C100.417 24.579 100.457 24.659 100.457 24.7571C100.457 24.8557 100.516 24.9346 100.59 24.9346C100.663 24.9346 100.723 24.9943 100.723 25.0679C100.723 25.1409 100.763 25.2011 100.812 25.2011C100.861 25.2011 100.901 25.2662 100.901 25.3461C100.901 25.4261 101.04 25.6233 101.212 25.7843C101.383 25.9459 101.523 26.1602 101.523 26.2614C101.523 26.3654 101.581 26.4448 101.656 26.4448C101.729 26.4448 101.789 26.5051 101.789 26.5781C101.789 26.6517 101.829 26.7114 101.878 26.7114C101.927 26.7114 101.967 26.7769 101.967 26.8564C101.967 26.9363 102.107 27.1336 102.278 27.2946C102.449 27.4561 102.589 27.6709 102.589 27.7717C102.589 27.873 102.632 27.9556 102.684 27.9556C102.83 27.9556 103.033 28.1912 103.033 28.3607C103.033 28.4439 103.173 28.6438 103.344 28.8053C103.515 28.9663 103.655 29.1449 103.655 29.202C103.655 29.259 103.792 29.4424 103.959 29.6092L104.261 29.9126L107.268 29.8891L110.274 29.8657L110.302 29.5762C110.322 29.3768 110.287 29.2702 110.191 29.2334C110.115 29.2041 110.052 29.1044 110.052 29.0122C110.052 28.9194 110.012 28.8437 109.963 28.8437C109.914 28.8437 109.874 28.784 109.874 28.7104C109.874 28.6374 109.815 28.5772 109.741 28.5772C109.668 28.5772 109.608 28.5047 109.608 28.4162C109.608 28.3277 109.528 28.1699 109.43 28.0649C109.333 27.9599 109.253 27.8341 109.253 27.7855C109.253 27.737 109.152 27.5968 109.03 27.4747C108.908 27.3527 108.808 27.1965 108.808 27.1277C108.808 27.0589 108.708 26.9278 108.586 26.8361C108.464 26.7444 108.364 26.6191 108.364 26.5573C108.364 26.4955 108.324 26.4448 108.275 26.4448C108.227 26.4448 108.187 26.3707 108.187 26.2796C108.187 26.1889 108.086 26.0397 107.964 25.9474C107.842 25.8558 107.742 25.6905 107.742 25.5796C107.742 25.4693 107.699 25.3786 107.647 25.3786C107.503 25.3786 107.298 25.1441 107.298 24.9788C107.298 24.8141 107.093 24.579 106.949 24.579C106.896 24.579 106.854 24.4937 106.854 24.3898C106.854 24.2858 106.714 24.0683 106.542 23.9073C106.371 23.7458 106.232 23.548 106.232 23.4681C106.232 23.3039 106.026 23.0688 105.883 23.0688C105.83 23.0688 105.788 22.9861 105.788 22.8849C105.788 22.6881 105.595 22.4467 105.438 22.4467C105.386 22.4467 105.343 22.347 105.343 22.2249C105.343 22.1028 105.303 22.0026 105.255 22.0026C105.206 22.0026 105.166 21.9424 105.166 21.8693C105.166 21.7958 105.126 21.736 105.076 21.736C105.028 21.736 104.988 21.6747 104.988 21.6001C104.988 21.5249 104.928 21.4407 104.855 21.413C104.703 21.3544 104.672 21.1139 104.816 21.1139C104.92 21.1139 105.166 20.8954 105.166 20.8031C105.166 20.729 105.402 20.4923 105.476 20.4923C105.569 20.4923 105.788 20.2466 105.788 20.1432C105.788 20.0909 105.83 20.0478 105.883 20.0478C105.986 20.0478 106.232 19.8292 106.232 19.737C106.232 19.6629 106.468 19.4262 106.542 19.4262C106.635 19.4262 106.854 19.1804 106.854 19.077C106.854 19.0248 106.896 18.9816 106.949 18.9816C107.052 18.9816 107.298 18.763 107.298 18.6708C107.298 18.5967 107.535 18.36 107.609 18.36C107.701 18.36 107.92 18.1142 107.92 18.0108C107.92 17.9586 107.963 17.9154 108.015 17.9154C108.118 17.9154 108.364 17.6968 108.364 17.6046C108.364 17.5305 108.601 17.2938 108.675 17.2938C108.767 17.2938 108.986 17.0481 108.986 16.9446C108.986 16.8924 109.029 16.8492 109.081 16.8492C109.184 16.8492 109.43 16.6307 109.43 16.5384C109.43 16.4643 109.667 16.2276 109.741 16.2276C109.833 16.2276 110.052 15.9819 110.052 15.8785C110.052 15.8262 110.095 15.783 110.147 15.783C110.27 15.783 110.496 15.557 110.496 15.4344C110.496 15.3816 110.536 15.339 110.585 15.339C110.634 15.339 110.674 15.259 110.674 15.1615C110.674 14.9866 110.615 14.9834 107.117 14.9834H103.56L103.171 15.3832C102.957 15.6034 102.739 15.783 102.686 15.783C102.632 15.783 102.589 15.8214 102.589 15.8678C102.589 15.9782 101.717 16.8492 101.607 16.8492C101.561 16.8492 101.523 16.8924 101.523 16.9446C101.523 17.0481 101.304 17.2938 101.212 17.2938C101.137 17.2938 100.901 17.5305 100.901 17.6046C100.901 17.6968 100.655 17.9154 100.552 17.9154C100.499 17.9154 100.457 17.9586 100.457 18.0108C100.457 18.1142 100.238 18.36 100.145 18.36C100.071 18.36 99.8346 18.5967 99.8346 18.6708C99.8346 18.763 99.5889 18.9816 99.4855 18.9816C99.4332 18.9816 99.3906 19.0248 99.3906 19.077C99.3906 19.2001 99.1645 19.4262 99.0414 19.4262C98.9748 19.4262 98.946 18.1606 98.946 15.25C98.946 11.5972 98.963 11.0743 99.0792 11.0743C99.1912 11.0743 99.2125 10.8866 99.2125 9.91909V8.76442H96.3253H93.4376V13.1123ZM112.451 14.7169V20.6699H118.848H125.245V23.7794V26.8894H120.092C116.716 26.8894 114.939 26.8585 114.939 26.8004C114.939 26.745 114.42 26.7114 113.56 26.7114H112.18L112.204 28.2888L112.229 29.8657L120.869 29.888C126.527 29.903 129.51 29.9414 129.51 29.9995C129.51 30.0517 129.853 30.088 130.354 30.088H131.198V24.4457C131.198 20.744 131.229 18.8041 131.287 18.8041C131.336 18.8041 131.376 18.5674 131.376 18.271V17.7379H124.89H118.404V14.8501V11.9629H124.668C128.785 11.9629 130.931 11.9325 130.931 11.8739C130.931 11.8249 130.992 11.7849 131.065 11.7849C131.148 11.7849 131.198 11.7012 131.198 11.5631C131.198 11.441 131.238 11.3408 131.287 11.3408C131.336 11.3408 131.376 11.2054 131.376 11.0391C131.376 10.8536 131.427 10.7182 131.509 10.6867C131.582 10.6585 131.642 10.5545 131.642 10.4554C131.642 10.3557 131.682 10.2747 131.731 10.2747C131.78 10.2747 131.82 10.135 131.82 9.96387C131.82 9.79275 131.86 9.65255 131.909 9.65255C131.957 9.65255 131.997 9.51288 131.997 9.34176V9.03096H125.953C120.662 9.03096 119.902 9.01391 119.857 8.89769C119.813 8.78201 119.316 8.76442 116.129 8.76442H112.451V14.7169ZM133.775 15.9073C133.775 21.9605 133.759 22.7894 133.64 22.8347C133.523 22.8795 133.509 23.3294 133.529 26.3761L133.553 29.8657L134.819 29.8902C135.563 29.9046 136.085 29.9504 136.085 30.0016C136.085 30.0544 136.707 30.088 137.684 30.088H139.283V24.1349V18.1819H141.504H143.724L143.747 24.1126L143.77 30.0432L146.636 30.0666L149.501 30.0901V22.6258V15.1615H144.481H139.461V12.0962V9.03096H136.618H133.775V15.9073ZM151.455 11.473V13.9172H154.21H156.964V11.7945C156.964 9.94948 156.982 9.66481 157.103 9.61843C157.194 9.58324 157.233 9.47983 157.214 9.3199L157.186 9.07521L154.321 9.05175L151.455 9.0283V11.473ZM177.044 12.2764C177.044 14.9216 177.025 15.3518 176.91 15.3955C176.793 15.4408 176.777 16.3518 176.777 22.8561V30.2655H179.665H182.552V26.2321C182.552 22.7292 182.57 22.1924 182.686 22.1481C182.802 22.1033 182.819 21.2989 182.819 15.653V9.20848H179.931H177.044V12.2764ZM194.902 11.2518C194.902 12.5552 194.87 13.2956 194.813 13.2956C194.759 13.2956 194.724 13.6955 194.724 14.317V15.339H189.616H184.507V20.2701C184.507 24.6163 184.491 25.2011 184.372 25.2011C184.255 25.2011 184.241 25.5172 184.261 27.7109L184.285 30.2212L192.259 30.2436L200.233 30.2665V27.2007C200.233 24.5348 200.25 24.1349 200.366 24.1349C200.484 24.1349 200.499 23.2463 200.499 16.6717V9.20848H197.701H194.902V11.2518ZM49.9018 15.0724V18.36H47.0588H44.2159V15.0724V11.7849H47.0588H49.9018V15.0724ZM57.6316 19.077C57.6316 22.992 57.6135 23.6328 57.4983 23.7479C57.3858 23.8604 57.365 24.3098 57.365 26.6735V29.4658H61.2299C63.7477 29.4658 65.0948 29.4968 65.0948 29.5549C65.0948 29.6124 66.4275 29.6434 68.9155 29.6434H72.7361V29.4216C72.7361 29.283 72.7862 29.1993 72.8694 29.1993C72.9435 29.1993 73.0027 29.1204 73.0027 29.0218C73.0027 28.9237 73.0426 28.8437 73.0912 28.8437C73.1402 28.8437 73.1802 28.744 73.1802 28.622C73.1802 28.4999 73.2202 28.3997 73.2692 28.3997C73.3177 28.3997 73.3577 28.3 73.3577 28.1774C73.3577 28.0393 73.4083 27.9556 73.491 27.9556C73.5741 27.9556 73.6242 27.8714 73.6242 27.7333C73.6242 27.6112 73.6642 27.511 73.7133 27.511C73.7623 27.511 73.8023 27.3313 73.8023 27.1112V26.7114H68.4714H63.1405V25.4234V24.1349H68.2491H73.3577V19.4262V14.7169H68.9208C66.0586 14.7169 64.4642 14.6854 64.4285 14.6284C64.3938 14.5713 63.1544 14.5393 61.0028 14.5393H57.6316V19.077ZM75.7566 20.5718C75.7566 25.7342 75.7406 26.432 75.6212 26.4779C75.506 26.5221 75.4895 26.7567 75.5103 28.0643L75.5348 29.5991L82.9757 29.622L90.4165 29.6444V29.3331C90.4165 29.1156 90.4571 29.0218 90.5498 29.0218C90.633 29.0218 90.6831 28.9375 90.6831 28.7995C90.6831 28.6774 90.7231 28.5772 90.7721 28.5772C90.8212 28.5772 90.8611 28.4818 90.8611 28.3645C90.8611 28.2477 90.9209 28.1288 90.9944 28.1011C91.0675 28.0729 91.1277 27.9684 91.1277 27.8692C91.1277 27.7701 91.1677 27.6891 91.2162 27.6891C91.2652 27.6891 91.3052 27.5488 91.3052 27.3777C91.3052 27.2066 91.3452 27.0669 91.3942 27.0669C91.4427 27.0669 91.4827 26.987 91.4827 26.8894C91.4827 26.7135 91.4236 26.7114 86.3741 26.7114H81.2655V22.3454C81.2655 18.2918 81.2767 17.9714 81.4207 17.8616C81.5454 17.7672 82.4842 17.7432 86.13 17.7405C90.117 17.7384 90.6831 17.7214 90.6831 17.6046C90.6831 17.531 90.7231 17.4713 90.7721 17.4713C90.8212 17.4713 90.8611 17.3311 90.8611 17.1605C90.8611 16.943 90.9011 16.8492 90.9944 16.8492C91.077 16.8492 91.1277 16.7655 91.1277 16.6275C91.1277 16.5054 91.1677 16.4052 91.2162 16.4052C91.2652 16.4052 91.3052 16.265 91.3052 16.0944C91.3052 15.9232 91.3452 15.783 91.3942 15.783C91.4433 15.783 91.4827 15.5463 91.4827 15.25V14.7169H83.6197H75.7566V20.5718ZM151.455 15.5959C151.455 15.9003 151.415 16.0459 151.322 16.0821C151.205 16.1269 151.189 16.9905 151.189 23.1103V30.088H153.987H156.786V28.4887C156.786 27.4817 156.819 26.8894 156.875 26.8894C156.933 26.8894 156.964 24.8754 156.964 21.0254V15.1615H154.21H151.455V15.5959ZM158.711 15.2206C158.679 15.2531 158.652 18.6116 158.652 22.6839V30.088H166.337H174.023V29.8657C174.023 29.7436 174.062 29.6434 174.11 29.6434C174.158 29.6434 174.222 29.5437 174.253 29.4216C174.284 29.2995 174.344 29.1993 174.388 29.1993C174.431 29.1993 174.467 29.0591 174.467 28.8885C174.467 28.7174 174.507 28.5772 174.556 28.5772C174.605 28.5772 174.645 28.4775 174.645 28.3554C174.645 28.2168 174.695 28.1331 174.778 28.1331C174.851 28.1331 174.911 28.0553 174.911 27.9609C174.911 27.866 174.951 27.7637 175 27.7333C175.049 27.7029 175.089 27.6006 175.089 27.5057C175.089 27.3377 174.986 27.3335 170.824 27.3335C167.093 27.3335 166.56 27.317 166.56 27.2002C166.56 27.0888 166.372 27.0669 165.405 27.0669H164.249V25.8232V24.579H167.848C170.187 24.579 171.446 24.6105 171.446 24.668C171.446 24.724 172.009 24.7571 172.957 24.7571H174.467V20.0478C174.467 15.9216 174.451 15.339 174.334 15.339C174.26 15.339 174.201 15.299 174.201 15.25C174.201 15.1497 158.811 15.1204 158.711 15.2206ZM67.6718 19.3371V20.9364H65.4061H63.1405V19.3371V17.7379H65.4061H67.6718V19.3371ZM168.959 19.1148C168.959 19.7268 168.933 19.8702 168.825 19.8702C168.716 19.8702 168.692 20.0232 168.692 20.7141V21.5585H166.56H164.427V19.9593V18.36H166.693H168.959V19.1148ZM194.724 22.8465V27.3335H192.37H190.016V23.0784C190.016 19.3777 190.033 18.8163 190.149 18.7721C190.222 18.7438 190.282 18.6393 190.282 18.5402C190.282 18.3637 190.33 18.36 192.503 18.36H194.724V22.8465Z" fill="white"/>
</g>
<defs>
<clipPath id="clip0_1921_3254">
<rect width="201" height="41" fill="white"/>
</clipPath>
</defs>
</svg>
