<svg width="200" height="41" viewBox="0 0 200 41" fill="none" xmlns="http://www.w3.org/2000/svg">
<path fill-rule="evenodd" clip-rule="evenodd" d="M27.8478 7.72331C26.6516 8.60344 26.432 8.77723 25.772 9.36949C24.7047 10.3264 23.645 11.4224 22.8363 12.4054C22.6161 12.6725 22.3789 12.9524 22.309 13.027C22.2392 13.1011 21.9087 13.5297 21.575 13.9796C20.8382 14.9723 20.875 14.9483 20.3638 14.7638C19.691 14.5218 19.6692 14.5117 17.822 13.6091C15.4205 12.4358 14.7306 12.286 13.5008 12.6688C12.4544 12.9945 11.7763 13.6129 11.1579 14.8059C10.8215 15.4547 10.6978 15.5864 10.2218 15.7991C8.62305 16.5145 6.60531 17.5204 6.00452 17.9026C5.47409 18.2401 5.33762 18.2486 5.06788 17.9613C4.40205 17.2528 2.40137 18.093 2.40137 19.0818C2.40137 20.4609 3.60668 20.4727 4.87917 19.1058C5.44744 18.4954 5.50128 18.4619 6.53281 18.0706C11.0251 16.3679 12.1414 16.2367 13.1575 17.2928C13.455 17.602 13.5173 17.7464 13.8836 18.9816C13.9347 19.1527 14.0056 19.3729 14.0419 19.4705C14.0781 19.568 14.2178 19.9481 14.3522 20.3143C15.2403 22.7367 16.6162 24.1942 18.5273 24.7368C20.8772 25.4043 21.648 25.7449 22.0436 26.2913C22.5596 27.0035 22.3389 27.8544 21.3154 29.0943C21.1837 29.2537 21.2727 29.3198 21.4726 29.2111C21.5627 29.162 22.2163 28.8342 22.9253 28.4823C25.8717 27.0206 27.0765 26.1298 26.989 25.4768C26.8931 24.7608 26.1046 23.0054 25.4468 22.041C25.0763 21.4994 25.1131 21.3331 25.6185 21.2568C26.4309 21.1342 28.7344 20.4828 29.2014 20.2434C29.292 20.1971 29.6667 20.0078 30.033 19.8234C30.8811 19.3964 31.5336 18.9832 32.2224 18.4368C32.5225 18.199 32.8322 18.0045 32.9111 18.0045C32.9895 18.0045 33.054 17.9442 33.054 17.8712C33.054 17.7976 33.094 17.7379 33.1425 17.7379C33.2011 17.7379 33.2315 15.943 33.2315 12.5307V7.32349L33.0081 7.37947C32.8088 7.42958 31.5475 8.22974 30.0959 9.22662C29.4503 9.67068 29.4204 9.65576 29.1161 8.7527C28.7296 7.60603 28.592 7.25366 28.5329 7.25686C28.5025 7.25899 28.1943 7.46849 27.8478 7.72331Z" fill="#121620"/>
<path fill-rule="evenodd" clip-rule="evenodd" d="M15.2403 0.590067C15.21 0.639112 14.9903 0.679093 14.7515 0.679093C14.5132 0.679093 14.293 0.719075 14.2632 0.768119C14.2328 0.81663 14.0308 0.856612 13.8133 0.856612C13.5222 0.856612 13.4188 0.891796 13.4188 0.989884C13.4188 1.09064 13.3106 1.12316 12.9747 1.12316C12.7306 1.12316 12.5307 1.16314 12.5307 1.21218C12.5307 1.26123 12.4091 1.30121 12.2609 1.30121C12.1037 1.30121 11.9704 1.35665 11.9405 1.43448C11.9091 1.51658 11.7742 1.56775 11.5882 1.56775C11.4224 1.56775 11.2864 1.60773 11.2864 1.65625C11.2864 1.70529 11.1468 1.74527 10.9756 1.74527C10.8045 1.74527 10.6648 1.78525 10.6648 1.8343C10.6648 1.88281 10.5236 1.92279 10.3509 1.92279C10.1541 1.92279 10.0182 1.97237 9.98622 2.05606C9.95424 2.13869 9.81937 2.18933 9.63332 2.18933C9.46753 2.18933 9.33212 2.22505 9.33212 2.26823C9.33212 2.31194 9.19192 2.37378 9.0208 2.40577C8.84968 2.43775 8.71001 2.50226 8.71001 2.54917C8.71001 2.59555 8.61032 2.63393 8.48771 2.63393C8.36563 2.63393 8.26595 2.67391 8.26595 2.72242C8.26595 2.77147 8.12574 2.81145 7.95462 2.81145C7.7835 2.81145 7.64383 2.84717 7.64383 2.89035C7.64383 2.93406 7.50416 2.99537 7.33304 3.02788C7.16192 3.05987 7.02172 3.12437 7.02172 3.17075C7.02172 3.21766 6.92203 3.25551 6.79995 3.25551C6.67787 3.25551 6.57765 3.29549 6.57765 3.34454C6.57765 3.39358 6.48276 3.43356 6.36655 3.43356C6.25034 3.43356 6.10534 3.49327 6.04456 3.56684C5.98379 3.63987 5.84199 3.70011 5.73004 3.70011C5.61809 3.70011 5.51307 3.73689 5.49655 3.78274C5.48056 3.82805 5.34728 3.87816 5.20068 3.89362C5.05408 3.90908 4.8787 3.97412 4.81153 4.03809C4.74383 4.10206 4.63401 4.13351 4.56737 4.10739C4.49807 4.08127 4.4453 4.11752 4.4453 4.19162C4.4453 4.26945 4.36053 4.32169 4.23313 4.32169C4.11691 4.32169 3.90954 4.3798 3.77307 4.4507C3.6366 4.5216 3.49107 4.55838 3.45002 4.53279C3.40844 4.50721 3.38552 4.53919 3.39938 4.60423C3.41697 4.68952 3.27197 4.72897 2.86842 4.74816C2.56296 4.76256 2.31294 4.81267 2.31294 4.85904C2.31294 4.90596 2.16314 4.94487 1.97976 4.94647C1.79638 4.94807 1.57088 5.00671 1.47812 5.07708C1.38537 5.14745 1.27555 5.1837 1.23343 5.15757C1.19185 5.13199 1.15774 5.15438 1.15774 5.20768C1.15774 5.26099 1.0879 5.33136 1.00261 5.36388C0.812294 5.43585 0.624647 5.6139 0.624647 5.72212C0.624647 5.76636 0.524959 5.85592 0.402882 5.92096C0.263213 5.99559 0.180584 6.11713 0.180584 6.24721C0.180584 6.36129 0.140602 6.45405 0.091558 6.45405C-0.0305193 6.45405 -0.0305193 16.7293 0.091558 16.805C0.1454 16.8381 0.180584 17.4847 0.180584 18.4464C0.180584 19.3495 0.216301 20.0462 0.263746 20.0627C0.309058 20.0793 0.356503 20.5463 0.369297 21.1012C0.385823 21.8347 0.423672 22.1221 0.508433 22.1546C0.590529 22.186 0.624647 22.4009 0.624647 22.8828C0.624647 23.2586 0.662496 23.6046 0.708342 23.651C0.754721 23.6973 0.801633 23.9436 0.813361 24.1979C0.826155 24.4842 0.878931 24.6782 0.951431 24.7065C1.01807 24.7321 1.06924 24.8867 1.06924 25.0653C1.06924 25.2374 1.10923 25.3787 1.15774 25.3787C1.20678 25.3787 1.24676 25.4555 1.24676 25.5493C1.24676 25.7417 1.52237 26.2658 1.62419 26.2668C1.66097 26.2674 1.69083 26.3239 1.69083 26.3932C1.69083 26.552 1.97923 27.0659 2.06879 27.0665C2.10504 27.067 2.13542 27.1096 2.13542 27.1624C2.13542 27.2147 2.185 27.3133 2.2463 27.381C2.51338 27.679 2.58268 27.7776 2.52404 27.7776C2.48993 27.7776 2.6184 27.9279 2.80925 28.1119C3.00062 28.2958 3.21706 28.5655 3.29009 28.7116C3.42816 28.9861 3.59822 29.1994 3.67925 29.1994C3.74802 29.1994 4.31096 29.7916 4.50234 30.0646C4.59296 30.1941 4.77261 30.4111 4.90109 30.5454C5.02956 30.6803 5.11272 30.8125 5.08607 30.8391C5.05941 30.8658 5.10153 30.8876 5.17989 30.8876C5.25772 30.8876 5.41339 31.0172 5.52533 31.1761C5.72524 31.4602 6.63363 32.3979 6.70879 32.3979C6.78769 32.3979 7.24028 32.8894 7.22056 32.9534C7.20883 32.9896 7.25947 33.02 7.33304 33.02C7.40607 33.02 7.46631 33.0824 7.46631 33.1586C7.46631 33.2343 7.50096 33.2754 7.54308 33.2492C7.58572 33.2231 7.71153 33.3207 7.82295 33.4662C7.93436 33.6117 8.0799 33.7306 8.146 33.7306C8.21157 33.7306 8.26595 33.7706 8.26595 33.8196C8.26595 33.8681 8.30859 33.9081 8.36084 33.9081C8.48398 33.9081 8.71001 34.1342 8.71001 34.2573C8.71001 34.3095 8.75532 34.3527 8.81076 34.3527C8.91685 34.3527 9.33159 34.7941 9.33159 34.9077C9.33212 34.9445 9.36944 34.9743 9.41582 34.9743C9.46166 34.9743 9.68183 35.1545 9.90466 35.3741C10.128 35.5943 10.3525 35.7739 10.4036 35.7739C10.4553 35.7739 10.4745 35.8113 10.4463 35.8566C10.4186 35.9019 10.4841 35.9669 10.5923 36.0016C10.8226 36.0746 11.0199 36.2537 11.0199 36.3897C11.0199 36.4419 11.0652 36.4851 11.1206 36.4851C11.1761 36.4851 11.3531 36.6248 11.5146 36.7959C11.6756 36.967 11.8408 37.1067 11.8814 37.1067C11.9219 37.1067 12.0301 37.2069 12.1218 37.329C12.214 37.451 12.343 37.5513 12.4096 37.5513C12.4763 37.5513 12.5307 37.5912 12.5307 37.6398C12.5307 37.6888 12.5904 37.7288 12.6639 37.7288C12.737 37.7288 12.7972 37.7704 12.7972 37.8215C12.7972 37.9617 13.2146 38.3509 13.3644 38.3509C13.4369 38.3509 13.5211 38.4303 13.5521 38.5284C13.583 38.626 13.7056 38.7299 13.8245 38.7598C13.9433 38.7896 14.0409 38.8701 14.0409 38.9378C14.0409 39.0061 14.1033 39.0615 14.1795 39.0615C14.2557 39.0615 14.293 39.1015 14.2632 39.1505C14.2328 39.199 14.2707 39.239 14.3464 39.239C14.4226 39.239 14.485 39.279 14.485 39.328C14.485 39.3771 14.5457 39.4171 14.6204 39.4171C14.6945 39.4171 14.8011 39.5168 14.8565 39.6388C14.9125 39.7614 15.0218 39.8611 15.1001 39.8611C15.178 39.8611 15.3614 40.0003 15.508 40.1703C15.654 40.3404 15.8235 40.4801 15.8843 40.4811C15.9456 40.4822 15.9957 40.5456 15.9957 40.6219C15.9957 40.6976 16.0299 40.7391 16.0714 40.7135C16.113 40.6874 16.2228 40.7237 16.3156 40.794C16.5651 40.9828 16.6584 40.9588 17.0113 40.6165C17.1872 40.4454 17.3732 40.3052 17.4239 40.3052C17.4751 40.3052 17.4942 40.2695 17.4671 40.2258C17.4191 40.1479 17.6643 39.9971 17.7949 40.0248C17.8312 40.0323 17.8567 40.0088 17.8509 39.972C17.8226 39.795 17.8701 39.6783 17.95 39.7279C17.9991 39.7583 18.0391 39.7439 18.0391 39.6959C18.0391 39.6484 17.989 39.5893 17.9282 39.5647C17.8669 39.5397 17.8568 39.5168 17.9058 39.513C17.9644 39.5082 17.9863 36.9974 17.9703 32.1207L17.9463 24.7353L18.1926 24.7944C18.328 24.827 18.5988 24.8947 18.7945 24.9453C18.9896 24.9954 19.2897 25.0535 19.4608 25.0743C19.7737 25.1127 19.633 25.0626 18.5279 24.7395C16.5992 24.1766 15.2409 22.7367 14.3528 20.3144C14.2184 19.9481 14.0777 19.568 14.0393 19.4705C14.0009 19.3729 13.9018 19.0531 13.8186 18.7599C13.543 17.7854 13.4657 17.6153 13.1522 17.288C12.1452 16.2368 11.0194 16.37 6.53341 18.0706C5.50188 18.4619 5.44804 18.4955 4.87976 19.1059C3.60728 20.4727 2.40197 20.461 2.40197 19.0819C2.40197 18.093 4.40265 17.2528 5.06848 17.9613C5.33822 18.2486 5.47469 18.2401 6.00512 17.9027C6.60591 17.5204 8.62365 16.5145 10.2224 15.7991C10.6984 15.5864 10.8221 15.4547 11.1585 14.806C11.7769 13.6129 12.455 12.9945 13.5014 12.6688C14.7334 12.2855 15.4429 12.4401 17.7741 13.6001C18.7182 14.0703 19.528 14.4429 19.5733 14.428C19.6181 14.4131 19.5413 14.3475 19.4022 14.2819C19.2636 14.2169 19.0898 14.1289 19.0162 14.0863C18.9432 14.0442 18.7198 13.9306 18.5199 13.8347C17.9074 13.5393 17.9458 14.0127 17.9714 7.05484C17.989 2.18027 17.9698 0.67856 17.8871 0.601795C17.7501 0.473321 15.3192 0.463192 15.2403 0.590067ZM27.5904 7.83901L27.3239 8.06824L27.6123 7.87686C27.7711 7.77184 27.9012 7.66896 27.9012 7.64763C27.9012 7.581 27.8634 7.60445 27.5904 7.83901ZM31.8551 7.97069C31.7085 8.06451 31.6339 8.14181 31.6899 8.14181C31.7453 8.14234 31.885 8.06344 32.0007 7.96749C32.2645 7.74732 32.2011 7.74892 31.8551 7.97069ZM26.8793 8.37796C26.6117 8.61679 26.5919 8.64984 26.7983 8.51177C27.044 8.34758 27.3532 8.04852 27.2679 8.05705C27.2498 8.05864 27.0749 8.20311 26.8793 8.37796ZM29.8561 9.29754C29.598 9.49905 29.445 9.52037 29.3816 9.36418C29.3464 9.27675 29.3352 9.27782 29.3299 9.36685C29.3166 9.58488 29.5799 9.57688 29.9152 9.34925C30.1007 9.22291 30.2132 9.12056 30.1652 9.12162C30.1173 9.12269 29.9781 9.20159 29.8561 9.29754ZM25.3648 9.67497L25.0135 10.0524L25.3914 9.70162C25.7422 9.37484 25.8099 9.29754 25.7422 9.29754C25.7278 9.29754 25.5583 9.46707 25.3648 9.67497ZM23.8092 11.23L23.5032 11.5632L23.8364 11.2566C24.0198 11.0882 24.1696 10.9384 24.1696 10.9235C24.1696 10.8558 24.0944 10.9197 23.8092 11.23ZM21.6539 13.7472C21.5164 13.9386 21.4215 14.0953 21.4434 14.0953C21.5047 14.0953 21.9706 13.4658 21.9349 13.4306C21.9178 13.4135 21.7915 13.5559 21.6539 13.7472ZM21.1486 14.4504C21.0446 14.597 20.9791 14.7169 21.0036 14.7169C21.0276 14.7169 21.1331 14.597 21.2376 14.4504C21.3421 14.3038 21.4077 14.1838 21.3831 14.1838C21.3586 14.1838 21.2531 14.3038 21.1486 14.4504ZM31.2799 19.1197C31.1104 19.2391 31.0102 19.3372 31.0576 19.3367C31.1051 19.3367 31.2639 19.2381 31.4105 19.1176C31.7528 18.8372 31.6781 18.8382 31.2799 19.1197ZM30.1892 19.7434C29.8571 19.9236 29.8774 19.9988 30.2111 19.8261C30.3577 19.7498 30.4776 19.6693 30.4776 19.6459C30.4776 19.5888 30.468 19.592 30.1892 19.7434ZM29.106 20.2728C28.8842 20.4407 28.9663 20.4396 29.2904 20.2706C29.4306 20.1976 29.485 20.139 29.4115 20.14C29.3384 20.1416 29.2009 20.2013 29.106 20.2728ZM26.3462 21.114C26.2342 21.1625 26.2177 21.1908 26.3019 21.1908C26.375 21.1908 26.5152 21.1561 26.6127 21.114C26.7247 21.066 26.7412 21.0378 26.6575 21.0378C26.584 21.0378 26.4443 21.0724 26.3462 21.114ZM25.1985 21.4392C25.1478 21.5703 25.5183 22.2692 25.6383 22.2692C25.6628 22.2692 25.5737 22.105 25.441 21.904C25.2064 21.5495 25.2043 21.5346 25.3674 21.4152C25.5055 21.3144 25.5103 21.292 25.3957 21.292C25.3179 21.292 25.2294 21.3582 25.1985 21.4392ZM25.8131 22.6248C25.8893 22.7714 25.9709 22.8913 25.9954 22.8913C26.0199 22.8913 25.9778 22.7714 25.9021 22.6248C25.8264 22.4782 25.7443 22.3582 25.7198 22.3582C25.6953 22.3582 25.7374 22.4782 25.8131 22.6248ZM26.6074 26.2898L26.3462 26.5782L26.6351 26.3175C26.794 26.1741 26.9241 26.044 26.9241 26.0285C26.9241 25.9598 26.8505 26.0205 26.6074 26.2898ZM21.8496 28.2441C21.792 28.3544 21.5868 28.6337 21.3943 28.8656C21.0196 29.3172 21.0953 29.5491 21.5196 29.2516C21.6305 29.1743 21.6806 29.1103 21.6305 29.1103C21.5804 29.1103 21.4924 29.1578 21.4343 29.2159C21.2968 29.3534 21.1912 29.2457 21.316 29.0943C21.7872 28.5234 22.0985 28.0442 21.9989 28.0442C21.9749 28.0442 21.9072 28.1342 21.8496 28.2441Z" fill="#BAC3DA"/>
<path fill-rule="evenodd" clip-rule="evenodd" d="M19.3706 0.995237C19.3706 1.08053 19.4132 1.10985 19.4815 1.07094C19.5705 1.02083 19.5705 1.03255 19.4815 1.12798C19.3391 1.28204 19.3173 14.0954 19.4596 14.0954C19.5081 14.0954 19.5481 14.1551 19.5481 14.2286C19.5481 14.3118 19.6323 14.3619 19.7715 14.3619C19.8946 14.3619 20.0641 14.3966 20.1494 14.4387C20.4533 14.5901 20.8808 14.7004 20.8808 14.6269C20.8808 14.5858 20.9331 14.4994 20.9965 14.4349C21.0599 14.3699 21.2428 14.1252 21.4032 13.8907C21.5637 13.6561 21.802 13.3544 21.9321 13.22C22.0627 13.0857 22.2876 12.8176 22.4326 12.6246C22.5771 12.4316 22.817 12.1528 22.9657 12.0051C23.1139 11.8569 23.34 11.5973 23.4679 11.4273C23.751 11.0514 25.4595 9.35674 25.7676 9.14617C25.8897 9.06247 26.0934 8.89188 26.2192 8.76767C26.3455 8.64293 26.5955 8.44089 26.7741 8.31935C26.9527 8.1978 27.0993 8.06773 27.0998 8.03148C27.0998 7.9947 27.1601 7.96484 27.2336 7.96484C27.3067 7.96484 27.3669 7.93446 27.3669 7.89714C27.3669 7.86036 27.6287 7.65245 27.949 7.43495L28.5312 7.04047L28.7455 7.30275C28.8633 7.44668 28.9614 7.65245 28.963 7.7596C28.9646 7.86675 29.0062 7.9787 29.0552 8.00909C29.1037 8.03947 29.1437 8.17914 29.1437 8.31988C29.1437 8.46115 29.181 8.59869 29.2258 8.62694C29.2711 8.65466 29.3335 8.79433 29.3649 8.93666C29.4502 9.32688 29.6096 9.41804 29.8356 9.20694C29.9401 9.10992 30.0436 9.03102 30.0659 9.03102C30.0883 9.03102 30.6198 8.68611 31.2467 8.26444C32.5789 7.36885 32.9222 7.16521 33.1003 7.16521C33.249 7.16521 33.2831 6.76379 33.1419 6.67637C33.0934 6.64598 33.0534 6.54256 33.0534 6.44607C33.0534 6.34958 32.9931 6.24776 32.9201 6.22004C32.8465 6.19179 32.7868 6.11023 32.7868 6.03879C32.7868 5.89166 32.5768 5.65444 32.4472 5.65444C32.3998 5.65444 32.3385 5.59473 32.3102 5.52116C32.282 5.44813 32.1978 5.38789 32.1231 5.38789C32.0485 5.38789 31.9872 5.35591 31.9872 5.31646C31.9872 5.20771 31.3368 4.94383 31.0687 4.94383C30.9386 4.94383 30.832 4.90385 30.832 4.8548C30.832 4.80576 30.598 4.76631 30.3085 4.76631C29.9252 4.76631 29.7711 4.73059 29.7338 4.63304C29.704 4.55521 29.5707 4.49976 29.4134 4.49976C29.2652 4.49976 29.1437 4.45978 29.1437 4.41074C29.1437 4.36169 29.0483 4.32171 28.931 4.32171C28.8142 4.32171 28.6954 4.26201 28.6676 4.18844C28.6378 4.11061 28.5045 4.05517 28.3473 4.05517C28.1991 4.05517 28.0775 4.01519 28.0775 3.96668C28.0775 3.91763 28.0002 3.87765 27.9053 3.87765C27.8104 3.87765 27.7081 3.83767 27.6777 3.78862C27.6478 3.74011 27.4853 3.70013 27.3173 3.70013C27.1046 3.70013 27.0113 3.65908 27.0113 3.56686C27.0113 3.4837 26.9276 3.43359 26.7896 3.43359C26.6675 3.43359 26.5673 3.3936 26.5673 3.34456C26.5673 3.29552 26.4271 3.25553 26.2565 3.25553C26.039 3.25553 25.9452 3.21555 25.9452 3.12226C25.9452 3.04017 25.862 2.98899 25.7287 2.98899C25.6093 2.98899 25.4867 2.94901 25.4569 2.9005C25.4265 2.85145 25.2841 2.81147 25.1402 2.81147C24.9968 2.81147 24.879 2.77149 24.879 2.72245C24.879 2.67393 24.7393 2.63395 24.5682 2.63395C24.3512 2.63395 24.2574 2.59344 24.2574 2.50068C24.2574 2.40739 24.1636 2.36741 23.9461 2.36741C23.775 2.36741 23.6353 2.32743 23.6353 2.27838C23.6353 2.22934 23.5404 2.18936 23.4242 2.18936C23.308 2.18936 23.1667 2.13392 23.1102 2.06568C23.0137 1.94947 22.8287 1.89349 22.1469 1.77568C21.988 1.74849 21.8585 1.69039 21.8585 1.64667C21.8585 1.60296 21.7226 1.56777 21.5568 1.56777C21.3707 1.56777 21.2359 1.5166 21.2044 1.4345C21.1703 1.34654 21.0311 1.30123 20.795 1.30123C20.5977 1.30123 20.4368 1.26125 20.4368 1.2122C20.4368 1.16316 20.3013 1.12318 20.135 1.12318C19.9495 1.12318 19.8141 1.07254 19.7827 0.989906C19.7144 0.812388 19.3706 0.816652 19.3706 0.995237ZM32.7719 18.1607C32.7554 18.1975 32.5624 18.3665 32.3422 18.536C32.1226 18.7055 31.9227 18.8697 31.8982 18.9012C31.8736 18.9326 31.6327 19.0936 31.3629 19.2589C31.0932 19.4241 30.7931 19.6075 30.6966 19.6667C30.1992 19.9711 28.6565 20.67 28.4816 20.67C28.4048 20.67 28.2726 20.7046 28.1873 20.7467C27.8707 20.905 27.401 21.0506 27.078 21.0911C26.8951 21.114 26.7448 21.1684 26.7448 21.2126C26.7448 21.2563 26.595 21.2926 26.4116 21.2931C26.2288 21.2942 25.9292 21.3464 25.7469 21.4099C25.3945 21.533 25.226 21.6471 25.3977 21.6471C25.4542 21.6471 25.5011 21.694 25.5011 21.7516C25.5011 21.8086 25.5571 21.9184 25.6253 21.9957C25.8076 22.201 26.2528 23.0139 26.4804 23.5577C26.6835 24.0428 26.8589 24.4437 26.9356 24.6004C26.9772 24.6852 27.0113 24.8552 27.0113 24.9778C27.0113 25.1005 27.0513 25.2012 27.1004 25.2012C27.5892 25.2012 26.7277 26.6528 26.1253 26.8442C26.0267 26.8756 25.9452 26.9385 25.9452 26.9844C25.9452 27.0297 25.8887 27.067 25.8194 27.067C25.7501 27.067 25.6802 27.0969 25.6642 27.1337C25.6312 27.2072 24.912 27.6891 24.8347 27.6891C24.8086 27.6891 24.6284 27.7888 24.4349 27.9109C24.2414 28.0335 24.0255 28.1332 23.9557 28.1332C23.8853 28.1332 23.8144 28.163 23.7984 28.1998C23.759 28.2889 21.9315 29.2042 21.7993 29.2015C21.7423 29.2004 21.682 29.2292 21.6661 29.266C21.6143 29.3817 21.0466 29.6466 20.9618 29.5944C20.7897 29.4878 20.9043 29.2244 21.3281 28.7553C21.5706 28.4866 21.7695 28.2164 21.7695 28.1556C21.7695 28.0943 21.7999 28.0442 21.8366 28.0442C21.9086 28.0442 22.1085 27.5271 22.1842 27.1454C22.2605 26.761 21.5386 25.8233 21.1671 25.8233C21.1191 25.8233 21.0306 25.7631 20.9698 25.6901C20.9091 25.6165 20.7465 25.5568 20.6089 25.5568C20.4709 25.5568 20.3339 25.5168 20.3035 25.4678C20.2731 25.4187 20.111 25.3787 19.9426 25.3787C19.7747 25.3787 19.6371 25.3387 19.6371 25.2902C19.6371 25.2412 19.5758 25.2012 19.5006 25.2012C19.3791 25.2012 19.3674 25.9235 19.3898 31.8648C19.4036 35.5298 19.385 38.5284 19.3482 38.5284C19.3119 38.5284 19.2815 38.5913 19.2815 38.6681C19.2815 38.7923 19.2965 38.7928 19.4148 38.6745C19.4884 38.6009 19.5481 38.498 19.5481 38.4458C19.5481 38.3936 19.5993 38.3509 19.6622 38.3509C19.7245 38.3509 19.8333 38.271 19.9037 38.1729C19.974 38.0753 20.0732 37.9953 20.1238 37.9953C20.175 37.9953 20.3243 37.8957 20.4559 37.773C20.5876 37.651 20.7374 37.5513 20.7881 37.5513C20.8392 37.5513 20.8808 37.506 20.8808 37.4505C20.8808 37.3439 21.3227 36.9297 21.4363 36.9292C21.4731 36.9292 21.5029 36.8865 21.5029 36.8337C21.5029 36.7165 21.7268 36.4851 21.8409 36.4851C21.8873 36.4851 22.0776 36.3449 22.2642 36.1738C22.4513 36.0027 22.6357 35.863 22.6752 35.863C22.7146 35.863 22.7466 35.8027 22.7466 35.7297C22.7466 35.6562 22.7898 35.5964 22.8421 35.5964C22.9652 35.5964 23.1912 35.3704 23.1912 35.2473C23.1912 35.195 23.2328 35.1524 23.284 35.1524C23.4045 35.1524 23.8128 34.7435 23.8128 34.623C23.8128 34.5718 23.873 34.5303 23.9461 34.5303C24.0196 34.5303 24.0794 34.4903 24.0794 34.4412C24.0794 34.3927 24.1407 34.3527 24.2158 34.3527C24.2905 34.3527 24.3747 34.2925 24.4029 34.2195C24.4307 34.1459 24.4877 34.0862 24.5293 34.0862C24.6348 34.0862 25.5469 33.1677 25.5219 33.0867C25.5102 33.0499 25.5437 33.02 25.596 33.02C25.6482 33.02 26.0075 32.7002 26.3951 32.3089C26.7821 31.9181 27.1393 31.5983 27.1883 31.5983C27.2379 31.5983 27.2779 31.5631 27.2779 31.5204C27.2779 31.4778 27.698 31.0119 28.2108 30.4857C28.7242 29.959 29.1437 29.4547 29.1437 29.3641C29.1437 29.2735 29.1858 29.1994 29.237 29.1994C29.3351 29.1994 30.2099 28.3587 30.2099 28.2643C30.2099 28.2339 30.26 28.1535 30.3213 28.0858C30.5511 27.8288 30.6545 27.695 30.6545 27.6529C30.6545 27.6289 30.7542 27.5015 30.8762 27.3698C30.9988 27.2376 31.0985 27.0942 31.0985 27.0505C31.0985 27.0068 31.1801 26.8831 31.2803 26.776C31.4866 26.5542 31.7206 26.1165 31.7206 25.9523C31.7206 25.8916 31.7804 25.8191 31.8539 25.7908C31.927 25.7631 31.9872 25.6586 31.9872 25.5594C31.9872 25.4603 32.0272 25.3787 32.0757 25.3787C32.1247 25.3787 32.1647 25.2391 32.1647 25.0679C32.1647 24.8968 32.2047 24.7571 32.2537 24.7571C32.3022 24.7571 32.3422 24.5743 32.3422 24.3509C32.3422 24.1084 32.3961 23.8909 32.4755 23.8114C32.5667 23.7203 32.6088 23.4964 32.6088 23.1067C32.6088 22.7852 32.6477 22.5358 32.6978 22.5358C32.7511 22.5358 32.7868 22.1781 32.7868 21.6407C32.7868 20.9642 32.8193 20.7137 32.9201 20.6129C33.1104 20.4221 33.1173 18.0935 32.9276 18.0935C32.8583 18.0935 32.7879 18.1234 32.7719 18.1607ZM18.9772 38.8456C18.8231 38.9997 18.8023 39.0615 18.9052 39.0615C18.942 39.0615 19.0225 38.9816 19.0832 38.884C19.2165 38.6708 19.1691 38.6537 18.9772 38.8456ZM17.6519 40.0237C17.4898 40.2029 17.4541 40.3473 17.5933 40.2615C17.686 40.2039 17.8913 39.8612 17.8326 39.8612C17.814 39.8612 17.7329 39.9342 17.6519 40.0237Z" fill="#BAC3DA"/>
<path fill-rule="evenodd" clip-rule="evenodd" d="M18.0085 0.738403C17.9759 0.770921 17.9493 3.64374 17.9493 7.12161C17.9493 14.1776 17.8896 13.5304 18.5714 13.8609C18.7425 13.9436 18.9424 14.0438 19.0155 14.0838C19.5182 14.3578 19.5486 14.3658 19.5486 14.2293C19.5486 14.1557 19.5086 14.0955 19.4601 14.0955C19.3177 14.0955 19.3396 1.28215 19.4819 1.12809C19.5709 1.03267 19.5709 1.02094 19.4819 1.07105C19.4147 1.10943 19.371 1.08171 19.371 1.00068C19.371 0.909524 19.2937 0.873807 19.1269 0.887668C18.9925 0.898862 18.8294 0.856749 18.7649 0.793844C18.6423 0.674432 18.1113 0.635517 18.0085 0.738403ZM27.9372 7.44306C27.6483 7.64457 27.3983 7.84448 27.3823 7.88713C27.3658 7.92977 27.2959 7.96496 27.2266 7.96496C27.1573 7.96496 27.1003 7.99481 27.1003 8.03159C27.0998 8.06784 26.9532 8.19792 26.7746 8.31946C26.596 8.44101 26.346 8.64305 26.2196 8.76779C26.0938 8.892 25.8902 9.06259 25.7681 9.14628C25.46 9.35685 23.7514 11.0515 23.4684 11.4274C23.3404 11.5974 23.1144 11.857 22.9662 12.0052C22.8175 12.1529 22.5776 12.4317 22.4331 12.6247C22.2881 12.8177 22.0631 13.0858 21.9325 13.2201C21.8025 13.3545 21.5642 13.6562 21.4037 13.8908C21.2432 14.1253 21.0604 14.37 20.997 14.4351C20.9335 14.4996 20.8813 14.5859 20.8813 14.627C20.8813 14.7005 20.4537 14.5902 20.1499 14.4388C20.0646 14.3967 19.9047 14.3642 19.7943 14.3663C19.6477 14.37 19.6893 14.4079 19.9484 14.5065C20.144 14.5806 20.3732 14.6787 20.458 14.724C20.7699 14.8898 20.9277 14.7992 21.3152 14.2309C21.529 13.9169 21.7699 13.588 21.851 13.5C21.9315 13.4121 22.2097 13.0799 22.4699 12.7628C24.196 10.6533 26.46 8.53003 28.0892 7.49211L28.5881 7.17439L28.7257 7.50277C28.8008 7.68349 28.924 7.99161 28.9986 8.18672C29.1202 8.50231 29.1356 8.51564 29.1399 8.30347C29.142 8.1718 29.1042 8.03959 29.0557 8.0092C29.0066 7.97882 28.9666 7.87487 28.9666 7.77838C28.9666 7.60406 28.6313 7.0763 28.5204 7.0763C28.489 7.0763 28.2267 7.24102 27.9372 7.44306ZM32.75 7.28154C32.6561 7.33964 32.0244 7.75705 31.3453 8.20911C30.6667 8.66117 30.092 9.03114 30.0685 9.03114C30.0445 9.03114 29.9406 9.11003 29.8361 9.20706C29.6101 9.41816 29.4507 9.327 29.3654 8.93678C29.3035 8.65637 29.1442 8.49218 29.1442 8.70968C29.1442 8.78272 29.1793 8.86428 29.2214 8.8904C29.2641 8.91706 29.3233 9.05939 29.3526 9.20706C29.415 9.51731 29.544 9.54077 29.8553 9.29768C29.9774 9.20172 30.1069 9.12283 30.1437 9.12176C30.1799 9.1207 30.4902 8.91972 30.8324 8.67557C31.1747 8.43141 31.4913 8.2315 31.5361 8.2315C31.5809 8.2315 31.6305 8.20112 31.647 8.16433C31.6875 8.07158 32.7809 7.37216 33.0538 7.26448C33.2388 7.19091 33.2463 7.17652 33.0981 7.17599C33.0005 7.17599 32.8438 7.22343 32.75 7.28154ZM32.6092 18.1923C32.4872 18.292 32.3064 18.4407 32.2078 18.5223C31.5766 19.0452 30.9081 19.4648 29.963 19.9296C29.705 20.0565 29.5136 20.1807 29.5381 20.2052C29.5792 20.2463 30.2898 19.9163 30.697 19.6668C30.7935 19.6076 31.0937 19.4242 31.3634 19.259C31.6331 19.0937 31.8741 18.9327 31.8986 18.9013C31.9231 18.8698 32.1231 18.7062 32.3427 18.5377C32.5629 18.3693 32.7628 18.2061 32.7873 18.1757C32.8113 18.1454 32.8912 18.0974 32.9648 18.0691C33.0831 18.0243 33.0831 18.018 32.9648 18.0148C32.8912 18.0126 32.7318 18.0921 32.6092 18.1923ZM29.1841 20.2985C29.1378 20.3385 28.8051 20.467 28.4447 20.5837C28.0849 20.7005 27.8386 20.8124 27.8983 20.8321C27.958 20.8524 28.0929 20.8284 28.1979 20.7794C28.3029 20.7303 28.561 20.6386 28.771 20.5757C29.1522 20.4611 29.5392 20.234 29.3622 20.2287C29.3105 20.2271 29.2305 20.2585 29.1841 20.2985ZM27.2783 20.9414C27.1563 20.983 26.8364 21.0752 26.5677 21.1472C26.097 21.273 26.0912 21.2778 26.4121 21.2847C26.5955 21.289 26.7453 21.2522 26.7453 21.2032C26.7453 21.1541 26.8753 21.1131 27.0342 21.1109C27.193 21.1093 27.4228 21.0507 27.5449 20.9809C27.7858 20.8433 27.6355 20.8209 27.2783 20.9414ZM25.3667 21.4153C25.2036 21.5347 25.2068 21.5513 25.4594 21.926C25.6028 22.1393 25.9099 22.6734 26.1413 23.1132C26.3726 23.553 26.5635 23.8627 26.5651 23.8009C26.5667 23.7391 26.5214 23.5989 26.4648 23.4896C26.4083 23.3803 26.3348 23.231 26.3017 23.158C26.1583 22.8435 25.7404 22.1249 25.6258 21.9959C25.5575 21.9186 25.5016 21.8119 25.5016 21.7586C25.5016 21.7059 25.4514 21.6435 25.3907 21.6206C25.3208 21.595 25.3459 21.5561 25.4573 21.5171C25.9462 21.346 26.0043 21.3044 25.7628 21.298C25.638 21.2948 25.4594 21.3476 25.3667 21.4153ZM26.613 24.0909C26.6461 24.1885 26.7394 24.4683 26.8204 24.7125C26.9356 25.0601 26.9739 25.1112 26.9974 24.9465C27.0134 24.8314 26.9835 24.6933 26.9308 24.64C26.8775 24.5872 26.8343 24.4795 26.8343 24.4012C26.8343 24.3223 26.7708 24.1805 26.6935 24.0856C26.5549 23.9155 26.5539 23.9155 26.613 24.0909ZM17.9695 32.1208C17.9855 36.9997 17.9637 39.5068 17.905 39.5084C17.856 39.51 17.8874 39.5532 17.9749 39.6038C18.1071 39.6806 18.218 39.6123 18.6284 39.2018C18.9003 38.9294 19.1589 38.7295 19.2026 38.7562C19.2463 38.7834 19.282 38.7434 19.282 38.6672C19.282 38.5909 19.3124 38.5286 19.3486 38.5286C19.3854 38.5286 19.4041 35.5299 19.3902 31.8649C19.3678 25.9237 19.3796 25.2013 19.5011 25.2013C19.5763 25.2013 19.6376 25.2413 19.6376 25.2904C19.6376 25.3389 19.7698 25.3788 19.9308 25.3788C20.0918 25.3788 20.2672 25.4226 20.3205 25.4753C20.3732 25.5286 20.5113 25.5564 20.627 25.5372C20.796 25.5095 20.7592 25.4801 20.4372 25.3868C20.217 25.3229 19.9574 25.2376 19.8599 25.1976C19.7618 25.1576 19.5619 25.1043 19.4153 25.0798C19.2687 25.0547 18.9888 24.994 18.7937 24.9444C18.5981 24.8948 18.3272 24.8271 18.1918 24.7946L17.9456 24.7354L17.9695 32.1208ZM27.0619 25.414C27.2325 26.0937 26.1125 26.936 22.8361 28.5928C21.1084 29.466 20.8552 29.514 21.3936 28.8658C21.8067 28.3684 22.2156 27.6562 22.2108 27.4414C22.2071 27.2377 21.9554 27.6701 21.9507 27.8892C21.9491 27.9745 21.9075 28.0443 21.859 28.0443C21.8099 28.0443 21.7699 28.0944 21.7699 28.1557C21.7699 28.2165 21.5711 28.4868 21.3285 28.7554C20.9047 29.2245 20.7901 29.4879 20.9623 29.5945C21.0471 29.6468 21.6148 29.3818 21.6665 29.2661C21.6825 29.2293 21.7427 29.2006 21.7998 29.2016C21.932 29.2043 23.7594 28.289 23.7989 28.2C23.8149 28.1632 23.8858 28.1333 23.9561 28.1333C24.026 28.1333 24.2419 28.0336 24.4354 27.911C24.6289 27.7889 24.8091 27.6893 24.8352 27.6893C24.9125 27.6893 25.6316 27.2073 25.6647 27.1338C25.6807 27.097 25.7505 27.0671 25.8198 27.0671C25.8891 27.0671 25.9456 27.0298 25.9456 26.9845C25.9456 26.9387 26.0272 26.8758 26.1258 26.8443C26.7298 26.6524 27.5891 25.2013 27.0992 25.2013C27.048 25.2013 27.0321 25.2941 27.0619 25.414ZM20.9703 25.6902C21.0311 25.7632 21.1345 25.8234 21.1995 25.8234C21.3307 25.8234 21.9315 26.388 22.0978 26.6673C22.1804 26.8059 22.2049 26.8139 22.2092 26.7041C22.2161 26.5047 21.698 25.9535 21.3008 25.7387C20.901 25.5222 20.8216 25.5105 20.9703 25.6902Z" fill="#BAC3DA"/>
<path fill-rule="evenodd" clip-rule="evenodd" d="M37.9404 13.8634C37.9404 18.7092 37.9238 19.4134 37.8071 19.4582C37.6909 19.503 37.6738 20.1443 37.6738 24.4873V29.4659H40.5616H43.4493V28.9424C43.4493 28.5591 43.485 28.405 43.5826 28.3677C43.6977 28.3235 43.7159 27.849 43.7159 24.8488V21.3805H44.6488C45.2112 21.3805 45.5817 21.4157 45.5817 21.4695C45.5817 21.5276 47.2401 21.5586 50.3795 21.5586H55.1773V21.2856C55.1773 21.1353 55.237 20.9524 55.3105 20.8794C55.4262 20.7637 55.4438 19.9518 55.4438 14.6662V8.58637H48.5227C42.4535 8.58637 41.5963 8.57038 41.551 8.4531C41.5083 8.34115 41.2205 8.31982 39.7204 8.31982H37.9404V13.8634ZM92.9376 13.1123C92.9376 15.9158 92.9061 17.4804 92.8485 17.5156C92.791 17.5513 92.76 19.6789 92.76 23.6072V29.6434H94.6605C96.2683 29.6434 96.569 29.6642 96.6127 29.7767C96.6527 29.8817 96.835 29.9099 97.4662 29.9099H98.2685V29.1551C98.2685 28.7105 98.3052 28.3997 98.3575 28.3997C98.4145 28.3997 98.446 27.4076 98.446 25.601C98.446 23.1722 98.4636 22.8023 98.5792 22.8023C98.6528 22.8023 98.7125 22.862 98.7125 22.9355C98.7125 23.0086 98.7525 23.0688 98.8015 23.0688C98.8506 23.0688 98.8906 23.1488 98.8906 23.2463C98.8906 23.3455 98.9497 23.4244 99.0238 23.4244C99.0969 23.4244 99.1571 23.4841 99.1571 23.5576C99.1571 23.6307 99.1971 23.6909 99.2456 23.6909C99.2946 23.6909 99.3357 23.7607 99.3373 23.846C99.341 24.0385 99.5409 24.3125 99.6774 24.3125C99.7334 24.3125 99.7787 24.3727 99.7787 24.4458C99.7787 24.5193 99.8187 24.579 99.8677 24.579C99.9168 24.579 99.9567 24.659 99.9567 24.7571C99.9567 24.8557 100.016 24.9346 100.09 24.9346C100.163 24.9346 100.223 24.9943 100.223 25.0679C100.223 25.1409 100.263 25.2012 100.312 25.2012C100.361 25.2012 100.401 25.2662 100.401 25.3462C100.401 25.4261 100.54 25.6234 100.712 25.7844C100.883 25.9459 101.023 26.1602 101.023 26.2615C101.023 26.3654 101.081 26.4449 101.156 26.4449C101.229 26.4449 101.289 26.5051 101.289 26.5781C101.289 26.6517 101.329 26.7114 101.378 26.7114C101.427 26.7114 101.467 26.777 101.467 26.8564C101.467 26.9364 101.607 27.1336 101.778 27.2946C101.949 27.4561 102.089 27.671 102.089 27.7717C102.089 27.873 102.132 27.9556 102.184 27.9556C102.33 27.9556 102.533 28.1912 102.533 28.3608C102.533 28.4439 102.673 28.6438 102.844 28.8054C103.015 28.9664 103.155 29.1449 103.155 29.202C103.155 29.259 103.292 29.4424 103.459 29.6093L103.761 29.9126L106.768 29.8891L109.774 29.8657L109.802 29.5762C109.822 29.3768 109.787 29.2702 109.691 29.2334C109.615 29.2041 109.552 29.1044 109.552 29.0122C109.552 28.9195 109.512 28.8438 109.463 28.8438C109.414 28.8438 109.374 28.784 109.374 28.7105C109.374 28.6374 109.315 28.5772 109.241 28.5772C109.168 28.5772 109.108 28.5047 109.108 28.4162C109.108 28.3277 109.028 28.1699 108.93 28.0649C108.833 27.9599 108.753 27.8341 108.753 27.7856C108.753 27.7371 108.652 27.5969 108.53 27.4748C108.408 27.3527 108.308 27.1965 108.308 27.1277C108.308 27.059 108.208 26.9278 108.086 26.8361C107.964 26.7444 107.864 26.6192 107.864 26.5573C107.864 26.4955 107.824 26.4449 107.775 26.4449C107.727 26.4449 107.687 26.3708 107.687 26.2796C107.687 26.189 107.586 26.0397 107.464 25.9475C107.342 25.8558 107.242 25.6905 107.242 25.5796C107.242 25.4693 107.199 25.3787 107.147 25.3787C107.003 25.3787 106.798 25.1441 106.798 24.9789C106.798 24.8141 106.593 24.579 106.449 24.579C106.396 24.579 106.354 24.4937 106.354 24.3898C106.354 24.2858 106.214 24.0683 106.042 23.9073C105.871 23.7458 105.732 23.548 105.732 23.4681C105.732 23.3039 105.526 23.0688 105.383 23.0688C105.33 23.0688 105.288 22.9862 105.288 22.8849C105.288 22.6882 105.095 22.4467 104.938 22.4467C104.886 22.4467 104.843 22.347 104.843 22.2249C104.843 22.1028 104.803 22.0026 104.755 22.0026C104.706 22.0026 104.666 21.9424 104.666 21.8693C104.666 21.7958 104.626 21.7361 104.576 21.7361C104.528 21.7361 104.488 21.6748 104.488 21.6001C104.488 21.525 104.428 21.4407 104.355 21.413C104.203 21.3544 104.172 21.114 104.316 21.114C104.42 21.114 104.666 20.8954 104.666 20.8032C104.666 20.7291 104.902 20.4924 104.976 20.4924C105.069 20.4924 105.288 20.2466 105.288 20.1432C105.288 20.091 105.33 20.0478 105.383 20.0478C105.486 20.0478 105.732 19.8292 105.732 19.737C105.732 19.6629 105.968 19.4262 106.042 19.4262C106.135 19.4262 106.354 19.1804 106.354 19.077C106.354 19.0248 106.396 18.9816 106.449 18.9816C106.552 18.9816 106.798 18.763 106.798 18.6708C106.798 18.5967 107.035 18.36 107.109 18.36C107.201 18.36 107.42 18.1143 107.42 18.0108C107.42 17.9586 107.463 17.9154 107.515 17.9154C107.618 17.9154 107.864 17.6969 107.864 17.6046C107.864 17.5305 108.101 17.2938 108.175 17.2938C108.267 17.2938 108.486 17.0481 108.486 16.9447C108.486 16.8924 108.529 16.8492 108.581 16.8492C108.684 16.8492 108.93 16.6307 108.93 16.5385C108.93 16.4644 109.167 16.2277 109.241 16.2277C109.333 16.2277 109.552 15.9819 109.552 15.8785C109.552 15.8263 109.595 15.7831 109.647 15.7831C109.77 15.7831 109.996 15.557 109.996 15.4344C109.996 15.3817 110.036 15.339 110.085 15.339C110.134 15.339 110.174 15.259 110.174 15.1615C110.174 14.9866 110.115 14.9834 106.617 14.9834H103.06L102.671 15.3833C102.457 15.6034 102.239 15.7831 102.186 15.7831C102.132 15.7831 102.089 15.8215 102.089 15.8678C102.089 15.9782 101.217 16.8492 101.107 16.8492C101.061 16.8492 101.023 16.8924 101.023 16.9447C101.023 17.0481 100.804 17.2938 100.712 17.2938C100.637 17.2938 100.401 17.5305 100.401 17.6046C100.401 17.6969 100.155 17.9154 100.052 17.9154C99.9994 17.9154 99.9567 17.9586 99.9567 18.0108C99.9567 18.1143 99.7376 18.36 99.6454 18.36C99.5713 18.36 99.3346 18.5967 99.3346 18.6708C99.3346 18.763 99.0889 18.9816 98.9855 18.9816C98.9332 18.9816 98.8906 19.0248 98.8906 19.077C98.8906 19.2002 98.6645 19.4262 98.5414 19.4262C98.4748 19.4262 98.446 18.1606 98.446 15.25C98.446 11.5973 98.463 11.0743 98.5792 11.0743C98.6912 11.0743 98.7125 10.8866 98.7125 9.91909V8.76442H95.8253H92.9376V13.1123ZM111.951 14.7169V20.6699H118.348H124.745V23.7794V26.8894H119.592C116.216 26.8894 114.439 26.8585 114.439 26.8004C114.439 26.745 113.92 26.7114 113.06 26.7114H111.68L111.704 28.2888L111.729 29.8657L120.369 29.8881C126.027 29.903 129.01 29.9414 129.01 29.9995C129.01 30.0517 129.353 30.088 129.854 30.088H130.698V24.4458C130.698 20.744 130.729 18.8041 130.787 18.8041C130.836 18.8041 130.876 18.5674 130.876 18.271V17.7379H124.39H117.904V14.8502V11.963H124.168C128.285 11.963 130.431 11.9326 130.431 11.8739C130.431 11.8249 130.492 11.7849 130.565 11.7849C130.648 11.7849 130.698 11.7012 130.698 11.5631C130.698 11.4411 130.738 11.3408 130.787 11.3408C130.836 11.3408 130.876 11.2054 130.876 11.0391C130.876 10.8536 130.927 10.7182 131.009 10.6867C131.082 10.6585 131.142 10.5545 131.142 10.4554C131.142 10.3557 131.182 10.2747 131.231 10.2747C131.28 10.2747 131.32 10.135 131.32 9.96387C131.32 9.79275 131.36 9.65255 131.409 9.65255C131.457 9.65255 131.497 9.51288 131.497 9.34176V9.03096H125.453C120.162 9.03096 119.402 9.01391 119.357 8.89769C119.313 8.78201 118.816 8.76442 115.629 8.76442H111.951V14.7169ZM133.275 15.9073C133.275 21.9605 133.259 22.7895 133.14 22.8348C133.023 22.8796 133.009 23.3295 133.029 26.3761L133.053 29.8657L134.319 29.8902C135.063 29.9046 135.585 29.9504 135.585 30.0016C135.585 30.0544 136.207 30.088 137.184 30.088H138.783V24.135V18.182H141.004H143.224L143.247 24.1126L143.27 30.0432L146.136 30.0667L149.001 30.0901V22.6258V15.1615H143.981H138.961V12.0962V9.03096H136.118H133.275V15.9073ZM150.955 11.473V13.9173H153.71H156.464V11.7945C156.464 9.94948 156.482 9.66481 156.603 9.61843C156.694 9.58324 156.733 9.47983 156.714 9.3199L156.686 9.07521L153.821 9.05176L150.955 9.0283V11.473ZM176.544 12.2764C176.544 14.9216 176.525 15.3518 176.41 15.3955C176.293 15.4408 176.277 16.3519 176.277 22.8561V30.2655H179.165H182.052V26.2321C182.052 22.7292 182.07 22.1924 182.186 22.1482C182.302 22.1034 182.319 21.2989 182.319 15.653V9.20848H179.431H176.544V12.2764ZM194.402 11.2518C194.402 12.5552 194.37 13.2957 194.313 13.2957C194.259 13.2957 194.224 13.6955 194.224 14.3171V15.339H189.116H184.007V20.2701C184.007 24.6164 183.991 25.2012 183.872 25.2012C183.755 25.2012 183.741 25.5173 183.761 27.7109L183.785 30.2213L191.759 30.2436L199.733 30.2666V27.2008C199.733 24.5348 199.75 24.135 199.866 24.135C199.984 24.135 199.999 23.2463 199.999 16.6717V9.20848H197.201H194.402V11.2518ZM49.4018 15.0725V18.36H46.5588H43.7159V15.0725V11.7849H46.5588H49.4018V15.0725ZM57.1316 19.077C57.1316 22.992 57.1135 23.6328 56.9983 23.748C56.8858 23.8604 56.865 24.3098 56.865 26.6735V29.4659H60.7299C63.2477 29.4659 64.5948 29.4968 64.5948 29.5549C64.5948 29.6125 65.9275 29.6434 68.4155 29.6434H72.2361V29.4216C72.2361 29.283 72.2862 29.1993 72.3694 29.1993C72.4435 29.1993 72.5027 29.1204 72.5027 29.0218C72.5027 28.9237 72.5426 28.8438 72.5912 28.8438C72.6402 28.8438 72.6802 28.7441 72.6802 28.622C72.6802 28.4999 72.7202 28.3997 72.7692 28.3997C72.8177 28.3997 72.8577 28.3 72.8577 28.1774C72.8577 28.0393 72.9083 27.9556 72.991 27.9556C73.0741 27.9556 73.1242 27.8714 73.1242 27.7333C73.1242 27.6112 73.1642 27.511 73.2133 27.511C73.2623 27.511 73.3023 27.3314 73.3023 27.1112V26.7114H67.9714H62.6405V25.4235V24.135H67.7491H72.8577V19.4262V14.7169H68.4208C65.5586 14.7169 63.9642 14.6854 63.9285 14.6284C63.8938 14.5714 62.6544 14.5394 60.5028 14.5394H57.1316V19.077ZM75.2566 20.5718C75.2566 25.7342 75.2406 26.4321 75.1212 26.4779C75.006 26.5222 74.9895 26.7567 75.0103 28.0644L75.0348 29.5991L82.4757 29.6221L89.9165 29.6445V29.3331C89.9165 29.1156 89.9571 29.0218 90.0498 29.0218C90.133 29.0218 90.1831 28.9376 90.1831 28.7995C90.1831 28.6774 90.2231 28.5772 90.2721 28.5772C90.3212 28.5772 90.3611 28.4818 90.3611 28.3645C90.3611 28.2478 90.4209 28.1289 90.4944 28.1012C90.5675 28.0729 90.6277 27.9684 90.6277 27.8693C90.6277 27.7701 90.6677 27.6891 90.7162 27.6891C90.7652 27.6891 90.8052 27.5489 90.8052 27.3778C90.8052 27.2066 90.8452 27.067 90.8942 27.067C90.9427 27.067 90.9827 26.987 90.9827 26.8894C90.9827 26.7135 90.9236 26.7114 85.8741 26.7114H80.7655V22.3454C80.7655 18.2918 80.7767 17.9714 80.9207 17.8616C81.0454 17.7672 81.9842 17.7432 85.63 17.7406C89.617 17.7384 90.1831 17.7214 90.1831 17.6046C90.1831 17.5311 90.2231 17.4714 90.2721 17.4714C90.3212 17.4714 90.3611 17.3312 90.3611 17.1606C90.3611 16.9431 90.4011 16.8492 90.4944 16.8492C90.577 16.8492 90.6277 16.7656 90.6277 16.6275C90.6277 16.5054 90.6677 16.4052 90.7162 16.4052C90.7652 16.4052 90.8052 16.265 90.8052 16.0944C90.8052 15.9233 90.8452 15.7831 90.8942 15.7831C90.9433 15.7831 90.9827 15.5464 90.9827 15.25V14.7169H83.1197H75.2566V20.5718ZM150.955 15.596C150.955 15.9003 150.915 16.0459 150.822 16.0821C150.705 16.1269 150.689 16.9905 150.689 23.1104V30.088H153.487H156.286V28.4887C156.286 27.4817 156.319 26.8894 156.375 26.8894C156.433 26.8894 156.464 24.8754 156.464 21.0255V15.1615H153.71H150.955V15.596ZM158.211 15.2207C158.179 15.2532 158.152 18.6116 158.152 22.6839V30.088H165.837H173.523V29.8657C173.523 29.7436 173.562 29.6434 173.61 29.6434C173.658 29.6434 173.722 29.5437 173.753 29.4216C173.784 29.2995 173.844 29.1993 173.888 29.1993C173.931 29.1993 173.967 29.0591 173.967 28.8885C173.967 28.7174 174.007 28.5772 174.056 28.5772C174.105 28.5772 174.145 28.4775 174.145 28.3554C174.145 28.2168 174.195 28.1331 174.278 28.1331C174.351 28.1331 174.411 28.0553 174.411 27.961C174.411 27.8661 174.451 27.7637 174.5 27.7333C174.549 27.7029 174.589 27.6006 174.589 27.5057C174.589 27.3378 174.486 27.3335 170.324 27.3335C166.593 27.3335 166.06 27.317 166.06 27.2002C166.06 27.0888 165.872 27.067 164.905 27.067H163.749V25.8233V24.579H167.348C169.687 24.579 170.946 24.6105 170.946 24.6681C170.946 24.724 171.509 24.7571 172.457 24.7571H173.967V20.0478C173.967 15.9217 173.951 15.339 173.834 15.339C173.76 15.339 173.701 15.299 173.701 15.25C173.701 15.1498 158.311 15.1204 158.211 15.2207ZM67.1718 19.3372V20.9364H64.9061H62.6405V19.3372V17.7379H64.9061H67.1718V19.3372ZM168.459 19.1149C168.459 19.7269 168.433 19.8703 168.325 19.8703C168.216 19.8703 168.192 20.0233 168.192 20.7141V21.5586H166.06H163.927V19.9593V18.36H166.193H168.459V19.1149ZM194.224 22.8465V27.3335H191.87H189.516V23.0784C189.516 19.3777 189.533 18.8163 189.649 18.7721C189.722 18.7438 189.782 18.6394 189.782 18.5402C189.782 18.3638 189.83 18.36 192.003 18.36H194.224V22.8465Z" fill="#BAC3DA"/>
</svg>
