<svg width="178" height="64" viewBox="0 0 178 64" fill="none" xmlns="http://www.w3.org/2000/svg">
<g clip-path="url(#clip0_2099_2724)">
<path d="M128.663 48.6072V50.9994H144.999V40.21H142.619V48.6072H128.663ZM128.663 13V15.3923H142.619V23.79H144.999V13H128.663ZM120.239 31.5075V25.9484H123.973C125.793 25.9484 126.447 26.5582 126.447 28.2238V29.2088C126.447 30.9211 125.817 31.5075 123.973 31.5075H120.239ZM126.166 32.4925C127.87 32.0468 129.06 30.4516 129.06 28.552C129.06 27.3558 128.593 26.2766 127.706 25.4085C126.586 24.3293 125.092 23.79 123.156 23.79H117.905V40.2095H120.239V33.6654H123.739C125.536 33.6654 126.26 34.4159 126.26 36.2928V40.21H128.64V36.668C128.64 34.0878 128.033 33.1028 126.166 32.8212V32.4925ZM106.517 33.0318H113.705V30.874H106.517V25.9479H114.404V23.79H104.136V40.2095H114.755V38.0516H106.517V33.0318ZM98.698 33.8999V35.0256C98.698 37.3947 97.8344 38.1691 95.6644 38.1691H95.1511C92.9802 38.1691 91.9301 37.4651 91.9301 34.2047V29.7947C91.9301 26.511 93.0271 25.8304 95.1974 25.8304H95.6638C97.7875 25.8304 98.4644 26.628 98.4874 28.833H101.055C100.821 25.5959 98.6744 23.5555 95.4538 23.5555C93.8904 23.5555 92.5833 24.0483 91.6032 24.9862C90.133 26.3703 89.3161 28.7161 89.3161 31.9997C89.3161 35.1664 90.0165 37.5122 91.4631 38.9661C92.4432 39.9279 93.7971 40.4439 95.1272 40.4439C96.5274 40.4439 97.8114 39.8807 98.4644 38.6613H98.7907V40.2095H100.938V31.742H94.6132V33.8999H98.698ZM78.1149 25.9479H80.659C83.063 25.9479 84.37 26.5576 84.37 29.8418V34.1576C84.37 37.4413 83.063 38.0516 80.659 38.0516H78.1149V25.9479ZM80.8685 40.21C85.3263 40.21 86.9829 36.8088 86.9829 32.0003C86.9829 27.1213 85.2091 23.7905 80.8216 23.7905H75.7806V40.21H80.8685ZM64.5092 33.0318H71.6972V30.874H64.5092V25.9479H72.3971V23.79H62.1282V40.2095H72.7473V38.0516H64.5092V33.0318ZM50.7402 23.79H48.3599V40.2095H59.0952V38.0516H50.7402V23.79ZM32 40.21V51H48.3362V48.6072H34.3802V40.21H32ZM32 13V23.79H34.3802V15.3923H48.3362V13H32Z" fill="#BAC3DA"/>
</g>
<defs>
<clipPath id="clip0_2099_2724">
<rect width="113" height="38" fill="white" transform="translate(32 13)"/>
</clipPath>
</defs>
</svg>
