<svg width="16" height="14" viewBox="0 0 16 14" fill="none" xmlns="http://www.w3.org/2000/svg">
<path d="M1.09992 5.7083C5.39487 3.83705 8.25885 2.60341 9.69185 2.00738C13.7834 0.30558 14.6335 0.00996026 15.1877 9.46359e-05C15.3095 -0.00194823 15.582 0.0282562 15.7586 0.171489C15.9076 0.292432 15.9486 0.455809 15.9683 0.570476C15.9879 0.685143 16.0123 0.946358 15.9929 1.15046C15.7712 3.48009 14.8118 9.13349 14.3237 11.7427C14.1172 12.8468 13.7105 13.217 13.3168 13.2532C12.4613 13.3319 11.8116 12.6878 10.9829 12.1446C9.68624 11.2946 8.95369 10.7654 7.69503 9.936C6.24042 8.97744 7.18338 8.4506 8.01236 7.58959C8.22931 7.36426 11.999 3.93546 12.0719 3.62441C12.0811 3.58551 12.0895 3.44051 12.0034 3.36394C11.9172 3.28737 11.7901 3.31355 11.6983 3.33438C11.5683 3.36389 9.4968 4.73307 5.48389 7.4419C4.89591 7.84565 4.36333 8.04237 3.88616 8.03207C3.36012 8.0207 2.34822 7.73463 1.59598 7.49011C0.673328 7.19019 -0.0599784 7.03162 0.00387615 6.52227C0.0371355 6.25697 0.402482 5.98564 1.09992 5.7083Z" fill="white"/>
</svg>
