<?xml version="1.0" encoding="UTF-8"?>
<svg id="Layer_1" data-name="Layer 1" xmlns="http://www.w3.org/2000/svg" viewBox="0 0 300 300">
  <defs>
    <style>
      .cls-1 {
        fill: #814625;
      }

      .cls-2 {
        fill: #fff;
      }
    </style>
  </defs>
  <circle class="cls-1" cx="150" cy="150" r="150"/>
  <path class="cls-2" d="M144.406,142.404c-.165-.498-.28-1.009-.369-1.525-.041-.239-.089-.477-.143-.713-.118-.513-.248-1.024-.39-1.531h0c2.339-3.412,13.521-21.201.796-32.618-14.123-12.672-30.623,3.938-30.623,3.938l.051.074c-7.417-2.171-15.458-2.425-23.282-.075h-.001c-.097-.097-16.542-16.572-30.623-3.937-14.086,12.639,1.125,33.087,1.204,33.194h0c-.162.482-.292.972-.379,1.47-1.524,8.75-11.897,11.451-11.897,26.693s10.852,27.778,33.002,27.778h9.09c.041.056,3.783,5.165,11.467,5.159,7.133-.005,11.844-5.115,11.885-5.159h8.673c22.15,0,33.002-12.242,33.002-27.778,0-14.194-8.996-17.512-11.463-24.968h0Z"/>
  <path class="cls-2" d="M250.259,124.989s1.647-14.69-10.875-17.847v-5.892h-9.697v5.745c-13.209,2.814-11.507,17.994-11.507,17.994v2.519s-1.703,15.183,11.512,17.994h-.001v12.611c-13.923,2.443-12.164,18.121-12.164,18.121v2.519s-1.703,15.18,11.506,17.993v5.745h9.697v-5.892c12.523-3.157,10.875-17.847,10.875-17.847.547,0,.991-.427.991-.954v-.609c0-.527-.444-.955-.991-.955,0,0,1.634-14.563-10.712-17.804v-12.928h-.146c13.215-2.812,11.512-17.994,11.512-17.994.547,0,.991-.427.991-.955v-.609c0-.527-.444-.954-.991-.954h0ZM242.356,176.234h-.887c-.547,0-.991.428-.991.955v.609c0,.527.444.954.991.954h.887c0,9.113-3.142,10.646-4.199,10.904-.174.042-.343-.082-.343-.255v-2.904c0-1.606-1.062-2.485-2.124-2.964-1.343-.605-2.907-.605-4.249,0-1.062.479-2.125,1.358-2.125,2.964v2.904c0,.17-.165.297-.337.255-1.051-.254-4.205-1.775-4.205-10.905v-2.519c0-9.113,3.142-10.646,4.199-10.904.173-.042.342.082.342.254v2.905c0,1.605,1.063,2.485,2.125,2.964,1.342.604,2.906.604,4.249,0,1.062-.479,2.124-1.358,2.124-2.964v-2.905c0-.17.165-.297.337-.255,1.051.254,4.205,1.775,4.205,10.905ZM242.123,127.508h.887c0,9.13-3.153,10.652-4.205,10.905-.171.042-.337-.086-.337-.255v-2.905c0-1.605-1.062-2.485-2.125-2.964-1.342-.604-2.906-.604-4.249,0-1.062.479-2.124,1.358-2.124,2.964v2.905c0,.173-.169.296-.343.254-1.057-.258-4.199-1.791-4.199-10.904v-2.519c0-9.13,3.153-10.652,4.205-10.905.171-.041.337.087.337.256v2.904c0,1.606,1.062,2.485,2.124,2.964,1.343.605,2.907.605,4.249,0,1.063-.479,2.125-1.358,2.125-2.964v-2.904c0-.173.169-.297.343-.255,1.057.258,4.199,1.792,4.199,10.904h-.887c-.548,0-.991.427-.991.954v.609c0,.527.444.955.991.955Z"/>
  <path class="cls-2" d="M201.731,150.931s1.712-15.268-11.622-18.017v-13.717c12.98-2.93,11.295-17.947,11.295-17.947,0,0-7.279,0-7.249,0,0,9.13-3.153,10.652-4.205,10.905-.171.042-.337-.086-.337-.255v-2.905c0-1.605-1.062-2.485-2.125-2.963-1.342-.605-2.906-.605-4.249,0-1.062.479-2.124,1.358-2.124,2.963v2.905c0,.172-.169.297-.343.255-1.057-.258-4.199-1.792-4.199-10.904.03,0-7.249,0-7.249,0,0,0-1.747,15.583,12.038,18.098v13.546c-13.431,2.7-11.711,18.035-11.711,18.035v2.519s-1.72,15.336,11.711,18.036v12.917c-13.785,2.515-12.038,18.097-12.038,18.097,0,0,7.279,0,7.249,0,0-9.13,3.153-10.652,4.205-10.905.171-.042.337.086.337.255v2.905c0,1.605,1.062,2.485,2.124,2.964,1.343.604,2.907.604,4.249,0,1.063-.479,2.125-1.358,2.125-2.964v-2.905c0-.172.169-.296.343-.254,1.057.258,4.199,1.791,4.199,10.904-.03,0,7.249,0,7.249,0,0,0,1.684-15.017-11.295-17.947v-13.087c13.335-2.75,11.622-18.017,11.622-18.017.548,0,.991-.427.991-.954v-.61c0-.527-.444-.954-.991-.954h0ZM193.595,153.45h.887c0,9.13-3.153,10.652-4.205,10.905-.171.042-.337-.086-.337-.255v-2.905c0-1.605-1.062-2.485-2.124-2.964-1.343-.604-2.907-.604-4.249,0-1.063.479-2.125,1.358-2.125,2.964v2.905c0,.173-.169.296-.343.254-1.057-.258-4.199-1.791-4.199-10.904v-2.519c0-9.13,3.153-10.652,4.205-10.905.171-.041.337.086.337.256v2.904c0,1.606,1.062,2.485,2.125,2.964,1.342.605,2.906.605,4.249,0,1.062-.479,2.124-1.358,2.124-2.964v-2.904c0-.173.169-.297.343-.255,1.057.258,4.199,1.792,4.199,10.904h-.887c-.547,0-.991.428-.991.954v.609c0,.527.444.955.991.955Z"/>
</svg>