<svg width="57" height="50" viewBox="0 0 57 50" fill="none" xmlns="http://www.w3.org/2000/svg">
<path d="M55.2316 10.6159L34.6712 46.2282C34.0495 47.3022 33.1563 48.1939 32.0812 48.8138C31.0062 49.4337 29.787 49.76 28.5461 49.76C27.3051 49.76 26.0859 49.4337 25.0109 48.8138C23.9358 48.1939 23.0427 47.3022 22.421 46.2282L18.8167 39.99C18.8051 39.9746 18.8001 39.9551 18.8028 39.9359C18.8056 39.9168 18.8158 39.8995 18.8313 39.8879C18.8468 39.8763 18.8662 39.8713 18.8854 39.874C18.9045 39.8768 18.9218 39.887 18.9334 39.9025C19.5764 40.5372 20.356 41.0164 21.2126 41.3036C22.0692 41.5907 22.9802 41.6781 23.8758 41.5591C24.7714 41.4401 25.6279 41.1179 26.3798 40.6171C27.1318 40.1162 27.7592 39.45 28.2141 38.6694L45.4256 8.82831C45.8794 8.04046 46.1458 7.15874 46.2041 6.25143C46.2624 5.34411 46.1111 4.43555 45.7619 3.5961C45.4127 2.75665 44.875 2.00882 44.1904 1.41053C43.5058 0.812238 42.6927 0.379536 41.8141 0.145927C41.7947 0.145927 41.7761 0.13824 41.7625 0.124557C41.7488 0.110874 41.7411 0.092316 41.7411 0.0729655C41.7411 0.053615 41.7488 0.0350571 41.7625 0.0213742C41.7761 0.0076913 41.7947 4.33816e-06 41.8141 4.33816e-06H49.1102C50.3518 0.00134114 51.5713 0.329327 52.6461 0.95103C53.7209 1.57273 54.6133 2.46627 55.2335 3.54192C55.8538 4.61757 56.1801 5.83748 56.1798 7.07914C56.1795 8.32081 55.8525 9.54054 55.2316 10.6159ZM30.8918 4.33816e-06H23.7635C23.7489 0.00480221 23.7362 0.0140861 23.7271 0.0265324C23.7181 0.0389787 23.7133 0.053952 23.7133 0.0693175C23.7133 0.084683 23.7181 0.0996563 23.7271 0.112103C23.7362 0.124549 23.7489 0.133833 23.7635 0.138631C24.2436 0.324074 24.678 0.610995 25.037 0.97978C25.396 1.34856 25.6712 1.79052 25.8437 2.27543C26.0162 2.76035 26.0819 3.27679 26.0364 3.78946C25.991 4.30212 25.8353 4.79893 25.5802 5.24591L15.1905 23.2163C14.9221 23.6719 14.5561 24.0625 14.1188 24.36C13.6815 24.6575 13.1838 24.8545 12.6614 24.9368C12.1389 25.0191 11.6048 24.9847 11.0972 24.8361C10.5896 24.6874 10.1213 24.4283 9.72573 24.0772C9.71412 24.0617 9.69683 24.0515 9.67768 24.0487C9.65852 24.046 9.63906 24.051 9.62358 24.0626C9.6081 24.0742 9.59787 24.0915 9.59513 24.1107C9.5924 24.1298 9.59738 24.1493 9.60899 24.1648L13.2571 30.4978C13.6666 31.2085 14.2562 31.7987 14.9664 32.2091C15.6767 32.6195 16.4825 32.8356 17.3027 32.8356C18.123 32.8356 18.9288 32.6195 19.639 32.2091C20.3493 31.7987 20.9389 31.2085 21.3484 30.4978L34.9411 7.00428C35.3512 6.29402 35.567 5.4883 35.5667 4.66816C35.5665 3.84803 35.3502 3.04243 34.9398 2.33241C34.5293 1.62239 33.939 1.03301 33.2284 0.623564C32.5178 0.214117 31.7119 -0.000949054 30.8918 4.33816e-06ZM6.15063 4.33816e-06C4.93415 4.33816e-06 3.74499 0.360732 2.73353 1.03657C1.72206 1.71241 0.933718 2.67301 0.468191 3.79689C0.002665 4.92077 -0.119138 6.15746 0.118185 7.35056C0.355509 8.54367 0.941299 9.6396 1.80148 10.4998C2.66166 11.36 3.7576 11.9458 4.9507 12.1831C6.14381 12.4204 7.38049 12.2986 8.50437 11.8331C9.62825 11.3675 10.5889 10.5792 11.2647 9.56774C11.9405 8.55627 12.3013 7.36711 12.3013 6.15063C12.3022 5.34265 12.1438 4.54242 11.835 3.79575C11.5263 3.04909 11.0733 2.37067 10.5019 1.79934C9.93059 1.22801 9.25217 0.774995 8.50551 0.466237C7.75885 0.15748 6.95861 -0.000955831 6.15063 4.33816e-06Z" fill="url(#paint0_linear_12467_3172)"/>
<defs>
<linearGradient id="paint0_linear_12467_3172" x1="55.4611" y1="39.3774" x2="-8.77666" y2="-4.24579" gradientUnits="userSpaceOnUse">
<stop stop-color="#5433FF"/>
<stop offset="0.5" stop-color="#20BDFF"/>
<stop offset="1" stop-color="#5CFFA2"/>
</linearGradient>
</defs>
</svg>
