<svg width="48" height="48" viewBox="0 0 48 48" fill="none" xmlns="http://www.w3.org/2000/svg">
<path d="M12.1936 16.2405C18.7148 9.85437 29.2852 9.85437 35.8148 16.2405L36.5994 17.0082C36.9284 17.3288 36.9284 17.8434 36.5994 18.164L33.9167 20.7961C33.7564 20.9563 33.4864 20.9563 33.3262 20.7961L32.2463 19.7415C27.6992 15.2873 20.3176 15.2873 15.7705 19.7415L14.6148 20.872C14.4545 21.0323 14.1845 21.0323 14.0243 20.872L11.3331 18.2399C11.0041 17.9193 11.0041 17.4047 11.3331 17.0842L12.1936 16.2405ZM41.3658 21.6734L43.7532 24.0102C44.0823 24.3308 44.0823 24.8454 43.7532 25.166L32.9803 35.7196C32.6513 36.0402 32.1282 36.0402 31.7992 35.7196L24.1476 28.2283C24.0633 28.1524 23.9367 28.1524 23.8524 28.2283L16.2092 35.7196C15.8802 36.0402 15.3572 36.0402 15.0282 35.7196L4.24676 25.1744C3.91775 24.8538 3.91775 24.3392 4.24676 24.0187L6.63419 21.6819C6.9632 21.3613 7.48624 21.3613 7.81525 21.6819L15.4668 29.1732C15.5512 29.2491 15.6777 29.2491 15.7621 29.1732L23.4053 21.6819C23.7343 21.3613 24.2573 21.3613 24.5863 21.6819L32.2379 29.1732C32.3223 29.2491 32.4488 29.2491 32.5332 29.1732L40.1847 21.6819C40.5053 21.3528 41.0368 21.3528 41.3658 21.6734Z" fill="#3A99FB"/>
</svg>
