<svg width="16" height="17" viewBox="0 0 16 17" fill="none" xmlns="http://www.w3.org/2000/svg">
<g clip-path="url(#clip0_2147_7262)">
<circle cx="7.99988" cy="8.5" r="8" fill="url(#paint0_linear_2147_7262)"/>
<path d="M13.7974 6.18558L9.4056 13.7926C9.27281 14.022 9.08202 14.2125 8.85238 14.3449C8.62274 14.4773 8.36232 14.547 8.09725 14.547C7.83217 14.547 7.57175 14.4773 7.34211 14.3449C7.11247 14.2125 6.92169 14.022 6.78889 13.7926L6.01899 12.4601C6.01651 12.4568 6.01545 12.4526 6.01603 12.4485C6.01662 12.4444 6.0188 12.4407 6.02211 12.4383C6.02542 12.4358 6.02957 12.4347 6.03366 12.4353C6.03776 12.4359 6.04145 12.4381 6.04393 12.4414C6.18127 12.577 6.3478 12.6793 6.53078 12.7407C6.71376 12.802 6.90834 12.8207 7.09964 12.7952C7.29095 12.7698 7.47391 12.701 7.63452 12.594C7.79514 12.487 7.92916 12.3447 8.02633 12.178L11.7028 5.80375C11.7998 5.63546 11.8566 5.44712 11.8691 5.25331C11.8816 5.0595 11.8492 4.86543 11.7746 4.68612C11.7001 4.5068 11.5852 4.34706 11.439 4.21927C11.2927 4.09147 11.1191 3.99904 10.9314 3.94914C10.9272 3.94914 10.9233 3.9475 10.9203 3.94457C10.9174 3.94165 10.9158 3.93769 10.9158 3.93355C10.9158 3.92942 10.9174 3.92546 10.9203 3.92253C10.9233 3.91961 10.9272 3.91797 10.9314 3.91797H12.4899C12.7551 3.91826 13.0156 3.98832 13.2452 4.12111C13.4747 4.25391 13.6654 4.44478 13.7978 4.67454C13.9303 4.90431 14 5.16489 14 5.43012C13.9999 5.69534 13.9301 5.95589 13.7974 6.18558ZM8.5983 3.91797H7.07565C7.07253 3.91899 7.06982 3.92098 7.06789 3.92364C7.06597 3.92629 7.06493 3.92949 7.06493 3.93278C7.06493 3.93606 7.06597 3.93926 7.06789 3.94191C7.06982 3.94457 7.07253 3.94656 7.07565 3.94758C7.17821 3.98719 7.271 4.04848 7.34769 4.12726C7.42438 4.20603 7.48315 4.30043 7.52 4.40402C7.55684 4.5076 7.57089 4.61791 7.56117 4.72742C7.55146 4.83693 7.51822 4.94305 7.46372 5.03853L5.24442 8.8771C5.18708 8.97444 5.1089 9.05787 5.0155 9.12141C4.92209 9.18496 4.81577 9.22703 4.70418 9.24461C4.59258 9.26219 4.47848 9.25484 4.37006 9.2231C4.26164 9.19135 4.1616 9.136 4.07711 9.061C4.07463 9.0577 4.07094 9.05551 4.06684 9.05493C4.06275 9.05434 4.0586 9.05541 4.05529 9.05789C4.05198 9.06037 4.0498 9.06406 4.04921 9.06815C4.04863 9.07224 4.04969 9.0764 4.05217 9.0797L4.83142 10.4325C4.91891 10.5843 5.04485 10.7104 5.19656 10.798C5.34827 10.8857 5.52039 10.9319 5.69561 10.9319C5.87082 10.9319 6.04294 10.8857 6.19465 10.798C6.34636 10.7104 6.4723 10.5843 6.55979 10.4325L9.46327 5.41412C9.55086 5.26241 9.59695 5.0903 9.5969 4.91512C9.59685 4.73993 9.55066 4.56785 9.46298 4.41619C9.3753 4.26452 9.24922 4.13863 9.09743 4.05117C8.94564 3.96371 8.77349 3.91777 8.5983 3.91797ZM3.31345 3.91797C3.0536 3.91797 2.79959 3.99502 2.58353 4.13939C2.36748 4.28375 2.19908 4.48894 2.09964 4.72901C2.0002 4.96907 1.97419 5.23324 2.02488 5.48809C2.07557 5.74295 2.2007 5.97705 2.38444 6.16079C2.56818 6.34453 2.80228 6.46965 3.05713 6.52035C3.31199 6.57104 3.57615 6.54502 3.81622 6.44558C4.05629 6.34614 4.26148 6.17775 4.40584 5.96169C4.5502 5.74564 4.62726 5.49163 4.62726 5.23178C4.62746 5.05919 4.59362 4.88826 4.52767 4.72876C4.46171 4.56927 4.36495 4.42436 4.24291 4.30232C4.12087 4.18028 3.97595 4.08351 3.81646 4.01756C3.65697 3.95161 3.48604 3.91776 3.31345 3.91797Z" fill="black"/>
</g>
<defs>
<linearGradient id="paint0_linear_2147_7262" x1="-3.5" y1="26" x2="20.2535" y2="-2.63034" gradientUnits="userSpaceOnUse">
<stop stop-color="#674031"/>
<stop offset="0.3125" stop-color="#FFECE3"/>
<stop offset="0.625" stop-color="#6D4637"/>
<stop offset="1" stop-color="#FFECE3"/>
</linearGradient>
<clipPath id="clip0_2147_7262">
<rect width="16" height="16" fill="white" transform="translate(-0.00012207 0.5)"/>
</clipPath>
</defs>
</svg>
