<svg xmlns="http://www.w3.org/2000/svg" width="24" height="24" fill="none" xmlns:v="https://vecta.io/nano"><g clip-path="url(#A)"><path d="M12 24c6.627 0 12-5.373 12-12S18.627 0 12 0 0 5.373 0 12s5.373 12 12 12z" fill="#0ac18e"/><path d="M15.743 7.971c-.603-1.368-1.989-1.66-3.685-1.377l-.545-2.114-1.285.332.536 2.108-1.029.256-.536-2.095-1.285.332.545 2.114-2.595.673.353 1.377.935-.244c.524-.137.771.125.886.372l1.498 5.793c.018.168-.012.454-.372.551.021.012-.935.241-.935.241l.14 1.605 2.598-.664.551 2.138 1.285-.332-.551-2.153 1.033-.256.548 2.141 1.285-.332-.551-2.135c1.98-.481 3.378-1.73 3.091-3.64-.183-1.151-1.441-2.095-2.485-2.202.643-.57.969-1.401.57-2.488zm-.618 5.041c.256 1.891-2.373 2.123-3.241 2.351l-.755-2.83c.871-.228 3.563-1.188 3.996.478zm-1.584-3.853c.271 1.681-1.977 1.876-2.702 2.062l-.688-2.567c.728-.18 2.839-1.051 3.39.506z" fill="#fff"/></g><defs><clipPath id="A"><path fill="#fff" d="M0 0h24v24H0z"/></clipPath></defs></svg>