<svg xmlns="http://www.w3.org/2000/svg" width="24" height="24" fill="none" xmlns:v="https://vecta.io/nano"><g clip-path="url(#A)"><circle cx="12" cy="12" r="12" fill="#47d5dc"/><path fill-rule="evenodd" d="M6.593 6.225C6.33 4.86 7.38 3.6 8.745 3.6a2.22 2.22 0 0 1 2.205 2.205v2.73c.315 0 .63-.052.945-.052s.578 0 .893.052v-2.73A2.22 2.22 0 0 1 14.993 3.6c1.365 0 2.415 1.26 2.205 2.625l-.578 3.202c2.047.893 3.622 2.468 3.622 4.41v1.207c0 1.627-1.05 2.993-2.572 3.885-1.523.945-3.518 1.47-5.775 1.47s-4.252-.525-5.775-1.47c-1.47-.892-2.52-2.258-2.52-3.885v-1.207c0-1.943 1.523-3.517 3.57-4.41l-.577-3.202zm9.24 3.622l.683-3.78c.157-.945-.525-1.837-1.523-1.837-.84 0-1.522.683-1.522 1.523v3.465c-.21-.053-.473-.053-.683-.053-.315 0-.577-.053-.893-.053s-.63 0-.945.053c-.21 0-.473.053-.683.053V5.805c0-.84-.682-1.522-1.522-1.522a1.52 1.52 0 0 0-1.47 1.838l.683 3.78c-2.205.84-3.675 2.31-3.675 3.99v1.207c0 2.573 3.412 4.672 7.612 4.672s7.613-2.1 7.613-4.672V13.89c.052-1.732-1.418-3.203-3.675-4.043z" fill="#633001"/><path d="M19.56 15.045c0 2.573-3.412 4.673-7.612 4.673s-7.613-2.1-7.613-4.673v-1.207h15.278v1.207h-.053z" fill="#fedc90"/><path fill-rule="evenodd" d="M7.275 6.12a1.52 1.52 0 0 1 1.47-1.838c.84 0 1.523.683 1.523 1.523V9.27l1.627-.105c.525 0 1.05.053 1.575.105V5.805c0-.84.682-1.522 1.522-1.522.945 0 1.68.893 1.523 1.838l-.683 3.78c2.205.84 3.727 2.31 3.727 3.99 0 2.572-3.412 4.672-7.612 4.672s-7.613-2.1-7.613-4.672c0-1.68 1.47-3.15 3.675-3.99l-.735-3.78z" fill="#d1884f"/><g fill="#633001"><path d="M9.795 13.523c0 .682-.367 1.26-.84 1.26s-.84-.578-.84-1.26.367-1.26.84-1.26.84.578.84 1.26zm5.827 0c0 .682-.368 1.26-.84 1.26s-.84-.578-.84-1.26.368-1.26.84-1.26.84.578.84 1.26z"/></g></g><defs><clipPath id="A"><path fill="#fff" d="M0 0h24v24H0z"/></clipPath></defs></svg>