<svg xmlns="http://www.w3.org/2000/svg" width="24" height="24" fill="none" xmlns:v="https://vecta.io/nano"><g clip-path="url(#A)"><path d="M12 0c6.628 0 12 5.373 12 12a12 12 0 0 1-12 12C5.373 24 0 18.628 0 12S5.373 0 12 0z" fill="#f5ac37"/><path d="M12.442 12.847h4.56c.097 0 .143 0 .15-.127a8.73 8.73 0 0 0 0-1.395c0-.09-.045-.127-.143-.127H7.935c-.112 0-.143.037-.143.143v1.335c0 .172 0 .172.18.172h4.47zm4.201-3.21c.013-.034.013-.071 0-.105-.076-.166-.166-.324-.271-.473-.158-.254-.343-.488-.555-.698a1.84 1.84 0 0 0-.345-.338 5.39 5.39 0 0 0-2.25-1.14c-.418-.094-.846-.139-1.275-.135H7.919c-.112 0-.127.045-.127.143v2.662c0 .112 0 .143.143.143h8.655s.075-.015.09-.06h-.037 0zm0 4.77c-.127-.014-.256-.014-.383 0H7.943c-.112 0-.15 0-.15.15v2.603c0 .12 0 .15.15.15h3.84c.184.014.367.001.547-.037.557-.04 1.105-.161 1.628-.36.19-.066.374-.152.547-.255h.052a4.87 4.87 0 0 0 2.092-2.107s.052-.113-.006-.143v-.001zM6.285 18.66v-.045-1.747-.592-1.763c0-.098 0-.112-.12-.112H4.538c-.09 0-.127 0-.127-.12v-1.425h1.74c.097 0 .135 0 .135-.127v-1.41c0-.09 0-.112-.12-.112H4.538c-.09 0-.127 0-.127-.12v-1.32c0-.083 0-.105.12-.105h1.612c.112 0 .143 0 .143-.143V5.476c0-.12 0-.15.15-.15h5.625a8.57 8.57 0 0 1 1.215.135 7.33 7.33 0 0 1 2.347.87c.482.283.925.626 1.32 1.02.297.308.565.642.803.997a6.02 6.02 0 0 1 .586 1.148c.019.105.119.175.224.158h1.342c.172 0 .172 0 .18.165v1.23c0 .12-.045.15-.165.15h-1.035c-.105 0-.135 0-.127.135a7.67 7.67 0 0 1 0 1.372c0 .127 0 .143.143.143h1.184c.052.067 0 .135 0 .203.008.087.008.175 0 .262v.908c0 .127-.037.165-.15.165h-1.418c-.099-.019-.195.044-.218.143-.337.877-.878 1.664-1.575 2.295a9.03 9.03 0 0 1-.802.645l-.9.495c-.567.255-1.161.443-1.77.562-.579.104-1.166.151-1.755.143H6.283v-.008l.002-.002z" fill="#fefefd"/></g><defs><clipPath id="A"><path fill="#fff" d="M0 0h24v24H0z"/></clipPath></defs></svg>