<svg xmlns="http://www.w3.org/2000/svg" width="24" height="24" fill="none" xmlns:v="https://vecta.io/nano"><g clip-path="url(#B)"><mask id="A" maskUnits="userSpaceOnUse" x="0" y="0" width="24" height="24" mask-type="alpha"><path fill-rule="evenodd" d="M0 0H24V24H0V0Z" fill="#fff"/></mask><g mask="url(#A)"><path fill-rule="evenodd" d="M12 24C5.4 24 0 18.6 0 11.94.06 5.34 5.4-.06 12.06 0 18.66.06 24 5.4 24 12.12 23.94 18.66 18.6 24 12 24z" fill="#0090ff"/><path fill-rule="evenodd" d="M13.14 10.56l-.36 1.92 3.42.48-.24.9-3.36-.48c-.24.78-.36 1.62-.66 2.34l-.96 2.46c-.48 1.02-1.32 1.74-2.46 1.92-.66.12-1.38.06-1.92-.36-.18-.12-.36-.36-.36-.54 0-.24.12-.54.3-.66.12-.06.42 0 .6.06.18.18.36.42.48.66.36.48.84.54 1.32.18.54-.48.84-1.14 1.02-1.8l1.02-4.26v-.24l-3.18-.48.12-.9 3.3.48.42-1.86-3.42-.54.12-.96 3.54.48.3-.96c.3-1.08.6-2.16 1.32-3.12s1.56-1.56 2.82-1.5c.54 0 1.08.18 1.44.6.06.06.18.18.18.3 0 .24 0 .54-.18.72-.24.18-.54.12-.78-.12-.18-.18-.3-.36-.48-.54-.36-.48-.9-.54-1.32-.12-.3.3-.6.72-.78 1.14l-1.14 3.9 3.3.48-.24.9-3.18-.48z" fill="#fff"/></g></g><defs><clipPath id="B"><path fill="#fff" d="M0 0h24v24H0z"/></clipPath></defs></svg>