<svg width="40" height="40" viewBox="0 0 40 40" fill="none" xmlns="http://www.w3.org/2000/svg">
<g clip-path="url(#clip0_12682_3140)">
<g clip-path="url(#clip1_12682_3140)">
<path d="M25.5001 23.1665C25.5001 20.2499 23.7501 19.2499 20.2501 18.8333C17.7501 18.4999 17.2501 17.8333 17.2501 16.6665C17.2501 15.4997 18.0835 14.7499 19.7501 14.7499C21.2501 14.7499 22.0835 15.2499 22.5001 16.4999C22.5835 16.7499 22.8335 16.9165 23.0835 16.9165H24.4167C24.7501 16.9165 25.0001 16.6665 25.0001 16.3333V16.2499C24.6667 14.4165 23.1667 12.9999 21.2501 12.8333V10.8333C21.2501 10.4999 21.0001 10.2499 20.5835 10.1665H19.3335C19.0001 10.1665 18.7501 10.4165 18.6667 10.8333V12.7499C16.1667 13.0833 14.5835 14.7499 14.5835 16.8333C14.5835 19.5833 16.2501 20.6665 19.7501 21.0833C22.0835 21.4999 22.8335 21.9999 22.8335 23.3333C22.8335 24.6667 21.6667 25.5833 20.0835 25.5833C17.9167 25.5833 17.1667 24.6665 16.9167 23.4165C16.8335 23.0833 16.5835 22.9165 16.3335 22.9165H14.9167C14.5835 22.9165 14.3335 23.1665 14.3335 23.4999V23.5833C14.6667 25.6665 16.0001 27.1665 18.7501 27.5833V29.5833C18.7501 29.9165 19.0001 30.1665 19.4167 30.2499H20.6667C21.0001 30.2499 21.2501 29.9999 21.3335 29.5833V27.5833C23.8335 27.1665 25.5001 25.4165 25.5001 23.1665Z" fill="white"/>
<path d="M20 40C31.0834 40 40 31.0834 40 20C40 8.9166 31.0834 0 20 0C8.9166 0 0 8.9166 0 20C0 31.0834 8.9166 40 20 40Z" fill="#16182C"/>
<g clip-path="url(#clip2_12682_3140)">
<path d="M3.33339 20.0011C3.33378 22.6444 3.96276 25.2497 5.16845 27.6019C6.37413 29.9542 8.12193 31.9859 10.2676 33.5296C12.4132 35.0731 14.8952 36.0841 17.5086 36.4793C20.1221 36.8744 22.7919 36.6423 25.2979 35.8021C27.8039 34.9619 30.0743 33.5376 31.9214 31.6469C33.7684 29.7563 35.1394 27.4532 35.9211 24.9282C36.7028 22.4032 36.8728 19.7284 36.4171 17.1248C35.9614 14.5211 34.8929 12.0631 33.3001 9.95373L32.5323 10.4838L29.1789 12.7984L29.1878 12.8106L21.2501 18.3342V25.0014L31.5244 18.1709C31.7899 19.8549 31.6831 21.5767 31.2114 23.2151C30.7398 24.8534 29.9149 26.3684 28.7948 27.6536C27.6748 28.9387 26.2866 29.9628 24.7281 30.6538C23.1696 31.3446 21.4788 31.6856 19.7744 31.6526C18.0699 31.6196 16.3935 31.2134 14.8629 30.4629C13.3324 29.7121 11.9849 28.6351 10.9154 27.3076C9.84583 25.9801 9.08018 24.4342 8.6723 22.7789C8.2644 21.1236 8.2242 19.3991 8.55451 17.7266L18.7501 25.0014V18.3342L10.9289 12.6673L10.9467 12.6451L7.64895 10.286L6.87118 9.73038C4.57348 12.6603 3.32748 16.2776 3.33339 20.0011ZM20.0001 3.33327C15.7546 3.32752 11.6681 4.94783 8.58006 7.86137L12.7645 10.8494C14.854 9.197 17.4459 8.30948 20.1098 8.33435C22.7734 8.35918 25.3484 9.29492 27.4068 10.986L31.6356 8.06693C28.5259 5.02715 24.3484 3.32768 20.0001 3.33327Z" fill="url(#paint0_linear_12682_3140)"/>
</g>
</g>
<g clip-path="url(#clip3_12682_3140)">
<g clip-path="url(#clip4_12682_3140)">
<path d="M31.6667 39.9999C36.2848 39.9999 40 36.2847 40 31.6666C40 27.0485 36.2848 23.3333 31.6667 23.3333C27.0486 23.3333 23.3334 27.0485 23.3334 31.6666C23.3334 36.2847 27.0486 39.9999 31.6667 39.9999Z" fill="#2775CA"/>
<path d="M33.9584 32.8993C33.9584 31.6841 33.2292 31.2674 31.7709 31.0938C30.7292 30.9549 30.5209 30.6772 30.5209 30.191C30.5209 29.7048 30.8682 29.3924 31.5626 29.3924C32.1876 29.3924 32.5348 29.6007 32.7084 30.1216C32.7432 30.2257 32.8473 30.2952 32.9515 30.2952H33.507C33.6459 30.2952 33.7501 30.191 33.7501 30.0522V30.0174C33.6112 29.2535 32.9862 28.6632 32.1876 28.5938V27.7605C32.1876 27.6216 32.0834 27.5174 31.9098 27.4827H31.389C31.2501 27.4827 31.1459 27.5868 31.1112 27.7605V28.5591C30.0695 28.698 29.4098 29.3924 29.4098 30.2605C29.4098 31.4063 30.1042 31.8577 31.5626 32.0313C32.5348 32.2049 32.8473 32.4133 32.8473 32.9688C32.8473 33.5244 32.3612 33.9063 31.7015 33.9063C30.7987 33.9063 30.4862 33.5243 30.382 33.0035C30.3473 32.8647 30.2432 32.7952 30.139 32.7952H29.5487C29.4098 32.7952 29.3057 32.8993 29.3057 33.0382V33.073C29.4445 33.941 30.0001 34.566 31.1459 34.7397V35.573C31.1459 35.7118 31.2501 35.816 31.4237 35.8507H31.9445C32.0834 35.8507 32.1876 35.7466 32.2223 35.573V34.7397C33.264 34.566 33.9584 33.8368 33.9584 32.8993Z" fill="white"/>
<path d="M29.8959 36.5277C27.1876 35.5555 25.7987 32.5347 26.8057 29.861C27.3265 28.4027 28.4723 27.2916 29.8959 26.7708C30.0348 26.7013 30.1042 26.5972 30.1042 26.4235V25.9374C30.1042 25.7985 30.0348 25.6943 29.8959 25.6597C29.8612 25.6597 29.7917 25.6597 29.757 25.6943C26.4584 26.736 24.6528 30.243 25.6945 33.5416C26.3195 35.486 27.8126 36.9791 29.757 37.6041C29.8959 37.6735 30.0348 37.6041 30.0695 37.4652C30.1042 37.4305 30.1042 37.3958 30.1042 37.3263V36.8402C30.1042 36.736 30.0001 36.5972 29.8959 36.5277ZM33.5765 25.6943C33.4376 25.6249 33.2987 25.6943 33.264 25.8333C33.2292 25.868 33.2292 25.9027 33.2292 25.9722V26.4583C33.2292 26.5972 33.3334 26.736 33.4376 26.8055C36.1459 27.7777 37.5348 30.7985 36.5278 33.4722C36.007 34.9305 34.8612 36.0416 33.4376 36.5624C33.2987 36.6318 33.2292 36.736 33.2292 36.9097V37.3958C33.2292 37.5347 33.2987 37.6388 33.4376 37.6735C33.4723 37.6735 33.5417 37.6735 33.5765 37.6388C36.8751 36.5972 38.6807 33.0902 37.639 29.7916C37.014 27.8124 35.4862 26.3193 33.5765 25.6943Z" fill="white"/>
</g>
</g>
<path d="M29.7506 33.6825C28.6375 38.1468 24.1154 40.8637 19.6501 39.7504C15.1866 38.6374 12.4693 34.1156 13.583 29.6516C14.6956 25.1868 19.2177 22.4696 23.6817 23.5826C28.1468 24.6956 30.8637 29.218 29.7506 33.6825Z" fill="url(#paint1_linear_12682_3140)"/>
<path d="M25.3328 30.4892C25.4987 29.3804 24.6543 28.7843 23.4998 28.3866L23.8743 26.8846L22.9599 26.6567L22.5952 28.1192C22.3549 28.0593 22.108 28.0028 21.8626 27.9468L22.2298 26.4747L21.3159 26.2468L20.9412 27.7484C20.7422 27.7031 20.5469 27.6583 20.3573 27.6111L20.3583 27.6064L19.0972 27.2916L18.854 28.2682C18.854 28.2682 19.5324 28.4236 19.5181 28.4333C19.8885 28.5257 19.9554 28.7708 19.9442 28.965C18.918 33.0798 19.9442 28.965 18.918 33.0798C18.8727 33.1923 18.7579 33.3611 18.499 33.297C18.5081 33.3103 17.8343 33.1311 17.8343 33.1311L17.3804 34.1777L18.5703 34.4743C18.7917 34.5298 19.0087 34.5879 19.2222 34.6426L18.8438 36.1618L19.7572 36.3897L20.132 34.8866C20.3815 34.9543 20.6237 35.0168 20.8607 35.0756L20.4872 36.5717L21.4016 36.7996L21.7801 35.2832C23.3393 35.5782 24.5119 35.4592 25.0054 34.0491C25.4031 32.9137 24.9856 32.2587 24.1652 31.8317C24.7627 31.6939 25.2127 31.3009 25.3328 30.4892ZM23.2435 33.4186C22.9609 34.554 21.049 33.9402 20.4291 33.7863L20.9313 31.7736C21.5511 31.9283 23.5388 32.2345 23.2435 33.4186ZM23.5263 30.4728C23.2685 31.5056 21.6772 30.9809 21.161 30.8522L21.6162 29.0267C22.1324 29.1554 23.7949 29.3955 23.5263 30.4728Z" fill="white"/>
</g>
<defs>
<linearGradient id="paint0_linear_12682_3140" x1="3.33338" y1="19.9999" x2="35.2001" y2="19.9999" gradientUnits="userSpaceOnUse">
<stop stop-color="#410CF0"/>
<stop offset="1" stop-color="#28CDD9"/>
</linearGradient>
<linearGradient id="paint1_linear_12682_3140" x1="13.3334" y1="23.3333" x2="13.3334" y2="39.9999" gradientUnits="userSpaceOnUse">
<stop stop-color="#F9AA4B"/>
<stop offset="1" stop-color="#F7931A"/>
</linearGradient>
<clipPath id="clip0_12682_3140">
<rect width="40" height="40" fill="white"/>
</clipPath>
<clipPath id="clip1_12682_3140">
<rect width="40" height="40" fill="white"/>
</clipPath>
<clipPath id="clip2_12682_3140">
<rect width="33.3333" height="33.3333" fill="white" transform="translate(3.33337 3.33325)"/>
</clipPath>
<clipPath id="clip3_12682_3140">
<rect width="16.6667" height="16.6667" fill="white" transform="translate(23.3334 23.3333)"/>
</clipPath>
<clipPath id="clip4_12682_3140">
<rect width="16.6667" height="16.6667" fill="white" transform="translate(23.3334 23.3333)"/>
</clipPath>
</defs>
</svg>
