<svg width="46" height="48" viewBox="0 0 46 48" fill="none" xmlns="http://www.w3.org/2000/svg">
<g clip-path="url(#clip0_3209_16921)">
<g clip-path="url(#clip1_3209_16921)">
<g clip-path="url(#clip2_3209_16921)">
<path d="M39.3974 24.8378C38.4408 28.6758 36.3676 32.1438 33.4398 34.8034C30.5121 37.463 26.8614 39.1946 22.9495 39.7792C19.0376 40.3639 15.0402 39.7753 11.4628 38.088C7.88537 36.4007 4.8887 33.6903 2.85175 30.2998C0.814803 26.9093 -0.170929 22.9908 0.0192219 19.04C0.209373 15.0893 1.56687 11.2836 3.92002 8.10435C6.27317 4.92512 9.51628 2.51511 13.2392 1.17914C16.9621 -0.156837 20.9976 -0.358771 24.8353 0.598874C29.9802 1.88274 34.4046 5.15751 37.1354 9.70301C39.8663 14.2485 40.6799 19.6925 39.3974 24.8378Z" fill="white"/>
<path d="M19.997 6.04626L19.8101 6.68219V25.1389L19.997 25.3259L28.564 20.2615L19.997 6.04626Z" fill="#343434"/>
<path d="M19.9971 6.04626L11.4302 20.2615L19.9971 25.3259V6.04626Z" fill="#8C8C8C"/>
<path d="M19.9981 26.9477L19.8921 27.0767V33.6509L19.9981 33.9588L28.57 21.8864L19.9981 26.9477Z" fill="#3C3C3B"/>
<path d="M19.9971 33.9588V26.9477L11.4302 21.8864L19.9971 33.9588Z" fill="#8C8C8C"/>
<path d="M19.9971 25.3248L28.564 20.2605L19.9971 16.366V25.3248Z" fill="#141414"/>
<path d="M11.4302 20.2615L19.9971 25.3258V16.3669L11.4302 20.2615Z" fill="#393939"/>
</g>
</g>
</g>
<g clip-path="url(#clip3_3209_16921)">
<rect x="26" y="28" width="20" height="20" rx="10" fill="#373C58"/>
<g clip-path="url(#clip4_3209_16921)">
<g clip-path="url(#clip5_3209_16921)">
<path d="M36 48C37.9778 48 39.9112 47.4135 41.5557 46.3147C43.2002 45.2159 44.4819 43.6541 45.2388 41.8268C45.9957 39.9996 46.1937 37.9889 45.8079 36.0491C45.422 34.1093 44.4696 32.3275 43.0711 30.9289C41.6726 29.5304 39.8907 28.578 37.9509 28.1922C36.0111 27.8063 34.0005 28.0043 32.1732 28.7612C30.3459 29.5181 28.7841 30.7998 27.6853 32.4443C26.5865 34.0888 26 36.0222 26 38C25.9968 39.3141 26.2533 40.6159 26.7547 41.8306C27.2562 43.0453 27.9926 44.149 28.9219 45.0782C29.8511 46.0074 30.9547 46.7439 32.1694 47.2453C33.3841 47.7467 34.6859 48.0032 36 48Z" fill="#2775CA"/>
<path d="M38.8174 39.6158C38.8174 38.1225 37.9216 37.6108 36.1299 37.3975C34.8499 37.2308 34.5941 36.8858 34.5941 36.2883C34.5941 35.6908 35.0207 35.3075 35.8741 35.3075C36.1775 35.2601 36.4878 35.3249 36.7469 35.4898C37.0059 35.6547 37.1961 35.9084 37.2816 36.2033C37.3035 36.2651 37.3439 36.3187 37.3972 36.3568C37.4506 36.395 37.5143 36.4158 37.5799 36.4167H38.2624C38.3018 36.4176 38.341 36.4105 38.3776 36.3958C38.4142 36.3811 38.4475 36.3592 38.4754 36.3313C38.5033 36.3034 38.5252 36.2702 38.5399 36.2335C38.5545 36.1969 38.5616 36.1578 38.5607 36.1183V36.0758C38.4784 35.6138 38.246 35.1919 37.8994 34.8755C37.5529 34.5591 37.1116 34.3659 36.6441 34.3258V33.3025C36.6441 33.1358 36.5158 33.0041 36.3024 32.9608H35.6624C35.4958 32.9608 35.3641 33.0892 35.3207 33.3025V34.2833C34.7731 34.3043 34.2537 34.5313 33.8662 34.9188C33.4787 35.3063 33.2517 35.8257 33.2307 36.3733C33.2307 37.7808 34.0841 38.3358 35.8757 38.5492C37.0699 38.7625 37.4541 39.0184 37.4541 39.7009C37.4541 40.3834 36.8566 40.8525 36.0466 40.8525C34.9374 40.8525 34.5532 40.3833 34.4257 39.7433C34.413 39.6729 34.3763 39.609 34.322 39.5625C34.2677 39.5159 34.1989 39.4894 34.1274 39.4875H33.4024C33.363 39.4866 33.3238 39.4937 33.2872 39.5083C33.2506 39.523 33.2173 39.5449 33.1894 39.5728C33.1615 39.6007 33.1396 39.634 33.1249 39.6706C33.1103 39.7072 33.1032 39.7464 33.1041 39.7858V39.8283C33.182 40.3801 33.4508 40.8872 33.8639 41.2613C34.2769 41.6354 34.8081 41.8528 35.3649 41.8758V42.9C35.3649 43.0667 35.4932 43.1983 35.7066 43.2408H36.3466C36.5132 43.2408 36.6449 43.1125 36.6882 42.9V41.8758C37.2595 41.8269 37.7927 41.5694 38.1862 41.1524C38.5797 40.7354 38.8058 40.1881 38.8215 39.615L38.8174 39.6158Z" fill="white"/>
<path d="M33.8918 43.9075C32.7027 43.4731 31.6759 42.6837 30.9505 41.6462C30.225 40.6088 29.8359 39.3734 29.8359 38.1075C29.8359 36.8416 30.225 35.6062 30.9505 34.5688C31.6759 33.5313 32.7027 32.7419 33.8918 32.3075C33.9718 32.2729 34.039 32.2141 34.0838 32.1394C34.1287 32.0646 34.1489 31.9777 34.1418 31.8908V31.3125C34.148 31.236 34.1261 31.1598 34.08 31.0984C34.0339 31.037 33.967 30.9946 33.8918 30.9792C33.8332 30.9727 33.7741 30.9871 33.7251 31.02C32.2206 31.496 30.9068 32.4388 29.9743 33.7119C29.0418 34.9849 28.5391 36.522 28.5391 38.1C28.5391 39.678 29.0418 41.215 29.9743 42.4881C30.9068 43.7611 32.2206 44.704 33.7251 45.18C33.7595 45.2002 33.7982 45.2118 33.838 45.214C33.8778 45.2162 33.9176 45.2088 33.9539 45.1925C33.9903 45.1762 34.0222 45.1514 34.0471 45.1202C34.0719 45.0891 34.089 45.0524 34.0968 45.0133C34.1385 44.9725 34.1385 44.93 34.1385 44.8467V44.2683C34.1242 44.1945 34.0949 44.1244 34.0525 44.0624C34.0101 44.0003 33.9554 43.9476 33.8918 43.9075ZM38.2735 31.0275C38.2391 31.0073 38.2004 30.9957 38.1606 30.9935C38.1208 30.9913 38.081 30.9987 38.0447 31.015C38.0083 31.0313 37.9763 31.0561 37.9515 31.0873C37.9266 31.1184 37.9096 31.1551 37.9018 31.1942C37.8601 31.2358 37.8601 31.2775 37.8601 31.3608V31.9383C37.8669 32.0224 37.893 32.1037 37.9364 32.1759C37.9797 32.2482 38.0392 32.3095 38.1101 32.355C39.2992 32.7894 40.326 33.5788 41.0514 34.6163C41.7769 35.6537 42.166 36.8891 42.166 38.155C42.166 39.4209 41.7769 40.6563 41.0514 41.6937C40.326 42.7312 39.2992 43.5206 38.1101 43.955C38.0301 43.9896 37.963 44.0484 37.9181 44.1231C37.8733 44.1979 37.853 44.2848 37.8601 44.3717V44.9492C37.8539 45.0257 37.8759 45.1018 37.9219 45.1632C37.968 45.2246 38.0349 45.2671 38.1101 45.2825C38.1687 45.289 38.2278 45.2745 38.2768 45.2417C39.2081 44.948 40.0723 44.4732 40.8197 43.8447C41.5672 43.2161 42.1831 42.4462 42.6322 41.579C43.0812 40.7118 43.3546 39.7644 43.4367 38.7913C43.5187 37.8182 43.4077 36.8384 43.1101 35.9083C42.7517 34.7679 42.1257 33.7299 41.2843 32.8808C40.4429 32.0317 39.4105 31.3962 38.2735 31.0275Z" fill="white"/>
</g>
</g>
</g>
<rect x="26.5" y="28.5" width="19" height="19" rx="9.5" stroke="#252A47"/>
<g clip-path="url(#clip6_3209_16921)">
<rect x="16" y="28" width="20" height="20" rx="10" fill="#373C58"/>
<g clip-path="url(#clip7_3209_16921)">
<g clip-path="url(#clip8_3209_16921)">
<path d="M26 48C31.5228 48 36 43.5228 36 38C36 32.4772 31.5228 28 26 28C20.4772 28 16 32.4772 16 38C16 43.5228 20.4772 48 26 48Z" fill="#EC1C79"/>
<path d="M23.1665 44.3175C26.409 44.3175 26.409 44.2692 26.959 44.1058C27.6773 43.8925 24.929 41.9908 23.1665 41.9908C21.404 41.9908 19.9731 42.5125 19.9731 43.155C19.9731 43.7975 21.4023 44.3175 23.1665 44.3175Z" fill="black"/>
<path d="M30.5291 34.4267L30.6783 34.5875L30.5483 34.7633C26.32 40.4808 23.8816 43.07 22.85 42.7225C22.0532 42.3391 21.3929 41.7212 20.9575 40.9517C20.7358 40.6267 20.5275 40.285 20.3375 39.945C20.2116 39.7183 20.1041 39.5117 20.0491 39.3958C19.9912 39.2822 19.9494 39.161 19.925 39.0358V39.0217C19.915 38.9708 19.9116 38.9542 19.9041 38.9267C19.6141 37.8331 19.6522 36.6785 20.0137 35.6065C20.3752 34.5344 21.0441 33.5925 21.9371 32.8979C22.8301 32.2034 23.9078 31.7869 25.0358 31.7005C26.1638 31.614 27.2923 31.8613 28.2808 32.4117L28.3025 32.4258C29.1128 33.0123 29.8588 33.6826 30.5283 34.4258L30.5291 34.4267ZM28.0116 32.8667C27.1134 32.3695 26.0889 32.1472 25.0654 32.2275C24.042 32.3078 23.0647 32.6872 22.255 33.3184C21.4453 33.9496 20.839 34.8048 20.5114 35.7777C20.1839 36.7507 20.1494 37.7985 20.4125 38.7908C20.4241 38.8342 20.4291 38.8583 20.4416 38.9208V38.9333C20.4578 39.0153 20.4859 39.0945 20.525 39.1683C20.5758 39.275 20.6775 39.4708 20.7983 39.6883C20.9808 40.015 21.1808 40.3433 21.3933 40.655C21.7709 41.3244 22.3352 41.8694 23.0175 42.2233C23.6683 42.4417 26.1191 39.8483 29.9916 34.6283C29.3916 33.9772 28.728 33.3876 28.0108 32.8683L28.0116 32.8667Z" fill="black"/>
<path d="M28.0115 32.8658C27.1134 32.3684 26.0888 32.146 25.0653 32.2262C24.0418 32.3064 23.0644 32.6856 22.2547 33.3167C21.4449 33.9478 20.8385 34.803 20.5108 35.7759C20.1831 36.7489 20.1486 37.7967 20.4115 38.7891C20.4232 38.8324 20.4282 38.8566 20.4407 38.9191V38.9316C20.457 39.0133 20.485 39.0922 20.524 39.1658C20.5748 39.2724 20.6765 39.4683 20.7973 39.6858C20.9798 40.0124 21.1798 40.3408 21.3923 40.6524C21.7699 41.3219 22.3343 41.8668 23.0165 42.2208C23.6673 42.4391 26.1182 39.8458 29.9907 34.6258C29.3912 33.9747 28.7281 33.3851 28.0115 32.8658Z" fill="#EC1C79"/>
<path d="M26.5281 44.265C25.3884 44.265 24.2743 43.927 23.3267 43.2938C22.379 42.6606 21.6404 41.7607 21.2043 40.7077C20.7681 39.6547 20.654 38.4961 20.8764 37.3783C21.0987 36.2605 21.6475 35.2337 22.4534 34.4278C23.2593 33.6219 24.2861 33.0731 25.4039 32.8507C26.5217 32.6284 27.6804 32.7425 28.7333 33.1786C29.7863 33.6148 30.6863 34.3534 31.3195 35.301C31.9527 36.2487 32.2906 37.3628 32.2906 38.5025C32.2906 40.0308 31.6835 41.4965 30.6028 42.5772C29.5222 43.6579 28.0564 44.265 26.5281 44.265ZM26.5281 43.7367C27.5633 43.7367 28.5753 43.4297 29.4361 42.8545C30.2968 42.2794 30.9677 41.4619 31.3639 40.5055C31.76 39.5491 31.8637 38.4967 31.6617 37.4814C31.4598 36.466 30.9613 35.5334 30.2292 34.8014C29.4972 34.0694 28.5646 33.5709 27.5493 33.3689C26.5339 33.1669 25.4815 33.2706 24.5251 33.6668C23.5687 34.0629 22.7512 34.7338 22.1761 35.5945C21.6009 36.4553 21.294 37.4673 21.294 38.5025C21.294 39.8907 21.8454 41.222 22.827 42.2036C23.8086 43.1852 25.1399 43.7367 26.5281 43.7367Z" fill="black"/>
<path d="M26.5291 43.7366C27.5643 43.7366 28.5763 43.4297 29.437 42.8545C30.2978 42.2794 30.9687 41.4619 31.3648 40.5055C31.761 39.5491 31.8646 38.4967 31.6627 37.4813C31.4607 36.466 30.9622 35.5334 30.2302 34.8014C29.4982 34.0694 28.5656 33.5708 27.5502 33.3689C26.5349 33.1669 25.4825 33.2706 24.5261 33.6667C23.5696 34.0629 22.7522 34.7338 22.177 35.5945C21.6019 36.4553 21.2949 37.4673 21.2949 38.5025C21.2949 39.8907 21.8464 41.222 22.828 42.2036C23.8096 43.1852 25.1409 43.7366 26.5291 43.7366Z" fill="white"/>
<path d="M22.6134 39.5742L21.9209 37.4909H22.5276L22.8892 38.6825L23.2892 37.4775H23.7867L24.1826 38.6825L24.5434 37.4834H25.1384L24.4459 39.5667H23.9459L23.5292 38.3734L23.1126 39.5667L22.6134 39.5742ZM25.3684 39.5592V37.4867H27.0351V37.9742H25.9351V38.2884H26.9301V38.7417H25.9359V39.07H27.0492V39.5584L25.3684 39.5592ZM27.8492 39.5592V37.99H27.2259V37.49H29.0434V37.99H28.4217V39.5592H27.8492ZM29.2967 39.5592V37.4867H29.8701V38.2659H30.6076V37.49H31.1817V39.5625H30.6076V38.775H29.8701V39.5625L29.2967 39.5592Z" fill="black"/>
<path d="M20.0523 36.8641C20.0176 36.8467 19.9866 36.8226 19.9612 36.7931C19.9358 36.7637 19.9164 36.7296 19.9042 36.6927C19.892 36.6557 19.8871 36.6168 19.8899 36.578C19.8928 36.5392 19.9032 36.5014 19.9207 36.4666C19.9381 36.4319 19.9623 36.4009 19.9917 36.3755C20.0211 36.3501 20.0552 36.3307 20.0922 36.3185C20.1291 36.3063 20.168 36.3014 20.2068 36.3043C20.2456 36.3071 20.2834 36.3175 20.3182 36.335L21.164 36.7575C21.1987 36.7749 21.2297 36.7991 21.2551 36.8285C21.2806 36.8579 21.2999 36.892 21.3122 36.929C21.3244 36.9659 21.3292 37.0048 21.3264 37.0436C21.3236 37.0824 21.3131 37.1202 21.2957 37.155C21.2782 37.1897 21.2541 37.2207 21.2247 37.2461C21.1952 37.2715 21.1611 37.2909 21.1242 37.3031C21.0873 37.3154 21.0483 37.3202 21.0095 37.3174C20.9708 37.3145 20.9329 37.3041 20.8982 37.2866L20.0523 36.8641Z" fill="black"/>
<path d="M19.955 38.2666C19.9196 38.2502 19.8879 38.227 19.8615 38.1983C19.8351 38.1696 19.8146 38.136 19.8013 38.0994C19.7879 38.0628 19.7818 38.0239 19.7835 37.985C19.7851 37.946 19.7944 37.9078 19.8108 37.8725C19.8272 37.8371 19.8504 37.8053 19.8791 37.779C19.9078 37.7526 19.9414 37.7321 19.978 37.7187C20.0146 37.7054 20.0535 37.6993 20.0925 37.7009C20.1314 37.7026 20.1696 37.7119 20.205 37.7283L21.0508 38.1191C21.122 38.1523 21.1771 38.2123 21.2039 38.2861C21.2308 38.3599 21.2273 38.4413 21.1941 38.5125C21.161 38.5836 21.1009 38.6387 21.0272 38.6656C20.9534 38.6925 20.872 38.6889 20.8008 38.6558L19.955 38.2666Z" fill="black"/>
</g>
</g>
</g>
<rect x="16.5" y="28.5" width="19" height="19" rx="9.5" stroke="#252A47"/>
<defs>
<clipPath id="clip0_3209_16921">
<rect width="40" height="40" fill="white"/>
</clipPath>
<clipPath id="clip1_3209_16921">
<rect width="40" height="40" fill="white"/>
</clipPath>
<clipPath id="clip2_3209_16921">
<rect width="39.995" height="40" fill="white" transform="translate(0.00244141)"/>
</clipPath>
<clipPath id="clip3_3209_16921">
<rect x="26" y="28" width="20" height="20" rx="10" fill="white"/>
</clipPath>
<clipPath id="clip4_3209_16921">
<rect width="20" height="20" fill="white" transform="translate(26 28)"/>
</clipPath>
<clipPath id="clip5_3209_16921">
<rect width="20" height="20" fill="white" transform="translate(26 28)"/>
</clipPath>
<clipPath id="clip6_3209_16921">
<rect x="16" y="28" width="20" height="20" rx="10" fill="white"/>
</clipPath>
<clipPath id="clip7_3209_16921">
<rect width="20" height="20" fill="white" transform="translate(16 28)"/>
</clipPath>
<clipPath id="clip8_3209_16921">
<rect width="20" height="20" fill="white" transform="translate(16 28)"/>
</clipPath>
</defs>
</svg>
