<svg width="40" height="40" viewBox="0 0 40 40" fill="none" xmlns="http://www.w3.org/2000/svg">
<g clip-path="url(#clip0_12682_3199)">
<g clip-path="url(#clip1_12682_3199)">
<path d="M25.5001 23.1665C25.5001 20.2499 23.7501 19.2499 20.2501 18.8333C17.7501 18.4999 17.2501 17.8333 17.2501 16.6665C17.2501 15.4997 18.0835 14.7499 19.7501 14.7499C21.2501 14.7499 22.0835 15.2499 22.5001 16.4999C22.5835 16.7499 22.8335 16.9165 23.0835 16.9165H24.4167C24.7501 16.9165 25.0001 16.6665 25.0001 16.3333V16.2499C24.6667 14.4165 23.1667 12.9999 21.2501 12.8333V10.8333C21.2501 10.4999 21.0001 10.2499 20.5835 10.1665H19.3335C19.0001 10.1665 18.7501 10.4165 18.6667 10.8333V12.7499C16.1667 13.0833 14.5835 14.7499 14.5835 16.8333C14.5835 19.5833 16.2501 20.6665 19.7501 21.0833C22.0835 21.4999 22.8335 21.9999 22.8335 23.3333C22.8335 24.6667 21.6667 25.5833 20.0835 25.5833C17.9167 25.5833 17.1667 24.6665 16.9167 23.4165C16.8335 23.0833 16.5835 22.9165 16.3335 22.9165H14.9167C14.5835 22.9165 14.3335 23.1665 14.3335 23.4999V23.5833C14.6667 25.6665 16.0001 27.1665 18.7501 27.5833V29.5833C18.7501 29.9165 19.0001 30.1665 19.4167 30.2499H20.6667C21.0001 30.2499 21.2501 29.9999 21.3335 29.5833V27.5833C23.8335 27.1665 25.5001 25.4165 25.5001 23.1665Z" fill="white"/>
<path d="M20 40C31.0834 40 40 31.0834 40 20C40 8.9166 31.0834 0 20 0C8.9166 0 0 8.9166 0 20C0 31.0834 8.9166 40 20 40Z" fill="#16182C"/>
<g clip-path="url(#clip2_12682_3199)">
<path d="M3.33339 20.0011C3.33378 22.6444 3.96276 25.2497 5.16845 27.6019C6.37413 29.9542 8.12193 31.9859 10.2676 33.5296C12.4132 35.0731 14.8952 36.0841 17.5086 36.4793C20.1221 36.8744 22.7919 36.6423 25.2979 35.8021C27.8039 34.9619 30.0743 33.5376 31.9214 31.6469C33.7684 29.7563 35.1394 27.4532 35.9211 24.9282C36.7028 22.4032 36.8728 19.7284 36.4171 17.1248C35.9614 14.5211 34.8929 12.0631 33.3001 9.95373L32.5323 10.4838L29.1789 12.7984L29.1878 12.8106L21.2501 18.3342V25.0014L31.5244 18.1709C31.7899 19.8549 31.6831 21.5767 31.2114 23.2151C30.7398 24.8534 29.9149 26.3684 28.7948 27.6536C27.6748 28.9387 26.2866 29.9628 24.7281 30.6538C23.1696 31.3446 21.4788 31.6856 19.7744 31.6526C18.0699 31.6196 16.3935 31.2134 14.8629 30.4629C13.3324 29.7121 11.9849 28.6351 10.9154 27.3076C9.84583 25.9801 9.08018 24.4342 8.6723 22.7789C8.2644 21.1236 8.2242 19.3991 8.55451 17.7266L18.7501 25.0014V18.3342L10.9289 12.6673L10.9467 12.6451L7.64895 10.286L6.87118 9.73038C4.57348 12.6603 3.32748 16.2776 3.33339 20.0011ZM20.0001 3.33327C15.7546 3.32752 11.6681 4.94783 8.58006 7.86137L12.7645 10.8494C14.854 9.197 17.4459 8.30948 20.1098 8.33435C22.7734 8.35918 25.3484 9.29492 27.4068 10.986L31.6356 8.06693C28.5259 5.02715 24.3484 3.32768 20.0001 3.33327Z" fill="url(#paint0_linear_12682_3199)"/>
</g>
</g>
<g clip-path="url(#clip3_12682_3199)">
<g clip-path="url(#clip4_12682_3199)">
<path d="M31.6667 39.9999C36.2848 39.9999 40 36.2847 40 31.6666C40 27.0485 36.2848 23.3333 31.6667 23.3333C27.0486 23.3333 23.3334 27.0485 23.3334 31.6666C23.3334 36.2847 27.0486 39.9999 31.6667 39.9999Z" fill="#2775CA"/>
<path d="M33.9583 32.8991C33.9583 31.6838 33.2291 31.2672 31.7708 31.0936C30.7291 30.9547 30.5208 30.6769 30.5208 30.1908C30.5208 29.7046 30.868 29.3922 31.5625 29.3922C32.1875 29.3922 32.5347 29.6005 32.7083 30.1213C32.743 30.2255 32.8472 30.2949 32.9514 30.2949H33.5069C33.6458 30.2949 33.75 30.1908 33.75 30.0519V30.0172C33.611 29.2533 32.986 28.663 32.1875 28.5936V27.7603C32.1875 27.6213 32.0833 27.5172 31.9097 27.4824H31.3889C31.25 27.4824 31.1458 27.5866 31.111 27.7603V28.5588C30.0694 28.6978 29.4097 29.3922 29.4097 30.2603C29.4097 31.4061 30.1041 31.8574 31.5625 32.0311C32.5347 32.2047 32.8472 32.413 32.8472 32.9686C32.8472 33.5242 32.361 33.9061 31.7014 33.9061C30.7985 33.9061 30.486 33.5241 30.3819 33.0033C30.3472 32.8644 30.243 32.7949 30.1389 32.7949H29.5485C29.4097 32.7949 29.3055 32.8991 29.3055 33.038V33.0728C29.4444 33.9408 30 34.5658 31.1458 34.7394V35.5728C31.1458 35.7116 31.25 35.8158 31.4235 35.8505H31.9444C32.0833 35.8505 32.1875 35.7463 32.2222 35.5728V34.7394C33.2639 34.5658 33.9583 33.8366 33.9583 32.8991Z" fill="white"/>
<path d="M29.8958 36.5277C27.1874 35.5555 25.7985 32.5347 26.8055 29.861C27.3264 28.4027 28.4722 27.2916 29.8958 26.7708C30.0347 26.7013 30.1041 26.5972 30.1041 26.4235V25.9374C30.1041 25.7985 30.0347 25.6943 29.8958 25.6597C29.861 25.6597 29.7916 25.6597 29.7569 25.6943C26.4583 26.736 24.6527 30.243 25.6944 33.5416C26.3194 35.486 27.8124 36.9791 29.7569 37.6041C29.8958 37.6735 30.0347 37.6041 30.0694 37.4652C30.1041 37.4305 30.1041 37.3958 30.1041 37.3263V36.8402C30.1041 36.736 29.9999 36.5972 29.8958 36.5277ZM33.5764 25.6943C33.4374 25.6249 33.2985 25.6943 33.2639 25.8333C33.2291 25.868 33.2291 25.9027 33.2291 25.9722V26.4583C33.2291 26.5972 33.3333 26.736 33.4374 26.8055C36.1458 27.7777 37.5347 30.7985 36.5277 33.4722C36.0069 34.9305 34.861 36.0416 33.4374 36.5624C33.2985 36.6318 33.2291 36.736 33.2291 36.9097V37.3958C33.2291 37.5347 33.2985 37.6388 33.4374 37.6735C33.4722 37.6735 33.5416 37.6735 33.5764 37.6388C36.8749 36.5972 38.6805 33.0902 37.6389 29.7916C37.0139 27.8124 35.486 26.3193 33.5764 25.6943Z" fill="white"/>
</g>
</g>
<g clip-path="url(#clip5_12682_3199)">
<circle cx="21.6667" cy="31.7495" r="8.33333" fill="#EDEFF0"/>
<path opacity="0.6" d="M21.6642 34.2921L25.6666 31.8727L21.6642 30.0151L17.6666 31.8727L21.6642 34.2921Z" fill="black"/>
<path opacity="0.45" d="M21.6642 30.0151V25.0829L17.6666 31.8727L21.6642 34.292V30.0151Z" fill="black"/>
<path opacity="0.8" d="M21.6642 34.292L25.6666 31.8727L21.6642 25.0829V30.0151V34.292Z" fill="black"/>
<path opacity="0.45" d="M21.6642 35.0656L17.6666 32.6512L21.6642 38.4162V35.0656Z" fill="black"/>
<path opacity="0.8" d="M25.6666 32.6512L21.6642 35.0656V38.4162L25.6666 32.6512Z" fill="black"/>
</g>
</g>
<defs>
<linearGradient id="paint0_linear_12682_3199" x1="3.33338" y1="19.9999" x2="35.2001" y2="19.9999" gradientUnits="userSpaceOnUse">
<stop stop-color="#410CF0"/>
<stop offset="1" stop-color="#28CDD9"/>
</linearGradient>
<clipPath id="clip0_12682_3199">
<rect width="40" height="40" fill="white"/>
</clipPath>
<clipPath id="clip1_12682_3199">
<rect width="40" height="40" fill="white"/>
</clipPath>
<clipPath id="clip2_12682_3199">
<rect width="33.3333" height="33.3333" fill="white" transform="translate(3.33337 3.33325)"/>
</clipPath>
<clipPath id="clip3_12682_3199">
<rect width="16.6667" height="16.6667" fill="white" transform="translate(23.3334 23.3333)"/>
</clipPath>
<clipPath id="clip4_12682_3199">
<rect width="16.6667" height="16.6667" fill="white" transform="translate(23.3334 23.3333)"/>
</clipPath>
<clipPath id="clip5_12682_3199">
<rect width="16.6667" height="16.6667" fill="white" transform="translate(13.3334 23.4161)"/>
</clipPath>
</defs>
</svg>
