<svg width="400" height="400" viewBox="0 0 400 400" fill="none" xmlns="http://www.w3.org/2000/svg">
	<g clip-path="url(#clip0_2142_348)">
	<path d="M200 400C310.457 400 400 310.457 400 200C400 89.5431 310.457 0 200 0C89.5431 0 0 89.5431 0 200C0 310.457 89.5431 400 200 400Z" fill="#FF0420"/>
	<path d="M141.68 253.12C129.76 253.12 120 250.32 112.4 244.72C104.88 239.04 101.12 230.88 101.12 220.4C101.12 218.16 101.36 215.52 101.84 212.32C103.12 205.12 104.96 196.48 107.36 186.32C114.16 158.8 131.76 145.04 160.08 145.04C167.76 145.04 174.72 146.32 180.8 148.96C186.88 151.44 191.68 155.28 195.2 160.4C198.72 165.44 200.48 171.44 200.48 178.4C200.48 180.48 200.24 183.12 199.76 186.32C198.24 195.2 196.48 203.92 194.32 212.32C190.8 226 184.8 236.32 176.16 243.12C167.6 249.84 156.08 253.12 141.68 253.12ZM143.84 231.52C149.44 231.52 154.16 229.84 158.08 226.56C162.08 223.28 164.96 218.24 166.64 211.36C168.96 201.92 170.72 193.76 171.92 186.72C172.32 184.64 172.56 182.48 172.56 180.24C172.56 171.12 167.84 166.56 158.32 166.56C152.72 166.56 147.92 168.24 143.92 171.52C140 174.8 137.2 179.84 135.52 186.72C133.68 193.44 131.92 201.6 130.08 211.36C129.68 213.36 129.44 215.44 129.44 217.68C129.36 226.96 134.24 231.52 143.84 231.52Z" fill="white"/>
	<path d="M207.44 251.68C206.32 251.68 205.52 251.36 204.88 250.64C204.4 249.84 204.24 248.96 204.4 247.92L225.12 150.32C225.28 149.2 225.84 148.32 226.8 147.6C227.68 146.88 228.64 146.56 229.68 146.56H269.6C280.72 146.56 289.6 148.88 296.32 153.44C303.12 158.08 306.56 164.72 306.56 173.44C306.56 175.92 306.24 178.56 305.68 181.28C303.2 192.8 298.16 201.28 290.48 206.8C282.96 212.32 272.64 215.04 259.52 215.04H239.28L232.4 247.92C232.16 249.04 231.68 249.92 230.72 250.64C229.84 251.36 228.88 251.68 227.84 251.68H207.44ZM260.56 194.32C264.8 194.32 268.4 193.2 271.52 190.88C274.72 188.56 276.8 185.28 277.84 180.96C278.16 179.28 278.32 177.76 278.32 176.48C278.32 173.6 277.44 171.36 275.76 169.84C274.08 168.24 271.12 167.44 267.04 167.44H249.04L243.36 194.32H260.56Z" fill="white"/>
	</g>
	<defs>
		<clipPath id="clip0_2142_348">
		<rect width="400" height="400" fill="white"/>
		</clipPath>
	</defs>
</svg>
