<svg width="93" height="93" viewBox="0 0 93 93" fill="none" xmlns="http://www.w3.org/2000/svg">
<path d="M46.3665 0.838597H46.3683C71.5127 0.838597 91.8962 21.2221 91.8962 46.3665V46.3683C91.8962 71.5127 71.5127 91.8962 46.3683 91.8962H46.3665C21.2221 91.8962 0.838597 71.5127 0.838597 46.3683V46.3665C0.838597 21.2221 21.2221 0.838597 46.3665 0.838597Z" fill="black" stroke="black" stroke-width="1.67719"/>
<path fill-rule="evenodd" clip-rule="evenodd" d="M38.929 8.21338C21.0312 11.6608 7.51165 27.4072 7.51165 46.3113C7.51165 65.2154 21.0312 80.9618 38.929 84.4092V80.7729C23.0126 77.38 11.0748 63.2398 11.0748 46.3113C11.0748 29.3828 23.0126 15.2426 38.929 11.8497V8.21338ZM53.7594 11.8639V8.22626C71.6242 11.6999 85.1102 27.4307 85.1102 46.3113C85.1102 65.1919 71.6242 80.9227 53.7594 84.3963V80.7586C69.6425 77.3406 81.547 63.2162 81.547 46.3113C81.547 29.4064 69.6425 15.282 53.7594 11.8639Z" fill="white"/>
<path d="M51.8387 45.0148C54.7991 45.579 57.0953 46.6671 58.7273 48.2791C60.3593 49.8508 61.1753 51.8658 61.1753 54.324V58.1928C61.1753 61.1347 60.1126 63.5124 57.9872 65.3259C55.8618 67.0991 53.0722 67.9857 49.6184 67.9857H48.4229V74.1516H44.3239V67.9857H43.0714C40.7942 67.9857 38.7827 67.4819 37.0368 66.4744C35.291 65.4267 33.9246 63.9759 32.9378 62.1221C31.989 60.228 31.5146 58.0518 31.5146 55.5935H35.6136C35.6136 58.0921 36.2967 60.1272 37.663 61.6989C39.0673 63.2303 40.9081 63.996 43.1853 63.996H49.5045C51.7438 63.996 53.5466 63.4721 54.9129 62.4243C56.2793 61.3362 56.9624 59.9257 56.9624 58.1928V54.324C56.9624 52.9539 56.45 51.7852 55.4253 50.818C54.4385 49.8508 53.0722 49.2261 51.3263 48.944L41.0789 47.1305C38.1944 46.6066 35.9551 45.5185 34.3611 43.8662C32.767 42.2139 31.97 40.1385 31.97 37.6399V34.3756C31.97 31.4337 32.9948 29.0963 35.0443 27.3634C37.1317 25.5903 39.8833 24.7037 43.2991 24.7037H44.3239V18.5378H48.4229V24.7037H49.7323C52.9583 24.7037 55.5581 25.7515 57.5317 27.847C59.5053 29.9023 60.4921 32.6226 60.4921 36.0078H56.3931C56.3931 33.7913 55.7859 32.0181 54.5713 30.6882C53.3568 29.3583 51.7438 28.6933 49.7323 28.6933H43.2991C41.1358 28.6933 39.4089 29.2172 38.1185 30.265C36.8281 31.2725 36.1829 32.6427 36.1829 34.3756V37.6399C36.1829 39.0504 36.6573 40.2392 37.6061 41.2064C38.5929 42.1736 39.9403 42.8184 41.6482 43.1408L51.8387 45.0148Z" fill="white"/>
</svg>
