<svg xmlns="http://www.w3.org/2000/svg" width="24" height="24" fill="none" xmlns:v="https://vecta.io/nano"><g clip-path="url(#B)"><path d="M12.001 24.002c6.628 0 12.001-5.373 12.001-12.001S18.629 0 12.001 0 0 5.373 0 12.001s5.373 12.001 12.001 12.001z" fill="url(#A)"/><g fill="#fff"><path d="M8.114 11.773h9.726l.656-1.416h-1.955l.013-.027 1.226-2.659c.163-.353.008-.774-.344-.934a.71.71 0 0 0-.937.344L15 10.33l-.012.027H9.016l-.013-.027-1.499-3.25c-.163-.353-.584-.509-.937-.344a.7.7 0 0 0-.344.934l1.227 2.66.013.027H6.147l-.653 1.416h2.623-.003zM5.49 14.599h3.926l.027.06 1.914 4.156c.116.251.367.41.64.41s.526-.159.641-.41l1.917-4.156.028-.06h3.255l.656-1.413H6.143l-.653 1.413zm7.511.06l-1.002 2.174-1.002-2.174-.027-.06h2.06l-.028.06H13z"/></g></g><defs><linearGradient id="A" x1="23.695" y1="18.994" x2="-5.752" y2="1.282" gradientUnits="userSpaceOnUse"><stop stop-color="#5433ff"/><stop offset=".5" stop-color="#20bdff"/><stop offset="1" stop-color="#5cffa2"/></linearGradient><clipPath id="B"><path fill="#fff" d="M0 0h24v24H0z"/></clipPath></defs></svg>