<svg xmlns="http://www.w3.org/2000/svg" width="24" height="24" fill="none" xmlns:v="https://vecta.io/nano"><g clip-path="url(#A)"><circle cx="12" cy="12" r="12" fill="#2c333a"/><g fill="#fff"><path d="M17.091 6h2.081l-4.331 4.289a4.05 4.05 0 0 1-5.681 0L4.826 6h2.083L10.2 9.258a2.56 2.56 0 0 0 3.597 0L17.091 6zM6.883 17.925H4.8l4.359-4.315a4.05 4.05 0 0 1 5.681 0l4.359 4.315h-2.081L13.8 14.641a2.56 2.56 0 0 0-3.597 0l-3.32 3.284z"/></g></g><defs><clipPath id="A"><path fill="#fff" d="M0 0h24v24H0z"/></clipPath></defs></svg>