<svg width="532" height="284" viewBox="0 0 532 284" fill="none" xmlns="http://www.w3.org/2000/svg">
<path fill-rule="evenodd" clip-rule="evenodd" d="M-14.6487 -42.3H-115.999C-117.822 -42.3 -119.299 -40.8225 -119.299 -39V62.3503C-119.299 63.8118 -118.349 65.0514 -117.033 65.4852C-116.703 65.3972 -116.356 65.3503 -115.999 65.3503H-14.6487C-14.2912 65.3503 -13.9447 65.3972 -13.615 65.4852C-12.2987 65.0514 -11.3487 63.8118 -11.3487 62.3503V53.4498C-11.5455 52.4471 -11.6487 51.4108 -11.6487 50.3503V-27C-11.6487 -28.0604 -11.5455 -29.0967 -11.3487 -30.0994V-39C-11.3487 -40.8225 -12.8261 -42.3 -14.6487 -42.3ZM-119.999 62.3503C-119.999 63.8564 -119.167 65.168 -117.937 65.8503C-119.167 66.5327 -119.999 67.8443 -119.999 69.3503V170.701C-119.999 172.207 -119.167 173.518 -117.937 174.201C-119.167 174.883 -119.999 176.195 -119.999 177.701V279.051C-119.999 281.26 -118.208 283.051 -115.999 283.051H-14.6487C-12.4395 283.051 -10.6487 281.26 -10.6487 279.051V272.631C-8.38404 278.716 -2.52256 283.051 4.35135 283.051H81.7017C89.1628 283.051 95.4311 277.944 97.2017 271.035C98.9724 277.944 105.241 283.051 112.702 283.051H190.052C197.513 283.051 203.781 277.944 205.552 271.035C207.323 277.944 213.591 283.051 221.052 283.051H298.402C305.863 283.051 312.132 277.944 313.902 271.035C315.673 277.944 321.941 283.051 329.402 283.051H406.753C414.214 283.051 420.482 277.944 422.253 271.035C424.023 277.944 430.292 283.051 437.753 283.051H515.103C523.94 283.051 531.103 275.888 531.103 267.051V189.701C531.103 180.864 523.94 173.701 515.103 173.701H486.891C512.082 168.819 531.103 146.644 531.103 120.026C531.103 93.4075 512.082 71.2321 486.891 66.3503H515.103C523.94 66.3503 531.103 59.1869 531.103 50.3503V-27C531.103 -35.8366 523.94 -43 515.103 -43H437.753C428.916 -43 421.753 -35.8366 421.753 -27V1.21247C416.871 -23.9789 394.696 -43 368.078 -43C341.46 -43 319.284 -23.9789 314.402 1.21246V-27C314.402 -35.8366 307.239 -43 298.402 -43H221.052C212.215 -43 205.052 -35.8366 205.052 -27V1.21246C200.17 -23.9789 177.995 -43 151.377 -43C124.759 -43 102.583 -23.9789 97.7017 1.21246V-27C97.7017 -35.8366 90.5383 -43 81.7017 -43H4.35135C-2.52256 -43 -8.38404 -38.6653 -10.6487 -32.5802V-39C-10.6487 -41.2091 -12.4395 -43 -14.6487 -43H-115.999C-118.208 -43 -119.999 -41.2091 -119.999 -39V62.3503ZM-11.3487 186.601C-11.5455 187.604 -11.6487 188.64 -11.6487 189.701V267.051C-11.6487 268.111 -11.5455 269.148 -11.3487 270.15V279.051C-11.3487 280.874 -12.8261 282.351 -14.6487 282.351H-115.999C-117.822 282.351 -119.299 280.874 -119.299 279.051V177.701C-119.299 176.239 -118.349 175 -117.033 174.566C-116.703 174.654 -116.356 174.701 -115.999 174.701H-14.6487C-14.2912 174.701 -13.9447 174.654 -13.615 174.566C-12.2987 175 -11.3487 176.239 -11.3487 177.701V186.601ZM-10.6487 270.081V186.671C-9.38277 180.369 -4.24538 175.468 2.17635 174.554C2.88756 174.651 3.61362 174.701 4.35135 174.701H81.7017C82.4394 174.701 83.1655 174.651 83.8767 174.554C90.5861 175.509 95.8934 180.816 96.8483 187.526C96.7516 188.237 96.7017 188.963 96.7017 189.701V267.051C96.7017 267.789 96.7516 268.515 96.8483 269.226C95.7923 276.646 89.4133 282.351 81.7017 282.351H4.35135C-3.06129 282.351 -9.24271 277.08 -10.6487 270.081ZM-10.6487 184.121V177.701C-10.6487 176.195 -11.481 174.883 -12.7107 174.201C-11.481 173.518 -10.6487 172.207 -10.6487 170.701V164.281C-8.8372 169.148 -4.72434 172.896 0.367195 174.201C-4.72434 175.506 -8.8372 179.253 -10.6487 184.121ZM-13.615 173.836C-12.2987 173.402 -11.3487 172.162 -11.3487 170.701V161.8C-11.5455 160.797 -11.6487 159.761 -11.6487 158.701V81.3503C-11.6487 80.2899 -11.5455 79.2536 -11.3487 78.2509V69.3503C-11.3487 67.8889 -12.2987 66.6493 -13.615 66.2155C-13.9447 66.3035 -14.2912 66.3503 -14.6487 66.3503H-115.999C-116.356 66.3503 -116.703 66.3035 -117.033 66.2155C-118.349 66.6493 -119.299 67.8889 -119.299 69.3503V170.701C-119.299 172.162 -118.349 173.402 -117.033 173.836C-116.703 173.748 -116.356 173.701 -115.999 173.701H-14.6487C-14.2912 173.701 -13.9447 173.748 -13.615 173.836ZM-10.6487 69.3503C-10.6487 67.8443 -11.481 66.5327 -12.7107 65.8503C-11.481 65.168 -10.6487 63.8564 -10.6487 62.3503V55.9305C-8.8372 60.798 -4.72434 64.5455 0.367195 65.8503C-4.72434 67.1552 -8.8372 70.9027 -10.6487 75.7702V69.3503ZM-10.6487 78.3204V161.731C-9.38277 168.032 -4.24538 172.933 2.17635 173.847C2.88756 173.751 3.61362 173.701 4.35135 173.701H81.7017C82.4394 173.701 83.1655 173.751 83.8767 173.847C90.5861 172.892 95.8934 167.585 96.8483 160.876C96.7516 160.164 96.7017 159.438 96.7017 158.701V81.3503C96.7017 80.6126 96.7516 79.8866 96.8483 79.1754C95.8934 72.466 90.5861 67.1586 83.8767 66.2038C83.1655 66.3004 82.4394 66.3503 81.7017 66.3503H4.35135C3.61362 66.3503 2.88756 66.3004 2.17635 66.2038C-4.24538 67.1177 -9.38277 72.0189 -10.6487 78.3204ZM-10.6487 53.3803V-30.0299C-9.24271 -37.0286 -3.06129 -42.3 4.35135 -42.3H81.7017C90.1516 -42.3 97.0017 -35.45 97.0017 -27V5.91315C96.8034 7.80673 96.7017 9.72908 96.7017 11.6752C96.7017 13.6213 96.8034 15.5436 97.0017 17.4372V50.3503C97.0017 58.0619 91.2965 64.441 83.8767 65.4969C83.1655 65.4003 82.4394 65.3503 81.7017 65.3503H4.35135C3.61362 65.3503 2.88756 65.4003 2.17635 65.4969C-4.24538 64.583 -9.38277 59.6818 -10.6487 53.3803ZM97.7017 267.051C97.7017 267.789 97.6518 268.515 97.5551 269.226C98.6111 276.646 104.99 282.351 112.702 282.351H190.052C197.764 282.351 204.143 276.646 205.199 269.226C205.102 268.515 205.052 267.789 205.052 267.051V189.701C205.052 188.963 205.102 188.237 205.199 187.526C204.244 180.816 198.936 175.509 192.227 174.554C191.516 174.651 190.79 174.701 190.052 174.701H112.702C111.964 174.701 111.238 174.651 110.527 174.554C103.817 175.509 98.51 180.816 97.5551 187.526C97.6518 188.237 97.7017 188.963 97.7017 189.701V267.051ZM85.6859 174.201C91.3211 175.645 95.7575 180.081 97.2017 185.717C98.6459 180.081 103.082 175.645 108.718 174.201C103.082 172.756 98.6459 168.32 97.2017 162.685C95.7575 168.32 91.3211 172.756 85.6859 174.201ZM85.6859 65.8503C91.3211 67.2946 95.7575 71.731 97.2017 77.3662C98.9724 70.4572 105.241 65.3503 112.702 65.3503H140.914C119.109 61.1248 101.927 43.9427 97.7017 22.1379V50.3503C97.7017 57.8114 92.5948 64.0797 85.6859 65.8503ZM97.5551 160.876C97.6518 160.165 97.7017 159.438 97.7017 158.701V81.3503C97.7017 80.6126 97.6518 79.8865 97.5551 79.1753C98.6111 71.7555 104.99 66.0503 112.702 66.0503H145.615C147.508 66.2487 149.431 66.3503 151.377 66.3503C153.323 66.3503 155.245 66.2487 157.139 66.0503H190.052C197.764 66.0503 204.143 71.7556 205.199 79.1754C205.102 79.8866 205.052 80.6126 205.052 81.3503V158.701C205.052 159.438 205.102 160.164 205.199 160.876C204.244 167.585 198.936 172.892 192.227 173.847C191.516 173.751 190.79 173.701 190.052 173.701H112.702C111.964 173.701 111.238 173.751 110.527 173.847C103.817 172.892 98.51 167.585 97.5551 160.876ZM97.7017 5.95022V17.4001C100.362 42.6372 120.415 62.6898 145.652 65.3503H157.102C182.339 62.6898 202.392 42.6371 205.052 17.3998V5.95051C202.193 -21.1679 179.253 -42.3 151.377 -42.3C123.501 -42.3 100.561 -21.168 97.7017 5.95022ZM205.905 269.226C206.961 276.646 213.34 282.351 221.052 282.351H298.402C306.114 282.351 312.493 276.646 313.549 269.226C313.452 268.515 313.402 267.789 313.402 267.051V189.701C313.402 188.963 313.452 188.237 313.549 187.526C312.594 180.816 307.287 175.509 300.577 174.554C299.866 174.651 299.14 174.701 298.402 174.701H221.052C220.314 174.701 219.588 174.651 218.877 174.554C212.168 175.509 206.86 180.816 205.905 187.526C206.002 188.237 206.052 188.963 206.052 189.701V267.051C206.052 267.789 206.002 268.515 205.905 269.226ZM205.552 185.717C206.996 180.081 211.433 175.645 217.068 174.201C211.433 172.756 206.996 168.32 205.552 162.685C204.108 168.32 199.671 172.756 194.036 174.201C199.671 175.645 204.108 180.081 205.552 185.717ZM218.877 173.847C212.168 172.892 206.86 167.585 205.905 160.876C206.002 160.164 206.052 159.438 206.052 158.701V81.3503C206.052 80.6126 206.002 79.8866 205.905 79.1754C206.86 72.466 212.168 67.1586 218.877 66.2038C219.588 66.3004 220.314 66.3503 221.052 66.3503H298.402C299.14 66.3503 299.866 66.3004 300.577 66.2038C307.287 67.1586 312.594 72.466 313.549 79.1754C313.452 79.8866 313.402 80.6126 313.402 81.3503V158.701C313.402 159.438 313.452 160.164 313.549 160.876C312.594 167.585 307.287 172.892 300.577 173.847C299.866 173.751 299.14 173.701 298.402 173.701H221.052C220.314 173.701 219.588 173.751 218.877 173.847ZM217.068 65.8503C211.433 67.2946 206.996 71.731 205.552 77.3662C203.781 70.4573 197.513 65.3503 190.052 65.3503H161.84C183.644 61.1248 200.826 43.9427 205.052 22.1379V50.3503C205.052 57.8114 210.159 64.0797 217.068 65.8503ZM205.752 17.4371C205.95 15.5435 206.052 13.6212 206.052 11.6752C206.052 9.72913 205.95 7.80682 205.752 5.91329V-27C205.752 -35.45 212.602 -42.3 221.052 -42.3H298.402C306.852 -42.3 313.702 -35.45 313.702 -27V5.91329C313.504 7.80683 313.402 9.72913 313.402 11.6752C313.402 13.6212 313.504 15.5435 313.702 17.4371V50.3503C313.702 58.0619 307.997 64.441 300.577 65.4969C299.866 65.4003 299.14 65.3503 298.402 65.3503H221.052C220.314 65.3503 219.588 65.4003 218.877 65.4969C211.457 64.441 205.752 58.0619 205.752 50.3503V17.4371ZM314.402 267.051C314.402 267.789 314.352 268.515 314.256 269.226C315.312 276.646 321.691 282.351 329.402 282.351H406.753C414.464 282.351 420.843 276.646 421.899 269.226C421.803 268.515 421.753 267.789 421.753 267.051V189.701C421.753 188.963 421.803 188.237 421.899 187.526C420.945 180.816 415.637 175.509 408.928 174.554C408.217 174.651 407.49 174.701 406.753 174.701H329.402C328.665 174.701 327.939 174.651 327.227 174.554C320.518 175.509 315.211 180.816 314.256 187.526C314.352 188.237 314.402 188.963 314.402 189.701V267.051ZM302.387 174.201C308.022 175.645 312.458 180.081 313.902 185.717C315.347 180.081 319.783 175.645 325.418 174.201C319.783 172.756 315.347 168.32 313.902 162.685C312.458 168.32 308.022 172.756 302.387 174.201ZM302.387 65.8503C308.022 67.2946 312.458 71.731 313.902 77.3662C315.673 70.4572 321.941 65.3503 329.402 65.3503H357.615C335.81 61.1248 318.628 43.9427 314.402 22.1379V50.3503C314.402 57.8114 309.296 64.0797 302.387 65.8503ZM314.256 160.876C314.352 160.165 314.402 159.438 314.402 158.701V81.3503C314.402 80.6126 314.352 79.8865 314.256 79.1753C315.312 71.7555 321.691 66.0503 329.402 66.0503H362.316C364.209 66.2487 366.131 66.3503 368.078 66.3503C370.024 66.3503 371.946 66.2487 373.84 66.0503H406.753C415.203 66.0503 422.053 72.9004 422.053 81.3503V114.264C421.854 116.157 421.753 118.079 421.753 120.026C421.753 121.972 421.854 123.894 422.053 125.787V158.701C422.053 166.412 416.348 172.791 408.928 173.847C408.217 173.751 407.49 173.701 406.753 173.701H329.402C328.665 173.701 327.939 173.751 327.227 173.847C320.518 172.892 315.211 167.585 314.256 160.876ZM368.078 -42.3C340.202 -42.3 317.261 -21.168 314.402 5.95022V17.4001C317.063 42.6372 337.116 62.6898 362.353 65.3503H373.802C399.04 62.6898 419.092 42.6371 421.753 17.3998V5.95051C418.894 -21.1679 395.954 -42.3 368.078 -42.3ZM422.606 269.226C423.662 276.646 430.041 282.351 437.753 282.351H515.103C523.553 282.351 530.403 275.501 530.403 267.051V189.701C530.403 181.251 523.553 174.401 515.103 174.401H482.19C480.296 174.599 478.374 174.701 476.428 174.701C474.482 174.701 472.559 174.599 470.666 174.401H437.753C430.041 174.401 423.662 180.106 422.606 187.526C422.703 188.237 422.753 188.963 422.753 189.701V267.051C422.753 267.789 422.703 268.515 422.606 269.226ZM422.253 185.717C424.023 178.808 430.292 173.701 437.753 173.701H465.965C444.16 169.475 426.978 152.293 422.753 130.488V158.701C422.753 166.162 417.646 172.43 410.737 174.201C416.372 175.645 420.809 180.081 422.253 185.717ZM470.703 173.701C445.466 171.04 425.413 150.987 422.753 125.75V114.301C425.413 89.0636 445.466 69.0109 470.703 66.3503H482.153C509.271 69.2093 530.403 92.1496 530.403 120.026C530.403 147.901 509.271 170.842 482.153 173.701H470.703ZM465.965 66.3503C444.16 70.5759 426.978 87.7579 422.753 109.563V81.3503C422.753 72.5138 415.589 65.3503 406.753 65.3503H378.54C400.345 61.1248 417.527 43.9427 421.753 22.1379V50.3503C421.753 59.1869 428.916 66.3503 437.753 66.3503H465.965ZM422.453 17.4371C422.651 15.5435 422.753 13.6212 422.753 11.6752C422.753 9.72913 422.651 7.80683 422.453 5.9133V-27C422.453 -35.45 429.303 -42.3 437.753 -42.3H515.103C523.553 -42.3 530.403 -35.45 530.403 -27V50.3503C530.403 58.8003 523.553 65.6504 515.103 65.6504H482.19C480.296 65.452 478.374 65.3503 476.428 65.3503C474.482 65.3503 472.559 65.452 470.666 65.6504H437.753C429.303 65.6504 422.453 58.8003 422.453 50.3503V17.4371Z" fill="url(#paint0_linear_4265_22326)"/>
<defs>
<linearGradient id="paint0_linear_4265_22326" x1="-18.999" y1="-80" x2="471.001" y2="228" gradientUnits="userSpaceOnUse">
<stop stop-color="#703C76"/>
<stop offset="1" stop-color="#131313" stop-opacity="0.7"/>
</linearGradient>
</defs>
</svg>
