<svg width="154" height="32" viewBox="0 0 154 32" fill="none" xmlns="http://www.w3.org/2000/svg">
    <path d="M35.4403 6.81184L22.2473 29.6631C21.8484 30.3523 21.2753 30.9244 20.5855 31.3222C19.8956 31.7199 19.1133 31.9293 18.3171 31.9293C17.5208 31.9293 16.7385 31.7199 16.0487 31.3222C15.3588 30.9244 14.7857 30.3523 14.3868 29.6631L12.074 25.6603C12.0666 25.6503 12.0634 25.6379 12.0652 25.6256C12.0669 25.6133 12.0735 25.6022 12.0834 25.5947C12.0933 25.5873 12.1058 25.5841 12.1181 25.5858C12.1304 25.5876 12.1415 25.5942 12.149 25.6041C12.5615 26.0114 13.0618 26.3189 13.6114 26.5031C14.1611 26.6874 14.7456 26.7435 15.3203 26.6671C15.895 26.5908 16.4446 26.384 16.9271 26.0626C17.4095 25.7412 17.8121 25.3138 18.104 24.8129L29.1481 5.66483C29.4393 5.15929 29.6102 4.59352 29.6476 4.01133C29.685 3.42914 29.5879 2.84615 29.3639 2.3075C29.1398 1.76885 28.7948 1.28899 28.3555 0.905089C27.9162 0.521186 27.3945 0.243535 26.8307 0.0936363C26.8183 0.0936363 26.8064 0.0887038 26.7976 0.079924C26.7888 0.0711441 26.7839 0.0592361 26.7839 0.0468195C26.7839 0.034403 26.7888 0.0224949 26.7976 0.0137151C26.8064 0.00493525 26.8183 2.78365e-06 26.8307 2.78365e-06H31.5124C32.3091 0.000860564 33.0916 0.211318 33.7813 0.610244C34.4709 1.00917 35.0435 1.58252 35.4415 2.27273C35.8395 2.96294 36.0489 3.74571 36.0487 4.54245C36.0485 5.33919 35.8387 6.12185 35.4403 6.81184V6.81184ZM19.8222 2.78365e-06H15.2482C15.2389 0.00308142 15.2307 0.00903859 15.2249 0.017025C15.2191 0.0250113 15.216 0.0346192 15.216 0.0444787C15.216 0.0543382 15.2191 0.0639461 15.2249 0.0719325C15.2307 0.0799188 15.2389 0.085876 15.2482 0.0889546C15.5563 0.207948 15.835 0.392055 16.0654 0.628692C16.2958 0.865329 16.4723 1.14892 16.583 1.46007C16.6937 1.77122 16.7359 2.10261 16.7067 2.43157C16.6775 2.76053 16.5777 3.07931 16.414 3.36613L9.74725 14.8971C9.57501 15.1895 9.34016 15.4401 9.05957 15.631C8.77898 15.8219 8.4596 15.9483 8.12437 16.0011C7.78915 16.0539 7.44639 16.0318 7.1207 15.9365C6.79501 15.8411 6.49448 15.6748 6.24068 15.4495C6.23323 15.4396 6.22214 15.433 6.20984 15.4313C6.19755 15.4295 6.18507 15.4327 6.17513 15.4402C6.1652 15.4476 6.15863 15.4587 6.15688 15.471C6.15512 15.4833 6.15832 15.4958 6.16577 15.5057L8.50661 19.5694C8.76943 20.0254 9.14775 20.4042 9.60347 20.6675C10.0592 20.9309 10.5763 21.0695 11.1026 21.0695C11.6289 21.0695 12.146 20.9309 12.6017 20.6675C13.0574 20.4042 13.4358 20.0254 13.6986 19.5694L22.4206 4.49441C22.6837 4.03867 22.8221 3.52166 22.822 2.9954C22.8218 2.46915 22.6831 1.95222 22.4197 1.49663C22.1563 1.04104 21.7776 0.662849 21.3216 0.40012C20.8656 0.137392 20.3485 -0.000608976 19.8222 2.78365e-06V2.78365e-06ZM3.94666 2.78365e-06C3.16608 2.78365e-06 2.40304 0.23147 1.75401 0.665134C1.10499 1.0988 0.599136 1.71518 0.300423 2.43634C0.00171004 3.15749 -0.0764469 3.95103 0.0758356 4.71661C0.228118 5.48219 0.604 6.18541 1.15595 6.73736C1.7079 7.28931 2.41113 7.66519 3.1767 7.81747C3.94228 7.96976 4.73582 7.8916 5.45697 7.59289C6.17813 7.29417 6.79451 6.78832 7.22818 6.1393C7.66184 5.49027 7.89331 4.72723 7.89331 3.94666C7.89392 3.4282 7.79226 2.91472 7.59414 2.43561C7.39602 1.9565 7.10534 1.52118 6.73873 1.15458C6.37213 0.787973 5.93681 0.497289 5.4577 0.299169C4.97859 0.101049 4.46511 -0.000613325 3.94666 2.78365e-06V2.78365e-06Z" fill="url(#paint0_linear_543_5661)"/>
    <path d="M67.1184 7.1608H63.1764L57.789 19.9855L52.4279 7.1608H48.4858L56.0808 24.7685H59.5235L67.1184 7.1608Z" fill="white"/>
    <path d="M86.5267 21.536H76.7242V17.5414H85.712V14.3615H76.7242V10.3933H86.4741V7.1608H73.1501V24.7685H86.5267V21.536Z" fill="white"/>
    <path d="M110.068 7.1608H106.494V18.7766L96.7441 7.1608H93.7482V24.7685H97.3223V13.468L107.072 24.7685H110.068V7.1608Z" fill="white"/>
    <path d="M132.846 7.1608H129.272V16.8844C129.272 18.3561 128.904 19.5387 128.168 20.4323C127.432 21.3258 126.46 21.7463 125.278 21.7463C124.016 21.7463 122.991 21.3258 122.229 20.4323C121.467 19.5387 121.099 18.3561 121.099 16.8844V7.1608H117.525V16.8844C117.525 19.3548 118.234 21.3521 119.654 22.8763C121.073 24.4005 122.939 25.1627 125.278 25.1627C127.538 25.1627 129.377 24.4005 130.77 22.8763C132.137 21.3521 132.846 19.3548 132.846 16.8844V7.1608Z" fill="white"/>
    <path d="M146.773 6.7666C144.723 6.7666 143.094 7.26592 141.885 8.26457C140.676 9.26321 140.072 10.5509 140.072 12.1277C140.072 14.8609 141.596 16.5428 144.697 17.1735L148.429 17.8831C149.164 18.0408 149.69 18.2773 150.005 18.5664C150.321 18.8817 150.478 19.2759 150.478 19.8015C150.478 20.4585 150.189 20.9841 149.664 21.4046C149.112 21.8251 148.35 22.0353 147.351 22.0353C145.17 22.0353 143.856 21.0893 143.409 19.1708L139.651 19.9329C139.861 21.6149 140.65 22.9289 142.016 23.8224C143.383 24.7159 145.065 25.1627 147.01 25.1627C149.112 25.1627 150.794 24.6633 152.082 23.6647C153.343 22.6661 154 21.3258 154 19.6176C154 18.2773 153.58 17.1735 152.765 16.3326C151.95 15.4916 150.82 14.8872 149.375 14.5718L145.59 13.8097C144.408 13.5994 143.83 12.995 143.83 12.0226C143.83 11.4182 144.092 10.8926 144.618 10.4721C145.144 10.0516 145.827 9.84137 146.694 9.84137C147.588 9.84137 148.35 10.1042 149.007 10.6035C149.638 11.1028 150.032 11.7598 150.163 12.5745L153.737 11.8387C153.396 10.2881 152.607 9.05297 151.346 8.13317C150.084 7.23964 148.56 6.7666 146.773 6.7666Z" fill="white"/>
    <defs>
        <linearGradient id="paint0_linear_543_5661" x1="35.5875" y1="25.2671" x2="-5.63168" y2="-2.72439" gradientUnits="userSpaceOnUse">
            <stop stop-color="#5433FF"/>
            <stop offset="0.5" stop-color="#20BDFF"/>
            <stop offset="1" stop-color="#5CFFA2"/>
        </linearGradient>
    </defs>
</svg>
