<svg width="40" height="40" viewBox="0 0 40 40" fill="none" xmlns="http://www.w3.org/2000/svg">
  <path d="M12.2319 16.8081L19.9998 9.04047L27.7719 16.8122L32.2919 12.2923L19.9998 0L7.71191 12.2882L12.2319 16.8081Z" fill="white"/>

  <path d="M9.03989 19.9988L4.52002 15.479L-7.26789e-05 19.9991L4.5198 24.5189L9.03989 19.9988Z" fill="white"/>

  <path d="M12.2317 23.1913L19.9996 30.9589L27.7714 23.1875L32.2939 27.7049L32.2917 27.7074L19.9996 39.9994L7.7114 27.7115L7.70508 27.7052L12.2317 23.1913Z" fill="white"/>

  <path d="M35.4804 24.521L40.0005 20.001L35.4806 15.4811L30.9605 20.0012L35.4804 24.521Z" fill="white"/>

  <path d="M24.5847 19.9972H24.5866L20 15.4106L16.6104 18.8002H16.6101L16.2208 19.1897L15.4175 19.9931L15.4111 19.9994L15.4175 20.0061L20 24.5885L24.5866 20.002L24.5888 19.9994L24.5847 19.9972Z" fill="white"/>
</svg>
