<svg xmlns="http://www.w3.org/2000/svg" width="24" height="24" fill="none" xmlns:v="https://vecta.io/nano"><g clip-path="url(#A)"><path d="M12 24c6.627 0 12-5.373 12-12S18.627 0 12 0 0 5.373 0 12s5.373 12 12 12z" fill="#988430"/><path d="M12 23.616A11.62 11.62 0 0 0 23.616 12 11.62 11.62 0 0 0 12 .384 11.62 11.62 0 0 0 .384 12 11.62 11.62 0 0 0 12 23.616z" fill="#7a6a2a"/><path d="M12 23.371c6.28 0 11.371-5.091 11.371-11.371S18.28.629 12 .629.629 5.72.629 12 5.72 23.371 12 23.371z" fill="#ba9f33"/><g fill-rule="evenodd"><g fill="#cfb66c"><path d="M5.247 10.719l-.206-.186-.202-.186-.202-.192-.101-.095-.105-.091-.802-.763.816.753.095.095.101.095.202.186.202.192.202.192h0zm-3.557-.038l1.45.169 1.819.274-3.27-.443zm0 0l.821.082.408.043.206.024.202.029.816.13.408.068.408.072-.408-.053-.408-.058-.816-.12-.202-.033-.206-.024-.408-.049-.821-.111h0zm3.173.697l-1.392.365-1.392.414 2.784-.779h0z"/><path d="M4.862 11.377l-.695.196-.695.186-.691.202-.346.095-.349.095.346-.111.346-.111.691-.212.701-.177.693-.165h0zm-2.639 1.42c.114-.043 1.435-.658 1.742-.802.154-.072.6-.23.6-.23l-2.342 1.032z"/><path d="M2.224 12.796c.101-.038.196-.085.293-.13l.287-.134.577-.278.577-.278a3.7 3.7 0 0 1 .303-.111l.154-.048.154-.043-.586.258-.586.258-.586.258-.585.247h0zm.128.538l1.608-.926.913-.466-2.52 1.392z"/><path d="M2.351 13.334l.614-.379.307-.186.313-.182.313-.182a1.12 1.12 0 0 1 .159-.082l.163-.082.658-.303-.629.355-.317.169-.313.177-.313.177-.317.173-.639.346h0zm2.511-1.239l-.984.753-.949.695 1.934-1.449z"/></g><path d="M9.13 16.699l-.381-.72.221-.901 1.579-.61-.672-1.379.332-1.392.623-1.247 1.926-.303 1.415-1.35 3.056.231.6 3.268-1.155 4.115-.658 2.13-2.668.101-1.239-.858-1.45-.606-1.53-.48z" fill="#e2cc85"/><path d="M13.81 16.676s-.369.169-.998.13c-.182-.245-1.458-.359-1.458-.359s-.159-.049-.441.068-.551.101-.802.163-.499-.264-.691-.332-.447-.245-.447-.245l-.538-.052-1.08-.456-1.715-1.709-.466.73-.144.903.519 1.07 1.396 1.272 2.722.691 1.614-.475 2.021-.854.507-.544h0z" fill="#f1d789"/><path d="M4.138 10.637l.346-1.047.412-.676 1.326-.111-.398 1.161-1.109 1.973.46 1.761-.815.408-.251-.384-.202-.882-.014-.99.245-1.214z" fill="#f4ecb4"/><path d="M5.625 16.604l-.254-.355s-.068-.169-.029-.316.033-.159.014-.216-.183-.251-.173-.418-.014-.225.111-.359.091-.355.091-.355l.169.105.038-.058s.062.049.062.124c.014-.105-.043-.59.085-.701s.355.518.355.518l-.14-.913-.359-.936-.639-.854-.038-.942v-.082s-.293.45-.375.806c-.058.245.082.542.052.893-.023.35-.052.322.033.461s.293.423.212.629c-.072.177-.317.052-.317.052s-.049.144-.115.196c-.023-.085-.049-.14-.095-.192-.004.033-.014.078-.014.078l-.086-.303-.177-.681-.082.369.033.427.159.586.154.384.15.47.13.316.105.241.091.542.441.466.235.105.171-.087h0z" fill="#f3e19d"/><path d="M4.369 9.783s-.317.538-.408 1.08-.173 1.115-.115 1.852c.058.744.169 1.2.258 1.526.154.542.551 1.295.551 1.295l.014-.029a2.04 2.04 0 0 1-.159-.398c-.052-.206-.072-.45-.12-.561s-.115-.206-.149-.342c-.033-.13-.038-.336-.14-.489-.043-.062-.095-.225-.111-.388-.019-.245.01-.519-.014-.744-.043-.375-.072-.629-.033-.825s.241-.753.365-1.196c.082-.284.033-.522.182-.769s.241-.46.274-.61c.038-.136-.396.598-.396.598h.001z" fill="#f2e8b0"/><path d="M5.87 9.567s-.163.049-.241.134-.111.149-.216.287-.111.251-.196.423-.274.423-.297.515-.062.518-.111.72a.97.97 0 0 0 .049.45l.111-.023a.35.35 0 0 0 .111.241c.111.095.13-.322.13-.322l.414-1.396.623-.423.068-.342-.445-.264h0z" fill="#f5eec0"/><path d="M6.173 10.2s-.293.019-.437.124c-.058.043-.082.078-.144.13-.115.095-.231.183-.287.307-.062.124-.13.313-.177.668l-.033.408c-.019.163-.049.293-.033.384.019.186.212.284.23.495l.398-.202.375-1.478.796-.499-.451-.505-.239.166.001.001z" fill="#e6db9d"/><path d="M4.073 20.151l.005-.044.111-1.114c.062-.336.105-.461.095-.587-.014-.202-.029-.349-.01-.505.029-.206.231-.45.225-.619-.004-.134-.072-.221-.13-.303l-.105-.149s.398-.274.394-1.377c.008.002.016.006.023.01l.196.557.134.163.515.959.662.643.979.658.614.668.062 1.781-.802 1.041-.131.238a11.41 11.41 0 0 1-2.837-2.019h0z" fill="#e5cb7a"/><path d="M6.522 21.854s.014-.221.196-.365c.029.049.049.095.043.13.033-.058.264-.431.786-.528s.649-.476.649-.476l1.109-1.008 1.268-1.167 1.542-.542.721-.177s.014.052-.014.169c.134-.01.431-.078.74-.186.124-.048.241-.068.303-.004.091.085.105.287.111.408.149-.033.322-.177.461-.163.221.023.417.284.643.284.297 0 .431-.183.639-.326l.404-.264c.241-.177 2.788-.955 2.788-.955l.893.058.144.959-.077 2.508-.029.028-4.061 2.121-5.629.863a11.29 11.29 0 0 1-3.599-1.238l-.029-.128h0z" fill="#d8c173"/><path d="M4.414 20.47l.165-.357.065.558-.23-.2h0z" fill="#f1d789"/><path d="M8.526 22.83l.728-.203.062.02s.033.019.033.085c.091-.052.169-.043.225-.078.029.062.058.268.186.293.134.029.278-.058.423-.169s.307-.258.431-.317a2.31 2.31 0 0 1 .12.258c.163-.13.447-.658.851-.649a1.53 1.53 0 0 1 .561-.678c.375-.254.61-.274.903-.251.116-.151.26-.28.423-.379.049.02.183.101.35.023s.359-.379.61-.417a.59.59 0 0 1 .388.082s.73-.724 1.233-.965c-.019-.058-.058-.278.532-.763.033.029.01.111.033.115a1.37 1.37 0 0 0 .336-.202c.225-.169.495-.346.658-.394.307-.091.633.095.633.095a.29.29 0 0 1 .091-.043l.177-.038c-.004.101.053.274 0 .423a.95.95 0 0 0 .192.082c-.033.072-.105.254-.225.342.101.049.115.105.258.154a2.85 2.85 0 0 0-.196.307l-.264.614-.216.461c-.047.053-.216.278-.346.388a16.66 16.66 0 0 1 .786-.241l-.651.965a11.4 11.4 0 0 1-9.327 1.079l.001-.002z" fill="#e0cd81"/><path d="M6.221 10.148s-.169 0-.202.023.169.072.231.095.196.13.231.216 1.214.557 1.214.557l.835-.043.288-.398-.548-.48.384-1.132-.509.082-1.223.73-.614.235-.087.115z" fill="#dfc57c"/><path d="M8.055 10.522c.012.02.029.036.049.046a.13.13 0 0 0 .066.016c.173 0 .332.043.398.13.111.14.418.587.418.587l.734.264.047-.864-.802-.557-.913.336v.043h.002.001z" fill="#e5cc7c"/><path d="M7.911 10.843s.134.01.303-.053.447-.196.567-.144c.169.072.134.297.317.499.111.124.313.12.427.255s.509.072.509.072l.15.806-.6.769-.196.955h-.811l-.741-.294-.365-.883.183-.893.259-1.09z" fill="#d2c281"/><path d="M9.48 10.881c.02.006.041.01.062.01-.023.02-.072.062-.052.173s.082.25.029.336a.42.42 0 0 1 .091.159c.033.095.043.183.258.196a.43.43 0 0 0-.085.068 1.42 1.42 0 0 0 .225.25c.078-.003.283-.067.283-.067l.043.029.091-.038s-.085-.033-.023-.241c.058-.182.111-.173.115-.186a1.91 1.91 0 0 0 .043-.284c.029-.101.052-.408.052-.408l-.062-.678-.349-.212-.284-.274-.268.505-.177.176-.014.437.021.049z" fill="#e2c270"/><path d="M10.32 10.315a2.37 2.37 0 0 0 .085.313.3.3 0 0 0 .014-.082l.058.379c.02-.004.038-.01.043.01s.049.235.038.355a.97.97 0 0 1 .326-.326.57.57 0 0 1 .264-.105c.15-.004.258.095.437.095.431 0 .821-.316 1.109-.414.212-.072.394-.124.522-.241.062-.052.173-.169.274-.342.134-.23.274-.431.414-.456a.87.87 0 0 1-.192.014s.043-.043.115-.101.159-.13.283-.13c.221 0 .332.033.456.033s.196-.033.196-.033.13.091.423.091.489.029.643.043.668-.043.816-.038c.096.004.191.027.278.068l-.476-1.382-1.709-1.494-1.017.72-1.565 1.565-1.514.561-.317.355v.542h-.004z" fill="#ccb360"/><path d="M13.719 9.522s.043-.043.114-.101.159-.13.284-.13c.221 0 .332.033.456.033s.196-.033.196-.033.13.091.423.091.489.029.643.043.668-.043.816-.038a.71.71 0 0 1 .278.068l-.216-.623-.25-.476-.715-.783-.864-.509c-.004-.004-.297-.082-.297-.082l-.777.47-.705 1.823-.014.384.456.216c.115-.192.241-.346.359-.365l-.188.012h0z" fill="#d5b457"/><path d="M13.709 9.652c-.068.004-.124-.01-.14-.058-.058-.163-.105-.186-.154-.186s-.114.105-.154.114-.085-.12-.085-.12l-.043-.019s-.25.163-.427.355-.466.519-.596.577-.577.078-.73.111-.322.144-.346.169.068.052.082.078-.15.014-.163.038c-.01.019.038.13.062.186.042-.021.087-.032.134-.033.15-.004.258.095.437.095.431 0 .821-.317 1.109-.414.212-.072.394-.124.522-.241.062-.052.173-.169.274-.342a2.42 2.42 0 0 1 .218-.311h0z" fill="#d2b257"/><path d="M7.526 19.262s-.038-.144-.394-.515l-.231-.254c-.169-.159-.268-.202-.388-.293-.264-.196-.551-.196-.773-.437s-.479-.701-.658-1.171l-.225-.633c0-.014.049-.105.111-.091s.062.134.078.163a.91.91 0 0 0 .105.134c.091.105.221.23.287.418-.014-.159-.068-.336-.068-.336l.633.441c.293.225.414.303.499.447l.384.633c.097.111 1.421.528 1.421.528l.63.47.313.685-.245.384-.47.101-.763-.342-.244-.331h0z" fill="#d2b159"/><path d="M5.831 16.901s.159.254.548.495c.35.212.903.404 1.396.518.283.068.567.12.821.124.685.01 1.157-.186 1.742-.25.317-.033.705-.058 1.109-.154.518-.124.825-.264 1.243-.461l.806-.379c.316-.186.548-.394.816-.456-.033.091-.068.254-.332.423l.332-.014s-.186.111-.515.359c-.202.154-.47.414-.744.586-.177.111-.369.192-.495.258-.307.169-.431.254-.633.461a.27.27 0 0 1 .078 0s-.255.033-.437.13c-.038 0-.105-.014-.221.019-.091.029-.212.095-.336.13-.177.052-.235.029-.235.029l.029.058s-.23-.004-.307.004c-.004.012-.017.017-.029.023a.4.4 0 0 1-.12.052l-.072.01c.01.023.086.154.12.23-.029.019-.466.349-.466.349.014.021.025.044.033.068.014.043.019.105.033.134.033.058.052.068.052.068l-.144.033c-.078.019-.173.052-.307.072a1.2 1.2 0 0 1-.124.01c.019.043.105.206-.052.394s-.206.216-.254.336c-.024-.018-.05-.035-.078-.049-.052-.023-.124-.058-.149-.105a1.25 1.25 0 0 1-.058.183c-.049.13-.12.258-.134.355-.052-.058-.15-.173-.284-.149s-.241.206-.264.258c0-.033-.023-.058-.029-.019s-.078.489-.489.85l-.014-.359c-.038.038-.085.095-.365.216-.274.12-.23.241-.23.241s-.023-.192.124-.394l.241-.313c-.002-.016-.009-.03-.019-.043-.019-.02-.058-.043-.058-.058.023-.01.254-.12.241-.35a.62.62 0 0 0-.163-.388c-.01-.01.091-.082.078-.105-.01-.014-.134-.105-.149-.154a.45.45 0 0 1 .019-.085c.014-.043.023-.072.019-.101a.78.78 0 0 0-.078-.196c.014.004.111 0 .111 0s-.078-.124-.091-.183l-.058-.241c.033.004.115.01.115 0 .004-.029-.072-.078-.038-.115.023.004.068.023.111.078-.023-.062-.062-.183-.144-.231.038-.014.169-.049.284.019a.38.38 0 0 1 .154.163l.173.13c.12.095.274.23.518.326.052.029.186.029.284.01.042-.01.083-.027.12-.049a.23.23 0 0 1 .043-.019.93.93 0 0 0-.072-.12.83.83 0 0 1 .072.004s.023-.053-.082-.154c.023-.023.052-.038.052-.078a.23.23 0 0 1-.105-.072c.019-.014.049-.058.082-.072-.029-.023-.101-.12-.134-.13.032-.012.062-.026.091-.043 0 0-.163-.043-.216-.078s-.13-.105-.177-.124-.134-.029-.169-.068c.033.01.085 0 .124 0 .029 0 .043.004.052.004-.004-.014-.004-.043.072-.052.036-.005.072-.017.105-.033 0 0-.072-.004-.154-.082s-.149-.14-.196-.149-.14.033-.196.029c-.078-.01-.111-.049-.111-.049s-.258.023-.831-.326c-.495-.303-.711-.571-.711-.571-.046-.017-.091-.038-.134-.062-.186-.097-.445-.299-.437-.563l-.001.002z" fill="#c2a44d"/><path d="M12.975 5.247c.045.015.085.042.115.078.091.105.149.303-.058.515.082.029.115.038.186.029-.072.085-.235.268-.245.427-.01.13.072.169.072.169s-.124.144-.13.384a1.66 1.66 0 0 1 .192-.183 4.95 4.95 0 0 1 .476-.326.29.29 0 0 0 .013.101s.25-.206.461-.114c.095.043.052.177.052.177s.13-.049.221.043.22.327.287.418c.029.043.105.124.182.251a3.12 3.12 0 0 1 .264.557c.004-.101.029-.258.317-.159s.614.313.887.73.342.888.479 1.067c.14.173.284.46.293.581s-.043.509.245 1.559c.082-.326.206-1.051.206-1.051l.068-.639.078-1.977-2.064-1.715-1.614-1.171-1.051.101.066.15h0z" fill="#caa13e"/><path d="M16.81 8.188s-.029-.192-.515-.518-.864-.322-1.214-.596c-.268-.216-.548-.711-.73-.874-.177-.161-.206-.627-.206-.627l.596-.499.887-1.281.749-.825.359.499.499.586.278 1.177.101 1.722-.806 1.237h.001z" fill="#b59544"/><path d="M17.41 10.253a2.19 2.19 0 0 0-.095-.773 14.26 14.26 0 0 0-.538-1.37c-.053-.293-.014-.317.043-.35s.268-.154.384-.577.476-.437.476-.437l.221-.163.336.841.293.759.091.581.068.495-.159 1.047-.786.711-.334-.765h0z" fill="#c89d3a"/><path d="M6.437 21.919v-.022c.016-.01.031-.023.043-.038s.023-.043.033-.049c.019-.01.111-.038.159-.029s.177.062.245.058c.14-.004.303-.111.561-.062.388.072.48.336.705.485.154.105.313.058.336.058h.052c.01 0 .082-.081.12-.077.078.004.085.068.134.072.115.014.336-.058.447-.029.033.01.063.028.087.053a.23.23 0 0 1 .053.087c.023.072.004.163-.052.216-.12.111-.235.216-.258.307l.085.072a11.3 11.3 0 0 1-2.749-1.101v-.001z" fill="#ceb052"/><path d="M16.777 18.039l.408-.604c.105-.206-.332-2.817-.332-2.817l.878-2.876-.023-.936s.043-.864.144-1.239c.12.216.495.476.577.614.038-.264.169-.821.149-1.416.072.111.245 1.223.245 1.223l.173.749.225.796.25.841.15.581.085.14.072.245.068.264.196.619.115.509.091.922a1.4 1.4 0 0 1 .043.215c.004.101-.014.159-.014.177s.033.221.02.375c-.02.154-.02.274-.14.384s-.196.769-.196.769l-.216-.144s.043-.196-.058-.375a.38.38 0 0 0-.408-.186c-.111.023-.332.058-.404.12s-.235.254-.388.342c-.192.115-.505.124-.672.163s-.355.154-.552.287a3.08 3.08 0 0 1-.485.256v.001z" fill="#cca847"/><path d="M16.777 22.282l.038.022c1.38-.646 2.616-1.562 3.635-2.694l-.041-.945c-.033-.317-.01-.639-.019-.825a11.95 11.95 0 0 0-.163-1.142c-.052-.196-.154-.293-.169-.293a2.34 2.34 0 0 0-.095.461c0 .092-.019.313-.019.369-.014-.004-.019-.038-.019-.052l-.052.144c-.01.01.014-.081 0-.101s-.038-.01-.033-.058a.56.56 0 0 1 .014-.085s-.058.085-.101.303l-.058.241c-.014.023-.091.101-.095.13-.004.052.072.105.078.134.004.049-.068.274-.091.384s-.014.326-.038.437c-.019.101-.038.159-.105.202l.095.023s.068.287-.105.532c-.062.085-.078.124-.144.202-.13.144-.231.307-.241.414a.68.68 0 0 1-.014-.095l-.287.369c-.111.173-.264.163-.307.206s-.053.12-.038.183c-.038.01-.111.023-.159.173-.023.078-.081.154-.173.206s-.202.068-.258.082c.049.014.068.014.091.029-.029.049-.163.124-.313.221-.149.091-.221.225-.258.313-.038.082-.095.134-.186.144.038.023.095.077.124.095-.043.01-.115.01-.245.12-.136.113-.182.146-.245.155h-.001z" fill="#c39d3c"/><path d="M14.075 23.181a1.08 1.08 0 0 1 .24-.127c.303-.12.623-.144.749-.182.12-.038.216-.091.365-.12l-.011.096a11.31 11.31 0 0 1-1.344.334h.001z" fill="#d2ba6b"/><path d="M19.661 15.216s-.062.336-.173.547-.23.505-.23.505a.92.92 0 0 1 .023-.196l-.576.365c-.091.081-.245.225-.284.293l.202-.619c-.14.101-.792.639-1.132.994l-1.058.856a3.49 3.49 0 0 1-.377.176l-.557.206c.043-.115.111-.216.206-.313.101-.095.404-.423.45-.576.043-.159.052-.254-.004-.388-.052.014-.173.02-.254.043s-.169.111-.169.111.062-.355.196-.691c-.101.004-.274.033-.274.033s.241-.404.653-.685c-.126.027-.25.065-.369.115l-.701.332c.111-.154.887-1.262 1.349-2.295s.633-1.295.734-1.848c.052-.274.038-.678.052-1.041s.058-.682.029-.897c.12.149.571.571.586 1.513s-.431 2.214-.903 2.899c.115.033.414.072.72-.461s.303-.681.414-.903c.014.111.01.149.01.149s.447-.542.658-1.223c.043.293.169.552-.029 1.089-.177.485-.408.604-.408.604s.114-.019.283-.12c.029.072.023.154.072.182s.115.078.124.124c.052-.078.134-.177.159-.25-.019.154-.033.825.038 1.167.15-.014.303-.023.408-.293a1.2 1.2 0 0 0-.023.649c.08-.054.151-.151.151-.151h.001z" fill="#c0993a"/><path d="M14.615 4.513s-.149.062-.404.062c-.221 0-.159-.085-.505-.085-.532 0-2.39.307-2.716.303-.212-.004.715.091.715.091l2.367.033.476-.038.177-.36-.109-.006z" fill="#a88f33"/><path d="M8.478 9.14s-.303.231-.431.408-.196.293-.342.437a.29.29 0 0 0 .101-.014s0 .038-.023.048c.02-.002.041 0 .06.007s.037.018.051.032c-.043.023-.159.14-.068.278.068.105.212.114.212.114s-.033.095.105.086c.297-.014.629-.144.782-.111.154.038.241.053.35.241.115.186.216.216.216.216s.068-.173.052-.431a1.28 1.28 0 0 0 .091-.437l-.101-.744-.441-.557-.571.317-.043.111h0z" fill="#e3c571"/><path d="M9.019 9.029s.043.101.221.111c-.019.043-.019.049-.014.082l.01.082a.18.18 0 0 0 .052-.038c.01.043-.01.111 0 .159.006.03.016.058.029.085.003-.007.006-.013.01-.019s.038.105.134.192a.08.08 0 0 1 .01-.038c.001.024.01.048.023.068-.007-.003-.014-.008-.019-.014 0 0 .01.307.062.466a.22.22 0 0 0 .023-.033c0-.01-.004.086-.014.154s-.004.163-.004.163a.51.51 0 0 1 .114-.068c.058-.023.154-.095.212-.254a1.7 1.7 0 0 0 .078-.278c.019.036.032.075.038.115.004.049.095.023.095.023l.02-.212.115-.48.105-.297.505-.786.912-.702.796.183.672-.913-1.157-.695-1.095.115-.994 1.377-.796 1.249-.144.206h0z" fill="#d8b65b"/><path d="M14.755 7.037s-.068.014-.264.115-.332.134-.408.283-.082.268-.082.268.134-.058.212-.078.173-.014.163.019c-.009.023-.022.044-.038.062 0 0 .153-.004.149.072a.4.4 0 0 1-.058.196c-.029.038-.15.095-.163.14-.033.091.013.095-.004.169s-.078.212-.287.456c-.215.245-.307.418-.307.418s-.105-.196-.159-.365l-.245.134-.478-1.664.01-.111s.043-.052.053-.149c-.072-.023-.082-.043-.177-.134s-.173-.202-.332-.278c-.023-.043-.052-.101-.169-.124l-.186-.043s.062-.023.091-.072c-.072.01-.13.033-.287.029s-.177-.01-.264.004-.192.052-.231-.082c-.043-.033-.134-.004-.212.111s-.105.206-.254.25a.52.52 0 0 1-.068.186c-.043.072-.111.144-.202.251-.144.169-.12.447-.349.658s.038-.586.038-.586l.369-.883 1.05-1.027 1.631-.111.159.845.796.274.503.767v-.001z" fill="#d3ae4d"/><path d="M15.014 7.223l-.685-.988-.48-.369-.365-.648c-.019-.014-.342-.049-.548-.062l.038.095c.045.015.085.042.115.078.091.105.149.303-.058.515.082.029.115.038.186.029-.072.086-.235.268-.245.427-.01.13.072.169.072.169s-.124.144-.13.384a1.56 1.56 0 0 1 .192-.183 4.99 4.99 0 0 1 .476-.326.27.27 0 0 0 .014.101s.25-.206.461-.115c.095.043.052.177.052.177s.13-.049.221.043.221.326.287.418c.029.043.105.124.182.25a3.17 3.17 0 0 1 .264.557c.004-.078.019-.186.154-.186l-.204-.365h-.001z" fill="#caa13e"/><path d="M4.738 10.031s-.049-.12 0-.355.124-.346.15-.691.25-.777.25-.777l.623-.283.441.12.13.59-.557.307s-.029.13-.186.235-.375.186-.427.293c-.031.065-.054.135-.068.206 0 0-.159-.033-.254.072-.101.107-.097.202-.101.284v-.001z" fill="#f4efc8"/><path d="M5.996 9.874s-.052.033-.091.115c-.038-.062-.13-.431-.134-.763s-.024-.414.053-.529.378-.235.335-.441c-.043-.196-.221-.278-.441-.221-.154.038-.268.365-.427.528-.12.124-.264.105-.303.173-.052.091-.004.183-.019.241-.004.019-.052.124-.14.25-.177.254-.476.614-.515.936.014-.182.004-.186.052-.388l-.029-.049.192-.629.124-.518.278-.868.489-.887.476-.532.495.033.058.744.284 1.396.596.734-.955.643-.379.033h0z" fill="#ebcc73"/><path d="M6.293 10.138s-.082.019-.111.004-.058-.033-.049-.053.062-.052.062-.068-.003-.028-.012-.039-.022-.018-.036-.019c-.045-.006-.058.023-.058.023s-.043-.033-.078-.038a.54.54 0 0 1 .062-.004.63.63 0 0 0-.169-.049c.049-.029.144-.115.206-.115s.101-.01.091-.043-.058-.082-.111-.101c.019-.023.033-.058-.014-.154s-.029-.159-.014-.182c.014-.029.062-.082.085-.115s.043-.078.082-.101a1.02 1.02 0 0 1 .144-.062c.068-.023.124-.052.163-.023s.023.068.023.068.134-.049.254.014.414.095.414.095l.105.212-.695.596-.287.144-.058.01h0z" fill="#e5c66b"/><path d="M7.258 9.163l-.264.196c.029.004.078.023.058.052s-.163.13-.241.225-.159.216-.186.274c-.029.052-.25.206-.326.225.159 0 .48-.196.6-.196-.004.058.033.124.101.13s.264.043.528-.12.177-.278.287-.355c.212-.14.297-.264.414-.342s.177-.095.177-.095.004-.058.038-.052c.009.001.018.005.026.011s.013.014.017.022c0 0 .202-.144.461-.183-.014-.014.006-.023.01-.033 0 0 .014-.019.023-.01s.023.082.043.111c.043-.019.124-.202.124-.202l.196-.561v-.513l-.154.029-1.152.489-.699.724-.082.173h.001z" fill="#e6bd62"/><path d="M10.575 6.649a.65.65 0 0 0 .177-.072c-.023.062-.023.13-.124.278s-.105.169-.186.322c-.082.159-.091.388-.169.489.035-.017.072-.028.111-.033 0 0-.078.068-.111.14s-.091.221-.235.313-.326.149-.522.365l-.499.576a1.44 1.44 0 0 0 .144-.394c.019-.12-.004-.264.029-.423s.033-.274.192-.552.431-1.243.431-1.243l.586-.186.177.419v.001z" fill="#b6933f"/><path d="M10.151 6.293s-.177.254-.225.48-.004.206-.033.317c-.017.068-.017.138 0 .206a.73.73 0 0 1 .244-.241c.167-.101.303-.173.384-.258.082-.091.149-.241.326-.355-.072-.01-.173-.043-.192-.038.072-.082.287-.206.505-.355s.202-.216.551-.369c-.114.019-.169-.01-.264 0 .038-.082.173-.12.307-.254s-.085-.332-.085-.332l-1.024.619-.495.583v-.001z" fill="#c49937"/><path d="M7.373 5.831l.023-.186.293-.47.307-.825V3.221l-.023-.652.049-.427.037-.136.039-.052.25.13.346.47.033.907-.336 1.431-.959 1.047-.058-.107z" fill="#dfc068"/><path d="M8.136 1.901s-.154.004-.186.643l-.072 1.291c-.023.317-.078.509-.105.695s-.043.441-.13.596c-.038.072-.12.297-.313.466a1.93 1.93 0 0 1-.586.326c-.086.019-.519.062-.695.159-.062.033-.169.072-.287.183-.235.212-.548.59-.773 1.047-.346.682-.691 2.606-.691 2.606l.078-.13s.01-.173.183-.476.12-.643.355-1.223l.346-.753c.221-.398.489-.74.759-.926.441-.303.926-.369.926-.369l.522-.346.212-.379c.169-.283.384-.6.431-1.06.072-.682-.101-1.128-.091-1.532s.014-.701.095-.773.023-.045.023-.045h0z" fill="#a88f33"/><path d="M8.136 4.95s.23-.567.336-1.07l.068-.283c.049-.476.062-.672 0-.932-.049-.192-.235-.365-.332-.499-.095-.14-.14-.192-.12-.221s.095-.078.169-.072a.58.58 0 0 1 .414.192c.15.173.268.759.268.759l.125.774.317.975-1.243.379h0z" fill="#c99e3d"/><path d="M10.301 4.359s-.043.019-.12 0c.003.032-.002.064-.016.092s-.035.053-.062.071c-.082-.033-.845.033-.845.033s-.355-.062-.466-.532c-.078-.313.058-.744.014-1.027-.068-.418-.163-.499-.173-.629l-.019-.245c-.043-.01-.068-.023-.111-.023-.01-.038.01-.072-.033-.14.023.01.183.029.369.206.154.144.154.196.177.225.029.029.264.23.365.431s.297.841.342.946c.014.043.043.086.115.183.113.14.278.371.464.41h0z" fill="#b58634"/><path d="M9.043 2.4a5.38 5.38 0 0 1 .316.59c.115.258.183.47.326.643l-.297-.825c-.091-.166-.278-.346-.346-.408h0z" fill="#a88f33"/><path d="M7.722 5.592s-.196.049-.561.241l-.346.163a6.03 6.03 0 0 1-.841.317l.029.033s0 .095.052.149c-.029.029-.418.293-.303 1.177l.182-.068c.023.004.029.068.058.068s.124-.038.225-.169c-.004.052-.062.581.25.936.058-.068.206-.293.206-.293l.004-.072s.014-.251.095-.48.241-.398.241-.398l.831-1.186-.124-.417h0z" fill="#e6c367"/><path d="M6.946 7.334a.46.46 0 0 1-.124.062.48.48 0 0 1 .082-.379c.134-.196.427-.451.509-.653.052-.13.029-.456.495-.874l.648-.561.753-.379.926.365-.46 1.804-.357.845-1.421-.268-1.051.038h0z" fill="#dcba5a"/><path d="M7.488 6.845l.177-.221v-.157s.196-.052.408-.268.505-.629.763-.604.284.561.293.711.043.489.095.672c.058.183-.629.874-.629.874l-.467.355-.64-1.361z" fill="#e9ce77"/><path d="M8.035 8.687s.144-.225.038-.274c.062-.14.177-.287.177-.287s.082-.202.346-.45.427-.414.47-.581a1.53 1.53 0 0 0 .043-.332.63.63 0 0 0 .091.062c.043.019.245.186.216.522s-.154.476-.154.476-.12.12-.206.183-.124.134-.278.14c.016-.013.034-.022.052-.029 0 0-.159-.019-.245.058s-.267.317-.359.388l-.192.124h0z" fill="#cdae50"/><path d="M14.491 4.911a2.34 2.34 0 0 0-.714-.14c-.408-.014-1.004.01-1.588.014-.629.004-1.2-.216-1.992-.254-.13-.078-.461-.418-1.493.303.062-.004.75-.159.988.14s.173.802.14.922c-.062.268-.264.658-.346.932s-.062.418-.12.61-.186.287-.111.509c.101-.062.154-.062.322-.441s.134-.649.414-.969c.274-.322.73-.763.903-.874s1.55-.825 2.99-.144c.348-.037.608-.608.608-.608h0z" fill="#d2a83e"/><path d="M9.284 4.646c-.001-.015-.005-.029-.01-.043-.013-.028-.031-.055-.052-.078 0 0-.342-.062-.515-.043-.303.033-.577.408-.705.6s-.287.489-.46.643c.002-.015-.002-.03-.01-.043 0 0 .01.014-.01.033s-.019.029-.01.038l.029.029c.01 0 .278-.12.643-.461.388-.355.685-.538.841-.6a1.16 1.16 0 0 1 .258-.076h0z" fill="#c29637"/><path d="M15.913 3.187l-.14.163-.59.6-.619.623-.567.643c-.062.085-.111.225-.111.297l-.072-.049a.54.54 0 0 0 .058.086l.163.206c.048.066.082.142.101.221.023.004.173.033.359-.274l.431-.643.388-.577.245-.489.307-.548.047-.26h0z" fill="#ac8132"/><path d="M16.311 2.794s-.235.192-.326.307l-.307.418.078-.01.394-.349.154-.274.008-.091v-.001z" fill="#a88f33"/><path d="M16.239 18.225s-.004-.159.085-.254.322-.235.548-.759l.25-.643s-.404.346-.653.427l.12-.268c-.033-.029-.173-.062-.186-.078.078-.078.12-.268.278-.394l.858-.653c.287-.235.85-.782.922-.942.043.062.052.101.052.101l-.431.604c-.13.202-.12.317-.12.317l.268-.115s.078.287-.274.724c.154-.058.216-.023.303-.072-.144.091-.342.216-.528.557s-.431.74-.85.988l-.643.458.001.001z" fill="#a67a2e"/><path d="M15.186 5.113s-.159.332-.183.59c-.004.062-.019.111-.019.183-.004.231.014.489-.038.61-.019-.049-.029-.082-.049-.101-.029.082-.082.336-.124.431-.019-.062-.062-.278-.058-.532l.01-.355c-.01.078-.062.183-.082.245l-.101-.177c-.023.038-.052.095-.078.124a1.74 1.74 0 0 1-.019-.173l-.004-.258a1.17 1.17 0 0 1 .264-.447c.206-.225.418-.658.48-.792l.326-.691h.202l-.293.668-.268.499c-.091.134-.284.519-.369.668.062-.082.115-.124.177-.202.06-.054.227-.289.227-.289h0z" fill="#8c6228"/><path d="M16.315 2.769c-.033.102-.085.196-.154.278-.12.144-.379.336-.505.489-.115.15-.346.557-.241 1.041.038-.105.111-.313.303-.548s.398-.505.499-.714.114-.379.114-.379l.038-.049-.023-.111-.033-.008h.001z" fill="#cba94c"/><path d="M20.247 15.648s-.078-.212-.101-.404.038-.23-.033-.45c-.043-.134-.12-.115-.14-.134s-.033-.221-.029-.332-.004-.254-.023-.317c-.029-.023-.049-.043-.091-.186l-.095-.258c-.023-.043-.091-.082-.091-.124 0-.085.078-.13.078-.154-.004-.048-.062-.01-.078-.023-.019-.023.049-.163.023-.183-.01-.01-.078.072-.095.049s-.043-.254-.078-.408l-.072-.303c-.004-.043-.268-.796-.332-.979a4.63 4.63 0 0 1-.13-.47l-.043-.258c-.01.02-.004.115-.02.111s-.062-.336-.077-.388-.095-.23-.115-.359l-.091-.701-.043-.384a2.39 2.39 0 0 0-.023-.423 3.83 3.83 0 0 0-.183-.714l-.538-1.369c0-.052.068-.023.068-.023l.293.749.264.643c.023.029.206.349.287.874l.159 1.33c.023.154.043.317.091.48.052.177.134.359.241.639.091.235.159.431.196.6.043.216.043.379.068.486l.14.538.283.815c.159.423.23.777.254.965l.074 1.068h0z" fill="#a88f33"/><path d="M16.324 2.746l-.01.023s.029.01.023.049a1.16 1.16 0 0 1-.01.159c-.01.068-.029.12-.033.163 0 .091.014.196-.115.456-.038.072-.062.134-.082.177a.53.53 0 0 1-.101.169c.068-.038.313-.192.437-.169a.91.91 0 0 0-.297.268c.02.004.101.019.23 0 .216-.033.456-.111.668-.095.231.014.14-.278.14-.278l-.267-.586-.505-.355-.08.019h0z" fill="#be9c44"/><path d="M17.641 7.138s-.225-.225-.316-.998-.072-1.92-.072-1.92l-.183-.447s-.038-.297-.134-.408l-.369-.388c-.085-.091-.183-.216-.241-.235.029-.049.159-.322.658-.326s.653.274.705.375.287.538.375 1.37l.072 1.181a6.65 6.65 0 0 1-.154.922c-.083.334-.175.707-.342.876v-.001z" fill="#a17c34"/><path d="M16.934 7.8a.38.38 0 0 0 .216-.049c.072-.004.332.029.532-.225.014.058.049.216-.043.355.049-.049.12-.068.13-.082.004.072.072.293-.216.831.078-.085.169-.082.25-.091.004.101.058.441-.085.623-.095.124-.251.085-.251.085a.56.56 0 0 0 0-.082c-.004-.052-.023-.105-.01-.14-.075-.034-.143-.082-.202-.14-.169-.159-.388-.431-.404-.633-.02-.225.182-.274.182-.274-.017-.015-.031-.033-.043-.052-.01-.033-.02-.085-.058-.128z" fill="#8c6228"/><path d="M15.437 5.357s-.01-.014-.062.049l.023-.177a.63.63 0 0 1 .095-.144l-.049.111s.072-.134.177-.216c.072-.058.163-.085.202-.14s.033-.068.043-.078c0 0 .095-.062.241-.245.019-.023.049-.049.068-.072l.202-.095.268-.154c.13-.058.268-.052.332-.144.049-.014.101-.159.091-.283.072.029.441.258.567.759.091.355-.072.903-.14 1.167s-.078.46-.173.58c-.12.159-.509.384-.604.495-.082.091-.326.322-.317.489.01.124.163.192.196.216s.033.052.095.038.085-.043.111-.043.029.01.043.01.02-.002.029-.004c0 0-.01.177-.423.23-.029.004-.058.014-.095.019.049-.023.078-.023.13-.095l-.268-.033a.53.53 0 0 1 .095-.115c.037-.029-.004-.038-.033-.023-.05.034-.098.071-.144.111s-.091.101-.169.154a.38.38 0 0 1 .072-.332c-.023.004-.068.072-.111.058a.62.62 0 0 1 .014-.212c.023-.087.149-.241.149-.241l.61-1.089.13-.825-1.396.271h0z" fill="#92723a"/><path d="M15.404 5.404s-.033.023.033.068c-.01.014-.033.062-.062.095-.033.038-.068.062-.082.095-.029.068-.052.115-.052.144s-.01.216-.091.336c-.029.043-.062.115-.085.163l-.101.192c-.019.068-.033.254-.033.254l.058-.072a.55.55 0 0 1-.085.14l.206-.169c.159-.134.408-.359.711-.538-.091.033-.169.033-.231.043.049-.049.485-.561.715-.61.014-.018.021-.04.02-.062l-.196-.019-.398.085-.058-.307-.266.161h0z" fill="#b18e3e"/><path d="M16.037 7.151s-.053.052-.101.183a.64.64 0 0 1-.095-.13c-.072-.12-.182-.274-.441-.186-.004-.082-.01-.124 0-.183.043-.01.173-.114.303-.268a1.24 1.24 0 0 0 .235-.379l.192-.134c.124-.085.274-.202.297-.332-.058.023-.183.082-.369.072.072-.033.183-.068.169-.212l.052-.033c-.022-.007-.045-.011-.068-.01-.004-.014-.01-.033-.043-.023s-.038.01-.043.023c-.014.004-.058 0-.091.023s-.124.101-.159.114l.033-.058s-.095.01-.163.038c-.124.043-.268.12-.414.196.014-.023.02-.038.029-.043s.033-.01.033-.014-.01-.038-.004-.052a1.7 1.7 0 0 1 .154-.264c.068-.091.082-.221.082-.221l.297-.15.835-.192.542.033-.068.375-.32.654-.274.596-.313.365-.287.21h0z" fill="#543e26"/><path d="M17.39 5.53s-.326.404-.418.466l.548-1.07c-.029-.023-.068-.023.023-.384-.078.182-.105.278-.169.326s-.072.033-.115.033c.008-.015.012-.032.01-.049l-.461-.033c-.187 0-.557.101-.763.183-.163.068-.254.068-.313.111-.058.049-.091.101-.12.115-.023.014-.134.049-.159.085l-.062.091c0 .009-.01.023.019.014a2.69 2.69 0 0 0 .163-.091l.342-.177c.278-.111.365-.091.489-.115.13-.023.317-.078.441-.078l.414.01c-.023.019-.043.043-.033.124 0 .023-.02.049-.038.105l-.23.557c-.085.182-.182.336-.23.431s-.154.346-.258.48l-.192.245c-.033.029-.268.202-.25.264a1.3 1.3 0 0 0 .509-.336c.196-.221.235-.355.388-.476s.274-.322.346-.489c.06-.155.047-.204.122-.342h0z" fill="#806031"/><path d="M10.359 8.544s-.043.177-.14.264-.264.159-.283.303.169.216.169.216S10 9.5 10 9.63s-.004.159.01.287c-.015.01-.029.023-.038.038a.32.32 0 0 0 .105.202c.095.078.177.124.225.105l.019.049.12-.342c.049-.163.091-.14.111-.359s.23-.596.23-.596l.144-.322-.235-.183-.332.035h0z" fill="#b6903c"/><path d="M10.796 8.86c-.049.05-.093.103-.134.159-.062.085-.111.163-.202.196s-.149.033-.144.124.091.13.14.177.095.13.072.221c.029-.014.082-.029.13-.134l.388-.744h-.25 0z" fill="#685026"/><path d="M12.135 7.386s.029-.078 0-.134-.206-.078-.293-.144-.202-.115-.293-.085c.014-.033.068-.105.023-.12s-.202.058-.245.091-.14.072-.159.095-.052.068-.072.049-.029-.049-.062-.029-.192.15-.221.225a1.15 1.15 0 0 1-.293.437c-.198.192-.284.317-.225.388s.085.019.095.082a.47.47 0 0 1-.01.183c-.023.101-.062.196-.01.216.134.043.264-.038.293-.014.058.052-.033.241.105.278s.278-.033.278-.033l.509-.274.489-.258.25-.495-.134-.414-.026-.043h.001z" fill="#d4b968"/><path d="M11.654 8.569s-.086-.13.019-.245.254-.163.313-.235c-.011-.014-.026-.024-.043-.029.039-.069.098-.125.169-.159-.029-.029-.068-.052-.111-.052-.095 0-.154.058-.241.058s-.095-.043-.095-.043.144-.014.13-.078-.038-.068-.038-.068.278-.115.326-.177.043-.134.052-.163c.033 0 .225-.101.303-.058s.023.159.023.159.235-.177.355-.35c.105.01.154-.072.23-.072.095 0 .245.13.274.408.02.159.049.25.02.532-.014.159-.01.499.038.668.033.134.111.12.111.12-.012.041-.036.077-.068.105-.053.049-.058.177-.053.225l.029.105s-.062.072-.078.12-.078.082-.124.082-.023-.004-.085 0-.082.014-.12 0-.068-.029-.052-.154-.48-.414-.48-.414l-.806-.287.002.001z" fill="#cca849"/><path d="M10.728 9.796s.177.235.903.235c.346 0 .466-.033.538-.052.078-.019.369-.134.662-.48.264-.313.206-.441.206-.441l-.154-.023-.499.068-1.477.629-.179.064h.001z" fill="#585136"/><path d="M11.27 9.854s-.629.14-.629-.258c0-.388.388-.796.486-.868s.342-.154.342-.154h.581l.111.293-.049.633-.841.353h0z" fill="#252211"/><path d="M11.851 8.693s-.12-.111-.394.038-.495.461-.509.744c-.014.25.206.437.548.447a1.74 1.74 0 0 0 .486-.038l-.12-.15-.01-1.041h0z" fill="#c3b378"/><path d="M11.732 8.755s-.029-.023-.115.023c-.072.038-.177.14-.258.212-.053.043-.085.062-.115.095-.12.144-.222.379-.163.495s.25.25.74.159l-.09-.984h.001z" fill="#e6d89c"/><path d="M11.573 8.996s-.078.12-.078.313.111.509.518.532c.313.019.522-.45.749-.633.173-.14.278-.144.278-.144s-.177-.192-.648-.441c-.466-.25-.988-.284-1.272.101.134-.01.567-.12.567-.12l.212.068-.326.324h0z" fill="#252211"/><path d="M12.183 9.25c-.013-.029-.023-.068.033-.078s.082-.004.101.038.038.078.01.095-.105 0-.144-.056h0zm-.091-.274s-.019.014-.01-.014c.004-.033.029-.091.091-.078s.049.082.038.101-.062.052-.101.038c-.017-.01-.02-.015-.022-.019-.002-.02 0-.025.003-.029h.001z" fill="#6f674d"/><path d="M6.835 9.101a.6.6 0 0 0 .332.111c.177-.004.404-.186.509-.303l.173-.196c.049-.049.082-.072.105-.105.033-.038.068-.111.085-.134-.043.033-.105.091-.169.13a2 2 0 0 1-.25.13c-.052.019-.596.307-.596.307l-.188.06z" fill="#ac924c"/><path d="M7.07 7.666s.085-.058.25-.095c.159-.038.48-.068.48-.068l.264.115.105.398-.192.414-.245.154-.278-.447-.384-.47v-.001z" fill="#9f8e57"/><path d="M6.724 8.021l-.091.068s.023-.043.043-.173.12-.447.268-.629l.144-.173c-.014-.002-.028-.002-.041.001s-.026.009-.037.018a.93.93 0 0 1 .268-.273c.124-.077.173-.101.303-.038s.163.095.258.091.177-.105.177-.105.019.062-.052.206-.355.437-.355.437l-.59.404-.293.166h0z" fill="#eac970"/><path d="M7.161 7.618s.427.058.557-.062c.004.014.019.014.019.023s-.004.014-.01.019l.043-.004c.017.005.035.008.052.01s.029-.002.043-.004c-.001.01-.005.019-.01.027s-.012.016-.02.021c.019 0 .038.004.038.019s.004.062-.019.072-.04.004-.058-.004a.24.24 0 0 0 .029.105c.038.072.12.154.23.13 0 0 .058.14-.187.45l-.111.149a.57.57 0 0 0-.038.115s.414-.159.532-.522a2.77 2.77 0 0 0 .12-1.06c-.004-.095-.019-.163-.043-.212-.058-.12-.221-.101-.287-.033-.095.095-.254.332-.476.495s-.235.192-.408.264h.001z" fill="#d7bc6b"/><path d="M6.649 8.142s-.082.049-.124.23.038.414.085.485.154.268.375.278a.41.41 0 0 0 .159-.033c.077-.035.15-.08.216-.134.095-.072.173-.134.163-.14-.023-.01-.586-.476-.586-.476l-.212-.236-.076.026h0z" fill="#585136"/><path d="M7.181 8.915s.115-.01.183-.052-.398-.505-.398-.505l.033.499.183.058z" fill="#453a25"/><path d="M6.685 8.107s-.058.111-.058.14a2.45 2.45 0 0 0 .043.489c.023.101.149.254.313.254.101 0 .241-.062.241-.078s-.144-.038-.183-.111c-.023-.038-.033-.134-.038-.23-.004-.062-.004-.13.019-.154.052-.058.062-.225.062-.225l.186-.346h-.245l-.293.183-.047.078z" fill="#84754b"/><path d="M6.614 8.214s.192-.254.365-.313.25-.023.25-.023l-.101.258-.144.159.01.082s-.023.216.12.365.25.144.313.144.241-.052.332-.268c.082-.202.149-.461-.014-.72s-.441-.268-.495-.268-.482.021-.637.584h0z" fill="#252211"/><path d="M11.544 9.078c-.072-.033-.004-.235.068-.297s.163-.134.322-.144c.058-.004.114.033.105.072-.014.072-.115.173-.206.245-.126.099-.208.161-.29.124z" fill="#f7f7e7"/><path d="M7.66 7.977c.052-.004.12.038.134.095s-.033.186-.134.186c-.082 0-.124-.101-.124-.13.001-.024.008-.047.019-.068.004-.006.014-.074.105-.084z" fill="#f8f6de"/><path d="M6.903 8.021s-.134.062-.196.192a.51.51 0 0 0-.038.307c.01.049.058.169.091.212s.078.072.111.068.101-.091.101-.144.004-.274.068-.394c.056-.12-.136-.241-.136-.241h0z" fill="#d4c38b"/><path d="M6.922 8.012c-.023.014-.062.033-.052.058s.091.038.12.095.033.12.023.149a.25.25 0 0 0 .068-.049c.043-.049.095-.114.14-.114.029 0 .058.014.085.014.043 0 .085-.014.091-.058.01-.058-.082-.111-.134-.101.01-.038.023-.095-.019-.134s-.177.029-.206.049-.116.091-.116.091h0z" fill="#e2d59d"/><path d="M10.008 12.091l.287-.085.082.058s.058.124.149.14c-.029.062-.105.115-.101.159s.043.078.043.078-.258.427.25.858l-.355.154c.058.014.182.038.235.085s.053.062.101.091.078.068.068.085c-.033-.02-.144-.078-.163-.023s-.48.033-.48.033l-.777.149s.029-.078-.052-.149c-.095-.085-.212.004-.336-.091-.163-.124-.169-.268-.221-.322.052-.033.159-.082.414-.115-.01-.019-.043-.078-.023-.13.023-.068.12-.111.091-.192.043-.01.062-.01.169-.144.101-.134.163-.163.241-.173s.124 0 .268-.134c.101-.095.068-.177.068-.177s.066-.021.043-.155h0z" fill="#cbac5a"/><path d="M9.159 12.135c.004-.019.019-.029.124-.019s.769-.062.949-.072.825-.004 1.138.062l.782.183c.154.043.202.058.196.077s-.038.038-.058.033-.528-.159-.685-.192-.701-.12-.998-.115c-.278.004-.388-.004-.623.023s-.623.068-.74.052-.091-.014-.086-.033h0z" fill="#d6bc6f"/><path d="M10.722 13.656s.398.216.542.48c.105.196-.062.293-.062.293s.225 0 .196.124c-.013.078-.388.287-.639.398s-.245.105-.369.124-.451-.038-.519.058-.038.196-.019.212.177.033.177.033-.033.091-.359.101-.408.033-.427.068.062.014.212.038l.359.038s-.068.058-.245.105c-.202.052-.519.101-.614.159.049.033.12.082.154.085a.97.97 0 0 0-.216.078l.068.043s-.163.196-.258.245-.643.303-.831.254c-.47-.124-.528-.639-.643-.678-.173-.058-.254.058-.408-.023.068-.049.105-.078.177-.111-.078-.038-.48-.293-.48-.293-.042-.092-.089-.181-.14-.268l-.278-.47c-.186-.346-.196-.505-.365-.701.029-.038.13-.033.13-.033l1.416.466 2.51.073.653-.932.278.033h0z" fill="#dfc677"/><path d="M7.004 15.078a.22.22 0 0 0 .052.043c.049.033.12.072.169.13.019-.029.068-.082.154 0s.192.023.258.043.072.033.072.033.038-.033.124-.068c.052-.019.115-.033.183-.052.062-.014.13-.033.177-.033.043.029.196.192.812-.049.581-.225.714-.251.812-.216.01-.023.019-.068.169-.062 0-.062-.124-.274-.124-.274l-.685-.235H8.8l-1.124.206-.623.356-.049.179h0z" fill="#c4a859"/><path d="M6.629 14.683s.014.105.169.216.202.177.202.177.029-.038.052-.077.043-.091.082-.105c.078-.033.254.029.293.019.033-.01.023-.078.058-.078.082-.004.134.052.163.052s.101-.004.111-.019.014-.177.124-.254c.12-.085.268-.049.307-.029 0 .029.004.101.082.105s.085-.01.154.014.15-.004.186.111c.033-.01.111-.019.091-.13.038-.029.072-.049.154-.163.019-.029.052-.062.078-.105.068 0 .15-.014.258.082-.033.023-.052.038-.062.062a.85.85 0 0 1 .078.091c.029.038.049.086.085.095.082.023.216-.01.365 0 .144.01.264.062.317.095.019-.01.019-.014.068-.004s.085.014.033-.049c.029.014.062.043.091.014s.052-.072.134-.082.111.004.144-.082c.043-.105-.105-.105-.105-.105l.144-.144c.091-.085.196-.196.221-.332.043-.25-.202-.283-.202-.283l-1.186.365-1.45-.072-1.237.616H6.63z" fill="#927d49"/><path d="M5.563 11.256s-.038.049-.062.163l-.033.183c-.019.082-.258.893-.169 1.167s.245.375.342.596c.019.049.038.078.049.12.033.144.004.254.043.398a.44.44 0 0 0 .101.163c.115.12.303.235.384.316.114.12.278.365.485.388a.7.7 0 0 0 .398-.111c.115-.072.186-.173.307-.23.085-.043.177-.058.258-.078.169-.033.322-.038.414-.019.14.029.47.13.653.13a1.78 1.78 0 0 0 .423-.058l.835-.284c.13-.038.235-.048.342-.072.182-.043.336-.101.423-.212-.058-.068-.13-.173-.519-.169-.441.01-.949.254-1.2.293s-.359.072-.639-.029c-.274-.102-.283-.169-.283-.169s-.288-.201-.408-.715 0-.887.313-1.243c.082-.091.062-.173.062-.173s.206-.278.149-.538-.46-.206-.46-.206l-2.208.386h0z" fill="#6e6342"/><path d="M5.895 12.12a.2.2 0 0 0-.023.105c.004.052.019.12.177.274.134.134.105.283.105.283s.067.013.25-.072c.144-.068.192.053.192.053.042-.022.087-.036.134-.043s.083-.017.12-.038a1.73 1.73 0 0 0 .317.254c.134.072.212.12.278.072.062-.043.062-.13.058-.169-.015-.036-.035-.07-.058-.101-.043-.062-.111-.134-.115-.192-.01-.134.101-.293.078-.332s-.111-.049-.326.029c-.223.074-1.186-.122-1.186-.122h.001z" fill="#39331f"/><path d="M6.404 12.989s-.111-.105-.072-.614a.6.6 0 0 1 .14.014s.06.394-.068.6z" fill="#292311"/><path d="M5.616 10.868c.015-.011.03-.024.043-.038-.038.072-.216.359-.072.812s.505.786.95.802.678-.202.946-.528l.332-.404c.159-.173.284-.222.284-.388 0-.342-.35-.495-.864-.649s-.979-.134-1.219-.03c-.235.115-.336.235-.398.423h0z" fill="#252211"/><path d="M7.268 13.142l.038-.019s.01-.154.072-.15c.062.01.091.091.085.12s-.019.078-.082.072c-.082.002-.114-.023-.114-.023h0z" fill="#3f3824"/><path d="M7.095 12.489s.038-.014.085.033c.038 0 .206-.019.258.014s.068.062.068.062-.196.043-.303 0c-.109-.037-.109-.109-.109-.109z" fill="#2d2815"/><path d="M7.959 12.518a.48.48 0 0 0-.216-.105c-.019-.004-.023.01-.038.01-.01-.004-.014-.033-.014-.033l-.063.033s-.01.014.023.038.078.043.091.082.014.052.019.058.072 0 .105-.02.095-.051.091-.064h0z" fill="#82764f"/><path d="M6.979 12.913s.019-.134.149-.14.159.12.159.12l-.078.078c0-.002-.058-.083-.23-.058h-.001z" fill="#2d2816"/><path d="M7.823 12.336s-.072.078-.231.101c-.014-.019-.043-.058 0-.12s.091-.082.14-.062c.021.003.041.013.058.027s.028.033.034.054z" fill="#574f35"/><path d="M8.116 12.431c.004-.019-.01-.023 0-.033s.062-.029.072-.019c.004.004 0 .019 0 .038s0 .038-.01.052c-.014.019-.052.029-.072.023s-.023-.033-.023-.038c.01-.004.033-.014.033-.023zm.332-.21c0-.01.033-.029.052-.029.029 0 .029.023.033.029.01.004.01-.004.019.014s.023.049.014.068-.049.033-.058.029a.5.5 0 0 1-.06-.111z" fill="#82764f"/><path d="M7.781 12.476a.27.27 0 0 0 .101.058c-.019.013-.049.029-.049.029s-.004-.045-.052-.087h0z" fill="#6e6342"/><path d="M7.686 12.049c-.01-.01.029-.033.052-.029s.033.019.058.023.029-.01.038-.019.043-.004.049 0c.019-.014.023-.02.029-.025s.016-.009.025-.011.018-.001.027.001c.004.014.023.062.019.072s-.062.023-.072.014c.01.023.052.072.058.082s-.043.033-.062.029c-.027-.002-.194-.099-.223-.136h.001zm.254-.322c-.004-.01-.01-.018-.019-.023s-.058 0-.058.023a.72.72 0 0 0 .082.221c.049.068.082.124.115.14.01.005.022.005.033.002s.02-.011.025-.021.014-.082.01-.25l-.019-.342c-.01-.01-.049-.01-.062.01a1.81 1.81 0 0 0-.105.241h0z" fill="#585136"/><path d="M7.767 12.72s-.068-.043-.134-.014-.058.144-.058.144c.014.005.029.008.044.006s.029-.007.042-.015c.043-.029.097-.078.107-.12h0z" fill="#574f35"/><path d="M7.895 12.874c-.004-.038-.038-.038-.038-.058.002-.009.008-.018.016-.024s.017-.009.027-.009c.019 0 .038.023.062.038s.058.038.062.068-.038.111-.085.111-.033-.087-.043-.126v.001zm.375-.053s-.078.023-.072 0 .023-.029.049-.029c.013-.013.03-.022.049-.023.011-.001.021.003.029.01 0 0 .052-.023.068-.01s.004.014.014.029.02.037.023.058c0 .016-.058.049-.105.043-.054-.012-.045-.068-.054-.078zm.452-.087s.023.014.004.029c-.014.014-.082.039-.14.043s-.111.01-.111-.01.049-.058.078-.068c.006-.007.013-.013.022-.017s.018-.006.027-.006c.023 0 .114-.01.14-.014s.043.01.029.029c-.006.014-.049.014-.049.014zm.134-.6s-.029.062-.062.062-.033-.014-.033-.023.033-.048.029-.058c-.01 0-.033 0-.029-.023s.033-.043.062-.038c.022-.018.049-.028.078-.029s.062.01.062.029-.038.062-.052.072c-.015.016-.035.026-.054.01h0zm-.443 1.148s-.038.004-.038.023c0 .01.01.01.023.004.008 0 .016-.002.023-.004.004.004.004.023.033.023.024-.003.047-.011.068-.023s.043-.02.043-.038c-.01-.033-.029-.049-.058-.049-.015-.001-.03.002-.043.01 0 0-.01-.019-.043 0s-.029.02-.019.029c.017.016.012.026.012.026v-.001zm-.219.202c0-.01.049-.029.062-.023s.052.078.052.085-.049.033-.068.033-.052-.033-.052-.038.023-.01.023-.014c.006-.01-.017-.033-.017-.043h0zm-.154-.284c.01-.004.01-.014.023-.023.019-.006.024-.005.029-.004.003-.006.008-.011.014-.015s.012-.007.019-.008c.023-.004.043 0 .038.01 0 .029.019.049.019.072s-.014.052-.062.072c-.049.014-.115.014-.124.01s-.019-.043-.01-.062.037-.041.052-.05h0z" fill="#82764f"/><path d="M8.102 13.214s-.033.02-.033.029-.004.019-.004.029.043-.004.049-.01-.012-.038-.012-.049z" fill="#6e6342"/><path d="M7.814 13.122c.019.004.052 0 .078.01.019.01.033.029.014.053s-.038.058-.082.052c-.049-.004-.095-.029-.095-.049-.001-.012.001-.025.005-.036s.01-.022.018-.032c.019-.016.029-.006.062.002h0z" fill="#585136"/><path d="M7.79 13.142s-.062.049-.078.072l-.144.169c.01-.017.021-.033.033-.049-.038.024-.067.062-.082.105-.023.072.13.111.231.14l.14.038c-.037-.056-.069-.115-.095-.177-.038-.091-.058-.101-.033-.144.019-.043.049-.072.049-.105l-.021-.05z" fill="#574f35"/><path d="M5.577 13.295c.014.003.029.003.043 0 .029-.004.332-.115.649-.095.237.014.472.053.701.115.398.105.893.313 1.214.431.085.033.169.091.23.114.245.095.254.095.398.12.169.023.342-.033.522-.072.221-.049.6-.072.932-.12.107-.015.213-.039.317-.072 0 0-.264.264-.897.359a2.81 2.81 0 0 1-.773.01c-.202-.02-.336-.049-.437-.078l-.639-.192c-.202-.053-.427-.091-.685-.14-.637-.117-1.328-.251-1.574-.381v-.001z" fill="#252211"/><g fill="#cfb66c"><path d="M4.862 12.095l-.476.375-.48.368-.486.365-.499.346.48-.369.489-.354.48-.369.491-.361h0zm-.849 1.359l.388-.346.701-.629-1.089.975h0z"/><path d="M4.014 13.454l.268-.251.14-.12.134-.124.254-.264c.042-.044.087-.085.134-.124.023-.021.05-.038.078-.053s.049-.038.082-.043c-.019.029-.043.043-.062.068-.023.019-.043.043-.062.062-.043.043-.091.082-.134.12l-.278.235-.268.25-.285.243h0zm1.161-.777l-.763.72.763-.72z"/><path d="M5.175 12.678a2.01 2.01 0 0 1-.183.186l-.192.182-.186.186-.202.169.186-.182c.062-.062.13-.114.196-.177l.186-.183.194-.182zm.029.336a3.93 3.93 0 0 1-.206.476l-.515.942.72-1.418z"/><path d="M5.204 13.014a.53.53 0 0 1-.043.196 1.94 1.94 0 0 1-.078.183l-.095.177-.101.173-.196.346-.206.342c.049-.124.115-.241.177-.355l.192-.35.082-.182.082-.177.082-.177c.033-.06.06-.118.105-.175h0z"/></g><path d="M5.895 14.606s-.192.254-.173.577l.173-.577zm.183.255l-.124 1.031c.08-.393.095-.36.124-1.031zm1.272 1.072s-.287.845-.293 1.079l.293-1.08v.001z" fill="#dec270"/><path d="M8.021 14.554l.816 1.425c-.095-.33-.312-.936-.816-1.425z" fill="#cbaf59"/><path d="M9.274 15.686a14.15 14.15 0 0 1 .691 1.396c-.039-.33-.144-.895-.691-1.396z" fill="#e3c677"/><path d="M12.956 16.819c.078-.048.231-.313.365-.379s.235-.081.355-.215c.12-.14.154-.225.417-.336.369-.159.115-.365.115-.365a1.25 1.25 0 0 1 .13-.111c.095-.072.206-.159.196-.313-.014-.258-.062-.633-.274-.85l.845-.134c.283-.072.414-.173.414-.173s-.163-.278.101-.557.48-.447.639-.759c-.183-.023-.461-.12-1.171.15a1.01 1.01 0 0 1 .111.062s-.437.12-.596.255c-.278.235-.313.427-.614.571s-.604.105-.854.221-.287.216-.379.258c.02.023-.004.062.033.095-.023.033-.159.254-.297.254.014.053.13.091.13.091s-.085.062-.303.078c.111.115.216.241.505.423-.023.048-.12.12-.082.212s.154.215.596.316c-.225.01-.489.062-.845.014-.355-.043-.414-.068-.633-.014.023.023.085.023.14.085-.058.004-.423-.043-.547.12a1.06 1.06 0 0 0-.177.633c-.068.033-.134.091-.101.212s.206.159.317.235.12.111.225.091c.111-.023.274-.134.369-.134s.163.072.163.072.258-.124.284-.101.004.173.029.196c.026.018.316-.155.394-.204h-.001z" fill="#ecd592"/><path d="M18.6 9.049c-1.213-3.134-4.214-3.715-4.214-3.715H5.827l.033 3.192h1.705v7.128H5.827v3.187h8.322c2.006 0 3.614-2.016 3.614-2.016 2.575-3.654.837-7.777.837-7.777h0zm-4.406 5.629s-.653.942-1.363.942H11.41l-.034-7.085H13.2s.845.177 1.435 1.848c0 0 .782 2.394-.441 4.295z" fill="#fff" fill-opacity=".8"/></g></g><defs><clipPath id="A"><path fill="#fff" d="M0 0h24v24H0z"/></clipPath></defs></svg>