<svg width="24" height="24" viewBox="0 0 24 24" fill="none" xmlns="http://www.w3.org/2000/svg">
<g clip-path="url(#clip0_12361_1112)">
<circle cx="12" cy="12" r="12" fill="#181D27"/>
<mask id="mask0_12361_1112" style="mask-type:alpha" maskUnits="userSpaceOnUse" x="0" y="0" width="24" height="24">
<circle cx="12" cy="12" r="11.5" fill="#181D27" stroke="white"/>
</mask>
<g mask="url(#mask0_12361_1112)">
<path opacity="0.8" fill-rule="evenodd" clip-rule="evenodd" d="M11.9998 27.0793L0.36002 3.36861L3.38965 1.88134L11.9998 19.4206L20.61 1.88134L23.6397 3.36861L11.9998 27.0793Z" fill="white"/>
</g>
<circle opacity="0.8" cx="12" cy="12" r="10.5" fill="#5CFFA2"/>
<circle cx="12" cy="12" r="9" fill="#181D27"/>
<path fill-rule="evenodd" clip-rule="evenodd" d="M12.75 6.24796C12.2859 5.98001 11.7141 5.98001 11.25 6.24796L7.39355 8.47446C6.92945 8.74241 6.64355 9.2376 6.64355 9.7735V14.2265C6.64355 14.7624 6.92945 15.2576 7.39355 15.5255L11.25 17.7521C11.7141 18.02 12.2859 18.02 12.75 17.7521L16.6064 15.5255C17.0705 15.2576 17.3564 14.7624 17.3564 14.2265V9.7735C17.3564 9.2376 17.0705 8.74241 16.6064 8.47446L12.75 6.24796ZM11.9996 10.0009L10.5826 11.4178L9.75814 10.5933L11.9996 8.35179L14.2418 10.594L13.4173 11.4185L11.9996 10.0009ZM10.0008 11.9998L9.17632 11.1753L8.35181 11.9998L9.17628 12.8243L10.0008 11.9998ZM11.9995 13.999L10.5826 12.5821L9.75689 13.4055L9.75804 13.4067L11.9995 15.6481L14.2417 13.4059L14.2421 13.4055L13.4172 12.5814L11.9995 13.999ZM14.8235 12.8248L15.6481 12.0003L14.8236 11.1758L13.9991 12.0003L14.8235 12.8248ZM12.8361 11.9996H12.8358L12.8365 12L12.8361 12.0004L11.9995 12.8371L11.1636 12.0012L11.1624 12L11.1636 11.9988L11.3101 11.8523L11.3811 11.7812H11.3812L11.9995 11.1629L12.8361 11.9996Z" fill="white"/>
</g>
<defs>
<clipPath id="clip0_12361_1112">
<rect width="24" height="24" fill="white"/>
</clipPath>
</defs>
</svg>
