<svg width="24" height="24" viewBox="0 0 24 24" fill="none" xmlns="http://www.w3.org/2000/svg">
<g clip-path="url(#clip0_10784_8737)">
<circle cx="12" cy="12" r="12" fill="#181D27"/>
<mask id="mask0_10784_8737" style="mask-type:alpha" maskUnits="userSpaceOnUse" x="0" y="0" width="24" height="24">
<circle cx="12" cy="12" r="11.5" fill="#181D27" stroke="white"/>
</mask>
<g mask="url(#mask0_10784_8737)">
<path opacity="0.8" fill-rule="evenodd" clip-rule="evenodd" d="M11.9998 27.0794L0.36002 3.36864L3.38965 1.88136L11.9998 19.4206L20.61 1.88137L23.6397 3.36864L11.9998 27.0794Z" fill="white"/>
</g>
<circle opacity="0.8" cx="12" cy="12" r="10.5" fill="url(#paint0_linear_10784_8737)"/>
<circle cx="12" cy="12" r="9" fill="#181D27"/>
<path d="M7.875 7.125H13.2728C14.1724 7.125 14.862 7.35778 15.3415 7.82333C15.8253 8.28888 16.0672 8.86528 16.0672 9.55252C16.0672 10.1289 15.8953 10.6233 15.5516 11.0356C15.3224 11.3105 14.9872 11.5278 14.5458 11.6874C15.2163 11.8559 15.7086 12.1463 16.0226 12.5587C16.3409 12.9666 16.5 13.4809 16.5 14.1016C16.5 14.6071 16.3875 15.0616 16.1626 15.465C15.9377 15.8685 15.6301 16.1878 15.2397 16.4227C14.9978 16.5691 14.6328 16.6755 14.1448 16.742C13.4956 16.8307 13.0649 16.875 12.8527 16.875H7.875V7.125ZM10.7839 10.9492H12.0379C12.4877 10.9492 12.7996 10.8694 12.9736 10.7098C13.1518 10.5457 13.241 10.3107 13.241 10.0048C13.241 9.72101 13.1518 9.49932 12.9736 9.3397C12.7996 9.18008 12.4941 9.10027 12.057 9.10027H10.7839V10.9492ZM10.7839 14.78H12.2543C12.7508 14.78 13.1009 14.6891 13.3046 14.5073C13.5083 14.3211 13.6101 14.0728 13.6101 13.7624C13.6101 13.4742 13.5083 13.2437 13.3046 13.0708C13.1052 12.8934 12.753 12.8047 12.248 12.8047H10.7839V14.78Z" fill="white"/>
</g>
<defs>
<linearGradient id="paint0_linear_10784_8737" x1="22.2313" y1="18.1183" x2="-3.53296" y2="2.62136" gradientUnits="userSpaceOnUse">
<stop stop-color="#5433FF"/>
<stop offset="0.5" stop-color="#20BDFF"/>
<stop offset="1" stop-color="#5CFFA2"/>
</linearGradient>
<clipPath id="clip0_10784_8737">
<rect width="24" height="24" fill="white"/>
</clipPath>
</defs>
</svg>
