<svg width="24" height="24" viewBox="0 0 24 24" fill="none" xmlns="http://www.w3.org/2000/svg">
<g clip-path="url(#clip0_12573_232)">
<circle cx="12" cy="12" r="12" fill="#181D27"/>
<mask id="mask0_12573_232" style="mask-type:alpha" maskUnits="userSpaceOnUse" x="0" y="0" width="24" height="24">
<circle cx="12" cy="12" r="11.5" fill="#181D27" stroke="white"/>
</mask>
<g mask="url(#mask0_12573_232)">
<path opacity="0.8" fill-rule="evenodd" clip-rule="evenodd" d="M11.9998 27.0794L0.36002 3.36863L3.38965 1.88136L11.9998 19.4206L20.61 1.88136L23.6397 3.36863L11.9998 27.0794Z" fill="white"/>
</g>
<circle opacity="0.8" cx="12" cy="12" r="10.5" fill="url(#paint0_linear_12573_232)"/>
<circle cx="12" cy="12" r="9" fill="#181D27"/>
<path d="M16.9712 10.9032C17.178 9.64278 16.246 8.94949 14.9644 8.46406L15.4096 6.772L14.3937 6.49476L13.957 8.15446C13.6898 8.08158 13.4173 8.00719 13.1419 7.94364L13.5807 6.27578L12.57 6L12.122 7.70285C11.9024 7.64296 11.6855 7.58372 11.4738 7.52598L10.061 7.14045L9.76965 8.24784C9.76965 8.24784 10.5246 8.43939 10.5078 8.44928C10.7968 8.49347 11.0002 8.76559 10.9648 9.062L9.73833 13.7233C9.70752 13.8188 9.63844 13.8981 9.54997 13.9434C9.46154 13.9885 9.35778 13.9949 9.26466 13.9608C9.27502 13.9752 8.5265 13.7594 8.5265 13.7594L8 14.9412L10.0531 15.5014L9.59796 17.2312L10.6139 17.5085L11.062 15.8056C11.3319 15.8793 11.6044 15.9536 11.8742 16.0273L11.4283 17.722L12.4469 18L12.8971 16.289C14.6418 16.6525 15.9538 16.5484 16.5329 14.9507C17.0013 13.6664 16.5473 12.9129 15.6361 12.4102C16.3103 12.262 16.8251 11.825 16.9712 10.9032ZM14.5794 14.1953C14.2413 15.4805 12.1153 14.7444 11.4274 14.5567L12.0279 12.2746C12.7151 12.465 14.9325 12.8535 14.5794 14.1953ZM14.9549 10.8497C14.6451 12.0271 12.8764 11.3885 12.3049 11.2326L12.8501 9.16064C13.4208 9.31926 15.2768 9.62642 14.9549 10.8497Z" fill="white"/>
</g>
<defs>
<linearGradient id="paint0_linear_12573_232" x1="22.2313" y1="18.1183" x2="-3.53296" y2="2.62136" gradientUnits="userSpaceOnUse">
<stop stop-color="#5433FF"/>
<stop offset="0.5" stop-color="#20BDFF"/>
<stop offset="1" stop-color="#5CFFA2"/>
</linearGradient>
<clipPath id="clip0_12573_232">
<rect width="24" height="24" fill="white"/>
</clipPath>
</defs>
</svg>
