<svg width="24" height="24" viewBox="0 0 24 24" fill="none" xmlns="http://www.w3.org/2000/svg">
<g clip-path="url(#clip0_10784_8752)">
<circle cx="12" cy="12" r="12" fill="#181D27"/>
<mask id="mask0_10784_8752" style="mask-type:alpha" maskUnits="userSpaceOnUse" x="0" y="0" width="24" height="24">
<circle cx="12" cy="12" r="11.5" fill="#181D27" stroke="white"/>
</mask>
<g mask="url(#mask0_10784_8752)">
<path opacity="0.8" fill-rule="evenodd" clip-rule="evenodd" d="M11.9998 27.0794L0.36002 3.36864L3.38965 1.88136L11.9998 19.4206L20.61 1.88137L23.6397 3.36864L11.9998 27.0794Z" fill="white"/>
</g>
<circle opacity="0.8" cx="12" cy="12" r="10.5" fill="url(#paint0_linear_10784_8752)"/>
<circle cx="12" cy="12" r="9" fill="#181D27"/>
<path d="M12.5004 12.5728H15.552C15.6171 12.5728 15.6478 12.5728 15.6525 12.4868C15.6774 12.174 15.6774 11.8593 15.6525 11.5461C15.6525 11.4852 15.6225 11.4601 15.5571 11.4601H9.48382C9.40865 11.4601 9.38841 11.4852 9.38841 11.5563V12.4566C9.38841 12.5728 9.38842 12.5728 9.50876 12.5728H12.5004ZM15.3117 10.4079C15.3203 10.385 15.3203 10.3598 15.3117 10.3372C15.2607 10.2254 15.2004 10.1187 15.1303 10.0185C15.0247 9.84737 14.9004 9.68966 14.7587 9.54798C14.6919 9.46239 14.6145 9.38554 14.5278 9.32035C14.0934 8.94776 13.577 8.68406 13.0219 8.55149C12.7418 8.48812 12.4556 8.45789 12.1686 8.46044H9.47334C9.39817 8.46044 9.38805 8.49067 9.38805 8.55659V10.3522C9.38805 10.4279 9.38805 10.4483 9.48346 10.4483H15.2755C15.2755 10.4483 15.3258 10.4381 15.3359 10.4079H15.3113H15.3117ZM15.3117 13.625C15.2264 13.6155 15.1404 13.6155 15.0551 13.625H9.48888C9.41371 13.625 9.38841 13.625 9.38841 13.7263V15.4818C9.38841 15.5626 9.38841 15.583 9.48888 15.583H12.0588C12.1816 15.5925 12.3045 15.5838 12.4249 15.5579C12.7978 15.5309 13.1646 15.4494 13.5145 15.315C13.6417 15.2705 13.7645 15.2126 13.8806 15.1431H13.9156C14.5181 14.8273 15.0074 14.3312 15.316 13.7223C15.316 13.7223 15.3511 13.6458 15.3117 13.6257V13.625ZM8.37976 16.4932V16.463V15.2844V14.8848V13.696C8.37976 13.6301 8.37976 13.6203 8.29953 13.6203H7.21029C7.14994 13.6203 7.125 13.6203 7.125 13.5394V12.5783H8.28941C8.35446 12.5783 8.37976 12.5783 8.37976 12.4923V11.5413C8.37976 11.4805 8.37976 11.4656 8.29953 11.4656H7.21029C7.14994 11.4656 7.125 11.4656 7.125 11.3847V10.4946C7.125 10.4389 7.125 10.4239 7.20523 10.4239H8.28435C8.35952 10.4239 8.37976 10.4239 8.37976 10.3278V7.60125C8.37976 7.5204 8.37976 7.5 8.48023 7.5H12.2445C12.5177 7.51093 12.7891 7.54116 13.0577 7.59105C13.6109 7.69413 14.1426 7.89335 14.6286 8.1778C14.951 8.36902 15.2477 8.59993 15.5119 8.86581C15.7107 9.07377 15.8899 9.29886 16.0489 9.53851C16.2068 9.78145 16.338 10.0411 16.441 10.3125C16.4537 10.3831 16.5209 10.4308 16.591 10.4188H17.4894C17.6047 10.4188 17.6047 10.4188 17.6098 10.5303V11.36C17.6098 11.4408 17.5798 11.4612 17.4992 11.4612H16.8064C16.7363 11.4612 16.7161 11.4612 16.7211 11.5523C16.7486 11.8604 16.7486 12.1696 16.7211 12.4777C16.7211 12.5637 16.7211 12.5739 16.8169 12.5739H17.6094C17.6445 12.6194 17.6094 12.6649 17.6094 12.7108C17.6145 12.7695 17.6145 12.8288 17.6094 12.8875V13.4997C17.6094 13.5857 17.5845 13.6112 17.509 13.6112H16.5603C16.4942 13.5984 16.4298 13.641 16.4146 13.7073C16.1888 14.2992 15.8274 14.8298 15.3605 15.2552C15.1899 15.41 15.0106 15.5557 14.8234 15.6901C14.6225 15.8067 14.427 15.9279 14.221 16.0241C13.8419 16.196 13.4443 16.3228 13.0363 16.4032C12.6489 16.4732 12.2561 16.5049 11.8618 16.4994H8.37832V16.4943L8.37976 16.4932Z" fill="#FEFEFD"/>
</g>
<defs>
<linearGradient id="paint0_linear_10784_8752" x1="22.2313" y1="18.1183" x2="-3.53296" y2="2.62136" gradientUnits="userSpaceOnUse">
<stop stop-color="#5433FF"/>
<stop offset="0.5" stop-color="#20BDFF"/>
<stop offset="1" stop-color="#5CFFA2"/>
</linearGradient>
<clipPath id="clip0_10784_8752">
<rect width="24" height="24" fill="white"/>
</clipPath>
</defs>
</svg>
