<svg width="24" height="24" viewBox="0 0 24 24" fill="none" xmlns="http://www.w3.org/2000/svg">
<g clip-path="url(#clip0_12574_274)">
<circle cx="12" cy="12" r="12" fill="#181D27"/>
<mask id="mask0_12574_274" style="mask-type:alpha" maskUnits="userSpaceOnUse" x="0" y="0" width="24" height="24">
<circle cx="12" cy="12" r="11.5" fill="#181D27" stroke="white"/>
</mask>
<g mask="url(#mask0_12574_274)">
<path opacity="0.8" fill-rule="evenodd" clip-rule="evenodd" d="M11.9998 27.0794L0.36002 3.36863L3.38965 1.88136L11.9998 19.4206L20.61 1.88136L23.6397 3.36863L11.9998 27.0794Z" fill="white"/>
</g>
<circle opacity="0.8" cx="12" cy="12" r="10.5" fill="url(#paint0_linear_12574_274)"/>
<circle cx="12" cy="12" r="9" fill="#181D27"/>
<path d="M12.6786 8.22678V6.96904H11.4209V8.22678H12.6786Z" fill="white"/>
<path d="M10.1131 12V6.96904H7.59766V12H10.1131Z" fill="white"/>
<path d="M10.1131 17.031V12H7.59766V17.031H10.1131Z" fill="white"/>
<path d="M15.144 12V9.48451H13.8862V12H15.144Z" fill="white"/>
<path d="M13.8862 17.031V14.5155H12.6284V17.031H13.8862Z" fill="white"/>
<path d="M15.144 17.031V14.5155H13.8862V17.031H15.144Z" fill="white"/>
<path d="M11.371 17.031V14.5155H10.1133V17.031H11.371Z" fill="white"/>
<path d="M16.4018 9.48453V6.96904H15.144V9.48453H16.4018Z" fill="white"/>
<path d="M13.8862 12V6.96904H12.6284V12H13.8862Z" fill="white"/>
<path d="M12.6288 17.031V12H11.3711V17.031H12.6288Z" fill="white"/>
</g>
<defs>
<linearGradient id="paint0_linear_12574_274" x1="22.2313" y1="18.1183" x2="-3.53296" y2="2.62136" gradientUnits="userSpaceOnUse">
<stop stop-color="#5433FF"/>
<stop offset="0.5" stop-color="#20BDFF"/>
<stop offset="1" stop-color="#5CFFA2"/>
</linearGradient>
<clipPath id="clip0_12574_274">
<rect width="24" height="24" fill="white"/>
</clipPath>
</defs>
</svg>
