<svg width="24" height="24" viewBox="0 0 24 24" fill="none" xmlns="http://www.w3.org/2000/svg">
<g clip-path="url(#clip0_12378_176)">
<circle cx="12" cy="12" r="12" fill="#181D27"/>
<mask id="mask0_12378_176" style="mask-type:alpha" maskUnits="userSpaceOnUse" x="0" y="0" width="24" height="24">
<circle cx="12" cy="12" r="11.5" fill="#181D27" stroke="white"/>
</mask>
<g mask="url(#mask0_12378_176)">
<path opacity="0.8" fill-rule="evenodd" clip-rule="evenodd" d="M11.9998 27.0793L0.36002 3.36861L3.38965 1.88134L11.9998 19.4206L20.61 1.88134L23.6397 3.36861L11.9998 27.0793Z" fill="white"/>
</g>
<circle opacity="0.8" cx="12" cy="12" r="10.5" fill="#F57842"/>
<circle cx="12" cy="12" r="9" fill="#181D27"/>
<g clip-path="url(#clip1_12378_176)">
<path d="M16.6147 15.2731C16.4858 16.7367 14.6818 17.9692 11.9757 17.9075C9.43077 17.8459 7.64286 16.8291 7.514 15.3655C7.49789 15.1806 7.514 14.9958 7.5301 14.7955C7.61064 14.2255 7.82004 13.6863 8.12608 13.1933L8.31937 13.2703C8.81869 13.0854 9.33413 12.9468 9.86567 12.8543C10.5583 12.7619 11.267 12.7465 11.9596 12.7927C12.6523 12.7465 13.361 12.7619 14.0536 12.8543C14.5851 12.9468 15.1006 13.0854 15.5999 13.2703L15.7932 13.1933L15.9221 13.1316C16.2281 13.6246 16.4375 14.1638 16.5502 14.7339C16.5825 14.9033 16.5986 15.0882 16.5825 15.2577" fill="#D1D2D4"/>
<path d="M16.6147 15.2731C16.4858 16.7213 14.6979 17.9076 11.9757 17.8922C9.43077 17.8306 7.64286 16.8138 7.514 15.3502C7.49789 15.1653 7.514 14.9804 7.5301 14.7801C7.80393 14.7185 8.07775 14.7185 8.35158 14.7647C8.86702 14.8418 9.15695 15.1499 9.52742 15.3039C9.73681 15.3964 9.94621 15.2423 10.1395 15.0729C10.6549 14.5953 11.3476 14.318 12.0563 14.3025C12.7811 14.2871 13.3771 14.5645 14.0053 15.1191C14.1341 15.2423 14.3113 15.3194 14.4885 15.3039C14.6496 15.2577 14.8106 15.1807 14.9395 15.0729C15.4177 14.7673 15.997 14.6412 16.5663 14.7185C16.6147 14.9188 16.6308 15.0883 16.6147 15.2731Z" fill="white"/>
<path d="M9.1249 11.6681C8.94772 11.8375 8.72221 11.9608 8.4806 12.007L8.38396 12.0224C8.28731 12.0532 8.19067 12.0686 8.07792 12.0686H8.01349L7.85241 12.0224C7.67523 11.9454 7.51416 11.8529 7.36919 11.7297C7.07926 11.4986 6.80543 11.2367 6.59604 10.9286C5.71013 9.69607 5.98396 8.03221 7.20812 7.10784C7.28866 7.06162 7.3853 7.06162 7.44973 7.13865C7.48194 7.18487 7.49805 7.23109 7.48194 7.2773C7.36919 7.7703 7.27255 8.54061 7.75577 9.20307C8.17456 9.7577 9.04436 10.2969 9.5759 10.2969C9.68866 10.9132 9.51147 11.3291 9.1249 11.6681Z" fill="white"/>
<path d="M9.1249 11.6681C8.94772 11.8375 8.72221 11.9608 8.4806 12.007L8.38396 12.0224C8.28731 12.0532 8.19067 12.0686 8.07792 12.0686H8.01349L7.85241 12.0224C7.67523 11.9454 7.51416 11.8529 7.36919 11.7297C7.07926 11.4986 6.80543 11.2367 6.59604 10.9286C5.71013 9.69607 5.98396 8.03221 7.20812 7.10784C7.28866 7.06162 7.3853 7.06162 7.44973 7.13865C7.48194 7.18487 7.49805 7.23109 7.48194 7.2773C7.36919 7.7703 7.27255 8.54061 7.75577 9.20307C8.17456 9.7577 9.04436 10.2969 9.5759 10.2969C9.68866 10.9132 9.51147 11.3291 9.1249 11.6681V11.6681Z" stroke="#221F1F" stroke-width="0.150246" stroke-linejoin="round"/>
<path d="M11.4441 9.54199L11.2347 11.514H11.2186L9.86556 11.7143C9.31791 11.7913 8.57697 12.161 8.14207 12.4075L8.09375 12.084L8.39979 12.0378L8.49643 12.0224C8.73805 11.9762 8.96355 11.8529 9.14073 11.6834C9.5112 11.3291 9.70449 10.9285 9.57563 10.2969L9.64006 10.3123C9.83335 10.112 10.0589 9.95796 10.3166 9.83471C10.6548 9.64984 11.0414 9.5574 11.4441 9.54199Z" fill="#5A595C"/>
<path d="M11.4441 9.54199L11.2347 11.514H11.2186L9.86556 11.7143C9.31791 11.7913 8.57697 12.161 8.14207 12.4075L8.09375 12.084L8.39979 12.0378L8.49643 12.0224C8.73805 11.9762 8.96355 11.8529 9.14073 11.6834C9.5112 11.3291 9.70449 10.9285 9.57563 10.2969L9.64006 10.3123C9.83335 10.112 10.0589 9.95796 10.3166 9.83471C10.6548 9.64984 11.0414 9.5574 11.4441 9.54199Z" stroke="#221F1F" stroke-width="0.150246" stroke-linejoin="round"/>
<path d="M16.1479 13.0854L16.019 13.147L15.8902 13.2086L15.6969 13.2857C15.1975 13.1008 14.6821 12.9621 14.1506 12.8697C13.4579 12.7465 12.7653 12.6848 12.0566 12.6848C11.3479 12.6848 10.6553 12.7311 9.96264 12.8697C9.4311 12.9621 8.91566 13.1008 8.41633 13.2857C8.3519 13.2549 8.28747 13.2241 8.22304 13.2086L7.94922 13.0854C7.96533 12.8697 7.94922 12.7465 7.94922 12.5308C7.99754 12.5 8.07808 12.4537 8.15861 12.4075L8.17472 12.3921C8.59351 12.1456 9.33445 11.7913 9.8821 11.6988L11.2351 11.4986C11.4445 11.4832 11.67 11.4832 11.8955 11.4832C12.2338 11.4832 12.5398 11.4832 12.8459 11.4986L14.215 11.6988C14.7787 11.7759 15.5197 12.1456 15.9546 12.3921H15.9707C16.0512 12.4383 16.1157 12.4691 16.164 12.5154C16.1479 12.7465 16.1318 12.8697 16.1479 13.0854Z" fill="#929497"/>
<path d="M16.1479 13.0854L16.019 13.147L15.8902 13.2086L15.6969 13.2857C15.1975 13.1008 14.6821 12.9621 14.1506 12.8697C13.4579 12.7619 12.7653 12.7002 12.0566 12.7002C11.3479 12.7002 10.6553 12.7465 9.96264 12.8697C9.4311 12.9621 8.91566 13.1008 8.41633 13.2857C8.3519 13.2549 8.28747 13.2241 8.22304 13.2086L7.94922 13.0854C7.96533 12.8697 7.94922 12.7465 7.94922 12.5308C7.99754 12.5 8.07808 12.4537 8.15861 12.4075L8.17472 12.3921C8.59351 12.1456 9.33445 11.7913 9.8821 11.6988L11.2351 11.4986C11.4445 11.4832 11.67 11.4832 11.8955 11.4832C12.2338 11.4832 12.5398 11.4832 12.8459 11.4986L14.215 11.6988C14.7787 11.7759 15.5197 12.1456 15.9546 12.3921H15.9707C16.0512 12.4383 16.1157 12.4691 16.164 12.5154C16.1479 12.7465 16.1318 12.8697 16.1479 13.0854Z" stroke="#221F1F" stroke-width="0.150246" stroke-linejoin="round"/>
<path d="M12.8295 11.514L11.8792 11.4986L11.2188 11.514H11.2349L11.4443 9.54202L11.4926 9.14146C11.6536 9.04903 11.8469 9.00281 12.0241 9.00281H12.0563C12.2496 9.00281 12.4268 9.04903 12.5879 9.14146L12.6362 9.54202V9.55743L12.8295 11.514Z" fill="#929497"/>
<path d="M12.8295 11.514L11.8792 11.4985L11.2188 11.514H11.2349L11.4443 9.54196L11.4926 9.1414C11.6536 9.04897 11.8469 9.00275 12.0241 9.00275H12.0563C12.2496 9.00275 12.4268 9.04897 12.5879 9.1414L12.6362 9.54196V9.55737L12.8295 11.514V11.514Z" stroke="#221F1F" stroke-width="0.150246" stroke-linejoin="round"/>
<path d="M16.6147 15.2885C16.4858 16.7521 14.5368 17.923 11.9757 17.923C9.43078 17.8613 7.64286 16.8445 7.53011 15.381C7.514 15.1961 7.53011 15.0112 7.54622 14.8109C7.62675 14.2409 7.83615 13.7017 8.14219 13.2087L8.33548 13.2857C8.83481 13.1008 9.35024 12.9622 9.88179 12.8697C10.5744 12.7465 11.267 12.7003 11.9757 12.6849C12.6845 12.6849 13.3771 12.7465 14.0697 12.8697C14.6013 12.9622 15.1167 13.1008 15.616 13.2857L15.8254 13.2087L15.9543 13.1471C16.2603 13.6401 16.4697 14.1793 16.5825 14.7493C16.6308 14.9342 16.6308 15.119 16.6147 15.2885Z" stroke="#221F1F" stroke-width="0.150246" stroke-linejoin="round"/>
<path d="M17.4041 10.9286C17.1785 11.2213 16.9208 11.4986 16.6148 11.7297C16.4698 11.853 16.3088 11.9454 16.1316 12.0225L16.051 12.0533L16.0027 12.0687C15.89 12.0995 15.8255 12.0687 15.6161 12.0379L15.5195 12.0225C15.2779 11.9762 15.0524 11.853 14.8752 11.6835C14.5047 11.3292 14.3114 10.9286 14.4403 10.297C14.9557 10.3124 15.8416 9.77316 16.2604 9.20313C16.7275 8.54066 16.6309 7.77036 16.5181 7.27736C16.5088 7.23455 16.5169 7.18992 16.5409 7.15267C16.5648 7.11542 16.6028 7.08836 16.647 7.07708C16.6719 7.07017 16.6983 7.06937 16.7236 7.07475C16.7489 7.08013 16.7725 7.09153 16.792 7.10789C18.0161 8.03226 18.29 9.71153 17.4041 10.9286Z" fill="white"/>
<path d="M17.4041 10.9286C17.1785 11.2213 16.9208 11.4986 16.6148 11.7297C16.4698 11.853 16.3088 11.9454 16.1316 12.0225L16.051 12.0533L16.0027 12.0687C15.89 12.0995 15.8255 12.0687 15.6161 12.0379L15.5195 12.0225C15.2779 11.9762 15.0524 11.853 14.8752 11.6835C14.5047 11.3292 14.3114 10.9286 14.4403 10.297C14.9557 10.3124 15.8416 9.77316 16.2604 9.20313C16.7275 8.54066 16.6309 7.77036 16.5181 7.27736C16.5088 7.23455 16.5169 7.18992 16.5409 7.15267C16.5648 7.11542 16.6028 7.08836 16.647 7.07708C16.6719 7.07017 16.6983 7.06937 16.7236 7.07475C16.7489 7.08013 16.7725 7.09153 16.792 7.10789C18.0161 8.03226 18.29 9.71153 17.4041 10.9286Z" stroke="#221F1F" stroke-width="0.150246" stroke-linejoin="round"/>
<path d="M16.0027 12.0686L15.9382 12.4075C15.5033 12.161 14.7624 11.7913 14.1986 11.7143L12.8295 11.514L12.6201 9.54199C12.9906 9.5574 13.3611 9.66524 13.6993 9.83471C13.957 9.95796 14.1825 10.1274 14.3758 10.3123L14.4403 10.2969C14.3114 10.9131 14.5047 11.3291 14.8752 11.6834C15.0523 11.8529 15.2778 11.9762 15.5194 12.0224C15.5356 12.0224 15.6 12.0532 15.6161 12.0532C15.745 12.0994 15.8738 12.0994 16.0027 12.0686Z" fill="#5A595C"/>
<path d="M16.0032 12.0687L15.9387 12.4076C15.5038 12.1611 14.7629 11.7914 14.1991 11.7143L12.83 11.514L12.6206 9.54205C12.9911 9.55746 13.3615 9.6653 13.6998 9.83477C13.9575 9.95802 14.183 10.1275 14.3763 10.3124L14.4407 10.297C14.3119 10.9132 14.5052 11.3292 14.8756 11.6835C15.0528 11.853 15.2783 11.9762 15.5199 12.0224L15.6166 12.0379C15.826 12.0687 15.8904 12.0995 16.0032 12.0687Z" stroke="#221F1F" stroke-width="0.150246" stroke-linejoin="round"/>
<path d="M12.6201 9.54199H12.5557" stroke="#221F1F" stroke-width="0.150246" stroke-linejoin="round"/>
<path d="M16.019 11.9916C16.1318 12.1149 16.0996 12.2998 15.9707 12.4076L15.9385 12.4384" fill="white"/>
<path d="M16.019 11.9916C16.1318 12.1149 16.0996 12.2998 15.9707 12.4076L15.9385 12.4384" stroke="#221F1F" stroke-width="0.150246" stroke-miterlimit="10"/>
<path d="M8.07772 11.9916C7.96497 12.1149 7.99718 12.2998 8.12604 12.4076L8.15826 12.4384" fill="white"/>
<path d="M8.07772 11.9916C7.96497 12.1149 7.99718 12.2998 8.12604 12.4076L8.15826 12.4384" stroke="#221F1F" stroke-width="0.150246" stroke-miterlimit="10"/>
<path d="M11.4443 15.8741C11.5571 15.9049 11.6859 15.8895 11.7987 15.8278C11.9759 15.7662 12.0886 15.5967 12.0725 15.4119C12.0564 15.5967 12.1692 15.7662 12.3463 15.8278C12.4591 15.8741 12.5719 15.8895 12.6846 15.8741" stroke="#171717" stroke-width="0.150246" stroke-linecap="round" stroke-linejoin="round"/>
<path d="M12.7007 14.888C12.7007 15.0729 12.4108 15.3194 12.0564 15.3194C11.702 15.3194 11.4121 15.0729 11.4121 14.888C11.4121 14.7031 11.702 14.6415 12.0564 14.6415C12.4108 14.6415 12.7007 14.7185 12.7007 14.888Z" fill="#171717"/>
<path d="M12.3143 14.8264C12.3143 14.8726 12.1854 14.9342 12.0404 14.9342C11.8955 14.9342 11.7666 14.8726 11.7666 14.8418C11.7666 14.811 11.8955 14.811 12.0404 14.811C12.1854 14.811 12.3143 14.7802 12.3143 14.8264Z" fill="white"/>
<path d="M11.0421 15.4119C11.033 15.515 11.0642 15.6178 11.1296 15.7003C11.195 15.7828 11.2901 15.8392 11.3964 15.8586H11.4448M12.0729 15.1962V15.4119M12.7011 15.874H12.7495C12.975 15.8278 13.136 15.6429 13.1038 15.4273" stroke="#171717" stroke-width="0.150246" stroke-linecap="round" stroke-linejoin="round"/>
<path d="M16.792 7.10791C18.0162 8.03228 18.2739 9.69615 17.388 10.9132" stroke="#221F1F" stroke-width="0.150246" stroke-linejoin="round"/>
<path d="M9.1249 11.6681C8.94772 11.8375 8.72221 11.9608 8.4806 12.007L8.38396 12.0224C8.28731 12.0532 8.19067 12.0686 8.07792 12.0686H8.01349L7.85241 12.0224C7.67523 11.9454 7.51416 11.8529 7.36919 11.7297C7.07926 11.4986 6.80543 11.2367 6.59604 10.9286C5.71013 9.69607 5.98396 8.03221 7.20812 7.10784C7.28866 7.06162 7.3853 7.06162 7.44973 7.13865C7.48194 7.18487 7.49805 7.23109 7.48194 7.2773C7.36919 7.7703 7.27255 8.54061 7.75577 9.20307C8.17456 9.7577 9.04436 10.2969 9.5759 10.2969C9.68866 10.9132 9.51147 11.3291 9.1249 11.6681V11.6681Z" stroke="#221F1F" stroke-width="0.150246" stroke-linejoin="round"/>
<path d="M10.8805 13.8866C10.8805 14.2255 10.6711 14.4874 10.4134 14.4874C10.1557 14.4874 9.94629 14.2101 9.94629 13.8866C9.94629 13.5939 10.1074 13.3474 10.3168 13.2858L10.8322 13.6555C10.8644 13.7325 10.8805 13.8096 10.8805 13.8866Z" fill="#221F1F"/>
<path d="M10.7035 13.8096C10.7035 13.9328 10.623 14.0252 10.5424 14.0252C10.4619 14.0252 10.3813 13.9328 10.3813 13.8096C10.3813 13.6863 10.4619 13.5939 10.5424 13.5939C10.623 13.5939 10.7035 13.6863 10.7035 13.8096Z" fill="white"/>
<path d="M10.317 14.3489C10.1399 14.4875 9.97879 14.6416 9.83382 14.8111C9.7694 14.8881 9.70497 14.9805 9.65664 15.0884C9.60832 15.1808 9.57611 15.2886 9.56 15.3965C9.54389 15.4427 9.54389 15.5043 9.54389 15.5505V15.6276V15.7046V16.0435L9.59221 16.3825C9.60832 16.4441 9.60832 16.4903 9.62443 16.5519C9.64054 16.5982 9.65664 16.6598 9.68886 16.706C9.65664 16.6598 9.64054 16.5982 9.60832 16.5519C9.59221 16.5057 9.56 16.4441 9.54389 16.3979L9.44725 16.059L9.39893 15.72V15.643V15.5505V15.3811C9.41503 15.2578 9.43114 15.1346 9.47946 15.0267L9.64054 14.7032C9.7855 14.5029 9.93047 14.3181 10.1077 14.164C10.1375 14.1415 10.1744 14.1293 10.2123 14.1293C10.2503 14.1293 10.2872 14.1415 10.317 14.164C10.3654 14.1948 10.3815 14.2872 10.317 14.3489Z" fill="#221F1F"/>
<path d="M10.2042 14.3026H10.172H10.1559H10.1236L10.0431 14.2872C9.99479 14.2718 9.94646 14.2718 9.89814 14.2718C9.8015 14.2718 9.68875 14.2718 9.5921 14.3026L9.44714 14.3488C9.30183 14.4114 9.1787 14.5131 9.09277 14.6415C9.1411 14.5337 9.18942 14.4412 9.26995 14.3642C9.30217 14.318 9.35049 14.2872 9.39881 14.2564L9.54378 14.1639C9.64042 14.1023 9.75318 14.0715 9.88204 14.0407C9.94646 14.0253 9.99479 14.0253 10.0592 14.0253H10.1559H10.2203C10.3008 14.0253 10.3653 14.0869 10.3814 14.1639C10.3975 14.2409 10.3008 14.3026 10.2042 14.3026ZM14.1827 13.8866C14.1827 14.2255 13.9733 14.4874 13.7317 14.4874C13.4901 14.4874 13.2646 14.2101 13.2646 13.8866C13.2646 13.8096 13.2807 13.7325 13.2968 13.6555L13.8122 13.2858C14.0216 13.3474 14.1827 13.5939 14.1827 13.8866Z" fill="#221F1F"/>
<path d="M13.4253 13.8096C13.4253 13.9328 13.5058 14.0252 13.5864 14.0252C13.6669 14.0252 13.7474 13.9328 13.7474 13.8096C13.7474 13.6863 13.6669 13.5939 13.5864 13.5939C13.5058 13.5939 13.4253 13.6863 13.4253 13.8096Z" fill="white"/>
<path d="M14.0213 14.1332C14.1985 14.3026 14.3434 14.4721 14.4723 14.6724C14.5408 14.7698 14.6001 14.8729 14.6495 14.9805C14.6978 15.0883 14.73 15.2116 14.7461 15.3194C14.7622 15.4427 14.7622 15.5505 14.7461 15.6738L14.6978 16.0127C14.6817 16.1206 14.6495 16.2284 14.6172 16.3362C14.6011 16.3825 14.585 16.4441 14.5528 16.4903C14.5325 16.5446 14.5055 16.5963 14.4723 16.6444C14.4884 16.5981 14.5206 16.5365 14.5367 16.4903L14.585 16.3362C14.6011 16.2284 14.6334 16.1206 14.6334 16.0127C14.6495 15.9049 14.6495 15.797 14.6495 15.6738C14.6495 15.5659 14.6334 15.4581 14.6172 15.3502C14.585 15.2424 14.5528 15.15 14.5045 15.0575C14.455 14.961 14.3898 14.8725 14.3112 14.7956C14.1662 14.6262 14.0052 14.4721 13.828 14.3334C13.8127 14.3211 13.8005 14.3058 13.7921 14.2885C13.7837 14.2712 13.7793 14.2524 13.7793 14.2333C13.7793 14.2142 13.7837 14.1954 13.7921 14.1781C13.8005 14.1608 13.8127 14.1454 13.828 14.1332C13.8763 14.0869 13.9568 14.0715 14.0213 14.1178V14.1332Z" fill="#221F1F"/>
<path d="M13.9248 14.0253H14.0053H14.102C14.1664 14.0253 14.2308 14.0253 14.2953 14.0407C14.4241 14.0561 14.5369 14.0869 14.6496 14.1331C14.7624 14.1793 14.859 14.2564 14.9557 14.3334C15.0362 14.4104 15.1006 14.5183 15.149 14.6107C15.0845 14.5183 15.004 14.4412 14.9073 14.3796C14.8107 14.318 14.7141 14.2718 14.6013 14.2564C14.4886 14.2409 14.3758 14.2409 14.263 14.2409C14.2147 14.2409 14.1503 14.2564 14.102 14.2564L14.0214 14.2718H13.9892H13.9731H13.957H13.9409C13.8604 14.2872 13.7798 14.2255 13.7798 14.1485C13.7637 14.0715 13.8282 13.9944 13.9087 13.9944H13.9409" fill="#221F1F"/>
</g>
</g>
<defs>
<clipPath id="clip0_12378_176">
<rect width="24" height="24" fill="white"/>
</clipPath>
<clipPath id="clip1_12378_176">
<rect width="12" height="11" fill="white" transform="translate(6 7)"/>
</clipPath>
</defs>
</svg>
