<svg width="24" height="24" viewBox="0 0 24 24" fill="none" xmlns="http://www.w3.org/2000/svg">
<g clip-path="url(#clip0_10784_8757)">
<circle cx="12" cy="12" r="12" fill="#181D27"/>
<mask id="mask0_10784_8757" style="mask-type:alpha" maskUnits="userSpaceOnUse" x="0" y="0" width="24" height="24">
<circle cx="12" cy="12" r="11.5" fill="#181D27" stroke="white"/>
</mask>
<g mask="url(#mask0_10784_8757)">
<path opacity="0.8" fill-rule="evenodd" clip-rule="evenodd" d="M11.9998 27.0794L0.36002 3.36864L3.38965 1.88136L11.9998 19.4206L20.61 1.88137L23.6397 3.36864L11.9998 27.0794Z" fill="white"/>
</g>
<circle opacity="0.8" cx="12" cy="12" r="10.5" fill="url(#paint0_linear_10784_8757)"/>
<circle cx="12" cy="12" r="9" fill="#181D27"/>
<path d="M12 6.375L10.9683 6.96846L8.15675 8.59404L7.125 9.1875V14.8125L8.15675 15.406L10.994 17.0315L12.0258 17.625L13.0575 17.0315L15.8433 15.406L16.875 14.8125V9.1875L15.8433 8.59404L13.0317 6.96846L12 6.375ZM9.18849 13.6256V10.3744L12 8.74885L14.8115 10.3744V13.6256L12 15.2511L9.18849 13.6256Z" fill="white"/>
</g>
<defs>
<linearGradient id="paint0_linear_10784_8757" x1="22.2313" y1="18.1183" x2="-3.53296" y2="2.62136" gradientUnits="userSpaceOnUse">
<stop stop-color="#5433FF"/>
<stop offset="0.5" stop-color="#20BDFF"/>
<stop offset="1" stop-color="#5CFFA2"/>
</linearGradient>
<clipPath id="clip0_10784_8757">
<rect width="24" height="24" fill="white"/>
</clipPath>
</defs>
</svg>
