<svg width="24" height="24" viewBox="0 0 24 24" fill="none" xmlns="http://www.w3.org/2000/svg">
<g clip-path="url(#clip0_10784_8758)">
<circle cx="12" cy="12" r="12" fill="#181D27"/>
<mask id="mask0_10784_8758" style="mask-type:alpha" maskUnits="userSpaceOnUse" x="0" y="0" width="24" height="24">
<circle cx="12" cy="12" r="11.5" fill="#181D27" stroke="white"/>
</mask>
<g mask="url(#mask0_10784_8758)">
<path opacity="0.8" fill-rule="evenodd" clip-rule="evenodd" d="M11.9998 27.0794L0.36002 3.36864L3.38965 1.88136L11.9998 19.4206L20.61 1.88137L23.6397 3.36864L11.9998 27.0794Z" fill="white"/>
</g>
<circle opacity="0.8" cx="12" cy="12" r="10.5" fill="url(#paint0_linear_10784_8758)"/>
<circle cx="12" cy="12" r="9" fill="#181D27"/>
<path d="M12.5263 12.5416L11.7487 15.1596H15.908C15.9355 15.1586 15.963 15.1631 15.9888 15.1727C16.0147 15.1823 16.0383 15.197 16.0585 15.2158C16.0786 15.2345 16.0949 15.2571 16.1063 15.2822C16.1177 15.3072 16.1241 15.3343 16.125 15.3618V15.4304L15.7633 16.6762C15.7474 16.7351 15.7118 16.7868 15.6625 16.8229C15.6133 16.859 15.5531 16.8773 15.4921 16.8748H9.12659L10.1935 13.2457L9 13.6068L9.27126 12.7763L10.4648 12.4152L11.9657 7.32373C11.9823 7.26515 12.0179 7.21377 12.0671 7.17778C12.1163 7.14179 12.1761 7.12325 12.237 7.12513H13.8464C13.874 7.12416 13.9015 7.12863 13.9273 7.13827C13.9531 7.14792 13.9768 7.16255 13.9969 7.18133C14.0171 7.20011 14.0333 7.22267 14.0447 7.24773C14.0562 7.27278 14.0625 7.29984 14.0635 7.32734V7.39595L12.7976 11.693L13.9911 11.3319L13.7379 12.1986L12.5263 12.5416Z" fill="white"/>
</g>
<defs>
<linearGradient id="paint0_linear_10784_8758" x1="22.2313" y1="18.1183" x2="-3.53296" y2="2.62136" gradientUnits="userSpaceOnUse">
<stop stop-color="#5433FF"/>
<stop offset="0.5" stop-color="#20BDFF"/>
<stop offset="1" stop-color="#5CFFA2"/>
</linearGradient>
<clipPath id="clip0_10784_8758">
<rect width="24" height="24" fill="white"/>
</clipPath>
</defs>
</svg>
