<svg width="24" height="24" viewBox="0 0 24 24" fill="none" xmlns="http://www.w3.org/2000/svg">
<g clip-path="url(#clip0_10784_8760)">
<circle cx="12" cy="12" r="12" fill="#181D27"/>
<mask id="mask0_10784_8760" style="mask-type:alpha" maskUnits="userSpaceOnUse" x="0" y="0" width="24" height="24">
<circle cx="12" cy="12" r="11.5" fill="#181D27" stroke="white"/>
</mask>
<g mask="url(#mask0_10784_8760)">
<path opacity="0.8" fill-rule="evenodd" clip-rule="evenodd" d="M11.9998 27.0794L0.36002 3.36863L3.38965 1.88136L11.9998 19.4206L20.61 1.88136L23.6397 3.36863L11.9998 27.0794Z" fill="white"/>
</g>
<circle opacity="0.8" cx="12" cy="12" r="10.5" fill="url(#paint0_linear_10784_8760)"/>
<circle cx="12" cy="12" r="9" fill="#181D27"/>
<path d="M8.5625 16.35L6.75 15.2625V8.7375L8.5625 7.65L14 10.9125V13.0875L12.1875 14.175L10.375 13.0875V15.2625L8.5625 16.35Z" fill="white"/>
<path d="M14 8.7375V15.2625L15.8125 16.35L17.625 15.2625V8.7375L15.8125 7.65L14 8.7375Z" fill="white"/>
</g>
<defs>
<linearGradient id="paint0_linear_10784_8760" x1="22.2313" y1="18.1183" x2="-3.53296" y2="2.62136" gradientUnits="userSpaceOnUse">
<stop stop-color="#5433FF"/>
<stop offset="0.5" stop-color="#20BDFF"/>
<stop offset="1" stop-color="#5CFFA2"/>
</linearGradient>
<clipPath id="clip0_10784_8760">
<rect width="24" height="24" fill="white"/>
</clipPath>
</defs>
</svg>
