<svg width="24" height="24" viewBox="0 0 24 24" fill="none" xmlns="http://www.w3.org/2000/svg">
<g clip-path="url(#clip0_10784_8763)">
<circle cx="12" cy="12" r="12" fill="#181D27"/>
<mask id="mask0_10784_8763" style="mask-type:alpha" maskUnits="userSpaceOnUse" x="0" y="0" width="24" height="24">
<circle cx="12" cy="12" r="11.5" fill="#181D27" stroke="white"/>
</mask>
<g mask="url(#mask0_10784_8763)">
<path opacity="0.8" fill-rule="evenodd" clip-rule="evenodd" d="M11.9998 27.0794L0.36002 3.36863L3.38965 1.88136L11.9998 19.4206L20.61 1.88136L23.6397 3.36863L11.9998 27.0794Z" fill="white"/>
</g>
<circle opacity="0.8" cx="12" cy="12" r="10.5" fill="url(#paint0_linear_10784_8763)"/>
<circle cx="12" cy="12" r="9" fill="#181D27"/>
<path d="M7.125 7.875H10.375Lnan nanL10.375 7.875C10.375 9.66993 8.91993 11.125 7.125 11.125Lnan nanL7.125 11.125V7.875Z" fill="white"/>
<path d="M16.875 11.1681V7.875H13.6901C11.8592 7.875 10.375 9.34938 10.375 11.1681V17.625H13.6901V11.1681H16.875Z" fill="white"/>
</g>
<defs>
<linearGradient id="paint0_linear_10784_8763" x1="22.2313" y1="18.1183" x2="-3.53296" y2="2.62136" gradientUnits="userSpaceOnUse">
<stop stop-color="#5433FF"/>
<stop offset="0.5" stop-color="#20BDFF"/>
<stop offset="1" stop-color="#5CFFA2"/>
</linearGradient>
<clipPath id="clip0_10784_8763">
<rect width="24" height="24" fill="white"/>
</clipPath>
</defs>
</svg>
