<svg width="24" height="24" viewBox="0 0 24 24" fill="none" xmlns="http://www.w3.org/2000/svg">
<g clip-path="url(#clip0_12317_63)">
<circle cx="12" cy="12" r="12" fill="#181D27"/>
<mask id="mask0_12317_63" style="mask-type:alpha" maskUnits="userSpaceOnUse" x="0" y="0" width="24" height="24">
<circle cx="12" cy="12" r="11.5" fill="#181D27" stroke="white"/>
</mask>
<g mask="url(#mask0_12317_63)">
<path opacity="0.8" fill-rule="evenodd" clip-rule="evenodd" d="M11.9998 27.0794L0.36002 3.36863L3.38965 1.88136L11.9998 19.4206L20.61 1.88136L23.6397 3.36863L11.9998 27.0794Z" fill="white"/>
</g>
<circle opacity="0.8" cx="12" cy="12" r="10.5" fill="url(#paint0_linear_12317_63)"/>
<circle cx="12" cy="12" r="9" fill="#181D27"/>
<path d="M7.04297 8.54128L12.0212 6.92313V18.1248C8.46532 16.6312 7.04297 13.7687 7.04297 12.1514V8.54128Z" fill="#D1D2D4"/>
<path d="M17.0002 8.54128L12.022 6.92313V18.1248C15.5779 16.6312 17.0002 13.7687 17.0002 12.1506V8.54128Z" fill="white"/>
</g>
<defs>
<linearGradient id="paint0_linear_12317_63" x1="22.2313" y1="18.1183" x2="-3.53296" y2="2.62136" gradientUnits="userSpaceOnUse">
<stop stop-color="#5433FF"/>
<stop offset="0.5" stop-color="#20BDFF"/>
<stop offset="1" stop-color="#5CFFA2"/>
</linearGradient>
<clipPath id="clip0_12317_63">
<rect width="24" height="24" fill="white"/>
</clipPath>
</defs>
</svg>
