<svg width="24" height="24" viewBox="0 0 24 24" fill="none" xmlns="http://www.w3.org/2000/svg">
<g clip-path="url(#clip0_10784_8766)">
<circle cx="12" cy="12" r="12" fill="#181D27"/>
<mask id="mask0_10784_8766" style="mask-type:alpha" maskUnits="userSpaceOnUse" x="0" y="0" width="24" height="24">
<circle cx="12" cy="12" r="11.5" fill="#181D27" stroke="white"/>
</mask>
<g mask="url(#mask0_10784_8766)">
<path opacity="0.8" fill-rule="evenodd" clip-rule="evenodd" d="M11.9998 27.0794L0.36002 3.36863L3.38965 1.88136L11.9998 19.4206L20.61 1.88136L23.6397 3.36863L11.9998 27.0794Z" fill="white"/>
</g>
<circle opacity="0.8" cx="12" cy="12" r="10.5" fill="url(#paint0_linear_10784_8766)"/>
<circle cx="12" cy="12" r="9" fill="#181D27"/>
<path d="M10.8566 14.5458C11.1421 15.6022 12.1665 16.408 12.6838 16.3746C12.7019 16.3735 14.6459 16.011 15.7101 14.2334C16.5381 12.8497 16.2564 11.5138 15.13 11.4847C14.7248 11.5143 10.3129 12.5338 10.8569 14.5461L10.8566 14.5458ZM15.0249 7.76165L15.0238 7.76065L15.0253 7.75965C14.3159 7.15621 13.4504 6.76549 12.5285 6.63249C11.6067 6.4995 10.6661 6.62964 9.81496 7.00793C9.7073 7.05271 9.60243 7.1039 9.50091 7.16124C9.43153 7.19822 9.36215 7.2349 9.29478 7.27544L9.31119 7.28058C9.11198 7.4162 8.93582 7.58291 8.78944 7.77435C7.37165 9.64852 12.1272 11.0114 14.6702 11.0153C15.8394 11.855 16.1678 8.65127 15.0249 7.76165Z" fill="#9CA1B4"/>
<path d="M10.102 7.79946C9.44866 8.78158 7.27244 9.47349 6.91456 9.36571L6.91213 9.36114C6.92641 9.33159 6.94168 9.30204 6.95682 9.27278C7.32793 8.55798 7.85892 7.93842 8.50851 7.46228C8.64241 7.36407 8.78106 7.27228 8.92448 7.18692C9.14497 7.06518 9.39196 6.9994 9.6438 6.99535C10.6129 7.0139 10.1069 7.79189 10.1017 7.79974L10.102 7.79946ZM9.56586 14.739C9.61282 15.0474 9.56471 16.2664 9.50162 16.3689C9.44723 16.3722 9.33403 16.3792 9.00613 16.1952C7.95911 15.5977 7.15133 14.6561 6.72013 13.5304C6.28893 12.4047 6.26094 11.1644 6.64091 10.0204C6.65832 9.96802 6.67655 9.91601 6.69558 9.86433C7.07116 10.364 7.50583 10.8159 7.87527 11.3204C8.22715 11.8007 8.71121 12.5839 8.80971 12.7513C9.42125 13.7901 9.51875 14.431 9.56543 14.7391L9.56586 14.739ZM16.7954 11.6671C16.7962 12.3222 16.6732 12.9715 16.4328 13.5808C15.819 14.2403 11.6816 12.6168 11.641 12.599C11.075 12.351 9.35259 11.5966 9.19713 10.4118C8.9743 8.70592 12.4331 7.51767 13.9534 7.4727C14.1357 7.47484 14.6904 7.48127 15.0139 7.74393C15.5741 8.23246 16.023 8.83546 16.3303 9.51224C16.6376 10.189 16.7962 10.9238 16.7954 11.6671ZM13.9945 16.2882C13.5436 16.4988 13.047 16.3453 13.176 15.9062C13.4237 15.0627 15.5865 14.1979 16.0641 14.1504C16.1231 14.1445 16.1481 14.1847 16.1219 14.2305C15.6243 15.1055 14.8861 15.8194 13.995 16.2875" fill="white"/>
<path d="M8.67952 17.1146C8.67315 17.2098 8.70442 17.3038 8.76659 17.3762C8.82877 17.4486 8.91688 17.4937 9.01199 17.5019C13.3944 17.5318 17.6248 17.3306 17.6248 16.6739C17.6248 14.6863 8.67952 17.1146 8.67952 17.1146Z" fill="white"/>
<path d="M8.67954 17.1146C8.67308 17.2101 8.70452 17.3043 8.76704 17.3768C8.82957 17.4493 8.91815 17.4942 9.01358 17.5019C13.3949 17.5351 17.6195 17.3975 17.6248 16.6739C17.6248 14.6863 8.67954 17.1146 8.67954 17.1146ZM9.01372 17.4766C9.00203 17.4766 8.99036 17.4759 8.97875 17.4746C8.91196 17.4652 8.84942 17.4364 8.79896 17.3916C8.74851 17.3469 8.71238 17.2883 8.6951 17.2231C8.71384 17.2937 8.75497 17.3564 8.81234 17.4017C8.8697 17.4471 8.94021 17.4726 9.01329 17.4745C13.3916 17.447 17.5562 16.0989 17.5562 16.6925C17.5562 17.2983 13.3919 17.5064 9.01372 17.4766Z" fill="#888787"/>
<path d="M9.01415 11.4855C8.97022 11.4855 8.92671 11.4942 8.88612 11.511C8.84554 11.5278 8.80866 11.5525 8.7776 11.5836C8.74654 11.6146 8.72191 11.6515 8.70511 11.6921C8.68831 11.7327 8.67967 11.7762 8.67969 11.8201V17.1146C8.67957 17.203 8.71449 17.2879 8.7768 17.3506C8.83911 17.4134 8.92373 17.4489 9.01215 17.4493C13.3943 17.4165 17.6303 15.966 17.625 16.6742V10.7105C17.6303 10.0025 13.3957 11.4528 9.01415 11.4855Z" fill="#1F2028"/>
<path d="M9.65989 15.1398C9.81592 15.1337 9.9688 15.1271 10.119 15.1187C10.2691 15.1103 10.4162 15.1007 10.5608 15.0901C10.7054 15.0796 10.8471 15.0673 10.987 15.0546C11.1269 15.0419 11.2648 15.0289 11.401 15.0153C11.5372 15.0018 11.6715 14.9876 11.8043 14.9725C12.0659 14.9428 12.3272 14.9105 12.5883 14.8759C12.7175 14.8586 12.8452 14.841 12.9737 14.8223C13.1022 14.8036 13.2285 14.7836 13.3565 14.7639C13.4846 14.7442 13.6135 14.7244 13.742 14.704C13.8704 14.6836 14.0002 14.6629 14.13 14.6412C14.2597 14.6195 14.3903 14.5965 14.5227 14.5738C14.655 14.5511 14.789 14.5283 14.9245 14.5047C15.06 14.4812 15.1972 14.4576 15.3362 14.4333C15.4752 14.4091 15.6161 14.3838 15.7597 14.3597C15.9033 14.3356 16.0495 14.3119 16.1984 14.2892C16.3473 14.2665 16.4839 14.2463 16.6695 14.2229C16.8718 14.1942 17.0762 14.1833 17.2805 14.1904C17.4725 14.2034 17.6245 14.2522 17.6245 14.3861V13.927C17.6245 13.7948 17.4787 13.7474 17.2999 13.7327C17.1092 13.723 16.918 13.731 16.7289 13.7567C16.5506 13.7771 16.4221 13.7967 16.2879 13.8165C16.1537 13.8364 16.0228 13.8571 15.8941 13.8782C15.7653 13.8993 15.6385 13.921 15.5126 13.9428C15.3867 13.9647 15.2614 13.9871 15.1352 14.0092C15.009 14.0313 14.8818 14.0533 14.7526 14.0755L14.3576 14.1434C14.2232 14.1665 14.0864 14.1898 13.9437 14.2131C13.8009 14.2363 13.6519 14.2595 13.4973 14.2833C13.3427 14.3071 13.1822 14.3326 13.0147 14.3574V13.8986C13.1822 13.8739 13.343 13.8483 13.4973 13.8245C13.6516 13.8007 13.8006 13.7773 13.9437 13.7543C14.0867 13.7313 14.2238 13.7077 14.3576 13.6845C14.4915 13.6612 14.6236 13.6388 14.7528 13.6167L15.1352 13.5504L15.5126 13.484C15.6385 13.4619 15.7652 13.4412 15.8941 13.4194C16.023 13.3975 16.1536 13.3777 16.2879 13.3577C16.4222 13.3377 16.5506 13.3182 16.7289 13.2979C16.9181 13.2724 17.1092 13.2643 17.2999 13.2738C17.4789 13.2881 17.6246 13.336 17.6246 13.4681V13.0098C17.6246 12.8779 17.4789 12.8303 17.3 12.8154C17.1093 12.806 16.9182 12.814 16.729 12.8395C16.5507 12.8601 16.4224 12.8794 16.2881 12.8993C16.1537 12.9193 16.023 12.9399 15.8942 12.961C15.7654 12.9821 15.6387 13.0038 15.5128 13.0257C15.3869 13.0475 15.2615 13.0702 15.1354 13.0922L14.7528 13.1584C14.6236 13.1807 14.4924 13.203 14.3578 13.2262C14.2232 13.2495 14.0866 13.2728 13.9438 13.2958C13.8011 13.3187 13.652 13.3423 13.4974 13.3661C13.3428 13.39 13.1824 13.4154 13.0149 13.4401V12.9814C13.1822 12.9566 13.3433 12.9315 13.4976 12.9073C13.6519 12.8832 13.8009 12.8601 13.944 12.8371C14.087 12.8141 14.2238 12.7907 14.3579 12.7674L14.7531 12.6996C14.8815 12.6774 15.0093 12.6555 15.1355 12.6334L15.5129 12.567C15.7708 12.5216 16.0293 12.4795 16.2882 12.4407C16.4225 12.421 16.5509 12.4011 16.7292 12.3807C16.9184 12.3554 17.1095 12.3473 17.3002 12.3567C17.479 12.371 17.6248 12.4191 17.6248 12.5512V12.0919C17.6248 11.9599 17.479 11.9127 17.3002 11.8978C17.1095 11.8883 16.9183 11.8963 16.7292 11.9218C16.5509 11.9422 16.4225 11.9618 16.2882 11.9816C16.1539 12.0014 16.0231 12.0223 15.8944 12.0433C15.7656 12.0643 15.6388 12.0861 15.5129 12.1078L15.1355 12.1745L14.7529 12.2406C14.6237 12.2628 14.4925 12.2849 14.3579 12.3084C14.2233 12.3318 14.0867 12.3549 13.944 12.3779C13.8012 12.4009 13.652 12.4244 13.4973 12.4484C13.3426 12.4724 13.1821 12.4976 13.0148 12.5225V12.0637C13.1821 12.0388 13.3423 12.0134 13.4972 11.9895C13.652 11.9655 13.8009 11.9423 13.944 11.9191C14.087 11.8958 14.2233 11.8727 14.3579 11.8496L14.7531 11.7818C14.8815 11.7595 15.0093 11.7378 15.1355 11.7155C15.2617 11.6932 15.3869 11.6711 15.5129 11.6491C15.639 11.6272 15.7654 11.6053 15.8944 11.5843C16.0233 11.5633 16.1539 11.5426 16.2881 11.5228C16.4222 11.503 16.5509 11.4834 16.7292 11.463C16.9183 11.4375 17.1095 11.4294 17.3002 11.4389C17.4792 11.4531 17.6249 11.5012 17.6249 11.6332V11.1745C17.6249 11.0425 17.4792 10.9949 17.3003 10.9801C17.1096 10.9707 16.9185 10.9788 16.7293 11.0042C16.551 11.0246 16.4227 11.044 16.2883 11.064C16.154 11.084 16.0233 11.1045 15.8945 11.1257C15.7657 11.1468 15.639 11.1685 15.5131 11.1903C15.3872 11.2122 15.2618 11.2349 15.1356 11.2569C15.0094 11.2788 14.8823 11.3008 14.7532 11.3228L14.3581 11.3909C14.0716 11.4404 13.7847 11.487 13.4973 11.5307C13.3424 11.5546 13.1821 11.5799 13.0148 11.6049V11.1397C11.6906 11.3469 10.3537 11.4625 9.01366 11.4855C8.96973 11.4855 8.92622 11.4942 8.88564 11.511C8.84505 11.5278 8.80817 11.5525 8.77711 11.5836C8.74605 11.6146 8.72142 11.6515 8.70462 11.6921C8.68782 11.7327 8.67918 11.7762 8.6792 11.8202V15.1605C8.8505 15.1605 9.01723 15.1584 9.18054 15.1548C9.34384 15.1512 9.50372 15.1458 9.65989 15.1398Z" fill="url(#paint1_linear_10784_8766)"/>
<path d="M9.65946 16.0574C9.81577 16.0514 9.96852 16.0445 10.1187 16.0363C10.2689 16.028 10.416 16.0181 10.5612 16.0077C10.7064 15.9973 10.8474 15.9851 10.9873 15.9723C11.1272 15.9595 11.2651 15.9467 11.4013 15.9329C11.5375 15.9191 11.6725 15.9052 11.8046 15.8901C12.0661 15.8602 12.3273 15.828 12.5883 15.7936C12.7173 15.7763 12.8452 15.7585 12.9737 15.7399C13.1022 15.7213 13.2288 15.7012 13.3567 15.6814C13.4846 15.6615 13.6136 15.642 13.7421 15.6217C13.8706 15.6014 14.0005 15.5803 14.1304 15.5588C14.2603 15.5372 14.3909 15.5142 14.5232 15.4914L14.9249 15.4223C15.0604 15.3989 15.1977 15.3753 15.3366 15.3509C15.4755 15.3265 15.6167 15.3015 15.7603 15.2773C15.9039 15.253 16.0501 15.2294 16.199 15.2067C16.3479 15.184 16.4836 15.1639 16.6701 15.1405C16.8723 15.1115 17.0768 15.1006 17.281 15.1078C17.473 15.1209 17.6251 15.1699 17.6251 15.3037V14.8444C17.6251 14.7107 17.473 14.6616 17.2812 14.6486C17.0769 14.6414 16.8724 14.6523 16.6701 14.6811C16.4835 14.704 16.3477 14.725 16.199 14.7475C16.0502 14.7701 15.9039 14.7936 15.7603 14.8179C15.6167 14.8421 15.4758 14.8668 15.3368 14.8915C15.1977 14.9162 15.0606 14.9398 14.9249 14.9629C14.7893 14.986 14.6556 15.009 14.5232 15.032C14.3909 15.055 14.2603 15.0777 14.1305 15.0994C14.0008 15.1211 13.8712 15.1422 13.7423 15.1622L13.3568 15.2223C13.2284 15.2423 13.1016 15.262 12.9738 15.2805C12.8461 15.2991 12.7177 15.3172 12.5884 15.3342C12.4591 15.3512 12.3295 15.3679 12.199 15.384C12.0685 15.4002 11.9375 15.416 11.8047 15.4307C11.672 15.4454 11.5376 15.4593 11.4014 15.4735C11.2653 15.4878 11.1274 15.5001 10.9875 15.5128C10.8476 15.5255 10.7057 15.5376 10.5612 15.5483C10.4168 15.559 10.2693 15.5687 10.1187 15.5769C9.96809 15.585 9.81563 15.592 9.65946 15.598C9.50329 15.604 9.3437 15.609 9.18025 15.6123C9.0168 15.6156 8.85021 15.6183 8.6792 15.6183V16.0769C9.00604 16.0759 9.33284 16.0694 9.65946 16.0574Z" fill="url(#paint2_linear_10784_8766)"/>
<path d="M17.281 15.5659C17.0767 15.5588 16.8723 15.5697 16.67 15.5985C16.4834 15.6214 16.3477 15.6421 16.1989 15.6648C16.0502 15.6875 15.904 15.7111 15.7604 15.7352C15.6168 15.7593 15.4749 15.7843 15.3366 15.8089C15.1982 15.8334 15.0603 15.8573 14.9249 15.8802L14.523 15.9493C14.3907 15.972 14.2601 15.9952 14.1302 16.0167C14.0003 16.0383 13.8708 16.0595 13.7419 16.0795C13.613 16.0995 13.485 16.1198 13.3565 16.1393C13.228 16.1589 13.1012 16.1789 12.9733 16.1977C12.8454 16.2166 12.7164 16.2346 12.5879 16.2515C12.327 16.2859 12.0657 16.3181 11.8042 16.348C11.6715 16.3629 11.5371 16.3766 11.401 16.3909C11.2648 16.4051 11.127 16.4176 10.987 16.4303C10.8469 16.443 10.7052 16.455 10.5607 16.4657C10.4163 16.4764 10.2688 16.4859 10.1182 16.4942C9.63881 16.5205 9.15882 16.5343 8.67871 16.5356V16.9953C8.85001 16.9953 9.01703 16.9934 9.17976 16.9896C9.3425 16.9858 9.50224 16.981 9.65897 16.9753C9.81529 16.9693 9.96803 16.9624 10.1182 16.9542C10.2684 16.9459 10.4155 16.936 10.5607 16.9256C10.7059 16.9152 10.8471 16.9028 10.987 16.8902C11.1269 16.8776 11.2646 16.8647 11.401 16.8509C11.5373 16.8372 11.6722 16.8233 11.8042 16.8081C11.9363 16.793 12.0682 16.7776 12.1986 16.7613C12.3291 16.745 12.4587 16.7289 12.5878 16.7116C12.7168 16.6944 12.8447 16.6766 12.9732 16.6579C13.1017 16.6392 13.2283 16.6191 13.3563 16.5996C13.4844 16.58 13.6133 16.5599 13.7418 16.5396C13.8702 16.5193 14 16.4985 14.13 16.4767C14.2601 16.4548 14.3909 16.4321 14.5232 16.4093L14.9249 16.3403L15.3364 16.269C15.4755 16.2445 15.6166 16.2194 15.7604 16.1953C15.9041 16.1712 16.05 16.1475 16.1989 16.1248C16.3478 16.1021 16.4844 16.082 16.67 16.0587C16.8723 16.03 17.0767 16.0191 17.281 16.0261C17.473 16.0388 17.625 16.0878 17.625 16.2217V15.7616C17.625 15.6277 17.473 15.5792 17.281 15.5659Z" fill="url(#paint3_linear_10784_8766)"/>
<path d="M9.63069 14.6824C9.77629 14.677 9.91619 14.6708 10.0537 14.6636C10.1911 14.6563 10.3249 14.6481 10.4562 14.6389C10.5875 14.6296 10.7183 14.6193 10.8482 14.6082C11.1132 14.5851 11.378 14.5596 11.6425 14.5315C11.7795 14.517 11.9194 14.5011 12.0647 14.4834C12.21 14.4657 12.3614 14.447 12.5192 14.4263C12.6771 14.4056 12.8421 14.3835 13.0146 14.3575V11.1399C11.6907 11.3472 10.354 11.4627 9.01415 11.4857C8.97022 11.4857 8.92671 11.4943 8.88612 11.5111C8.84554 11.5279 8.80866 11.5526 8.7776 11.5837C8.74654 11.6147 8.72191 11.6516 8.70511 11.6922C8.68831 11.7328 8.67967 11.7763 8.67969 11.8203V14.7017C8.85313 14.7017 9.01801 14.6997 9.17603 14.6961C9.33405 14.6925 9.48494 14.6877 9.63069 14.6824Z" fill="#1F2028"/>
<path d="M9.71165 11.621C9.69523 11.6723 9.68724 11.698 9.67096 11.7495L9.53906 11.7543L9.6457 11.8291L9.60487 11.9576C9.6477 11.9246 9.66896 11.9085 9.71165 11.8754C9.75447 11.9052 9.77531 11.9198 9.81828 11.9493C9.80172 11.8994 9.79373 11.8744 9.77745 11.8243L9.88423 11.7411C9.83141 11.7436 9.80486 11.7443 9.75219 11.7468L9.71165 11.621Z" fill="white"/>
<path d="M10.0928 13.2037L10.0521 13.3329L9.91992 13.3394L10.0267 13.4127C10.0104 13.4642 10.0023 13.49 9.98587 13.5412C10.0287 13.5079 10.0501 13.491 10.0928 13.4572C10.1356 13.4858 10.157 13.5 10.1999 13.5294L10.1589 13.405L10.2659 13.32C10.213 13.3235 10.1866 13.325 10.1338 13.3279L10.0928 13.2037Z" fill="white"/>
<path d="M10.1338 13.9687L10.0928 13.844L10.0521 13.9734L9.91992 13.9798C9.96275 14.0092 9.98402 14.024 10.0267 14.053C10.0104 14.1047 10.0023 14.1304 9.98587 14.1815C10.0287 14.148 10.0501 14.1311 10.0928 14.0973C10.1356 14.1258 10.157 14.141 10.1999 14.1698L10.1589 14.0453L10.2659 13.9604C10.213 13.9642 10.1866 13.9664 10.1338 13.9687Z" fill="white"/>
<path d="M9.71165 12.9013C9.69523 12.9529 9.68709 12.9783 9.67096 13.0298C9.61815 13.0319 9.59174 13.0331 9.53906 13.0346C9.58189 13.0645 9.60287 13.0796 9.64555 13.1092L9.60501 13.2376C9.64784 13.2048 9.66896 13.1881 9.71165 13.155C9.75447 13.1847 9.77546 13.1995 9.81842 13.2292C9.80186 13.1791 9.79373 13.1541 9.77745 13.1039L9.88437 13.0208C9.83156 13.0232 9.80501 13.0245 9.75233 13.0265L9.71165 12.9013Z" fill="white"/>
<path d="M9.71165 13.5416L9.67111 13.67C9.61829 13.6718 9.59174 13.673 9.53906 13.6749L9.6457 13.7494L9.60501 13.8779L9.71165 13.795L9.81857 13.869C9.80201 13.8189 9.79387 13.7941 9.7776 13.7438C9.82042 13.7109 9.84169 13.6939 9.88452 13.6606L9.75247 13.6663L9.71165 13.5416Z" fill="white"/>
<path d="M9.71179 12.2611L9.67096 12.3896L9.53906 12.3944L9.6457 12.4691L9.60501 12.5976C9.64784 12.5647 9.66911 12.5482 9.71179 12.5151C9.75461 12.5448 9.77546 12.5596 9.81842 12.5892C9.80186 12.5392 9.79373 12.5141 9.77745 12.464L9.88437 12.3807C9.83156 12.3832 9.80515 12.3845 9.75233 12.3866C9.7362 12.3362 9.72792 12.3114 9.71179 12.2611Z" fill="white"/>
<path d="M10.8556 13.7898L10.8149 13.92C10.762 13.9246 10.7354 13.9266 10.6826 13.931C10.7254 13.9596 10.7469 13.9738 10.7895 14.0008L10.7489 14.1312L10.8556 14.0438L10.9624 14.1127C10.9487 14.0717 10.9351 14.0305 10.9216 13.9894L11.0284 13.9012C10.9754 13.9062 10.949 13.9083 10.8963 13.913C10.88 13.8636 10.8725 13.8392 10.8556 13.7898Z" fill="white"/>
<path d="M10.0928 12.5635L10.0521 12.6927C9.99915 12.6955 9.97274 12.6967 9.91992 12.6992L10.0267 12.7723L9.98587 12.9015L10.0928 12.8174C10.1356 12.846 10.157 12.8603 10.1999 12.8897C10.1836 12.84 10.1752 12.815 10.1589 12.765L10.2659 12.6804C10.213 12.6835 10.1866 12.6854 10.1338 12.6881L10.0928 12.5635Z" fill="white"/>
<path d="M10.4751 13.4999L10.4341 13.6298L10.3022 13.638L10.4093 13.7093L10.3685 13.8388L10.4754 13.7532L10.5823 13.8237L10.5415 13.6998C10.5843 13.6654 10.6056 13.648 10.6483 13.6133L10.5162 13.6233C10.5022 13.5823 10.4885 13.5411 10.4751 13.4999Z" fill="white"/>
<path d="M10.5162 14.264L10.4754 14.1401L10.4344 14.2699C10.3818 14.2736 10.3552 14.2752 10.3022 14.2786L10.4093 14.35L10.3685 14.4799C10.4113 14.4458 10.4326 14.4282 10.4754 14.3942C10.5182 14.4228 10.5395 14.437 10.5823 14.4649L10.5415 14.341C10.5843 14.3064 10.6056 14.2893 10.6483 14.2545L10.5162 14.264Z" fill="white"/>
<path d="M10.0928 11.9232L10.0521 12.0517C9.99915 12.0546 9.97274 12.0557 9.91992 12.0584L10.0267 12.1316C10.0104 12.1833 10.0023 12.2092 9.98587 12.2601C10.0287 12.2266 10.0501 12.2099 10.0928 12.176C10.1356 12.2046 10.157 12.2189 10.1999 12.2484L10.1589 12.1238C10.2017 12.0901 10.223 12.0728 10.2659 12.0389C10.213 12.0421 10.1866 12.0439 10.1338 12.0467L10.0928 11.9232Z" fill="white"/>
<path d="M10.475 12.8598L10.4343 12.9896C10.3813 12.993 10.3552 12.995 10.3022 12.9981L10.4092 13.0695L10.3682 13.1993L10.4753 13.1136L10.5822 13.1842L10.5414 13.0601L10.6481 12.9745L10.5161 12.9844L10.475 12.8598Z" fill="white"/>
<path d="M9.75247 14.3074L9.71165 14.182L9.67096 14.3105L9.53906 14.3155C9.58189 14.345 9.60301 14.3603 9.6457 14.39L9.60501 14.5185L9.71165 14.4358L9.81857 14.5101L9.7776 14.3849L9.88452 14.3016L9.75247 14.3074Z" fill="white"/>
<path d="M8.9482 12.9222L8.90723 13.0496C8.85427 13.0496 8.82772 13.0496 8.7749 13.0505C8.81773 13.0816 8.83914 13.0973 8.88196 13.1282L8.841 13.2556L8.94806 13.1758C8.99088 13.2068 9.0123 13.2219 9.05512 13.2528L9.01444 13.1266L9.12136 13.0462C9.0684 13.0471 9.04199 13.0479 8.98903 13.0485L8.9482 12.9222Z" fill="white"/>
<path d="M8.9482 12.2817L8.90723 12.409C8.85427 12.409 8.82772 12.4098 8.7749 12.4099L8.88196 12.4876L8.84114 12.615L8.9482 12.5355L9.05512 12.6122L9.01444 12.4858C9.05726 12.4539 9.07853 12.438 9.12136 12.4056C9.06854 12.4066 9.04199 12.407 8.98903 12.4078L8.9482 12.2817Z" fill="white"/>
<path d="M8.98854 14.3291L8.94757 14.2028L8.9066 14.33C8.85364 14.3307 8.82723 14.3309 8.77441 14.3311L8.88148 14.4087L8.84065 14.5363L8.94757 14.4566L9.05463 14.5336C9.04096 14.4914 9.02735 14.4492 9.01381 14.4069L9.12073 14.3267C9.06834 14.328 9.04207 14.3281 8.98854 14.3291Z" fill="white"/>
<path d="M10.3679 12.5592L10.4746 12.4736C10.5175 12.5021 10.539 12.5164 10.5817 12.5442L10.541 12.4202L10.6478 12.3335C10.5948 12.3378 10.5686 12.3398 10.5157 12.3437L10.4748 12.2199L10.4339 12.3494C10.3813 12.3531 10.3547 12.3547 10.3018 12.3582L10.4088 12.4296L10.3679 12.5592Z" fill="white"/>
<path d="M10.3679 11.9186C10.4107 11.8845 10.4321 11.8674 10.4748 11.833C10.5176 11.8615 10.539 11.8758 10.5817 11.9035L10.541 11.7796C10.5838 11.7452 10.6051 11.7278 10.6478 11.6931C10.5948 11.6974 10.5686 11.6992 10.5157 11.7031L10.4748 11.579L10.4339 11.7088C10.3813 11.7126 10.3547 11.7144 10.3018 11.7176L10.4088 11.789L10.3679 11.9186Z" fill="white"/>
<path d="M8.9482 13.5625L8.90709 13.69H8.7749L8.88196 13.7681L8.841 13.8953L8.94806 13.8156L9.05512 13.8924L9.01444 13.7661L9.12121 13.6859C9.0684 13.6869 9.04199 13.6873 8.98903 13.688L8.9482 13.5625Z" fill="white"/>
<path d="M9.32989 11.9534L9.28907 12.0812C9.23625 12.0825 9.20984 12.0833 9.15674 12.0845L9.2638 12.1606L9.22297 12.2891L9.32989 12.2077L9.43696 12.2831L9.39599 12.1573L9.50291 12.0754L9.37101 12.0795C9.35445 12.0292 9.34631 12.0041 9.32989 11.9534Z" fill="white"/>
<path d="M9.32989 12.5941L9.28907 12.7226L9.15674 12.7257C9.19956 12.7563 9.22098 12.7712 9.2638 12.8015C9.24738 12.8526 9.23925 12.8785 9.22297 12.93C9.2658 12.8974 9.28707 12.8814 9.32975 12.8488C9.37258 12.879 9.39413 12.8939 9.43696 12.9238L9.39599 12.7982L9.50291 12.7164L9.37072 12.7206C9.3543 12.6695 9.34631 12.6445 9.32989 12.5941Z" fill="white"/>
<path d="M9.37086 14.0004L9.33004 13.8746L9.28921 14.0031C9.23625 14.0045 9.2097 14.0051 9.15674 14.0063L9.26394 14.0822L9.22297 14.2107L9.32989 14.1295L9.4371 14.2048L9.39613 14.0791L9.50305 13.9971L9.37086 14.0004Z" fill="white"/>
<path d="M9.32975 13.2344L9.28892 13.3629C9.23611 13.3642 9.20956 13.3651 9.15674 13.3659L9.26366 13.442C9.24724 13.4931 9.2391 13.5189 9.22283 13.5705L9.32975 13.4891L9.43681 13.5645C9.42054 13.5142 9.4124 13.4891 9.39584 13.4389C9.43867 13.4063 9.46022 13.3896 9.50291 13.3568C9.44995 13.3585 9.42354 13.3596 9.37072 13.3612L9.32975 13.2344Z" fill="white"/>
<path d="M8.9482 11.6415L8.90737 11.769C8.85441 11.769 8.82772 11.7698 8.7749 11.7701C8.81773 11.8012 8.83928 11.8169 8.88196 11.8476L8.84114 11.9748L8.9482 11.8956C8.99103 11.9264 9.01244 11.9416 9.05526 11.9721L9.01458 11.8459L9.12164 11.7656C9.06868 11.7667 9.04199 11.7673 8.98903 11.768L8.9482 11.6415Z" fill="white"/>
<path d="M10.8555 13.1498L10.8148 13.28C10.7618 13.2846 10.7356 13.2866 10.6826 13.2909C10.7254 13.3194 10.7467 13.3328 10.7894 13.3605L10.7487 13.491C10.7915 13.4562 10.8128 13.4385 10.8555 13.4035L10.9623 13.4724L10.9214 13.3493L11.0282 13.261C10.9753 13.266 10.9488 13.2682 10.8962 13.2729C10.8799 13.2239 10.8723 13.1992 10.8555 13.1498Z" fill="white"/>
<path d="M12.3813 12.9863L12.3403 13.1183L12.208 13.135L12.3149 13.2001L12.274 13.3322L12.3812 13.2402C12.424 13.2659 12.4454 13.279 12.4882 13.3049L12.4473 13.1833L12.5545 13.0908L12.4221 13.108L12.3813 12.9863Z" fill="white"/>
<path d="M12.3813 12.3463C12.3649 12.3992 12.3566 12.4253 12.3403 12.4783C12.2874 12.485 12.2608 12.4884 12.208 12.4947C12.2508 12.5211 12.2722 12.534 12.3151 12.5601L12.2742 12.692C12.3171 12.6552 12.3385 12.637 12.3813 12.6001L12.4884 12.6647L12.4474 12.5433L12.5546 12.4506C12.5018 12.4575 12.4751 12.4612 12.4223 12.4679L12.3813 12.3463Z" fill="white"/>
<path d="M12.422 13.7481L12.3812 13.6265L12.3402 13.7587C12.2874 13.7651 12.2608 13.7688 12.208 13.7751L12.3149 13.8403L12.274 13.9724L12.381 13.8804C12.4238 13.9063 12.4454 13.9191 12.4881 13.9451L12.4473 13.8236L12.5543 13.731L12.422 13.7481Z" fill="white"/>
<path d="M12.0008 12.0728C11.9846 12.1255 11.9766 12.1519 11.9602 12.2047L11.8286 12.2198L11.9351 12.2859L11.8946 12.4177C11.9374 12.3814 11.9582 12.3631 12.0008 12.3267L12.1074 12.3923L12.0666 12.2703L12.1736 12.1788L12.0415 12.195C12.0273 12.1544 12.0138 12.1137 12.0008 12.0728Z" fill="white"/>
<path d="M12.3814 11.7056L12.3403 11.8376C12.2874 11.8443 12.261 11.8476 12.208 11.854L12.3152 11.9194L12.2742 12.0516C12.3171 12.0149 12.3385 11.9961 12.3813 11.9594L12.4885 12.0243C12.4749 11.9837 12.4613 11.9431 12.4475 11.9026C12.4904 11.8659 12.5119 11.8469 12.5547 11.8099L12.4223 11.8272L12.3814 11.7056Z" fill="white"/>
<path d="M12.0008 11.4328C11.9846 11.4853 11.9766 11.5119 11.9602 11.5645L11.8286 11.5797C11.8714 11.6059 11.8927 11.6193 11.9351 11.6458L11.8946 11.7774C11.9374 11.7411 11.9582 11.7228 12.0008 11.6864L12.1075 11.752L12.0667 11.6302C12.1095 11.5935 12.1307 11.5752 12.1736 11.5387L12.0415 11.5548C12.0274 11.5143 12.0138 11.4736 12.0008 11.4328Z" fill="white"/>
<path d="M12.7633 12.6157L12.7224 12.7483C12.6696 12.7554 12.6431 12.7591 12.5903 12.766L12.6973 12.8301L12.6563 12.9626L12.7632 12.8695L12.87 12.933C12.8536 12.8846 12.8456 12.8603 12.8293 12.8118C12.8721 12.7744 12.8932 12.7559 12.9358 12.7182C12.8831 12.7259 12.8568 12.7293 12.8042 12.7369L12.7633 12.6157Z" fill="white"/>
<path d="M12.7635 11.9753L12.7225 12.1076C12.6697 12.1151 12.6433 12.1185 12.5903 12.1256C12.6332 12.1515 12.6544 12.1639 12.6971 12.1894L12.6563 12.3222L12.7633 12.2288L12.87 12.2927C12.8536 12.2441 12.8456 12.2198 12.8293 12.1712C12.8721 12.1338 12.8932 12.1152 12.9358 12.0777L12.8042 12.0964L12.7635 11.9753Z" fill="white"/>
<path d="M12.8034 14.0174L12.7627 13.8962L12.7217 14.0287C12.6691 14.036 12.6425 14.0395 12.5898 14.0465L12.6966 14.1106L12.6557 14.2434C12.6985 14.2063 12.72 14.1873 12.7627 14.1499L12.8693 14.2137L12.8285 14.0924L12.9352 13.9987C12.8825 14.0064 12.8568 14.0101 12.8034 14.0174Z" fill="white"/>
<path d="M12.7636 11.3348L12.7227 11.4674C12.6698 11.4747 12.6433 11.4784 12.5903 11.4854L12.6975 11.5493L12.6564 11.6817L12.7636 11.5887C12.8065 11.6141 12.8276 11.627 12.8703 11.6521C12.854 11.6037 12.8457 11.5795 12.8296 11.5309C12.8724 11.4935 12.8934 11.475 12.9359 11.4373C12.8834 11.445 12.8571 11.4488 12.8045 11.4561L12.7636 11.3348Z" fill="white"/>
<path d="M12.7633 13.2559L12.7224 13.3883L12.5903 13.406L12.6971 13.4703L12.6563 13.6026L12.7632 13.5097L12.8698 13.5731L12.8292 13.4519C12.872 13.4145 12.8931 13.3959 12.9356 13.3582C12.8831 13.3661 12.8567 13.3696 12.8039 13.3769L12.7633 13.2559Z" fill="white"/>
<path d="M12.0009 12.7132C11.9848 12.7659 11.9768 12.7923 11.9604 12.845L11.8286 12.8603C11.8714 12.8867 11.8927 12.9002 11.9352 12.9265L11.8947 13.0581L12.0009 12.967L12.1077 13.0327L12.0669 12.9108C12.1097 12.8742 12.1308 12.8558 12.1738 12.8193C12.1208 12.8259 12.0941 12.829 12.0416 12.8353L12.0009 12.7132Z" fill="white"/>
<path d="M10.8556 11.8691L10.8149 11.9993C10.762 12.0038 10.7354 12.0061 10.6826 12.0103L10.7895 12.0802L10.7489 12.2105C10.7917 12.1757 10.8129 12.1579 10.8556 12.1229C10.8985 12.1514 10.9196 12.1644 10.9624 12.192L10.9216 12.0688C10.9644 12.0337 10.9857 12.0155 11.0284 11.9804L10.8963 11.9924C10.88 11.9429 10.8725 11.9185 10.8556 11.8691Z" fill="white"/>
<path d="M11.2371 13.4348L11.1963 13.5657C11.1435 13.5707 11.1169 13.5733 11.064 13.578L11.171 13.6464L11.1301 13.7773L11.2371 13.6887C11.2799 13.7161 11.3014 13.7295 11.3442 13.7567L11.3032 13.634C11.346 13.5986 11.3673 13.5806 11.4101 13.5449L11.2781 13.558C11.2617 13.5095 11.2534 13.4842 11.2371 13.4348Z" fill="white"/>
<path d="M12.0009 13.3533L11.9604 13.4851C11.9077 13.4912 11.8814 13.4945 11.8286 13.5004C11.8714 13.5271 11.8926 13.5403 11.9352 13.5666L11.8946 13.6981C11.9374 13.6618 11.9584 13.6437 12.0009 13.6073L12.1075 13.6728L12.0669 13.551C12.1097 13.5144 12.1308 13.4959 12.1738 13.4594C12.1208 13.466 12.0941 13.469 12.0416 13.4754C12.0275 13.4349 12.0139 13.3942 12.0009 13.3533Z" fill="white"/>
<path d="M11.2371 12.1543L11.1963 12.285L11.064 12.2975L11.171 12.3658L11.1301 12.4967C11.1729 12.4612 11.1944 12.4436 11.2371 12.4081C11.2799 12.4354 11.3014 12.4488 11.3442 12.4762C11.3278 12.4269 11.3195 12.4024 11.3034 12.3531C11.3462 12.3176 11.3675 12.3 11.4103 12.2642L11.2781 12.2772L11.2371 12.1543Z" fill="white"/>
<path d="M11.2371 14.0753L11.1963 14.2061C11.1435 14.2112 11.1169 14.2136 11.064 14.2185L11.171 14.2868L11.1301 14.4179L11.2371 14.3291L11.3442 14.3973L11.3032 14.2743C11.346 14.2389 11.3673 14.221 11.4101 14.1854L11.2781 14.1982L11.2371 14.0753Z" fill="white"/>
<path d="M10.8555 12.5103L10.8148 12.6406C10.7618 12.645 10.7356 12.6473 10.6826 12.6514C10.7254 12.68 10.7467 12.6943 10.7894 12.7213L10.7487 12.8516L10.8555 12.7641C10.8983 12.7918 10.9194 12.8056 10.9623 12.833L10.9214 12.7098L11.0282 12.6216C10.9753 12.6266 10.9488 12.6288 10.8962 12.6336L10.8555 12.5103Z" fill="white"/>
<path d="M11.2373 11.514L11.1963 11.6449C11.1435 11.65 11.1169 11.6523 11.064 11.6572L11.1709 11.7257L11.1301 11.8563L11.2373 11.7678C11.2801 11.7948 11.3012 11.8088 11.3442 11.8359L11.3034 11.713C11.3462 11.6776 11.3675 11.6596 11.4104 11.6239C11.3575 11.6292 11.331 11.632 11.2781 11.637L11.2373 11.514Z" fill="white"/>
<path d="M11.2371 12.7945L11.1963 12.9253L11.064 12.9384L11.171 13.007L11.1302 13.1379L11.2371 13.0491L11.3442 13.1172L11.3034 12.9942L11.4103 12.9052C11.3575 12.9106 11.3311 12.9132 11.2781 12.9183C11.2618 12.8682 11.2535 12.8439 11.2371 12.7945Z" fill="white"/>
<path d="M12.0406 14.1162C12.0243 14.0675 12.0164 14.0428 11.9999 13.994L11.9594 14.1257C11.9067 14.1322 11.8805 14.1349 11.8276 14.1409L11.9341 14.2071L11.8936 14.3389C11.9364 14.3026 11.9574 14.284 11.9999 14.2476C12.0428 14.274 12.064 14.2873 12.1067 14.3134L12.0659 14.1915L12.1728 14.0999L12.0406 14.1162Z" fill="white"/>
<path d="M11.6601 13.8391L11.6193 13.7165L11.5783 13.848L11.4463 13.8623L11.5532 13.9298L11.5124 14.061L11.6194 13.9712L11.7262 14.0383L11.6853 13.9158C11.7281 13.8798 11.7495 13.8616 11.7922 13.8253C11.7394 13.8306 11.7129 13.8336 11.6601 13.8391Z" fill="white"/>
<path d="M11.6193 11.7956L11.5785 11.9268C11.5257 11.9325 11.4991 11.9348 11.4463 11.9411L11.5532 12.0087L11.5124 12.1399L11.6194 12.0501L11.7262 12.1171L11.6853 11.9948L11.7922 11.9044L11.6601 11.9187L11.6193 11.7956Z" fill="white"/>
<path d="M11.6193 13.0763L11.5785 13.2075L11.4463 13.2217L11.5534 13.2891L11.5125 13.4203L11.6194 13.3308L11.7264 13.3975L11.6854 13.2753L11.7923 13.1849C11.7395 13.1906 11.7129 13.1937 11.6603 13.1992L11.6193 13.0763Z" fill="white"/>
<path d="M11.6194 12.4358C11.6032 12.4885 11.5949 12.5145 11.5785 12.5672C11.5258 12.5729 11.4991 12.5753 11.4463 12.5807L11.5534 12.6481L11.5125 12.7793L11.6194 12.6898L11.7264 12.7566L11.6854 12.6342C11.7282 12.5983 11.7496 12.58 11.7923 12.5439C11.7396 12.5499 11.7131 12.5526 11.6603 12.5582L11.6194 12.4358Z" fill="white"/>
</g>
<defs>
<linearGradient id="paint0_linear_10784_8766" x1="22.2313" y1="18.1183" x2="-3.53296" y2="2.62136" gradientUnits="userSpaceOnUse">
<stop stop-color="#5433FF"/>
<stop offset="0.5" stop-color="#20BDFF"/>
<stop offset="1" stop-color="#5CFFA2"/>
</linearGradient>
<linearGradient id="paint1_linear_10784_8766" x1="8.67934" y1="13.0676" x2="17.6246" y2="13.0676" gradientUnits="userSpaceOnUse">
<stop stop-color="#DFDFDF"/>
<stop offset="0.021" stop-color="#E1E1E1"/>
<stop offset="0.244" stop-color="#F2F2F2"/>
<stop offset="0.487" stop-color="#FCFCFC"/>
<stop offset="0.791" stop-color="white"/>
<stop offset="0.841" stop-color="#FCFCFC"/>
<stop offset="0.882" stop-color="#F2F2F2"/>
<stop offset="0.919" stop-color="#E1E1E1"/>
<stop offset="0.954" stop-color="#C9C9C9"/>
<stop offset="0.966" stop-color="#BFBFBF"/>
<stop offset="1" stop-color="white"/>
</linearGradient>
<linearGradient id="paint2_linear_10784_8766" x1="8.67963" y1="15.3613" x2="17.6249" y2="15.3613" gradientUnits="userSpaceOnUse">
<stop stop-color="#DFDFDF"/>
<stop offset="0.021" stop-color="#E1E1E1"/>
<stop offset="0.244" stop-color="#F2F2F2"/>
<stop offset="0.487" stop-color="#FCFCFC"/>
<stop offset="0.791" stop-color="white"/>
<stop offset="0.841" stop-color="#FCFCFC"/>
<stop offset="0.882" stop-color="#F2F2F2"/>
<stop offset="0.919" stop-color="#E1E1E1"/>
<stop offset="0.954" stop-color="#C9C9C9"/>
<stop offset="0.966" stop-color="#BFBFBF"/>
<stop offset="1" stop-color="white"/>
</linearGradient>
<linearGradient id="paint3_linear_10784_8766" x1="8.67971" y1="16.2788" x2="17.625" y2="16.2788" gradientUnits="userSpaceOnUse">
<stop stop-color="#DFDFDF"/>
<stop offset="0.021" stop-color="#E1E1E1"/>
<stop offset="0.244" stop-color="#F2F2F2"/>
<stop offset="0.487" stop-color="#FCFCFC"/>
<stop offset="0.791" stop-color="white"/>
<stop offset="0.841" stop-color="#FCFCFC"/>
<stop offset="0.882" stop-color="#F2F2F2"/>
<stop offset="0.919" stop-color="#E1E1E1"/>
<stop offset="0.954" stop-color="#C9C9C9"/>
<stop offset="0.966" stop-color="#BFBFBF"/>
<stop offset="1" stop-color="white"/>
</linearGradient>
<clipPath id="clip0_10784_8766">
<rect width="24" height="24" fill="white"/>
</clipPath>
</defs>
</svg>
