<svg width="24" height="24" viewBox="0 0 24 24" fill="none" xmlns="http://www.w3.org/2000/svg">
<g clip-path="url(#clip0_11596_146)">
<circle cx="12" cy="12" r="12" fill="#181D27"/>
<mask id="mask0_11596_146" style="mask-type:alpha" maskUnits="userSpaceOnUse" x="0" y="0" width="24" height="24">
<circle cx="12" cy="12" r="11.5" fill="#181D27" stroke="white"/>
</mask>
<g mask="url(#mask0_11596_146)">
<path opacity="0.8" fill-rule="evenodd" clip-rule="evenodd" d="M11.9998 27.0794L0.36002 3.36863L3.38965 1.88136L11.9998 19.4206L20.61 1.88136L23.6397 3.36863L11.9998 27.0794Z" fill="white"/>
</g>
<circle opacity="0.8" cx="12" cy="12" r="10.5" fill="url(#paint0_linear_11596_146)"/>
<circle cx="12" cy="12" r="9" fill="#181D27"/>
<path d="M11.998 10.5366V6.375L8.625 12.1039L11.998 14.1452V10.5366Z" fill="white" fill-opacity="0.8"/>
<path d="M12 14.1452L15.377 12.1039L12 6.375V10.5366V14.1452Z" fill="white"/>
<path d="M11.998 14.7979L8.625 12.7608L11.998 17.625V14.7979Z" fill="white"/>
<path d="M15.3751 12.7608L11.998 14.7979V17.625L15.3751 12.7608Z" fill="white" fill-opacity="0.8"/>
</g>
<defs>
<linearGradient id="paint0_linear_11596_146" x1="22.2313" y1="18.1183" x2="-3.53296" y2="2.62136" gradientUnits="userSpaceOnUse">
<stop stop-color="#5433FF"/>
<stop offset="0.5" stop-color="#20BDFF"/>
<stop offset="1" stop-color="#5CFFA2"/>
</linearGradient>
<clipPath id="clip0_11596_146">
<rect width="24" height="24" fill="white"/>
</clipPath>
</defs>
</svg>
