<svg width="24" height="24" viewBox="0 0 24 24" fill="none" xmlns="http://www.w3.org/2000/svg">
<g clip-path="url(#clip0_12387_329)">
<circle cx="12" cy="12" r="12" fill="#181D27"/>
<mask id="mask0_12387_329" style="mask-type:alpha" maskUnits="userSpaceOnUse" x="0" y="0" width="24" height="24">
<circle cx="12" cy="12" r="11.5" fill="#181D27" stroke="white"/>
</mask>
<g mask="url(#mask0_12387_329)">
<path opacity="0.8" fill-rule="evenodd" clip-rule="evenodd" d="M11.9998 27.0793L0.36002 3.36861L3.38965 1.88134L11.9998 19.4206L20.61 1.88134L23.6397 3.36861L11.9998 27.0793Z" fill="white"/>
</g>
<circle opacity="0.8" cx="12" cy="12" r="10.5" fill="#2CDFFF"/>
<circle cx="12" cy="12" r="9" fill="#181D27"/>
<path d="M17.8393 12.654L17.3913 10.9077C17.3785 10.8563 17.3371 10.8164 17.2858 10.8035L15.5552 10.3769C15.5423 10.3741 15.528 10.3727 15.5152 10.3727C15.4738 10.3684 15.431 10.3812 15.3996 10.4126L12.4791 13.3331L12.0925 11.8236C12.0796 11.7723 12.0383 11.7323 11.9869 11.7195L10.5003 11.3528L13.4193 8.43374C13.4365 8.41662 13.4465 8.39522 13.4536 8.37381C13.4664 8.34528 13.4707 8.31247 13.4622 8.28108L13.0142 6.53476C13.0013 6.4834 12.9599 6.44345 12.9086 6.43061L11.178 6.00402C11.1437 5.99546 11.1095 6.00117 11.0795 6.01544H11.0781C11.0695 6.01972 11.0624 6.02542 11.0538 6.03113C11.0467 6.03684 11.0367 6.03969 11.031 6.04682L6.04887 11.0261C6.04887 11.0261 6.04031 11.0404 6.03461 11.0475C6.00322 11.0846 5.99181 11.1331 6.00607 11.1802L6.48973 12.868C6.504 12.9165 6.5411 12.9536 6.58818 12.9665L8.20894 13.4316L8.67406 15.0509C8.68832 15.0994 8.72541 15.1365 8.77248 15.1494L10.399 15.6159L10.8655 17.2424C10.8798 17.2909 10.9169 17.328 10.9639 17.3408L12.6589 17.8273C12.6717 17.8316 12.686 17.833 12.6988 17.833C12.7017 17.833 12.7046 17.8316 12.7088 17.8316C12.7088 17.8316 12.7103 17.8316 12.7117 17.8316C12.7488 17.8316 12.7859 17.8173 12.8144 17.7888L17.798 12.8052C17.8151 12.7881 17.8251 12.7667 17.8322 12.7453C17.845 12.7168 17.8493 12.684 17.8408 12.6526L17.8393 12.654ZM15.6051 14.5901L15.2413 13.1705L16.0474 12.3658L17.4327 12.7638L15.6065 14.5915L15.6051 14.5901ZM12.7788 17.4164L12.4149 15.9968L13.873 14.5387L15.2584 14.9368L12.7788 17.4164ZM13.903 14.1007L13.5549 12.888L14.8061 13.1961L13.903 14.0993V14.1007ZM15.0044 13.4073L15.324 14.6529L14.107 14.3033L15.0044 13.4059V13.4073ZM15.0458 12.9579L13.6276 12.6084L15.4496 10.7864L15.8433 12.1604L15.0458 12.9579ZM13.2753 12.9593L13.669 14.3333L12.218 15.7842L10.7999 15.4347L13.2753 12.9593ZM17.1331 11.0604L17.4969 12.4799L16.1216 12.0847L15.7278 10.7136L17.1331 11.0604ZM10.5859 15.2235L10.222 13.8039L10.7471 13.2789L12.1324 13.677L10.5859 15.2235ZM10.777 12.8409L10.4289 11.6282L11.6802 11.9364L10.777 12.8395V12.8409ZM12.1981 13.3945L10.9811 13.0449L11.8785 12.1475L12.1981 13.393V13.3945ZM10.5445 13.0749L10.0266 13.5928L8.60843 13.2432L10.1507 11.7009L10.5445 13.0749ZM8.91231 8.5707L9.30609 9.94465L7.84227 11.4085L6.4241 11.0589L8.91231 8.5707ZM11.0738 6.40921L11.4676 7.78315L10.6829 8.56786L9.26472 8.2183L11.0738 6.40921ZM11.2422 10.2L10.8783 8.78185L11.6716 7.9886L13.0569 8.38523L11.2422 10.2ZM9.54007 9.71208L9.19195 8.49937L10.4432 8.80754L9.54007 9.71065V9.71208ZM10.6415 9.01869L10.9611 10.2642L9.74552 9.91468L10.6429 9.01726L10.6415 9.01869ZM9.51155 10.1487L10.8969 10.5453L8.40441 13.0378L8.04058 11.6196L9.51155 10.1487ZM12.7573 6.686L13.1211 8.10559L11.7458 7.71039L11.352 6.3393L12.7573 6.686ZM6.35277 11.34L7.60401 11.6481L6.70089 12.5513L6.35277 11.3385V11.34ZM6.90491 12.7567L7.80232 11.8593L8.12191 13.1049L6.90634 12.7553L6.90491 12.7567ZM8.92943 14.8954L8.53567 13.5243L9.94098 13.871L10.3048 15.2906L8.92943 14.8954ZM10.7285 15.7158L11.9798 16.0239L11.0767 16.927L10.7285 15.7143V15.7158ZM11.2807 17.1325L12.1781 16.2351L12.4977 17.4806L11.2807 17.1311V17.1325Z" fill="white"/>
</g>
<defs>
<clipPath id="clip0_12387_329">
<rect width="24" height="24" fill="white"/>
</clipPath>
</defs>
</svg>
