<svg width="24" height="24" viewBox="0 0 24 24" fill="none" xmlns="http://www.w3.org/2000/svg">
<g clip-path="url(#clip0_12317_2568)">
<circle cx="12" cy="12" r="12" fill="#181D27"/>
<mask id="mask0_12317_2568" style="mask-type:alpha" maskUnits="userSpaceOnUse" x="0" y="0" width="24" height="24">
<circle cx="12" cy="12" r="11.5" fill="#181D27" stroke="white"/>
</mask>
<g mask="url(#mask0_12317_2568)">
<path opacity="0.8" fill-rule="evenodd" clip-rule="evenodd" d="M11.9998 27.0794L0.36002 3.36863L3.38965 1.88136L11.9998 19.4206L20.61 1.88136L23.6397 3.36863L11.9998 27.0794Z" fill="white"/>
</g>
<circle opacity="0.8" cx="12" cy="12" r="10.5" fill="url(#paint0_linear_12317_2568)"/>
<circle cx="12" cy="12" r="9" fill="#181D27"/>
<g clip-path="url(#clip1_12317_2568)">
<path d="M17.0391 8.02456L17.2051 8.20338L17.06 8.39951C12.355 14.7611 9.64457 17.6414 8.49458 17.2551C7.79411 17.0198 7.09165 16.3121 6.38917 15.2845C6.14225 14.9234 5.91038 14.543 5.6995 14.1645C5.55907 13.9125 5.44021 13.6826 5.3785 13.5531C5.29977 13.388 5.26654 13.2862 5.24017 13.1526C5.23856 13.1444 5.23856 13.1444 5.23703 13.1366C5.22602 13.0798 5.22221 13.0619 5.21399 13.0309C5.07241 12.4973 5 11.9445 5 11.3824C5 7.84124 7.87064 4.9706 11.4118 4.9706C12.5212 4.9706 13.5902 5.25294 14.5377 5.78295L14.5621 5.79825C15.3379 6.33832 16.163 7.08041 17.0391 8.02456ZM14.2379 6.28931C13.3808 5.8126 12.415 5.55883 11.4118 5.55883C8.19552 5.55883 5.58824 8.16611 5.58824 11.3824C5.58824 11.8934 5.65401 12.3956 5.78255 12.88C5.79526 12.9279 5.80101 12.955 5.8145 13.0245C5.81591 13.0318 5.81591 13.0318 5.81727 13.0387C5.83429 13.125 5.85224 13.1799 5.90949 13.3C5.96579 13.4181 6.07893 13.6369 6.21336 13.8782C6.41604 14.242 6.63877 14.6074 6.87477 14.9526C7.50945 15.881 8.13889 16.5151 8.68189 16.6975C9.40611 16.9408 12.1325 14.0547 16.4411 8.24676C15.6589 7.42108 14.9241 6.7686 14.2379 6.28931Z" fill="#181D27"/>
<path d="M14.2381 6.28932C13.381 5.81261 12.4152 5.55884 11.4119 5.55884C8.19566 5.55884 5.58838 8.16612 5.58838 11.3824C5.58838 11.8934 5.65415 12.3956 5.78269 12.88C5.79541 12.9279 5.80115 12.955 5.81464 13.0245C5.81605 13.0318 5.81605 13.0318 5.81742 13.0387C5.83443 13.125 5.85239 13.1799 5.90964 13.3C5.96594 13.4181 6.07908 13.637 6.2135 13.8782C6.41619 14.242 6.63892 14.6074 6.87492 14.9526C7.5096 15.881 8.13904 16.5151 8.68204 16.6975C9.40625 16.9408 12.1326 14.0547 16.4413 8.24676C15.659 7.42109 14.9242 6.7686 14.2381 6.28932Z" fill="white"/>
<path d="M12.588 18.9706C9.04691 18.9706 6.17627 16.0999 6.17627 12.5588C6.17627 9.01771 9.04691 6.14706 12.588 6.14706C16.1292 6.14706 18.9998 9.01771 18.9998 12.5588C18.9998 16.0999 16.1292 18.9706 12.588 18.9706ZM12.588 18.3824C15.8043 18.3824 18.4116 15.7751 18.4116 12.5588C18.4116 9.34258 15.8043 6.7353 12.588 6.7353C9.37179 6.7353 6.7645 9.34258 6.7645 12.5588C6.7645 15.7751 9.37179 18.3824 12.588 18.3824Z" fill="#181D27"/>
<path d="M12.5882 18.3824C15.8044 18.3824 18.4117 15.7751 18.4117 12.5588C18.4117 9.34259 15.8044 6.73531 12.5882 6.73531C9.37193 6.73531 6.76465 9.34259 6.76465 12.5588C6.76465 15.7751 9.37193 18.3824 12.5882 18.3824Z" fill="white"/>
<path fill-rule="evenodd" clip-rule="evenodd" d="M8.23176 13.7518L7.46094 11.4294H8.13623L8.53811 12.7635L8.98282 11.4228H9.53294L9.97764 12.7635L10.3795 11.4294H11.0416L10.2708 13.7518H9.71411L9.24964 12.4242L8.78847 13.7518H8.23176ZM11.2953 13.7353V11.4294H13.1499V11.973H11.9278V12.3221H13.0346V12.8261H11.9278V13.1918H13.1663V13.7353H11.2953ZM14.0558 13.7353V11.9894H13.364V11.4294H15.3866V11.9894H14.6948V13.7353H14.0558ZM15.6666 13.7353V11.4294H16.3056V12.2925H17.1259V11.4294H17.7649V13.7353H17.1259V12.8591H16.3056V13.7353H15.6666Z" fill="#181D27"/>
<path d="M5.38187 10.7358C5.21915 10.6545 5.15319 10.4566 5.23456 10.2939C5.31592 10.1311 5.51379 10.0652 5.67651 10.1465L6.61768 10.6171C6.78041 10.6985 6.84636 10.8964 6.765 11.0591C6.68364 11.2218 6.48577 11.2878 6.32305 11.2064L5.38187 10.7358Z" fill="#181D27"/>
<path d="M5.27397 12.2964C5.10879 12.2202 5.03668 12.0244 5.11292 11.8593C5.18915 11.6941 5.38486 11.622 5.55005 11.6982L6.49122 12.1326C6.65641 12.2088 6.72852 12.4045 6.65228 12.5697C6.57605 12.7349 6.38034 12.807 6.21515 12.7308L5.27397 12.2964Z" fill="#181D27"/>
</g>
</g>
<defs>
<linearGradient id="paint0_linear_12317_2568" x1="22.2313" y1="18.1183" x2="-3.53296" y2="2.62136" gradientUnits="userSpaceOnUse">
<stop stop-color="#5433FF"/>
<stop offset="0.5" stop-color="#20BDFF"/>
<stop offset="1" stop-color="#5CFFA2"/>
</linearGradient>
<clipPath id="clip0_12317_2568">
<rect width="24" height="24" fill="white"/>
</clipPath>
<clipPath id="clip1_12317_2568">
<rect width="14" height="14" fill="white" transform="translate(5 5)"/>
</clipPath>
</defs>
</svg>
