<svg width="24" height="24" viewBox="0 0 24 24" fill="none" xmlns="http://www.w3.org/2000/svg">
<g clip-path="url(#clip0_12650_94)">
<circle cx="12" cy="12" r="12" fill="#181D27"/>
<mask id="mask0_12650_94" style="mask-type:alpha" maskUnits="userSpaceOnUse" x="0" y="0" width="24" height="24">
<circle cx="12" cy="12" r="11.5" fill="#181D27" stroke="white"/>
</mask>
<g mask="url(#mask0_12650_94)">
<path opacity="0.8" fill-rule="evenodd" clip-rule="evenodd" d="M11.9998 27.0794L0.36002 3.36864L3.38965 1.88137L11.9998 19.4206L20.61 1.88137L23.6397 3.36864L11.9998 27.0794Z" fill="white"/>
</g>
<circle opacity="0.8" cx="12" cy="12" r="10.5" fill="url(#paint0_linear_12650_94)"/>
<circle cx="12" cy="12" r="9" fill="#181D27"/>
<g clip-path="url(#clip1_12650_94)">
<path d="M14.3711 17.9997C14.02 17.9896 13.7176 17.8553 13.4474 17.637C13.151 17.3976 12.8172 17.2378 12.4413 17.1683C11.7318 17.0368 11.0979 17.2016 10.5341 17.6483C10.2614 17.8644 9.95588 17.9952 9.60321 17.9915C9.37795 17.989 9.17723 17.9153 9.01458 17.7533C8.24034 16.9833 7.46578 16.2139 6.69248 15.4432C6.54052 15.2916 6.39486 15.1337 6.24259 14.9823C6.01985 14.7606 5.97077 14.4897 6.01356 14.1931C6.05697 13.8943 6.20358 13.6455 6.38574 13.4092C6.80448 12.866 6.95108 12.2526 6.83153 11.5766C6.76326 11.1896 6.6003 10.8461 6.35459 10.5404C6.16142 10.3001 6.03747 10.0302 6.01199 9.72032C5.98965 9.44885 6.05949 9.20915 6.25738 9.01129C7.14048 8.12862 8.02169 7.24438 8.90415 6.3614C8.97054 6.29503 9.03786 6.22771 9.11242 6.17109C9.3424 5.99682 9.60384 5.97794 9.87566 6.03268C10.1346 6.0849 10.3586 6.20695 10.5646 6.37241C10.8962 6.63822 11.276 6.79864 11.6994 6.85086C12.3692 6.93359 12.961 6.75303 13.4854 6.33183C13.7566 6.11415 14.0662 5.98895 14.4195 6.00059C14.6243 6.0072 14.809 6.07231 14.9581 6.22047C15.6949 6.95372 16.4324 7.68666 17.1688 8.42054C17.3636 8.61462 17.5552 8.81154 17.748 9.0072C17.9547 9.21701 18.0176 9.47213 17.984 9.75712C17.9478 10.0657 17.8135 10.3287 17.6209 10.569C17.3586 10.8965 17.2006 11.2705 17.1474 11.6885C17.0612 12.3645 17.2425 12.9603 17.6694 13.4888C17.8861 13.7571 18.0057 14.0654 17.9997 14.4155C17.9956 14.6376 17.9176 14.8307 17.7616 14.988C17.0257 15.7288 16.2889 16.4687 15.5515 17.2079C15.3759 17.384 15.1953 17.5552 15.0201 17.732C14.8408 17.9128 14.6271 18.0041 14.3717 17.9997H14.3711ZM7.57337 12.0852C7.57809 12.4485 7.73854 12.8134 8.04465 13.1179C8.40488 13.4759 8.76321 13.8358 9.12218 14.1947C9.73125 14.8034 10.3347 15.4183 10.9516 16.0192C11.5494 16.6008 12.5171 16.5722 13.1035 15.9795C13.8249 15.2507 14.5532 14.5294 15.2774 13.8034C15.5489 13.5313 15.8318 13.2686 16.0828 12.9789C16.5884 12.3954 16.5453 11.4879 16.0017 10.9424C15.0928 10.0305 14.1817 9.12107 13.2718 8.21009C13.0849 8.02324 12.9009 7.83733 12.6552 7.72032C12.0968 7.4542 11.3748 7.5687 10.9368 8.00626C9.97979 8.96222 9.02433 9.92006 8.06573 10.8748C7.74829 11.1909 7.574 11.5646 7.57337 12.0855V12.0852Z" fill="white"/>
<path d="M13.9408 12.0016C13.9443 13.0601 13.0716 13.9362 12.0085 13.9406C10.9514 13.945 10.0816 13.0774 10.0671 12.0286C10.052 10.9415 10.9489 10.0714 11.9855 10.0651C13.0269 10.0588 13.9301 10.8874 13.9408 12.0016Z" fill="white"/>
</g>
</g>
<defs>
<linearGradient id="paint0_linear_12650_94" x1="22.2313" y1="18.1183" x2="-3.53296" y2="2.62136" gradientUnits="userSpaceOnUse">
<stop stop-color="#5433FF"/>
<stop offset="0.5" stop-color="#20BDFF"/>
<stop offset="1" stop-color="#5CFFA2"/>
</linearGradient>
<clipPath id="clip0_12650_94">
<rect width="24" height="24" fill="white"/>
</clipPath>
<clipPath id="clip1_12650_94">
<rect width="12" height="12" fill="white" transform="translate(6 6)"/>
</clipPath>
</defs>
</svg>
