<svg width="24" height="24" viewBox="0 0 24 24" fill="none" xmlns="http://www.w3.org/2000/svg">
<g clip-path="url(#clip0_10784_8768)">
<circle cx="12" cy="12" r="12" fill="#181D27"/>
<mask id="mask0_10784_8768" style="mask-type:alpha" maskUnits="userSpaceOnUse" x="0" y="0" width="24" height="24">
<circle cx="12" cy="12" r="11.5" fill="#181D27" stroke="white"/>
</mask>
<g mask="url(#mask0_10784_8768)">
<path opacity="0.8" fill-rule="evenodd" clip-rule="evenodd" d="M11.9998 27.0794L0.36002 3.36863L3.38965 1.88136L11.9998 19.4206L20.61 1.88136L23.6397 3.36863L11.9998 27.0794Z" fill="white"/>
</g>
<circle opacity="0.8" cx="12" cy="12" r="10.5" fill="url(#paint0_linear_10784_8768)"/>
<circle cx="12" cy="12" r="9" fill="#181D27"/>
<path d="M17.4351 10.0115L13.3179 17.1429C13.1934 17.3579 13.0145 17.5365 12.7993 17.6606C12.584 17.7848 12.3399 17.8501 12.0913 17.8501C11.8428 17.8501 11.5987 17.7848 11.3834 17.6606C11.1681 17.5365 10.9893 17.3579 10.8648 17.1429L10.143 15.8937C10.1407 15.8906 10.1397 15.8867 10.1403 15.8828C10.1408 15.879 10.1429 15.8755 10.146 15.8732C10.1491 15.8709 10.153 15.8699 10.1568 15.8704C10.1606 15.871 10.1641 15.873 10.1664 15.8761C10.2952 16.0032 10.4513 16.0992 10.6228 16.1567C10.7944 16.2142 10.9768 16.2317 11.1561 16.2079C11.3355 16.1841 11.507 16.1195 11.6576 16.0192C11.8081 15.9189 11.9338 15.7855 12.0249 15.6292L15.4715 9.65353C15.5623 9.49577 15.6157 9.3192 15.6274 9.13751C15.639 8.95582 15.6087 8.77389 15.5388 8.60578C15.4689 8.43768 15.3612 8.28793 15.2241 8.16812C15.087 8.04832 14.9242 7.96167 14.7483 7.91489C14.7444 7.91489 14.7407 7.91335 14.7379 7.91061C14.7352 7.90787 14.7337 7.90415 14.7337 7.90028C14.7337 7.8964 14.7352 7.89269 14.7379 7.88995C14.7407 7.88721 14.7444 7.88567 14.7483 7.88567H16.2093C16.458 7.88593 16.7022 7.95161 16.9174 8.07611C17.1326 8.20061 17.3113 8.37954 17.4355 8.59493C17.5597 8.81033 17.6251 9.05462 17.625 9.30326C17.6249 9.55191 17.5594 9.79616 17.4351 10.0115ZM12.5611 7.88567H11.1336C11.1307 7.88663 11.1282 7.88849 11.1264 7.89098C11.1246 7.89347 11.1236 7.89647 11.1236 7.89955C11.1236 7.90262 11.1246 7.90562 11.1264 7.90811C11.1282 7.91061 11.1307 7.91247 11.1336 7.91343C11.2298 7.95056 11.3168 8.00802 11.3887 8.08187C11.4605 8.15572 11.5157 8.24422 11.5502 8.34132C11.5847 8.43843 11.5979 8.54184 11.5888 8.6445C11.5797 8.74717 11.5485 8.84665 11.4974 8.93616L9.4169 12.5347C9.36315 12.626 9.28986 12.7042 9.20229 12.7638C9.11472 12.8233 9.01505 12.8628 8.91044 12.8792C8.80582 12.8957 8.69885 12.8888 8.59721 12.8591C8.49557 12.8293 8.40178 12.7774 8.32258 12.7071C8.32025 12.704 8.31679 12.702 8.31295 12.7014C8.30912 12.7009 8.30522 12.7019 8.30212 12.7042C8.29902 12.7065 8.29697 12.71 8.29642 12.7138C8.29588 12.7177 8.29687 12.7216 8.2992 12.7247L9.02972 13.9928C9.11174 14.1352 9.22981 14.2534 9.37203 14.3355C9.51425 14.4177 9.67561 14.461 9.83987 14.461C10.0041 14.461 10.1655 14.4177 10.3077 14.3355C10.4499 14.2534 10.568 14.1352 10.65 13.9928L13.372 9.28827C13.4541 9.14604 13.4973 8.9847 13.4972 8.82047C13.4972 8.65623 13.4539 8.49491 13.3717 8.35273C13.2895 8.21055 13.1713 8.09253 13.029 8.01053C12.8867 7.92854 12.7253 7.88548 12.5611 7.88567ZM7.60666 7.88567C7.36306 7.88567 7.12493 7.9579 6.92239 8.09324C6.71984 8.22858 6.56198 8.42094 6.46876 8.64599C6.37553 8.87105 6.35114 9.1187 6.39867 9.35761C6.44619 9.59653 6.5635 9.816 6.73575 9.98825C6.908 10.1605 7.12746 10.2778 7.36638 10.3253C7.6053 10.3728 7.85294 10.3485 8.078 10.2552C8.30306 10.162 8.49542 10.0042 8.63075 9.8016C8.76609 9.59906 8.83833 9.36093 8.83833 9.11733C8.83852 8.95553 8.80679 8.79528 8.74496 8.64577C8.68313 8.49625 8.59242 8.36039 8.47801 8.24598C8.3636 8.13157 8.22775 8.04086 8.07823 7.97903C7.92871 7.9172 7.76846 7.88547 7.60666 7.88567Z" fill="white"/>
</g>
<defs>
<linearGradient id="paint0_linear_10784_8768" x1="22.2313" y1="18.1183" x2="-3.53296" y2="2.62136" gradientUnits="userSpaceOnUse">
<stop stop-color="#5433FF"/>
<stop offset="0.5" stop-color="#20BDFF"/>
<stop offset="1" stop-color="#5CFFA2"/>
</linearGradient>
<clipPath id="clip0_10784_8768">
<rect width="24" height="24" fill="white"/>
</clipPath>
</defs>
</svg>
